<svg width="92" height="16" viewBox="0 0 92 16" fill="none" xmlns="http://www.w3.org/2000/svg">
<rect width="16" height="16" rx="1.26263" fill="#3AB890"/>
<path d="M8 3L9.20496 6.34152L12.7553 6.45492L9.94967 8.63348L10.9389 12.0451L8 10.05L5.06107 12.0451L6.05033 8.63348L3.24472 6.45492L6.79504 6.34152L8 3Z" fill="white"/>
<rect x="19" width="16" height="16" rx="1.26263" fill="#3AB890"/>
<path d="M27 3L28.205 6.34152L31.7553 6.45492L28.9497 8.63348L29.9389 12.0451L27 10.05L24.0611 12.0451L25.0503 8.63348L22.2447 6.45492L25.795 6.34152L27 3Z" fill="white"/>
<rect x="38" width="16" height="16" rx="1.26263" fill="#3AB890"/>
<path d="M46 3L47.205 6.34152L50.7553 6.45492L47.9497 8.63348L48.9389 12.0451L46 10.05L43.0611 12.0451L44.0503 8.63348L41.2447 6.45492L44.795 6.34152L46 3Z" fill="white"/>
<rect x="57" width="16" height="16" rx="1.26263" fill="#3AB890"/>
<path d="M65 3L66.205 6.34152L69.7553 6.45492L66.9497 8.63348L67.9389 12.0451L65 10.05L62.0611 12.0451L63.0503 8.63348L60.2447 6.45492L63.795 6.34152L65 3Z" fill="white"/>
<rect x="76" width="16" height="16" rx="1.26263" fill="#3AB890"/>
<path d="M84 4L85.205 7.34152L88.7553 7.45492L85.9497 9.63348L86.9389 13.0451L84 11.05L81.0611 13.0451L82.0503 9.63348L79.2447 7.45492L82.795 7.34152L84 4Z" fill="white"/>
<rect x="76" width="16" height="16" rx="1.26263" fill="#3AB890"/>
<path d="M84 4L85.205 7.34152L88.7553 7.45492L85.9497 9.63348L86.9389 13.0451L84 11.05L81.0611 13.0451L82.0503 9.63348L79.2447 7.45492L82.795 7.34152L84 4Z" fill="white"/>
<rect x="76" width="16" height="16" rx="1.26263" fill="#E7E7E7"/>
<path d="M76 1.26263C76 0.565297 76.5653 0 77.2626 0H84V16H77.2626C76.5653 16 76 15.4347 76 14.7374V1.26263Z" fill="#3AB890"/>
<path d="M84 3L85.205 6.34152L88.7553 6.45492L85.9497 8.63348L86.9389 12.0451L84 10.05L81.0611 12.0451L82.0503 8.63348L79.2447 6.45492L82.795 6.34152L84 3Z" fill="white"/>
</svg>
