<svg width="125" height="22" viewBox="0 0 125 22" fill="none" xmlns="http://www.w3.org/2000/svg">
<rect width="22" height="22" rx="1.26263" fill="#3AB890"/>
<path d="M10.7072 5.72713C10.8134 5.46347 11.1866 5.46347 11.2928 5.72713L12.6519 9.10217C12.6983 9.21733 12.8079 9.29462 12.9319 9.29965L16.7612 9.45503C17.059 9.46711 17.1757 9.84723 16.9359 10.0243L13.9745 12.2119C13.8674 12.2909 13.8215 12.4286 13.8596 12.5561L14.878 15.9666C14.9609 16.2442 14.6571 16.4775 14.4102 16.3258L11.1653 14.3316C11.0639 14.2693 10.9361 14.2693 10.8347 14.3316L7.58976 16.3258C7.34286 16.4775 7.0391 16.2442 7.12202 15.9666L8.14045 12.5561C8.17852 12.4286 8.13256 12.2909 8.02554 12.2119L5.06408 10.0243C4.82433 9.84723 4.94101 9.46711 5.23883 9.45503L9.0681 9.29965C9.19215 9.29462 9.30173 9.21733 9.34811 9.10217L10.7072 5.72713Z" fill="white"/>
<rect x="26" width="22" height="22" rx="1.26263" fill="#3AB890"/>
<path d="M36.7072 5.72713C36.8134 5.46347 37.1866 5.46347 37.2928 5.72713L38.6519 9.10217C38.6983 9.21733 38.8079 9.29462 38.9319 9.29965L42.7612 9.45503C43.059 9.46711 43.1757 9.84723 42.9359 10.0243L39.9745 12.2119C39.8674 12.2909 39.8215 12.4286 39.8596 12.5561L40.878 15.9666C40.9609 16.2442 40.6571 16.4775 40.4102 16.3258L37.1653 14.3316C37.0639 14.2693 36.9361 14.2693 36.8347 14.3316L33.5898 16.3258C33.3429 16.4775 33.0391 16.2442 33.122 15.9666L34.1404 12.5561C34.1785 12.4286 34.1326 12.2909 34.0255 12.2119L31.0641 10.0243C30.8243 9.84723 30.941 9.46711 31.2388 9.45503L35.0681 9.29965C35.1921 9.29462 35.3017 9.21733 35.3481 9.10217L36.7072 5.72713Z" fill="white"/>
<rect x="51" width="22" height="22" rx="1.26263" fill="#3AB890"/>
<path d="M62.7072 5.72713C62.8134 5.46347 63.1866 5.46347 63.2928 5.72713L64.6519 9.10217C64.6983 9.21733 64.8079 9.29462 64.9319 9.29965L68.7612 9.45503C69.059 9.46711 69.1757 9.84723 68.9359 10.0243L65.9745 12.2119C65.8674 12.2909 65.8215 12.4286 65.8596 12.5561L66.878 15.9666C66.9609 16.2442 66.6571 16.4775 66.4102 16.3258L63.1653 14.3316C63.0639 14.2693 62.9361 14.2693 62.8347 14.3316L59.5898 16.3258C59.3429 16.4775 59.0391 16.2442 59.122 15.9666L60.1404 12.5561C60.1785 12.4286 60.1326 12.2909 60.0255 12.2119L57.0641 10.0243C56.8243 9.84723 56.941 9.46711 57.2388 9.45503L61.0681 9.29965C61.1921 9.29462 61.3017 9.21733 61.3481 9.10217L62.7072 5.72713Z" fill="white"/>
<rect x="77" width="22" height="22" rx="1.26263" fill="#3AB890"/>
<path d="M87.7072 5.72713C87.8134 5.46347 88.1866 5.46347 88.2928 5.72713L89.6519 9.10217C89.6983 9.21733 89.8079 9.29462 89.9319 9.29965L93.7612 9.45503C94.059 9.46711 94.1757 9.84723 93.9359 10.0243L90.9745 12.2119C90.8674 12.2909 90.8215 12.4286 90.8596 12.5561L91.878 15.9666C91.9609 16.2442 91.6571 16.4775 91.4102 16.3258L88.1653 14.3316C88.0639 14.2693 87.9361 14.2693 87.8347 14.3316L84.5898 16.3258C84.3429 16.4775 84.0391 16.2442 84.122 15.9666L85.1404 12.5561C85.1785 12.4286 85.1326 12.2909 85.0255 12.2119L82.0641 10.0243C81.8243 9.84723 81.941 9.46711 82.2388 9.45503L86.0681 9.29965C86.1921 9.29462 86.3017 9.21733 86.3481 9.10217L87.7072 5.72713Z" fill="white"/>
<rect x="103" width="22" height="22" rx="1.26263" fill="#3AB890"/>
<path d="M113.707 5.72713C113.813 5.46347 114.187 5.46347 114.293 5.72713L115.652 9.10217C115.698 9.21733 115.808 9.29462 115.932 9.29965L119.761 9.45503C120.059 9.46711 120.176 9.84723 119.936 10.0243L116.974 12.2119C116.867 12.2909 116.821 12.4286 116.859 12.5561L117.878 15.9666C117.961 16.2442 117.657 16.4775 117.41 16.3258L114.165 14.3316C114.064 14.2693 113.936 14.2693 113.835 14.3316L110.59 16.3258C110.343 16.4775 110.039 16.2442 110.122 15.9666L111.14 12.5561C111.178 12.4286 111.132 12.2909 111.025 12.2119L108.064 10.0243C107.824 9.84723 107.941 9.46711 108.239 9.45503L112.068 9.29965C112.192 9.29462 112.302 9.21733 112.348 9.10217L113.707 5.72713Z" fill="white"/>
</svg>
