<svg width="43" height="23" viewBox="0 0 43 23" fill="none" xmlns="http://www.w3.org/2000/svg">
<path d="M0.155276 8.09562C0.448276 7.62962 1.06828 7.48963 1.53428 7.78463L21.2823 20.2746L41.0303 7.78463C41.4983 7.48763 42.1153 7.62862 42.4103 8.09562C42.7053 8.56262 42.5663 9.17962 42.0993 9.47462L21.8723 22.2676C21.7063 22.3726 21.5213 22.4226 21.3383 22.4226C21.3193 22.4226 21.3013 22.4166 21.2823 22.4156C21.2633 22.4166 21.2453 22.4226 21.2263 22.4226C21.0433 22.4226 20.8583 22.3726 20.6923 22.2676L0.466275 9.47363C-0.000724882 9.17863 -0.140724 8.56162 0.155276 8.09562Z" fill="#1151AA"/>
<path d="M0.155276 0.46672C0.448276 0.000719517 1.06828 -0.139281 1.53428 0.155719L21.2823 12.6457L41.0303 0.155719C41.4983 -0.141281 42.1153 -0.000280499 42.4103 0.46672C42.7053 0.93372 42.5663 1.55072 42.0993 1.84572L21.8723 14.6387C21.7063 14.7437 21.5213 14.7937 21.3383 14.7937C21.3193 14.7937 21.3013 14.7877 21.2823 14.7867C21.2633 14.7877 21.2453 14.7937 21.2263 14.7937C21.0433 14.7937 20.8583 14.7437 20.6923 14.6387L0.466275 1.84572C-0.000724882 1.55072 -0.140724 0.932719 0.155276 0.46672Z" fill="#1151AA"/>
</svg>
