<svg width="30" height="30" viewBox="0 0 30 30" fill="none" xmlns="http://www.w3.org/2000/svg">
<path d="M14.6413 30C10.7305 30 7.05387 28.44 4.28828 25.6067C1.5227 22.7733 0 19.0067 0 15C0 10.9933 1.5227 7.22667 4.28828 4.39333C7.05387 1.56 10.7305 0 14.6413 0C18.5522 0 22.2288 1.56 24.9944 4.39333C27.76 7.22667 29.2827 10.9933 29.2827 15C29.2827 19.0067 27.76 22.7733 24.9944 25.6067C22.2288 28.44 18.5522 30 14.6413 30ZM14.6413 1.65667C7.46057 1.65667 1.61705 7.64333 1.61705 15C1.61705 22.3567 7.46057 28.3433 14.6413 28.3433C21.8221 28.3433 27.6656 22.3567 27.6656 15C27.6656 7.64333 21.8221 1.65667 14.6413 1.65667Z" fill="black"/>
<rect x="6.77051" y="13.9814" width="16" height="2" rx="0.25" fill="black"/>
</svg>
