<svg xmlns="http://www.w3.org/2000/svg" width="92" height="102" fill="none" viewBox="0 0 92 102"><rect width="91.121" height="101.245" fill="#000" rx="4"/><path fill="#fff" d="M35.264 35.212q.519.534 1.44.534 1.394 0 1.931-1.367.535-1.366.475-4.217-.506 1.01-1.634 1.603-1.129.595-2.584.595-2.91 0-4.619-1.782-1.707-1.784-1.708-5.108 0-2.17.906-3.801.906-1.635 2.599-2.54t4.04-.905q3.206 0 5.004 1.337t2.495 3.638.697 5.6q0 5.762-1.738 8.688-1.74 2.925-5.866 2.925-2.347 0-4.024-.95-1.679-.951-2.57-2.495a7.6 7.6 0 0 1-1.009-3.356h5.465q.176 1.069.698 1.603zm2.822-11.346q-.61-.624-1.767-.624-1.069 0-1.693.58-.624.579-.625 1.738c0 .772.212 1.301.64 1.708q.64.61 1.708.61 1.01.001 1.679-.595.668-.594.667-1.663.001-1.129-.61-1.752zm7.61 5.585q-.001-4.9 2.095-7.767 2.092-2.866 6.52-2.866t6.533 2.88q2.11 2.881 2.11 7.753c0 3.248-.703 5.862-2.11 7.783q-2.109 2.88-6.533 2.88t-6.52-2.88-2.095-7.783m11.494 0q0-2.435-.58-3.773-.579-1.336-2.301-1.337t-2.3 1.337q-.58 1.338-.58 3.773c0 1.624.193 2.91.58 3.801q.578 1.337 2.3 1.338 1.724 0 2.301-1.338.58-1.336.58-3.8M17.948 63.568q.68.723.68 2.06v3.74h-1.327V65.77q0-.84-.42-1.298-.42-.46-1.154-.46-.78 0-1.24.495t-.459 1.45v3.413H12.7v-3.599q0-.838-.42-1.297-.42-.461-1.153-.46-.78 0-1.24.495t-.46 1.45v3.413H8.1v-6.417h1.328v1.339q.245-.699.816-1.071.57-.373 1.339-.373c.512 0 1 .13 1.391.395q.588.397.855 1.142.28-.721.897-1.129.616-.407 1.397-.407 1.142 0 1.823.723zm6.842-.304q.746.397 1.165 1.142.42.746.42 1.748c0 .668-.14 1.263-.42 1.76q-.42.744-1.165 1.141a3.5 3.5 0 0 1-1.676.396q-.93 0-1.671-.395a2.9 2.9 0 0 1-1.165-1.148q-.425-.751-.425-1.754 0-1 .425-1.748a2.9 2.9 0 0 1 1.165-1.142q.74-.396 1.67-.395.932-.001 1.677.395m-2.62.99a1.73 1.73 0 0 0-.693.717q-.263.483-.263 1.181c0 .466.088.87.263 1.188q.26.477.694.71.43.234.943.233.512 0 .943-.233t.694-.71q.262-.48.263-1.187c0-.473-.088-.86-.263-1.182a1.7 1.7 0 0 0-.694-.716 1.95 1.95 0 0 0-.943-.233q-.512 0-.944.233m10.866-.687q.675.723.675 2.061v3.74h-1.328V65.77q0-.86-.443-1.333-.443-.472-1.211-.471c-.512 0-.95.169-1.27.506q-.478.507-.478 1.486v3.413h-1.328v-6.418h1.328v1.409q.255-.722.863-1.118.605-.397 1.397-.396 1.117 0 1.793.722zm8.14 2.852h-4.938q.035.99.548 1.467.511.478 1.27.478.663 0 1.123-.337.46-.338.564-.897h1.422q-.13.675-.537 1.2a2.8 2.8 0 0 1-1.06.822q-.652.297-1.455.296-.93 0-1.648-.395a2.8 2.8 0 0 1-1.123-1.142q-.407-.747-.407-1.76c0-.675.135-1.25.407-1.748a2.83 2.83 0 0 1 1.123-1.142q.716-.396 1.648-.395c.623 0 1.178.13 1.649.39q.703.39 1.084 1.07.38.68.379 1.52 0 .326-.047.57zm-1.508-1.66a1.5 1.5 0 0 0-.653-.627 2 2 0 0 0-.902-.205q-.78 0-1.305.478-.524.479-.57 1.409h3.646q.023-.63-.216-1.054m3.593-1.812 1.922 4.716 1.782-4.716h1.48l-3.879 9.469h-1.48l1.386-3.204-2.702-6.265zm9.945 1.643v1.118h-4.8v-1.118zm7.181-1.328q.658.397 1.032 1.142.372.746.373 1.748c0 .668-.124 1.263-.373 1.76a2.7 2.7 0 0 1-1.032 1.142 2.84 2.84 0 0 1-1.496.395c-.56 0-1.08-.144-1.491-.431q-.617-.43-.863-1.142v1.49h-1.328V60.75h1.328v3.692q.244-.708.863-1.142.615-.43 1.49-.431c.584 0 1.058.131 1.497.395m-2.907 1.032a1.86 1.86 0 0 0-.7.744q-.255.485-.256 1.112c0 .419.086.8.257 1.118q.255.478.7.74.443.26 1 .262.886 0 1.422-.565t.537-1.554c0-.66-.178-1.169-.537-1.55q-.534-.57-1.421-.57-.56 0-1.002.263m9.655-.996q.618.43.874 1.142v-1.49h1.328v6.417h-1.328v-1.491q-.255.711-.874 1.142-.615.43-1.49.431c-.584 0-1.058-.131-1.497-.395a2.7 2.7 0 0 1-1.032-1.143q-.374-.745-.373-1.759c0-.675.124-1.25.373-1.748a2.7 2.7 0 0 1 1.032-1.142 2.84 2.84 0 0 1 1.496-.395c.56 0 1.079.144 1.491.431m-2.498 1.3q-.529.565-.53 1.554 0 .99.53 1.555t1.416.564q.56 0 1.002-.262.44-.262.7-.739.257-.477.256-1.118c0-.425-.086-.79-.257-1.112a1.84 1.84 0 0 0-.7-.744 1.93 1.93 0 0 0-1-.263q-.885 0-1.417.565m11.211-1.073q.816.659 1.012 1.787h-1.408a1.5 1.5 0 0 0-.564-.949q-.449-.343-1.124-.343-.769 0-1.28.542-.513.541-.513 1.59t.512 1.596a1.68 1.68 0 0 0 1.281.548q.675 0 1.124-.349a1.53 1.53 0 0 0 .564-.954h1.408q-.197 1.13-1.012 1.792-.815.664-2.061.664-.931 0-1.649-.395a2.8 2.8 0 0 1-1.123-1.143q-.407-.745-.407-1.759c0-.675.135-1.25.407-1.748a2.83 2.83 0 0 1 1.123-1.142q.716-.396 1.649-.395 1.245 0 2.06.658m5.928 5.84-2.306-2.855v2.855H78.14v-8.62h1.328v4.938l2.282-2.736h1.596l-2.796 3.192 2.865 3.226h-1.642zM19.1 73.942q.617.43.875 1.142v-1.491h1.327v6.487q0 .896-.367 1.59a2.7 2.7 0 0 1-1.054 1.09q-.687.395-1.63.395-1.35 0-2.183-.641t-1.043-1.735h1.317q.164.57.628.891.468.32 1.187.32.79 0 1.306-.489.511-.49.512-1.421v-1.56a2.3 2.3 0 0 1-.874 1.142q-.617.43-1.491.43c-.584 0-1.058-.13-1.497-.395a2.7 2.7 0 0 1-1.031-1.142q-.374-.746-.373-1.76c0-.674.123-1.25.373-1.747a2.7 2.7 0 0 1 1.031-1.142 2.84 2.84 0 0 1 1.497-.396c.559 0 1.078.145 1.49.432m-2.497 1.3q-.53.564-.531 1.554 0 .99.53 1.555t1.416.564q.561 0 1.002-.262.44-.263.7-.74.256-.478.256-1.117c0-.426-.086-.79-.256-1.112a1.84 1.84 0 0 0-.7-.745 1.93 1.93 0 0 0-1.001-.262q-.886 0-1.416.564m12.211-1.65v6.418h-1.34v-1.397a2.07 2.07 0 0 1-.849 1.1q-.606.39-1.408.39-1.118 0-1.793-.721-.675-.723-.675-2.061v-3.727h1.327v3.588q0 .875.443 1.344.443.474 1.211.473c.512 0 .951-.17 1.27-.512q.478-.512.478-1.49v-3.4h1.34zm5.66.351q.616.43.874 1.142v-1.491h1.327v6.417h-1.327v-1.49q-.256.711-.874 1.142-.617.43-1.491.43c-.583 0-1.058-.13-1.497-.395a2.7 2.7 0 0 1-1.031-1.142q-.374-.746-.373-1.76c0-.674.123-1.25.373-1.747a2.7 2.7 0 0 1 1.031-1.142 2.84 2.84 0 0 1 1.497-.396c.559 0 1.078.145 1.49.432m-2.498 1.3q-.53.564-.531 1.554 0 .99.53 1.555t1.417.564q.56 0 1.001-.262.44-.263.7-.74.255-.478.256-1.117c0-.426-.086-.79-.256-1.112a1.84 1.84 0 0 0-.7-.745 1.93 1.93 0 0 0-1.001-.262q-.886 0-1.416.564m8.555-1.387a2.65 2.65 0 0 1 1.397-.367v1.444h-.396q-.874 0-1.402.426-.53.426-.531 1.402v3.25H38.27v-6.417h1.328v1.258a2.47 2.47 0 0 1 .932-.996m6.453.088q.616.43.874 1.142v-1.491h1.328v6.417h-1.328v-1.49a2.3 2.3 0 0 1-.874 1.142q-.616.43-1.491.43c-.583 0-1.058-.13-1.496-.395a2.7 2.7 0 0 1-1.032-1.142q-.374-.746-.373-1.76c0-.674.124-1.25.373-1.747a2.7 2.7 0 0 1 1.032-1.142 2.84 2.84 0 0 1 1.496-.396c.559 0 1.078.145 1.491.432m-2.498 1.3q-.53.564-.53 1.554-.001.99.53 1.555.529.565 1.416.564.56 0 1.001-.262.442-.263.7-.74c.172-.316.257-.691.257-1.117s-.087-.79-.257-1.112a1.84 1.84 0 0 0-.7-.745 1.93 1.93 0 0 0-1.001-.262q-.885 0-1.416.564m11.676-1.033q.675.722.675 2.061v3.74h-1.328v-3.6q0-.86-.442-1.333-.443-.471-1.212-.47c-.511 0-.95.168-1.27.506q-.477.506-.477 1.485v3.413h-1.328v-6.417h1.328V75q.255-.722.862-1.118.606-.395 1.397-.395 1.12 0 1.793.722zm5.449 4.649v1.153h-.817q-1.024 0-1.554-.495t-.531-1.648v-3.145h-.92v-1.13h.92v-1.595h1.339v1.596h1.549v1.129h-1.55v3.167q0 .548.205.758.203.21.717.21zm7.161-1.793h-4.938q.036.99.548 1.467t1.27.478q.663 0 1.123-.338.459-.339.564-.896h1.422q-.13.675-.537 1.2a2.8 2.8 0 0 1-1.06.822q-.652.296-1.454.296-.931 0-1.649-.396a2.8 2.8 0 0 1-1.123-1.142q-.407-.746-.407-1.76c0-.674.135-1.25.407-1.747a2.83 2.83 0 0 1 1.123-1.142q.716-.397 1.649-.396c.622 0 1.177.13 1.648.39q.703.39 1.084 1.071.378.68.379 1.52 0 .325-.047.57zm-1.508-1.66a1.5 1.5 0 0 0-.652-.628 2 2 0 0 0-.902-.204q-.78 0-1.306.478-.524.478-.57 1.408h3.646q.023-.629-.216-1.054m8.753 1.66h-4.938q.035.99.548 1.467.512.478 1.27.478.663 0 1.123-.338.46-.339.564-.896h1.422q-.129.675-.536 1.2a2.8 2.8 0 0 1-1.06.822q-.652.296-1.455.296-.931 0-1.649-.396a2.8 2.8 0 0 1-1.123-1.142q-.407-.746-.407-1.76c0-.674.135-1.25.407-1.747a2.83 2.83 0 0 1 1.123-1.142q.716-.397 1.649-.396c.622 0 1.177.13 1.648.39q.703.39 1.084 1.071.378.68.379 1.52 0 .325-.047.57zm-1.508-1.66a1.5 1.5 0 0 0-.652-.628 2 2 0 0 0-.902-.204q-.78 0-1.306.478-.524.478-.57 1.408h3.646q.023-.629-.216-1.054M39.779 52.805q-.894 1.556-2.549 2.445-1.65.89-3.882.889h-5.615V42.458h5.615q2.229 0 3.892.86 1.662.861 2.548 2.407t.886 3.537-.897 3.546zm-4.062-.976q.996-.908.996-2.569c0-1.106-.332-1.948-.996-2.56q-.996-.917-2.727-.917h-1.333v6.958h1.333q1.732 0 2.727-.908zm13.617 2.029h-4.996l-.776 2.28h-4.12l5.155-13.624h4.52l5.136 13.624h-4.14l-.777-2.28zm-.975-2.86-1.513-4.445-1.532 4.445zm15.421-8.542-4.977 9.334v4.347H54.9V51.79l-4.977-9.334h4.48l2.489 5.217 2.468-5.217z"/></svg>