<svg width="30" height="30" viewBox="0 0 30 30" fill="none" xmlns="http://www.w3.org/2000/svg">
<path d="M14.6285 30C10.7211 30 7.0477 28.44 4.28453 25.6067C1.52137 22.7733 0 19.0067 0 15C0 10.9933 1.52137 7.22667 4.28453 4.39333C7.0477 1.56 10.7211 0 14.6285 0C18.536 0 22.2093 1.56 24.9725 4.39333C27.7357 7.22667 29.257 10.9933 29.257 15C29.257 19.0067 27.7357 22.7733 24.9725 25.6067C22.2093 28.44 18.536 30 14.6285 30ZM14.6285 1.65667C7.45404 1.65667 1.61564 7.64333 1.61564 15C1.61564 22.3567 7.45404 28.3433 14.6285 28.3433C21.803 28.3433 27.6414 22.3567 27.6414 15C27.6414 7.64333 21.803 1.65667 14.6285 1.65667ZM22.0826 14.0033H15.5875V7.34333C15.5875 7.15 15.4347 6.99333 15.2462 6.99333H14.0174C13.8288 6.99333 13.676 7.15 13.676 7.34333V14.0033H7.18098C6.99243 14.0033 6.83965 14.16 6.83965 14.3533V15.6133C6.83965 15.8067 6.99243 15.9633 7.18098 15.9633H13.676V22.6233C13.676 22.8167 13.8288 22.9733 14.0174 22.9733H15.2462C15.4347 22.9733 15.5875 22.8167 15.5875 22.6233V15.9633H22.0826C22.2711 15.9633 22.4239 15.8067 22.4239 15.6133V14.3533C22.4239 14.16 22.2711 14.0033 22.0826 14.0033Z" fill="black"/>
</svg>
