<svg width="37" height="37" viewBox="0 0 37 37" fill="none" xmlns="http://www.w3.org/2000/svg">
<path d="M17.8291 0.0643311C18.1213 0.0508091 18.3836 0.238299 18.4648 0.518433C18.5461 0.800304 18.4235 1.10127 18.1689 1.245L18.1553 1.25281H18.1543C17.2271 1.79747 16.3704 2.45562 15.6094 3.21667C10.6904 8.13691 10.6552 16.088 15.5303 21.0536V21.0546C15.7741 21.3053 15.7698 21.7032 15.5225 21.9471H15.5215C15.4007 22.0644 15.2399 22.1305 15.0703 22.1288C14.9024 22.127 14.7415 22.0575 14.624 21.9384L14.5195 21.8319H14.5244C9.27516 16.3736 9.35327 7.69312 14.7197 2.32507C14.8361 2.20869 14.9674 2.11264 15.0967 2.02136C15.156 1.97949 15.2142 1.93797 15.2715 1.89636C11.9193 2.5177 8.75487 3.87978 6.32129 6.31335V6.31433C-0.342071 12.9767 -0.34637 23.7639 6.31738 30.4276C12.9797 37.0912 23.7697 37.0912 30.4336 30.4276C32.8633 27.9965 34.2164 24.8333 34.8389 21.4882C34.7998 21.5429 34.762 21.5994 34.7227 21.6561C34.6338 21.7842 34.5398 21.9143 34.4258 22.0292V22.0302C31.0124 25.4434 26.0747 26.848 21.377 25.7421C21.2548 25.7134 21.1443 25.6489 21.0596 25.5585L20.9844 25.4598C20.8963 25.3164 20.8683 25.1453 20.9062 24.9813C20.9443 24.8185 21.0466 24.676 21.1885 24.5878L21.3008 24.5331C21.417 24.4899 21.5441 24.4813 21.667 24.5096L21.7158 24.5214C25.973 25.5061 30.4354 24.2266 33.5273 21.1346C34.2907 20.3665 34.9555 19.5076 35.5 18.5721V18.5712C35.647 18.3223 35.9429 18.2045 36.2197 18.2841C36.4964 18.362 36.6842 18.6179 36.6777 18.9061V18.9091C36.5431 23.578 34.6286 28.0204 31.3271 31.3251C24.1777 38.4746 12.5717 38.4746 5.42383 31.3251C-1.72385 24.1756 -1.72561 12.5667 5.42383 5.41882C8.72528 2.1174 13.1634 0.202696 17.8291 0.0633545V0.0643311ZM15.3721 18.0731H19.7168C19.9589 18.0732 20.1805 18.2112 20.2861 18.4276C20.3932 18.6456 20.3655 18.9053 20.2168 19.0956L16.6084 23.7177H19.7168C20.0663 23.7162 20.3498 23.9983 20.3516 24.3475C20.3516 24.515 20.2856 24.6782 20.166 24.7977C20.0465 24.9171 19.8841 24.9823 19.7168 24.9823H15.3096C15.0691 24.9806 14.8497 24.8421 14.7441 24.6259C14.6387 24.4079 14.6657 24.1501 14.8145 23.9598L18.418 19.3387H15.3096C14.9602 19.337 14.678 19.0536 14.6797 18.704C14.6815 18.3565 14.9617 18.0749 15.3096 18.0731L15.3721 18.0721V18.0731ZM27.3096 13.6034C27.5497 13.6035 27.7692 13.74 27.875 13.9559C27.9823 14.1723 27.9566 14.4305 27.8096 14.621L25.125 18.1024H27.3096C27.6575 18.1026 27.9397 18.3847 27.9414 18.7323V18.7333C27.9394 19.0821 27.6574 19.364 27.3096 19.3641H23.8359C23.6255 19.3626 23.4321 19.2578 23.3154 19.0868L23.2705 19.0096C23.1648 18.7948 23.1908 18.5369 23.3379 18.3466L26.0166 14.868H23.8359C23.4867 14.8662 23.2043 14.5828 23.2061 14.2333C23.2078 13.8857 23.4884 13.6053 23.8359 13.6034H27.3096ZM24.6035 5.2821L24.6924 5.28796C24.8976 5.3159 25.079 5.44443 25.1729 5.63367C25.2801 5.84987 25.2543 6.10926 25.1074 6.29968L22.4199 9.78113H24.6035C24.7708 9.78113 24.9336 9.84691 25.0518 9.96667L25.1309 10.0634C25.2002 10.1672 25.2382 10.2899 25.2383 10.4159V10.4169C25.2365 10.5844 25.1693 10.7454 25.0498 10.8632C24.9615 10.9512 24.8481 11.0113 24.7266 11.035L24.6035 11.0458H21.1357C20.9251 11.0458 20.7304 10.9415 20.6133 10.7704L20.5684 10.6932C20.4628 10.477 20.4886 10.2186 20.6357 10.0282L23.3203 6.54773H21.1357C20.8301 6.54913 20.5731 6.33309 20.5137 6.0448L20.501 5.91687C20.4995 5.74734 20.5668 5.58658 20.6855 5.46765C20.8046 5.3486 20.9659 5.28052 21.1357 5.2821H24.6035Z" fill="#1151AA" stroke="#1151AA" stroke-width="0.125"/>
</svg>
