<svg width="37" height="37" viewBox="0 0 37 37" fill="none" xmlns="http://www.w3.org/2000/svg">
<path d="M5.96387 5.02844L5.96094 5.03723C6.22703 5.07402 6.44013 5.27478 6.49121 5.53528L6.50293 5.66223L6.48145 10.4542V10.4552C6.47962 10.621 6.41324 10.78 6.29688 10.8966L6.2959 10.8976C6.1777 11.0139 6.01846 11.0791 5.85254 11.0792H5.85156C5.50513 11.0774 5.22559 10.7957 5.22559 10.4493V10.3868H5.22754L5.23828 7.38586C-0.317819 14.0257 0.0206474 23.9122 6.25781 30.1495C11.9899 35.88 20.9757 36.7331 27.6836 32.1788C27.8215 32.0823 27.9935 32.0484 28.1562 32.0792C28.3206 32.1101 28.4658 32.2062 28.5586 32.3448C28.7525 32.6315 28.6778 33.0195 28.3936 33.215H28.3926C21.1928 38.1031 11.5218 37.1899 5.37012 31.0382C-1.30763 24.3598 -1.68351 13.7523 4.23828 6.6261L1.29785 7.21985H1.29688C1.1329 7.25221 0.961442 7.21986 0.822266 7.12708V7.1261C0.718339 7.05552 0.637442 6.95747 0.59082 6.8429L0.556641 6.72375C0.489776 6.38409 0.708992 6.0561 1.04688 5.98743L5.75195 5.04016C5.79522 5.03152 5.83802 5.02845 5.87988 5.02844H5.96387ZM18.0146 0.0626221L18.0156 0.0645752C18.6516 0.0575006 19.286 0.0828 19.9189 0.1427C24.004 0.528858 27.9642 2.29934 31.04 5.37512C37.7182 12.0535 38.0924 22.657 32.1689 29.7833L35.1113 29.1945L35.2344 29.1808C35.3573 29.1799 35.4788 29.216 35.583 29.2853L35.6787 29.3634C35.7664 29.45 35.828 29.5613 35.8525 29.6837L35.8643 29.8107C35.8623 30.102 35.6571 30.3619 35.3613 30.422L35.2871 30.4366V30.4347L30.6572 31.3673C30.4719 31.4051 30.2796 31.3566 30.1338 31.2365C29.988 31.1163 29.9036 30.936 29.9053 30.7472L29.9268 25.9552C29.9269 25.7889 29.9941 25.6295 30.1123 25.5128L30.208 25.4347C30.3106 25.3664 30.4316 25.33 30.5566 25.3312C30.7229 25.3312 30.8823 25.3977 30.999 25.5157C31.0842 25.6009 31.141 25.7082 31.166 25.8234L31.1836 25.8068L31.1826 25.9591L31.168 29.0226C36.7254 22.3827 36.3867 12.4971 30.1494 6.25989C24.4187 0.527667 15.4326 -0.32326 8.72461 4.23157C8.58598 4.32571 8.41569 4.36108 8.25098 4.3302C8.08598 4.2992 7.94171 4.2031 7.84766 4.06458C7.65381 3.77796 7.7298 3.38836 8.01465 3.19446L8.03027 3.18372H8.03223C11.0653 1.12915 14.5367 0.101311 17.9971 0.0626221H18.0146ZM20.8086 6.31165C20.9707 6.31165 21.1257 6.37265 21.2422 6.48352L21.2891 6.5343C21.3916 6.65618 21.4435 6.8128 21.4355 6.97083H21.4424L21.4297 7.04407L20.2207 14.1368H27.0234C27.2634 14.137 27.4832 14.2737 27.5879 14.4913C27.6925 14.7074 27.6647 14.9664 27.5137 15.1554V15.1564L15.4395 30.0665C15.2819 30.2601 15.0271 30.3407 14.791 30.2784L14.6914 30.2433C14.432 30.1263 14.285 29.8466 14.333 29.5656L16.1289 19.17H12.4297C12.2442 19.17 12.0686 19.0869 11.9502 18.9445C11.8304 18.8021 11.781 18.6155 11.8135 18.4337L13.7979 6.83118L13.8281 6.7218C13.9181 6.47779 14.1518 6.30942 14.4189 6.31067L20.8086 6.31165ZM13.1758 17.9152H16.8809C17.0646 17.9153 17.2392 17.9983 17.3574 18.1388C17.476 18.2797 17.526 18.4649 17.4951 18.6466L15.9805 27.4025L25.708 15.3907H19.4775C19.292 15.3923 19.1159 15.3092 18.9961 15.1671C18.8759 15.0246 18.8258 14.8378 18.8584 14.6544L20.0674 7.56262H14.9482L13.1758 17.9152Z" fill="#1151AA" stroke="#1151AA" stroke-width="0.125"/>
</svg>
