<svg width="34" height="37" viewBox="0 0 34 37" fill="none" xmlns="http://www.w3.org/2000/svg">
<path d="M31.5148 2.32983C21.6611 -0.777762 11.5996 -0.776228 1.61018 2.33214C0.662023 2.62671 0 3.53114 0 4.53223V13.5029C0 21.8307 4.44392 29.6546 11.5973 33.919L16.2667 36.7029C16.3879 36.775 16.5237 36.811 16.6595 36.811C16.7968 36.811 16.9341 36.7742 17.0561 36.7006L21.6343 33.9359C28.7163 29.6592 33.1157 21.863 33.1157 13.5896V4.52763C33.1157 3.51503 32.4721 2.63131 31.5148 2.32983ZM31.5815 13.5896C31.5815 21.3291 27.4659 28.622 20.8411 32.6226L16.6572 35.1502L12.3828 32.6019C5.69125 28.6128 1.53424 21.2945 1.53424 13.5037V4.53223C1.53424 4.19623 1.75287 3.89476 2.06585 3.79733C6.9102 2.28918 11.7714 1.53587 16.6166 1.53587C21.4617 1.53587 26.2815 2.28764 31.0537 3.7935C31.3644 3.89092 31.5815 4.19316 31.5815 4.52763V13.5896Z" fill="#1151AA"/>
<path d="M16.557 5.35913C11.0583 5.35913 6.58447 9.83296 6.58447 15.3317C6.58447 20.8304 11.0583 25.3042 16.557 25.3042C22.0557 25.3042 26.5295 20.8304 26.5295 15.3317C26.5295 9.83296 22.0557 5.35913 16.557 5.35913ZM16.557 23.77C11.9044 23.77 8.11871 19.9842 8.11871 15.3317C8.11871 10.6791 11.9044 6.89337 16.557 6.89337C21.2096 6.89337 24.9953 10.6791 24.9953 15.3317C24.9953 19.9842 21.2096 23.77 16.557 23.77Z" fill="#1151AA"/>
<path d="M20.5285 11.6318L15.2123 16.9487L12.8136 14.5499C12.5136 14.25 12.0288 14.25 11.7289 14.5499C11.4289 14.8499 11.4289 15.3347 11.7289 15.6346L14.67 18.5758C14.8196 18.7254 15.016 18.8005 15.2123 18.8005C15.4087 18.8005 15.6051 18.7254 15.7547 18.5758L21.6132 12.7165C21.9131 12.4166 21.9131 11.9318 21.6132 11.6318C21.3132 11.3319 20.8284 11.3319 20.5285 11.6318Z" fill="#1151AA"/>
</svg>
