<svg width="37" height="33" viewBox="0 0 37 33" fill="none" xmlns="http://www.w3.org/2000/svg">
<path fill-rule="evenodd" clip-rule="evenodd" d="M11.9909 16.8365C11.6322 19.0082 9.77303 20.6629 7.53337 20.6629C5.2937 20.6629 3.43449 19.0082 3.07584 16.8365H0.763599C0.346294 16.8365 0 16.4938 0 16.0712C0 15.6456 0.341875 15.3059 0.763599 15.3059H3.07584C3.43449 13.1342 5.2937 11.4794 7.53337 11.4794C9.77303 11.4794 11.6322 13.1342 11.9909 15.3059H35.3966C35.8139 15.3059 36.1602 15.6485 36.1602 16.0712C36.1602 16.4968 35.8183 16.8365 35.3966 16.8365H11.9909ZM23.4159 28.3159H0.763599C0.346294 28.3159 0 27.9733 0 27.5506C0 27.125 0.341875 26.7853 0.763599 26.7853H23.4159C23.7746 24.6136 25.6338 22.9588 27.8735 22.9588C30.1131 22.9588 31.9723 24.6136 32.331 26.7853H35.3966C35.8139 26.7853 36.1602 27.1279 36.1602 27.5506C36.1602 27.9762 35.8183 28.3159 35.3966 28.3159H32.331C31.9723 30.4876 30.1131 32.1424 27.8735 32.1424C25.6338 32.1424 23.7746 30.4876 23.4159 28.3159ZM15.8826 5.35706H0.763599C0.346294 5.35706 0 5.01443 0 4.59177C0 4.16616 0.341875 3.82647 0.763599 3.82647H15.8826C16.2412 1.65479 18.1004 0 20.3401 0C22.5798 0 24.439 1.65479 24.7976 3.82647H35.3966C35.8139 3.82647 36.1602 4.16911 36.1602 4.59177C36.1602 5.01737 35.8183 5.35706 35.3966 5.35706H24.7976C24.439 7.52875 22.5798 9.18353 20.3401 9.18353C18.1004 9.18353 16.2412 7.52875 15.8826 5.35706ZM20.3401 7.65294C22.0043 7.65294 23.3534 6.28241 23.3534 4.59177C23.3534 2.90112 22.0043 1.53059 20.3401 1.53059C18.6759 1.53059 17.3267 2.90112 17.3267 4.59177C17.3267 6.28241 18.6759 7.65294 20.3401 7.65294ZM27.8735 30.6118C29.5377 30.6118 30.8868 29.2412 30.8868 27.5506C30.8868 25.86 29.5377 24.4894 27.8735 24.4894C26.2092 24.4894 24.8601 25.86 24.8601 27.5506C24.8601 29.2412 26.2092 30.6118 27.8735 30.6118ZM7.53337 19.1324C9.19759 19.1324 10.5467 17.7618 10.5467 16.0712C10.5467 14.3805 9.19759 13.01 7.53337 13.01C5.86914 13.01 4.52002 14.3805 4.52002 16.0712C4.52002 17.7618 5.86914 19.1324 7.53337 19.1324Z" fill="#1151AA"/>
</svg>
