<svg width="26" height="47" viewBox="0 0 26 47" fill="none" xmlns="http://www.w3.org/2000/svg">
<path d="M25.917 23.6829L25.9093 31.1583C25.9119 34.0613 24.8588 36.8662 22.9463 39.0502C21.7894 40.3303 21.166 42.0045 21.204 43.7295L21.217 45.3413C21.2177 45.4358 21.1999 45.5296 21.1644 45.6172C21.1289 45.7048 21.0766 45.7846 21.0103 45.852C20.9439 45.9193 20.865 45.973 20.778 46.0098C20.691 46.0467 20.5975 46.0661 20.503 46.0668H20.4967C20.3068 46.0668 20.1246 45.9918 19.9898 45.8581C19.855 45.7243 19.7785 45.5427 19.777 45.3528L19.764 43.7411C19.7178 41.6623 20.4685 39.6445 21.8624 38.1015C23.5454 36.1801 24.4722 33.7121 24.4698 31.1578L24.4775 23.6815C24.502 23.3532 24.4369 23.0245 24.2893 22.7304C24.1417 22.4362 23.917 22.1876 23.6392 22.0111C23.3876 21.8669 23.1029 21.7903 22.8129 21.7888C22.5228 21.7873 22.2374 21.8609 21.9842 22.0025C21.7081 22.182 21.4858 22.4329 21.3408 22.7286C21.1958 23.0243 21.1336 23.3537 21.1608 23.6819C21.1608 23.8728 21.085 24.0559 20.95 24.1909C20.8151 24.3259 20.632 24.4017 20.4411 24.4017C20.2502 24.4017 20.0671 24.3259 19.9321 24.1909C19.7972 24.0559 19.7213 23.8728 19.7213 23.6819V21.0913C19.7345 20.8477 19.6936 20.6042 19.6018 20.3782C19.51 20.1522 19.3694 19.9492 19.1901 19.7837C18.8459 19.4953 18.4094 19.3404 17.9603 19.3471C17.7272 19.3328 17.4936 19.3678 17.2749 19.4499C17.0562 19.532 16.8573 19.6593 16.6911 19.8235C16.525 19.9877 16.3953 20.1851 16.3107 20.4028C16.226 20.6205 16.1882 20.8537 16.1998 21.087V23.6781C16.1998 23.869 16.124 24.0521 15.989 24.187C15.854 24.322 15.6709 24.3979 15.48 24.3979C15.2892 24.3979 15.1061 24.322 14.9711 24.187C14.8361 24.0521 14.7603 23.869 14.7603 23.6781V20.9877C14.7805 20.69 14.7173 20.3926 14.5776 20.129C14.438 19.8653 14.2276 19.6459 13.97 19.4954C13.6728 19.3303 13.3385 19.2437 12.9986 19.2437C12.6586 19.2437 12.3243 19.3303 12.0271 19.4954C11.7771 19.6409 11.5714 19.8518 11.4321 20.1054C11.2928 20.359 11.2251 20.6458 11.2364 20.9349V23.6834C11.2364 23.8743 11.1605 24.0573 11.0256 24.1923C10.8906 24.3273 10.7075 24.4031 10.5166 24.4031C10.3257 24.4031 10.1426 24.3273 10.0077 24.1923C9.87269 24.0573 9.79685 23.8743 9.79685 23.6834L9.80693 8.04068C9.80668 7.57337 9.62109 7.12523 9.29087 6.79456C8.96065 6.46389 8.51277 6.27769 8.04545 6.2768H8.04209C7.57629 6.28056 7.13063 6.46724 6.8012 6.79657C6.47177 7.12591 6.28498 7.57153 6.28109 8.03732L6.26477 28.2073C6.26477 28.3982 6.18894 28.5812 6.05396 28.7162C5.91898 28.8512 5.73591 28.927 5.54502 28.927C5.35413 28.927 5.17105 28.8512 5.03607 28.7162C4.90109 28.5812 4.82526 28.3982 4.82526 28.2073L4.82814 23.0313H4.44427C3.97826 23.0334 3.53192 23.2194 3.20227 23.5488C2.87261 23.8782 2.68627 24.3244 2.68375 24.7904L2.67847 31.141C2.68242 33.7038 3.61819 36.1777 5.31134 38.1015C6.6968 39.6495 7.44703 41.6634 7.41207 43.7406L7.39959 45.3524C7.3982 45.5423 7.32175 45.724 7.18692 45.8579C7.05209 45.9917 6.86981 46.0668 6.67983 46.0668H6.67264C6.57811 46.0661 6.48467 46.0467 6.39763 46.0098C6.31059 45.973 6.23167 45.9193 6.16537 45.852C6.09907 45.7846 6.04669 45.7048 6.01122 45.6172C5.97574 45.5296 5.95788 45.4358 5.95864 45.3413L5.97111 43.7295C6.00804 42.0038 5.38349 40.3293 4.22546 39.0492C2.3025 36.8623 1.24051 34.0507 1.23752 31.1386L1.2428 24.7889C1.24558 23.9415 1.58348 23.1296 2.18275 22.5304C2.78201 21.9312 3.59397 21.5935 4.44139 21.5908H4.82526L4.8339 8.03109C4.83819 7.18401 5.17662 6.37285 5.77565 5.77391C6.37468 5.17497 7.18589 4.83665 8.03297 4.83249H8.03921C8.88803 4.83414 9.70154 5.17236 10.3013 5.77297C10.9011 6.37358 11.2383 7.18755 11.2388 8.03636L11.2359 18.291C11.2599 18.2766 11.2839 18.2612 11.3064 18.2473C11.8226 17.956 12.4053 17.8032 12.998 17.8037C13.5907 17.8042 14.1731 17.958 14.6888 18.2502C15.007 18.4331 15.2882 18.6737 15.518 18.9599C15.8282 18.6232 16.2058 18.3555 16.6263 18.1742C17.0467 17.9929 17.5006 17.9021 17.9584 17.9076H17.9613C18.7695 17.8791 19.5566 18.1692 20.1531 18.7153C20.7496 19.2613 21.1079 20.0198 21.1508 20.8274C21.1887 20.8034 21.2261 20.7794 21.265 20.7564C21.7365 20.4869 22.2706 20.346 22.8137 20.3477C23.3568 20.3494 23.89 20.4936 24.3599 20.766C24.8575 21.0676 25.2646 21.4976 25.5386 22.0108C25.8126 22.5241 25.9433 23.1017 25.917 23.6829ZM2.87712 13.9384C3.0197 13.9384 3.15908 13.8961 3.27759 13.8169C3.39611 13.7376 3.48841 13.6249 3.54279 13.4932C3.59718 13.3614 3.61119 13.2164 3.58306 13.0766C3.55493 12.9368 3.48592 12.8086 3.38479 12.7081C2.45971 11.7877 1.82861 10.6134 1.57144 9.33409C1.31427 8.05474 1.44259 6.72784 1.94016 5.52148C2.43772 4.31512 3.28214 3.28357 4.36645 2.55752C5.45076 1.83146 6.72616 1.44356 8.03111 1.44296C9.33605 1.44235 10.6118 1.82907 11.6968 2.55412C12.7818 3.27916 13.6271 4.30992 14.1258 5.51582C14.6245 6.72172 14.7541 8.0485 14.4981 9.32809C14.2421 10.6077 13.6121 11.7825 12.6879 12.7037C12.5523 12.8384 12.4759 13.0215 12.4753 13.2126C12.4747 13.4037 12.5501 13.5871 12.6848 13.7227C12.8195 13.8582 13.0025 13.9347 13.1936 13.9353C13.3847 13.9358 13.5682 13.8605 13.7037 13.7258C14.8306 12.6032 15.599 11.1714 15.9114 9.61175C16.2238 8.05209 16.0662 6.4348 15.4585 4.96481C14.8508 3.49481 13.8205 2.23828 12.498 1.35443C11.1756 0.470579 9.62048 -0.000807076 8.02984 1.03729e-06C6.4392 0.000809151 4.8846 0.473775 3.56303 1.35897C2.24145 2.24416 1.21239 3.50174 0.606226 4.97235C6.60672e-05 6.44296 -0.155905 8.06041 0.158075 9.61976C0.472056 11.1791 1.24186 12.6101 2.36993 13.7316C2.50493 13.865 2.68734 13.9393 2.87712 13.9384Z" fill="#1151AA"/>
</svg>
