<svg width="40" height="37" viewBox="0 0 40 37" fill="none" xmlns="http://www.w3.org/2000/svg">
<path d="M36.9067 0.0712891H36.9077C37.1979 0.126274 37.393 0.412374 37.3384 0.707031H37.3374C36.9908 2.52958 36.6032 4.2789 36.1782 5.9502C36.6663 6.23474 37.0838 6.6395 37.3872 7.14844V7.14941C38.1796 8.48683 38.717 9.95156 38.981 11.5059L38.9995 11.5195L39.0034 11.543C39.3457 13.5706 39.2111 15.6804 38.5991 17.8193L38.4702 18.248C38.4253 18.3888 38.325 18.5047 38.1938 18.5693L38.1929 18.5684C38.0951 18.619 37.9876 18.6389 37.8804 18.624L37.7729 18.5977C37.6928 18.5683 36.0588 17.9731 35.3325 15.6699C35.2425 15.3841 35.4037 15.0791 35.689 14.9893C35.9747 14.8993 36.2797 15.0596 36.3696 15.3447C36.6938 16.3799 37.2301 16.9591 37.6245 17.2666C38.129 15.3697 38.2353 13.5104 37.9321 11.7285C37.6894 10.2998 37.1945 8.94659 36.4683 7.71777C36.316 7.46519 36.1244 7.25297 35.9019 7.08008C35.2255 9.59116 34.4582 11.9112 33.604 14.0186C32.3011 17.2303 30.7798 20.018 29.0698 22.3037C25.9577 26.4685 22.8953 28.13 21.0669 29.123L21.0679 29.124C20.9716 29.1773 20.8737 29.2306 20.7798 29.2793C20.6982 29.3249 20.6084 29.3447 20.52 29.3447C20.3306 29.3447 20.1442 29.2454 20.0444 29.0654C19.8999 28.8055 19.9937 28.4752 20.2583 28.3301C20.3525 28.276 20.4502 28.2235 20.5522 28.1699C22.3021 27.22 25.2315 25.625 28.1997 21.6543C30.9747 17.9417 33.2194 12.908 34.8999 6.63086C34.5582 6.56844 34.2026 6.5861 33.854 6.6875C32.8049 6.99443 31.8068 7.55593 30.896 8.35156L30.897 8.35254C30.1576 9.00076 29.4688 9.8033 28.8521 10.7422C28.1534 11.8101 27.7057 12.814 27.4819 13.3779C28.1849 13.6545 29.3153 14.0405 29.7847 14.1953L29.8501 14.2217C29.9977 14.2922 30.1105 14.4272 30.145 14.5908L30.1558 14.6602C30.1708 14.8229 30.1137 14.9862 29.9897 15.1016L29.9888 15.1006C29.3963 15.6642 28.3425 16.0035 26.8735 16.1094C26.1499 16.1652 25.5038 16.1497 25.1616 16.1328L21.9233 19.4658C22.1118 20.2221 22.593 20.9512 23.0366 21.498C23.261 21.7746 23.474 22.0039 23.6323 22.1641C23.7112 22.2439 23.7768 22.3064 23.8228 22.3496C23.8675 22.3918 23.8929 22.4141 23.895 22.416L23.897 22.418C24.0432 22.5453 24.106 22.741 24.0698 22.9287L24.0483 23.0088C23.9722 23.2177 23.7786 23.3583 23.5581 23.3682H23.4272C22.7851 23.3682 22.0283 23.2065 21.3433 23.0098C20.6813 22.8197 20.0819 22.5954 19.7095 22.4482C19.3913 22.8084 18.7968 23.379 17.8403 23.8945C17.7588 23.9402 17.6688 23.96 17.5835 23.96C17.388 23.9599 17.2024 23.8549 17.103 23.6758V23.6748C16.9585 23.4107 17.0581 23.0804 17.3237 22.9395C17.9522 22.6016 18.3911 22.2423 18.6724 21.9668C18.9533 21.6916 19.0764 21.5003 19.0767 21.5L19.0776 21.499C19.2012 21.3018 19.4398 21.2083 19.6616 21.2617L19.7544 21.2939L19.7573 21.2949C19.7588 21.2956 19.7788 21.3038 19.8179 21.3203C19.8571 21.3369 19.9136 21.3607 19.9849 21.3896C20.1278 21.4477 20.3298 21.5275 20.5698 21.6152C21.0044 21.7741 21.5636 21.9566 22.1226 22.0918C21.565 21.386 20.9572 20.4201 20.7925 19.3779L20.7847 19.3145C20.776 19.1665 20.8332 19.0179 20.938 18.9131L24.5464 15.1943C24.6553 15.0763 24.8133 15.0166 24.9722 15.0303V15.0293C24.9904 15.0295 25.8262 15.0921 26.7925 15.0215L27.2485 14.9766C27.6048 14.9336 27.9245 14.871 28.2046 14.7959C27.5822 14.5741 26.8811 14.3182 26.5396 14.1514C26.2985 14.0318 26.1843 13.7523 26.2642 13.4971L26.3716 13.1885C26.5743 12.6444 27.068 11.4541 27.9185 10.1543C28.5857 9.12732 29.3434 8.24526 30.1577 7.52832C31.1899 6.62326 32.3282 5.98029 33.5386 5.62793C34.0781 5.47184 34.6375 5.45408 35.1616 5.56152C35.5675 3.94993 35.9387 2.26565 36.272 0.501953C36.3269 0.211918 36.6123 0.0169807 36.9067 0.0712891Z" fill="#1151AA" stroke="#1151AA" stroke-width="0.125"/>
<path d="M6.83691 13.2871C4.90226 13.3741 3.3599 14.4833 2.25488 16.6074C1.52604 18.0113 1.23242 19.4244 1.16309 19.8135C1.20252 19.8894 1.3115 20.0706 1.6084 20.3408C3.211 21.8054 3.87065 23.2553 3.90918 23.3457L3.93848 23.4258C3.99086 23.615 3.93288 23.8166 3.79004 23.9561L3.78906 23.957C3.62291 24.1114 3.37925 24.1469 3.1748 24.0479L3.17383 24.0469C2.55087 23.7354 1.78893 23.6621 1.29199 23.6562C1.33264 24.3578 1.49194 25.7035 2.09863 27.2188C2.615 28.501 3.34148 29.656 4.26172 30.6416C5.41587 31.8782 6.8786 32.8664 8.62012 33.5762C10.5715 34.3732 12.556 34.867 14.5439 35.0605C13.3118 34.3567 12.1896 33.4851 11.1934 32.4482L10.7461 31.9629C9.41197 30.4548 8.32352 28.6454 7.50098 26.584C6.68886 24.5451 6.31075 22.6605 6.13379 21.4443C5.93963 20.1026 5.8852 18.8122 5.98828 17.9893C6.02393 17.6931 6.29938 17.4835 6.59375 17.5186C6.85312 17.5495 7.04651 17.7641 7.06738 18.0146L7.06543 18.124C6.90257 19.4235 7.14961 22.7665 8.50977 26.1826C9.28253 28.1266 10.3121 29.83 11.5596 31.2412L11.8418 31.5527C13.273 33.0831 14.983 34.2439 16.9307 35.0127H16.9326C17.0052 35.0431 17.0713 35.0898 17.124 35.1445H17.2578L17.2598 35.1475C19.186 35.0674 21.1129 34.6967 23.001 34.0508C21.389 33.5142 19.9659 32.6846 18.7598 31.5674C17.4949 30.3999 16.4656 28.9269 15.7012 27.1826C14.8492 25.2411 14.5179 23.4238 14.3877 22.376C13.8253 22.8529 13.3449 23.5365 12.999 24.1191C12.8176 24.4248 12.6732 24.7012 12.5742 24.9023C12.5248 25.0027 12.487 25.0844 12.4609 25.1416C12.448 25.1699 12.4375 25.1925 12.4307 25.208C12.4236 25.2241 12.4199 25.2324 12.4199 25.2324V25.2344C12.3263 25.4544 12.0997 25.5898 11.8643 25.5645C11.659 25.5422 11.4829 25.4045 11.4121 25.2129L11.3887 25.1279C11.1243 23.8128 11.4555 22.2131 11.8984 20.8506C12.3347 19.5088 12.8831 18.387 13.0938 17.9756C13.028 17.595 12.8058 16.5639 12.1289 15.5771C11.0194 13.9553 9.24308 13.1824 6.83691 13.2871ZM15.3955 21.4521C15.3965 21.4726 15.3979 21.5025 15.4004 21.541C15.4054 21.6185 15.4137 21.7316 15.4277 21.875C15.4558 22.162 15.5065 22.5721 15.5947 23.0674C15.7712 24.0581 16.1 25.3903 16.709 26.7686C17.4188 28.3657 18.3628 29.7141 19.5117 30.7754C20.9292 32.0828 22.6802 32.9568 24.7119 33.3818C27.2546 32.2718 29.0569 30.9196 29.8467 30.2725C29.2052 29.5713 28.8738 28.6258 28.8789 27.498C28.8825 26.4958 29.152 25.696 29.1699 25.6504C29.239 25.4556 29.4144 25.3183 29.6182 25.293C29.8244 25.2674 30.0301 25.367 30.1396 25.543L30.2539 25.7041C30.5491 26.0779 31.0317 26.4343 31.5537 26.7432C32.1274 27.0825 32.741 27.3595 33.1855 27.5371C33.7961 26.6599 34.547 25.019 35.1504 23.5752C35.4562 22.8435 35.7237 22.1644 35.916 21.665C36.0122 21.4153 36.0898 21.2104 36.1436 21.0664C36.1703 20.9948 36.1906 20.938 36.2051 20.8984C36.2124 20.8786 36.2187 20.8625 36.2227 20.8516C36.2246 20.8463 36.2255 20.8418 36.2266 20.8389C36.2275 20.8363 36.2284 20.8353 36.2285 20.835V20.833C36.316 20.583 36.5699 20.4415 36.8193 20.4805L36.9258 20.5088L36.9395 20.5137L36.9502 20.5244C37.2246 20.631 37.3613 20.9397 37.2578 21.2139C37.2126 21.3346 36.6853 22.7724 36.001 24.376C35.6584 25.1786 35.2765 26.0238 34.8955 26.7666C34.5152 27.508 34.1336 28.1519 33.792 28.5498C33.6474 28.7198 33.4126 28.7843 33.2012 28.71V28.7109C33.099 28.6762 31.2374 28.0204 30.002 26.9834C29.981 27.1552 29.9668 27.3427 29.9668 27.54C29.9668 28.5839 30.3159 29.3608 30.9951 29.8604L31.084 29.9404C31.1626 30.0302 31.2085 30.1457 31.2158 30.2656C31.2255 30.4264 31.1615 30.5823 31.0469 30.6914L31.0459 30.6924C30.9413 30.7879 28.5466 33.0312 24.5273 34.6514C22.1645 35.6055 19.7299 36.1378 17.2949 36.2402C17.0051 36.2524 16.7205 36.2578 16.4326 36.2578C13.6728 36.2578 10.9075 35.7023 8.20801 34.6006C6.31483 33.8258 4.71189 32.7448 3.44727 31.3828C2.43307 30.2921 1.63587 29.0189 1.07422 27.6035C0.121505 25.1904 0.192375 23.2145 0.192383 23.1279V23.126C0.202147 22.8506 0.413491 22.6314 0.682617 22.6055L0.841797 22.5938C1.09564 22.5798 1.62028 22.5709 2.21875 22.6621C1.89473 22.2156 1.45275 21.6862 0.87207 21.1543C0.155183 20.5002 0.053734 20.0493 0.0634766 19.8252V19.8174L0.0654297 19.8105C0.0676827 19.803 0.0683594 19.7969 0.0683594 19.7793V19.7695L0.130859 19.7793L0.0693359 19.7695C0.0825198 19.6865 0.345315 17.9372 1.2793 16.1367C2.55022 13.6764 4.45477 12.3123 6.79004 12.209C10.2972 12.0575 12.1317 13.6432 13.0508 15.0049C14.0352 16.4632 14.1892 17.9473 14.1953 18.0195H14.1943C14.2075 18.1304 14.1837 18.2328 14.1348 18.3262C14.1195 18.3584 12.8811 20.6878 12.4941 22.9014C13.0366 22.1287 13.7647 21.3214 14.6338 20.9404H14.6348C14.803 20.8708 14.9922 20.8833 15.1436 20.9795L15.1973 21.0176C15.3169 21.1152 15.3894 21.2628 15.3945 21.4199V21.4219C15.3946 21.4234 15.3946 21.4331 15.3955 21.4521Z" fill="#1151AA" stroke="#1151AA" stroke-width="0.125"/>
</svg>
