<svg width="37" height="37" viewBox="0 0 37 37" fill="none" xmlns="http://www.w3.org/2000/svg">
<path d="M34.3521 0H1.80801C0.810605 0 0 0.810605 0 1.80801V34.3521C0 35.3496 0.810605 36.1602 1.80801 36.1602H34.3521C35.3496 36.1602 36.1602 35.3496 36.1602 34.3521V1.80801C36.1602 0.810605 35.3496 0 34.3521 0ZM34.9548 34.352C34.9548 34.6849 34.6851 34.9546 34.3521 34.9546H1.80801C1.47503 34.9546 1.20534 34.6849 1.20534 34.352V1.80781C1.20534 1.47484 1.47503 1.20515 1.80801 1.20515H34.3521C34.6851 1.20515 34.9548 1.47484 34.9548 1.80781V34.352ZM14.2878 13.435C14.5228 13.67 14.5228 14.0512 14.2878 14.2878C14.1703 14.4053 14.0151 14.464 13.8614 14.464C13.7077 14.464 13.5525 14.4053 13.435 14.2878L6.02669 6.87946V12.0533C6.02669 12.3863 5.757 12.656 5.42402 12.656C5.09105 12.656 4.82135 12.3863 4.82135 12.0533V5.42379C4.82135 5.34545 4.83793 5.2671 4.86806 5.19327C4.92983 5.04562 5.04585 4.9281 5.1935 4.86783C5.26733 4.83769 5.34567 4.82112 5.42402 4.82112H12.0536C12.3866 4.82112 12.6562 5.09082 12.6562 5.42379C12.6562 5.75677 12.3866 6.02646 12.0536 6.02646H6.87969L14.2878 13.435ZM14.2878 21.8724C14.5228 22.1074 14.5228 22.4886 14.2878 22.7251L6.87949 30.1334H12.0534C12.3864 30.1334 12.6561 30.4031 12.6561 30.7361C12.6561 31.0691 12.3864 31.3388 12.0534 31.3388H5.42383C5.34549 31.3388 5.26714 31.3222 5.19331 31.2921C5.04566 31.2303 4.92813 31.1143 4.86787 30.9666C4.83773 30.8928 4.82116 30.8144 4.82116 30.7361V24.1065C4.82116 23.7736 5.09086 23.5039 5.42383 23.5039C5.7568 23.5039 6.0265 23.7736 6.0265 24.1065V29.2804L13.4348 21.8721C13.6698 21.6371 14.0528 21.6373 14.2878 21.8724ZM31.2921 5.19356C31.3223 5.26739 31.3388 5.34574 31.3388 5.42409V12.0536C31.3388 12.3866 31.0691 12.6563 30.7362 12.6563C30.4032 12.6563 30.1335 12.3866 30.1335 12.0536V6.87975L22.7252 14.288C22.6077 14.4056 22.4525 14.4643 22.2988 14.4643C22.1451 14.4643 21.9899 14.4056 21.8724 14.288C21.6374 14.053 21.6374 13.6718 21.8724 13.4353L29.2807 6.02699H24.1068C23.7738 6.02699 23.5041 5.75729 23.5041 5.42432C23.5041 5.09134 23.7738 4.82165 24.1068 4.82165H30.7364C30.8147 4.82165 30.8931 4.83822 30.9669 4.86835C31.1145 4.92862 31.2319 5.04591 31.2921 5.19356ZM31.3388 24.1068V30.7363C31.3388 30.8147 31.3223 30.893 31.2921 30.9668C31.2304 31.1145 31.1143 31.232 30.9667 31.2923C30.8929 31.3224 30.8145 31.339 30.7362 31.339H24.1066C23.7736 31.339 23.5039 31.0693 23.5039 30.7363C23.5039 30.4034 23.7736 30.1337 24.1066 30.1337H29.2805L21.8722 22.7254C21.6372 22.4903 21.6372 22.1091 21.8722 21.8726C22.1072 21.6376 22.4885 21.6376 22.725 21.8726L30.1333 29.2809V24.107C30.1333 23.774 30.403 23.5043 30.7359 23.5043C31.0689 23.5043 31.3388 23.7738 31.3388 24.1068Z" fill="#1151AA"/>
</svg>
