<svg width="16" height="15" viewBox="0 0 16 15" fill="none" xmlns="http://www.w3.org/2000/svg">
<path d="M12.9766 2.18887C10.0085 -0.729623 5.1949 -0.729623 2.22613 2.18887C-0.742042 5.10691 -0.742042 9.84057 2.22613 12.7586C5.1949 15.6769 10.0085 15.6769 12.9766 12.7586C15.9456 9.84042 15.9456 5.10691 12.9766 2.18887ZM7.70737 9.46228C6.76656 10.3873 5.24358 10.3383 4.36414 9.35478L3.30905 8.17478C3.02799 7.86045 3.05908 7.37679 3.37807 7.10104C3.68959 6.83174 4.1595 6.86194 4.43398 7.16891L4.96123 7.75858C5.55441 8.42196 6.58164 8.45501 7.21622 7.83111L10.8023 4.30546C11.0956 4.01713 11.5658 4.01715 11.8591 4.30551C12.1594 4.60084 12.1594 5.08499 11.859 5.3803L7.70737 9.46228Z" fill="black"/>
</svg>
