<svg width="181" height="45" viewBox="0 0 181 45" fill="none" xmlns="http://www.w3.org/2000/svg">
<g clip-path="url(#clip0_245_3921)">
<path d="M9.53338 19.8705C8.56547 16.8139 8.54668 13.6821 9.54748 10.71C10.6798 7.3481 12.6956 4.78445 15.557 2.72321C16.8397 1.79823 18.207 1.07515 19.7106 0.591528C20.4577 0.352066 21.1625 0.201815 21.9471 -8.35336e-05C20.2744 -0.0329508 18.6393 0.300417 17.0559 0.826294C15.7637 1.25357 14.6032 1.85457 13.4708 2.59643C12.3385 3.33829 11.4786 4.10833 10.6 5.038C9.95156 5.72352 9.39712 6.41373 8.88967 7.21663C7.20287 9.86949 6.30544 12.9496 6.38531 16.1096C6.4417 18.4666 7.01963 20.7486 8.23657 22.8239L9.53338 19.8658V19.8705ZM14.0394 9.83663C15.1106 7.84581 16.6048 6.16018 18.4138 4.8408C20.5657 3.27256 23.0795 2.30532 25.7201 1.97665C27.5526 1.74658 29.3568 1.84987 31.147 2.29593L33.0265 2.84528C32.0867 2.19733 31.0859 1.77475 30.024 1.41321C25.7765 -0.0329508 21.2705 0.544574 17.4365 2.84059C16.4263 3.44629 15.5523 4.16467 14.7066 4.98166C12.564 7.0523 11.0134 9.63473 10.2899 12.5317C10.0502 13.5741 9.90457 14.593 9.90457 15.7011L12.5452 13.7431C12.8553 12.3862 13.344 11.095 14.0394 9.84132V9.83663ZM36.0054 6.53581C37.5935 7.26359 39.036 8.19796 40.2059 9.48448L41.39 10.7851C41.3712 10.8226 41.3994 10.7616 41.4135 10.7334C40.5442 9.24032 39.4964 7.86928 38.1855 6.73301C35.7469 4.61542 32.6741 3.33829 29.4508 3.08944C25.1516 2.75607 21.0497 4.14119 17.8123 6.9443C16.6753 7.96789 15.7168 9.13233 14.9603 10.5128L18.3762 9.94931C19.8797 8.27778 21.7122 7.01943 23.7702 6.16958C27.8439 4.56847 32.0303 4.72811 36.0007 6.5452L36.0054 6.53581ZM10.4637 30.0406L10.1113 26.7868C9.18569 25.9228 8.37283 24.9978 7.65864 23.9602C6.0846 21.6782 5.21066 19.016 5.10729 16.2317C4.97573 11.9167 6.65783 7.91154 9.56158 4.77037L10.8349 3.46976C9.69784 4.06137 8.75341 4.8408 7.85128 5.71413C7.01493 6.52172 6.29604 7.39975 5.62884 8.34821C5.04151 9.18867 4.58105 10.0573 4.19106 11.0011C3.18086 13.4379 2.79557 16.0579 3.12448 18.6826C3.47687 21.5045 4.7314 24.5424 6.57796 26.7116C7.68683 28.0263 8.95076 29.1579 10.4684 30.0359L10.4637 30.0406ZM42.0055 15.2691C43.401 17.3163 44.2796 19.6123 44.5756 22.0492C44.6179 22.0445 44.6508 22.0398 44.6367 22.0398C44.6837 20.6124 44.4958 19.2508 44.1528 17.875C43.3164 14.5554 41.4323 11.6349 38.7588 9.50326C36.3907 7.61574 33.5104 6.50764 30.4798 6.32922C27.6137 6.16018 24.6582 6.77527 22.2055 8.24021L25.2268 9.50326C26.3685 9.11824 27.4962 8.85061 28.6849 8.74731C31.3631 8.51724 34.0132 9.08068 36.3907 10.3155C37.7814 11.0386 39.0172 11.973 40.1449 13.0529C40.8543 13.729 41.437 14.4427 42.0008 15.2691H42.0055ZM42.7714 30.266C42.574 31.3224 42.2451 32.2568 41.935 33.2522C42.87 31.7544 43.448 30.1392 43.8004 28.4489C44.6555 24.2325 43.7158 19.8236 41.296 16.288C39.5293 13.7103 37.0203 11.7476 34.093 10.6583C32.613 10.1512 31.0765 9.85071 29.4978 9.83663L31.1376 12.3486C32.8526 12.7477 34.4501 13.3769 35.9349 14.2972C37.1189 15.0719 38.2043 15.9546 39.13 17.0252C41.3054 19.5278 42.5458 22.3731 42.9452 25.6693C43.1332 27.2187 43.0627 28.7165 42.7761 30.2707L42.7714 30.266ZM14.185 32.5855C12.7378 32.2662 11.4316 31.7873 10.1442 31.1534C8.86618 30.5289 7.73382 29.7307 6.70482 28.7494C5.15428 27.2798 3.95613 25.5143 3.12917 23.5423C1.74778 20.2509 1.42358 16.4054 2.43378 12.9684C2.59823 12.4519 2.80027 11.9871 2.92713 11.4283C0.878538 14.6728 0.136157 19.2273 1.0101 22.9366C1.76188 26.1247 3.47217 29.0264 5.91545 31.2191C7.01963 32.2099 8.26006 33.0221 9.58507 33.6795C11.5491 34.6514 13.6682 35.1961 15.9047 35.2571L14.1897 32.5902L14.185 32.5855ZM34.1353 41.5489C35.3476 40.8962 36.3437 40.0604 37.2787 39.1308C37.8942 38.4734 38.4627 37.8442 38.9796 37.1071C41.2725 33.8204 42.3297 29.7871 41.7941 25.796C41.2161 21.481 38.6037 17.1097 34.8072 14.87L35.0516 18.0628L36.5598 19.6733C38.1949 21.6876 39.332 24.0494 39.7643 26.6224C40.1965 29.1955 39.9099 32.1441 38.9608 34.689C38.2607 36.5624 37.2129 38.248 35.9208 39.7646L34.14 41.5489H34.1353ZM23.1359 44.9952C24.6112 45.0328 26.0161 44.737 27.4069 44.3332C29.3145 43.7275 31.1 42.8307 32.6412 41.5583C34.5347 39.9947 35.9161 38.3373 37.0485 36.1633C37.5371 35.2243 37.866 34.2711 38.1479 33.2569C38.5849 31.6793 38.7776 30.0923 38.7212 28.4442C38.6413 26.1717 38.007 23.9977 36.8934 22.0069L35.5966 24.7772C35.855 25.6693 36.0618 26.5379 36.1933 27.4629C36.4095 29.1344 36.3202 30.7825 35.9631 32.4258C35.3241 35.4402 33.891 38.2856 31.7014 40.4501C31.0014 41.1451 30.2402 41.7461 29.4367 42.3095C28.6755 42.8448 27.8862 43.2673 27.0592 43.6899C25.8188 44.3191 24.5173 44.6478 23.1406 44.9952H23.1359ZM22.9949 36.8629L20.3261 35.5952C17.5257 36.5718 14.528 36.6798 11.6572 35.891C9.42532 35.2806 7.36732 34.1725 5.62414 32.6606C4.722 31.8671 3.93264 31.0078 3.19026 30.0641C1.99211 28.5475 1.11347 26.8431 0.544936 24.9978L0.00459585 22.9601C-0.0799792 25.4815 0.728182 28.3879 1.95452 30.6041C3.26543 32.9799 5.15898 34.966 7.4378 36.431C10.7409 38.5579 14.6173 39.2575 18.4748 38.5532C20.063 38.2387 21.5665 37.694 22.9902 36.8629H22.9949ZM13.5225 42.7884L12.1082 42.4175C14.2931 43.6524 16.7552 44.352 19.2689 44.4083C23.7514 44.5069 28.0177 42.6147 31.0154 39.3186C31.8565 38.3936 32.5801 37.4029 33.1862 36.3042C34.2058 34.4495 34.8683 32.4587 35.1126 30.3552C35.1502 29.9561 35.1831 29.5852 35.1502 29.2001L32.5472 31.0877C31.7954 34.4589 30.2026 37.2151 27.6324 39.5064C24.7522 42.07 21.0027 43.3472 17.1498 43.3002C15.9047 43.2861 14.7347 43.1171 13.5225 42.7978V42.7884ZM26.8337 35.1491C25.9409 36.0741 25.0482 36.9099 24.0098 37.6189C23.3332 38.0837 22.6472 38.4406 21.9048 38.7927C20.0583 39.6473 18.0943 40.1356 16.0504 40.1637C14.6502 40.1872 13.2876 40.0604 11.9391 39.6801C10.0173 39.1402 8.23187 38.2715 6.57796 37.1728L5.49728 36.3277C4.76899 35.6938 4.13938 35.0177 3.44868 34.2993C3.64602 34.7688 3.91854 35.1397 4.20986 35.5435C5.36571 37.1259 6.78 38.4828 8.40572 39.5909C11.4739 41.6803 15.355 42.549 19.0293 42.0372C21.5336 41.6897 23.897 40.7084 25.9409 39.2341C26.7632 38.6424 27.468 37.9757 28.1775 37.2573C28.887 36.5249 29.4743 35.7126 30.0052 34.8017L26.829 35.1491H26.8337Z" fill="url(#paint0_radial_245_3921)"/>
<path d="M14.1853 32.5856L15.9003 35.2525C13.6638 35.1962 11.5494 34.6468 9.58067 33.6749C8.25096 33.0175 7.01523 32.2052 5.91106 31.2145C3.46778 29.0218 1.75748 26.1201 1.0057 22.932C0.13176 19.2227 0.874141 14.6682 2.92743 11.4237C2.80057 11.9778 2.59853 12.4426 2.43408 12.9638C1.42858 16.4008 1.75278 20.2462 3.12948 23.5377C3.95643 25.5097 5.15458 27.2798 6.70512 28.7448C7.72942 29.7261 8.86648 30.529 10.1445 31.1488C11.4319 31.7827 12.7381 32.2616 14.1853 32.5809V32.5856Z" fill="url(#paint1_radial_245_3921)"/>
<path d="M14.0396 9.83671C13.3489 11.0904 12.8555 12.3816 12.5454 13.7385L9.90479 15.6965C9.90479 14.5884 10.0504 13.5648 10.2901 12.5271C11.0137 9.63012 12.5642 7.04299 14.7068 4.97705C15.5478 4.16476 16.4265 3.44168 17.4367 2.83598C21.266 0.539966 25.772 -0.0375592 30.0196 1.4086C31.0814 1.77014 32.0869 2.19742 33.022 2.84068L31.1425 2.29132C29.357 1.84527 27.5481 1.74197 25.7156 1.97204C23.075 2.30541 20.5659 3.27265 18.4093 4.83619C16.5956 6.15558 15.1015 7.8365 14.0349 9.83202L14.0396 9.83671Z" fill="url(#paint2_radial_245_3921)"/>
<path d="M10.464 30.0407C8.94637 29.1674 7.68244 28.0311 6.57357 26.7164C4.72701 24.5425 3.47248 21.5093 3.12009 18.6874C2.79118 16.0627 3.17647 13.4427 4.18667 11.0058C4.57666 10.0574 5.03712 9.18875 5.62445 8.35298C6.29165 7.40453 7.01524 6.5265 7.84689 5.71891C8.74433 4.85027 9.68875 4.06615 10.8305 3.47454L9.55719 4.77515C6.65344 7.91632 4.97604 11.9214 5.1029 16.2364C5.20627 19.0161 6.08021 21.683 7.65425 23.9649C8.36844 24.9979 9.1813 25.9276 10.1069 26.7915L10.4593 30.0454L10.464 30.0407Z" fill="url(#paint3_radial_245_3921)"/>
<path d="M22.9949 36.863C21.5712 37.6941 20.0677 38.2387 18.4795 38.5533C14.6173 39.2623 10.7409 38.558 7.4425 36.431C5.16367 34.9614 3.27013 32.9753 1.95922 30.6041C0.728182 28.3879 -0.0799797 25.4768 0.00459533 22.9601L0.540237 25.0026C1.10877 26.8479 1.98741 28.5523 3.18556 30.0689C3.93264 31.0126 4.71731 31.8672 5.61944 32.6654C7.36262 34.182 9.42062 35.2901 11.6525 35.8958C14.5233 36.6846 17.521 36.5766 20.3214 35.6L22.9902 36.8677L22.9949 36.863Z" fill="url(#paint4_radial_245_3921)"/>
<path d="M36.0052 6.5359C32.0349 4.71881 27.8484 4.55916 23.7747 6.16027C21.7168 7.01012 19.8843 8.26847 18.3807 9.94001L14.9648 10.5034C15.7166 9.12302 16.6798 7.95858 17.8169 6.935C21.0542 4.13189 25.1561 2.74677 29.4554 3.08014C32.6786 3.32899 35.7515 4.60612 38.1901 6.72371C39.501 7.85998 40.5488 9.23571 41.418 10.7241C41.4039 10.7523 41.3758 10.8133 41.3945 10.7758L40.2105 9.47517C39.0405 8.18865 37.5934 7.25428 36.0099 6.52651L36.0052 6.5359Z" fill="url(#paint5_radial_245_3921)"/>
<path d="M26.8339 35.1492L30.0102 34.8017C29.4792 35.7126 28.8919 36.5249 28.1824 37.2574C27.4729 37.9758 26.7681 38.6425 25.9459 39.2341C23.9067 40.7085 21.5386 41.6851 19.0342 42.0372C15.3552 42.549 11.4788 41.6804 8.41065 39.591C6.78493 38.4876 5.37065 37.1259 4.21479 35.5436C3.92347 35.1445 3.65096 34.7736 3.45361 34.2993C4.13961 35.0177 4.76923 35.6986 5.50221 36.3277L6.58289 37.1729C8.2368 38.2763 10.0176 39.1402 11.944 39.6802C13.2925 40.0605 14.6504 40.1826 16.0553 40.1638C18.0992 40.1309 20.0679 39.6473 21.9098 38.7928C22.6522 38.4406 23.3382 38.0838 24.0147 37.6189C25.0531 36.9053 25.9459 36.0695 26.8386 35.1492H26.8339Z" fill="url(#paint6_radial_245_3921)"/>
<path d="M13.5227 42.7885C14.7349 43.1078 15.9049 43.2768 17.15 43.2909C21.0029 43.3379 24.7524 42.0654 27.6326 39.4971C30.2028 37.2105 31.7956 34.4496 32.5474 31.0784L35.1504 29.1908C35.1833 29.5806 35.1504 29.9468 35.1128 30.3459C34.8732 32.4494 34.206 34.4402 33.1864 36.2949C32.5803 37.3936 31.852 38.3843 31.0156 39.3093C28.0179 42.6101 23.7469 44.4976 19.2691 44.399C16.76 44.3427 14.298 43.6431 12.1084 42.4082L13.5227 42.7791V42.7885Z" fill="url(#paint7_radial_245_3921)"/>
<path d="M23.136 44.9953C24.5127 44.6479 25.8143 44.3192 27.0547 43.69C27.8816 43.2674 28.671 42.8448 29.4322 42.3096C30.2404 41.7461 30.9968 41.1451 31.6969 40.4502C33.8912 38.2857 35.3243 35.4403 35.9586 32.4259C36.3157 30.7826 36.4049 29.1345 36.1888 27.463C36.0619 26.538 35.8505 25.6693 35.5921 24.7772L36.8889 22.007C38.0025 23.9978 38.6368 26.1717 38.7167 28.4443C38.773 30.0923 38.5804 31.6794 38.1434 33.257C37.8615 34.2759 37.5326 35.229 37.0439 36.1634C35.9116 38.342 34.5302 39.9948 32.6366 41.5583C31.0955 42.8308 29.31 43.7276 27.4024 44.3333C26.0116 44.7324 24.6114 45.0329 23.1313 44.9953H23.136Z" fill="url(#paint8_radial_245_3921)"/>
<path d="M9.53333 19.8706L8.23651 22.8287C7.02427 20.7533 6.44634 18.4667 6.38526 16.1144C6.30538 12.9544 7.20752 9.87427 8.88962 7.22141C9.39707 6.42321 9.9562 5.7283 10.5999 5.04278C11.4786 4.11311 12.3948 3.30082 13.4708 2.60121C14.6031 1.86405 15.7637 1.25835 17.0558 0.831074C18.6439 0.305197 20.2791 -0.028171 21.9518 9.70322e-07C21.1624 0.197205 20.4576 0.35215 19.7152 0.591612C18.2117 1.07054 16.8397 1.79831 15.5617 2.72329C12.7002 4.78454 10.6798 7.34819 9.55212 10.71C8.55132 13.6822 8.57011 16.8187 9.53803 19.8706H9.53333Z" fill="url(#paint9_radial_245_3921)"/>
<path d="M42.0057 15.2692C41.4419 14.4428 40.8592 13.7338 40.1498 13.053C39.0174 11.9731 37.7864 11.0434 36.3956 10.3156C34.0181 9.07607 31.3633 8.51732 28.6898 8.7474C27.5011 8.85069 26.3734 9.11833 25.2317 9.50334L22.2104 8.2403C24.6631 6.77536 27.6186 6.16497 30.4847 6.3293C33.5153 6.50773 36.3956 7.61113 38.7637 9.50334C41.4372 11.635 43.3213 14.5555 44.1577 17.8751C44.5054 19.2508 44.6886 20.6078 44.6416 22.0399C44.6557 22.0399 44.6228 22.0399 44.5805 22.0493C44.2845 19.6124 43.4012 17.3164 42.0104 15.2692H42.0057Z" fill="url(#paint10_radial_245_3921)"/>
<path d="M34.1356 41.5489L35.9163 39.7647C37.2132 38.2481 38.2562 36.5672 38.9563 34.6891C39.9102 32.1395 40.2109 29.3035 39.7598 26.6225C39.3087 23.9415 38.1905 21.6877 36.5553 19.6734L35.0471 18.0629L34.8028 14.8701C38.5992 17.1098 41.2117 21.4811 41.7896 25.7961C42.3252 29.7918 41.2681 33.8204 38.9751 37.1072C38.4583 37.8443 37.8898 38.4782 37.2742 39.1309C36.3392 40.0558 35.3431 40.8916 34.1309 41.5489H34.1356Z" fill="url(#paint11_radial_245_3921)"/>
<path d="M42.7714 30.2661C43.0581 28.7119 43.1285 27.2141 42.9406 25.6647C42.5412 22.3685 41.3008 19.5232 39.1253 17.0206C38.195 15.9547 37.1143 15.0673 35.9303 14.2926C34.4455 13.3723 32.848 12.7431 31.133 12.344L29.4932 9.83202C31.0719 9.8461 32.6083 10.1466 34.0884 10.6537C37.0156 11.7477 39.5247 13.7104 41.2914 16.2834C43.7112 19.819 44.6509 24.2279 43.7957 28.4443C43.448 30.1346 42.8701 31.7498 41.9304 33.2476C42.2405 32.2522 42.5741 31.3131 42.7667 30.2614L42.7714 30.2661Z" fill="url(#paint12_radial_245_3921)"/>
<path d="M62.6513 29.496C59.6066 29.496 57.0835 28.4959 55.0866 26.4957C53.0897 24.4955 52.0889 21.96 52.0889 18.8893C52.0889 15.8186 53.0897 13.2831 55.0913 11.3063C57.0929 9.32962 59.6113 8.3436 62.6467 8.3436C63.577 8.3436 64.4885 8.46098 65.3765 8.69575C66.2646 8.93051 67.0821 9.27327 67.8339 9.71463C68.5857 10.1607 69.3939 10.818 70.2584 11.682L67.2701 14.7809C66.6875 14.1611 66.1753 13.715 65.7336 13.4427C65.292 13.1704 64.8221 12.9732 64.3241 12.8464C63.826 12.7196 63.2763 12.6539 62.6748 12.6539C60.927 12.6539 59.4704 13.2314 58.3051 14.3818C57.1399 15.5321 56.5573 17.0346 56.5573 18.894C56.5573 20.7533 57.1352 22.2558 58.291 23.4297C59.4469 24.6035 60.9035 25.1904 62.6607 25.1904C63.2716 25.1904 63.8683 25.1059 64.4509 24.9275C65.0335 24.7538 65.5645 24.5096 66.0437 24.195C66.523 23.8804 67.054 23.4109 67.6366 22.7817L70.6813 25.8666C69.7604 26.8526 68.9005 27.585 68.1064 28.064C67.3124 28.5429 66.4525 28.8997 65.5269 29.1392C64.6013 29.3787 63.6381 29.496 62.6467 29.496H62.6513Z" fill="#1151AA"/>
<path d="M79.552 29.496C77.2309 29.496 75.3233 28.7683 73.8291 27.3127C72.335 25.8572 71.5879 24.0072 71.5879 21.7628C71.5879 19.5185 72.335 17.645 73.8338 16.1989C75.3327 14.7527 77.2403 14.0296 79.552 14.0296C81.8638 14.0296 83.7667 14.7527 85.2703 16.2083C86.7691 17.6591 87.5209 19.5091 87.5209 21.7628C87.5209 24.0166 86.7738 25.8572 85.2891 27.3127C83.7996 28.7683 81.8873 29.496 79.5567 29.496H79.552ZM79.552 25.8055C80.5951 25.8055 81.4691 25.4252 82.1645 24.6645C82.8646 23.9039 83.217 22.9367 83.217 21.7628C83.217 20.589 82.8646 19.5983 82.1598 18.847C81.455 18.0958 80.5857 17.7202 79.552 17.7202C78.5183 17.7202 77.635 18.0958 76.9302 18.847C76.2254 19.5983 75.873 20.5702 75.873 21.7628C75.873 22.9554 76.2254 23.9039 76.9255 24.6645C77.6256 25.4252 78.4996 25.8055 79.552 25.8055Z" fill="#1151AA"/>
<path d="M97.0594 29.496C94.7383 29.496 92.8306 28.7683 91.3365 27.3127C89.8423 25.8572 89.0952 24.0072 89.0952 21.7628C89.0952 19.5185 89.8423 17.645 91.3412 16.1989C92.84 14.7527 94.7477 14.0296 97.0594 14.0296C99.3711 14.0296 101.274 14.7527 102.778 16.2083C104.276 17.6591 105.028 19.5091 105.028 21.7628C105.028 24.0166 104.286 25.8572 102.796 27.3127C101.307 28.7683 99.3946 29.496 97.0641 29.496H97.0594ZM97.0594 25.8055C98.1025 25.8055 98.9764 25.4252 99.6765 24.6645C100.377 23.9039 100.729 22.9367 100.729 21.7628C100.729 20.589 100.377 19.5983 99.6718 18.847C98.967 18.0958 98.0978 17.7202 97.0641 17.7202C96.0304 17.7202 95.147 18.0958 94.4422 18.847C93.7374 19.5983 93.3851 20.5702 93.3851 21.7628C93.3851 22.9554 93.7375 23.9039 94.4375 24.6645C95.1376 25.4252 96.0116 25.8055 97.0641 25.8055H97.0594Z" fill="#1151AA"/>
<path d="M107.519 29.003V8.83191H111.931V29.003H107.519Z" fill="#1151AA"/>
<path d="M125.166 29.496C122.121 29.496 119.598 28.4959 117.606 26.4957C115.609 24.4955 114.608 21.96 114.608 18.8893C114.608 15.8186 115.609 13.2831 117.611 11.3063C119.612 9.32962 122.131 8.3436 125.166 8.3436C126.097 8.3436 127.008 8.46098 127.891 8.69575C128.779 8.93051 129.597 9.27327 130.353 9.71463C131.105 10.1607 131.913 10.818 132.778 11.682L129.79 14.7809C129.207 14.1611 128.695 13.715 128.253 13.4427C127.812 13.1704 127.342 12.9732 126.844 12.8464C126.346 12.7196 125.796 12.6539 125.194 12.6539C123.446 12.6539 121.99 13.2314 120.825 14.3818C119.659 15.5321 119.077 17.0346 119.077 18.894C119.077 20.7533 119.655 22.2558 120.811 23.4297C121.966 24.6035 123.423 25.1904 125.18 25.1904C125.791 25.1904 126.388 25.1059 126.97 24.9275C127.553 24.7538 128.084 24.5096 128.563 24.195C129.043 23.8804 129.573 23.4109 130.156 22.7817L133.201 25.8666C132.28 26.8526 131.42 27.585 130.631 28.064C129.837 28.5429 128.977 28.8997 128.051 29.1392C127.126 29.3787 126.167 29.496 125.171 29.496H125.166Z" fill="#1151AA"/>
<path d="M142.067 29.496C139.746 29.496 137.838 28.7683 136.344 27.3127C134.85 25.8572 134.103 24.0072 134.103 21.7628C134.103 19.5185 134.85 17.645 136.354 16.1989C137.853 14.7527 139.76 14.0296 142.072 14.0296C144.384 14.0296 146.287 14.7527 147.79 16.2083C149.289 17.6591 150.041 19.5091 150.041 21.7628C150.041 24.0166 149.298 25.8572 147.809 27.3127C146.319 28.7683 144.407 29.496 142.077 29.496H142.067ZM142.067 25.8055C143.11 25.8055 143.984 25.4252 144.684 24.6645C145.384 23.9039 145.732 22.9367 145.732 21.7628C145.732 20.589 145.38 19.5983 144.675 18.847C143.97 18.0958 143.101 17.7202 142.067 17.7202C141.033 17.7202 140.15 18.0958 139.445 18.847C138.741 19.5983 138.388 20.5702 138.388 21.7628C138.388 22.9554 138.741 23.9039 139.441 24.6645C140.141 25.4252 141.015 25.8055 142.067 25.8055Z" fill="#1151AA"/>
<path d="M155.754 29.003L149.961 14.5226H154.472L157.601 23.2278L158.01 24.5519H158.108L158.545 23.2137L161.646 14.5226H166.072L160.138 29.003H155.754Z" fill="#1151AA"/>
<path d="M173.699 29.496C171.359 29.496 169.498 28.7823 168.121 27.355C166.745 25.9276 166.059 24.0823 166.059 21.8192C166.059 19.556 166.763 17.7108 168.178 16.2552C169.592 14.7997 171.467 14.0719 173.797 14.0719C175.846 14.0719 177.556 14.7527 178.933 16.1191C180.309 17.4854 181 19.3213 181 21.6173C181 21.8802 180.991 22.115 180.972 22.3216C180.953 22.5282 180.916 22.8005 180.859 23.1386L168.102 23.1527V19.927H176.8C176.677 19.1851 176.358 18.5841 175.841 18.124C175.324 17.6638 174.638 17.4337 173.783 17.4337C172.768 17.4337 171.941 17.8 171.312 18.5325C170.682 19.2649 170.358 20.2885 170.358 21.6032C170.358 23.0681 170.715 24.2138 171.429 25.0449C172.143 25.8759 173.111 26.2938 174.333 26.2938C175.141 26.2938 175.869 26.1201 176.513 25.7726C177.157 25.4252 177.739 24.9228 178.266 24.2654L180.591 26.4206C179.727 27.416 178.759 28.1767 177.692 28.7025C176.626 29.2284 175.291 29.4913 173.699 29.4913V29.496Z" fill="#1151AA"/>
<path d="M77.9879 39.0455V38.529L79.4821 36.8903C79.6794 36.6743 79.8204 36.4818 79.9049 36.3175C79.9895 36.1531 80.0318 35.9888 80.0318 35.8245C80.0318 35.6085 79.9613 35.4301 79.8251 35.2986C79.6888 35.1671 79.5056 35.1014 79.28 35.1014C79.0921 35.1014 78.9323 35.1483 78.8008 35.2422C78.6692 35.3361 78.5564 35.4911 78.4531 35.7071L77.9879 35.5146C78.1242 35.1953 78.298 34.9652 78.5048 34.8244C78.7115 34.6835 78.9746 34.6131 79.2894 34.6131C79.6559 34.6131 79.9613 34.7258 80.201 34.9511C80.4406 35.1765 80.558 35.4676 80.558 35.8151C80.558 36.0358 80.5017 36.2611 80.3842 36.4912C80.2667 36.7213 80.0929 36.9607 79.8486 37.219L78.6128 38.5337L78.6222 38.5524H80.5956V39.0408H77.9785L77.9879 39.0455Z" fill="#01AEEF"/>
<path d="M84.5659 39.0455V34.7117H85.0828V39.0455H84.5659Z" fill="#01AEEF"/>
<path d="M86.9575 39.0455V34.7117H87.5824L89.7673 38.1627H89.7861L89.7626 37.327V34.7117H90.2794V39.0455H89.7532L87.4697 35.4301H87.4509L87.4744 36.2658V39.0455H86.9575Z" fill="#01AEEF"/>
<path d="M95.1333 39.0455V35.4301L94.405 35.9512L94.1372 35.5568L95.3166 34.7117H95.6455V39.0455H95.1286H95.1333Z" fill="#01AEEF"/>
<path d="M99.4371 39.0455L101.086 34.7117H101.678L103.313 39.0455H102.745L101.556 35.801L101.382 35.2798H101.364L101.19 35.801L99.9869 39.0455H99.4277H99.4371ZM100.142 37.8528L100.316 37.3692H102.313L102.487 37.8528H100.137H100.142Z" fill="#01AEEF"/>
<path d="M106.64 39.1441C106.001 39.1441 105.466 38.9281 105.038 38.4914C104.606 38.0547 104.39 37.5148 104.39 36.8668C104.39 36.2189 104.606 35.6789 105.038 35.2516C105.47 34.8244 106.001 34.6131 106.636 34.6131C106.847 34.6131 107.049 34.6412 107.246 34.6976C107.439 34.7539 107.618 34.8337 107.773 34.937C107.932 35.0403 108.092 35.1859 108.257 35.3737L107.885 35.693C107.726 35.5193 107.589 35.4019 107.477 35.3315C107.364 35.261 107.237 35.2047 107.096 35.1671C106.955 35.1296 106.8 35.1061 106.626 35.1061C106.138 35.1061 105.729 35.2657 105.4 35.5897C105.066 35.9137 104.902 36.3363 104.902 36.8621C104.902 37.388 105.066 37.8153 105.395 38.1487C105.724 38.482 106.138 38.6464 106.626 38.6464C106.8 38.6464 106.964 38.6229 107.124 38.5759C107.284 38.529 107.43 38.4585 107.557 38.3693C107.683 38.2801 107.824 38.1533 107.975 37.9843L108.355 38.3271C108.167 38.5431 107.984 38.7074 107.815 38.8107C107.646 38.9187 107.463 38.9985 107.261 39.0502C107.063 39.1065 106.852 39.13 106.626 39.13L106.64 39.1441Z" fill="#01AEEF"/>
<path d="M111.846 39.0455L113.496 34.7117H114.088L115.723 39.0455H115.154L113.965 35.801L113.792 35.2798H113.773L113.599 35.801L112.396 39.0455H111.837H111.846ZM112.546 37.8528L112.72 37.3692H114.717L114.891 37.8528H112.542H112.546Z" fill="#01AEEF"/>
<path d="M117.207 39.0455V34.7117H117.832L120.017 38.1627H120.036L120.012 37.327V34.7117H120.529V39.0455H120.003L117.719 35.4301H117.7L117.724 36.2658V39.0455H117.207Z" fill="#01AEEF"/>
<path d="M122.404 39.0455V34.7117H123.715C124.373 34.7117 124.903 34.9089 125.308 35.3033C125.707 35.6977 125.909 36.2189 125.909 36.8715C125.909 37.5242 125.712 38.0547 125.308 38.4492C124.908 38.8483 124.377 39.0455 123.715 39.0455H122.404ZM122.916 38.5571H123.71C124.232 38.5571 124.64 38.4069 124.936 38.1111C125.232 37.8153 125.383 37.4021 125.383 36.8715C125.383 36.341 125.232 35.9372 124.936 35.646C124.64 35.3549 124.232 35.2047 123.71 35.2047H122.916V38.5571Z" fill="#01AEEF"/>
<path d="M129.842 39.0455V34.7117H130.359V39.0455H129.842ZM130.143 37.0734V36.5851H132.797V37.0734H130.143ZM132.586 39.0455V34.7117H133.103V39.0455H132.586Z" fill="#01AEEF"/>
<path d="M134.977 39.0455V34.7117H137.388V35.2H135.489V38.5524H137.421V39.0408H134.973L134.977 39.0455ZM135.25 37.1204V36.6368H137.289V37.1204H135.25Z" fill="#01AEEF"/>
<path d="M138.83 39.0455L140.479 34.7117H141.071L142.707 39.0455H142.138L140.949 35.801L140.775 35.2798H140.757L140.583 35.801L139.38 39.0455H138.821H138.83ZM139.53 37.8528L139.704 37.3692H141.701L141.875 37.8528H139.526H139.53Z" fill="#01AEEF"/>
<path d="M143.364 35.2047V34.7164H146.31V35.2047H143.364ZM144.581 39.0455V34.9558H145.098V39.0455H144.581Z" fill="#01AEEF"/>
<path d="M147.856 39.0455V34.7117H150.267V35.2H148.368V38.5524H150.3V39.0408H147.852L147.856 39.0455ZM148.129 37.1204V36.6368H150.168V37.1204H148.129Z" fill="#01AEEF"/>
<path d="M152.104 39.0455V34.7117H153.57C153.941 34.7117 154.256 34.8338 154.519 35.0732C154.782 35.3127 154.914 35.6226 154.914 35.9935C154.914 36.3644 154.782 36.6978 154.519 36.9419C154.256 37.1861 153.899 37.3082 153.457 37.3082H152.381V36.8246H153.546C153.781 36.8246 153.983 36.7447 154.148 36.5898C154.312 36.4349 154.402 36.233 154.402 35.9888C154.402 35.7681 154.322 35.5803 154.162 35.4254C154.002 35.2704 153.81 35.1953 153.584 35.1953H152.626V39.0408H152.109L152.104 39.0455ZM154.477 39.0455L153.166 37.0593L153.73 37.0312L155.102 39.0455H154.477Z" fill="#01AEEF"/>
</g>
<defs>
<radialGradient id="paint0_radial_245_3921" cx="0" cy="0" r="1" gradientUnits="userSpaceOnUse" gradientTransform="translate(22.323 22.4999) scale(22.4218 22.4061)">
<stop stop-color="#2B3990"/>
<stop offset="1" stop-color="#00AEEF"/>
</radialGradient>
<radialGradient id="paint1_radial_245_3921" cx="0" cy="0" r="1" gradientUnits="userSpaceOnUse" gradientTransform="translate(8.27916 23.3405) scale(10.008 10.001)">
<stop stop-color="#2B3990"/>
<stop offset="1" stop-color="#00AEEF"/>
</radialGradient>
<radialGradient id="paint2_radial_245_3921" cx="0" cy="0" r="1" gradientUnits="userSpaceOnUse" gradientTransform="translate(21.4634 8.15578) scale(9.75902 9.75219)">
<stop stop-color="#2B3990"/>
<stop offset="1" stop-color="#00AEEF"/>
</radialGradient>
<radialGradient id="paint3_radial_245_3921" cx="0" cy="0" r="1" gradientUnits="userSpaceOnUse" gradientTransform="translate(6.92127 16.7623) scale(9.79661 9.78975)">
<stop stop-color="#2B3990"/>
<stop offset="1" stop-color="#00AEEF"/>
</radialGradient>
<radialGradient id="paint4_radial_245_3921" cx="0" cy="0" r="1" gradientUnits="userSpaceOnUse" gradientTransform="translate(11.4974 30.8905) scale(9.87649 9.86957)">
<stop stop-color="#2B3990"/>
<stop offset="1" stop-color="#00AEEF"/>
</radialGradient>
<radialGradient id="paint5_radial_245_3921" cx="0" cy="0" r="1" gradientUnits="userSpaceOnUse" gradientTransform="translate(28.1914 6.91152) scale(9.74493 9.73811)">
<stop stop-color="#2B3990"/>
<stop offset="1" stop-color="#00AEEF"/>
</radialGradient>
<radialGradient id="paint6_radial_245_3921" cx="0" cy="0" r="1" gradientUnits="userSpaceOnUse" gradientTransform="translate(16.7272 38.2434) scale(9.79661 9.78975)">
<stop stop-color="#2B3990"/>
<stop offset="1" stop-color="#00AEEF"/>
</radialGradient>
<radialGradient id="paint7_radial_245_3921" cx="0" cy="0" r="1" gradientUnits="userSpaceOnUse" gradientTransform="translate(23.6388 36.802) scale(9.76842 9.76158)">
<stop stop-color="#2B3990"/>
<stop offset="1" stop-color="#00AEEF"/>
</radialGradient>
<radialGradient id="paint8_radial_245_3921" cx="0" cy="0" r="1" gradientUnits="userSpaceOnUse" gradientTransform="translate(30.931 33.5011) scale(9.8295 9.82262)">
<stop stop-color="#2B3990"/>
<stop offset="1" stop-color="#00AEEF"/>
</radialGradient>
<radialGradient id="paint9_radial_245_3921" cx="0" cy="0" r="1" gradientUnits="userSpaceOnUse" gradientTransform="translate(14.1662 11.4143) scale(9.77312 9.76628)">
<stop stop-color="#2B3990"/>
<stop offset="1" stop-color="#00AEEF"/>
</radialGradient>
<radialGradient id="paint10_radial_245_3921" cx="0" cy="0" r="1" gradientUnits="userSpaceOnUse" gradientTransform="translate(33.426 14.1752) scale(9.69324 9.68646)">
<stop stop-color="#2B3990"/>
<stop offset="1" stop-color="#00AEEF"/>
</radialGradient>
<radialGradient id="paint11_radial_245_3921" cx="0" cy="0" r="1" gradientUnits="userSpaceOnUse" gradientTransform="translate(38.0307 28.2048) scale(9.8342 9.82732)">
<stop stop-color="#2B3990"/>
<stop offset="1" stop-color="#00AEEF"/>
</radialGradient>
<radialGradient id="paint12_radial_245_3921" cx="0" cy="0" r="1" gradientUnits="userSpaceOnUse" gradientTransform="translate(36.7995 21.5422) scale(9.76372 9.75688)">
<stop stop-color="#2B3990"/>
<stop offset="1" stop-color="#00AEEF"/>
</radialGradient>
<clipPath id="clip0_245_3921">
<rect width="181" height="45" fill="white"/>
</clipPath>
</defs>
</svg>
