<svg width="167" height="41" viewBox="0 0 167 41" fill="none" xmlns="http://www.w3.org/2000/svg">
<g clip-path="url(#clip0_245_4003)">
<path d="M8.79588 18.1042C7.90283 15.3192 7.88549 12.4658 8.80889 9.75787C9.85367 6.69485 11.7135 4.35908 14.3536 2.48105C15.5371 1.63829 16.7986 0.979486 18.1859 0.538856C18.8752 0.32068 19.5255 0.183785 20.2494 -0.000167153C18.7061 -0.0301129 17.1975 0.273623 15.7365 0.752754C14.5443 1.14205 13.4735 1.68963 12.4288 2.36555C11.384 3.04147 10.5906 3.74305 9.77997 4.59009C9.18171 5.21467 8.67016 5.84353 8.20196 6.57506C6.64563 8.99211 5.81761 11.7985 5.89131 14.6775C5.94333 16.8251 6.47656 18.9042 7.59937 20.795L8.79588 18.0999V18.1042ZM12.9533 8.96217C13.9417 7.14831 15.3203 5.61252 16.9894 4.41041C18.9749 2.98157 21.2942 2.10031 23.7306 1.80086C25.4213 1.59124 27.086 1.68535 28.7377 2.09176L30.4718 2.59228C29.6048 2.00192 28.6814 1.6169 27.7016 1.2875C23.7826 -0.0301129 19.6252 0.496077 16.0877 2.588C15.1556 3.13986 14.3493 3.79439 13.5689 4.53875C11.5921 6.42533 10.1615 8.77821 9.49385 11.4177C9.27275 12.3674 9.13836 13.2957 9.13836 14.3053L11.5747 12.5214C11.8609 11.2851 12.3117 10.1087 12.9533 8.96644V8.96217ZM33.2203 5.95476C34.6856 6.61784 36.0165 7.46916 37.096 8.64132L38.1884 9.82631C38.1711 9.86054 38.1971 9.80493 38.2101 9.77926C37.4081 8.41887 36.4414 7.1697 35.2318 6.13443C32.9819 4.20507 30.1467 3.04147 27.1727 2.81473C23.206 2.511 19.4214 3.773 16.4345 6.32694C15.3854 7.25954 14.501 8.32047 13.803 9.57819L16.9547 9.06484C18.342 7.54188 20.0327 6.39539 21.9315 5.62108C25.6901 4.16229 29.5527 4.30774 33.216 5.96331L33.2203 5.95476ZM9.65425 27.3702L9.32911 24.4056C8.47508 23.6185 7.72509 22.7757 7.06614 21.8303C5.61386 19.7512 4.80751 17.3256 4.71214 14.7888C4.59075 10.8573 6.14275 7.2082 8.82189 4.34624L9.99673 3.16125C8.94761 3.70027 8.07624 4.41041 7.24389 5.20611C6.47222 5.94192 5.80894 6.7419 5.19334 7.60605C4.65145 8.37181 4.2266 9.16323 3.86678 10.0231C2.93471 12.2434 2.57923 14.6305 2.88269 17.0219C3.20783 19.5929 4.36532 22.3607 6.06905 24.3372C7.09215 25.535 8.25832 26.566 9.65858 27.366L9.65425 27.3702ZM38.7563 13.9118C40.0439 15.777 40.8546 17.8689 41.1277 20.0891C41.1667 20.0849 41.1971 20.0806 41.184 20.0806C41.2274 18.7801 41.054 17.5395 40.7375 16.286C39.9659 13.2615 38.2275 10.6006 35.7607 8.65843C33.5758 6.93869 30.9183 5.92909 28.1221 5.76653C25.4777 5.61252 22.7508 6.17293 20.4879 7.50766L23.2754 8.65843C24.3288 8.30764 25.3693 8.06379 26.4661 7.96968C28.9372 7.76006 31.3822 8.27341 33.5758 9.39852C34.859 10.0573 35.9992 10.9086 37.0396 11.8926C37.6942 12.5086 38.2318 13.1588 38.752 13.9118H38.7563ZM39.463 27.5756C39.2809 28.5381 38.9774 29.3894 38.6913 30.2964C39.554 28.9317 40.0872 27.4601 40.4124 25.92C41.2014 22.0784 40.3344 18.0614 38.1017 14.8401C36.4717 12.4915 34.1567 10.7033 31.4559 9.71081C30.0903 9.24879 28.6727 8.975 27.2161 8.96217L28.7291 11.2509C30.3114 11.6145 31.7854 12.1878 33.1553 13.0262C34.2478 13.7321 35.2492 14.5364 36.1032 15.5117C38.1104 17.7919 39.2549 20.3843 39.6234 23.3875C39.7968 24.7992 39.7318 26.1639 39.4673 27.5799L39.463 27.5756ZM13.0877 29.6889C11.7525 29.398 10.5473 28.9616 9.35946 28.3841C8.18029 27.8152 7.13551 27.0879 6.1861 26.1938C4.75549 24.8548 3.65002 23.2463 2.88702 21.4495C1.61248 18.4507 1.31335 14.947 2.24542 11.8156C2.39715 11.345 2.58356 10.9215 2.70061 10.4124C0.810471 13.3685 0.125512 17.5181 0.931857 20.8977C1.62549 23.8024 3.20349 26.4462 5.45779 28.444C6.47656 29.3467 7.62105 30.0868 8.84357 30.6857C10.6557 31.5712 12.6108 32.0674 14.6744 32.1231L13.0921 29.6932L13.0877 29.6889ZM31.4949 37.8555C32.6134 37.2609 33.5324 36.4994 34.3951 35.6524C34.9631 35.0535 35.4876 34.4802 35.9645 33.8086C38.0801 30.814 39.0555 27.1392 38.5613 23.503C38.028 19.5715 35.6177 15.5887 32.1148 13.5481L32.3403 16.4572L33.7319 17.9245C35.2405 19.7597 36.2896 21.9116 36.6885 24.2559C37.0873 26.6002 36.8229 29.2868 35.9471 31.6054C35.3012 33.3123 34.3345 34.8481 33.1423 36.2299L31.4992 37.8555H31.4949ZM21.3462 40.9956C22.7075 41.0298 24.0037 40.7603 25.2869 40.3924C27.047 39.8405 28.6944 39.0234 30.1163 37.8641C31.8634 36.4395 33.1379 34.9294 34.1827 32.9487C34.6336 32.0931 34.937 31.2247 35.1972 30.3006C35.6003 28.8633 35.7781 27.4173 35.7261 25.9157C35.6524 23.8452 35.0671 21.8645 34.0397 20.0506L32.8432 22.5746C33.0816 23.3875 33.2723 24.1789 33.3937 25.0216C33.5931 26.5446 33.5108 28.0462 33.1813 29.5434C32.5917 32.2899 31.2695 34.8823 29.2493 36.8545C28.6033 37.4876 27.901 38.0352 27.1597 38.5486C26.4574 39.0363 25.7291 39.4213 24.9661 39.8063C23.8216 40.3795 22.6208 40.679 21.3506 40.9956H21.3462ZM21.2162 33.5861L18.7538 32.4311C16.17 33.3209 13.4042 33.4193 10.7554 32.7006C8.69617 32.1445 6.79736 31.1349 5.18901 29.7573C4.35665 29.0344 3.62834 28.2515 2.94338 27.3916C1.83791 26.0099 1.02723 24.457 0.502673 22.7757L0.00412707 20.9191C-0.0739063 23.2163 0.671745 25.8644 1.80323 27.8836C3.01275 30.0483 4.75983 31.8578 6.86239 33.1926C9.91002 35.1305 13.4866 35.7679 17.0457 35.1262C18.511 34.8396 19.8983 34.3433 21.2119 33.5861H21.2162ZM12.4765 38.9849L11.1716 38.647C13.1874 39.7721 15.4591 40.4095 17.7784 40.4608C21.9142 40.5507 25.8505 38.8266 28.6163 35.8235C29.3923 34.9807 30.06 34.0781 30.6192 33.077C31.5599 31.3873 32.1712 29.5734 32.3966 27.6569C32.4313 27.2932 32.4617 26.9553 32.4313 26.6045L30.0296 28.3242C29.336 31.3958 27.8664 33.907 25.495 35.9946C22.8375 38.3304 19.3781 39.494 15.8232 39.4512C14.6744 39.4384 13.5949 39.2844 12.4765 38.9935V38.9849ZM24.758 32.0247C23.9343 32.8674 23.1107 33.6289 22.1526 34.2749C21.5283 34.6984 20.8954 35.0235 20.2104 35.3444C18.5067 36.123 16.6946 36.5679 14.8088 36.5935C13.5169 36.6149 12.2597 36.4994 11.0155 36.1529C9.24241 35.6609 7.59504 34.8695 6.06905 33.8685L5.07196 33.0984C4.4 32.5209 3.81909 31.9049 3.18182 31.2504C3.3639 31.6782 3.61534 32.0161 3.88412 32.384C4.95057 33.8257 6.25546 35.062 7.75544 36.0716C10.5863 37.9753 14.1672 38.7667 17.5573 38.3004C19.8679 37.9839 22.0485 37.0898 23.9343 35.7465C24.693 35.2075 25.3433 34.6 25.9979 33.9455C26.6525 33.2781 27.1944 32.538 27.6843 31.7081L24.7537 32.0247H24.758Z" fill="white"/>
<path d="M13.0879 29.6892L14.6703 32.1191C12.6067 32.0678 10.6559 31.5673 8.83947 30.6817C7.61261 30.0828 6.47246 29.3427 5.45369 28.4401C3.19939 26.4423 1.62138 23.7985 0.927755 20.8937C0.121411 17.5141 0.80637 13.3645 2.70085 10.4084C2.5838 10.9132 2.39738 11.3368 2.24565 11.8116C1.31792 14.9431 1.61705 18.4467 2.88726 21.4456C3.65025 23.2423 4.75572 24.8551 6.18633 26.1899C7.1314 27.084 8.18052 27.8155 9.35969 28.3802C10.5475 28.9577 11.7527 29.394 13.0879 29.6849V29.6892Z" fill="white"/>
<path d="M12.9535 8.96233C12.3162 10.1045 11.861 11.281 11.5749 12.5173L9.13855 14.3012C9.13855 13.2916 9.27294 12.359 9.49403 11.4136C10.1617 8.7741 11.5923 6.41694 13.5691 4.53464C14.3451 3.79455 15.1558 3.13574 16.0879 2.58388C19.621 0.49196 23.7785 -0.0342296 27.6975 1.28338C28.6772 1.61279 29.605 2.00208 30.4677 2.58816L28.7336 2.08764C27.0862 1.68123 25.4172 1.58712 23.7264 1.79674C21.2901 2.10047 18.9751 2.98173 16.9852 4.4063C15.3119 5.6084 13.9333 7.13992 12.9492 8.95805L12.9535 8.96233Z" fill="white"/>
<path d="M9.65444 27.3705C8.25418 26.5748 7.08801 25.5395 6.06491 24.3417C4.36118 22.361 3.20369 19.5974 2.87855 17.0264C2.57508 14.635 2.93057 12.2479 3.86263 10.0276C4.22246 9.16348 4.6473 8.37205 5.1892 7.61058C5.8048 6.74643 6.47242 5.94645 7.23974 5.21064C8.06776 4.41921 8.93914 3.70479 9.99259 3.16577L8.81775 4.35077C6.13861 7.21272 4.59095 10.8618 4.708 14.7933C4.80337 17.3258 5.60971 19.7557 7.062 21.8348C7.72095 22.776 8.47094 23.623 9.32497 24.4101L9.65011 27.3748L9.65444 27.3705Z" fill="white"/>
<path d="M21.2163 33.5865C19.9027 34.3437 18.5155 34.8399 17.0502 35.1266C13.4867 35.7725 9.91015 35.1308 6.86685 33.1929C4.76428 31.8539 3.0172 30.0443 1.80769 27.884C0.671867 25.8648 -0.0737847 23.2124 0.00424866 20.9194L0.49846 22.7803C1.02302 24.4616 1.8337 26.0145 2.93917 27.3963C3.62846 28.2561 4.35244 29.0347 5.18479 29.762C6.79315 31.1438 8.69196 32.1534 10.7512 32.7052C13.4 33.4239 16.1658 33.3255 18.7496 32.4357L21.212 33.5908L21.2163 33.5865Z" fill="white"/>
<path d="M33.2205 5.95499C29.5572 4.29942 25.6946 4.15397 21.936 5.61275C20.0372 6.38706 18.3464 7.53356 16.9592 9.05651L13.8075 9.56987C14.5011 8.31215 15.3898 7.25121 16.439 6.31862C19.4259 3.76467 23.2105 2.50267 27.1772 2.80641C30.1511 3.03314 32.9864 4.19674 35.2363 6.12611C36.4458 7.16137 37.4126 8.41482 38.2146 9.77093C38.2016 9.7966 38.1756 9.85221 38.1929 9.81799L37.1004 8.63299C36.021 7.46083 34.6857 6.60952 33.2248 5.94643L33.2205 5.95499Z" fill="white"/>
<path d="M24.7582 32.025L27.6887 31.7085C27.1989 32.5384 26.657 33.2785 26.0024 33.9458C25.3477 34.6004 24.6975 35.2078 23.9388 35.7469C22.0573 37.0901 19.8724 37.98 17.5618 38.3008C14.1673 38.7671 10.5908 37.9757 7.7599 36.072C6.25993 35.0667 4.95504 33.8261 3.88858 32.3844C3.6198 32.0208 3.36836 31.6828 3.18628 31.2507C3.81922 31.9053 4.40013 32.5256 5.07642 33.0988L6.07351 33.8688C7.5995 34.8742 9.24253 35.6613 11.02 36.1533C12.2642 36.4998 13.517 36.611 14.8132 36.5939C16.6991 36.564 18.5155 36.1233 20.2149 35.3447C20.8998 35.0239 21.5328 34.6988 22.1571 34.2753C23.1151 33.625 23.9388 32.8635 24.7625 32.025H24.7582Z" fill="white"/>
<path d="M12.4766 38.9852C13.5951 39.2761 14.6746 39.4301 15.8234 39.4429C19.3783 39.4857 22.8377 38.3264 25.4952 35.9863C27.8666 33.903 29.3362 31.3875 30.0298 28.3159L32.4315 26.5962C32.4618 26.9513 32.4315 27.2849 32.3968 27.6486C32.1757 29.5651 31.5601 31.379 30.6194 33.0688C30.0602 34.0698 29.3882 34.9724 28.6165 35.8152C25.8507 38.8226 21.91 40.5424 17.7786 40.4525C15.4636 40.4012 13.1919 39.7638 11.1718 38.6387L12.4766 38.9766V38.9852Z" fill="white"/>
<path d="M21.3464 40.9959C22.6166 40.6794 23.8174 40.3799 24.9619 39.8067C25.7249 39.4216 26.4532 39.0366 27.1555 38.5489C27.9012 38.0356 28.5991 37.488 29.2451 36.8549C31.2696 34.8827 32.5918 32.2903 33.1771 29.5438C33.5066 28.0465 33.5889 26.545 33.3895 25.022C33.2725 24.1793 33.0774 23.3878 32.839 22.575L34.0355 20.051C35.0629 21.8649 35.6482 23.8456 35.7219 25.9161C35.7739 27.4177 35.5961 28.8636 35.193 30.301C34.9328 31.2293 34.6294 32.0978 34.1785 32.9491C33.1337 34.9341 31.8592 36.4399 30.1121 37.8645C28.6902 39.0238 27.0428 39.8409 25.2827 40.3927C23.9995 40.7564 22.7076 41.0302 21.342 40.9959H21.3464Z" fill="white"/>
<path d="M8.79605 18.1044L7.59953 20.7995C6.48106 18.9086 5.94783 16.8253 5.89147 14.682C5.81777 11.8029 6.65013 8.9966 8.20213 6.57955C8.67033 5.8523 9.18621 5.21916 9.78013 4.59458C10.5908 3.74754 11.4362 3.00745 12.4289 2.37004C13.4737 1.6984 14.5445 1.14654 15.7367 0.757244C17.202 0.278112 18.7106 -0.0256233 20.2539 4.44563e-05C19.5256 0.179719 18.8754 0.320892 18.1904 0.539068C16.8031 0.97542 15.5373 1.6385 14.3581 2.48126C11.718 4.35929 9.85383 6.69506 8.81339 9.75808C7.88999 12.466 7.90733 15.3237 8.80038 18.1044H8.79605Z" fill="white"/>
<path d="M38.7566 13.9121C38.2363 13.1592 37.6988 12.5132 37.0442 11.8929C35.9994 10.909 34.8636 10.062 33.5804 9.39889C31.3868 8.26951 28.9374 7.76043 26.4707 7.97005C25.3738 8.06416 24.3334 8.30801 23.28 8.6588L20.4924 7.50803C22.7554 6.1733 25.4822 5.61717 28.1267 5.7669C30.9229 5.92946 33.5804 6.93478 35.7653 8.6588C38.232 10.601 39.9704 13.2619 40.7421 16.2864C41.0629 17.5399 41.232 18.7762 41.1886 20.081C41.2016 20.081 41.1713 20.081 41.1322 20.0895C40.8591 17.8693 40.0441 15.7773 38.7609 13.9121H38.7566Z" fill="white"/>
<path d="M31.4951 37.8557L33.1381 36.2301C34.3346 34.8483 35.297 33.3168 35.943 31.6056C36.823 29.2827 37.1005 26.6988 36.6843 24.2561C36.2681 21.8134 35.2363 19.7599 33.7277 17.9247L32.3361 16.4574L32.1107 13.5483C35.6135 15.5889 38.0238 19.5717 38.5571 23.5032C39.0513 27.1437 38.0759 30.8142 35.9603 33.8088C35.4834 34.4804 34.9589 35.0579 34.391 35.6526C33.5283 36.4953 32.6092 37.2568 31.4907 37.8557H31.4951Z" fill="white"/>
<path d="M39.4631 27.5759C39.7276 26.1599 39.7926 24.7953 39.6192 23.3835C39.2507 20.3804 38.1062 17.788 36.099 15.5078C35.2407 14.5367 34.2436 13.7282 33.1511 13.0223C31.7812 12.1838 30.3072 11.6106 28.7249 11.247L27.2119 8.95825C28.6685 8.97109 30.0861 9.24488 31.4517 9.7069C34.1525 10.7037 36.4675 12.4918 38.0976 14.8362C40.3302 18.0575 41.1972 22.0745 40.4082 25.9161C40.0874 27.4562 39.5542 28.9278 38.6871 30.2925C38.9733 29.3855 39.2811 28.5299 39.4588 27.5717L39.4631 27.5759Z" fill="white"/>
<path d="M57.8053 26.8743C54.9961 26.8743 52.6681 25.9631 50.8257 24.1407C48.9832 22.3182 48.0598 20.0081 48.0598 17.2104C48.0598 14.4126 48.9832 12.1025 50.83 10.3014C52.6768 8.50042 55.0004 7.60205 57.801 7.60205C58.6593 7.60205 59.5004 7.709 60.3197 7.9229C61.1391 8.1368 61.8934 8.44909 62.587 8.85122C63.2806 9.25762 64.0263 9.85654 64.824 10.6437L62.0668 13.4671C61.5292 12.9024 61.0567 12.496 60.6492 12.2479C60.2417 11.9998 59.8082 11.8201 59.3486 11.7046C58.8891 11.5891 58.3819 11.5292 57.827 11.5292C56.2143 11.5292 54.8704 12.0554 53.7953 13.1035C52.7201 14.1516 52.1826 15.5206 52.1826 17.2146C52.1826 18.9087 52.7158 20.2777 53.7823 21.3471C54.8487 22.4166 56.1926 22.9514 57.814 22.9514C58.3776 22.9514 58.9281 22.8744 59.4657 22.7118C60.0032 22.5535 60.4931 22.3311 60.9353 22.0445C61.3775 21.7578 61.8674 21.33 62.4049 20.7568L65.2141 23.5674C64.3644 24.4658 63.5711 25.1331 62.8385 25.5695C62.1058 26.0058 61.3125 26.331 60.4584 26.5492C59.6044 26.7673 58.7157 26.8743 57.801 26.8743H57.8053Z" fill="white"/>
<path d="M73.3989 26.8743C71.2573 26.8743 69.4973 26.2112 68.1187 24.8851C66.7401 23.5589 66.0508 21.8734 66.0508 19.8285C66.0508 17.7837 66.7401 16.0767 68.123 14.7591C69.5059 13.4415 71.266 12.7827 73.3989 12.7827C75.5318 12.7827 77.2876 13.4415 78.6748 14.7677C80.0578 16.0896 80.7514 17.7751 80.7514 19.8285C80.7514 21.8819 80.0621 23.5589 78.6922 24.8851C77.3179 26.2112 75.5535 26.8743 73.4033 26.8743H73.3989ZM73.3989 23.5118C74.3613 23.5118 75.1677 23.1653 75.8093 22.4723C76.4552 21.7793 76.7804 20.898 76.7804 19.8285C76.7804 18.759 76.4552 17.8564 75.8049 17.1719C75.1547 16.4874 74.3527 16.1452 73.3989 16.1452C72.4452 16.1452 71.6302 16.4874 70.9799 17.1719C70.3296 17.8564 70.0045 18.7419 70.0045 19.8285C70.0045 20.9151 70.3296 21.7793 70.9756 22.4723C71.6215 23.1653 72.4278 23.5118 73.3989 23.5118Z" fill="white"/>
<path d="M89.5519 26.8743C87.4103 26.8743 85.6502 26.2112 84.2716 24.8851C82.893 23.5589 82.2037 21.8734 82.2037 19.8285C82.2037 17.7837 82.893 16.0767 84.276 14.7591C85.6589 13.4415 87.419 12.7827 89.5519 12.7827C91.6848 12.7827 93.4405 13.4415 94.8278 14.7677C96.2107 16.0896 96.9044 17.7751 96.9044 19.8285C96.9044 21.8819 96.2194 23.5589 94.8451 24.8851C93.4709 26.2112 91.7065 26.8743 89.5562 26.8743H89.5519ZM89.5519 23.5118C90.5143 23.5118 91.3206 23.1653 91.9666 22.4723C92.6125 21.7793 92.9377 20.898 92.9377 19.8285C92.9377 18.759 92.6125 17.8564 91.9622 17.1719C91.312 16.4874 90.51 16.1452 89.5562 16.1452C88.6025 16.1452 87.7875 16.4874 87.1372 17.1719C86.4869 17.8564 86.1618 18.7419 86.1618 19.8285C86.1618 20.9151 86.4869 21.7793 87.1328 22.4723C87.7788 23.1653 88.5851 23.5118 89.5562 23.5118H89.5519Z" fill="white"/>
<path d="M99.202 26.425V8.04688H103.273V26.425H99.202Z" fill="white"/>
<path d="M115.485 26.8743C112.676 26.8743 110.348 25.9631 108.51 24.1407C106.667 22.3182 105.744 20.0081 105.744 17.2104C105.744 14.4126 106.667 12.1025 108.514 10.3014C110.361 8.50042 112.684 7.60205 115.485 7.60205C116.343 7.60205 117.184 7.709 117.999 7.9229C118.819 8.1368 119.573 8.44909 120.271 8.85122C120.965 9.25762 121.71 9.85654 122.508 10.6437L119.751 13.4671C119.213 12.9024 118.741 12.496 118.333 12.2479C117.926 11.9998 117.492 11.8201 117.033 11.7046C116.573 11.5891 116.066 11.5292 115.511 11.5292C113.898 11.5292 112.554 12.0554 111.479 13.1035C110.404 14.1516 109.867 15.5206 109.867 17.2146C109.867 18.9087 110.4 20.2777 111.466 21.3471C112.533 22.4166 113.877 22.9514 115.498 22.9514C116.062 22.9514 116.612 22.8744 117.15 22.7118C117.687 22.5535 118.177 22.3311 118.619 22.0445C119.061 21.7578 119.551 21.33 120.089 20.7568L122.898 23.5674C122.048 24.4658 121.255 25.1331 120.527 25.5695C119.794 26.0058 119.001 26.331 118.147 26.5492C117.293 26.7673 116.408 26.8743 115.489 26.8743H115.485Z" fill="white"/>
<path d="M131.079 26.8743C128.937 26.8743 127.177 26.2112 125.798 24.8851C124.42 23.5589 123.73 21.8734 123.73 19.8285C123.73 17.7837 124.42 16.0767 125.807 14.7591C127.19 13.4415 128.95 12.7827 131.083 12.7827C133.216 12.7827 134.972 13.4415 136.359 14.7677C137.742 16.0896 138.435 17.7751 138.435 19.8285C138.435 21.8819 137.75 23.5589 136.376 24.8851C135.002 26.2112 133.238 26.8743 131.087 26.8743H131.079ZM131.079 23.5118C132.041 23.5118 132.847 23.1653 133.493 22.4723C134.139 21.7793 134.46 20.898 134.46 19.8285C134.46 18.759 134.135 17.8564 133.485 17.1719C132.834 16.4874 132.032 16.1452 131.079 16.1452C130.125 16.1452 129.31 16.4874 128.66 17.1719C128.009 17.8564 127.684 18.7419 127.684 19.8285C127.684 20.9151 128.009 21.7793 128.655 22.4723C129.301 23.1653 130.108 23.5118 131.079 23.5118Z" fill="white"/>
<path d="M143.707 26.4252L138.362 13.2319H142.523L145.411 21.1633L145.788 22.3697H145.879L146.282 21.1504L149.143 13.2319H153.227L147.752 26.4252H143.707Z" fill="white"/>
<path d="M160.263 26.8742C158.104 26.8742 156.387 26.2239 155.117 24.9234C153.847 23.6229 153.214 21.9417 153.214 19.8797C153.214 17.8177 153.864 16.1365 155.169 14.8103C156.474 13.4841 158.204 12.821 160.354 12.821C162.244 12.821 163.822 13.4414 165.093 14.6862C166.363 15.9311 167 17.6038 167 19.6957C167 19.9353 166.991 20.1492 166.974 20.3374C166.957 20.5257 166.922 20.7738 166.87 21.0818L155.1 21.0946V18.1557H163.124C163.012 17.4797 162.717 16.9322 162.24 16.5129C161.763 16.0937 161.13 15.8841 160.341 15.8841C159.405 15.8841 158.642 16.2177 158.061 16.8851C157.48 17.5525 157.181 18.4851 157.181 19.6829C157.181 21.0176 157.51 22.0614 158.169 22.8186C158.828 23.5758 159.721 23.9566 160.848 23.9566C161.594 23.9566 162.266 23.7983 162.86 23.4817C163.454 23.1652 163.991 22.7074 164.477 22.1085L166.623 24.0721C165.825 24.979 164.932 25.672 163.948 26.1512C162.964 26.6303 161.733 26.8699 160.263 26.8699V26.8742Z" fill="white"/>
<path d="M71.9554 35.5748V35.1042L73.334 33.6112C73.5161 33.4144 73.6462 33.239 73.7242 33.0893C73.8022 32.9396 73.8413 32.7898 73.8413 32.6401C73.8413 32.4433 73.7762 32.2807 73.6505 32.161C73.5248 32.0412 73.3557 31.9813 73.1476 31.9813C72.9742 31.9813 72.8268 32.0241 72.7054 32.1096C72.584 32.1952 72.48 32.3364 72.3846 32.5331L71.9554 32.3577C72.0812 32.0668 72.2416 31.8572 72.4323 31.7289C72.6231 31.6005 72.8658 31.5364 73.1563 31.5364C73.4944 31.5364 73.7762 31.639 73.9973 31.8444C74.2184 32.0497 74.3268 32.315 74.3268 32.6315C74.3268 32.8326 74.2748 33.0379 74.1664 33.2476C74.058 33.4572 73.8976 33.6754 73.6722 33.9106L72.532 35.1085L72.5407 35.1256H74.3615V35.5705H71.9468L71.9554 35.5748Z" fill="white"/>
<path d="M78.0247 35.5748V31.6262H78.5015V35.5748H78.0247Z" fill="white"/>
<path d="M80.2313 35.5748V31.6262H80.8079L82.8238 34.7705H82.8411L82.8194 34.009V31.6262H83.2963V35.5748H82.8108L80.7039 32.2808H80.6865L80.7082 33.0422V35.5748H80.2313Z" fill="white"/>
<path d="M87.7745 35.5748V32.2808L87.1026 32.7556L86.8555 32.3963L87.9436 31.6262H88.2471V35.5748H87.7702H87.7745Z" fill="white"/>
<path d="M91.7456 35.5748L93.2673 31.6262H93.8135L95.3221 35.5748H94.7976L93.7008 32.6187L93.5404 32.1439H93.523L93.3626 32.6187L92.2528 35.5748H91.7369H91.7456ZM92.3959 34.4882L92.5563 34.0475H94.3987L94.5591 34.4882H92.3915H92.3959Z" fill="white"/>
<path d="M98.3914 35.6646C97.8018 35.6646 97.3076 35.4678 96.9131 35.07C96.5142 34.6721 96.3148 34.1802 96.3148 33.5898C96.3148 32.9994 96.5142 32.5075 96.9131 32.1182C97.3119 31.7289 97.8018 31.5364 98.387 31.5364C98.5821 31.5364 98.7685 31.562 98.9506 31.6134C99.1284 31.6647 99.2931 31.7374 99.4362 31.8316C99.5835 31.9257 99.7309 32.0583 99.8827 32.2294L99.5402 32.5203C99.3928 32.362 99.2671 32.2551 99.163 32.1909C99.059 32.1267 98.9419 32.0754 98.8119 32.0412C98.6818 32.007 98.5388 31.9856 98.3784 31.9856C97.9275 31.9856 97.5504 32.131 97.2469 32.4262C96.9391 32.7214 96.7874 33.1064 96.7874 33.5855C96.7874 34.0647 96.9391 34.454 97.2425 34.7577C97.546 35.0614 97.9275 35.2111 98.3784 35.2111C98.5388 35.2111 98.6905 35.1898 98.8379 35.147C98.9853 35.1042 99.1197 35.04 99.2367 34.9587C99.3538 34.8775 99.4838 34.762 99.6226 34.608L99.9737 34.9202C99.8003 35.117 99.6312 35.2668 99.4752 35.3609C99.3191 35.4593 99.15 35.532 98.9636 35.5791C98.7815 35.6304 98.5865 35.6518 98.3784 35.6518L98.3914 35.6646Z" fill="white"/>
<path d="M103.195 35.5748L104.716 31.6262H105.263L106.771 35.5748H106.247L105.15 32.6187L104.99 32.1439H104.972L104.812 32.6187L103.702 35.5748H103.186H103.195ZM103.841 34.4882L104.001 34.0475H105.844L106.004 34.4882H103.836H103.841Z" fill="white"/>
<path d="M108.141 35.5748V31.6262H108.718L110.734 34.7705H110.751L110.729 34.009V31.6262H111.206V35.5748H110.721L108.614 32.2808H108.596L108.618 33.0422V35.5748H108.141Z" fill="white"/>
<path d="M112.936 35.5748V31.6262H114.145C114.752 31.6262 115.242 31.8059 115.615 32.1652C115.984 32.5246 116.17 32.9994 116.17 33.5941C116.17 34.1887 115.988 34.6721 115.615 35.0315C115.247 35.3951 114.757 35.5748 114.145 35.5748H112.936ZM113.408 35.1299H114.141C114.622 35.1299 114.999 34.993 115.273 34.7235C115.546 34.454 115.684 34.0775 115.684 33.5941C115.684 33.1107 115.546 32.7428 115.273 32.4775C114.999 32.2123 114.622 32.0754 114.141 32.0754H113.408V35.1299Z" fill="white"/>
<path d="M119.799 35.5748V31.6262H120.275V35.5748H119.799ZM120.076 33.778V33.3331H122.525V33.778H120.076ZM122.33 35.5748V31.6262H122.807V35.5748H122.33Z" fill="white"/>
<path d="M124.537 35.5748V31.6262H126.761V32.0711H125.009V35.1256H126.791V35.5705H124.533L124.537 35.5748ZM124.788 33.8208V33.3802H126.67V33.8208H124.788Z" fill="white"/>
<path d="M128.092 35.5748L129.613 31.6262H130.16L131.668 35.5748H131.144L130.047 32.6187L129.887 32.1439H129.869L129.709 32.6187L128.599 35.5748H128.083H128.092ZM128.738 34.4882L128.898 34.0475H130.741L130.901 34.4882H128.733H128.738Z" fill="white"/>
<path d="M132.275 32.0753V31.6304H134.993V32.0753H132.275ZM133.398 35.5747V31.8485H133.875V35.5747H133.398Z" fill="white"/>
<path d="M136.42 35.5748V31.6262H138.644V32.0711H136.892V35.1256H138.674V35.5705H136.415L136.42 35.5748ZM136.671 33.8208V33.3802H138.553V33.8208H136.671Z" fill="white"/>
<path d="M140.339 35.5748V31.6262H141.691C142.034 31.6262 142.324 31.7374 142.567 31.9556C142.81 32.1738 142.931 32.4561 142.931 32.7941C142.931 33.1321 142.81 33.4358 142.567 33.6583C142.324 33.8807 141.995 33.9919 141.587 33.9919H140.594V33.5513H141.67C141.886 33.5513 142.073 33.4786 142.224 33.3374C142.376 33.1962 142.459 33.0123 142.459 32.7898C142.459 32.5888 142.385 32.4176 142.237 32.2765C142.09 32.1353 141.912 32.0669 141.704 32.0669H140.82V35.5705H140.343L140.339 35.5748ZM142.528 35.5748L141.318 33.7652L141.839 33.7395L143.104 35.5748H142.528Z" fill="white"/>
</g>
<defs>
<clipPath id="clip0_245_4003">
<rect width="167" height="41" fill="white"/>
</clipPath>
</defs>
</svg>
