<svg width="187" height="42" viewBox="0 0 187 42" fill="none" xmlns="http://www.w3.org/2000/svg">
<path d="M58.8763 18.2C57.5429 18.2 56.4163 18 55.4963 17.6C54.5896 17.2 53.8963 16.64 53.4163 15.92C52.9496 15.1867 52.7163 14.3467 52.7163 13.4H56.3563C56.3563 13.8133 56.4496 14.1733 56.6363 14.48C56.8229 14.7867 57.1096 15.0267 57.4963 15.2C57.8829 15.3733 58.3896 15.46 59.0163 15.46C59.4829 15.46 59.8829 15.4067 60.2163 15.3C60.5629 15.1933 60.8296 15.0267 61.0163 14.8C61.2029 14.56 61.2963 14.2533 61.2963 13.88C61.2963 13.6 61.2429 13.3733 61.1363 13.2C61.0429 13.0267 60.8763 12.88 60.6363 12.76C60.4096 12.64 60.0896 12.5333 59.6763 12.44C59.2629 12.3467 58.7429 12.2533 58.1163 12.16C57.2763 12.0267 56.5363 11.8467 55.8963 11.62C55.2563 11.38 54.7229 11.0867 54.2963 10.74C53.8696 10.3933 53.5496 9.98 53.3363 9.5C53.1229 9.02 53.0163 8.46 53.0163 7.82C53.0163 6.87333 53.2496 6.06 53.7163 5.38C54.1963 4.68667 54.8696 4.16 55.7363 3.8C56.6163 3.42667 57.6629 3.24 58.8763 3.24C60.0363 3.24 61.0429 3.42667 61.8963 3.8C62.7496 4.16 63.4096 4.66667 63.8763 5.32C64.3429 5.97333 64.5829 6.73333 64.5963 7.6H60.9763C60.9629 7.18667 60.8496 6.86 60.6363 6.62C60.4363 6.36667 60.1696 6.18667 59.8363 6.08C59.5029 5.97333 59.1496 5.92 58.7763 5.92C58.3629 5.92 58.0029 5.97333 57.6963 6.08C57.3896 6.18667 57.1496 6.34667 56.9763 6.56C56.8163 6.76 56.7363 7.02667 56.7363 7.36C56.7363 7.69333 56.8229 7.96 56.9963 8.16C57.1829 8.34667 57.5163 8.50667 57.9963 8.64C58.4763 8.77333 59.1629 8.90667 60.0563 9.04C60.6563 9.13333 61.2429 9.26 61.8163 9.42C62.4029 9.58 62.9363 9.82 63.4163 10.14C63.9096 10.46 64.2963 10.9 64.5763 11.46C64.8696 12.02 65.0163 12.7467 65.0163 13.64C65.0163 14.5333 64.7829 15.3267 64.3163 16.02C63.8629 16.7 63.1829 17.2333 62.2763 17.62C61.3696 18.0067 60.2363 18.2 58.8763 18.2ZM66.7928 18V7.2H70.0728L70.1728 9.06H70.3328C70.5861 8.36667 70.9995 7.85333 71.5728 7.52C72.1595 7.17333 72.7995 7 73.4928 7C74.2261 7 74.8995 7.17333 75.5128 7.52C76.1261 7.86667 76.5795 8.47333 76.8728 9.34H77.0328C77.2728 8.55333 77.7061 7.96667 78.3328 7.58C78.9728 7.19333 79.6928 7 80.4928 7C81.1861 7 81.8061 7.14667 82.3528 7.44C82.8995 7.72 83.3328 8.18667 83.6528 8.84C83.9861 9.49333 84.1528 10.36 84.1528 11.44V18H80.7728V12.18C80.7728 11.6333 80.7128 11.18 80.5928 10.82C80.4861 10.46 80.3061 10.1933 80.0528 10.02C79.8128 9.83333 79.4928 9.74 79.0928 9.74C78.6795 9.74 78.3261 9.84667 78.0328 10.06C77.7528 10.2733 77.5395 10.5467 77.3928 10.88C77.2461 11.2133 77.1728 11.5667 77.1728 11.94V18H73.7728V12.18C73.7728 11.6333 73.7195 11.18 73.6128 10.82C73.5061 10.46 73.3261 10.1933 73.0728 10.02C72.8328 9.83333 72.5128 9.74 72.1128 9.74C71.6995 9.74 71.3461 9.84667 71.0528 10.06C70.7728 10.2733 70.5528 10.5467 70.3928 10.88C70.2461 11.2133 70.1728 11.5667 70.1728 11.94V18H66.7928ZM90.2622 18.2C89.6089 18.2 89.0089 18.0733 88.4622 17.82C87.9289 17.5667 87.4689 17.2 87.0822 16.72C86.6955 16.24 86.3955 15.6533 86.1822 14.96C85.9822 14.2667 85.8822 13.48 85.8822 12.6C85.8822 11.4133 86.0622 10.4067 86.4222 9.58C86.7955 8.74 87.3089 8.1 87.9622 7.66C88.6155 7.22 89.3822 7 90.2622 7C90.7689 7 91.2355 7.08 91.6622 7.24C92.1022 7.38667 92.4755 7.60667 92.7822 7.9C93.0889 8.18 93.3155 8.51333 93.4622 8.9H93.6422L93.7622 7.2H96.9822V18H93.7622L93.6422 16.3H93.4622C93.2489 16.8733 92.8489 17.3333 92.2622 17.68C91.6889 18.0267 91.0222 18.2 90.2622 18.2ZM91.5022 15.48C91.9822 15.48 92.3755 15.38 92.6822 15.18C92.9889 14.9667 93.2155 14.68 93.3622 14.32C93.5222 13.96 93.6022 13.5533 93.6022 13.1V12.1C93.6022 11.62 93.5155 11.2 93.3422 10.84C93.1822 10.48 92.9489 10.2067 92.6422 10.02C92.3489 9.82 91.9955 9.72 91.5822 9.72C91.0622 9.72 90.6355 9.84 90.3022 10.08C89.9689 10.3067 89.7222 10.64 89.5622 11.08C89.4022 11.5067 89.3222 12.0133 89.3222 12.6C89.3222 13.1733 89.3955 13.68 89.5422 14.12C89.7022 14.5467 89.9422 14.88 90.2622 15.12C90.5822 15.36 90.9955 15.48 91.5022 15.48ZM99.2928 18V7.2H102.353L102.493 8.84H102.613C102.853 8.16 103.226 7.69333 103.733 7.44C104.253 7.18667 104.839 7.06 105.493 7.06C105.613 7.06 105.719 7.06 105.813 7.06C105.919 7.06 106.019 7.06 106.113 7.06V10.24C106.033 10.24 105.933 10.24 105.813 10.24C105.706 10.2267 105.579 10.22 105.433 10.22C104.753 10.22 104.213 10.32 103.813 10.52C103.413 10.7067 103.126 10.98 102.953 11.34C102.779 11.6867 102.686 12.12 102.673 12.64V18H99.2928ZM111.865 18C110.878 18 110.152 17.7733 109.685 17.32C109.232 16.8533 109.005 16.12 109.005 15.12V9.92H107.145V7.2H109.005V4.34L112.385 4.04V7.2H114.445V9.92H112.385V14.48C112.385 14.7867 112.458 15 112.605 15.12C112.765 15.2267 112.972 15.28 113.225 15.28H114.465V18H111.865ZM120.585 18V3.42H127.965C129.471 3.42 130.598 3.76667 131.345 4.46C132.091 5.14 132.465 6.04667 132.465 7.18C132.465 7.72667 132.358 8.21333 132.145 8.64C131.945 9.06667 131.658 9.42667 131.285 9.72C130.911 10.0133 130.465 10.22 129.945 10.34L129.925 10.48C130.605 10.5867 131.158 10.8 131.585 11.12C132.011 11.4267 132.325 11.8133 132.525 12.28C132.738 12.7333 132.845 13.24 132.845 13.8C132.845 14.7333 132.631 15.5133 132.205 16.14C131.791 16.7667 131.191 17.2333 130.405 17.54C129.618 17.8467 128.651 18 127.505 18H120.585ZM124.065 15.28H127.085C127.845 15.28 128.385 15.1267 128.705 14.82C129.038 14.5 129.205 14.0867 129.205 13.58C129.205 12.98 129.018 12.5467 128.645 12.28C128.285 12 127.798 11.86 127.185 11.86H123.765V9.24H127.025C127.451 9.24 127.798 9.17333 128.065 9.04C128.331 8.90667 128.525 8.72667 128.645 8.5C128.778 8.26 128.845 7.98 128.845 7.66C128.845 7.14 128.671 6.76 128.325 6.52C127.991 6.26667 127.538 6.14 126.965 6.14H124.065V15.28ZM138.481 18.2C137.641 18.2 136.934 18.04 136.361 17.72C135.787 17.3867 135.354 16.9067 135.061 16.28C134.781 15.64 134.641 14.8733 134.641 13.98V7.2H138.021V13.06C138.021 13.58 138.081 14.02 138.201 14.38C138.334 14.7267 138.534 14.9933 138.801 15.18C139.067 15.3667 139.414 15.46 139.841 15.46C140.281 15.46 140.654 15.3533 140.961 15.14C141.267 14.9267 141.501 14.6533 141.661 14.32C141.821 13.9867 141.901 13.6267 141.901 13.24V7.2H145.281V18H142.021L141.901 16.12H141.741C141.487 16.8 141.067 17.32 140.481 17.68C139.894 18.0267 139.227 18.2 138.481 18.2ZM147.654 21.34V18.58H148.974C149.254 18.58 149.494 18.54 149.694 18.46C149.894 18.3933 150.06 18.28 150.194 18.12C150.34 17.9733 150.46 17.78 150.554 17.54L150.994 16.38V17.8L146.614 7.2H150.334L151.934 12.56L152.334 14.02H152.454L152.814 12.56L154.314 7.2H157.954L153.894 18.28C153.6 19.0933 153.24 19.72 152.814 20.16C152.4 20.6133 151.927 20.92 151.394 21.08C150.86 21.2533 150.267 21.34 149.614 21.34H147.654ZM163.8 18.2C162.654 18.2 161.674 17.9733 160.86 17.52C160.06 17.0533 159.447 16.4067 159.02 15.58C158.594 14.7533 158.38 13.7867 158.38 12.68C158.38 11.52 158.594 10.5133 159.02 9.66C159.46 8.80667 160.08 8.15333 160.88 7.7C161.68 7.23333 162.614 7 163.68 7C164.947 7 165.987 7.28 166.8 7.84C167.614 8.38667 168.194 9.14 168.54 10.1C168.9 11.06 169.02 12.1533 168.9 13.38H161.7C161.687 13.8733 161.767 14.2933 161.94 14.64C162.127 14.9733 162.374 15.2333 162.68 15.42C163 15.5933 163.374 15.68 163.8 15.68C164.307 15.68 164.707 15.5867 165 15.4C165.307 15.2133 165.514 14.9667 165.62 14.66H168.8C168.707 15.38 168.434 16.0067 167.98 16.54C167.54 17.06 166.96 17.4667 166.24 17.76C165.52 18.0533 164.707 18.2 163.8 18.2ZM161.7 11.62L161.42 11.32H165.88L165.58 11.62C165.607 11.1533 165.54 10.7667 165.38 10.46C165.234 10.1533 165.014 9.92 164.72 9.76C164.427 9.6 164.08 9.52 163.68 9.52C163.267 9.52 162.914 9.60667 162.62 9.78C162.327 9.94 162.1 10.18 161.94 10.5C161.78 10.82 161.7 11.1933 161.7 11.62ZM170.64 18V7.2H173.7L173.84 8.84H173.96C174.2 8.16 174.574 7.69333 175.08 7.44C175.6 7.18667 176.187 7.06 176.84 7.06C176.96 7.06 177.067 7.06 177.16 7.06C177.267 7.06 177.367 7.06 177.46 7.06V10.24C177.38 10.24 177.28 10.24 177.16 10.24C177.054 10.2267 176.927 10.22 176.78 10.22C176.1 10.22 175.56 10.32 175.16 10.52C174.76 10.7067 174.474 10.98 174.3 11.34C174.127 11.6867 174.034 12.12 174.02 12.64V18H170.64Z" fill="white"/>
<path d="M53.4363 39V24.42H61.1163C61.7029 24.42 62.2429 24.4733 62.7363 24.58C63.2429 24.6867 63.6963 24.8467 64.0963 25.06C64.4963 25.2733 64.8363 25.5467 65.1163 25.88C65.3963 26.2 65.6096 26.58 65.7563 27.02C65.9163 27.4467 65.9963 27.9333 65.9963 28.48C65.9963 29.3733 65.7496 30.1333 65.2563 30.76C64.7763 31.3733 64.1229 31.7867 63.2963 32V32.14C63.8696 32.2333 64.3296 32.4 64.6763 32.64C65.0229 32.88 65.2763 33.1933 65.4363 33.58C65.6096 33.9533 65.6963 34.4133 65.6963 34.96V37.3C65.6963 37.5667 65.7029 37.8467 65.7163 38.14C65.7429 38.42 65.8229 38.7067 65.9563 39H62.3363C62.2563 38.8267 62.1963 38.5933 62.1562 38.3C62.1163 38.0067 62.0963 37.6733 62.0963 37.3V35.58C62.0963 35.2067 62.0363 34.8933 61.9163 34.64C61.8096 34.3867 61.6096 34.1867 61.3163 34.04C61.0229 33.8933 60.6029 33.82 60.0563 33.82H56.7163V31H60.2363C60.9963 31 61.5296 30.82 61.8363 30.46C62.1563 30.1 62.3163 29.66 62.3163 29.14C62.3163 28.8067 62.2629 28.5333 62.1562 28.32C62.0629 28.0933 61.9229 27.9133 61.7363 27.78C61.5496 27.6333 61.3296 27.5267 61.0763 27.46C60.8229 27.3933 60.5429 27.36 60.2363 27.36H57.0163V39H53.4363ZM72.7847 39.2C71.638 39.2 70.658 38.9733 69.8447 38.52C69.0447 38.0533 68.4314 37.4067 68.0047 36.58C67.578 35.7533 67.3647 34.7867 67.3647 33.68C67.3647 32.52 67.578 31.5133 68.0047 30.66C68.4447 29.8067 69.0647 29.1533 69.8647 28.7C70.6647 28.2333 71.598 28 72.6647 28C73.9314 28 74.9714 28.28 75.7847 28.84C76.598 29.3867 77.178 30.14 77.5247 31.1C77.8847 32.06 78.0047 33.1533 77.8847 34.38H70.6847C70.6714 34.8733 70.7514 35.2933 70.9247 35.64C71.1114 35.9733 71.358 36.2333 71.6647 36.42C71.9847 36.5933 72.358 36.68 72.7847 36.68C73.2914 36.68 73.6914 36.5867 73.9847 36.4C74.2914 36.2133 74.498 35.9667 74.6047 35.66H77.7847C77.6914 36.38 77.418 37.0067 76.9647 37.54C76.5247 38.06 75.9447 38.4667 75.2247 38.76C74.5047 39.0533 73.6914 39.2 72.7847 39.2ZM70.6847 32.62L70.4047 32.32H74.8647L74.5647 32.62C74.5914 32.1533 74.5247 31.7667 74.3647 31.46C74.218 31.1533 73.998 30.92 73.7047 30.76C73.4114 30.6 73.0647 30.52 72.6647 30.52C72.2514 30.52 71.898 30.6067 71.6047 30.78C71.3114 30.94 71.0847 31.18 70.9247 31.5C70.7647 31.82 70.6847 32.1933 70.6847 32.62ZM82.0305 39L78.4505 28.2H82.0705L83.5905 34.32L84.0905 36.42H84.1905L84.6905 34.32L86.2105 28.2H89.8505L86.2705 39H82.0305ZM91.2264 39V28.2H94.6064V39H91.2264ZM92.9464 27.12C92.4264 27.12 91.9997 26.9867 91.6664 26.72C91.3464 26.4533 91.1864 26.08 91.1864 25.6C91.1864 25.12 91.3464 24.7533 91.6664 24.5C91.9997 24.2333 92.4264 24.1 92.9464 24.1C93.4531 24.1 93.8664 24.2333 94.1864 24.5C94.5197 24.7533 94.6864 25.12 94.6864 25.6C94.6864 26.08 94.5197 26.4533 94.1864 26.72C93.8664 26.9867 93.4531 27.12 92.9464 27.12ZM101.769 39.2C100.622 39.2 99.6424 38.9733 98.8291 38.52C98.0291 38.0533 97.4157 37.4067 96.9891 36.58C96.5624 35.7533 96.3491 34.7867 96.3491 33.68C96.3491 32.52 96.5624 31.5133 96.9891 30.66C97.4291 29.8067 98.0491 29.1533 98.8491 28.7C99.6491 28.2333 100.582 28 101.649 28C102.916 28 103.956 28.28 104.769 28.84C105.582 29.3867 106.162 30.14 106.509 31.1C106.869 32.06 106.989 33.1533 106.869 34.38H99.6691C99.6557 34.8733 99.7357 35.2933 99.9091 35.64C100.096 35.9733 100.342 36.2333 100.649 36.42C100.969 36.5933 101.342 36.68 101.769 36.68C102.276 36.68 102.676 36.5867 102.969 36.4C103.276 36.2133 103.482 35.9667 103.589 35.66H106.769C106.676 36.38 106.402 37.0067 105.949 37.54C105.509 38.06 104.929 38.4667 104.209 38.76C103.489 39.0533 102.676 39.2 101.769 39.2ZM99.6691 32.62L99.3891 32.32H103.849L103.549 32.62C103.576 32.1533 103.509 31.7667 103.349 31.46C103.202 31.1533 102.982 30.92 102.689 30.76C102.396 30.6 102.049 30.52 101.649 30.52C101.236 30.52 100.882 30.6067 100.589 30.78C100.296 30.94 100.069 31.18 99.9091 31.5C99.7491 31.82 99.6691 32.1933 99.6691 32.62ZM110.11 39L107.63 28.2H111.13L112.15 33.32L112.57 35.98H112.71L113.09 33.32L113.97 28.2H117.65L118.51 33.32L118.87 36.02H119.01L119.41 33.32L120.47 28.2H123.79L121.31 39H116.87L116.11 34.94L115.71 32.14H115.59L115.21 34.94L114.47 39H110.11Z" fill="#FBB040"/>
<g clip-path="url(#clip0_213_21)">
<path d="M37.9628 13.83C38.638 13.83 39.1178 14.4911 38.915 15.1393L38.8625 15.3055L33.8296 30.6716C33.6938 31.0862 33.31 31.3637 32.8773 31.3619L19.8314 31.3035L12.0954 31.2578C11.632 31.256 11.2319 30.9309 11.1287 30.4763L8.50356 18.921L6.97013 12.1318C6.91582 11.8944 6.78184 11.679 6.5827 11.5402C6.45235 11.4489 6.30751 11.3795 6.14457 11.3174L0.611923 8.97823C0.242597 8.82119 0 8.45416 0 8.04878V5.6457C0 4.93354 0.713307 4.44599 1.36868 4.71077L10.2072 8.28068C10.5077 8.4012 10.7304 8.66233 10.8064 8.97823L11.7243 12.8074L14.5486 24.7662L14.764 25.7048C14.869 26.1613 15.2709 26.4845 15.7344 26.4845L29.6004 26.5083C30.0295 26.5083 30.4115 26.2325 30.5491 25.8217L32.5767 19.7282C32.794 19.0763 32.3142 18.4025 31.6335 18.4006C30.7392 18.3988 30.2992 17.3032 30.9383 16.6732L33.5399 14.1149C33.7264 13.9323 33.9762 13.8282 34.2369 13.8282H37.9628V13.83Z" fill="white"/>
<path d="M16.0312 16.4174L15.5062 15.9098C15.1061 15.5226 15.0952 14.8799 15.4845 14.4781L17.1845 12.727C17.5701 12.3289 18.2037 12.3234 18.5984 12.7142L19.3642 13.4756L21.888 15.9353C22.2808 16.3188 22.9054 16.3115 23.2892 15.9207L27.4441 11.6971L31.0085 8.15819L33.7567 5.41729C34.1459 5.03017 34.7705 5.03017 35.158 5.41729L36.8887 7.13743C37.2852 7.53185 37.2852 8.17462 36.8905 8.56905L35.1525 10.3056L32.5314 12.9224L26.6638 18.846L23.3019 22.2461C22.9127 22.6387 22.2826 22.6406 21.8916 22.2498L17.3257 17.6829L16.0276 16.4192L16.0312 16.4174Z" fill="#FBB040"/>
<path d="M13.5383 37.3896C12.5281 36.21 12.8539 34.4333 14.1719 33.6828C15.2835 33.051 16.6558 33.4162 17.3456 34.4753C18.0354 35.5344 17.7964 36.9277 16.8169 37.6964C15.8411 38.4597 14.3946 38.3885 13.5401 37.3896H13.5383Z" fill="white"/>
<path d="M28.42 37.3131C27.7121 36.4147 27.7302 35.2077 28.382 34.333C29.0337 33.4583 30.1707 33.1296 31.1845 33.5551C32.1296 33.9514 32.6998 34.8571 32.6799 35.8413C32.66 36.8256 32.0372 37.7258 31.1338 38.0563C30.1598 38.4124 29.0826 38.1531 28.42 37.3131Z" fill="white"/>
</g>
<defs>
<clipPath id="clip0_213_21">
<rect width="42" height="38" fill="white" transform="translate(0 0.212891)"/>
</clipPath>
</defs>
</svg>
