<svg width="307" height="38" viewBox="0 0 307 38" fill="none" xmlns="http://www.w3.org/2000/svg">
<path d="M59.65 28.75C57.9833 28.75 56.575 28.5 55.425 28C54.2917 27.5 53.425 26.8 52.825 25.9C52.2417 24.9833 51.95 23.9333 51.95 22.75H56.5C56.5 23.2667 56.6167 23.7167 56.85 24.1C57.0833 24.4833 57.4417 24.7833 57.925 25C58.4083 25.2167 59.0417 25.325 59.825 25.325C60.4083 25.325 60.9083 25.2583 61.325 25.125C61.7583 24.9917 62.0917 24.7833 62.325 24.5C62.5583 24.2 62.675 23.8167 62.675 23.35C62.675 23 62.6083 22.7167 62.475 22.5C62.3583 22.2833 62.15 22.1 61.85 21.95C61.5667 21.8 61.1667 21.6667 60.65 21.55C60.1333 21.4333 59.4833 21.3167 58.7 21.2C57.65 21.0333 56.725 20.8083 55.925 20.525C55.125 20.225 54.4583 19.8583 53.925 19.425C53.3917 18.9917 52.9917 18.475 52.725 17.875C52.4583 17.275 52.325 16.575 52.325 15.775C52.325 14.5917 52.6167 13.575 53.2 12.725C53.8 11.8583 54.6417 11.2 55.725 10.75C56.825 10.2833 58.1333 10.05 59.65 10.05C61.1 10.05 62.3583 10.2833 63.425 10.75C64.4917 11.2 65.3167 11.8333 65.9 12.65C66.4833 13.4667 66.7833 14.4167 66.8 15.5H62.275C62.2583 14.9833 62.1167 14.575 61.85 14.275C61.6 13.9583 61.2667 13.7333 60.85 13.6C60.4333 13.4667 59.9917 13.4 59.525 13.4C59.0083 13.4 58.5583 13.4667 58.175 13.6C57.7917 13.7333 57.4917 13.9333 57.275 14.2C57.075 14.45 56.975 14.7833 56.975 15.2C56.975 15.6167 57.0833 15.95 57.3 16.2C57.5333 16.4333 57.95 16.6333 58.55 16.8C59.15 16.9667 60.0083 17.1333 61.125 17.3C61.875 17.4167 62.6083 17.575 63.325 17.775C64.0583 17.975 64.725 18.275 65.325 18.675C65.9417 19.075 66.425 19.625 66.775 20.325C67.1417 21.025 67.325 21.9333 67.325 23.05C67.325 24.1667 67.0333 25.1583 66.45 26.025C65.8833 26.875 65.0333 27.5417 63.9 28.025C62.7667 28.5083 61.35 28.75 59.65 28.75ZM69.5457 28.5V15H73.6457L73.7707 17.325H73.9707C74.2874 16.4583 74.804 15.8167 75.5207 15.4C76.254 14.9667 77.054 14.75 77.9207 14.75C78.8374 14.75 79.679 14.9667 80.4457 15.4C81.2124 15.8333 81.779 16.5917 82.1457 17.675H82.3457C82.6457 16.6917 83.1874 15.9583 83.9707 15.475C84.7707 14.9917 85.6707 14.75 86.6707 14.75C87.5374 14.75 88.3124 14.9333 88.9957 15.3C89.679 15.65 90.2207 16.2333 90.6207 17.05C91.0374 17.8667 91.2457 18.95 91.2457 20.3V28.5H87.0207V21.225C87.0207 20.5417 86.9457 19.975 86.7957 19.525C86.6624 19.075 86.4374 18.7417 86.1207 18.525C85.8207 18.2917 85.4207 18.175 84.9207 18.175C84.404 18.175 83.9624 18.3083 83.5957 18.575C83.2457 18.8417 82.979 19.1833 82.7957 19.6C82.6124 20.0167 82.5207 20.4583 82.5207 20.925V28.5H78.2707V21.225C78.2707 20.5417 78.204 19.975 78.0707 19.525C77.9374 19.075 77.7124 18.7417 77.3957 18.525C77.0957 18.2917 76.6957 18.175 76.1957 18.175C75.679 18.175 75.2374 18.3083 74.8707 18.575C74.5207 18.8417 74.2457 19.1833 74.0457 19.6C73.8624 20.0167 73.7707 20.4583 73.7707 20.925V28.5H69.5457ZM98.8824 28.75C98.0658 28.75 97.3158 28.5917 96.6324 28.275C95.9658 27.9583 95.3908 27.5 94.9074 26.9C94.4241 26.3 94.0491 25.5667 93.7824 24.7C93.5324 23.8333 93.4074 22.85 93.4074 21.75C93.4074 20.2667 93.6324 19.0083 94.0824 17.975C94.5491 16.925 95.1908 16.125 96.0074 15.575C96.8241 15.025 97.7824 14.75 98.8824 14.75C99.5158 14.75 100.099 14.85 100.632 15.05C101.182 15.2333 101.649 15.5083 102.032 15.875C102.416 16.225 102.699 16.6417 102.882 17.125H103.107L103.257 15H107.282V28.5H103.257L103.107 26.375H102.882C102.616 27.0917 102.116 27.6667 101.382 28.1C100.666 28.5333 99.8324 28.75 98.8824 28.75ZM100.432 25.35C101.032 25.35 101.524 25.225 101.907 24.975C102.291 24.7083 102.574 24.35 102.757 23.9C102.957 23.45 103.057 22.9417 103.057 22.375V21.125C103.057 20.525 102.949 20 102.732 19.55C102.532 19.1 102.241 18.7583 101.857 18.525C101.491 18.275 101.049 18.15 100.532 18.15C99.8824 18.15 99.3491 18.3 98.9324 18.6C98.5158 18.8833 98.2074 19.3 98.0074 19.85C97.8074 20.3833 97.7074 21.0167 97.7074 21.75C97.7074 22.4667 97.7991 23.1 97.9824 23.65C98.1824 24.1833 98.4824 24.6 98.8824 24.9C99.2824 25.2 99.7991 25.35 100.432 25.35ZM110.171 28.5V15H113.996L114.171 17.05H114.321C114.621 16.2 115.087 15.6167 115.721 15.3C116.371 14.9833 117.104 14.825 117.921 14.825C118.071 14.825 118.204 14.825 118.321 14.825C118.454 14.825 118.579 14.825 118.696 14.825V18.8C118.596 18.8 118.471 18.8 118.321 18.8C118.187 18.7833 118.029 18.775 117.846 18.775C116.996 18.775 116.321 18.9 115.821 19.15C115.321 19.3833 114.962 19.725 114.746 20.175C114.529 20.6083 114.412 21.15 114.396 21.8V28.5H110.171ZM125.886 28.5C124.653 28.5 123.744 28.2167 123.161 27.65C122.594 27.0667 122.311 26.15 122.311 24.9V18.4H119.986V15H122.311V11.425L126.536 11.05V15H129.111V18.4H126.536V24.1C126.536 24.4833 126.628 24.75 126.811 24.9C127.011 25.0333 127.269 25.1 127.586 25.1H129.136V28.5H125.886ZM136.786 28.5V10.275H146.011C147.894 10.275 149.302 10.7083 150.236 11.575C151.169 12.425 151.636 13.5583 151.636 14.975C151.636 15.6583 151.502 16.2667 151.236 16.8C150.986 17.3333 150.627 17.7833 150.161 18.15C149.694 18.5167 149.136 18.775 148.486 18.925L148.461 19.1C149.311 19.2333 150.002 19.5 150.536 19.9C151.069 20.2833 151.461 20.7667 151.711 21.35C151.977 21.9167 152.111 22.55 152.111 23.25C152.111 24.4167 151.844 25.3917 151.311 26.175C150.794 26.9583 150.044 27.5417 149.061 27.925C148.077 28.3083 146.869 28.5 145.436 28.5H136.786ZM141.136 25.1H144.911C145.861 25.1 146.536 24.9083 146.936 24.525C147.352 24.125 147.561 23.6083 147.561 22.975C147.561 22.225 147.327 21.6833 146.861 21.35C146.411 21 145.802 20.825 145.036 20.825H140.761V17.55H144.836C145.369 17.55 145.802 17.4667 146.136 17.3C146.469 17.1333 146.711 16.9083 146.861 16.625C147.027 16.325 147.111 15.975 147.111 15.575C147.111 14.925 146.894 14.45 146.461 14.15C146.044 13.8333 145.477 13.675 144.761 13.675H141.136V25.1ZM159.155 28.75C158.105 28.75 157.222 28.55 156.505 28.15C155.789 27.7333 155.247 27.1333 154.88 26.35C154.53 25.55 154.355 24.5917 154.355 23.475V15H158.58V22.325C158.58 22.975 158.655 23.525 158.805 23.975C158.972 24.4083 159.222 24.7417 159.555 24.975C159.889 25.2083 160.322 25.325 160.855 25.325C161.405 25.325 161.872 25.1917 162.255 24.925C162.639 24.6583 162.93 24.3167 163.13 23.9C163.33 23.4833 163.43 23.0333 163.43 22.55V15H167.655V28.5H163.58L163.43 26.15H163.23C162.914 27 162.389 27.65 161.655 28.1C160.922 28.5333 160.089 28.75 159.155 28.75ZM170.622 32.675V29.225H172.272C172.622 29.225 172.922 29.175 173.172 29.075C173.422 28.9917 173.63 28.85 173.797 28.65C173.98 28.4667 174.13 28.225 174.247 27.925L174.797 26.475V28.25L169.322 15H173.972L175.972 21.7L176.472 23.525H176.622L177.072 21.7L178.947 15H183.497L178.422 28.85C178.055 29.8667 177.605 30.65 177.072 31.2C176.555 31.7667 175.963 32.15 175.297 32.35C174.63 32.5667 173.888 32.675 173.072 32.675H170.622ZM190.805 28.75C189.372 28.75 188.147 28.4667 187.13 27.9C186.13 27.3167 185.363 26.5083 184.83 25.475C184.297 24.4417 184.03 23.2333 184.03 21.85C184.03 20.4 184.297 19.1417 184.83 18.075C185.38 17.0083 186.155 16.1917 187.155 15.625C188.155 15.0417 189.322 14.75 190.655 14.75C192.238 14.75 193.538 15.1 194.555 15.8C195.572 16.4833 196.297 17.425 196.73 18.625C197.18 19.825 197.33 21.1917 197.18 22.725H188.18C188.163 23.3417 188.263 23.8667 188.48 24.3C188.713 24.7167 189.022 25.0417 189.405 25.275C189.805 25.4917 190.272 25.6 190.805 25.6C191.438 25.6 191.938 25.4833 192.305 25.25C192.688 25.0167 192.947 24.7083 193.08 24.325H197.055C196.938 25.225 196.597 26.0083 196.03 26.675C195.48 27.325 194.755 27.8333 193.855 28.2C192.955 28.5667 191.938 28.75 190.805 28.75ZM188.18 20.525L187.83 20.15H193.405L193.03 20.525C193.063 19.9417 192.98 19.4583 192.78 19.075C192.597 18.6917 192.322 18.4 191.955 18.2C191.588 18 191.155 17.9 190.655 17.9C190.138 17.9 189.697 18.0083 189.33 18.225C188.963 18.425 188.68 18.725 188.48 19.125C188.28 19.525 188.18 19.9917 188.18 20.525ZM199.355 28.5V15H203.18L203.355 17.05H203.505C203.805 16.2 204.272 15.6167 204.905 15.3C205.555 14.9833 206.289 14.825 207.105 14.825C207.255 14.825 207.389 14.825 207.505 14.825C207.639 14.825 207.764 14.825 207.88 14.825V18.8C207.78 18.8 207.655 18.8 207.505 18.8C207.372 18.7833 207.214 18.775 207.03 18.775C206.18 18.775 205.505 18.9 205.005 19.15C204.505 19.3833 204.147 19.725 203.93 20.175C203.714 20.6083 203.597 21.15 203.58 21.8V28.5H199.355Z" fill="white"/>
<path d="M215.155 28.5V10.275H224.755C225.488 10.275 226.163 10.3417 226.78 10.475C227.413 10.6083 227.98 10.8083 228.48 11.075C228.98 11.3417 229.405 11.6833 229.755 12.1C230.105 12.5 230.371 12.975 230.555 13.525C230.755 14.0583 230.855 14.6667 230.855 15.35C230.855 16.4667 230.546 17.4167 229.93 18.2C229.33 18.9667 228.513 19.4833 227.48 19.75V19.925C228.196 20.0417 228.771 20.25 229.205 20.55C229.638 20.85 229.955 21.2417 230.155 21.725C230.371 22.1917 230.48 22.7667 230.48 23.45V26.375C230.48 26.7083 230.488 27.0583 230.505 27.425C230.538 27.775 230.638 28.1333 230.805 28.5H226.28C226.18 28.2833 226.105 27.9917 226.055 27.625C226.005 27.2583 225.98 26.8417 225.98 26.375V24.225C225.98 23.7583 225.905 23.3667 225.755 23.05C225.621 22.7333 225.371 22.4833 225.005 22.3C224.638 22.1167 224.113 22.025 223.43 22.025H219.255V18.5H223.655C224.605 18.5 225.271 18.275 225.655 17.825C226.055 17.375 226.255 16.825 226.255 16.175C226.255 15.7583 226.188 15.4167 226.055 15.15C225.938 14.8667 225.763 14.6417 225.53 14.475C225.296 14.2917 225.021 14.1583 224.705 14.075C224.388 13.9917 224.038 13.95 223.655 13.95H219.63V28.5H215.155ZM239.34 28.75C237.907 28.75 236.682 28.4667 235.665 27.9C234.665 27.3167 233.899 26.5083 233.365 25.475C232.832 24.4417 232.565 23.2333 232.565 21.85C232.565 20.4 232.832 19.1417 233.365 18.075C233.915 17.0083 234.69 16.1917 235.69 15.625C236.69 15.0417 237.857 14.75 239.19 14.75C240.774 14.75 242.074 15.1 243.09 15.8C244.107 16.4833 244.832 17.425 245.265 18.625C245.715 19.825 245.865 21.1917 245.715 22.725H236.715C236.699 23.3417 236.799 23.8667 237.015 24.3C237.249 24.7167 237.557 25.0417 237.94 25.275C238.34 25.4917 238.807 25.6 239.34 25.6C239.974 25.6 240.474 25.4833 240.84 25.25C241.224 25.0167 241.482 24.7083 241.615 24.325H245.59C245.474 25.225 245.132 26.0083 244.565 26.675C244.015 27.325 243.29 27.8333 242.39 28.2C241.49 28.5667 240.474 28.75 239.34 28.75ZM236.715 20.525L236.365 20.15H241.94L241.565 20.525C241.599 19.9417 241.515 19.4583 241.315 19.075C241.132 18.6917 240.857 18.4 240.49 18.2C240.124 18 239.69 17.9 239.19 17.9C238.674 17.9 238.232 18.0083 237.865 18.225C237.499 18.425 237.215 18.725 237.015 19.125C236.815 19.525 236.715 19.9917 236.715 20.525ZM250.897 28.5L246.422 15H250.947L252.847 22.65L253.472 25.275H253.597L254.222 22.65L256.122 15H260.672L256.197 28.5H250.897ZM262.392 28.5V15H266.617V28.5H262.392ZM264.542 13.65C263.892 13.65 263.359 13.4833 262.942 13.15C262.542 12.8167 262.342 12.35 262.342 11.75C262.342 11.15 262.542 10.6917 262.942 10.375C263.359 10.0417 263.892 9.875 264.542 9.875C265.176 9.875 265.692 10.0417 266.092 10.375C266.509 10.6917 266.717 11.15 266.717 11.75C266.717 12.35 266.509 12.8167 266.092 13.15C265.692 13.4833 265.176 13.65 264.542 13.65ZM275.571 28.75C274.137 28.75 272.912 28.4667 271.896 27.9C270.896 27.3167 270.129 26.5083 269.596 25.475C269.062 24.4417 268.796 23.2333 268.796 21.85C268.796 20.4 269.062 19.1417 269.596 18.075C270.146 17.0083 270.921 16.1917 271.921 15.625C272.921 15.0417 274.087 14.75 275.421 14.75C277.004 14.75 278.304 15.1 279.321 15.8C280.337 16.4833 281.062 17.425 281.496 18.625C281.946 19.825 282.096 21.1917 281.946 22.725H272.946C272.929 23.3417 273.029 23.8667 273.246 24.3C273.479 24.7167 273.787 25.0417 274.171 25.275C274.571 25.4917 275.037 25.6 275.571 25.6C276.204 25.6 276.704 25.4833 277.071 25.25C277.454 25.0167 277.712 24.7083 277.846 24.325H281.821C281.704 25.225 281.362 26.0083 280.796 26.675C280.246 27.325 279.521 27.8333 278.621 28.2C277.721 28.5667 276.704 28.75 275.571 28.75ZM272.946 20.525L272.596 20.15H278.171L277.796 20.525C277.829 19.9417 277.746 19.4583 277.546 19.075C277.362 18.6917 277.087 18.4 276.721 18.2C276.354 18 275.921 17.9 275.421 17.9C274.904 17.9 274.462 18.0083 274.096 18.225C273.729 18.425 273.446 18.725 273.246 19.125C273.046 19.525 272.946 19.9917 272.946 20.525ZM285.997 28.5L282.897 15H287.272L288.547 21.4L289.072 24.725H289.247L289.722 21.4L290.822 15H295.422L296.497 21.4L296.947 24.775H297.122L297.622 21.4L298.947 15H303.097L299.997 28.5H294.447L293.497 23.425L292.997 19.925H292.847L292.372 23.425L291.447 28.5H285.997Z" fill="#FBB040"/>
<g clip-path="url(#clip0_86_496)">
<path d="M37.9628 13.6171C38.638 13.6171 39.1178 14.2782 38.915 14.9264L38.8625 15.0926L33.8296 30.4588C33.6938 30.8733 33.31 31.1508 32.8773 31.149L19.8314 31.0906L12.0954 31.0449C11.632 31.0431 11.2319 30.7181 11.1287 30.2634L8.50356 18.7082L6.97013 11.9189C6.91582 11.6815 6.78184 11.4661 6.5827 11.3273C6.45235 11.236 6.30751 11.1666 6.14457 11.1045L0.611923 8.76534C0.242597 8.6083 0 8.24127 0 7.83588V5.43281C0 4.72065 0.713307 4.2331 1.36868 4.49787L10.2072 8.06779C10.5077 8.18831 10.7304 8.44944 10.8064 8.76534L11.7243 12.5946L14.5486 24.5533L14.764 25.4919C14.869 25.9484 15.2709 26.2716 15.7344 26.2716L29.6004 26.2954C30.0295 26.2954 30.4115 26.0196 30.5491 25.6088L32.5767 19.5153C32.794 18.8634 32.3142 18.1896 31.6335 18.1877C30.7392 18.1859 30.2992 17.0903 30.9383 16.4603L33.5399 13.902C33.7264 13.7194 33.9762 13.6153 34.2369 13.6153H37.9628V13.6171Z" fill="white"/>
<path d="M16.0313 16.2045L15.5063 15.6969C15.1062 15.3098 15.0953 14.667 15.4845 14.2653L17.1845 12.5141C17.5702 12.116 18.2038 12.1105 18.5985 12.5013L19.3643 13.2628L21.888 15.7224C22.2809 16.1059 22.9055 16.0986 23.2893 15.7078L27.4442 11.4842L31.0085 7.9453L33.7567 5.2044C34.146 4.81728 34.7706 4.81728 35.158 5.2044L36.8888 6.92454C37.2853 7.31896 37.2853 7.96173 36.8906 8.35616L35.1526 10.0927L32.5315 12.7095L26.6639 18.6332L23.302 22.0333C22.9127 22.4259 22.2827 22.4277 21.8916 22.0369L17.3257 17.47L16.0277 16.2063L16.0313 16.2045Z" fill="#FBB040"/>
<path d="M13.5383 37.1768C12.5281 35.9971 12.854 34.2204 14.172 33.4699C15.2836 32.8381 16.6559 33.2033 17.3457 34.2624C18.0354 35.3215 17.7964 36.7148 16.817 37.4835C15.8412 38.2468 14.3947 38.1756 13.5401 37.1768H13.5383Z" fill="white"/>
<path d="M28.42 37.1002C27.7121 36.2018 27.7302 34.9948 28.382 34.1201C29.0337 33.2454 30.1707 32.9168 31.1845 33.3422C32.1296 33.7385 32.6998 34.6442 32.6799 35.6284C32.66 36.6127 32.0372 37.5129 31.1338 37.8434C30.1598 38.1995 29.0826 37.9402 28.42 37.1002Z" fill="white"/>
</g>
<defs>
<clipPath id="clip0_86_496">
<rect width="42" height="38" fill="white"/>
</clipPath>
</defs>
</svg>
