<svg width="71" height="13" viewBox="0 0 71 13" fill="none" xmlns="http://www.w3.org/2000/svg">
<rect width="13" height="13" rx="2" fill="#1BBA86"/>
<path d="M6.5 2L7.51031 5.10942H10.7798L8.13472 7.03115L9.14503 10.1406L6.5 8.21885L3.85497 10.1406L4.86528 7.03115L2.22025 5.10942H5.48969L6.5 2Z" fill="white"/>
<rect x="15" width="13" height="13" rx="2" fill="#1BBA86"/>
<path d="M21.5 2L22.5103 5.10942H25.7798L23.1347 7.03115L24.145 10.1406L21.5 8.21885L18.855 10.1406L19.8653 7.03115L17.2202 5.10942H20.4897L21.5 2Z" fill="white"/>
<rect x="29" width="13" height="13" rx="2" fill="#1BBA86"/>
<path d="M35.5 2L36.5103 5.10942H39.7798L37.1347 7.03115L38.145 10.1406L35.5 8.21885L32.855 10.1406L33.8653 7.03115L31.2202 5.10942H34.4897L35.5 2Z" fill="white"/>
<rect x="43" width="13" height="13" rx="2" fill="#1BBA86"/>
<path d="M49.5 2L50.5103 5.10942H53.7798L51.1347 7.03115L52.145 10.1406L49.5 8.21885L46.855 10.1406L47.8653 7.03115L45.2202 5.10942H48.4897L49.5 2Z" fill="white"/>
<rect x="58" width="13" height="13" rx="2" fill="#1BBA85"/>
<path d="M64.5 2L65.5103 5.10942H68.7798L66.1347 7.03115L67.145 10.1406L64.5 8.21885L61.855 10.1406L62.8653 7.03115L60.2202 5.10942H63.4897L64.5 2Z" fill="white"/>
</svg>
