<svg width="87" height="18" viewBox="0 0 87 18" fill="none" xmlns="http://www.w3.org/2000/svg">
<path d="M8.74997 0L10.7145 6.0461H17.0717L11.9286 9.78279L13.8931 15.8289L8.74997 12.0922L3.60685 15.8289L5.57134 9.78279L0.428225 6.0461H6.78547L8.74997 0Z" fill="#FFBF00"/>
<path d="M26 0L27.9645 6.0461H34.3217L29.1786 9.78279L31.1431 15.8289L26 12.0922L20.8569 15.8289L22.8214 9.78279L17.6783 6.0461H24.0355L26 0Z" fill="#FFBF00"/>
<path d="M41.75 0L43.7145 6.0461H50.0717L44.9286 9.78279L46.8931 15.8289L41.75 12.0922L36.6069 15.8289L38.5714 9.78279L33.4283 6.0461H39.7855L41.75 0Z" fill="#FFBF00"/>
<path d="M59.75 0L61.7145 6.0461H68.0717L62.9286 9.78279L64.8931 15.8289L59.75 12.0922L54.6069 15.8289L56.5714 9.78279L51.4283 6.0461H57.7855L59.75 0Z" fill="#FFBF00"/>
<path d="M77.75 0L79.7145 6.0461H86.0718L80.9286 9.78279L82.8931 15.8289L77.75 12.0922L72.6069 15.8289L74.5714 9.78279L69.4283 6.0461H75.7855L77.75 0Z" fill="#FFBF00"/>
</svg>
