<svg width="66" height="52" viewBox="0 0 66 52" fill="none" xmlns="http://www.w3.org/2000/svg">
<path d="M7 0H58L56 35H10L7 0Z" fill="#FF0000"/>
<path d="M32.9089 52.0001L-5.9549e-05 35L65.8179 35L32.9089 52.0001Z" fill="#FF0000"/>
<mask id="path-3-outside-1_45_357" maskUnits="userSpaceOnUse" x="11" y="6" width="43" height="30" fill="black">
<rect fill="white" x="11" y="6" width="43" height="30"/>
<path d="M17.7134 21.252C16.6214 21.252 15.6764 21.077 14.8784 20.727C14.0944 20.363 13.4294 19.908 12.8834 19.362L14.4794 17.094C14.8854 17.444 15.3124 17.745 15.7604 17.997C16.2224 18.235 16.6914 18.354 17.1674 18.354C17.7974 18.354 18.2804 18.214 18.6164 17.934C18.9664 17.654 19.1414 17.22 19.1414 16.632C19.1414 16.058 18.9734 15.631 18.6374 15.351C18.3014 15.057 17.8674 14.91 17.3354 14.91C16.9854 14.91 16.6914 14.952 16.4534 15.036C16.2154 15.12 15.8934 15.288 15.4874 15.54L13.9334 14.532L14.2694 7.686H22.1654V10.71H17.3774L17.2094 12.642C17.4474 12.558 17.6574 12.502 17.8394 12.474C18.0354 12.446 18.2454 12.432 18.4694 12.432C19.2394 12.432 19.9464 12.579 20.5904 12.873C21.2484 13.167 21.7734 13.622 22.1654 14.238C22.5574 14.84 22.7534 15.61 22.7534 16.548C22.7534 17.542 22.5224 18.389 22.0604 19.089C21.5984 19.789 20.9824 20.328 20.2124 20.706C19.4564 21.07 18.6234 21.252 17.7134 21.252ZM29.4322 21.252C27.9622 21.252 26.7652 20.664 25.8412 19.488C24.9312 18.298 24.4762 16.562 24.4762 14.28C24.4762 11.998 24.9312 10.29 25.8412 9.156C26.7652 8.008 27.9622 7.434 29.4322 7.434C30.9022 7.434 32.0922 8.008 33.0022 9.156C33.9262 10.304 34.3882 12.012 34.3882 14.28C34.3882 16.562 33.9262 18.298 33.0022 19.488C32.0922 20.664 30.9022 21.252 29.4322 21.252ZM29.4322 18.48C29.7122 18.48 29.9712 18.375 30.2092 18.165C30.4472 17.955 30.6362 17.549 30.7762 16.947C30.9162 16.345 30.9862 15.456 30.9862 14.28C30.9862 13.104 30.9162 12.229 30.7762 11.655C30.6362 11.067 30.4472 10.682 30.2092 10.5C29.9712 10.304 29.7122 10.206 29.4322 10.206C29.1522 10.206 28.8932 10.304 28.6552 10.5C28.4172 10.682 28.2282 11.067 28.0882 11.655C27.9482 12.229 27.8782 13.104 27.8782 14.28C27.8782 15.456 27.9482 16.345 28.0882 16.947C28.2282 17.549 28.4172 17.955 28.6552 18.165C28.8932 18.375 29.1522 18.48 29.4322 18.48ZM39.093 15.792C38.421 15.792 37.819 15.617 37.287 15.267C36.755 14.917 36.335 14.42 36.027 13.776C35.719 13.118 35.565 12.334 35.565 11.424C35.565 10.052 35.901 8.988 36.573 8.232C37.245 7.476 38.085 7.098 39.093 7.098C40.101 7.098 40.941 7.476 41.613 8.232C42.285 8.988 42.621 10.052 42.621 11.424C42.621 12.334 42.467 13.118 42.159 13.776C41.851 14.42 41.431 14.917 40.899 15.267C40.367 15.617 39.765 15.792 39.093 15.792ZM39.093 13.818C39.373 13.818 39.618 13.65 39.828 13.314C40.038 12.978 40.143 12.348 40.143 11.424C40.143 10.5 40.038 9.877 39.828 9.555C39.618 9.233 39.373 9.072 39.093 9.072C38.827 9.072 38.582 9.233 38.358 9.555C38.148 9.877 38.043 10.5 38.043 11.424C38.043 12.348 38.148 12.978 38.358 13.314C38.582 13.65 38.827 13.818 39.093 13.818ZM39.597 21.252L46.905 7.098H48.921L41.613 21.252H39.597ZM49.383 21.252C48.711 21.252 48.109 21.077 47.577 20.727C47.045 20.377 46.625 19.88 46.317 19.236C46.009 18.578 45.855 17.794 45.855 16.884C45.855 15.512 46.191 14.448 46.863 13.692C47.535 12.936 48.375 12.558 49.383 12.558C50.391 12.558 51.231 12.936 51.903 13.692C52.575 14.448 52.911 15.512 52.911 16.884C52.911 17.794 52.757 18.578 52.449 19.236C52.141 19.88 51.721 20.377 51.189 20.727C50.657 21.077 50.055 21.252 49.383 21.252ZM49.383 19.278C49.663 19.278 49.908 19.11 50.118 18.774C50.328 18.438 50.433 17.808 50.433 16.884C50.433 15.96 50.328 15.337 50.118 15.015C49.908 14.693 49.663 14.532 49.383 14.532C49.117 14.532 48.872 14.693 48.648 15.015C48.438 15.337 48.333 15.96 48.333 16.884C48.333 17.808 48.438 18.438 48.648 18.774C48.872 19.11 49.117 19.278 49.383 19.278ZM26.4551 34.18C25.5551 34.18 24.7651 33.98 24.0851 33.58C23.4051 33.17 22.8751 32.585 22.4951 31.825C22.1151 31.065 21.9251 30.15 21.9251 29.08C21.9251 28.01 22.1151 27.105 22.4951 26.365C22.8751 25.615 23.4051 25.045 24.0851 24.655C24.7651 24.265 25.5551 24.07 26.4551 24.07C27.3551 24.07 28.1451 24.265 28.8251 24.655C29.5051 25.045 30.0351 25.615 30.4151 26.365C30.7951 27.105 30.9851 28.01 30.9851 29.08C30.9851 30.15 30.7951 31.065 30.4151 31.825C30.0351 32.585 29.5051 33.17 28.8251 33.58C28.1451 33.98 27.3551 34.18 26.4551 34.18ZM26.4551 31.96C27.0451 31.96 27.5051 31.7 27.8351 31.18C28.1751 30.66 28.3451 29.96 28.3451 29.08C28.3451 28.19 28.1751 27.505 27.8351 27.025C27.5051 26.535 27.0451 26.29 26.4551 26.29C25.8751 26.29 25.4151 26.535 25.0751 27.025C24.7351 27.505 24.5651 28.19 24.5651 29.08C24.5651 29.96 24.7351 30.66 25.0751 31.18C25.4151 31.7 25.8751 31.96 26.4551 31.96ZM32.7309 34V24.25H39.0909V26.41H35.3109V28.27H38.5509V30.43H35.3109V34H32.7309ZM40.7729 34V24.25H47.1329V26.41H43.3529V28.27H46.5929V30.43H43.3529V34H40.7729Z"/>
</mask>
<path d="M17.7134 21.252C16.6214 21.252 15.6764 21.077 14.8784 20.727C14.0944 20.363 13.4294 19.908 12.8834 19.362L14.4794 17.094C14.8854 17.444 15.3124 17.745 15.7604 17.997C16.2224 18.235 16.6914 18.354 17.1674 18.354C17.7974 18.354 18.2804 18.214 18.6164 17.934C18.9664 17.654 19.1414 17.22 19.1414 16.632C19.1414 16.058 18.9734 15.631 18.6374 15.351C18.3014 15.057 17.8674 14.91 17.3354 14.91C16.9854 14.91 16.6914 14.952 16.4534 15.036C16.2154 15.12 15.8934 15.288 15.4874 15.54L13.9334 14.532L14.2694 7.686H22.1654V10.71H17.3774L17.2094 12.642C17.4474 12.558 17.6574 12.502 17.8394 12.474C18.0354 12.446 18.2454 12.432 18.4694 12.432C19.2394 12.432 19.9464 12.579 20.5904 12.873C21.2484 13.167 21.7734 13.622 22.1654 14.238C22.5574 14.84 22.7534 15.61 22.7534 16.548C22.7534 17.542 22.5224 18.389 22.0604 19.089C21.5984 19.789 20.9824 20.328 20.2124 20.706C19.4564 21.07 18.6234 21.252 17.7134 21.252ZM29.4322 21.252C27.9622 21.252 26.7652 20.664 25.8412 19.488C24.9312 18.298 24.4762 16.562 24.4762 14.28C24.4762 11.998 24.9312 10.29 25.8412 9.156C26.7652 8.008 27.9622 7.434 29.4322 7.434C30.9022 7.434 32.0922 8.008 33.0022 9.156C33.9262 10.304 34.3882 12.012 34.3882 14.28C34.3882 16.562 33.9262 18.298 33.0022 19.488C32.0922 20.664 30.9022 21.252 29.4322 21.252ZM29.4322 18.48C29.7122 18.48 29.9712 18.375 30.2092 18.165C30.4472 17.955 30.6362 17.549 30.7762 16.947C30.9162 16.345 30.9862 15.456 30.9862 14.28C30.9862 13.104 30.9162 12.229 30.7762 11.655C30.6362 11.067 30.4472 10.682 30.2092 10.5C29.9712 10.304 29.7122 10.206 29.4322 10.206C29.1522 10.206 28.8932 10.304 28.6552 10.5C28.4172 10.682 28.2282 11.067 28.0882 11.655C27.9482 12.229 27.8782 13.104 27.8782 14.28C27.8782 15.456 27.9482 16.345 28.0882 16.947C28.2282 17.549 28.4172 17.955 28.6552 18.165C28.8932 18.375 29.1522 18.48 29.4322 18.48ZM39.093 15.792C38.421 15.792 37.819 15.617 37.287 15.267C36.755 14.917 36.335 14.42 36.027 13.776C35.719 13.118 35.565 12.334 35.565 11.424C35.565 10.052 35.901 8.988 36.573 8.232C37.245 7.476 38.085 7.098 39.093 7.098C40.101 7.098 40.941 7.476 41.613 8.232C42.285 8.988 42.621 10.052 42.621 11.424C42.621 12.334 42.467 13.118 42.159 13.776C41.851 14.42 41.431 14.917 40.899 15.267C40.367 15.617 39.765 15.792 39.093 15.792ZM39.093 13.818C39.373 13.818 39.618 13.65 39.828 13.314C40.038 12.978 40.143 12.348 40.143 11.424C40.143 10.5 40.038 9.877 39.828 9.555C39.618 9.233 39.373 9.072 39.093 9.072C38.827 9.072 38.582 9.233 38.358 9.555C38.148 9.877 38.043 10.5 38.043 11.424C38.043 12.348 38.148 12.978 38.358 13.314C38.582 13.65 38.827 13.818 39.093 13.818ZM39.597 21.252L46.905 7.098H48.921L41.613 21.252H39.597ZM49.383 21.252C48.711 21.252 48.109 21.077 47.577 20.727C47.045 20.377 46.625 19.88 46.317 19.236C46.009 18.578 45.855 17.794 45.855 16.884C45.855 15.512 46.191 14.448 46.863 13.692C47.535 12.936 48.375 12.558 49.383 12.558C50.391 12.558 51.231 12.936 51.903 13.692C52.575 14.448 52.911 15.512 52.911 16.884C52.911 17.794 52.757 18.578 52.449 19.236C52.141 19.88 51.721 20.377 51.189 20.727C50.657 21.077 50.055 21.252 49.383 21.252ZM49.383 19.278C49.663 19.278 49.908 19.11 50.118 18.774C50.328 18.438 50.433 17.808 50.433 16.884C50.433 15.96 50.328 15.337 50.118 15.015C49.908 14.693 49.663 14.532 49.383 14.532C49.117 14.532 48.872 14.693 48.648 15.015C48.438 15.337 48.333 15.96 48.333 16.884C48.333 17.808 48.438 18.438 48.648 18.774C48.872 19.11 49.117 19.278 49.383 19.278ZM26.4551 34.18C25.5551 34.18 24.7651 33.98 24.0851 33.58C23.4051 33.17 22.8751 32.585 22.4951 31.825C22.1151 31.065 21.9251 30.15 21.9251 29.08C21.9251 28.01 22.1151 27.105 22.4951 26.365C22.8751 25.615 23.4051 25.045 24.0851 24.655C24.7651 24.265 25.5551 24.07 26.4551 24.07C27.3551 24.07 28.1451 24.265 28.8251 24.655C29.5051 25.045 30.0351 25.615 30.4151 26.365C30.7951 27.105 30.9851 28.01 30.9851 29.08C30.9851 30.15 30.7951 31.065 30.4151 31.825C30.0351 32.585 29.5051 33.17 28.8251 33.58C28.1451 33.98 27.3551 34.18 26.4551 34.18ZM26.4551 31.96C27.0451 31.96 27.5051 31.7 27.8351 31.18C28.1751 30.66 28.3451 29.96 28.3451 29.08C28.3451 28.19 28.1751 27.505 27.8351 27.025C27.5051 26.535 27.0451 26.29 26.4551 26.29C25.8751 26.29 25.4151 26.535 25.0751 27.025C24.7351 27.505 24.5651 28.19 24.5651 29.08C24.5651 29.96 24.7351 30.66 25.0751 31.18C25.4151 31.7 25.8751 31.96 26.4551 31.96ZM32.7309 34V24.25H39.0909V26.41H35.3109V28.27H38.5509V30.43H35.3109V34H32.7309ZM40.7729 34V24.25H47.1329V26.41H43.3529V28.27H46.5929V30.43H43.3529V34H40.7729Z" fill="white"/>
<path d="M14.8784 20.727L14.4573 21.634L14.467 21.6385L14.4767 21.6428L14.8784 20.727ZM12.8834 19.362L12.0656 18.7865L11.5815 19.4744L12.1763 20.0691L12.8834 19.362ZM14.4794 17.094L15.1323 16.3366L14.2966 15.6161L13.6616 16.5185L14.4794 17.094ZM15.7604 17.997L15.2701 18.8686L15.2861 18.8776L15.3024 18.886L15.7604 17.997ZM18.6164 17.934L17.9917 17.1531L17.9839 17.1594L17.9762 17.1658L18.6164 17.934ZM18.6374 15.351L17.9789 16.1036L17.9879 16.1115L17.9972 16.1192L18.6374 15.351ZM16.4534 15.036L16.7862 15.979H16.7862L16.4534 15.036ZM15.4874 15.54L14.9432 16.379L15.4756 16.7243L16.0148 16.3896L15.4874 15.54ZM13.9334 14.532L12.9346 14.483L12.9064 15.0578L13.3892 15.371L13.9334 14.532ZM14.2694 7.686V6.686H13.3173L13.2706 7.63698L14.2694 7.686ZM22.1654 7.686H23.1654V6.686H22.1654V7.686ZM22.1654 10.71V11.71H23.1654V10.71H22.1654ZM17.3774 10.71V9.71H16.4606L16.3811 10.6234L17.3774 10.71ZM17.2094 12.642L16.2131 12.5554L16.0787 14.1015L17.5422 13.585L17.2094 12.642ZM17.8394 12.474L17.698 11.484L17.6873 11.4856L17.8394 12.474ZM20.5904 12.873L20.1751 13.7827L20.1824 13.786L20.5904 12.873ZM22.1654 14.238L21.3217 14.7749L21.3274 14.7837L22.1654 14.238ZM22.0604 19.089L21.2258 18.5382V18.5382L22.0604 19.089ZM20.2124 20.706L20.6462 21.607L20.6531 21.6037L20.2124 20.706ZM17.7134 21.252V20.252C16.7258 20.252 15.9237 20.0935 15.28 19.8112L14.8784 20.727L14.4767 21.6428C15.4291 22.0605 16.517 22.252 17.7134 22.252V21.252ZM14.8784 20.727L15.2995 19.82C14.6092 19.4995 14.0443 19.1087 13.5905 18.6549L12.8834 19.362L12.1763 20.0691C12.8145 20.7073 13.5796 21.2265 14.4573 21.634L14.8784 20.727ZM12.8834 19.362L13.7012 19.9375L15.2972 17.6695L14.4794 17.094L13.6616 16.5185L12.0656 18.7865L12.8834 19.362ZM14.4794 17.094L13.8264 17.8514C14.2806 18.2429 14.7618 18.5827 15.2701 18.8686L15.7604 17.997L16.2506 17.1254C15.863 16.9073 15.4902 16.6451 15.1323 16.3366L14.4794 17.094ZM15.7604 17.997L15.3024 18.886C15.8928 19.1901 16.5178 19.354 17.1674 19.354V18.354V17.354C16.865 17.354 16.552 17.2799 16.2183 17.108L15.7604 17.997ZM17.1674 18.354V19.354C17.9305 19.354 18.6762 19.1858 19.2566 18.7022L18.6164 17.934L17.9762 17.1658C17.8845 17.2422 17.6642 17.354 17.1674 17.354V18.354ZM18.6164 17.934L19.2411 18.7149C19.898 18.1893 20.1414 17.4216 20.1414 16.632H19.1414H18.1414C18.1414 17.0184 18.0348 17.1187 17.9917 17.1531L18.6164 17.934ZM19.1414 16.632H20.1414C20.1414 15.8605 19.9082 15.1083 19.2776 14.5828L18.6374 15.351L17.9972 16.1192C18.0386 16.1537 18.1414 16.2555 18.1414 16.632H19.1414ZM18.6374 15.351L19.2959 14.5984C18.7439 14.1155 18.0608 13.91 17.3354 13.91V14.91V15.91C17.674 15.91 17.8588 15.9985 17.9789 16.1036L18.6374 15.351ZM17.3354 14.91V13.91C16.9126 13.91 16.498 13.9598 16.1206 14.093L16.4534 15.036L16.7862 15.979C16.8848 15.9442 17.0582 15.91 17.3354 15.91V14.91ZM16.4534 15.036L16.1206 14.093C15.7787 14.2137 15.3833 14.4277 14.96 14.6904L15.4874 15.54L16.0148 16.3896C16.4035 16.1483 16.652 16.0263 16.7862 15.979L16.4534 15.036ZM15.4874 15.54L16.0316 14.701L14.4776 13.693L13.9334 14.532L13.3892 15.371L14.9432 16.379L15.4874 15.54ZM13.9334 14.532L14.9322 14.581L15.2682 7.73502L14.2694 7.686L13.2706 7.63698L12.9346 14.483L13.9334 14.532ZM14.2694 7.686V8.686H22.1654V7.686V6.686H14.2694V7.686ZM22.1654 7.686H21.1654V10.71H22.1654H23.1654V7.686H22.1654ZM22.1654 10.71V9.71H17.3774V10.71V11.71H22.1654V10.71ZM17.3774 10.71L16.3811 10.6234L16.2131 12.5554L17.2094 12.642L18.2056 12.7286L18.3736 10.7966L17.3774 10.71ZM17.2094 12.642L17.5422 13.585C17.7414 13.5147 17.8888 13.4782 17.9914 13.4624L17.8394 12.474L17.6873 11.4856C17.4259 11.5258 17.1534 11.6013 16.8766 11.699L17.2094 12.642ZM17.8394 12.474L17.9808 13.4639C18.1243 13.4434 18.2867 13.432 18.4694 13.432V12.432V11.432C18.2041 11.432 17.9464 11.4486 17.698 11.484L17.8394 12.474ZM18.4694 12.432V13.432C19.1088 13.432 19.6726 13.5533 20.1751 13.7827L20.5904 12.873L21.0057 11.9633C20.2202 11.6047 19.37 11.432 18.4694 11.432V12.432ZM20.5904 12.873L20.1824 13.786C20.659 13.9989 21.0335 14.3219 21.3217 14.7749L22.1654 14.238L23.009 13.7011C22.5133 12.9221 21.8378 12.3351 20.9983 11.96L20.5904 12.873ZM22.1654 14.238L21.3274 14.7837C21.5858 15.1805 21.7534 15.7454 21.7534 16.548H22.7534H23.7534C23.7534 15.4746 23.529 14.4995 23.0034 13.6923L22.1654 14.238ZM22.7534 16.548H21.7534C21.7534 17.3831 21.5612 18.0299 21.2258 18.5382L22.0604 19.089L22.895 19.6398C23.4836 18.7481 23.7534 17.7009 23.7534 16.548H22.7534ZM22.0604 19.089L21.2258 18.5382C20.8642 19.086 20.3857 19.5069 19.7717 19.8083L20.2124 20.706L20.6531 21.6037C21.5791 21.1491 22.3326 20.492 22.895 19.6398L22.0604 19.089ZM20.2124 20.706L19.7786 19.805C19.1691 20.0985 18.4861 20.252 17.7134 20.252V21.252V22.252C18.7607 22.252 19.7437 22.0415 20.6462 21.607L20.2124 20.706ZM25.8412 19.488L25.0468 20.0955L25.0549 20.1058L25.8412 19.488ZM25.8412 9.156L25.0622 8.52899L25.0613 8.53013L25.8412 9.156ZM33.0022 9.156L32.2185 9.77721L32.2232 9.78301L33.0022 9.156ZM33.0022 19.488L32.2124 18.8747L32.2113 18.876L33.0022 19.488ZM30.7762 16.947L31.7502 17.1735V17.1735L30.7762 16.947ZM30.7762 11.655L29.8034 11.8866L29.8047 11.892L30.7762 11.655ZM30.2092 10.5L29.5735 11.2719L29.5874 11.2834L29.6018 11.2944L30.2092 10.5ZM28.6552 10.5L29.2627 11.2944L29.277 11.2834L29.2909 11.2719L28.6552 10.5ZM28.0882 11.655L29.0597 11.892L29.061 11.8866L28.0882 11.655ZM28.0882 16.947L29.0622 16.7205V16.7205L28.0882 16.947ZM28.6552 18.165L29.3168 17.4152V17.4152L28.6552 18.165ZM29.4322 21.252V20.252C28.2753 20.252 27.3658 19.8098 26.6275 18.8702L25.8412 19.488L25.0549 20.1058C26.1646 21.5182 27.6492 22.252 29.4322 22.252V21.252ZM25.8412 19.488L26.6356 18.8805C25.9126 17.9352 25.4762 16.4512 25.4762 14.28H24.4762H23.4762C23.4762 16.6728 23.9498 18.6608 25.0468 20.0955L25.8412 19.488ZM24.4762 14.28H25.4762C25.4762 12.1036 25.9147 10.6622 26.6211 9.78187L25.8412 9.156L25.0613 8.53013C23.9477 9.9178 23.4762 11.8924 23.4762 14.28H24.4762ZM25.8412 9.156L26.6202 9.78301C27.3549 8.87016 28.2658 8.434 29.4322 8.434V7.434V6.434C27.6586 6.434 26.1755 7.14584 25.0622 8.52899L25.8412 9.156ZM29.4322 7.434V8.434C30.5981 8.434 31.499 8.86945 32.2185 9.77719L33.0022 9.156L33.7859 8.53481C32.6854 7.14654 31.2063 6.434 29.4322 6.434V7.434ZM33.0022 9.156L32.2232 9.78301C32.9451 10.6799 33.3882 12.1234 33.3882 14.28H34.3882H35.3882C35.3882 11.9006 34.9074 9.92814 33.7812 8.52899L33.0022 9.156ZM34.3882 14.28H33.3882C33.3882 16.4486 32.9459 17.93 32.2124 18.8747L33.0022 19.488L33.7921 20.1013C34.9066 18.666 35.3882 16.6754 35.3882 14.28H34.3882ZM33.0022 19.488L32.2113 18.876C31.4882 19.8106 30.5886 20.252 29.4322 20.252V21.252V22.252C31.2158 22.252 32.6963 21.5174 33.7931 20.1L33.0022 19.488ZM29.4322 18.48V19.48C29.9885 19.48 30.4762 19.263 30.8708 18.9148L30.2092 18.165L29.5476 17.4152C29.5019 17.4555 29.4725 17.4698 29.4608 17.4745C29.4508 17.4785 29.4437 17.48 29.4322 17.48V18.48ZM30.2092 18.165L30.8708 18.9148C31.355 18.4876 31.6007 17.8164 31.7502 17.1735L30.7762 16.947L29.8022 16.7205C29.7424 16.9776 29.6796 17.1592 29.6229 17.281C29.5643 17.4067 29.5299 17.4307 29.5476 17.4152L30.2092 18.165ZM30.7762 16.947L31.7502 17.1735C31.9166 16.4579 31.9862 15.4769 31.9862 14.28H30.9862H29.9862C29.9862 15.4351 29.9158 16.2321 29.8022 16.7205L30.7762 16.947ZM30.9862 14.28H31.9862C31.9862 13.0864 31.9172 12.1129 31.7477 11.418L30.7762 11.655L29.8047 11.892C29.9152 12.3451 29.9862 13.1216 29.9862 14.28H30.9862ZM30.7762 11.655L31.749 11.4234C31.6013 10.803 31.3491 10.1128 30.8167 9.70564L30.2092 10.5L29.6018 11.2944C29.5567 11.2599 29.578 11.2564 29.6318 11.3659C29.6833 11.4708 29.7442 11.638 29.8034 11.8866L30.7762 11.655ZM30.2092 10.5L30.8449 9.72807C30.4472 9.40055 29.968 9.206 29.4322 9.206V10.206V11.206C29.4564 11.206 29.4952 11.2075 29.5735 11.2719L30.2092 10.5ZM29.4322 10.206V9.206C28.8964 9.206 28.4172 9.40055 28.0195 9.72807L28.6552 10.5L29.2909 11.2719C29.3692 11.2075 29.408 11.206 29.4322 11.206V10.206ZM28.6552 10.5L28.0478 9.70564C27.5153 10.1128 27.2631 10.803 27.1154 11.4234L28.0882 11.655L29.061 11.8866C29.1202 11.638 29.1811 11.4708 29.2326 11.3659C29.2864 11.2564 29.3077 11.2599 29.2627 11.2944L28.6552 10.5ZM28.0882 11.655L27.1167 11.418C26.9472 12.1129 26.8782 13.0864 26.8782 14.28H27.8782H28.8782C28.8782 13.1216 28.9492 12.3451 29.0597 11.892L28.0882 11.655ZM27.8782 14.28H26.8782C26.8782 15.4769 26.9478 16.4579 27.1142 17.1735L28.0882 16.947L29.0622 16.7205C28.9486 16.2321 28.8782 15.4351 28.8782 14.28H27.8782ZM28.0882 16.947L27.1142 17.1735C27.2637 17.8164 27.5094 18.4876 27.9936 18.9148L28.6552 18.165L29.3168 17.4152C29.3345 17.4307 29.3001 17.4067 29.2415 17.281C29.1849 17.1592 29.122 16.9776 29.0622 16.7205L28.0882 16.947ZM28.6552 18.165L27.9936 18.9148C28.3882 19.263 28.8759 19.48 29.4322 19.48V18.48V17.48C29.4207 17.48 29.4136 17.4785 29.4037 17.4745C29.3919 17.4698 29.3625 17.4555 29.3168 17.4152L28.6552 18.165ZM37.287 15.267L36.7374 16.1024V16.1024L37.287 15.267ZM36.027 13.776L35.1213 14.2L35.1249 14.2075L36.027 13.776ZM36.573 8.232L35.8256 7.56764V7.56764L36.573 8.232ZM41.613 8.232L40.8656 8.89636V8.89636L41.613 8.232ZM42.159 13.776L43.0612 14.2075L43.0647 14.1999L42.159 13.776ZM40.899 15.267L41.4486 16.1024V16.1024L40.899 15.267ZM39.828 13.314L38.98 12.784V12.784L39.828 13.314ZM38.358 9.555L37.5371 8.98394L37.5286 8.99621L37.5204 9.00873L38.358 9.555ZM38.358 13.314L37.51 13.844L37.5178 13.8565L37.526 13.8687L38.358 13.314ZM39.597 21.252L38.7085 20.7932L37.9553 22.252H39.597V21.252ZM46.905 7.098V6.098H46.2959L46.0165 6.63922L46.905 7.098ZM48.921 7.098L49.8096 7.55678L50.5628 6.098H48.921V7.098ZM41.613 21.252V22.252H42.2221L42.5016 21.7108L41.613 21.252ZM47.577 20.727L47.0274 21.5624V21.5624L47.577 20.727ZM46.317 19.236L45.4113 19.66L45.4149 19.6675L46.317 19.236ZM46.863 13.692L46.1156 13.0276L46.1156 13.0276L46.863 13.692ZM51.903 13.692L51.1556 14.3564V14.3564L51.903 13.692ZM52.449 19.236L53.3512 19.6675L53.3547 19.6599L52.449 19.236ZM51.189 20.727L51.7386 21.5624V21.5624L51.189 20.727ZM48.648 15.015L47.8271 14.4439L47.8186 14.4562L47.8104 14.4687L48.648 15.015ZM48.648 18.774L47.8 19.304L47.8078 19.3165L47.816 19.3287L48.648 18.774ZM39.093 15.792V14.792C38.605 14.792 38.1962 14.6681 37.8366 14.4316L37.287 15.267L36.7374 16.1024C37.4418 16.5659 38.237 16.792 39.093 16.792V15.792ZM37.287 15.267L37.8366 14.4316C37.4746 14.1934 37.1684 13.8447 36.9292 13.3445L36.027 13.776L35.1249 14.2075C35.5017 14.9953 36.0355 15.6406 36.7374 16.1024L37.287 15.267ZM36.027 13.776L36.9327 13.3521C36.7005 12.8559 36.565 12.2235 36.565 11.424H35.565H34.565C34.565 12.4445 34.7376 13.3801 35.1213 14.1999L36.027 13.776ZM35.565 11.424H36.565C36.565 10.2088 36.8614 9.41273 37.3204 8.89636L36.573 8.232L35.8256 7.56764C34.9406 8.56327 34.565 9.89517 34.565 11.424H35.565ZM36.573 8.232L37.3204 8.89636C37.8034 8.353 38.3718 8.098 39.093 8.098V7.098V6.098C37.7983 6.098 36.6866 6.599 35.8256 7.56764L36.573 8.232ZM39.093 7.098V8.098C39.8143 8.098 40.3826 8.353 40.8656 8.89636L41.613 8.232L42.3604 7.56764C41.4994 6.599 40.3878 6.098 39.093 6.098V7.098ZM41.613 8.232L40.8656 8.89636C41.3246 9.41273 41.621 10.2088 41.621 11.424H42.621H43.621C43.621 9.89517 43.2454 8.56327 42.3604 7.56764L41.613 8.232ZM42.621 11.424H41.621C41.621 12.2235 41.4856 12.8559 41.2533 13.3521L42.159 13.776L43.0647 14.1999C43.4485 13.3801 43.621 12.4445 43.621 11.424H42.621ZM42.159 13.776L41.2569 13.3445C41.0177 13.8447 40.7115 14.1934 40.3494 14.4316L40.899 15.267L41.4486 16.1024C42.1506 15.6406 42.6844 14.9953 43.0612 14.2075L42.159 13.776ZM40.899 15.267L40.3494 14.4316C39.9898 14.6681 39.581 14.792 39.093 14.792V15.792V16.792C39.949 16.792 40.7442 16.5659 41.4486 16.1024L40.899 15.267ZM39.093 13.818V14.818C39.85 14.818 40.3665 14.3393 40.676 13.844L39.828 13.314L38.98 12.784C38.9249 12.8723 38.8992 12.8824 38.9212 12.8673C38.934 12.8585 38.9577 12.8449 38.9917 12.8341C39.0262 12.823 39.0613 12.818 39.093 12.818V13.818ZM39.828 13.314L40.676 13.844C40.8804 13.5169 40.9882 13.1288 41.0507 12.7539C41.1152 12.3664 41.143 11.919 41.143 11.424H40.143H39.143C39.143 11.853 39.1183 12.1826 39.0779 12.4251C39.0579 12.5452 39.0356 12.634 39.0151 12.6969C38.9942 12.7609 38.9794 12.785 38.98 12.784L39.828 13.314ZM40.143 11.424H41.143C41.143 10.9293 41.1153 10.4828 41.0504 10.0976C40.9879 9.72682 40.8788 9.33564 40.6656 9.00873L39.828 9.555L38.9904 10.1013C38.9872 10.0964 39.0357 10.1777 39.0782 10.4299C39.1183 10.6677 39.143 10.9947 39.143 11.424H40.143ZM39.828 9.555L40.6656 9.00873C40.3468 8.51987 39.8295 8.072 39.093 8.072V9.072V10.072C39.0656 10.072 39.0345 10.0678 39.0033 10.0582C38.9724 10.0488 38.9502 10.0367 38.9376 10.0285C38.9152 10.0138 38.9383 10.0214 38.9904 10.1013L39.828 9.555ZM39.093 9.072V8.072C38.364 8.072 37.8542 8.52814 37.5371 8.98394L38.358 9.555L39.1789 10.1261C39.2088 10.0831 39.2322 10.056 39.2474 10.0403C39.2625 10.0248 39.2669 10.0232 39.259 10.0285C39.2504 10.0341 39.2299 10.0459 39.198 10.056C39.1653 10.0663 39.1292 10.072 39.093 10.072V9.072ZM38.358 9.555L37.5204 9.00873C37.3072 9.33564 37.1982 9.72682 37.1357 10.0976C37.0708 10.4828 37.043 10.9293 37.043 11.424H38.043H39.043C39.043 10.9947 39.0678 10.6677 39.1079 10.4299C39.1504 10.1777 39.1988 10.0964 39.1956 10.1013L38.358 9.555ZM38.043 11.424H37.043C37.043 11.919 37.0708 12.3664 37.1354 12.7539C37.1979 13.1288 37.3056 13.5169 37.51 13.844L38.358 13.314L39.206 12.784C39.2067 12.785 39.1918 12.7609 39.1709 12.6969C39.1504 12.634 39.1282 12.5452 39.1082 12.4251C39.0677 12.1826 39.043 11.853 39.043 11.424H38.043ZM38.358 13.314L37.526 13.8687C37.8342 14.331 38.3441 14.818 39.093 14.818V13.818V12.818C39.1338 12.818 39.174 12.8248 39.2098 12.8365C39.2447 12.848 39.2666 12.8613 39.2753 12.8673C39.2833 12.8728 39.2783 12.8707 39.262 12.8533C39.2457 12.8357 39.2212 12.806 39.1901 12.7593L38.358 13.314ZM39.597 21.252L40.4856 21.7108L47.7936 7.55678L46.905 7.098L46.0165 6.63922L38.7085 20.7932L39.597 21.252ZM46.905 7.098V8.098H48.921V7.098V6.098H46.905V7.098ZM48.921 7.098L48.0325 6.63922L40.7245 20.7932L41.613 21.252L42.5016 21.7108L49.8096 7.55678L48.921 7.098ZM41.613 21.252V20.252H39.597V21.252V22.252H41.613V21.252ZM49.383 21.252V20.252C48.895 20.252 48.4862 20.1281 48.1266 19.8916L47.577 20.727L47.0274 21.5624C47.7318 22.0259 48.527 22.252 49.383 22.252V21.252ZM47.577 20.727L48.1266 19.8916C47.7646 19.6534 47.4584 19.3047 47.2192 18.8045L46.317 19.236L45.4149 19.6675C45.7917 20.4553 46.3255 21.1006 47.0274 21.5624L47.577 20.727ZM46.317 19.236L47.2227 18.8121C46.9905 18.3159 46.855 17.6835 46.855 16.884H45.855H44.855C44.855 17.9045 45.0276 18.8401 45.4113 19.6599L46.317 19.236ZM45.855 16.884H46.855C46.855 15.6688 47.1514 14.8727 47.6104 14.3564L46.863 13.692L46.1156 13.0276C45.2306 14.0233 44.855 15.3552 44.855 16.884H45.855ZM46.863 13.692L47.6104 14.3564C48.0934 13.813 48.6618 13.558 49.383 13.558V12.558V11.558C48.0883 11.558 46.9766 12.059 46.1156 13.0276L46.863 13.692ZM49.383 12.558V13.558C50.1043 13.558 50.6726 13.813 51.1556 14.3564L51.903 13.692L52.6504 13.0276C51.7894 12.059 50.6778 11.558 49.383 11.558V12.558ZM51.903 13.692L51.1556 14.3564C51.6146 14.8727 51.911 15.6688 51.911 16.884H52.911H53.911C53.911 15.3552 53.5354 14.0233 52.6504 13.0276L51.903 13.692ZM52.911 16.884H51.911C51.911 17.6835 51.7756 18.3159 51.5433 18.8121L52.449 19.236L53.3547 19.6599C53.7385 18.8401 53.911 17.9045 53.911 16.884H52.911ZM52.449 19.236L51.5469 18.8045C51.3077 19.3047 51.0015 19.6534 50.6394 19.8916L51.189 20.727L51.7386 21.5624C52.4406 21.1006 52.9744 20.4553 53.3512 19.6675L52.449 19.236ZM51.189 20.727L50.6394 19.8916C50.2798 20.1281 49.871 20.252 49.383 20.252V21.252V22.252C50.239 22.252 51.0342 22.0259 51.7386 21.5624L51.189 20.727ZM49.383 19.278V20.278C50.14 20.278 50.6565 19.7993 50.966 19.304L50.118 18.774L49.27 18.244C49.2149 18.3323 49.1892 18.3424 49.2113 18.3273C49.224 18.3185 49.2477 18.3049 49.2817 18.2941C49.3162 18.283 49.3513 18.278 49.383 18.278V19.278ZM50.118 18.774L50.966 19.304C51.1704 18.9769 51.2782 18.5888 51.3407 18.2139C51.4052 17.8264 51.433 17.379 51.433 16.884H50.433H49.433C49.433 17.313 49.4083 17.6426 49.3679 17.8851C49.3479 18.0052 49.3256 18.094 49.3051 18.1569C49.2842 18.2209 49.2694 18.245 49.27 18.244L50.118 18.774ZM50.433 16.884H51.433C51.433 16.3893 51.4053 15.9428 51.3404 15.5576C51.2779 15.1868 51.1688 14.7956 50.9556 14.4687L50.118 15.015L49.2804 15.5613C49.2772 15.5564 49.3257 15.6377 49.3682 15.8899C49.4083 16.1277 49.433 16.4547 49.433 16.884H50.433ZM50.118 15.015L50.9556 14.4687C50.6368 13.9799 50.1195 13.532 49.383 13.532V14.532V15.532C49.3556 15.532 49.3245 15.5278 49.2933 15.5182C49.2624 15.5088 49.2402 15.4967 49.2276 15.4885C49.2052 15.4738 49.2283 15.4814 49.2804 15.5613L50.118 15.015ZM49.383 14.532V13.532C48.654 13.532 48.1442 13.9881 47.8271 14.4439L48.648 15.015L49.4689 15.5861C49.4989 15.5431 49.5222 15.516 49.5374 15.5003C49.5525 15.4848 49.5569 15.4832 49.549 15.4885C49.5404 15.4941 49.5199 15.5059 49.488 15.516C49.4553 15.5263 49.4192 15.532 49.383 15.532V14.532ZM48.648 15.015L47.8104 14.4687C47.5972 14.7956 47.4882 15.1868 47.4257 15.5576C47.3608 15.9428 47.333 16.3893 47.333 16.884H48.333H49.333C49.333 16.4547 49.3578 16.1277 49.3979 15.8899C49.4404 15.6377 49.4888 15.5564 49.4856 15.5613L48.648 15.015ZM48.333 16.884H47.333C47.333 17.379 47.3608 17.8264 47.4254 18.2139C47.4879 18.5888 47.5956 18.9769 47.8 19.304L48.648 18.774L49.496 18.244C49.4967 18.245 49.4818 18.2209 49.4609 18.1569C49.4404 18.094 49.4182 18.0052 49.3982 17.8851C49.3577 17.6426 49.333 17.313 49.333 16.884H48.333ZM48.648 18.774L47.816 19.3287C48.1242 19.791 48.6341 20.278 49.383 20.278V19.278V18.278C49.4238 18.278 49.464 18.2848 49.4998 18.2965C49.5347 18.308 49.5566 18.3213 49.5653 18.3273C49.5733 18.3328 49.5683 18.3307 49.552 18.3133C49.5357 18.2957 49.5112 18.266 49.4801 18.2193L48.648 18.774ZM24.0851 33.58L23.5688 34.4364L23.5781 34.4419L24.0851 33.58ZM22.4951 31.825L21.6007 32.2722V32.2722L22.4951 31.825ZM22.4951 26.365L23.3847 26.8218L23.3872 26.817L22.4951 26.365ZM24.0851 24.655L24.5826 25.5225V25.5225L24.0851 24.655ZM28.8251 24.655L28.3276 25.5225V25.5225L28.8251 24.655ZM30.4151 26.365L29.5231 26.817L29.5256 26.8218L30.4151 26.365ZM28.8251 33.58L29.3322 34.442L29.3415 34.4364L28.8251 33.58ZM27.8351 31.18L26.9981 30.6327L26.9908 30.6442L27.8351 31.18ZM27.8351 27.025L27.0057 27.5836L27.0123 27.5934L27.0191 27.603L27.8351 27.025ZM25.0751 27.025L25.8912 27.603L25.8967 27.5951L25.0751 27.025ZM25.0751 31.18L24.2382 31.7272V31.7272L25.0751 31.18ZM26.4551 34.18V33.18C25.7079 33.18 25.0979 33.0155 24.5922 32.7181L24.0851 33.58L23.5781 34.4419C24.4324 34.9445 25.4024 35.18 26.4551 35.18V34.18ZM24.0851 33.58L24.6015 32.7236C24.0952 32.4184 23.691 31.9807 23.3896 31.3778L22.4951 31.825L21.6007 32.2722C22.0592 33.1893 22.7151 33.9216 23.5688 34.4364L24.0851 33.58ZM22.4951 31.825L23.3896 31.3778C23.0946 30.7879 22.9251 30.034 22.9251 29.08H21.9251H20.9251C20.9251 30.266 21.1356 31.3421 21.6007 32.2722L22.4951 31.825ZM21.9251 29.08H22.9251C22.9251 28.1248 23.0951 27.3859 23.3847 26.8218L22.4951 26.365L21.6056 25.9082C21.1352 26.8241 20.9251 27.8952 20.9251 29.08H21.9251ZM22.4951 26.365L23.3872 26.817C23.6857 26.2278 24.0843 25.8083 24.5826 25.5225L24.0851 24.655L23.5876 23.7875C22.726 24.2817 22.0646 25.0022 21.6031 25.913L22.4951 26.365ZM24.0851 24.655L24.5826 25.5225C25.09 25.2315 25.7035 25.07 26.4551 25.07V24.07V23.07C25.4068 23.07 24.4403 23.2985 23.5876 23.7875L24.0851 24.655ZM26.4551 24.07V25.07C27.2068 25.07 27.8203 25.2315 28.3276 25.5225L28.8251 24.655L29.3226 23.7875C28.47 23.2985 27.5035 23.07 26.4551 23.07V24.07ZM28.8251 24.655L28.3276 25.5225C28.826 25.8083 29.2246 26.2278 29.5231 26.817L30.4151 26.365L31.3072 25.913C30.8457 25.0022 30.1843 24.2817 29.3226 23.7875L28.8251 24.655ZM30.4151 26.365L29.5256 26.8218C29.8152 27.3859 29.9851 28.1248 29.9851 29.08H30.9851H31.9851C31.9851 27.8952 31.7751 26.8241 31.3047 25.9082L30.4151 26.365ZM30.9851 29.08H29.9851C29.9851 30.034 29.8156 30.7879 29.5207 31.3778L30.4151 31.825L31.3096 32.2722C31.7746 31.3421 31.9851 30.266 31.9851 29.08H30.9851ZM30.4151 31.825L29.5207 31.3778C29.2192 31.9807 28.8151 32.4184 28.3088 32.7236L28.8251 33.58L29.3415 34.4364C30.1952 33.9216 30.851 33.1893 31.3096 32.2722L30.4151 31.825ZM28.8251 33.58L28.3181 32.7181C27.8124 33.0155 27.2024 33.18 26.4551 33.18V34.18V35.18C27.5079 35.18 28.4779 34.9445 29.3322 34.4419L28.8251 33.58ZM26.4551 31.96V32.96C27.4052 32.96 28.1758 32.5096 28.6795 31.7158L27.8351 31.18L26.9908 30.6442C26.8345 30.8904 26.685 30.96 26.4551 30.96V31.96ZM27.8351 31.18L28.6721 31.7272C29.1542 30.99 29.3451 30.0769 29.3451 29.08H28.3451H27.3451C27.3451 29.8431 27.1961 30.33 26.9982 30.6328L27.8351 31.18ZM28.3451 29.08H29.3451C29.3451 28.0829 29.1579 27.1624 28.6512 26.447L27.8351 27.025L27.0191 27.603C27.1923 27.8476 27.3451 28.2971 27.3451 29.08H28.3451ZM27.8351 27.025L28.6646 26.4664C28.149 25.7009 27.3783 25.29 26.4551 25.29V26.29V27.29C26.7119 27.29 26.8613 27.3691 27.0057 27.5836L27.8351 27.025ZM26.4551 26.29V25.29C25.5365 25.29 24.7741 25.7047 24.2535 26.4549L25.0751 27.025L25.8967 27.5951C26.0562 27.3653 26.2138 27.29 26.4551 27.29V26.29ZM25.0751 27.025L24.2591 26.447C23.7523 27.1624 23.5651 28.0829 23.5651 29.08H24.5651H25.5651C25.5651 28.2971 25.7179 27.8476 25.8912 27.603L25.0751 27.025ZM24.5651 29.08H23.5651C23.5651 30.0769 23.7561 30.99 24.2382 31.7272L25.0751 31.18L25.9121 30.6328C25.7142 30.33 25.5651 29.8431 25.5651 29.08H24.5651ZM25.0751 31.18L24.2382 31.7272C24.7472 32.5058 25.5099 32.96 26.4551 32.96V31.96V30.96C26.2404 30.96 26.0831 30.8942 25.9121 30.6328L25.0751 31.18ZM32.7309 34H31.7309V35H32.7309V34ZM32.7309 24.25V23.25H31.7309V24.25H32.7309ZM39.0909 24.25H40.0909V23.25H39.0909V24.25ZM39.0909 26.41V27.41H40.0909V26.41H39.0909ZM35.3109 26.41V25.41H34.3109V26.41H35.3109ZM35.3109 28.27H34.3109V29.27H35.3109V28.27ZM38.5509 28.27H39.5509V27.27H38.5509V28.27ZM38.5509 30.43V31.43H39.5509V30.43H38.5509ZM35.3109 30.43V29.43H34.3109V30.43H35.3109ZM35.3109 34V35H36.3109V34H35.3109ZM32.7309 34H33.7309V24.25H32.7309H31.7309V34H32.7309ZM32.7309 24.25V25.25H39.0909V24.25V23.25H32.7309V24.25ZM39.0909 24.25H38.0909V26.41H39.0909H40.0909V24.25H39.0909ZM39.0909 26.41V25.41H35.3109V26.41V27.41H39.0909V26.41ZM35.3109 26.41H34.3109V28.27H35.3109H36.3109V26.41H35.3109ZM35.3109 28.27V29.27H38.5509V28.27V27.27H35.3109V28.27ZM38.5509 28.27H37.5509V30.43H38.5509H39.5509V28.27H38.5509ZM38.5509 30.43V29.43H35.3109V30.43V31.43H38.5509V30.43ZM35.3109 30.43H34.3109V34H35.3109H36.3109V30.43H35.3109ZM35.3109 34V33H32.7309V34V35H35.3109V34ZM40.7729 34H39.7729V35H40.7729V34ZM40.7729 24.25V23.25H39.7729V24.25H40.7729ZM47.1329 24.25H48.1329V23.25H47.1329V24.25ZM47.1329 26.41V27.41H48.1329V26.41H47.1329ZM43.3529 26.41V25.41H42.3529V26.41H43.3529ZM43.3529 28.27H42.3529V29.27H43.3529V28.27ZM46.5929 28.27H47.5929V27.27H46.5929V28.27ZM46.5929 30.43V31.43H47.5929V30.43H46.5929ZM43.3529 30.43V29.43H42.3529V30.43H43.3529ZM43.3529 34V35H44.3529V34H43.3529ZM40.7729 34H41.7729V24.25H40.7729H39.7729V34H40.7729ZM40.7729 24.25V25.25H47.1329V24.25V23.25H40.7729V24.25ZM47.1329 24.25H46.1329V26.41H47.1329H48.1329V24.25H47.1329ZM47.1329 26.41V25.41H43.3529V26.41V27.41H47.1329V26.41ZM43.3529 26.41H42.3529V28.27H43.3529H44.3529V26.41H43.3529ZM43.3529 28.27V29.27H46.5929V28.27V27.27H43.3529V28.27ZM46.5929 28.27H45.5929V30.43H46.5929H47.5929V28.27H46.5929ZM46.5929 30.43V29.43H43.3529V30.43V31.43H46.5929V30.43ZM43.3529 30.43H42.3529V34H43.3529H44.3529V30.43H43.3529ZM43.3529 34V33H40.7729V34V35H43.3529V34Z" fill="#BB0101" mask="url(#path-3-outside-1_45_357)"/>
</svg>
