<svg width="39" height="41" viewBox="0 0 39 41" fill="none" xmlns="http://www.w3.org/2000/svg">
<path d="M38.083 12.49L24.1237 0.527515C23.2046 -0.260145 21.8174 -0.153294 21.0298 0.765842L0.527586 24.6902C-0.260074 25.6094 -0.153222 26.9965 0.765913 27.7842L14.7252 39.7466C15.6443 40.5343 17.0314 40.4275 17.8191 39.5083L38.3213 15.5839C39.1089 14.6648 39.0021 13.2777 38.083 12.49ZM16.7085 38.5563C16.4467 38.8617 15.9826 38.8975 15.6772 38.6357L1.71794 26.6732C1.41248 26.4115 1.37673 25.9474 1.63849 25.6419L22.1407 1.71753C22.4024 1.41207 22.8665 1.37633 23.172 1.63809L37.1312 13.6006C37.4367 13.8623 37.4724 14.3264 37.2107 14.6319L16.7085 38.5563ZM31.553 0.731895C31.6262 0.334633 32.0079 0.0718094 32.4066 0.146138C34.5154 0.537396 36.3643 2.08083 37.1245 4.05436C37.2689 4.43097 37.0812 4.85524 36.7045 4.99965C36.3279 5.14407 35.905 4.95749 35.7592 4.57968C35.1756 3.06332 33.7701 1.88772 32.1415 1.58535C32.0111 1.56037 31.8939 1.50327 31.7995 1.42236C31.6079 1.25816 31.5075 0.998756 31.5571 0.732977L31.553 0.731895ZM34.2227 5.03763C34.3822 5.4079 34.2119 5.83989 33.8416 5.99936C33.4713 6.15886 33.0419 5.98836 32.8799 5.61828C32.6492 5.08103 32.136 4.68224 31.5869 4.58969C31.4502 4.5665 31.329 4.50841 31.2318 4.42512C31.043 4.2633 30.9418 4.01043 30.9852 3.74905C31.0518 3.35099 31.4292 3.08202 31.8273 3.14862C32.8612 3.32188 33.7968 4.05379 34.2229 5.04023L34.2227 5.03763ZM26.8054 17.7198C25.4781 16.5823 23.4722 16.7368 22.3347 18.0641C21.1973 19.3915 21.3518 21.3974 22.6791 22.5349C24.0064 23.6723 26.0123 23.5178 27.1498 22.1905C28.2873 20.8632 28.1328 18.8572 26.8054 17.7198ZM23.6297 21.4256C22.9146 20.8128 22.8314 19.7326 23.4442 19.0175C24.057 18.3025 25.1372 18.2193 25.8523 18.832C26.5673 19.4448 26.6505 20.5251 26.0378 21.2401C25.425 21.9551 24.3447 22.0384 23.6297 21.4256ZM21.0256 16.9448C22.163 15.6175 22.0085 13.6116 20.6812 12.4741C19.3539 11.3367 17.3479 11.4912 16.2105 12.8185C15.073 14.1458 15.2275 16.1518 16.5548 17.2892C17.8822 18.4267 19.8881 18.2722 21.0256 16.9448ZM17.3211 13.7703C17.9339 13.0553 19.0142 12.9721 19.7292 13.5848C20.4443 14.1976 20.5275 15.2779 19.9147 15.9929C19.302 16.708 18.2217 16.7912 17.5066 16.1784C16.7916 15.5656 16.7084 14.4854 17.3211 13.7703ZM32.2429 11.3746C30.9156 10.2372 28.9097 10.3917 27.7722 11.719C26.6347 13.0464 26.7893 15.0523 28.1166 16.1897C29.4439 17.3272 31.4498 17.1727 32.5873 15.8454C33.7248 14.518 33.5703 12.5121 32.2429 11.3746ZM29.0684 15.0791C28.3534 14.4663 28.2702 13.386 28.8829 12.671C29.4957 11.9559 30.576 11.8727 31.291 12.4855C32.006 13.0982 32.0893 14.1785 31.4765 14.8936C30.8637 15.6086 29.7834 15.6918 29.0684 15.0791ZM21.9934 10.9425C23.3207 12.08 25.3266 11.9254 26.4641 10.5981C27.6016 9.27075 27.447 7.26487 26.1197 6.1274C24.7924 4.98994 22.7864 5.14446 21.649 6.47178C20.5115 7.79914 20.666 9.80503 21.9934 10.9425ZM25.1679 7.23809C25.8829 7.85085 25.9661 8.93113 25.3534 9.64617C24.7406 10.3612 23.6603 10.4444 22.9453 9.83167C22.2302 9.21891 22.147 8.13862 22.7598 7.42358C23.3725 6.70854 24.4528 6.62533 25.1679 7.23809ZM13.8331 21.7883C12.6957 23.1157 12.8502 25.1215 14.1775 26.259C15.5048 27.3965 17.5108 27.2419 18.6482 25.9146C19.7857 24.5873 19.6312 22.5814 18.3039 21.4439C16.9765 20.3065 14.9706 20.461 13.8331 21.7883ZM17.3532 22.5533C18.0682 23.166 18.1514 24.2463 17.5387 24.9614C16.9259 25.6764 15.8456 25.7596 15.1306 25.1469C14.4155 24.5341 14.3323 23.4538 14.9451 22.7388C15.5578 22.0237 16.6381 21.9405 17.3532 22.5533ZM16.3139 30.7433L9.48413 24.8904C8.87182 24.3657 7.94624 24.437 7.42151 25.0493L6.12459 26.5627C5.59986 27.175 5.67116 28.1006 6.28348 28.6253L13.1133 34.4782C13.7256 35.0029 14.6512 34.9316 15.1759 34.3193L16.4728 32.8059C16.9976 32.1936 16.9263 31.268 16.3139 30.7433ZM7.23535 27.5146L8.53227 26.0012L15.3621 31.854L14.0651 33.3674L7.23535 27.5146Z" fill="#1151AA"/>
</svg>
