<svg width="73" height="39" viewBox="0 0 73 39" fill="none" xmlns="http://www.w3.org/2000/svg">
<path d="M69.8442 0H2.65584C1.19263 0 0 1.19263 0 2.65584V21.3125C0 22.7758 1.18949 23.9684 2.65584 23.9684H69.8442C71.3074 23.9684 72.5 22.7789 72.5 21.3125V2.65584C72.5 1.19263 71.3074 0 69.8442 0ZM68.0789 22.7787H4.41808V19.8177C4.41808 19.7107 4.50933 19.6194 4.61632 19.6194H67.8808C67.9877 19.6194 68.079 19.7107 68.079 19.8177L68.0789 22.7787ZM71.3105 21.3124C71.3105 22.1211 70.6528 22.7787 69.8442 22.7787H69.2683V19.8177C69.2683 19.053 68.6453 18.4299 67.8806 18.4299H4.61613C3.85148 18.4299 3.2284 19.053 3.2284 19.8177V22.7787H2.6557C1.847 22.7787 1.18934 22.1211 1.18934 21.3124V2.65568C1.18934 1.84698 1.84701 1.18933 2.6557 1.18933H69.844C70.6527 1.18933 71.3104 1.84699 71.3104 2.65568L71.3105 21.3124Z" fill="#1151AA"/>
<path d="M41.0044 27.9551C40.6771 27.9551 40.4097 28.2225 40.4097 28.5498V37.7855C40.4097 38.1128 40.6771 38.3802 41.0044 38.3802C41.3317 38.3802 41.5991 38.1128 41.5991 37.7855V28.5498C41.5991 28.2194 41.3317 27.9551 41.0044 27.9551Z" fill="#1151AA"/>
<path d="M31.4946 27.9551C31.1674 27.9551 30.8999 28.2225 30.8999 28.5498V37.7855C30.8999 38.1128 31.1674 38.3802 31.4946 38.3802C31.8219 38.3802 32.0894 38.1128 32.0894 37.7855V28.5498C32.0894 28.2194 31.825 27.9551 31.4946 27.9551Z" fill="#1151AA"/>
<path d="M22.9271 27.958C22.6093 27.9454 22.3198 28.1846 22.2946 28.5118C22.2788 28.7384 21.8131 34.0847 13.5124 37.2312C13.204 37.3476 13.0498 37.6906 13.1663 37.9958C13.2575 38.2318 13.4809 38.3797 13.7232 38.3797C13.7925 38.3797 13.8648 38.3671 13.9341 38.342C22.9998 34.9058 23.4686 28.842 23.4839 28.5842C23.4997 28.257 23.2512 27.98 22.9271 27.958Z" fill="#1151AA"/>
<path d="M58.9876 37.2309C50.6831 34.0842 50.2207 28.7379 50.2054 28.5115C50.1834 28.1843 49.8907 27.9294 49.576 27.9577C49.2488 27.9766 49.0002 28.2598 49.0191 28.5871C49.0348 28.8451 49.5005 34.9088 58.569 38.3448C58.6382 38.3699 58.7106 38.3825 58.7798 38.3825C59.0189 38.3825 59.2455 38.2378 59.3368 37.9986C59.45 37.6903 59.2959 37.3442 58.9876 37.2309Z" fill="#1151AA"/>
<path d="M44.8904 12.9482H27.6055C26.8409 12.9482 26.2178 13.5713 26.2178 14.336V15.4688C26.2178 16.2334 26.8408 16.8565 27.6055 16.8565H44.8904C45.655 16.8565 46.2781 16.2334 46.2781 15.4688V14.336C46.2781 13.5682 45.655 12.9482 44.8904 12.9482ZM45.0886 15.4656C45.0886 15.5757 45.0005 15.6638 44.8904 15.6638H27.6055C27.4954 15.6638 27.4073 15.5757 27.4073 15.4656V14.3328C27.4073 14.2227 27.4954 14.1346 27.6055 14.1346H44.8904C45.0005 14.1346 45.0886 14.2227 45.0886 14.3328V15.4656Z" fill="#1151AA"/>
</svg>
