<svg width="43" height="39" viewBox="0 0 43 39" fill="none" xmlns="http://www.w3.org/2000/svg">
<path d="M13.7404 0C12.3476 0 11.0673 0.539011 10.0937 1.53596C9.77012 1.86755 9.77669 2.37296 10.1068 2.69578C10.4369 3.01861 10.9394 3.0113 11.2645 2.67972C11.9152 2.01435 12.8077 1.63821 13.7404 1.63821C15.6408 1.63821 17.2045 3.19828 17.2045 5.09942C17.2045 7.00349 15.6423 8.56867 13.7404 8.56867H0.81655C0.354228 8.56867 0 8.92363 0 9.38741C0 9.85119 0.352037 10.204 0.81655 10.204H13.7404C16.5589 10.204 18.8398 7.92302 18.8398 5.09942C18.8398 2.28094 16.5596 0 13.7404 0ZM28.9759 4.53485C27.3435 4.53485 25.8338 5.16443 24.6849 6.32571C24.3599 6.65437 24.3614 7.15979 24.6901 7.48553C25.0165 7.80909 25.5183 7.8047 25.8448 7.4775C26.6723 6.64123 27.797 6.17014 28.9759 6.17014C31.3956 6.17014 33.3792 8.15455 33.3792 10.5735C33.3792 12.9969 31.3956 14.9849 28.9759 14.9849H9.61017C9.14785 14.9849 8.79362 15.3399 8.79362 15.8037C8.79362 16.2675 9.14566 16.6202 9.61017 16.6202H28.9759C32.3144 16.6202 35.0145 13.9164 35.0145 10.5735C35.0145 7.23502 32.3144 4.53485 28.9759 4.53485ZM0.81655 21.7394C0.354228 21.7394 0 22.0921 0 22.5559C0 23.0204 0.352037 23.3739 0.81655 23.3747L14.1487 23.3827C14.611 23.3827 14.9652 23.0299 14.9652 22.5662C14.9652 22.1016 14.6132 21.7481 14.1487 21.7474L0.819472 21.7394H0.81655ZM22.7086 21.7394C22.2441 21.7394 21.8898 22.0929 21.8898 22.5559C21.8898 23.019 22.2463 23.3747 22.7086 23.3747H35.9947C38.4151 23.3747 40.3981 25.3627 40.3981 27.7861C40.3981 30.2058 38.4129 32.1873 35.9947 32.1873C34.8246 32.1873 33.7086 31.722 32.8826 30.896C32.5568 30.5702 32.0485 30.5702 31.7228 30.896C31.397 31.2217 31.397 31.7301 31.7228 32.0558C32.8673 33.2003 34.3747 33.8226 35.9947 33.8226C39.3332 33.8226 42.0334 31.1224 42.0334 27.7839C42.0319 24.4417 39.3317 21.7394 35.9947 21.7394H22.7086ZM0.81655 28.5866C0.354228 28.5866 0 28.9415 0 29.4053C0 29.8691 0.352037 30.2219 0.81655 30.2219H17.1636C19.0655 30.2219 20.6278 31.787 20.6278 33.6911C20.6278 35.5923 19.0655 37.1552 17.1636 37.1552C16.2302 37.1552 15.3384 36.7762 14.6877 36.1108V36.1079C14.3663 35.7785 13.8609 35.7734 13.5301 36.0969C13.1977 36.4219 13.1904 36.9201 13.514 37.2516V37.2546C14.4868 38.2508 15.7708 38.7905 17.1629 38.7905C19.9821 38.7905 22.2623 36.5125 22.2623 33.694V33.6911C22.2623 30.8675 19.9814 28.5866 17.1629 28.5866H0.81655Z" fill="#1151AA"/>
</svg>
