<svg width="41" height="39" viewBox="0 0 41 39" fill="none" xmlns="http://www.w3.org/2000/svg">
<path d="M9.13261 10.6955C8.93319 10.7136 8.7655 10.8632 8.72924 11.0581C8.72471 11.0898 8.07659 14.1718 6.61721 14.0132C6.5447 14.0041 6.43592 13.9769 6.31355 13.8183C5.61559 12.9163 5.76515 9.74378 6.02801 7.95779C6.05068 7.79916 5.98722 7.636 5.86032 7.53629C5.73342 7.43658 5.56572 7.40938 5.41162 7.4683C0.92918 9.2268 -0.597958 13.2334 0.204016 16.2793C0.829456 18.6497 2.66957 20.0729 5.0082 20.0729C5.2892 20.0729 5.57927 20.0502 5.8784 20.0094C7.62332 19.7602 8.87426 19.0033 9.59942 17.7614C11.163 15.0828 9.66288 11.1444 9.59942 10.9768C9.52237 10.7955 9.33657 10.6774 9.13261 10.6955ZM8.81082 17.3125C8.23069 18.3005 7.20188 18.9079 5.74703 19.1164C3.00498 19.5061 1.53655 17.793 1.07877 16.0526C0.421594 13.5553 1.59091 10.3102 5.02639 8.62862C4.86776 10.1288 4.6774 13.1926 5.59292 14.3755C5.83767 14.6882 6.15492 14.8786 6.51754 14.9149C7.87725 15.0554 8.70208 13.809 9.15081 12.7258C9.43635 14.013 9.63117 15.9166 8.81082 17.3125Z" fill="#1151AA"/>
<path d="M40.2649 13.5288H38.0304L39.5215 11.1267C39.653 10.9137 39.5895 10.6327 39.3765 10.5013C39.1635 10.3698 38.8825 10.4333 38.7511 10.6463L36.9654 13.5289H34.6267V11.1902L37.5093 9.40452C37.7223 9.27309 37.7858 8.99208 37.6543 8.77908C37.5229 8.56606 37.2419 8.50262 37.0289 8.63405L34.6268 10.1252V7.89073C34.6268 7.64145 34.4228 7.4375 34.1736 7.4375C33.9243 7.4375 33.7203 7.64145 33.7203 7.89073V10.1252L31.3182 8.63405C31.1052 8.50262 30.8242 8.56606 30.6928 8.77908C30.5614 8.9921 30.6248 9.2731 30.8378 9.40452L33.7204 11.1902V13.5289H31.3818L29.5961 10.6463C29.4646 10.4333 29.1836 10.3698 28.9706 10.5013C28.7576 10.6327 28.6942 10.9137 28.8256 11.1267L30.3167 13.5288H28.0777C27.8285 13.5288 27.6245 13.7327 27.6245 13.982C27.6245 14.2313 27.8285 14.4352 28.0777 14.4352H30.3122L28.8211 16.8373C28.6896 17.0504 28.7531 17.3314 28.9661 17.4628C29.0386 17.5081 29.1247 17.5308 29.2063 17.5308C29.3559 17.5308 29.5054 17.4537 29.5915 17.3177L31.3773 14.4352H33.7159V16.7738L30.8333 18.5595C30.6203 18.691 30.5569 18.972 30.6883 19.185C30.7744 19.3255 30.924 19.398 31.0735 19.398C31.1551 19.398 31.2367 19.3753 31.3137 19.33L33.7158 17.8389V20.0733C33.7158 20.3226 33.9198 20.5265 34.1691 20.5265C34.4183 20.5265 34.6223 20.3226 34.6223 20.0733V17.8389L37.0244 19.33C37.0969 19.3753 37.183 19.398 37.2646 19.398C37.4142 19.398 37.5637 19.3209 37.6498 19.185C37.7813 18.9719 37.7178 18.6909 37.5048 18.5595L34.6222 16.7738V14.4352H36.9609L38.7466 17.3177C38.8327 17.4582 38.9822 17.5308 39.1318 17.5308C39.2134 17.5308 39.295 17.5081 39.372 17.4628C39.585 17.3313 39.6485 17.0503 39.5171 16.8373L38.0259 14.4352H40.2604C40.5097 14.4352 40.7136 14.2313 40.7136 13.982C40.7136 13.7327 40.5141 13.5288 40.2649 13.5288Z" fill="#1151AA"/>
<path d="M19.702 24.7087V5.32811C19.702 4.92851 19.4356 4.66211 19.036 4.66211C18.6364 4.66211 18.37 4.92851 18.37 5.32811V24.7087C16.1056 25.0417 14.374 26.9731 14.374 29.304C14.374 31.9014 16.4386 33.9662 19.0362 33.9662C21.6338 33.9662 23.6984 31.9016 23.6984 29.304C23.6984 26.973 21.9664 25.0416 19.702 24.7087ZM19.036 32.6342C17.1712 32.6342 15.706 31.169 15.706 29.3042C15.706 27.4394 17.1712 25.9742 19.036 25.9742C20.9008 25.9742 22.366 27.4394 22.366 29.3042C22.366 31.169 20.9008 32.6342 19.036 32.6342Z" fill="#1151AA"/>
<path d="M24.0315 21.4453V4.99508C24.0315 2.26452 21.7671 0 19.0364 0C16.3057 0 14.0413 2.26439 14.0413 4.99508V21.4453C11.0444 23.3767 9.37914 26.8398 9.77895 30.4364C10.2452 34.6988 13.7084 38.0955 17.9708 38.5613C18.3038 38.6279 18.6368 38.6279 19.0364 38.6279C21.3008 38.6279 23.5652 37.7622 25.297 36.2303C27.2284 34.4987 28.3606 31.968 28.3606 29.304C28.3606 26.1072 26.6954 23.1771 24.0315 21.4453ZM24.3645 35.2316C22.6329 36.7634 20.4351 37.4959 18.1039 37.2295C14.4409 36.83 11.5104 33.8996 11.1111 30.2367C10.7115 27.0399 12.3098 23.9761 15.0405 22.3777C15.2403 22.2445 15.3735 22.0447 15.3735 21.7783V4.99521C15.3735 2.99722 17.0384 1.33221 19.0365 1.33221C21.0345 1.33221 22.6995 2.99718 22.6995 4.99521V21.8448C22.6995 22.1112 22.8327 22.311 23.0325 22.4442C25.4966 23.8428 27.0284 26.5068 27.0284 29.3706C27.0284 31.5683 26.0295 33.7662 24.3645 35.2316Z" fill="#1151AA"/>
</svg>
