<svg width="34" height="37" viewBox="0 0 34 37" fill="none" xmlns="http://www.w3.org/2000/svg">
<path d="M31.5148 2.32983C21.6611 -0.777762 11.5996 -0.776228 1.61018 2.33214C0.662023 2.62671 0 3.53114 0 4.53223V13.5029C0 21.8307 4.44392 29.6546 11.5973 33.919L16.2667 36.7029C16.3879 36.775 16.5237 36.811 16.6595 36.811C16.7968 36.811 16.9341 36.7742 17.0561 36.7006L21.6343 33.9359C28.7163 29.6592 33.1157 21.863 33.1157 13.5896V4.52763C33.1157 3.51503 32.4721 2.63131 31.5148 2.32983ZM31.5815 13.5896C31.5815 21.3291 27.4659 28.622 20.8411 32.6226L16.6572 35.1502L12.3828 32.6019C5.69125 28.6128 1.53424 21.2945 1.53424 13.5037V4.53223C1.53424 4.19623 1.75287 3.89476 2.06585 3.79733C6.9102 2.28918 11.7714 1.53587 16.6166 1.53587C21.4617 1.53587 26.2815 2.28764 31.0537 3.7935C31.3644 3.89092 31.5815 4.19316 31.5815 4.52763V13.5896Z" fill="#1151AA"/>
<path d="M16.557 5.35938C11.0583 5.35938 6.58447 9.83321 6.58447 15.3319C6.58447 20.8306 11.0583 25.3045 16.557 25.3045C22.0557 25.3045 26.5295 20.8306 26.5295 15.3319C26.5295 9.83321 22.0557 5.35938 16.557 5.35938ZM16.557 23.7702C11.9044 23.7702 8.11871 19.9845 8.11871 15.3319C8.11871 10.6793 11.9044 6.89361 16.557 6.89361C21.2096 6.89361 24.9953 10.6793 24.9953 15.3319C24.9953 19.9845 21.2096 23.7702 16.557 23.7702Z" fill="#1151AA"/>
<path d="M20.5285 11.6317L15.2123 16.9486L12.8136 14.5498C12.5136 14.2499 12.0288 14.2499 11.7289 14.5498C11.4289 14.8498 11.4289 15.3346 11.7289 15.6345L14.67 18.5757C14.8196 18.7252 15.016 18.8004 15.2123 18.8004C15.4087 18.8004 15.6051 18.7252 15.7547 18.5757L21.6132 12.7164C21.9131 12.4165 21.9131 11.9316 21.6132 11.6317C21.3132 11.3318 20.8284 11.3318 20.5285 11.6317Z" fill="#1151AA"/>
</svg>
