<svg width="42" height="42" viewBox="0 0 42 42" fill="none" xmlns="http://www.w3.org/2000/svg">
<path d="M24.417 27.6328C24.234 27.5904 24.0428 27.6204 23.8828 27.7188V27.7197C23.7642 27.7935 23.6706 27.9007 23.6133 28.0264L23.5684 28.1572C23.526 28.3402 23.5569 28.5314 23.6553 28.6914C23.7536 28.8495 23.9115 28.9633 24.0928 29.0059C29.3879 30.2524 34.9534 28.6685 38.8008 24.8213C38.9288 24.6923 39.0336 24.5457 39.1338 24.4014C39.185 24.3276 39.2349 24.2545 39.2861 24.1836C38.5869 27.9699 37.0603 31.5523 34.3105 34.3037C26.7925 41.8216 14.6188 41.8215 7.10254 34.3037C-0.415576 26.7856 -0.4106 14.615 7.10742 7.09863C9.86166 4.34439 13.4449 2.80629 17.2393 2.1084C17.1655 2.16271 17.0903 2.21639 17.0137 2.27051C16.8679 2.37343 16.7206 2.48159 16.5898 2.6123H16.5889C10.5361 8.66726 10.4524 18.461 16.3818 24.6123H16.377L16.4814 24.7188C16.6125 24.8517 16.7922 24.9287 16.9795 24.9307C17.1686 24.9326 17.3478 24.8593 17.4824 24.7285L17.5732 24.6191C17.7556 24.3481 17.7301 23.9782 17.4922 23.7334V23.7324C11.9912 18.1294 12.0315 9.15821 17.582 3.60645C18.4411 2.74741 19.4075 2.00433 20.4541 1.38965H20.4551L20.4697 1.38086C20.7534 1.22064 20.8902 0.885489 20.7998 0.571289V0.570312C20.7091 0.258275 20.4163 0.0495098 20.0908 0.0644531V0.0634766C14.831 0.220466 9.82821 2.37975 6.10645 6.10156C-1.95287 14.1592 -1.95115 27.2453 6.10645 35.3047C14.164 43.364 27.2462 43.3638 35.3057 35.3047C39.0275 31.5793 41.1871 26.571 41.3389 21.3076V21.3047C41.3451 21.0232 41.1846 20.7694 40.9375 20.6523L40.8271 20.6113C40.5571 20.5337 40.2709 20.6243 40.0938 20.834L40.0244 20.9316C39.4868 21.8552 38.846 22.7134 38.1172 23.4941L37.7988 23.8242C34.3084 27.3145 29.2704 28.7575 24.4648 27.6436L24.417 27.6328ZM24.417 27.6328L24.4023 27.6934L24.4033 27.6924L24.417 27.6328ZM17.3115 20.373V20.374L22.2188 20.373C22.4888 20.373 22.7357 20.5272 22.8535 20.7686L22.8916 20.8613C22.9636 21.0826 22.9216 21.3279 22.7764 21.5137L18.6973 26.7393H22.2188L22.3604 26.7529C22.6823 26.817 22.9251 27.1004 22.9268 27.4414L22.9131 27.5801C22.8863 27.7161 22.8206 27.8434 22.7207 27.9434C22.5874 28.0767 22.4056 28.1494 22.2188 28.1494H17.249C16.9809 28.1475 16.7358 27.9931 16.6182 27.752C16.5008 27.5096 16.5306 27.2228 16.6953 27.0107L20.7705 21.7852H17.249C16.9082 21.7835 16.625 21.5413 16.5605 21.2197L16.5469 21.0771C16.5488 20.6896 16.8611 20.375 17.249 20.373H17.3115ZM30.7812 15.333C31.0493 15.333 31.2943 15.4854 31.4121 15.7266L31.4502 15.8193C31.5121 16.0075 31.4911 16.2129 31.3936 16.3848L31.3389 16.4678L28.3018 20.4062H30.7812C31.1691 20.4063 31.4832 20.7209 31.4854 21.1084V21.1094C31.4834 21.4987 31.1694 21.8134 30.7812 21.8135H26.8643C26.5962 21.8115 26.3528 21.6588 26.2334 21.418C26.1157 21.1785 26.1447 20.8909 26.3086 20.6787L29.3389 16.7432H26.8643C26.4748 16.7411 26.1602 16.4249 26.1621 16.0352C26.1641 15.6476 26.4767 15.3351 26.8643 15.333H30.7812ZM27.7305 5.94922C27.9985 5.94761 28.2447 6.1001 28.3643 6.34082C28.4839 6.58208 28.4551 6.87161 28.291 7.08398L25.251 11.0225H27.7305C27.917 11.0226 28.0988 11.0959 28.2305 11.2295H28.2295C28.3625 11.3625 28.4375 11.5433 28.4375 11.7305V11.7314C28.436 11.8716 28.3939 12.0075 28.3164 12.1221L28.2275 12.2285C28.0965 12.3594 27.9159 12.4343 27.7305 12.4326V12.4336H23.8193C23.5512 12.4336 23.3061 12.2808 23.1865 12.04V12.0391C23.0689 11.798 23.0977 11.5111 23.2617 11.2988L26.2988 7.35938H23.8193C23.4786 7.36104 23.1925 7.12106 23.126 6.7998L23.1113 6.65723C23.1095 6.46787 23.1846 6.28808 23.3174 6.15527C23.4502 6.02248 23.63 5.94738 23.8193 5.94922H27.7305Z" fill="#1151AA" stroke="#1151AA" stroke-width="0.125"/>
</svg>
