<svg width="39" height="39" viewBox="0 0 39 39" fill="none" xmlns="http://www.w3.org/2000/svg">
<path d="M19.3953 0C8.70026 0 0 8.70026 0 19.3953C0 27.9568 5.73705 35.6137 13.9508 38.0147C14.3006 38.1166 14.6648 37.9168 14.7667 37.5676C14.8686 37.2192 14.6687 36.8543 14.3203 36.7524C6.66277 34.5144 1.31493 27.3769 1.31493 19.3953C1.31493 9.42544 9.42544 1.31493 19.3953 1.31493C29.3644 1.31493 37.4756 9.42544 37.4756 19.3953C37.4756 29.1442 29.7181 37.1114 20.0527 37.4592V24.5702C21.392 24.4361 22.6333 23.8496 23.5978 22.8851C24.703 21.7799 25.3125 20.3098 25.3125 18.7457V15.3328C25.3125 14.9699 25.0186 14.6753 24.655 14.6753H22.7924V10.2453C22.7924 9.88238 22.4985 9.58784 22.1349 9.58784C21.7713 9.58784 21.4775 9.88238 21.4775 10.2453V14.6753H17.3131V10.2453C17.3131 9.88238 17.0185 9.58784 16.6556 9.58784C16.2927 9.58784 15.9981 9.88238 15.9981 10.2453V14.6753H14.1355C13.7726 14.6753 13.4781 14.9699 13.4781 15.3328V18.7457C13.4781 20.3091 14.0869 21.7799 15.1927 22.8844C16.1572 23.8489 17.3992 24.4354 18.7378 24.5695V38.1331C18.7378 38.4966 19.0323 38.7905 19.3953 38.7905C30.0903 38.7905 38.7905 30.0903 38.7905 19.3953C38.7905 8.70026 30.0903 0 19.3953 0ZM14.793 18.7457V15.9902H23.9975V18.7457C23.9975 19.9581 23.5255 21.0981 22.6681 21.9548C21.8108 22.8128 20.6707 23.2848 19.4584 23.2848H19.3335C18.1211 23.2848 16.981 22.8121 16.1231 21.9548C15.2776 21.1099 14.793 19.941 14.793 18.7457Z" fill="#1151AA"/>
</svg>
