<svg width="41" height="41" viewBox="0 0 41 41" fill="none" xmlns="http://www.w3.org/2000/svg">
<path d="M6.64355 5.58301C6.95703 5.6502 7.19166 5.92966 7.18848 6.2627L7.16504 11.5752L7.15039 11.71C7.12302 11.8422 7.05709 11.9644 6.96094 12.0605V12.0615C6.83108 12.1894 6.65598 12.2607 6.47363 12.2607C6.09324 12.2589 5.78613 11.9496 5.78613 11.5693V11.5068H5.78809L5.80078 8.1543C-0.373682 15.5174 -0.00244888 26.4907 6.91895 33.4121C13.2756 39.767 23.2401 40.7131 30.6787 35.6621C30.8298 35.5566 31.018 35.52 31.1963 35.5537C31.3768 35.5876 31.5368 35.6924 31.6387 35.8447C31.8516 36.1594 31.7691 36.5853 31.457 36.7998H31.4561C23.4777 42.2165 12.7612 41.2046 5.94434 34.3877C-1.46021 26.9825 -1.87269 15.2183 4.70215 7.32129L1.42285 7.98242C1.24286 8.018 1.05509 7.98256 0.902344 7.88086H0.901367C0.749351 7.77764 0.643449 7.61945 0.609375 7.43848L0.59668 7.2998C0.598692 6.9801 0.823868 6.69682 1.14844 6.63086L6.36328 5.58008H6.36426C6.41163 5.57065 6.45891 5.56738 6.50488 5.56738L6.64355 5.58301ZM19.9541 0.0625L19.9551 0.0644531C20.6605 0.0565371 21.3643 0.0849114 22.0664 0.151367C26.5932 0.579288 30.9812 2.54175 34.3896 5.9502C41.7943 13.3553 42.2054 25.1147 35.6289 33.0117L38.9082 32.3555L39.0439 32.3408C39.179 32.3398 39.3124 32.3789 39.4268 32.4551L39.5322 32.54C39.5966 32.6035 39.6476 32.6794 39.6826 32.7627L39.7227 32.8926C39.7961 33.2653 39.5548 33.6268 39.1836 33.7021L39.1094 33.7178V33.7148L33.9688 34.751C33.7654 34.7923 33.5545 34.7391 33.3945 34.6074C33.2344 34.4755 33.1417 34.2776 33.1436 34.0703L33.168 28.7578C33.1681 28.5753 33.2414 28.4005 33.3711 28.2725L33.4766 28.1865C33.5891 28.1117 33.7215 28.0711 33.8584 28.0723C34.041 28.0723 34.2166 28.1457 34.3447 28.2754C34.4412 28.3719 34.5052 28.4939 34.5312 28.625L34.5469 28.6104V28.7627L34.5293 32.1768C40.7045 24.8137 40.3331 13.842 33.4121 6.9209C27.0572 0.564336 17.0919 -0.380092 9.65332 4.6709C9.50112 4.77422 9.31457 4.81417 9.13379 4.78027C8.95274 4.74624 8.79466 4.64035 8.69141 4.48828C8.47857 4.1737 8.56141 3.7461 8.87402 3.5332L8.88965 3.52246H8.89258C12.254 1.24498 16.1014 0.10538 19.9365 0.0625H19.9541ZM23.0537 6.98926C23.2569 6.98937 23.4493 7.07816 23.5811 7.23438C23.695 7.37003 23.7529 7.54488 23.7422 7.7207H23.7471L23.7354 7.79395L22.3926 15.6631H29.9414C30.2052 15.6631 30.4466 15.8145 30.5615 16.0537C30.6761 16.2908 30.6462 16.5749 30.4805 16.7822L17.0957 33.3115C16.8982 33.554 16.5616 33.6347 16.2754 33.5049C15.9905 33.3766 15.8282 33.0694 15.8809 32.7607L17.874 21.2295H13.7646C13.5611 21.2295 13.3683 21.1388 13.2383 20.9824C13.1067 20.8261 13.0521 20.6206 13.0879 20.4209L15.2891 7.55957L15.3213 7.43945C15.4202 7.17155 15.6773 6.98761 15.9707 6.98926H23.0537ZM14.584 19.8525H18.6982C18.9001 19.8525 19.0928 19.9433 19.2227 20.0977C19.3527 20.2522 19.4069 20.4559 19.373 20.6553L17.6914 30.3848L28.498 17.04H21.5771V17.0391C21.3736 17.0406 21.1803 16.9508 21.0488 16.7949C20.917 16.6386 20.8619 16.4336 20.8975 16.2324L22.2393 8.3623H16.5508L14.584 19.8525Z" fill="#1151AA" stroke="#1151AA" stroke-width="0.125"/>
</svg>
