<svg width="42" height="42" viewBox="0 0 42 42" fill="none" xmlns="http://www.w3.org/2000/svg">
<circle cx="21" cy="21" r="21" fill="#ED4646"/>
<path d="M13.2676 28L8.15039 13.6836H11.2852L14.9082 24.2793L18.4141 13.6836H21.4805L16.3535 28H13.2676ZM22.2227 23.3418L25.0352 23.0684C25.2044 24.0124 25.5462 24.7057 26.0605 25.1484C26.5814 25.5911 27.2812 25.8125 28.1602 25.8125C29.0911 25.8125 29.791 25.6172 30.2598 25.2266C30.735 24.8294 30.9727 24.3672 30.9727 23.8398C30.9727 23.5013 30.8717 23.2148 30.6699 22.9805C30.4746 22.7396 30.1296 22.5312 29.6348 22.3555C29.2962 22.2383 28.5247 22.0299 27.3203 21.7305C25.7708 21.3464 24.6836 20.8743 24.0586 20.3145C23.1797 19.5267 22.7402 18.5664 22.7402 17.4336C22.7402 16.7044 22.9453 16.0241 23.3555 15.3926C23.7721 14.7546 24.3678 14.2695 25.1426 13.9375C25.9238 13.6055 26.8646 13.4395 27.9648 13.4395C29.7617 13.4395 31.1126 13.8333 32.0176 14.6211C32.929 15.4089 33.4076 16.4603 33.4531 17.7754L30.5625 17.9023C30.4388 17.1667 30.1719 16.6393 29.7617 16.3203C29.3581 15.9948 28.7493 15.832 27.9355 15.832C27.0957 15.832 26.4382 16.0046 25.9629 16.3496C25.6569 16.571 25.5039 16.8672 25.5039 17.2383C25.5039 17.5768 25.6471 17.8665 25.9336 18.1074C26.2982 18.4134 27.1836 18.7324 28.5898 19.0645C29.9961 19.3965 31.0345 19.7415 31.7051 20.0996C32.3822 20.4512 32.9095 20.9362 33.2871 21.5547C33.6712 22.1667 33.8633 22.9251 33.8633 23.8301C33.8633 24.6504 33.6354 25.4186 33.1797 26.1348C32.724 26.8509 32.0794 27.3848 31.2461 27.7363C30.4128 28.0814 29.3743 28.2539 28.1309 28.2539C26.321 28.2539 24.931 27.8372 23.9609 27.0039C22.9909 26.1641 22.4115 24.9434 22.2227 23.3418Z" fill="white"/>
</svg>
