<svg width="85" height="85" viewBox="0 0 85 85" fill="none" xmlns="http://www.w3.org/2000/svg">
<path d="M0 42.5C0 19.0279 19.0279 0 42.5 0C65.9721 0 85 19.0279 85 42.5C85 65.9721 65.9721 85 42.5 85C19.0279 85 0 65.9721 0 42.5Z" fill="#1341AE"/>
<g clip-path="url(#clip0_4505_10181)">
<path d="M55.3121 63.1738C57.8823 63.1738 59.8891 61.0858 59.8891 58.5968C59.8891 56.3488 58.2835 54.4209 56.1143 54.0997V24.3884C56.1143 23.9061 55.7932 23.585 55.3109 23.585C54.8286 23.585 54.5075 23.9061 54.5075 24.3884V54.1009C52.3395 54.502 50.7327 56.3488 50.7327 58.5979C50.6527 61.1682 52.7407 63.175 55.3097 63.175L55.3121 63.1738ZM55.3121 55.6254C56.9989 55.6254 58.2835 56.9911 58.2835 58.5968C58.2835 60.2024 56.9178 61.5681 55.3121 61.5681C53.7064 61.5681 52.3407 60.2024 52.3407 58.5968C52.3407 56.9911 53.6253 55.6254 55.3121 55.6254Z" fill="white"/>
<path d="M43.9092 58.5968C43.9092 64.8607 49.0485 70 55.3124 70C61.5762 70 66.7156 64.8607 66.7156 58.5968C66.7156 54.3409 64.3065 50.4061 60.5317 48.4782V22.2193C60.5317 19.3279 58.2026 17 55.3124 17C52.4222 17 50.0931 19.3291 50.0931 22.2193V48.4782C46.3183 50.405 43.9092 54.3397 43.9092 58.5968ZM51.2164 49.7639C51.5376 49.6027 51.6987 49.3627 51.6987 49.0416V22.2193C51.6987 20.2113 53.3044 18.6057 55.3124 18.6057C57.3203 18.6057 58.926 20.2113 58.926 22.2193V48.9605C58.926 49.2816 59.0872 49.5227 59.4083 49.6827C62.8608 51.2884 65.1099 54.742 65.1099 58.5968C65.1099 63.9773 60.6928 68.3943 55.3124 68.3943C49.9319 68.3943 45.5148 63.9773 45.5148 58.5968C45.5148 54.822 47.7628 51.2896 51.2164 49.7639Z" fill="white"/>
<path d="M67.1961 29.4463H63.0202C62.5379 29.4463 62.2168 29.7674 62.2168 30.2497C62.2168 30.732 62.5379 31.0531 63.0202 31.0531H67.1961C67.6784 31.0531 67.9996 30.732 67.9996 30.2497C67.9996 29.7674 67.6784 29.4463 67.1961 29.4463Z" fill="white"/>
<path d="M63.0202 35.6303H65.1082C65.5905 35.6303 65.9116 35.3091 65.9116 34.8269C65.9116 34.3446 65.5905 34.0234 65.1082 34.0234H63.0202C62.5379 34.0234 62.2168 34.3446 62.2168 34.8269C62.2168 35.3091 62.6179 35.6303 63.0202 35.6303Z" fill="white"/>
<path d="M67.1961 38.6016H63.0202C62.5379 38.6016 62.2168 38.9227 62.2168 39.405C62.2168 39.8873 62.5379 40.2084 63.0202 40.2084H67.1961C67.6784 40.2084 67.9996 39.8873 67.9996 39.405C67.9996 38.9227 67.6784 38.6016 67.1961 38.6016Z" fill="white"/>
<path d="M65.1082 44.7846C65.5905 44.7846 65.9116 44.4634 65.9116 43.9812C65.9116 43.4989 65.5905 43.1777 65.1082 43.1777H63.0202C62.5379 43.1777 62.2168 43.4989 62.2168 43.9812C62.2168 44.4634 62.5379 44.7846 63.0202 44.7846H65.1082Z" fill="white"/>
<path d="M15.8034 34.2648H19.0159L17.1691 36.1116C16.848 36.4327 16.848 36.915 17.1691 37.2361C17.3303 37.3973 17.5702 37.4773 17.7314 37.4773C17.8926 37.4773 18.1325 37.3973 18.2937 37.2361L21.265 34.2648H26.2444C26.4055 35.0682 26.7267 35.8704 27.2878 36.5127L23.7541 40.0463H19.5782C19.0959 40.0463 18.7748 40.3675 18.7748 40.8498C18.7748 41.3321 19.0959 41.6532 19.5782 41.6532H22.1485L19.9005 43.9011C19.5794 44.2223 19.5794 44.7045 19.9005 45.0257C20.0617 45.1868 20.3016 45.2668 20.4628 45.2668C20.624 45.2668 20.8639 45.1868 21.0251 45.0257L23.273 42.7777V45.348C23.273 45.8303 23.5942 46.1514 24.0764 46.1514C24.5587 46.1514 24.8799 45.8303 24.8799 45.348V41.1721L28.4935 37.5584C29.1358 38.0407 29.9392 38.3619 30.7414 38.4418V43.5812L27.7701 46.5525C27.4489 46.8737 27.4489 47.356 27.7701 47.6771C28.0912 47.9982 28.5735 47.9982 28.8946 47.6771L30.7414 45.8303V49.0428C30.7414 49.5251 31.0626 49.8462 31.5449 49.8462C32.0271 49.8462 32.3483 49.5251 32.3483 49.0428V45.8303L34.1951 47.6771C34.3562 47.8382 34.5962 47.9182 34.7574 47.9182C34.9185 47.9182 35.1585 47.8382 35.3196 47.6771C35.6408 47.356 35.6408 46.8737 35.3196 46.5525L32.2683 43.6612V38.5218C33.0717 38.3607 33.874 38.1207 34.5162 37.6384L38.1299 41.2521V45.428C38.1299 45.9103 38.451 46.2314 38.9333 46.2314C39.4156 46.2314 39.7367 45.9103 39.7367 45.428V42.8577L41.9846 45.1057C42.1458 45.2668 42.3858 45.3468 42.5469 45.3468C42.7081 45.3468 42.948 45.2668 43.1092 45.1057C43.4303 44.7845 43.4303 44.3022 43.1092 43.9811L40.8613 41.7332H43.4315C43.9138 41.7332 44.2349 41.412 44.2349 40.9298C44.2349 40.4475 43.9138 40.1263 43.4315 40.1263H39.2556L35.7219 36.5927C36.2042 35.9504 36.6054 35.147 36.7653 34.3447H41.7447L44.716 37.3161C44.8772 37.4773 45.1172 37.5573 45.2783 37.5573C45.4395 37.5573 45.6794 37.4773 45.8406 37.3161C46.1617 36.995 46.1617 36.5127 45.8406 36.1916L43.9138 34.2648H47.1263C47.6086 34.2648 47.9297 33.9436 47.9297 33.4613C47.9297 32.979 47.6086 32.6579 47.1263 32.6579H43.9138L45.7606 30.8111C46.0817 30.49 46.0817 30.0077 45.7606 29.6865C45.4395 29.3654 44.9572 29.3654 44.6361 29.6865L41.6647 32.6579H36.7665C36.6865 31.7745 36.3654 30.9711 35.8831 30.2488L39.3356 26.7963H43.5115C43.9938 26.7963 44.3149 26.4752 44.3149 25.9929C44.3149 25.5106 43.9938 25.1895 43.5115 25.1895H40.9413L43.1892 22.9416C43.5103 22.6204 43.5103 22.1381 43.1892 21.817C42.8681 21.4959 42.3858 21.4959 42.0646 21.817L39.8167 24.0649V21.4947C39.8167 21.0124 39.4956 20.6913 39.0133 20.6913C38.531 20.6913 38.2099 21.0124 38.2099 21.4947V25.6706L34.6762 29.1231C33.9539 28.5608 33.1505 28.2397 32.2671 28.0797V23.2615L35.2385 20.2901C35.5596 19.969 35.5596 19.4867 35.2385 19.1656C34.9173 18.8445 34.4351 18.8445 34.1139 19.1656L32.2671 21.0124V17.8034C32.2648 17.3211 31.9436 17 31.4625 17C30.9814 17 30.6591 17.3211 30.6591 17.8034V21.0159L28.8123 19.1691C28.4911 18.848 28.0089 18.848 27.6877 19.1691C27.3666 19.4903 27.3666 19.9725 27.6877 20.2937L30.6591 23.265V28.0832C29.7757 28.2444 28.9723 28.5655 28.25 29.1266L24.8775 25.7541V21.5782C24.8775 21.0959 24.5564 20.7748 24.0741 20.7748C23.5918 20.7748 23.2707 21.0959 23.2707 21.5782V24.1485L21.0227 21.9005C20.7016 21.5794 20.2193 21.5794 19.8982 21.9005C19.577 22.2217 19.577 22.7039 19.8982 23.0251L22.1461 25.273H19.5759C19.0936 25.273 18.7724 25.5941 18.7724 26.0764C18.7724 26.5587 19.0936 26.8799 19.5759 26.8799H23.7518L27.2043 30.3323C26.722 31.0546 26.4008 31.858 26.3208 32.7414H21.4227L18.4513 29.7701C18.1302 29.4489 17.6479 29.4489 17.3267 29.7701C17.0056 30.0912 17.0056 30.5735 17.3267 30.8946L19.0136 32.6614H15.8034C15.3211 32.6614 15 32.9826 15 33.4649C15 33.9472 15.3211 34.2683 15.8034 34.2683V34.2648ZM31.4625 29.6077C33.4705 29.6077 35.1561 31.2946 35.1561 33.3014C35.1561 35.3081 33.4693 36.995 31.4625 36.995C30.4991 36.995 29.6157 36.5939 28.9734 35.9516C28.2512 35.3093 27.8489 34.3459 27.8489 33.3014C27.7689 31.2934 29.4545 29.6077 31.4625 29.6077Z" fill="white"/>
</g>
<defs>
<clipPath id="clip0_4505_10181">
<rect width="53" height="53" fill="white" transform="translate(15 17)"/>
</clipPath>
</defs>
</svg>
