<svg width="56" height="56" viewBox="0 0 56 56" fill="none" xmlns="http://www.w3.org/2000/svg">
<rect width="56" height="56" rx="28" fill="#1341AE"/>
<g clip-path="url(#clip0_4505_10585)">
<g clip-path="url(#clip1_4505_10585)">
<path fill-rule="evenodd" clip-rule="evenodd" d="M41.6294 33.8245L39.0389 32.3065L40.0949 32.092C40.9859 31.9105 41.5634 31.036 41.3654 30.145C41.1839 29.254 40.3094 28.66 39.4184 28.8415L34.7159 29.782L31.2674 27.769L34.5179 25.8715L40.2434 27.142C41.1344 27.34 42.0089 26.779 42.2069 25.8715C42.4049 24.9805 41.8439 24.0895 40.9694 23.8915L38.7419 23.3965L41.4314 21.829C42.2234 21.367 42.4874 20.3605 42.0419 19.5685C41.5964 18.7765 40.5899 18.5125 39.7979 18.9745L37.1909 20.4925L37.8179 18.6115C38.0984 17.737 37.6364 16.813 36.7784 16.516C35.9204 16.2355 34.9799 16.6975 34.6994 17.572L32.9009 23.0005L29.4689 25.0135V21.1855L33.2969 16.681C33.8909 15.988 33.8084 14.9485 33.1154 14.3545C32.4224 13.7605 31.3829 13.843 30.7889 14.536L29.4689 16.087V13.15C29.4689 12.2425 28.7264 11.5 27.8189 11.5C26.9114 11.5 26.1689 12.2425 26.1689 13.15V16.1035L24.8324 14.5525C24.2384 13.8595 23.1989 13.777 22.5059 14.371C21.8129 14.965 21.7304 16.0045 22.3244 16.6975L26.1689 21.202V24.8155L23.0999 23.017L21.2024 17.572C20.9054 16.714 19.9649 16.252 19.1069 16.549C18.2489 16.846 17.8034 17.7865 18.1004 18.661L18.7274 20.4595L16.2029 18.991C15.4109 18.529 14.4044 18.793 13.9589 19.585C13.5134 20.377 13.7774 21.3835 14.5694 21.8455L17.2589 23.413L15.0314 23.908C14.1404 24.106 13.5959 24.9805 13.7939 25.888C13.9919 26.779 14.8664 27.3565 15.7574 27.1585L21.4829 25.888L24.7334 27.7855L21.2519 29.815L15.4769 28.8415C14.5859 28.693 13.7279 29.3035 13.5794 30.211C13.4309 31.1185 14.0249 31.96 14.9159 32.125L16.7804 32.4385L14.3879 33.841C13.5959 34.303 13.3319 35.3095 13.7774 36.1015C14.2229 36.8935 15.2294 37.1575 16.0214 36.6955L18.1829 35.4415L17.4239 37.273C17.0774 38.1145 17.4734 39.088 18.2984 39.4345C19.1399 39.781 20.0969 39.385 20.4434 38.527L22.8524 32.686L26.1524 30.7555V34.765L22.3574 38.824C21.7304 39.484 21.7634 40.54 22.4399 41.1505C23.0999 41.7775 24.1559 41.7445 24.7664 41.068L26.1524 39.583V42.817C26.1524 43.7245 26.8949 44.467 27.8024 44.467C28.7099 44.467 29.4524 43.7245 29.4524 42.817V39.583L30.8219 41.0515C31.4489 41.7115 32.4884 41.761 33.1484 41.134C33.8084 40.507 33.8579 39.4675 33.2309 38.8075L29.4524 34.7485V30.5245L33.0989 32.653L34.8479 37.603C35.1614 38.461 36.1019 38.923 36.9434 38.6095C37.8014 38.3125 38.2469 37.3555 37.9334 36.4975L37.4714 35.2105L39.9629 36.6625C40.7549 37.1245 41.7614 36.8605 42.2069 36.0685C42.6524 35.2765 42.3884 34.27 41.5964 33.808L41.6294 33.8245Z" fill="white"/>
</g>
</g>
<defs>
<clipPath id="clip0_4505_10585">
<rect width="33" height="33" fill="white" transform="translate(11.5 11.5)"/>
</clipPath>
<clipPath id="clip1_4505_10585">
<rect width="28.8915" height="33" fill="white" transform="translate(13.5625 11.5)"/>
</clipPath>
</defs>
</svg>
