<svg width="41" height="40" viewBox="0 0 41 40" fill="none" xmlns="http://www.w3.org/2000/svg">
<g clip-path="url(#clip0_4526_7816)">
<path fill-rule="evenodd" clip-rule="evenodd" d="M37.0198 27.06L33.8798 25.22L35.1598 24.96C36.2398 24.74 36.9398 23.68 36.6998 22.6C36.4798 21.52 35.4198 20.8 34.3398 21.02L28.6398 22.16L24.4598 19.72L28.3998 17.42L35.3398 18.96C36.4198 19.2 37.4798 18.52 37.7198 17.42C37.9598 16.34 37.2798 15.26 36.2198 15.02L33.5198 14.42L36.7798 12.52C37.7398 11.96 38.0598 10.74 37.5198 9.78C36.9798 8.82 35.7598 8.5 34.7998 9.06L31.6398 10.9L32.3998 8.62C32.7398 7.56 32.1798 6.44 31.1398 6.08C30.0998 5.74 28.9598 6.3 28.6198 7.36L26.4398 13.94L22.2798 16.38V11.74L26.9198 6.28C27.6398 5.44 27.5398 4.18 26.6998 3.46C25.8598 2.74 24.5998 2.84 23.8798 3.68L22.2798 5.56V2C22.2798 0.9 21.3798 0 20.2798 0C19.1798 0 18.2798 0.9 18.2798 2V5.58L16.6598 3.7C15.9398 2.86 14.6798 2.76 13.8398 3.48C12.9998 4.2 12.8998 5.46 13.6198 6.3L18.2798 11.76V16.14L14.5598 13.96L12.2598 7.36C11.8998 6.32 10.7598 5.76 9.71975 6.12C8.67975 6.48 8.13975 7.62 8.49975 8.68L9.25975 10.86L6.19975 9.08C5.23975 8.52 4.01975 8.84 3.47975 9.8C2.93975 10.76 3.25975 11.98 4.21975 12.54L7.47975 14.44L4.77975 15.04C3.69975 15.28 3.03975 16.34 3.27975 17.44C3.51975 18.52 4.57975 19.22 5.65975 18.98L12.5998 17.44L16.5398 19.74L12.3198 22.2L5.31975 21.02C4.23975 20.84 3.19975 21.58 3.01975 22.68C2.83975 23.78 3.55975 24.8 4.63975 25L6.89975 25.38L3.99975 27.08C3.03975 27.64 2.71975 28.86 3.25975 29.82C3.79975 30.78 5.01975 31.1 5.97975 30.54L8.59975 29.02L7.67975 31.24C7.25975 32.26 7.73975 33.44 8.73975 33.86C9.75975 34.28 10.9198 33.8 11.3398 32.76L14.2598 25.68L18.2598 23.34V28.2L13.6598 33.12C12.8998 33.92 12.9398 35.2 13.7598 35.94C14.5598 36.7 15.8398 36.66 16.5798 35.84L18.2598 34.04V37.96C18.2598 39.06 19.1598 39.96 20.2598 39.96C21.3598 39.96 22.2598 39.06 22.2598 37.96V34.04L23.9198 35.82C24.6798 36.62 25.9398 36.68 26.7398 35.92C27.5398 35.16 27.5998 33.9 26.8398 33.1L22.2598 28.18V23.06L26.6798 25.64L28.7998 31.64C29.1798 32.68 30.3198 33.24 31.3398 32.86C32.3798 32.5 32.9198 31.34 32.5398 30.3L31.9798 28.74L34.9998 30.5C35.9598 31.06 37.1798 30.74 37.7198 29.78C38.2598 28.82 37.9398 27.6 36.9798 27.04L37.0198 27.06Z" fill="#1341AE"/>
</g>
<defs>
<clipPath id="clip0_4526_7816">
<rect width="35.02" height="40" fill="white" transform="translate(3)"/>
</clipPath>
</defs>
</svg>
