<svg width="56" height="56" viewBox="0 0 56 56" fill="none" xmlns="http://www.w3.org/2000/svg">
<rect width="56" height="56" rx="28" fill="#1341AE"/>
<g clip-path="url(#clip0_4505_10592)">
<path d="M44.0878 42.0717C43.801 42.3593 43.4602 42.5876 43.0851 42.7433C42.7099 42.899 42.3077 42.9792 41.9015 42.9792C41.4953 42.9792 41.0931 42.899 40.718 42.7433C40.3428 42.5876 40.0021 42.3593 39.7153 42.0717L36.6318 38.9985C38.5544 38.0866 40.1027 36.5383 41.0146 34.6157L44.0878 37.6992C44.6626 38.2816 44.985 39.067 44.985 39.8854C44.985 40.7038 44.6626 41.4892 44.0878 42.0717Z" fill="white"/>
<path d="M32.6406 23.4063C31.2129 23.4063 29.8172 23.8296 28.6301 24.6228C27.443 25.416 26.5177 26.5435 25.9714 27.8625C25.425 29.1816 25.282 30.633 25.5606 32.0333C25.8391 33.4336 26.5266 34.7199 27.5362 35.7294C28.5458 36.739 29.832 37.4265 31.2323 37.705C32.6326 37.9836 34.0841 37.8406 35.4031 37.2943C36.7222 36.7479 37.8496 35.8226 38.6428 34.6355C39.436 33.4484 39.8594 32.0527 39.8594 30.625C39.8594 28.7105 39.0988 26.8744 37.7451 25.5206C36.3913 24.1668 34.5552 23.4063 32.6406 23.4063ZM36.2011 29.2468L32.5802 32.8678C32.3868 33.0611 32.1245 33.1697 31.8511 33.1697C31.5776 33.1697 31.3153 33.0611 31.1219 32.8678L29.6737 31.4196C29.5756 31.3244 29.4973 31.2106 29.4436 31.0848C29.3898 30.9591 29.3616 30.8239 29.3606 30.6872C29.3595 30.5505 29.3857 30.4149 29.4375 30.2883C29.4894 30.1618 29.5659 30.0469 29.6626 29.9502C29.7593 29.8535 29.8743 29.777 30.0008 29.7251C30.1273 29.6733 30.2629 29.6471 30.3997 29.6482C30.5364 29.6492 30.6716 29.6774 30.7973 29.7312C30.923 29.785 31.0368 29.8632 31.132 29.9614L31.8511 30.6804L34.7429 27.7891C34.9373 27.6005 35.198 27.496 35.4688 27.4981C35.7396 27.5001 35.9987 27.6086 36.1902 27.8001C36.3816 27.9916 36.4901 28.2507 36.4922 28.5215C36.4942 28.7923 36.3897 29.0525 36.2011 29.2468Z" fill="white"/>
<path d="M32.6406 39.9062C33.1416 39.9069 33.6418 39.8655 34.1359 39.7825C32.1883 41.448 29.8041 42.5204 27.2658 42.8727C24.7274 43.225 22.1413 42.8425 19.8137 41.7704C17.486 40.6982 15.5144 38.9815 14.1324 36.8234C12.7503 34.6654 12.0158 32.1564 12.0156 29.5937C12.0156 22.3956 24.1947 10.7734 24.7103 10.2784C24.904 10.0994 25.1581 10 25.4219 10C25.6856 10 25.9397 10.0994 26.1334 10.2784C29.8059 13.8121 33.0934 17.7252 35.9406 21.9522C34.8873 21.5487 33.7686 21.3424 32.6406 21.3437C30.1791 21.3437 27.8184 22.3216 26.0778 24.0622C24.3372 25.8027 23.3594 28.1634 23.3594 30.625C23.3594 33.0865 24.3372 35.4473 26.0778 37.1878C27.8184 38.9284 30.1791 39.9062 32.6406 39.9062Z" fill="white"/>
</g>
<defs>
<clipPath id="clip0_4505_10592">
<rect width="33" height="33" fill="white" transform="translate(12 10)"/>
</clipPath>
</defs>
</svg>
