<svg width="52" height="52" viewBox="0 0 52 52" fill="none" xmlns="http://www.w3.org/2000/svg">
<rect width="52" height="52" rx="26" fill="#1341AE"/>
<g clip-path="url(#clip0_4505_10142)">
<path d="M39.0121 17.9986C37.744 16.5244 35.993 15.5439 34.0829 15.238C33.7494 15.1844 33.4353 15.4118 33.3818 15.7453C33.3283 16.0788 33.5557 16.3929 33.8892 16.4464C35.5147 16.7065 37.0046 17.5412 38.0846 18.7966C39.1758 20.0647 39.777 21.6862 39.777 23.3617C39.777 27.2237 36.635 30.3662 32.7725 30.3662C32.1101 30.3662 31.4687 30.2739 30.8603 30.101C30.8588 30.101 30.8568 30.1 30.8552 30.0995C28.9237 29.5488 27.3303 28.1884 26.467 26.4099C26.4584 26.392 26.4502 26.3742 26.4415 26.3563C26.4288 26.3298 26.4166 26.3033 26.4043 26.2768C26.3921 26.2503 26.3798 26.2233 26.3681 26.1962C26.361 26.1799 26.3538 26.1636 26.3467 26.1468C26.3319 26.1131 26.3176 26.0795 26.3034 26.0458C26.3013 26.0412 26.2998 26.0366 26.2978 26.032C26.1009 25.5548 25.9551 25.053 25.8669 24.534C25.8664 24.5299 25.8654 24.5258 25.8648 24.5217C25.8363 24.3504 25.8139 24.1775 25.7981 24.0026C25.796 23.9792 25.7935 23.9557 25.7919 23.9323C25.7899 23.9047 25.7879 23.8777 25.7858 23.8502C25.7838 23.8211 25.7817 23.792 25.7802 23.763C25.7787 23.739 25.7777 23.7145 25.7766 23.6906C25.7751 23.6559 25.7736 23.6212 25.7726 23.586C25.772 23.5662 25.771 23.5468 25.7705 23.5269C25.769 23.4718 25.7685 23.4168 25.7685 23.3617C25.7685 23.2944 25.77 23.2271 25.7715 23.1603C25.772 23.1424 25.7726 23.1246 25.7736 23.1067C25.7756 23.0491 25.7782 22.9915 25.7817 22.9344C25.7822 22.9242 25.7828 22.9135 25.7833 22.9033C25.7879 22.8365 25.793 22.7697 25.7996 22.7034C25.8011 22.6881 25.8026 22.6723 25.8042 22.657C25.8098 22.6019 25.8159 22.5474 25.8225 22.4928C25.8246 22.478 25.8261 22.4632 25.8281 22.4485C25.8368 22.3832 25.846 22.3174 25.8567 22.2527C25.8587 22.2384 25.8618 22.2241 25.8638 22.2103C25.8725 22.1583 25.8817 22.1068 25.8914 22.0553C25.8954 22.0349 25.899 22.015 25.9031 21.9946C25.9153 21.9335 25.9281 21.8723 25.9418 21.8111C25.9459 21.7937 25.95 21.7764 25.9541 21.7591C25.9648 21.7137 25.976 21.6683 25.9872 21.6234C25.9944 21.5959 26.0015 21.5684 26.0086 21.5408C26.0183 21.5046 26.0285 21.4684 26.0387 21.4327C26.0525 21.3848 26.0668 21.3369 26.0816 21.2895C26.0912 21.2589 26.1004 21.2283 26.1101 21.1977C26.1218 21.1615 26.1341 21.1253 26.1463 21.0891C26.1535 21.0682 26.1606 21.0478 26.1682 21.0269C26.2136 20.8984 26.2626 20.7714 26.3156 20.6454C26.3202 20.6342 26.3248 20.6235 26.3294 20.6123C26.3849 20.4818 26.4451 20.3528 26.5083 20.2258C26.514 20.2146 26.5196 20.2034 26.5252 20.1927C26.5456 20.1529 26.566 20.1131 26.5869 20.0733C26.594 20.0601 26.6011 20.0468 26.6083 20.0341C26.8484 19.5889 27.1376 19.1688 27.4731 18.7813C28.5622 17.5228 30.0629 16.6912 31.6981 16.4403C32.0321 16.3888 32.261 16.0767 32.2101 15.7428C32.1586 15.4088 31.8465 15.1793 31.5125 15.2308C29.5902 15.526 27.8269 16.5025 26.5476 17.9807C26.3926 18.1597 26.2463 18.3448 26.1081 18.5355L25.2637 17.3546C25.0674 17.0797 24.6849 17.016 24.4101 17.2128C24.1353 17.4091 24.0715 17.7915 24.2684 18.0664L25.4161 19.672C25.3927 19.719 25.3702 19.7664 25.3473 19.8138C25.3463 19.8158 25.3453 19.8184 25.3442 19.8204C25.3198 19.8714 25.2958 19.9229 25.2729 19.9749C25.2693 19.9826 25.2662 19.9897 25.2627 19.9974C25.1928 20.1529 25.128 20.311 25.0679 20.4706C25.0648 20.4787 25.0612 20.4874 25.0582 20.4955C25.0414 20.5409 25.025 20.5858 25.0092 20.6317C25.0016 20.6531 24.9944 20.674 24.9873 20.6954C24.973 20.7372 24.9588 20.7796 24.945 20.8214C24.9363 20.8479 24.9282 20.8749 24.9195 20.9019C24.9011 20.9611 24.8828 21.0207 24.866 21.0804C24.8542 21.1207 24.8425 21.161 24.8318 21.2012C24.8236 21.2318 24.8155 21.2624 24.8078 21.293C24.7971 21.3338 24.7869 21.3746 24.7772 21.4154C24.7706 21.4434 24.7635 21.472 24.7568 21.5C24.7451 21.5505 24.7339 21.6015 24.7232 21.652C24.7191 21.6703 24.715 21.6887 24.7115 21.7076C24.6972 21.7774 24.6839 21.8473 24.6712 21.9171C24.6681 21.935 24.6651 21.9523 24.662 21.9702C24.6523 22.0252 24.6436 22.0803 24.6355 22.1354C24.6324 22.1568 24.6289 22.1782 24.6258 22.2001C24.6176 22.2562 24.6105 22.3128 24.6034 22.3694C24.6013 22.3857 24.5993 22.4021 24.5972 22.4184C24.5886 22.4913 24.5814 22.5642 24.5748 22.6376C24.5738 22.6483 24.5733 22.6585 24.5723 22.6692C24.5672 22.7309 24.5626 22.7932 24.5585 22.8548C24.557 22.8768 24.5559 22.8987 24.5549 22.9211C24.5519 22.9742 24.5498 23.0277 24.5478 23.0807C24.5473 23.1022 24.5462 23.1236 24.5457 23.145C24.5437 23.2174 24.5427 23.2903 24.5427 23.3632C24.5427 23.4275 24.5437 23.4912 24.5452 23.5544C24.5452 23.5758 24.5468 23.5978 24.5473 23.6192C24.5488 23.661 24.5503 23.7028 24.5519 23.7446C24.5529 23.7706 24.5544 23.7961 24.5559 23.8216C24.558 23.8594 24.5605 23.8966 24.5631 23.9338C24.5651 23.9608 24.5666 23.9884 24.5687 24.0154C24.5717 24.0541 24.5753 24.0929 24.5789 24.1316C24.584 24.1882 24.5901 24.2443 24.5962 24.3004C24.5983 24.3198 24.6003 24.3392 24.6028 24.3585C24.6079 24.4014 24.6136 24.4437 24.6197 24.486C24.6217 24.4998 24.6232 24.513 24.6253 24.5268C24.6992 25.0479 24.8221 25.5538 24.9899 26.0392C24.5539 26.0203 24.1577 25.8107 23.8951 25.4569C23.7166 25.2157 23.4306 25.0719 23.1308 25.0719C22.8309 25.0719 22.5454 25.2162 22.3669 25.4569C22.0921 25.8281 21.6699 26.0412 21.2089 26.0412C20.748 26.0412 20.3258 25.8281 20.051 25.4569C19.8725 25.2157 19.5864 25.0719 19.2866 25.0719C18.9868 25.0719 18.7013 25.2157 18.5228 25.4569C18.248 25.8281 17.8258 26.0412 17.3648 26.0412C16.9039 26.0412 16.4817 25.8281 16.2068 25.4569C16.0284 25.2157 15.7428 25.0719 15.443 25.0719C15.1432 25.0719 14.8576 25.2157 14.6787 25.4569C14.4038 25.8281 13.9816 26.0412 13.5207 26.0412C13.3121 26.0412 13.1076 25.9958 12.9215 25.9102C13.1846 25.2861 13.5202 24.6864 13.924 24.1214L20.8479 14.4364C20.9443 14.3013 21.0952 14.2238 21.2615 14.2238C21.4277 14.2238 21.5781 14.3013 21.6745 14.4364L22.885 16.1293C23.0813 16.4041 23.4637 16.4678 23.7386 16.271C24.0134 16.0747 24.0771 15.6923 23.8803 15.4174L22.6698 13.7246C22.3455 13.2708 21.8188 13 21.2615 13C20.7036 13 20.1769 13.2708 19.8526 13.7246L12.9282 23.4081C12.3678 24.1918 11.9237 25.0357 11.6034 25.9173C11.6009 25.9239 11.5973 25.9301 11.5948 25.9372C11.5728 25.9974 11.553 26.058 11.5326 26.1187C11.5275 26.1335 11.5224 26.1478 11.5173 26.1626C11.5015 26.2095 11.4867 26.2559 11.4719 26.3028C11.4551 26.3558 11.4387 26.4094 11.4224 26.4629C11.4112 26.5006 11.4 26.5389 11.3893 26.5766C11.3679 26.6516 11.347 26.727 11.3271 26.8025C11.325 26.8096 11.323 26.8168 11.3215 26.8239C11.1532 27.471 11.0497 28.1328 11.014 28.8018C10.9329 30.3315 11.2052 31.8699 11.8018 33.2981C11.815 33.3302 11.8278 33.3624 11.8416 33.3945C11.866 33.4516 11.892 33.5082 11.9175 33.5653C11.9369 33.6081 11.9558 33.6515 11.9757 33.6938C12.0007 33.7473 12.0267 33.8004 12.0527 33.8534C12.0746 33.8983 12.0965 33.9431 12.1189 33.9875C12.1297 34.0089 12.1399 34.0308 12.1511 34.0523C12.1674 34.0839 12.1847 34.1145 12.201 34.1456C12.224 34.1884 12.2464 34.2318 12.2699 34.2746C12.2995 34.3286 12.329 34.3822 12.3596 34.4357C12.3821 34.475 12.4045 34.5137 12.4274 34.553C12.4606 34.6091 12.4937 34.6652 12.5274 34.7207C12.5483 34.7549 12.5697 34.7886 12.5906 34.8227C12.6278 34.8819 12.6651 34.941 12.7033 34.9992C12.7222 35.0277 12.741 35.0557 12.7604 35.0843C12.8022 35.1465 12.8435 35.2087 12.8864 35.2699C12.8894 35.274 12.892 35.2781 12.8945 35.2821C12.9088 35.3025 12.9236 35.3224 12.9384 35.3423C12.9832 35.4055 13.0281 35.4683 13.0745 35.5305C13.099 35.5631 13.1245 35.5952 13.1489 35.6273C13.1882 35.6788 13.227 35.7303 13.2672 35.7808C14.9015 37.8383 17.2027 39.1472 19.7858 39.5082C19.8103 39.5118 19.8348 39.5148 19.8592 39.5179C19.9388 39.5286 20.0183 39.5383 20.0979 39.547C20.1448 39.5521 20.1912 39.5572 20.2381 39.5612C20.2799 39.5653 20.3222 39.5694 20.364 39.573C20.4364 39.5791 20.5089 39.5842 20.5813 39.5888C20.6098 39.5908 20.6379 39.5923 20.6664 39.5939C20.7511 39.5985 20.8357 39.6025 20.9209 39.6051C20.9407 39.6056 20.9606 39.6061 20.9805 39.6066C21.0723 39.6092 21.1641 39.6107 21.2564 39.6107C21.2579 39.6107 21.2594 39.6107 21.2604 39.6107C23.8691 39.6107 26.2463 38.7 28.1349 36.9776C29.4148 35.8104 30.378 34.3383 30.944 32.7148C31.0873 32.3043 31.205 31.8842 31.2958 31.4569C31.7746 31.5441 32.2677 31.5894 32.7709 31.5894C37.308 31.5894 40.9992 27.8983 40.9992 23.3612C40.9992 21.393 40.293 19.488 39.0111 17.9975L39.0121 17.9986ZM13.5207 27.2635C14.2473 27.2635 14.9443 26.9616 15.443 26.443C15.9422 26.9616 16.6387 27.2635 17.3653 27.2635C18.0919 27.2635 18.7884 26.9616 19.2876 26.443C19.7868 26.9616 20.4834 27.2635 21.21 27.2635C21.9366 27.2635 22.6331 26.9616 23.1323 26.443C23.6315 26.9616 24.328 27.2635 25.0546 27.2635C25.2071 27.2635 25.358 27.2507 25.5064 27.2252C26.4135 28.9329 27.8764 30.252 29.6498 30.9765C29.6524 30.9776 29.6549 30.9786 29.6575 30.9796C29.7034 30.9985 29.7493 31.0168 29.7957 31.0347C29.8069 31.0388 29.8176 31.0428 29.8288 31.0474C29.8701 31.0632 29.9114 31.079 29.9527 31.0938C29.9726 31.101 29.992 31.1076 30.0119 31.1147C30.045 31.1265 30.0776 31.1382 30.1108 31.1494C30.0578 31.4049 29.994 31.6573 29.9201 31.9066C29.4464 33.499 28.5454 34.9471 27.3109 36.0735C25.6512 37.5869 23.5591 38.3869 21.261 38.3869C21.1585 38.3869 21.056 38.3849 20.954 38.3818C20.926 38.3808 20.8979 38.3793 20.8699 38.3783C20.7949 38.3752 20.7205 38.3716 20.6455 38.3665C20.6144 38.3645 20.5838 38.3619 20.5532 38.3599C20.4798 38.3543 20.4064 38.3482 20.3329 38.341C20.3049 38.3385 20.2768 38.3354 20.2488 38.3324C20.1688 38.3237 20.0887 38.314 20.0092 38.3033C19.9893 38.3008 19.9694 38.2982 19.9495 38.2951C19.641 38.2513 19.3361 38.1927 19.0363 38.1182C19.0245 38.1152 19.0133 38.1121 19.0016 38.1095C18.9159 38.0881 18.8308 38.0652 18.7456 38.0412C18.7252 38.0356 18.7053 38.0295 18.6849 38.0239C18.6079 38.0014 18.5315 37.978 18.4555 37.9535C18.433 37.9464 18.4106 37.9392 18.3882 37.9316C18.3117 37.9066 18.2352 37.8801 18.1597 37.8526C18.1404 37.8454 18.121 37.8388 18.1016 37.8316C17.9165 37.7633 17.7335 37.6894 17.5535 37.6088C17.5198 37.594 17.4872 37.5782 17.454 37.5629C17.3995 37.5379 17.3449 37.5125 17.2914 37.4859C17.2526 37.4671 17.2139 37.4477 17.1751 37.4283C17.1267 37.4038 17.0782 37.3789 17.0298 37.3534C16.9911 37.333 16.9523 37.3121 16.9135 37.2912C16.8631 37.2636 16.8126 37.2351 16.7626 37.206C16.729 37.1866 16.6953 37.1678 16.6622 37.1479C16.5821 37.1005 16.5026 37.052 16.424 37.002C16.422 37.001 16.4205 36.9995 16.4184 36.9985C16.1681 36.8384 15.9259 36.666 15.6928 36.4819C15.6918 36.4809 15.6903 36.4799 15.6893 36.4789C15.6133 36.4187 15.5383 36.3575 15.4644 36.2953C15.4619 36.2933 15.4593 36.2912 15.4568 36.2887C15.3844 36.2275 15.313 36.1648 15.2426 36.1016C15.239 36.0985 15.2355 36.0949 15.2319 36.0919C15.1631 36.0297 15.0952 35.9664 15.0284 35.9017C15.0233 35.8971 15.0182 35.892 15.0137 35.8874C14.9489 35.8247 14.8857 35.7609 14.823 35.6967C14.8163 35.6896 14.8097 35.6829 14.8026 35.6763C14.7424 35.6141 14.6837 35.5514 14.6256 35.4876C14.617 35.4779 14.6078 35.4688 14.5991 35.4591C14.5445 35.3989 14.491 35.3372 14.4385 35.2755C14.4268 35.2623 14.415 35.249 14.4038 35.2357C14.3584 35.1827 14.3146 35.1282 14.2707 35.0736C14.2065 34.9941 14.1433 34.9135 14.0816 34.8314C14.0734 34.8207 14.0652 34.8105 14.0571 34.7998C14.0117 34.7391 13.9678 34.6779 13.924 34.6157C13.9133 34.6004 13.9021 34.5851 13.8909 34.5698C13.8562 34.5204 13.8225 34.4704 13.7889 34.4199C13.7715 34.3939 13.7537 34.3679 13.7364 34.3414C13.7053 34.294 13.6747 34.246 13.6441 34.1981C13.6247 34.1675 13.6058 34.1369 13.587 34.1063C13.5589 34.0604 13.5309 34.0145 13.5033 33.9681C13.4824 33.9329 13.462 33.8973 13.4416 33.8616C13.4166 33.8182 13.3917 33.7754 13.3677 33.7315C13.3366 33.6749 13.306 33.6178 13.2759 33.5602C13.2484 33.5072 13.2214 33.4542 13.1943 33.4011C13.1704 33.3532 13.1464 33.3053 13.1229 33.2568C13.1036 33.2165 13.0852 33.1763 13.0663 33.1355C13.0465 33.0926 13.0271 33.0498 13.0077 33.007C12.9883 32.9636 12.9695 32.9198 12.9511 32.8764C12.9348 32.8377 12.9185 32.7984 12.9027 32.7597C12.8833 32.7117 12.8639 32.6643 12.845 32.6164C12.8338 32.5873 12.8231 32.5577 12.8119 32.5282C12.1562 30.7879 12.044 28.8885 12.5146 27.0972C12.5172 27.088 12.5197 27.0789 12.5218 27.0697C12.8364 27.1967 13.175 27.2635 13.5196 27.2635H13.5207Z" fill="white"/>
<path d="M33.2432 25.167C33.2432 26.2026 34.0855 27.045 35.1211 27.045C36.1567 27.045 36.9991 26.2026 36.9991 25.167C36.9991 24.1314 36.1567 23.2891 35.1211 23.2891C34.0855 23.2891 33.2432 24.1314 33.2432 25.167ZM35.7758 25.167C35.7758 25.528 35.4821 25.8212 35.1216 25.8212C34.7611 25.8212 34.4674 25.5275 34.4674 25.167C34.4674 24.8065 34.7611 24.5128 35.1216 24.5128C35.4821 24.5128 35.7758 24.8065 35.7758 25.167Z" fill="white"/>
<path d="M30.4561 19.625C29.4205 19.625 28.5781 20.4674 28.5781 21.503C28.5781 22.5386 29.4205 23.3809 30.4561 23.3809C31.4917 23.3809 32.3341 22.5386 32.3341 21.503C32.3341 20.4674 31.4917 19.625 30.4561 19.625ZM30.4561 22.1572C30.0951 22.1572 29.8019 21.8635 29.8019 21.503C29.8019 21.1425 30.0956 20.8488 30.4561 20.8488C30.8166 20.8488 31.1103 21.1425 31.1103 21.503C31.1103 21.8635 30.8166 22.1572 30.4561 22.1572Z" fill="white"/>
<path d="M34.9313 19.0535C34.6279 18.9051 34.2613 19.031 34.1129 19.3344L30.4646 26.7989C30.3162 27.1023 30.4422 27.4689 30.7456 27.6173C30.8322 27.6596 30.9235 27.6795 31.0138 27.6795C31.2402 27.6795 31.4579 27.553 31.564 27.3363L35.2123 19.8719C35.3607 19.5685 35.2347 19.2019 34.9313 19.0535Z" fill="white"/>
</g>
<defs>
<clipPath id="clip0_4505_10142">
<rect width="30" height="26.6107" fill="white" transform="translate(11 13)"/>
</clipPath>
</defs>
</svg>
