<svg width="48" height="48" viewBox="0 0 48 48" fill="none" xmlns="http://www.w3.org/2000/svg">
<g clip-path="url(#clip0_4525_7597)">
<path d="M42.7293 29.5596C42.7293 29.9229 42.4338 30.2185 42.0705 30.2185H0.657895C0.481892 30.2185 0.316242 30.1498 0.192004 30.0255C0.067766 29.9004 0 29.7357 0 29.5596C0 29.4684 0.0178827 29.3799 0.0545893 29.2961L5.32528 17.2488C5.42975 17.0088 5.66694 16.8535 5.92859 16.8535H14.2111C14.5744 16.8535 14.8699 17.1491 14.8699 17.5124C14.8699 17.8757 14.5744 18.1712 14.2111 18.1712H6.35965L1.66497 28.9008H42.0705C42.4338 28.9008 42.7293 29.1963 42.7293 29.5596Z" fill="#1341AE"/>
<path d="M47.6045 30.1639C47.5207 30.1997 47.4322 30.2185 47.341 30.2185H44.3291C43.9658 30.2185 43.6703 29.9229 43.6703 29.5596C43.6703 29.1963 43.9658 28.9008 44.3291 28.9008H46.3339L41.6392 18.1712H33.7877C33.4244 18.1712 33.1289 17.8757 33.1289 17.5124C33.1289 17.1491 33.4244 16.8535 33.7877 16.8535H42.0703C42.3319 16.8535 42.5691 17.0088 42.6736 17.2488L47.9443 29.2961C48.0901 29.6293 47.9367 30.018 47.6045 30.1639Z" fill="#1341AE"/>
<path d="M32.1882 15.2506C32.0753 19.7307 28.479 23.328 23.9998 23.4419C19.5207 23.328 15.9244 19.7307 15.8115 15.2516C15.7427 12.5042 16.9155 9.92065 19.0313 8.15967C19.1583 8.04108 19.3202 7.98178 19.4821 7.98178C19.6581 7.98178 19.8332 8.05143 19.9631 8.18979C20.0835 8.31873 20.1466 8.48627 20.1409 8.66227C20.1353 8.83733 20.0609 9.0011 19.9377 9.11687C18.1164 10.6077 17.0661 12.9033 17.1291 15.2563C17.2242 19.0126 20.2407 22.0291 24.0027 22.1242C27.759 22.0291 30.7755 19.0126 30.8706 15.2535C30.8706 11.5913 29.0785 10.0025 27.1764 8.31591C25.9058 7.32765 24.8648 6.11257 24.0817 4.70643L23.997 4.55301L23.9161 4.70831C23.3768 5.74833 22.6596 6.66976 21.7815 7.45001C21.6534 7.57142 21.4859 7.63542 21.3109 7.62978C21.1348 7.62507 20.9711 7.55166 20.8497 7.42366C20.7292 7.29565 20.6652 7.12812 20.6699 6.95212C20.6746 6.77611 20.748 6.61329 20.8704 6.49658C22.3358 5.30879 23.2356 3.54687 23.341 1.65884C23.341 1.29554 23.6365 1 23.9998 1C24.3631 1 24.6587 1.29554 24.6587 1.66354C24.8121 4.45607 26.3152 5.7888 28.0573 7.33424C29.9934 9.05286 32.1882 11.0021 32.1882 15.2506Z" fill="#1341AE"/>
<path d="M19.5418 31.8048C19.5446 31.9808 19.4797 32.1474 19.3583 32.2736C18.7455 32.8853 18.2392 33.5884 17.8523 34.3639C17.7422 34.5898 17.5097 34.7357 17.2584 34.7357C17.0768 34.7357 16.9121 34.6623 16.7926 34.5428C16.673 34.4232 16.5996 34.2585 16.5996 34.0769C16.5996 33.9781 16.6222 33.8783 16.6646 33.7908C17.1116 32.891 17.697 32.0731 18.4076 31.3606C18.5366 31.226 18.7098 31.1592 18.8829 31.1592C19.0467 31.1592 19.2114 31.2194 19.3394 31.3427C19.4665 31.4651 19.538 31.6288 19.5418 31.8048Z" fill="#1341AE"/>
<path d="M32.1877 37.839C32.0748 42.3191 28.4785 45.9164 23.9993 46.0303C21.9871 45.9785 20.0576 45.2077 18.5639 43.857C17.0703 42.5064 16.1093 40.6626 15.8561 38.6654C15.8138 38.3049 16.0716 37.9765 16.4331 37.9341C16.4594 37.9303 16.4848 37.9294 16.5112 37.9294C16.8397 37.9294 17.1248 38.176 17.1653 38.512V38.5242C17.3771 40.2014 18.1827 41.7497 19.4355 42.8838C20.6873 44.0189 22.308 44.6683 24.0022 44.7126C27.7585 44.6175 30.775 41.601 30.8701 37.8456C30.9501 35.759 30.1369 33.7279 28.6413 32.2747C28.5199 32.1476 28.454 31.981 28.4578 31.805C28.4606 31.629 28.5331 31.4653 28.6601 31.3429C28.7863 31.2206 28.9528 31.1537 29.1298 31.1584C29.3058 31.1622 29.4696 31.2337 29.5938 31.3627C31.3199 33.0597 32.2658 35.4192 32.1877 37.839Z" fill="#1341AE"/>
<path d="M29.1761 37.8423C29.1761 38.2056 28.8805 38.5012 28.5172 38.5012C28.1539 38.5012 27.8584 38.2056 27.8584 37.8423C27.8584 35.5373 26.9643 34.743 25.1816 33.1627C24.9087 32.9208 24.8833 32.5029 25.1242 32.2309C25.2551 32.0831 25.4367 32.0088 25.6193 32.0088C25.7746 32.0088 25.9308 32.0624 26.056 32.1735C27.8678 33.7839 29.1761 34.9472 29.1761 37.8423Z" fill="#1341AE"/>
<path d="M20.235 14.4065C20.5989 14.4065 20.8938 14.1116 20.8938 13.7477C20.8938 13.3838 20.5989 13.0889 20.235 13.0889C19.8711 13.0889 19.5762 13.3838 19.5762 13.7477C19.5762 14.1116 19.8711 14.4065 20.235 14.4065Z" fill="#1341AE"/>
<path d="M27.7643 14.4065C28.1282 14.4065 28.4231 14.1116 28.4231 13.7477C28.4231 13.3838 28.1282 13.0889 27.7643 13.0889C27.4004 13.0889 27.1055 13.3838 27.1055 13.7477C27.1055 14.1116 27.4004 14.4065 27.7643 14.4065Z" fill="#1341AE"/>
<path d="M23.9997 15.9124C24.3635 15.9124 24.6585 15.6174 24.6585 15.2536C24.6585 14.8897 24.3635 14.5947 23.9997 14.5947C23.6358 14.5947 23.3408 14.8897 23.3408 15.2536C23.3408 15.6174 23.6358 15.9124 23.9997 15.9124Z" fill="#1341AE"/>
<path d="M27.0114 18.9241C27.3752 18.9241 27.6702 18.6291 27.6702 18.2653C27.6702 17.9014 27.3752 17.6064 27.0114 17.6064C26.6475 17.6064 26.3525 17.9014 26.3525 18.2653C26.3525 18.6291 26.6475 18.9241 27.0114 18.9241Z" fill="#1341AE"/>
<path d="M23.9997 11.3948C24.3635 11.3948 24.6585 11.0999 24.6585 10.736C24.6585 10.3721 24.3635 10.0771 23.9997 10.0771C23.6358 10.0771 23.3408 10.3721 23.3408 10.736C23.3408 11.0999 23.6358 11.3948 23.9997 11.3948Z" fill="#1341AE"/>
<path d="M20.9879 18.1712C21.3518 18.1712 21.6468 17.8762 21.6468 17.5124C21.6468 17.1485 21.3518 16.8535 20.9879 16.8535C20.6241 16.8535 20.3291 17.1485 20.3291 17.5124C20.3291 17.8762 20.6241 18.1712 20.9879 18.1712Z" fill="#1341AE"/>
<path d="M17.8814 36.3367C17.8814 36.7 17.5858 36.9955 17.2225 36.9955C14.8968 36.9955 14.8695 39.9744 14.8695 40.1015C14.8695 40.4648 14.574 40.7603 14.2107 40.7603C13.8474 40.7603 13.5519 40.4648 13.5519 40.1015C13.5519 40.0704 13.5255 36.9955 11.1989 36.9955C10.8356 36.9955 10.54 36.7 10.54 36.3367C10.54 35.9734 10.8356 35.6779 11.2017 35.6779C11.2375 35.6769 11.2732 35.676 11.3081 35.676C12.478 35.676 13.5509 36.3009 14.1288 37.324L14.2088 37.4661L14.2916 37.3259C14.4968 36.9777 14.7575 36.6689 15.0662 36.4082L15.1519 36.3367L15.0672 36.2652C14.7575 36.0035 14.4968 35.6948 14.2916 35.3456L14.2126 35.2101L14.1307 35.3437C14.0855 35.4181 14.046 35.4802 14.0018 35.5442C13.9067 35.692 13.7599 35.7946 13.5876 35.8322C13.4163 35.8699 13.2403 35.8379 13.0916 35.7428C12.9439 35.6477 12.8413 35.5009 12.8036 35.3287C12.7669 35.1564 12.798 34.9804 12.894 34.8317C12.8996 34.8223 12.9062 34.812 12.9184 34.795C13.3137 34.1221 13.5321 33.3541 13.5519 32.5719C13.5519 32.2086 13.8474 31.9131 14.2107 31.9131C14.574 31.9131 14.8695 32.2086 14.8695 32.5719C14.8695 32.603 14.8968 35.6779 17.2225 35.6779C17.5858 35.6779 17.8814 35.9734 17.8814 36.3367Z" fill="#1341AE"/>
<path d="M39.7173 41.6072C39.7173 41.9705 39.4218 42.266 39.0585 42.266C36.7328 42.266 36.7055 45.2449 36.7055 45.372C36.7055 45.7353 36.4099 46.0308 36.0466 46.0308C35.6833 46.0308 35.3878 45.7353 35.3878 45.372C35.3878 45.3409 35.3614 42.266 33.0348 42.266C32.6715 42.266 32.376 41.9705 32.376 41.6072C32.376 41.2439 32.6715 40.9484 33.0376 40.9484C33.0734 40.9474 33.1092 40.9465 33.144 40.9465C34.3139 40.9465 35.3869 41.5714 35.9648 42.5945L36.0448 42.7366L36.1276 42.5964C36.3328 42.2482 36.5935 41.9395 36.9022 41.6787L36.9878 41.6072L36.9031 41.5357C36.5935 41.274 36.3328 40.9653 36.1276 40.6161L36.0485 40.4806L35.9666 40.6143C35.9215 40.6886 35.8819 40.7507 35.8377 40.8147C35.7426 40.9625 35.5958 41.0651 35.4236 41.1027C35.2523 41.1404 35.0753 41.1084 34.9276 41.0133C34.7798 40.9183 34.6772 40.7714 34.6396 40.5992C34.6028 40.427 34.6339 40.2509 34.7299 40.1022C34.7356 40.0928 34.7421 40.0825 34.7544 40.0655C35.1497 39.3926 35.368 38.6246 35.3878 37.8424C35.3878 37.4791 35.6833 37.1836 36.0466 37.1836C36.4099 37.1836 36.7055 37.4791 36.7055 37.8424C36.7055 37.8735 36.7328 40.9484 39.0585 40.9484C39.4218 40.9484 39.7173 41.2439 39.7173 41.6072Z" fill="#1341AE"/>
</g>
<defs>
<clipPath id="clip0_4525_7597">
<rect width="48" height="45.0305" fill="white" transform="translate(0 1)"/>
</clipPath>
</defs>
</svg>
