<svg width="41" height="40" viewBox="0 0 41 40" fill="none" xmlns="http://www.w3.org/2000/svg">
<g clip-path="url(#clip0_4523_12971)">
<path d="M34.1272 20.3378C33.8729 27.9439 27.5796 33.9008 20.0637 33.6383C12.5396 33.3839 6.59912 27.0578 6.84527 19.5747C7.09143 12.0753 13.4258 6.10195 20.8678 6.35631C28.4083 6.61067 34.3734 12.8958 34.1272 20.3296V20.3378ZM23.5837 17.2609C24.7406 17.2609 25.3806 16.2106 24.8965 15.3081C24.3139 14.225 23.4114 13.5276 22.2134 13.2486C21.9673 13.1912 21.8278 13.1337 21.8114 12.8137C21.7704 12.1327 21.1632 11.624 20.4904 11.6322C19.8093 11.6322 19.2104 12.1573 19.1857 12.8383C19.1693 13.1665 19.0545 13.265 18.7673 13.3635C17.036 13.9296 15.8709 15.6035 15.9447 17.3594C16.0268 19.2137 17.274 20.7563 19.0627 21.224C19.7027 21.3881 20.3591 21.3224 21.0073 21.347C21.8114 21.3799 22.3857 21.9788 22.4021 22.7665C22.4104 23.5624 21.8442 24.1614 21.0319 24.2024C20.6134 24.227 20.2032 24.2024 19.7847 24.2024C19.194 24.2024 18.7591 23.9398 18.4473 23.4393C18.0042 22.7337 17.2411 22.5286 16.5847 22.9224C15.9283 23.3163 15.756 24.1368 16.1827 24.8506C16.7734 25.8352 17.635 26.4752 18.7509 26.7542C19.0134 26.8198 19.1693 26.8609 19.1857 27.2055C19.2186 27.8701 19.8175 28.3624 20.4822 28.3706C21.1632 28.3706 21.7704 27.8701 21.8114 27.1891C21.8278 26.8691 21.9345 26.7542 22.2298 26.6639C23.9857 26.0978 25.1755 24.3583 25.0524 22.5942C24.9047 20.6086 23.5345 19.0742 21.6227 18.746C21.0811 18.6558 20.5396 18.705 20.0063 18.6804C19.2104 18.6558 18.6196 18.0568 18.6032 17.2691C18.5868 16.4978 19.1365 15.8824 19.9242 15.825C20.2934 15.8004 20.6709 15.825 21.0483 15.8086C21.7375 15.7758 22.2545 16.0219 22.5991 16.6373C22.8452 17.0722 23.2473 17.2691 23.5919 17.2773L23.5837 17.2609Z" fill="#1341AE"/>
<path d="M8.59372 3.91943C9.56192 3.222 10.4481 2.64764 11.3835 2.17175C14.7229 0.481495 18.2593 -0.256965 21.9844 0.0794444C29.328 0.744058 34.8008 4.36251 38.2716 10.8692C42.1034 18.0568 40.9054 27.2137 35.4408 33.2691C31.9783 37.1091 27.6542 39.308 22.5178 39.8824C13.5742 40.8834 4.81937 35.4024 1.75066 26.9265C0.322974 22.9963 0.109641 19.0004 1.15169 14.9471C1.35682 14.1512 2.03784 13.6999 2.75989 13.8722C3.52296 14.0609 3.94142 14.7502 3.7363 15.5707C3.2522 17.5153 3.04707 19.4763 3.22758 21.4702C3.57219 25.3019 5.00809 28.666 7.56808 31.5296C10.5055 34.8034 14.1896 36.707 18.5547 37.2075C26.2265 38.0855 33.7177 33.7942 36.6306 26.2865C39.33 19.3204 37.3854 11.6568 31.7321 6.81583C28.9424 4.42815 25.7014 3.04149 22.0337 2.7461C16.7906 2.31944 12.2532 3.95225 8.42962 7.5625C8.05218 7.92352 7.65834 8.19429 7.10859 8.11224C6.4768 8.01378 6.00091 7.54609 5.9927 6.90609C5.96809 5.46199 5.96809 4.01789 5.9927 2.5738C6.00091 1.90918 6.56706 1.37585 7.23167 1.34303C7.89628 1.302 8.51167 1.75329 8.60192 2.4261C8.65936 2.87738 8.61013 3.33687 8.61013 3.92764L8.59372 3.91943Z" fill="#1341AE"/>
</g>
<defs>
<clipPath id="clip0_4523_12971">
<rect width="40" height="40" fill="white" transform="translate(0.5)"/>
</clipPath>
</defs>
</svg>
