<svg width="52" height="52" viewBox="0 0 52 52" fill="none" xmlns="http://www.w3.org/2000/svg">
<rect width="52" height="52" rx="26" fill="#1341AE"/>
<g clip-path="url(#clip0_4505_10156)">
<path d="M32.0308 16.2048C32.0308 13.8863 30.1445 12 27.826 12C25.5076 12 23.6213 13.8863 23.6213 16.2048V31.7426C22.4806 32.8676 21.832 34.4055 21.832 36.006C21.832 39.3112 24.5208 42 27.826 42C31.1312 42 33.82 39.3112 33.82 36.006C33.82 34.4055 33.1714 32.8676 32.0308 31.7426V16.2048ZM32.5676 36.006C32.5676 38.6205 30.4406 40.7475 27.826 40.7475C25.2115 40.7475 23.0845 38.6205 23.0845 36.006C23.0845 34.6658 23.6607 33.3803 24.6658 32.4794C24.7982 32.3604 24.8738 32.1909 24.8738 32.0133V16.2048C24.8738 14.577 26.1983 13.2525 27.826 13.2525C29.4538 13.2525 30.7783 14.577 30.7783 16.2048V32.0128C30.7783 32.1909 30.8539 32.3604 30.9863 32.4789C31.991 33.3803 32.5676 34.6654 32.5676 36.0055V36.006Z" fill="white"/>
<path d="M28.4519 33.6731V23.3616C28.4519 23.0158 28.1714 22.7354 27.8257 22.7354C27.4799 22.7354 27.1994 23.0158 27.1994 23.3616V33.6731C26.1701 33.9495 25.4102 34.8902 25.4102 36.0058C25.4102 37.3379 26.4936 38.4213 27.8257 38.4213C29.1578 38.4213 30.2411 37.3379 30.2411 36.0058C30.2411 34.8907 29.4812 33.9495 28.4519 33.6731ZM27.8257 37.1688C27.1842 37.1688 26.6626 36.6473 26.6626 36.0058C26.6626 35.3644 27.1842 34.8428 27.8257 34.8428C28.4671 34.8428 28.9887 35.3644 28.9887 36.0058C28.9887 36.6473 28.4671 37.1688 27.8257 37.1688Z" fill="white"/>
<path d="M34.9827 16.8306H36.7719C37.1177 16.8306 37.3982 16.5501 37.3982 16.2044C37.3982 15.8586 37.1177 15.5781 36.7719 15.5781H34.9827C34.6369 15.5781 34.3564 15.8586 34.3564 16.2044C34.3564 16.5501 34.6369 16.8306 34.9827 16.8306Z" fill="white"/>
<path d="M34.9827 20.4097H35.8773C36.2231 20.4097 36.5036 20.1292 36.5036 19.7835C36.5036 19.4377 36.2231 19.1572 35.8773 19.1572H34.9827C34.6369 19.1572 34.3564 19.4377 34.3564 19.7835C34.3564 20.1292 34.6369 20.4097 34.9827 20.4097Z" fill="white"/>
<path d="M36.7719 22.7354H34.9827C34.6369 22.7354 34.3564 23.0158 34.3564 23.3616C34.3564 23.7074 34.6369 23.9878 34.9827 23.9878H36.7719C37.1177 23.9878 37.3982 23.7074 37.3982 23.3616C37.3982 23.0158 37.1177 22.7354 36.7719 22.7354Z" fill="white"/>
<path d="M34.9827 27.5669H35.8773C36.2231 27.5669 36.5036 27.2865 36.5036 26.9407C36.5036 26.5949 36.2231 26.3145 35.8773 26.3145H34.9827C34.6369 26.3145 34.3564 26.5949 34.3564 26.9407C34.3564 27.2865 34.6369 27.5669 34.9827 27.5669Z" fill="white"/>
<path d="M36.7719 29.8926H34.9827C34.6369 29.8926 34.3564 30.173 34.3564 30.5188C34.3564 30.8646 34.6369 31.1451 34.9827 31.1451H36.7719C37.1177 31.1451 37.3982 30.8646 37.3982 30.5188C37.3982 30.173 37.1177 29.8926 36.7719 29.8926Z" fill="white"/>
<path d="M14.1381 17.7166L15.4546 19.0331C15.5767 19.1552 15.7373 19.2165 15.8974 19.2165C16.0575 19.2165 16.2181 19.1552 16.3402 19.0331C16.5849 18.7884 16.5849 18.3921 16.3402 18.1474L13.9547 15.7619C13.94 15.7471 13.9247 15.7332 13.9086 15.7203C13.9015 15.714 13.8934 15.7091 13.8858 15.7033C13.8769 15.6966 13.8684 15.6898 13.8594 15.6836C13.8505 15.6773 13.8411 15.6724 13.8317 15.6666C13.8237 15.6617 13.8156 15.6567 13.8071 15.6518C13.7977 15.6469 13.7879 15.6424 13.778 15.638C13.7691 15.6339 13.7606 15.6295 13.7516 15.6259C13.7422 15.6218 13.7324 15.6187 13.723 15.6151C13.7132 15.6116 13.7038 15.608 13.6939 15.6049C13.6841 15.6017 13.6743 15.5999 13.6644 15.5972C13.6546 15.5946 13.6447 15.5919 13.6344 15.5901C13.6228 15.5879 13.6116 15.5865 13.6 15.5847C13.5911 15.5834 13.5826 15.582 13.5736 15.5811C13.5325 15.5771 13.4909 15.5771 13.4497 15.5811C13.4408 15.582 13.4323 15.5838 13.4233 15.5847C13.4117 15.5865 13.4005 15.5879 13.3889 15.5901C13.3786 15.5923 13.3687 15.595 13.3589 15.5972C13.3491 15.5995 13.3392 15.6017 13.3294 15.6049C13.3195 15.608 13.3101 15.6116 13.3003 15.6151C13.2905 15.6187 13.2811 15.6218 13.2717 15.6259C13.2627 15.6295 13.2542 15.6339 13.2453 15.638C13.2354 15.6424 13.2256 15.6469 13.2162 15.6518C13.2077 15.6563 13.1997 15.6617 13.1916 15.6666C13.1822 15.6719 13.1728 15.6773 13.1639 15.6836C13.1549 15.6898 13.146 15.6966 13.1375 15.7033C13.1299 15.7091 13.1223 15.714 13.1147 15.7203C13.0986 15.7332 13.0833 15.7471 13.0686 15.7619L10.6835 18.1474C10.4388 18.3921 10.4388 18.7884 10.6835 19.0331C10.9282 19.2777 11.3245 19.2777 11.5692 19.0331L12.8856 17.7166V26.9402C12.8856 27.286 13.1661 27.5665 13.5119 27.5665C13.8577 27.5665 14.1381 27.286 14.1381 26.9402V17.7166Z" fill="white"/>
<path d="M19.0337 31.2688L17.7172 32.5852V23.3616C17.7172 23.0158 17.4368 22.7354 17.091 22.7354C16.7452 22.7354 16.4647 23.0158 16.4647 23.3616V32.5852L15.1483 31.2688C14.9036 31.0241 14.5073 31.0241 14.2626 31.2688C14.0179 31.5134 14.0179 31.9098 14.2626 32.1544L16.6481 34.54C16.6629 34.5547 16.6781 34.5686 16.6942 34.5816C16.7014 34.5874 16.7094 34.5927 16.7166 34.5986C16.7255 34.6053 16.734 34.612 16.7434 34.6182C16.7524 34.6241 16.7618 34.6294 16.7711 34.6348C16.7796 34.6397 16.7877 34.6451 16.7962 34.6496C16.8056 34.6545 16.8154 34.659 16.8248 34.6634C16.8338 34.6674 16.8423 34.6719 16.8517 34.6759C16.8611 34.68 16.8705 34.6831 16.8798 34.6862C16.8897 34.6898 16.8995 34.6934 16.9094 34.6965C16.9188 34.6992 16.9282 34.7014 16.938 34.7037C16.9483 34.7064 16.9586 34.7091 16.9689 34.7113C16.9796 34.7135 16.9908 34.7149 17.002 34.7162C17.0114 34.7175 17.0203 34.7193 17.0297 34.7202C17.0503 34.7225 17.0708 34.7234 17.0914 34.7234C17.112 34.7234 17.1326 34.7225 17.1532 34.7202C17.1625 34.7193 17.1715 34.7175 17.1809 34.7162C17.1921 34.7144 17.2028 34.7135 17.214 34.7113C17.2243 34.7091 17.2346 34.7064 17.2449 34.7037C17.2542 34.7014 17.2641 34.6992 17.2735 34.6965C17.2833 34.6934 17.2932 34.6898 17.303 34.6862C17.3124 34.6827 17.3222 34.6795 17.3312 34.6759C17.3401 34.6724 17.3491 34.6679 17.358 34.6634C17.3679 34.659 17.3773 34.6545 17.3867 34.6496C17.3952 34.6451 17.4032 34.6397 17.4117 34.6348C17.4211 34.6294 17.4305 34.6241 17.4394 34.6178C17.4484 34.6115 17.4573 34.6048 17.4658 34.5981C17.4734 34.5923 17.481 34.5874 17.4882 34.5811C17.5043 34.5681 17.5195 34.5543 17.5343 34.5395L19.9198 32.154C20.1645 31.9093 20.1645 31.513 19.9198 31.2683C19.6751 31.0236 19.2788 31.0236 19.0341 31.2683L19.0337 31.2688Z" fill="white"/>
</g>
<defs>
<clipPath id="clip0_4505_10156">
<rect width="26.8983" height="30" fill="white" transform="translate(10.5 12)"/>
</clipPath>
</defs>
</svg>
