<svg width="56" height="56" viewBox="0 0 56 56" fill="none" xmlns="http://www.w3.org/2000/svg">
<rect width="56" height="56" rx="28" fill="#1341AE"/>
<g clip-path="url(#clip0_4505_10598)">
<path d="M41.855 36.0782C41.8385 36.4962 41.624 36.7712 41.272 36.9692C39.765 37.8107 38.258 38.6577 36.7565 39.4992C33.891 41.1052 31.02 42.7112 28.16 44.3282C27.7035 44.5867 27.3075 44.5867 26.8455 44.3282C22.5005 41.8752 18.1445 39.4332 13.7885 36.9967C13.4145 36.7877 13.145 36.5237 13.1505 36.0782C13.1505 35.6327 13.4255 35.3687 13.7995 35.1652C14.7675 34.6372 15.73 34.0982 16.6815 33.5427C16.885 33.4217 17.0335 33.4217 17.248 33.5427C20.1575 35.1817 23.0725 36.8097 25.9765 38.4487C26.9995 39.0262 28.006 39.0262 29.029 38.4487C31.9495 36.8042 34.87 35.1707 37.785 33.5262C37.972 33.4217 38.104 33.4107 38.2965 33.5207C39.2975 34.0982 40.304 34.6592 41.316 35.2202C41.657 35.4072 41.8385 35.6822 41.8605 36.0672L41.855 36.0782Z" fill="white"/>
<path d="M41.2888 20.1667C40.9368 19.9632 40.5848 19.7652 40.2273 19.5672C39.0503 18.9072 37.8733 18.2472 36.6963 17.5817C33.8308 15.9757 31.0148 14.2817 28.1548 12.6647C27.9238 12.5327 27.7093 12.4722 27.5003 12.4722C27.4948 12.4722 27.4893 12.4722 27.4838 12.4722C27.2748 12.4722 27.0713 12.5382 26.8458 12.6647C24.7668 13.8362 22.7428 15.0902 20.6638 16.2617C18.3538 17.5597 16.0438 18.8522 13.7338 20.1502C13.4808 20.2932 13.2718 20.4692 13.1893 20.7607C13.0518 21.2337 13.2388 21.6297 13.7448 21.9157C18.1173 24.3687 22.4898 26.8217 26.8568 29.2802C27.3078 29.5332 27.6983 29.5387 28.1438 29.2802C29.4968 28.5047 30.8608 27.7512 32.2248 26.9867C35.2388 25.2982 38.2473 23.6097 41.2613 21.9157C42.0588 21.4702 42.0698 20.6177 41.2998 20.1667H41.2888Z" fill="white"/>
<path d="M41.8545 28.5652C41.8325 28.9667 41.629 29.2362 41.2825 29.4342C39.6325 30.3582 37.9825 31.2877 36.3325 32.2117C33.6045 33.7462 30.871 35.2697 28.143 36.8097C27.6975 37.0627 27.3015 37.0572 26.856 36.8097C22.5055 34.3567 18.1495 31.9147 13.7935 29.4782C13.425 29.2692 13.1445 29.0107 13.1445 28.5652C13.1445 28.1197 13.414 27.8557 13.788 27.6467C14.7725 27.1077 15.7515 26.5577 16.725 25.9967C16.901 25.8922 17.033 25.9032 17.2035 25.9967C20.1295 27.6467 23.061 29.2857 25.987 30.9357C27.0045 31.5077 27.9945 31.5077 29.012 30.9357C31.9325 29.2912 34.853 27.6577 37.768 26.0132C37.9605 25.9032 38.1035 25.8922 38.3015 26.0077C39.2915 26.5797 40.2925 27.1352 41.2935 27.6907C41.64 27.8832 41.838 28.1637 41.8545 28.5652ZM24.128 31.9917C24.128 31.4747 23.721 31.0622 23.204 31.0567C22.698 31.0567 22.269 31.4692 22.258 31.9752C22.247 32.4867 22.6925 32.9322 23.204 32.9267C23.7155 32.9267 24.128 32.5032 24.128 31.9917ZM31.806 31.0567C31.2945 31.0512 30.871 31.4582 30.86 31.9697C30.849 32.4867 31.2505 32.9102 31.762 32.9267C32.2735 32.9432 32.7245 32.5142 32.73 31.9972C32.73 31.4967 32.312 31.0622 31.806 31.0567ZM28.4345 34.1697C28.4345 33.6582 28.022 33.2402 27.5105 33.2347C26.9935 33.2347 26.5755 33.6362 26.5645 34.1477C26.5535 34.6592 26.9935 35.1102 27.505 35.1047C28.0055 35.1047 28.4345 34.6702 28.4345 34.1697ZM19.2055 30.6112C19.717 30.6112 20.135 30.1877 20.135 29.6707C20.135 29.1537 19.7225 28.7357 19.2055 28.7412C18.694 28.7412 18.2705 29.1647 18.2705 29.6707C18.2705 30.1767 18.705 30.6112 19.2055 30.6112ZM35.81 28.7412C35.2875 28.7302 34.864 29.1317 34.853 29.6487C34.842 30.1657 35.2435 30.5947 35.755 30.6112C36.2555 30.6277 36.701 30.2097 36.7175 29.6982C36.734 29.1922 36.316 28.7522 35.8045 28.7412H35.81Z" fill="white"/>
</g>
<defs>
<clipPath id="clip0_4505_10598">
<rect width="33" height="33" fill="white" transform="translate(11 11.999)"/>
</clipPath>
</defs>
</svg>
