<svg width="85" height="85" viewBox="0 0 85 85" fill="none" xmlns="http://www.w3.org/2000/svg">
<path d="M0 42.5C0 19.0279 19.0279 0 42.5 0C65.9721 0 85 19.0279 85 42.5C85 65.9721 65.9721 85 42.5 85C19.0279 85 0 65.9721 0 42.5Z" fill="#1341AE"/>
<g clip-path="url(#clip0_4505_10206)">
<mask id="mask0_4505_10206" style="mask-type:luminance" maskUnits="userSpaceOnUse" x="15" y="15" width="55" height="55">
<path d="M70 15H15V70H70V15Z" fill="white"/>
</mask>
<g mask="url(#mask0_4505_10206)">
<path d="M63.5921 41.0337C62.8259 40.4991 61.8502 40.5156 61.107 41.0752C59.6941 42.1362 58.145 42.9697 56.496 43.5583C54.8934 41.8649 52.6277 40.8052 50.1177 40.8052H47.5514C47.404 39.5994 46.7491 38.5026 45.7372 37.8019C44.5813 37.0016 43.1057 36.8193 41.79 37.3141L37.6982 38.8528C34.7682 35.6384 33.145 31.5218 33.1175 27.2013C33.1013 24.787 33.5687 22.4453 34.5065 20.2411C34.8746 19.3764 34.6558 18.4182 33.9493 17.7998C33.2517 17.1892 32.2858 17.1001 31.4881 17.5731C24.9275 21.4659 20.8211 28.3282 20.5036 35.9301C20.4851 36.3747 20.8304 36.7502 21.275 36.7687C21.7206 36.7862 22.0951 36.442 22.1137 35.9974C22.4083 28.9421 26.2203 22.5725 32.3103 18.959C32.5883 18.7939 32.8071 18.9412 32.8882 19.0122C32.955 19.0706 33.1618 19.2863 33.024 19.6101C31.9994 22.0183 31.4887 24.576 31.5063 27.2117C31.5376 32.1219 33.453 36.7903 36.8989 40.3563C37.4921 40.9693 38.1333 41.5489 38.804 42.0785C39.7984 42.8636 40.3686 44.0301 40.3686 45.2787V57.5519C31.1572 56.4026 23.6322 49.0878 22.3092 39.8506C22.2978 39.7713 22.2868 39.6918 22.2766 39.6112C22.2207 39.1699 21.8175 38.8569 21.3761 38.9132C20.9347 38.9692 20.6222 39.3724 20.6781 39.8137C20.6894 39.903 20.7016 39.991 20.7142 40.0792C22.149 50.0975 30.3549 58.016 40.3686 59.1735V67.6591C40.3686 68.95 41.4188 70.0002 42.7097 70.0002H46.548C50.052 70.0002 52.9026 67.1495 52.9026 63.6455V62.9868H53.9344C55.6706 62.9868 57.3046 62.0607 58.1984 60.5701C58.4273 60.1885 58.3033 59.6936 57.9218 59.4649C57.5401 59.236 57.0452 59.3598 56.8164 59.7414C56.2029 60.7645 55.1256 61.3755 53.9344 61.3755H52.9026V54.6196C52.9026 54.1746 52.5419 53.8139 52.0969 53.8139C51.6518 53.8139 51.2912 54.1746 51.2912 54.6196V63.6455C51.2912 66.2608 49.1633 68.3887 46.548 68.3887H42.7097C42.3073 68.3887 41.98 68.0614 41.98 67.659V45.2788C41.98 43.5339 41.1863 41.9066 39.8026 40.814C39.5138 40.5859 39.231 40.348 38.956 40.1013L42.3574 38.8224C43.1905 38.5091 44.0882 38.62 44.8201 39.1266C45.5522 39.6333 45.9719 40.4346 45.9719 41.3249V48.6544C45.9719 49.0994 46.3325 49.4601 46.7776 49.4601C47.2226 49.4601 47.5832 49.0994 47.5832 48.6544V42.4163H50.1179C54.0737 42.4163 57.2921 45.6346 57.2921 49.5906V56.5207C57.2921 56.9656 57.6527 57.3264 58.0977 57.3264C58.5428 57.3264 58.9034 56.9656 58.9034 56.5207V52.628C61.4589 50.0351 63.3602 46.843 64.4076 43.3722C64.6753 42.4841 64.355 41.5662 63.5921 41.0337ZM62.8647 42.9068C62.0566 45.585 60.7008 48.0851 58.9032 50.2355V49.5906C58.9032 47.8627 58.3998 46.2509 57.5348 44.8908C59.1511 44.2622 60.6745 43.4151 62.0752 42.3631C62.3381 42.1651 62.5789 42.2915 62.6699 42.3551C62.7597 42.4178 62.9581 42.5968 62.8647 42.9068Z" fill="white"/>
<path d="M47.0254 28.0838C47.0254 28.5287 47.386 28.8895 47.8311 28.8895H49.9404L47.4193 32.9054C47.2091 33.2403 47.1976 33.6634 47.389 34.0093C47.5803 34.3554 47.9449 34.5703 48.3402 34.5703H51.3974C51.8425 34.5703 52.203 34.2096 52.203 33.7646C52.203 33.3197 51.8425 32.9589 51.3974 32.9589H49.288L51.809 28.9435C52.0194 28.6085 52.0311 28.1854 51.8398 27.8393C51.6484 27.4934 51.2838 27.2783 50.8884 27.2783H47.8311C47.386 27.2782 47.0254 27.6389 47.0254 28.0838Z" fill="white"/>
<path d="M43.258 16.6113H45.3673L42.8461 20.6272C42.636 20.9621 42.6243 21.3852 42.8158 21.7312C43.0071 22.0772 43.3717 22.2921 43.767 22.2921H46.8242C47.2692 22.2921 47.6299 21.9314 47.6299 21.4865C47.6299 21.0415 47.2692 20.6808 46.8242 20.6808H44.7149L47.2359 16.6653C47.4463 16.3303 47.4579 15.9073 47.2667 15.5612C47.0753 15.2151 46.7107 15 46.3152 15H43.2578C42.8128 15 42.4521 15.3607 42.4521 15.8057C42.4521 16.2506 42.8129 16.6113 43.258 16.6113Z" fill="white"/>
<path d="M57.3682 22.038H59.4775L56.9566 26.0535C56.7462 26.3884 56.7346 26.8115 56.9258 27.1576C57.1172 27.5037 57.4819 27.7187 57.8773 27.7187H60.9346C61.3796 27.7187 61.7401 27.358 61.7401 26.9131C61.7401 26.4681 61.3796 26.1074 60.9346 26.1074H58.8251L61.3462 22.0919C61.5565 21.757 61.5682 21.3339 61.3769 20.9878C61.1855 20.6417 60.821 20.4268 60.4255 20.4268H57.3682C56.9231 20.4268 56.5625 20.7875 56.5625 21.2324C56.5625 21.6774 56.9231 22.038 57.3682 22.038Z" fill="white"/>
</g>
</g>
<defs>
<clipPath id="clip0_4505_10206">
<rect width="55" height="55" fill="white" transform="translate(15 15)"/>
</clipPath>
</defs>
</svg>
