<svg width="48" height="48" viewBox="0 0 48 48" fill="none" xmlns="http://www.w3.org/2000/svg">
<mask id="mask0_4523_13061" style="mask-type:luminance" maskUnits="userSpaceOnUse" x="1" y="1" width="46" height="46">
<path d="M47 1H1V47H47V1Z" fill="white"/>
</mask>
<g mask="url(#mask0_4523_13061)">
<path d="M41.6408 22.7733C40.9999 22.3261 40.1839 22.3399 39.5623 22.808C38.3806 23.6953 37.085 24.3925 35.7058 24.8847C34.3655 23.4684 32.4705 22.5821 30.3712 22.5821H28.2249C28.1016 21.5737 27.5539 20.6563 26.7076 20.0703C25.7408 19.401 24.5067 19.2485 23.4063 19.6623L19.984 20.9492C17.5335 18.2608 16.1759 14.8179 16.1529 11.2043C16.1394 9.18513 16.5303 7.22662 17.3146 5.38312C17.6225 4.65988 17.4395 3.85848 16.8486 3.34124C16.2652 2.83057 15.4573 2.75609 14.7902 3.15167C9.30308 6.40743 5.86862 12.1469 5.60314 18.5048C5.58759 18.8767 5.87643 19.1907 6.2483 19.2062C6.62098 19.2208 6.93417 18.9329 6.94971 18.5611C7.19616 12.6603 10.3843 7.333 15.4778 4.31075C15.7103 4.17274 15.8933 4.29592 15.9611 4.3553C16.017 4.40409 16.19 4.5845 16.0747 4.85538C15.2178 6.8695 14.7906 9.00867 14.8054 11.2131C14.8316 15.3198 16.4335 19.2242 19.3155 22.2067C19.8117 22.7194 20.3479 23.2042 20.9089 23.6471C21.7406 24.3037 22.2175 25.2793 22.2175 26.3236V36.5885C14.5134 35.6272 8.21974 29.5094 7.11322 21.7838C7.10371 21.7174 7.09454 21.6509 7.08601 21.5835C7.03919 21.2144 6.70201 20.9527 6.33285 20.9997C5.96367 21.0466 5.70232 21.3838 5.74904 21.7529C5.75848 21.8276 5.76872 21.9012 5.77922 21.9749C6.97927 30.3539 13.8424 36.9766 22.2175 37.9447V45.0418C22.2175 46.1214 23.0958 46.9998 24.1755 46.9998H27.3857C30.3163 46.9998 32.7004 44.6156 32.7004 41.685V41.134H33.5634C35.0155 41.134 36.3821 40.3595 37.1297 39.1128C37.3211 38.7936 37.2174 38.3797 36.8983 38.1884C36.5791 37.997 36.1652 38.1005 35.9738 38.4197C35.4607 39.2754 34.5597 39.7864 33.5634 39.7864H32.7004V34.136C32.7004 33.7639 32.3988 33.4621 32.0266 33.4621C31.6543 33.4621 31.3527 33.7639 31.3527 34.136V41.685C31.3527 43.8723 29.5731 45.652 27.3857 45.652H24.1755C23.8389 45.652 23.5652 45.3782 23.5652 45.0417V26.3237C23.5652 24.8644 22.9014 23.5033 21.7441 22.5895C21.5025 22.3988 21.266 22.1998 21.036 21.9934L23.8808 20.9238C24.5776 20.6618 25.3284 20.7545 25.9406 21.1783C26.5528 21.602 26.9039 22.2722 26.9039 23.0168V29.147C26.9039 29.5191 27.2055 29.8208 27.5777 29.8208C27.9499 29.8208 28.2515 29.5191 28.2515 29.147V23.9296H30.3714C33.6799 23.9296 36.3717 26.6213 36.3717 29.9299V35.726C36.3717 36.0981 36.6732 36.3999 37.0454 36.3999C37.4177 36.3999 37.7193 36.0981 37.7193 35.726V32.4703C39.8566 30.3017 41.4468 27.632 42.3228 24.7291C42.5467 23.9863 42.2788 23.2186 41.6408 22.7733ZM41.0324 24.3399C40.3565 26.5798 39.2226 28.6708 37.7191 30.4693V29.9299C37.7191 28.4848 37.2981 27.1368 36.5746 25.9992C37.9265 25.4735 39.2006 24.765 40.3721 23.8851C40.5919 23.7195 40.7933 23.8252 40.8694 23.8785C40.9446 23.9309 41.1105 24.0806 41.0324 24.3399Z" fill="#1341AE"/>
<path d="M27.7852 11.9432C27.7852 12.3153 28.0868 12.617 28.459 12.617H30.2232L28.1146 15.9758C27.9388 16.2559 27.9292 16.6098 28.0892 16.8991C28.2493 17.1885 28.5542 17.3683 28.8848 17.3683H31.4418C31.814 17.3683 32.1155 17.0666 32.1155 16.6944C32.1155 16.3223 31.814 16.0206 31.4418 16.0206H29.6775L31.786 12.6622C31.962 12.3821 31.9717 12.0282 31.8118 11.7387C31.6517 11.4494 31.3468 11.2695 31.016 11.2695H28.459C28.0868 11.2694 27.7852 11.5711 27.7852 11.9432Z" fill="#1341AE"/>
<path d="M24.6349 2.34766H26.399L24.2904 5.70637C24.1147 5.9865 24.1049 6.34031 24.2651 6.6297C24.4251 6.91908 24.73 7.09887 25.0606 7.09887H27.6176C27.9898 7.09887 28.2914 6.79716 28.2914 6.42503C28.2914 6.0529 27.9898 5.75121 27.6176 5.75121H25.8534L27.9619 2.39276C28.1378 2.11263 28.1476 1.75882 27.9876 1.46934C27.8276 1.17987 27.5227 1 27.1918 1H24.6348C24.2626 1 23.9609 1.3017 23.9609 1.67383C23.9609 2.04596 24.2627 2.34766 24.6349 2.34766Z" fill="#1341AE"/>
<path d="M36.4356 6.88565H38.1997L36.0913 10.2441C35.9154 10.5242 35.9056 10.878 36.0656 11.1675C36.2257 11.457 36.5307 11.6368 36.8614 11.6368H39.4183C39.7906 11.6368 40.0921 11.3351 40.0921 10.963C40.0921 10.5909 39.7906 10.2892 39.4183 10.2892H37.6541L39.7626 6.93075C39.9385 6.65062 39.9483 6.29681 39.7883 6.00733C39.6283 5.71786 39.3233 5.53809 38.9926 5.53809H36.4356C36.0633 5.53809 35.7617 5.83978 35.7617 6.21191C35.7617 6.58404 36.0633 6.88565 36.4356 6.88565Z" fill="#1341AE"/>
</g>
</svg>
