<svg width="41" height="40" viewBox="0 0 41 40" fill="none" xmlns="http://www.w3.org/2000/svg">
<g clip-path="url(#clip0_4526_7825)">
<path d="M28.3478 17.9336C25.4099 8.49002 15.7764 0.431607 15.5947 0.280272C15.1603 -0.0817459 14.5293 -0.0817459 14.095 0.280272C13.8806 0.45886 0.5 11.6513 0.5 23.136C0.5 31.0457 6.93511 37.4807 14.8448 37.4807C16.6872 37.4807 18.4494 37.1313 20.069 36.4957C15.4489 29.2866 20.0027 19.3011 28.3478 17.9336Z" fill="#1341AE"/>
<path d="M30.5 19.9998C24.986 19.9998 20.5 24.4858 20.5 29.9998C20.5 35.5138 24.986 39.9998 30.5 39.9998C36.014 39.9998 40.5 35.5138 40.5 29.9998C40.5 24.4858 36.014 19.9998 30.5 19.9998ZM34.9153 28.7854L29.7301 33.9706C29.5132 34.1876 29.2288 34.2961 28.9444 34.2961C28.6601 34.2961 28.3757 34.1876 28.1588 33.9706L25.9366 31.7484C25.5027 31.3146 25.5027 30.611 25.9366 30.1771C26.3704 29.7432 27.074 29.7432 27.5079 30.1771L28.9444 31.6137L33.344 27.2141C33.7779 26.7803 34.4814 26.7803 34.9153 27.2141C35.3492 27.648 35.3492 28.3516 34.9153 28.7854Z" fill="#1341AE"/>
</g>
<defs>
<clipPath id="clip0_4526_7825">
<rect width="40" height="40" fill="white" transform="translate(0.5)"/>
</clipPath>
</defs>
</svg>
