<svg width="56" height="56" viewBox="0 0 56 56" fill="none" xmlns="http://www.w3.org/2000/svg">
<rect width="56" height="56" rx="28" fill="#1341AE"/>
<g clip-path="url(#clip0_4505_10605)">
<path d="M28.5 15.7534C27.9307 15.7534 27.4688 15.2914 27.4688 14.7221V12.0312C27.4688 11.462 27.9307 11 28.5 11C29.0693 11 29.5312 11.462 29.5312 12.0312V14.7221C29.5312 15.2914 29.0693 15.7534 28.5 15.7534Z" fill="white"/>
<path d="M37.5348 19.4963C37.2708 19.4963 37.0068 19.3959 36.8061 19.1938C36.4032 18.7909 36.4032 18.1378 36.8061 17.7349L38.7091 15.8319C39.1119 15.4291 39.7651 15.4291 40.1679 15.8319C40.5708 16.2348 40.5708 16.8879 40.1679 17.2908L38.2649 19.1938C38.0628 19.3946 37.7988 19.4963 37.5348 19.4963Z" fill="white"/>
<path d="M43.9692 28.5312H41.2783C40.7091 28.5312 40.2471 28.0693 40.2471 27.5C40.2471 26.9307 40.7091 26.4688 41.2783 26.4688H43.9692C44.5384 26.4688 45.0004 26.9307 45.0004 27.5C45.0004 28.0693 44.5384 28.5312 43.9692 28.5312Z" fill="white"/>
<path d="M39.4378 39.4695C39.1738 39.4695 38.9098 39.3691 38.7091 39.167L36.8061 37.264C36.4032 36.8611 36.4032 36.208 36.8061 35.8051C37.2089 35.4022 37.8621 35.4022 38.2649 35.8051L40.1679 37.7081C40.5708 38.111 40.5708 38.7641 40.1679 39.167C39.9658 39.3691 39.7018 39.4695 39.4378 39.4695Z" fill="white"/>
<path d="M17.5622 39.4695C17.2982 39.4695 17.0342 39.3691 16.8334 39.167C16.4305 38.7641 16.4305 38.111 16.8334 37.7081L18.7364 35.8051C19.1393 35.4022 19.7924 35.4022 20.1953 35.8051C20.5982 36.208 20.5982 36.8611 20.1953 37.264L18.2923 39.167C18.0902 39.3691 17.8262 39.4695 17.5622 39.4695Z" fill="white"/>
<path d="M15.7221 28.5312H13.0312C12.462 28.5312 12 28.0693 12 27.5C12 26.9307 12.462 26.4688 13.0312 26.4688H15.7221C16.2914 26.4688 16.7534 26.9307 16.7534 27.5C16.7534 28.0693 16.2914 28.5312 15.7221 28.5312Z" fill="white"/>
<path d="M19.4652 19.4963C19.2012 19.4963 18.9372 19.3959 18.7364 19.1938L16.8334 17.2908C16.4305 16.8879 16.4305 16.2348 16.8334 15.8319C17.2363 15.4291 17.8894 15.4291 18.2923 15.8319L20.1953 17.7349C20.5982 18.1378 20.5982 18.7909 20.1953 19.1938C19.9918 19.3946 19.7292 19.4963 19.4652 19.4963Z" fill="white"/>
<path d="M32.625 39.875V41.5938C32.625 42.9137 31.5387 44 30.2188 44H26.7812C25.6263 44 24.375 43.12 24.375 41.195V39.875H32.625Z" fill="white"/>
<path d="M34.5636 20.0201C32.3086 18.1913 29.3386 17.4763 26.4373 18.0951C22.7936 18.8513 19.8373 21.8213 19.0811 25.4651C18.3111 29.2051 19.7136 32.9176 22.7111 35.1863C23.5223 35.7913 24.0861 36.7263 24.2786 37.8126V37.8263C24.3061 37.8126 24.3473 37.8126 24.3748 37.8126H32.6248C32.6523 37.8126 32.6661 37.8126 32.6936 37.8263V37.8126C32.8861 36.7676 33.5048 35.8051 34.4536 35.0626C36.7773 33.2201 38.1248 30.4701 38.1248 27.5001C38.1248 24.5851 36.8323 21.8626 34.5636 20.0201ZM33.6561 28.1876C33.0923 28.1876 32.6248 27.7201 32.6248 27.1563C32.6248 25.0663 30.9336 23.3751 28.8436 23.3751C28.2798 23.3751 27.8123 22.9076 27.8123 22.3438C27.8123 21.7801 28.2798 21.3126 28.8436 21.3126C32.0611 21.3126 34.6873 23.9388 34.6873 27.1563C34.6873 27.7201 34.2198 28.1876 33.6561 28.1876Z" fill="white"/>
<path d="M24.2783 37.8125H24.3746C24.3471 37.8125 24.3058 37.8125 24.2783 37.8263V37.8125Z" fill="white"/>
<path d="M32.6938 37.8125V37.8263C32.6663 37.8125 32.6525 37.8125 32.625 37.8125H32.6938Z" fill="white"/>
</g>
<defs>
<clipPath id="clip0_4505_10605">
<rect width="33" height="33" fill="white" transform="translate(12 11)"/>
</clipPath>
</defs>
</svg>
