<svg width="56" height="56" viewBox="0 0 56 56" fill="none" xmlns="http://www.w3.org/2000/svg">
<rect width="56" height="56" rx="28" fill="#1341AE"/>
<path d="M38.7088 14.8817L28.9086 12.6976C28.3085 12.5715 27.6887 12.5715 27.0885 12.6976L17.2883 14.8817C16.3549 15.0888 15.5201 15.6083 14.9219 16.3541C14.3237 17.1 13.9978 18.0277 13.9982 18.9838V24.6819C13.9806 28.6557 15.1652 32.5418 17.3965 35.83C19.6278 39.1182 22.8014 41.6547 26.5005 43.1064C26.9758 43.3016 27.4848 43.4015 27.9986 43.4004C28.5108 43.3992 29.0185 43.3043 29.4966 43.1203C33.1946 41.6629 36.3665 39.1231 38.5972 35.8332C40.828 32.5434 42.0136 28.6567 41.9989 24.6819V18.9838C41.9993 18.0277 41.6735 17.1 41.0753 16.3541C40.477 15.6083 39.6422 15.0888 38.7088 14.8817ZM34.6487 24.8639L27.9146 31.4861C27.6523 31.7468 27.2974 31.8932 26.9275 31.8932C26.5577 31.8932 26.2028 31.7468 25.9405 31.4861L22.7484 28.35C22.6172 28.2199 22.5131 28.065 22.442 27.8944C22.3709 27.7238 22.3343 27.5408 22.3343 27.356C22.3343 27.1712 22.3709 26.9882 22.442 26.8176C22.5131 26.647 22.6172 26.4921 22.7484 26.362C23.0108 26.1012 23.3656 25.9548 23.7355 25.9548C24.1053 25.9548 24.4602 26.1012 24.7225 26.362L26.9345 28.532L32.6887 22.9319C32.8201 22.8023 32.9758 22.6998 33.1469 22.6304C33.3179 22.5609 33.501 22.5258 33.6856 22.5271C33.8702 22.5284 34.0528 22.5661 34.2228 22.6379C34.3929 22.7098 34.5471 22.8144 34.6767 22.9459C34.8063 23.0773 34.9088 23.233 34.9782 23.4041C35.0477 23.5751 35.0828 23.7582 35.0815 23.9428C35.0802 24.1274 35.0425 24.3099 34.9707 24.48C34.8988 24.6501 34.7942 24.8043 34.6627 24.9339L34.6487 24.8639Z" fill="white"/>
</svg>
