<svg width="132" height="55" viewBox="0 0 132 55" fill="none" xmlns="http://www.w3.org/2000/svg">
<path d="M105.31 54.3493C104.611 54.0221 100.626 53.4867 99.5214 53.3529C88.6166 52.0144 75.0608 51.8397 64.5538 48.8839C63.0518 48.46 60.9771 47.5677 62.996 46.4003C66.4983 44.3777 74.9307 43.2289 79.1878 41.8495C90.6243 38.1427 82.0469 35.7111 75.6074 34.2537C77.0425 30.7662 79.4592 27.9889 81.7718 25.1595C81.7718 25.1595 87.4417 20.1105 91.9516 12.1986C95.7737 11.4402 100.235 12.3585 103.819 11.8417C104.239 11.7822 104.983 11.5554 104.671 10.994C104.128 10.0199 103.269 10.994 102.968 10.994H92.6171C93.1785 9.94554 93.7102 8.85245 94.2084 7.71847C94.9669 6.24987 95.6621 4.75896 95.9038 3.14165C95.9038 3.13793 95.9038 3.13421 95.9075 3.13049C95.9967 2.52818 96.0265 1.911 95.9707 1.26779C94.8219 1.0633 94.0708 1.97048 93.4276 2.74754C92.2118 4.22358 88.8099 10.9866 87.6201 11.3398C74.5589 12.1949 61.4865 12.4366 48.4624 13.5297C51.9648 6.59564 50.3697 1.69907 41.8928 2.11548C34.7208 2.46869 25.7679 9.03092 20.3806 13.5371C19.4176 14.3402 17.7259 16.7085 16.934 17.1919C15.7256 17.9318 12.8219 18.0582 11.0261 19.1327C6.52366 21.8356 11.3013 22.4305 11.5504 23.4976C11.6619 23.9697 7.96995 29.5579 7.74316 32.3575C6.80995 43.991 20.9791 40.7861 27.6789 37.8527C29.6049 37.0087 31.3151 35.5624 33.2596 34.7333C32.5309 36.1312 31.6088 38.0237 31.3969 38.9904C31.1999 39.7897 31.3002 40.3697 32.1256 40.1764C33.2187 37.9791 37.104 29.9966 39.3608 29.5988C40.1193 29.4649 43.8112 29.9073 44.8374 30.0486C51.9685 31.0413 59.3895 32.5657 66.5281 33.8001C67.61 33.986 73.384 33.9934 73.477 35.3096C73.5104 35.7892 68.7068 43.0615 68.2718 43.4296C66.6433 44.809 60.3525 45.2254 61.2374 47.9432C61.7579 49.542 71.2871 51.2337 73.3245 51.5571C83.5378 53.1819 94.372 53.6317 104.663 55L105.734 54.9814C105.853 54.8959 105.511 54.4348 105.318 54.3456L105.31 54.3493ZM94.2716 4.22729C94.2716 4.22729 92.922 7.25001 90.9031 10.994C90.654 11.1725 90.3714 11.3212 90.0405 11.4179C89.468 10.6557 93.2454 4.88166 94.2753 4.22729H94.2716ZM90.0294 12.2656C90.0443 12.3585 90.0517 12.4477 90.0554 12.537C88.2819 15.6972 86.1329 19.1289 83.9691 21.6088C83.694 21.6014 83.5713 21.4861 83.6754 20.947C84.4784 20.512 89.1519 11.1427 90.0294 12.2693V12.2656ZM27.1473 9.74477C32.1517 6.61423 41.6028 1.02612 47.4623 4.38345C50.5891 6.17551 48.6446 10.942 47.5292 13.4553L19.1908 16.4929L27.1473 9.74477ZM10.58 20.3075C11.6842 19.616 13.5395 19.1884 14.7404 18.6159C15.3315 18.9468 14.64 19.8168 14.3686 20.1588C14.1455 20.4414 12.2902 22.3338 12.1378 22.3636C11.2157 22.5458 9.48317 20.9954 10.58 20.3075ZM30.3633 35.0419C26.4223 37.2206 18.7818 40.0314 14.3388 39.3138C9.12624 38.4698 8.17072 34.1681 9.65791 29.6211C10.0483 28.4276 12.0449 24.3118 13.1231 24.2077C17.5177 25.4569 22.0945 26.0667 26.5152 27.1709C27.3889 27.3903 27.8797 28.1599 28.7534 28.3235C29.8577 28.5317 36.1411 28.3607 36.5835 28.7659C37.9517 30.0152 31.3002 34.5251 30.3633 35.0419ZM37.5799 28.3755C36.5946 28.5317 33.8694 26.8177 32.3376 27.4907C32.6164 26.2675 39.2604 24.2597 39.5467 24.5349C39.9631 24.9364 37.7955 28.3384 37.5762 28.3718L37.5799 28.3755ZM40.4018 28.7622C40.3238 28.2789 40.4167 27.9405 40.6212 27.5018C40.7885 27.1486 43.2982 23.1444 43.4952 22.9622C44.0603 22.4491 49.4774 20.9433 49.7303 21.1515C49.8083 21.2147 49.0424 22.516 49.3101 22.8358C50.0054 23.6797 50.247 21.5754 51.1914 21.5605C56.1214 21.4824 49.7637 28.0149 50.5779 30.03L40.3981 28.7585L40.4018 28.7622ZM52.5448 30.0003C50.2099 29.3273 53.8423 25.3826 54.1658 24.5163C55.4634 21.04 52.318 21.5605 51.6339 20.3224C51.4145 19.9283 52.7009 17.058 50.366 17.0729C47.9493 17.0841 49.5146 20.1105 49.3064 20.3001C47.5738 19.616 45.3802 21.3523 44.3392 21.4973C43.7443 21.5791 43.2647 20.6161 42.7442 20.7202C42.6103 20.7463 41.8258 22.0996 40.7848 22.5718C39.015 23.3749 31.0437 26.4608 29.5379 26.6355C28.4263 26.7657 24.2993 25.9514 22.8976 25.6874C19.927 25.1335 16.6366 23.9549 13.6696 23.2522C13.2532 22.8135 17.1719 18.3519 17.7928 17.7533C27.1659 16.8498 36.4943 15.1321 45.9082 14.7975L46.1164 16.0616C47.8155 13.4553 50.3251 14.6228 52.9054 14.3699C54.783 14.184 56.9989 13.6486 58.8542 13.5334C64.7397 13.1653 70.8 13.7899 76.6633 12.6783L77.7266 13.526L77.0871 13.9535C78.0463 14.8942 79.3142 13.7379 80.5188 13.5631C82.6455 13.2583 84.932 13.1244 87.0624 12.8976L78.7453 27.0259L77.511 27.9071C77.6039 21.4824 73.6554 25.9142 70.9413 27.9071C70.4691 27.3494 74.2243 22.951 73.912 21.7799C72.0084 20.8057 72.3727 23.1369 71.7816 24.2263C71.67 24.4345 71.2239 24.4977 71.1049 24.6873C69.5991 27.0817 69.1864 27.6952 65.8477 27.4869C65.3197 26.9701 67.1824 24.3415 65.632 24.5237C63.8995 24.7282 60.4492 28.7325 58.211 28.7548C58.817 27.8736 59.7242 26.9032 60.5384 26.2154C61.2114 25.6465 65.1041 23.3302 65.6395 23.3711C65.9555 23.3935 67.2456 25.1892 67.9632 24.5274C68.3499 24.1742 67.3758 23.096 66.8181 22.925C61.4865 21.3114 56.0991 31.0227 52.5373 29.9966L52.5448 30.0003ZM67.2865 32.6215C64.7286 32.1865 62.2375 31.8295 59.661 31.3425C58.0771 31.045 56.0545 31.6734 54.6343 30.4539C55.2068 30.2754 56.0694 29.9668 56.8093 29.5541C57.6681 29.5467 58.4972 29.6657 59.159 29.5207C60.2112 29.2939 64.0779 26.6281 64.3754 26.6578C64.9182 26.7136 64.7472 28.1227 65.5279 28.4871C66.8181 29.0894 67.9335 28.2566 69.2533 28.3421C68.6213 29.1117 67.9 31.0376 69.4058 30.8294C70.2498 30.7104 75.3954 25.0963 76.0386 25.8027C75.388 27.2936 77.4031 28.5057 77.3288 28.9481C77.102 30.3498 74.8935 32.2943 74.5068 33.8633C71.9043 34.1979 69.811 33.049 67.294 32.6215H67.2865ZM75.0422 35.1571C75.8119 34.9378 83.6419 37.4511 84.0843 38.098C84.6569 38.9309 80.82 40.3065 80.0392 40.5817C77.7787 41.3773 73.5997 42.5485 71.2722 42.8496C70.9525 42.8905 70.0787 43.2326 70.1048 42.5113C70.1196 42.0688 74.4511 36.187 75.0422 35.1571Z" fill="#1341AE"/>
<path d="M124.391 0C120.264 0.174745 116.996 3.4131 113.795 5.70709C114.594 6.77787 114.479 6.00825 115.093 5.74427C118.074 4.4467 119.331 2.43527 123.462 0.951802C124.138 0.710133 124.596 1.17488 124.391 0Z" fill="#1341AE"/>
</svg>
