<svg width="56" height="40" viewBox="0 0 56 40" fill="none" xmlns="http://www.w3.org/2000/svg">
<g id="fox-logo-w">
<path id="Vector" d="M6.70312 10.8604V28.3604H12.0299V22.7124H16.873V17.924H12.0299V15.6336H17.9686L17.6461 10.8604H6.70312Z" fill="white"/>
<path id="Vector_2" d="M26.5147 10.8604C21.6396 10.8604 17.7148 14.7629 17.7148 19.6104C17.7148 24.4579 21.6396 28.3604 26.5147 28.3604C31.3898 28.3604 35.3144 24.4579 35.3144 19.6104C35.3144 14.7629 31.3898 10.8604 26.5147 10.8604ZM26.5147 14.4644C27.3378 14.4644 28.0004 15.1232 28.0004 15.9417V23.279C28.0004 24.0975 27.3378 24.7564 26.5147 24.7564C25.6915 24.7564 25.0288 24.0975 25.0288 23.279V15.9417C25.0288 15.1232 25.6915 14.4644 26.5147 14.4644Z" fill="white"/>
<path id="Vector_3" d="M32.6748 10.8604L37.668 19.6104L32.6748 28.3604H38.3835L40.5223 24.6122L42.6612 28.3604H48.3699L43.3767 19.6104L48.3699 10.8604H42.6612L40.5223 14.6085L38.3836 10.8604H32.6748Z" fill="white"/>
</g>
</svg>
