<svg width="128" height="128" viewBox="0 0 128 128" fill="none" xmlns="http://www.w3.org/2000/svg">
<g clip-path="url(#clip0_4505_11310)">
<path d="M127.607 65.3852L125.229 62.8256C124.732 62.2909 124.702 61.4724 125.159 60.903L127.346 58.1733C127.854 57.5392 127.752 56.6128 127.118 56.1045L124.393 53.9186C123.824 53.4618 123.675 52.6569 124.044 52.0268L125.811 49.0074C126.221 48.306 125.986 47.4045 125.285 46.9938L122.271 45.2281C121.641 44.8591 121.377 44.0842 121.65 43.4072L122.958 40.1626C123.262 39.4089 122.898 38.5513 122.145 38.247L118.906 36.9392C118.229 36.666 117.855 35.9379 118.027 35.228L118.849 31.8276C119.04 31.0377 118.555 30.2423 117.766 30.051L114.371 29.2289C113.662 29.057 113.186 28.391 113.252 27.6643L113.571 24.1802C113.645 23.3709 113.05 22.6544 112.241 22.5802L108.763 22.2613C108.036 22.1947 107.468 21.6052 107.428 20.8763L107.237 17.383C107.192 16.5715 106.499 15.9494 105.687 15.994L102.2 16.1853C101.472 16.2252 100.824 15.7249 100.679 15.0095L99.9809 11.5813C99.8188 10.7848 99.0421 10.2706 98.2459 10.433L94.8236 11.1304C94.1086 11.2759 93.3951 10.8755 93.1468 10.1887L91.9575 6.89871C91.6813 6.13437 90.838 5.73867 90.074 6.01515L86.7899 7.20372C86.1038 7.45204 85.3395 7.15947 84.9943 6.51654L83.339 3.43467C82.9543 2.7186 82.0627 2.45016 81.347 2.83489L78.2706 4.48939C77.628 4.83499 76.8293 4.65688 76.3937 4.07101L74.3077 1.26342C73.8231 0.610986 72.9019 0.475306 72.2498 0.960243L69.447 3.04518C68.8615 3.48075 68.0452 3.42113 67.5296 2.90475L65.0573 0.430689C64.4828 -0.144214 63.5517 -0.144214 62.9772 0.430689L60.5075 2.90182C59.9915 3.41821 59.1756 3.47782 58.59 3.04225L55.7843 0.954758C55.1322 0.46982 54.211 0.6055 53.7264 1.25793L51.6426 4.0626C51.2074 4.64847 50.4087 4.82657 49.7657 4.48097L46.6861 2.82465C45.9703 2.43992 45.0787 2.70836 44.694 3.42443L43.0406 6.50264C42.6954 7.14557 41.931 7.43814 41.245 7.18982L37.9572 5.99979C37.1932 5.72331 36.3502 6.11901 36.0737 6.88335L34.8859 10.1697C34.6376 10.8561 33.9241 11.2569 33.2091 11.1114L29.7831 10.4132C28.9873 10.2508 28.2105 10.765 28.0481 11.5616L27.3511 14.9861C27.2055 15.7015 26.5579 16.2021 25.8294 16.1619L22.3383 15.9703C21.5271 15.9256 20.8337 16.5477 20.7891 17.3592L20.5978 20.8489C20.558 21.5778 19.99 22.1673 19.2633 22.2338L15.7814 22.5527C14.9724 22.627 14.3767 23.3431 14.4509 24.1527L14.7694 27.6329C14.836 28.3599 14.3598 29.0259 13.6507 29.1974L10.2525 30.0203C9.46291 30.2115 8.97798 31.007 9.16888 31.7969L9.99028 35.1937C10.1618 35.9031 9.78767 36.6313 9.1111 36.9048L5.86868 38.2141C5.1153 38.5184 4.75105 39.376 5.05533 40.1297L6.36239 43.3703C6.63558 44.0472 6.37117 44.8222 5.74177 45.1912L2.72463 46.9591C2.02356 47.3698 1.78804 48.2712 2.19837 48.9727L3.96294 51.9884C4.33158 52.6185 4.1831 53.4234 3.61368 53.8802L0.885818 56.0686C0.252035 56.577 0.150367 57.5033 0.658344 58.1375L2.84312 60.8643C3.29953 61.4337 3.26954 62.2521 2.7729 62.7868L0.39247 65.3494C-0.16049 65.9448 -0.126479 66.8759 0.468538 67.4296L3.02671 69.8089C3.56102 70.3059 3.65062 71.12 3.237 71.7212L1.25482 74.6034C0.79439 75.273 0.96335 76.1895 1.63261 76.6503L4.50968 78.6314C5.11055 79.0454 5.31754 79.8375 4.99608 80.4929L3.4546 83.6329C3.09656 84.3625 3.39718 85.2442 4.12605 85.6026L7.26058 87.1434C7.91558 87.4652 8.23558 88.2189 8.01249 88.9142L6.94424 92.2455C6.69592 93.0193 7.12198 93.848 7.89546 94.0967L11.2209 95.1646C11.9158 95.3877 12.3418 96.0866 12.2226 96.807L11.6503 100.259C11.5175 101.061 12.0591 101.818 12.8604 101.952L16.3058 102.524C17.0255 102.643 17.5489 103.272 17.5357 104.002L17.4717 107.501C17.4567 108.313 18.1033 108.984 18.9155 108.999L22.4074 109.063C23.137 109.076 23.7463 109.623 23.8391 110.347L24.285 113.817C24.3884 114.623 25.1257 115.193 25.9314 115.089L29.3954 114.643C30.1192 114.55 30.8016 115.002 30.9991 115.705L31.9452 119.073C32.165 119.856 32.9772 120.312 33.7591 120.092L37.1212 119.146C37.8237 118.948 38.5646 119.296 38.862 119.963L40.2879 123.157C40.6192 123.899 41.4889 124.232 42.2305 123.901L45.4192 122.475C46.0855 122.178 46.8689 122.414 47.2602 123.03L49.136 125.983C49.5719 126.669 50.4807 126.871 51.1664 126.435L54.1137 124.56C54.7296 124.169 55.5389 124.288 56.0158 124.84L58.3011 127.488C58.8322 128.103 59.7607 128.171 60.3758 127.64L63.0192 125.356C63.5714 124.879 64.3895 124.879 64.9418 125.356L67.5881 127.643C68.2028 128.174 69.1318 128.106 69.6628 127.491L71.9456 124.846C72.4225 124.293 73.2321 124.174 73.8476 124.566L76.7982 126.443C77.4839 126.879 78.3927 126.676 78.8287 125.99L80.7022 123.041C81.0935 122.425 81.8773 122.189 82.5432 122.486L85.7356 123.913C86.4772 124.245 87.3469 123.912 87.6782 123.17L89.1027 119.979C89.4004 119.312 90.1413 118.965 90.8435 119.162L94.2095 120.109C94.9914 120.329 95.8037 119.873 96.0235 119.09L96.9685 115.726C97.166 115.023 97.8484 114.572 98.5721 114.664L102.04 115.111C102.845 115.214 103.583 114.645 103.686 113.839L104.132 110.372C104.225 109.648 104.834 109.102 105.564 109.088L109.06 109.024C109.872 109.009 110.518 108.339 110.504 107.526L110.44 104.032C110.427 103.302 110.95 102.673 111.67 102.553L115.119 101.981C115.92 101.848 116.462 101.09 116.329 100.288L115.757 96.8403C115.638 96.1202 116.064 95.421 116.759 95.1982L120.088 94.1293C120.862 93.8809 121.287 93.0522 121.039 92.278L119.972 88.9504C119.749 88.2552 120.07 87.5018 120.724 87.1796L123.862 85.637C124.592 85.2786 124.892 84.3965 124.534 83.6673L122.994 80.5305C122.672 79.8752 122.879 79.083 123.48 78.6691L126.361 76.6858C127.03 76.225 127.199 75.3085 126.738 74.6389L124.758 71.76C124.345 71.1587 124.434 70.3447 124.969 69.8477L127.53 67.4658C128.125 66.9124 128.159 65.981 127.606 65.3856L127.607 65.3852Z" fill="#1341AE"/>
<path d="M108.407 58.1993L109.868 62.6943H114.594L110.77 65.4723L112.231 69.9669L108.407 67.189L104.584 69.9669L106.044 65.4723L102.221 62.6943H106.947L108.407 58.1993Z" fill="white"/>
<path d="M19.595 58.1992L21.0557 62.6942H25.7818L21.9582 65.4722L23.4185 69.9668L19.595 67.1888L15.7714 69.9668L17.2317 65.4722L13.4082 62.6942H18.1347L19.595 58.1992Z" fill="white"/>
<path d="M28.936 90.6121L31.3545 93.8018L27.411 96.7934C27.1565 96.6774 26.8884 96.5187 26.6053 96.3176C26.3223 96.1164 26.0399 95.897 25.7591 95.6589C25.4775 95.4208 25.2142 95.1751 24.9691 94.922C24.7237 94.6686 24.5208 94.4363 24.3609 94.2253C24.1664 93.9689 23.9854 93.6789 23.8168 93.3553C23.6485 93.0313 23.5165 92.686 23.4222 92.3185C23.3274 91.9509 23.2839 91.5651 23.292 91.161C23.2996 90.7569 23.3805 90.3425 23.533 89.9179C23.6855 89.4933 23.9283 89.0658 24.2604 88.6354C24.5928 88.2053 25.0339 87.7814 25.5835 87.3642C26.4195 86.73 27.1949 86.3317 27.9087 86.1705C28.6226 86.0088 29.2798 86.015 29.8807 86.1891C30.4812 86.3632 31.029 86.6631 31.5242 87.0891C32.0194 87.5152 32.4728 87.9998 32.8843 88.5428C33.0785 88.7992 33.2613 89.0793 33.4325 89.3833C33.6033 89.6872 33.7536 89.971 33.8827 90.2354C34.0118 90.4998 34.15 90.8074 34.2981 91.1588L32.9534 92.1788C32.832 91.831 32.7117 91.5274 32.5921 91.2678C32.4721 91.0081 32.3291 90.7218 32.1631 90.4084C31.9967 90.0949 31.8076 89.7987 31.5962 89.52C31.2989 89.128 30.9837 88.8058 30.6501 88.5538C30.3166 88.3018 29.9556 88.1424 29.5665 88.0751C29.1774 88.0078 28.7568 88.048 28.3048 88.1951C27.8524 88.3421 27.3627 88.6156 26.8357 89.0157C26.361 89.3756 25.9939 89.7406 25.7342 90.1099C25.4742 90.4793 25.3045 90.8425 25.2255 91.1998C25.1461 91.5567 25.1523 91.9056 25.2441 92.2457C25.3359 92.5858 25.4932 92.9029 25.7163 93.1973C25.9507 93.5063 26.1581 93.7528 26.3391 93.9364C26.5198 94.12 26.6774 94.2615 26.8123 94.3614C26.9586 94.4758 27.0961 94.5559 27.2252 94.6005L28.9539 93.2891L27.659 91.5812L28.9357 90.6124L28.936 90.6121Z" fill="white"/>
<path d="M32.9763 102.942C32.4856 102.556 32.1027 102.131 31.828 101.669C31.5534 101.207 31.3837 100.733 31.3189 100.25C31.2538 99.7653 31.2886 99.2848 31.4235 98.8068C31.5577 98.3291 31.7889 97.8822 32.1158 97.4657L36.0063 92.5132L37.5686 93.7413L33.5381 98.8722C33.3746 99.0807 33.2404 99.2968 33.1362 99.5217C33.0319 99.7463 32.9855 99.9778 32.9972 100.215C33.0089 100.453 33.0868 100.695 33.2309 100.941C33.3746 101.186 33.6142 101.441 33.9491 101.704C34.2838 101.967 34.5902 102.136 34.8689 102.21C35.1472 102.285 35.4043 102.295 35.6402 102.24C35.8757 102.185 36.0922 102.078 36.2886 101.92C36.485 101.761 36.6649 101.578 36.8288 101.37L40.8158 96.2947L42.3781 97.5227L38.4877 102.475C38.1603 102.892 37.7826 103.223 37.3543 103.47C36.9257 103.717 36.4689 103.865 35.9833 103.917C35.4976 103.968 34.9998 103.917 34.4897 103.762C33.9795 103.607 33.4748 103.334 32.9767 102.942L32.9763 102.942Z" fill="white"/>
<path d="M46.3815 107.8L42.931 106.304L41.2195 108.113L39.2402 107.255L46.5271 99.606L48.8055 100.594L48.2112 111.145L46.232 110.286L46.3808 107.799L46.3815 107.8ZM46.4931 105.9C46.5249 105.398 46.5516 104.961 46.5732 104.59C46.5951 104.218 46.6178 103.826 46.6419 103.413C46.6657 103.001 46.6862 102.644 46.7037 102.342L45.4654 103.63C45.3133 103.791 45.1619 103.95 45.0119 104.106C44.8616 104.262 44.7296 104.401 44.6155 104.522C44.5014 104.642 44.3763 104.776 44.2406 104.923L46.4931 105.9Z" fill="white"/>
<path d="M58.4611 113.276L56.2709 112.867L55.8485 109.397C55.817 109.257 55.7735 109.128 55.7179 109.012C55.659 108.914 55.5877 108.82 55.504 108.727C55.4202 108.634 55.2992 108.573 55.1412 108.543L53.9972 108.33L53.2574 112.306L51.3184 111.944L53.1327 102.194L55.9088 102.712C56.4109 102.806 56.8798 102.937 57.3153 103.104C57.7509 103.272 58.1181 103.494 58.418 103.772C58.7175 104.049 58.9311 104.389 59.058 104.793C59.1849 105.197 59.1948 105.687 59.0876 106.264C59.032 106.561 58.9402 106.809 58.8122 107.006C58.6838 107.204 58.5379 107.366 58.3748 107.495C58.2113 107.623 58.0417 107.721 57.8654 107.789C57.6891 107.857 57.5282 107.907 57.383 107.938C57.2378 107.968 57.0725 107.99 56.8871 108.004C57.1193 108.047 57.3047 108.137 57.4433 108.273C57.5816 108.41 57.6873 108.552 57.7608 108.7C57.8343 108.849 57.8881 109.037 57.9228 109.265L58.4611 113.276V113.276ZM55.0936 106.86C55.3167 106.902 55.5361 106.926 55.7512 106.933C55.9666 106.939 56.1641 106.911 56.3444 106.848C56.5243 106.786 56.6816 106.678 56.8158 106.525C56.95 106.372 57.0425 106.161 57.0926 105.891C57.1427 105.622 57.1398 105.393 57.0835 105.204C57.0268 105.016 56.9288 104.858 56.7891 104.731C56.649 104.603 56.4753 104.504 56.2676 104.431C56.0595 104.359 55.8302 104.299 55.5793 104.252L54.7842 104.104L54.2989 106.712L55.094 106.86L55.0936 106.86Z" fill="white"/>
<path d="M67.681 110.884L63.9255 111.069L63.1912 113.449L61.0371 113.555L64.1888 103.47L66.6691 103.348L70.802 113.074L68.648 113.18L67.6818 110.884L67.681 110.884ZM66.9408 109.13C66.7474 108.666 66.578 108.263 66.4332 107.919C66.2884 107.576 66.1355 107.214 65.9746 106.834C65.8137 106.454 65.6744 106.124 65.5562 105.846L65.0154 107.549C64.9499 107.761 64.8844 107.97 64.819 108.177C64.7531 108.384 64.6961 108.566 64.6471 108.725C64.5981 108.883 64.545 109.059 64.4884 109.251L66.9401 109.13H66.9408Z" fill="white"/>
<path d="M81.9787 109.958L79.4849 110.731L73.797 104.694L76.0019 111.81L74.1993 112.369L71.2637 102.895L73.7575 102.122L79.4414 108.145L77.2409 101.043L79.0435 100.484L81.9791 109.958H81.9787Z" fill="white"/>
<path d="M86.6252 96.1904L87.4012 97.5282L84.9469 98.9527L89.1475 106.194L87.4414 107.184L83.2408 99.9427L80.7741 101.374L79.998 100.036L86.6252 96.1904Z" fill="white"/>
<path d="M94.5887 100.308L97.4771 97.7482L98.5213 98.9273L94.1462 102.805L87.5703 95.3806L91.9453 91.5029L92.7455 92.8985L90.1014 95.242L91.7102 97.0581L94.3543 94.7146L95.3984 95.8937L92.7543 98.2372L94.5887 100.308Z" fill="white"/>
<path d="M101.131 93.4559L103.452 90.3718L104.71 91.3194L101.194 95.9907L93.2734 90.0233L96.7898 85.3521L97.8511 86.5604L95.7259 89.3833L97.6635 90.8432L99.7886 88.0203L101.046 88.9679L98.9212 91.7908L101.131 93.4555L101.131 93.4559Z" fill="white"/>
<path d="M26.2579 32.2523L34.3767 37.6868L33.3428 39.232L26.7805 34.839L31.8273 41.4972L30.8479 42.9612L22.77 40.8338L29.3324 45.2268L28.2985 46.7719L20.1797 41.3374L21.8276 38.8743L29.3167 40.8766L24.61 34.715L26.2579 32.252V32.2523Z" fill="white"/>
<path d="M32.975 25.8745C33.3586 25.5637 33.8132 25.2883 34.338 25.0484C34.8632 24.8088 35.4271 24.687 36.0305 24.6841C36.6336 24.6812 37.263 24.8366 37.9191 25.1508C38.5748 25.4649 39.2228 26.0164 39.8617 26.806C40.5069 27.6025 40.9135 28.353 41.0814 29.0562C41.2493 29.7599 41.2665 30.4028 41.1326 30.985C40.9988 31.5676 40.7588 32.0887 40.4125 32.5495C40.0662 33.0103 39.7012 33.3962 39.3176 33.707C38.9339 34.0182 38.4812 34.2951 37.9589 34.5387C37.4367 34.7822 36.8753 34.9106 36.2745 34.9234C35.6736 34.9366 35.0468 34.7881 34.3936 34.4776C33.7404 34.1675 33.0916 33.6138 32.4462 32.8172C31.8069 32.028 31.4017 31.2798 31.2309 30.5725C31.0597 29.8656 31.0404 29.2157 31.1716 28.6229C31.3033 28.0304 31.5407 27.502 31.8841 27.0375C32.2275 26.5734 32.591 26.1857 32.9746 25.8745H32.975ZM38.359 32.5225C38.6629 32.276 38.9014 31.9929 39.074 31.6729C39.2466 31.3529 39.3377 31.0066 39.3468 30.6328C39.356 30.2594 39.274 29.8582 39.1003 29.4293C38.9266 29.0003 38.6494 28.5505 38.268 28.0794C37.8986 27.623 37.5219 27.2657 37.1383 27.0068C36.7546 26.7478 36.378 26.5825 36.0079 26.5105C35.6378 26.4388 35.2772 26.4524 34.9257 26.5511C34.5743 26.6502 34.2466 26.8228 33.9427 27.0693C33.6388 27.3158 33.4018 27.6007 33.2321 27.9244C33.0624 28.248 32.9739 28.6013 32.9669 28.9849C32.96 29.3686 33.0415 29.773 33.2123 30.1984C33.3831 30.6241 33.6563 31.0684 34.0315 31.5318C34.413 32.0024 34.7937 32.3656 35.1744 32.6209C35.5551 32.8765 35.9307 33.0367 36.3012 33.1018C36.672 33.1672 37.0315 33.1486 37.38 33.0462C37.7285 32.9434 38.0548 32.769 38.359 32.5225Z" fill="white"/>
<path d="M51.6074 26.5849L49.2617 27.6378L42.9835 22.4103L45.9853 29.108L44.2895 29.869L40.293 20.9515L42.6387 19.8986L48.911 25.1133L45.9151 18.428L47.6109 17.667L51.6074 26.5846V26.5849Z" fill="white"/>
<path d="M55.2436 24.1777L58.9703 23.4313L59.2745 24.953L53.6297 26.0835L51.7148 16.4996L57.3596 15.3691L57.3487 16.9541L53.9373 17.6373L54.4058 19.9819L57.8172 19.2987L58.1211 20.8205L54.7097 21.5036L55.244 24.1774L55.2436 24.1777Z" fill="white"/>
<path d="M63.6859 20.9994L60.3594 15.1831L62.3712 15.216L64.7212 19.2542L67.1905 15.295L69.2162 15.3283L65.5858 21.0305L65.5229 24.8054L63.623 24.7743L63.6859 20.9994Z" fill="white"/>
<path d="M81.6459 25.5456C81.4653 26.0554 81.2049 26.4478 80.8651 26.7229C80.5254 26.9982 80.1417 27.1811 79.7142 27.2714C79.2867 27.3621 78.8274 27.3749 78.3369 27.3095C77.8461 27.2444 77.3638 27.1273 76.8898 26.9591L74.2168 26.0108L77.4845 16.7988L80.3418 17.8126C80.7894 17.9713 81.1972 18.1655 81.5658 18.3952C81.9341 18.6248 82.2314 18.8936 82.4582 19.2016C82.6849 19.5095 82.829 19.8624 82.8904 20.2599C82.9519 20.6578 82.9014 21.0996 82.7387 21.586L82.7339 21.5992C82.581 22.0296 82.3645 22.3339 82.0844 22.5113C81.8039 22.6887 81.5278 22.7987 81.2561 22.8404C80.9309 22.8935 80.5938 22.8825 80.2449 22.8079C80.6241 22.9922 80.9394 23.2175 81.1906 23.4848C81.4071 23.7101 81.579 23.9913 81.7066 24.3282C81.8339 24.6653 81.8167 25.0621 81.6547 25.5189L81.6452 25.5453L81.6459 25.5456ZM77.8432 25.6506C78.0363 25.719 78.2312 25.761 78.4287 25.7767C78.6255 25.7925 78.8131 25.772 78.9912 25.7168C79.1689 25.6612 79.3269 25.5639 79.4652 25.4249C79.6034 25.286 79.7146 25.098 79.7987 24.8606C79.8828 24.6233 79.9135 24.4042 79.8909 24.2034C79.8682 24.0027 79.8031 23.8235 79.6959 23.6669C79.5884 23.5101 79.4465 23.3733 79.271 23.2566C79.0951 23.1399 78.9016 23.0441 78.6909 22.9692L77.5324 22.5581L76.5928 25.207L77.8436 25.6506H77.8432ZM78.0184 21.1874L79.1901 21.6032C79.3481 21.6592 79.5131 21.6954 79.6853 21.7122C79.8572 21.7287 80.0211 21.7126 80.1768 21.6639C80.3323 21.6153 80.4731 21.5315 80.5992 21.413C80.7251 21.2946 80.8242 21.1344 80.8958 20.9321C80.9708 20.7211 80.9964 20.5302 80.9734 20.3587C80.95 20.1872 80.8925 20.0358 80.8011 19.9045C80.7093 19.7732 80.585 19.6573 80.4277 19.557C80.2705 19.4568 80.0997 19.3738 79.9154 19.3087L78.8226 18.9211L78.0184 21.1878V21.1874Z" fill="white"/>
<path d="M88.1117 30.1069L84.9965 28.1057L83.0447 29.5942L81.2578 28.4465L89.5592 22.1621L91.6163 23.4834L89.3569 33.6492L87.57 32.5016L88.1113 30.1069H88.1117ZM88.5227 28.2769C88.6335 27.7941 88.729 27.3735 88.8098 27.0151C88.8903 26.6571 88.9751 26.2793 89.064 25.8822C89.1529 25.485 89.2297 25.1412 89.2948 24.8505L87.886 25.9067C87.7123 26.039 87.5401 26.1692 87.3693 26.2976C87.1981 26.426 87.0478 26.5397 86.9176 26.6392C86.7874 26.7383 86.6444 26.8487 86.489 26.9705L88.5227 28.2769Z" fill="white"/>
<path d="M100.145 30.6263C100.392 30.8801 100.606 31.1365 100.787 31.3958C100.967 31.6551 101.119 31.8946 101.241 32.1137C101.383 32.366 101.505 32.6048 101.607 32.8305L100.515 33.8936C100.356 33.529 100.165 33.1724 99.942 32.8231C99.7197 32.4743 99.4684 32.166 99.189 31.899C98.9092 31.6316 98.6057 31.417 98.2787 31.2542C97.9514 31.0919 97.6 31.0114 97.2248 31.0132C96.8492 31.0151 96.4509 31.1134 96.03 31.3091C95.6087 31.5047 95.1713 31.8236 94.7174 32.2658C94.2566 32.7145 93.9227 33.1468 93.7165 33.5626C93.5098 33.9784 93.3986 34.3756 93.3837 34.7545C93.3683 35.1334 93.4378 35.4885 93.5914 35.8202C93.7446 36.1515 93.9549 36.4576 94.2211 36.7381C94.4874 37.0183 94.7953 37.2713 95.1446 37.4966C95.4938 37.7223 95.8552 37.9128 96.2285 38.0693L95.1267 39.1423C94.8908 39.0469 94.6487 38.9251 94.4003 38.777C94.178 38.6552 93.9395 38.5005 93.6854 38.3129C93.4308 38.1249 93.1803 37.904 92.9335 37.6506C92.7126 37.4235 92.5005 37.162 92.2968 36.8661C92.0934 36.5699 91.923 36.2484 91.7862 35.9006C91.6491 35.5528 91.5606 35.1809 91.52 34.7848C91.479 34.3888 91.5079 33.974 91.6063 33.5403C91.7043 33.1066 91.8886 32.6608 92.1581 32.2029C92.428 31.745 92.8066 31.2787 93.2941 30.804C93.775 30.3359 94.2475 29.9731 94.7123 29.7153C95.1768 29.4578 95.6273 29.2856 96.0632 29.1993C96.4992 29.1126 96.9143 29.0951 97.3092 29.1463C97.7035 29.1975 98.0747 29.2947 98.4217 29.4377C98.7688 29.5807 99.0873 29.7577 99.3781 29.9691C99.6685 30.1805 99.9237 30.3996 100.145 30.6267L100.145 30.6263Z" fill="white"/>
<path d="M99.7826 47.1782L98.6368 45.3236L100.641 40.7482L100.134 39.9279L96.6389 42.0904L95.6621 40.5094L103.973 35.3682L104.95 36.9491L101.454 39.1116L101.968 39.9436L106.874 40.0636L108.035 41.9419L102.091 41.6584L99.7826 47.1782Z" fill="white"/>
<path d="M64.0019 98.67C83.0913 98.67 98.5663 83.185 98.5663 64.0833C98.5663 44.9816 83.0913 29.4966 64.0019 29.4966C44.9125 29.4966 29.4375 44.9816 29.4375 64.0833C29.4375 83.185 44.9125 98.67 64.0019 98.67Z" fill="white"/>
<path d="M64.0009 9.7985C67.683 9.7985 71.362 10.1697 74.9358 10.9015C78.4178 11.6143 81.8427 12.6785 85.1158 14.0635C88.3297 15.4235 91.4299 17.1073 94.3296 19.0679C97.2027 21.0102 99.9042 23.2407 102.36 25.6976C104.815 28.1544 107.044 30.8582 108.985 33.733C110.944 36.635 112.627 39.737 113.987 42.9534C115.371 46.2284 116.434 49.6559 117.147 53.1404C117.878 56.7167 118.249 60.3984 118.249 64.0833C118.249 67.7682 117.878 71.4495 117.147 75.0262C116.434 78.5107 115.371 81.9382 113.987 85.2132C112.627 88.4293 110.945 91.5316 108.985 94.4335C107.044 97.3084 104.815 100.012 102.36 102.469C99.9042 104.926 97.2023 107.157 94.3296 109.099C91.4295 111.059 88.3297 112.743 85.1158 114.103C81.843 115.488 78.4181 116.552 74.9358 117.265C71.362 117.997 67.683 118.368 64.0009 118.368C60.3189 118.368 56.6399 117.997 53.0661 117.265C49.5841 116.552 46.1592 115.488 42.8861 114.103C39.6722 112.743 36.572 111.059 33.6723 109.099C30.7992 107.156 28.0977 104.926 25.6423 102.469C23.1869 100.012 20.9578 97.3084 19.0166 94.4335C17.0575 91.5316 15.3745 88.4296 14.0151 85.2132C12.6309 81.9378 11.5674 78.5107 10.855 75.0262C10.1236 71.4499 9.75272 67.7682 9.75272 64.0833C9.75272 60.3984 10.1236 56.7171 10.855 53.1404C11.5674 49.6559 12.6309 46.2284 14.0151 42.9534C15.3745 39.7373 17.0571 36.635 19.0166 33.733C20.9575 30.8582 23.1869 28.1548 25.6423 25.6976C28.0977 23.2407 30.7992 21.0098 33.6723 19.0679C36.5724 17.1073 39.6722 15.4235 42.8861 14.0635C46.1588 12.6781 49.5838 11.6143 53.0661 10.9015C56.6399 10.1697 60.3189 9.7985 64.0009 9.7985ZM64.0009 7.66528C32.8622 7.66528 7.61914 32.9244 7.61914 64.0833C7.61914 95.2421 32.8622 120.501 64.0009 120.501C95.1397 120.501 120.383 95.2421 120.383 64.0833C120.383 32.9244 95.1397 7.66528 64.0009 7.66528Z" fill="white"/>
<path d="M43.0326 74.6583H39.3626V57.2561H35.6426V54.2639L43.0326 53.5087V74.6587V74.6583Z" fill="#1341AE"/>
<path d="M58.4888 66.4219C58.4888 69.2207 57.9336 71.344 56.8237 72.7915C55.7134 74.2394 54.2114 74.9631 52.3181 74.9631C50.4248 74.9631 48.8954 74.2394 47.7811 72.7915C46.6667 71.344 46.1094 69.2207 46.1094 66.4219V61.759C46.1094 58.9701 46.6645 56.8471 47.7748 55.3894C48.8848 53.932 50.3908 53.2031 52.2929 53.2031C54.195 53.2031 55.6926 53.932 56.8113 55.3894C57.93 56.8471 58.4892 58.9701 58.4892 61.759V66.4219H58.4888ZM54.8317 61.3187C54.8317 59.6452 54.6137 58.4186 54.1781 57.6396C53.7422 56.861 53.1139 56.4715 52.2929 56.4715C51.4718 56.4715 50.8351 56.8584 50.4076 57.6323C49.9805 58.4061 49.7665 59.6349 49.7665 61.3183V66.8183C49.7665 68.5214 49.9823 69.7597 50.4138 70.5336C50.8454 71.3074 51.4799 71.6947 52.3177 71.6947C53.1556 71.6947 53.763 71.3078 54.1906 70.5336C54.6177 69.7597 54.8317 68.5214 54.8317 66.8183V61.3183V61.3187Z" fill="#1341AE"/>
<path d="M73.2564 66.4219C73.2564 69.2207 72.7012 71.344 71.5913 72.7915C70.481 74.2394 68.979 74.9631 67.0857 74.9631C65.1924 74.9631 63.663 74.2394 62.5486 72.7915C61.4343 71.344 60.877 69.2207 60.877 66.4219V61.759C60.877 58.9701 61.4321 56.8471 62.5424 55.3894C63.6524 53.932 65.1584 53.2031 67.0605 53.2031C68.9625 53.2031 70.4601 53.932 71.5789 55.3894C72.6976 56.8471 73.2567 58.9701 73.2567 61.759V66.4219H73.2564ZM69.5989 61.3187C69.5989 59.6452 69.3809 58.4186 68.9453 57.6396C68.5098 56.861 67.8811 56.4715 67.0601 56.4715C66.2391 56.4715 65.6023 56.8584 65.1748 57.6323C64.7477 58.4061 64.5337 59.6349 64.5337 61.3183V66.8183C64.5337 68.5214 64.7495 69.7597 65.181 70.5336C65.6126 71.3074 66.2471 71.6947 67.085 71.6947C67.9228 71.6947 68.5303 71.3078 68.9578 70.5336C69.3849 69.7597 69.5985 68.5214 69.5985 66.8183V61.3183L69.5989 61.3187Z" fill="#1341AE"/>
<path d="M75.6445 57.5756C75.6445 56.3263 75.9942 55.2855 76.6941 54.4524C77.3937 53.6197 78.3676 53.2031 79.6162 53.2031C80.8647 53.2031 81.8617 53.6171 82.5573 54.4451C83.2525 55.2731 83.6003 56.3168 83.6003 57.5756V58.694C83.6003 59.9432 83.2525 60.9797 82.5573 61.8025C81.8617 62.6258 80.89 63.0372 79.6414 63.0372C78.3929 63.0372 77.4044 62.6258 76.7004 61.8025C75.9964 60.9797 75.6445 59.9432 75.6445 58.694V57.5756ZM78.0828 58.694C78.0828 59.2557 78.2166 59.7278 78.485 60.1104C78.7531 60.4929 79.1386 60.6842 79.6414 60.6842C80.1443 60.6842 80.5023 60.4929 80.7664 60.1104C81.0304 59.7278 81.1624 59.2557 81.1624 58.694V57.5756C81.1624 57.0142 81.0282 56.537 80.7601 56.1449C80.4917 55.7529 80.1106 55.5565 79.6166 55.5565C79.1225 55.5565 78.7432 55.7525 78.4792 56.1449C78.2151 56.537 78.0831 57.0142 78.0831 57.5756V58.694H78.0828ZM80.2445 73.0746L78.4598 71.9851L87.3957 55.4545L89.1804 56.5439L80.2445 73.0746ZM84.3921 69.4719C84.3921 68.2325 84.7439 67.1964 85.4479 66.3634C86.1515 65.5306 87.1276 65.1141 88.3761 65.1141C89.6247 65.1141 90.611 65.5281 91.3106 66.356C92.0103 67.184 92.3602 68.2226 92.3602 69.4719V70.5903C92.3602 71.8494 92.0124 72.8903 91.3172 73.7135C90.6216 74.5367 89.6499 74.9481 88.4014 74.9481C87.1528 74.9481 86.1621 74.5341 85.4541 73.7062C84.7461 72.8782 84.3921 71.8396 84.3921 70.5903V69.4719ZM86.8303 70.5903C86.8303 71.1421 86.9747 71.6143 87.264 72.0067C87.5529 72.3991 87.9322 72.5951 88.4014 72.5951C88.9459 72.5951 89.3354 72.4137 89.5702 72.0506C89.8046 71.6874 89.922 71.2007 89.922 70.5906V69.4723C89.922 68.9204 89.7878 68.4483 89.5197 68.0559C89.2513 67.6638 88.8702 67.4674 88.3761 67.4674C87.8821 67.4674 87.49 67.6635 87.226 68.0559C86.9619 68.4483 86.8303 68.9201 86.8303 69.4723V70.5906V70.5903Z" fill="#1341AE"/>
</g>
<defs>
<clipPath id="clip0_4505_11310">
<rect width="128" height="128" fill="white"/>
</clipPath>
</defs>
</svg>
