<?xml version="1.0" encoding="utf-8"?>
<!-- Generator: Adobe Illustrator 27.0.0, SVG Export Plug-In . SVG Version: 6.00 Build 0)  -->
<svg version="1.1" id="Layer_1" xmlns="http://www.w3.org/2000/svg" xmlns:xlink="http://www.w3.org/1999/xlink" x="0px" y="0px"
	 viewBox="0 0 945.3 134.8" style="enable-background:new 0 0 945.3 134.8;" xml:space="preserve">
<style type="text/css">
	.st0{fill:#FFFFFF;}
	.st1{fill:#21B4D6;}
</style>
<path class="st0" d="M178.9,86.3l1.4-0.4l11.7-4.4c0.3-0.1,0.6-0.2,0.8-0.4l2.7-1.3c0.4-0.2,0.9-0.4,1.1-0.5l2.3-1.1V44.8h-20.1
	V86.3z"/>
<path class="st0" d="M197.2,97.7l-0.6-0.3l-2.5,1.9l-4.5,3.2c-0.4,0.3-0.9,0.6-1.5,1l-3.3,2c-1.9,1.1-3.7,2-5.3,2.8l-0.6,0.3v20.3
	H199V95.4l-2.2,1.8L197.2,97.7z"/>
<rect x="178.9" y="6" class="st0" width="20.1" height="21.2"/>
<path class="st0" d="M242.1,59.3c-0.1-5.6-0.3-11.5-0.6-13.6l-0.1-0.9h-19.5l0,1.1c0.2,7.4,0.2,14.9,0.2,22.2v60.7h20.1V94.6
	c0-10.9,2.9-19.3,8.7-25c5.4-5.4,13.4-8.1,23-8l1.1,0v-19l-1.1,0C259.7,42.4,248.4,48.5,242.1,59.3z"/>
<path class="st0" d="M361.8,106.8V72.3c0-19.7-12.9-29.7-38.5-29.7c-32.5,0-37.7,19-38.4,27.1l-0.1,1.2h20L305,70
	c1.3-5.9,3.9-12.2,18.4-12.2c16.7,0,18.6,8.5,18.6,14.9v2.8h-18.2c-29.3,0-43.6,9.2-43.6,28c0,12.7,8.6,27.5,32.7,27.5
	c14.1,0,24-3.7,29.6-11.1c0.1,2.8,0.4,6.1,0.9,8.1l0.2,0.8h19.1l-0.2-1.2C362.3,125.8,361.8,115.3,361.8,106.8z M342.1,90v1.9
	c0,15.5-8.4,23.4-25,23.4c-10.7,0-17.1-4.7-17.1-12.6c0-8.9,7.3-12.8,24.3-12.8C333.9,89.9,339.3,89.9,342.1,90z"/>
<path class="st0" d="M467.3,66.7c5.9-2.6,16-9.2,16-24.2c0-19-14.1-29.9-38.8-29.9h-58v116.3h58.5c26.4,0,42.8-13.3,42.8-34.6
	C487.8,76.9,475.1,69.6,467.3,66.7z M407.3,76.1h33c11.6,0,25.4,3.1,25.4,17.9c0,11.8-8.2,17.8-24.4,17.8h-34V76.1z M440,59.1h-32.7
	V29.6h33.2c14.1,0,20.9,4.8,20.9,14.8C461.4,54.3,454.4,59.1,440,59.1z"/>
<path class="st0" d="M556.1,42.6c-13.8,0-24.9,6-31.1,16.7c-0.1-5.6-0.3-11.5-0.6-13.6l-0.1-0.9h-19.5l0,1.1
	c0.2,7.4,0.2,14.9,0.2,22.2v60.7H525V94.6c0-10.9,2.9-19.3,8.7-25c5.4-5.4,13.3-8.1,23-8l1.1,0v-19l-1.1,0
	C556.5,42.6,556.3,42.6,556.1,42.6z"/>
<path class="st0" d="M608.7,42.6c-26,0-44.1,18.3-44.1,44.5c0,11.7,3.8,22.4,10.6,30.2c7.9,9.1,19.6,13.8,33.9,13.8
	c28.5,0,38.7-16.7,42.2-26.7l0.5-1.4h-20.1l-0.3,0.6c-4.4,7.9-11.1,11.4-21.6,11.4c-14,0-23.7-8.9-25-22.7h67.6l0-1
	c0.1-1.9,0.1-3,0.1-4.6C652.5,66.2,641,42.6,608.7,42.6z M608.7,58.2c17.9,0,22.2,11.8,23.1,19.7h-46.5
	C587,65.3,595.4,58.2,608.7,58.2z"/>
<path class="st0" d="M709,42.6c-26,0-44.1,18.3-44.1,44.5c0,11.7,3.8,22.4,10.6,30.2c7.9,9.1,19.6,13.8,33.9,13.8
	c28.5,0,38.7-16.7,42.2-26.7l0.5-1.4H732l-0.3,0.6c-4.4,7.9-11.1,11.4-21.6,11.4c-14,0-23.7-8.9-25-22.7h67.6l0-1
	c0.1-1.9,0.1-3,0.1-4.6C752.7,66.2,741.3,42.6,709,42.6z M708.9,58.2c17.9,0,22.2,11.8,23.1,19.7h-46.5
	C687.2,65.3,695.7,58.2,708.9,58.2z"/>
<polygon class="st0" points="840.5,60.3 840.8,60 840.8,44.8 764.4,44.8 764.4,61.2 814.3,61.2 761.4,114.1 761.4,128.8 
	841.8,128.8 844.8,112.3 788.9,112.3 "/>
<path class="st0" d="M896.6,42.6c-26,0-44.1,18.3-44.1,44.5c0,11.7,3.8,22.4,10.6,30.2c7.9,9.1,19.6,13.8,33.9,13.8
	c28.5,0,38.7-16.7,42.2-26.7l0.5-1.4h-20.1l-0.3,0.6c-4.4,7.9-11.1,11.4-21.6,11.4c-14,0-23.7-8.9-25-22.7h67.6l0-1
	c0.1-1.9,0.1-3,0.1-4.6C940.4,66.2,928.9,42.6,896.6,42.6z M896.5,58.2c17.9,0,22.2,11.8,23.1,19.7h-46.5
	C874.8,65.3,883.3,58.2,896.5,58.2z"/>
<g id="XMLID_1478_">
	<path class="st1" d="M206.8,80.1c-0.1,0.1-0.6,0.7-1.4,1.7c-0.5,0.5-1.1,1.2-1.8,2c-0.7,0.8-1.6,1.6-2.6,2.6c-0.5,0.5-1,1-1.6,1.5
		c-0.5,0.5-1,0.9-1.5,1.4c-0.1,0.1-0.2,0.2-0.3,0.2c-0.6,0.6-1.3,1.1-2,1.7c-0.7,0.6-1.4,1.2-2.2,1.8c-0.8,0.6-1.6,1.2-2.5,1.9
		c-0.4,0.3-0.9,0.6-1.3,1c-0.5,0.3-0.9,0.6-1.4,0.9c-0.9,0.6-1.9,1.3-2.9,1.9c-1,0.6-2.1,1.3-3.2,1.9c-0.7,0.4-1.4,0.8-2.1,1.2
		c-3.9,2.1-8.2,4.1-13,5.9c-3.4,1.3-7.1,2.4-11,3.3l1.7,2.9c-0.3,0.1-0.6,0.2-0.9,0.2c-2.7,0.6-5.5,1.2-8.2,1.6l-3.1,0.4
		c-0.3,0-0.7,0.1-1.1,0.1l-4.7,0.4l-2.2,0.1c-0.6,0-1.2,0-1.8,0c-0.8,0-1.6,0-2.5,0h0l-0.8-1.4l-1.1-2c-1.7-0.1-3.5-0.3-5.2-0.5
		c-7.6-0.9-15.3-2.9-22.6-5.5c-7.4-2.6-14.1-5.7-20.3-8.6c-2-1-4-1.9-6-2.8l-1.6,2.8c-3.9-1.9-7.7-3.7-11.4-5.3
		c-2.9-1.3-5.6-2.4-8-3.3l-1.3-0.5c0,0-0.1,0-0.1,0l1.6-2.8c-1.1-0.4-2.1-0.8-3.1-1.1c-0.7-0.2-1.3-0.5-2-0.7
		c-0.6-0.2-1.3-0.4-1.9-0.6c-5.1-1.6-10-2.8-14.6-3.5c-4.4-0.7-8.5-1-12.1-1c-3.8,0-7.2,0.3-9.9,0.7c-1.3,0.2-2.5,0.4-3.5,0.6
		c-0.5,0.1-1,0.2-1.4,0.3c-0.4,0.1-0.8,0.2-1.1,0.3c-1.2,0.3-1.9,0.5-2.1,0.5c0.2-0.1,0.8-0.6,1.7-1.3c0.3-0.2,0.6-0.5,1-0.7
		c0.4-0.3,0.8-0.5,1.3-0.8c0.9-0.6,2-1.2,3.2-1.8c0.6-0.3,1.3-0.7,2-1c0.7-0.3,1.5-0.6,2.3-1c0.4-0.2,0.8-0.3,1.2-0.5l1.3-0.5
		c0.5-0.2,0.9-0.3,1.4-0.5c0.2-0.1,0.5-0.2,0.7-0.2c0.2-0.1,0.5-0.1,0.7-0.2c1-0.3,2-0.6,3-0.8c1.1-0.2,2.2-0.5,3.3-0.7
		c1.1-0.2,2.3-0.4,3.5-0.6c1.2-0.2,2.5-0.3,3.8-0.4c2.2-0.2,4.6-0.3,7-0.3c3.1,0,6.4,0.2,9.8,0.5c0.8,0.1,1.5,0.2,2.3,0.3
		c0.8,0.1,1.5,0.2,2.3,0.3c1.6,0.2,3.1,0.5,4.7,0.8c3.1,0.6,6.4,1.4,9.6,2.3c6.4,1.8,13,4.2,19.5,6.7c6.5,2.5,13,5.1,19.6,7.5
		c6.6,2.4,12.9,4.2,19,5.4c3.1,0.6,6.1,1,9,1.3c0.4,0,0.7,0.1,1.1,0.1l0.6,0l0.6,0c0.8,0,1.5,0.1,2.3,0.1c0.4,0,0.7,0,1.1,0h1.1
		c0.8,0,1.5,0,2.2,0c5.9,0,11.5-0.6,16.8-1.4c5.3-0.9,10.2-2,14.7-3.3c0.6-0.2,1.1-0.3,1.6-0.5c0.6-0.2,1.1-0.3,1.6-0.5
		c1.1-0.3,2.1-0.7,3.1-1.1c0.5-0.2,1-0.3,1.5-0.5c0.5-0.2,1-0.4,1.4-0.6c0.9-0.3,1.9-0.7,2.7-1c0.9-0.4,1.7-0.7,2.5-1.1
		c0.8-0.3,1.6-0.6,2.3-1c0.8-0.3,1.5-0.7,2.1-1c0.2-0.1,0.4-0.2,0.5-0.2c0.5-0.2,0.9-0.4,1.4-0.7c1.2-0.6,2.3-1.1,3.2-1.6
		c0.9-0.5,1.7-0.9,2.3-1.3C206,80.5,206.7,80.2,206.8,80.1z"/>
</g>
<g id="XMLID_822_">
	<path class="st0" d="M74.7,100.4l-0.8,1.3l-8,13.8l-7.2,12.4H32.7l20.4-35.3l0.7-1.1c0.8,0.3,1.7,0.6,2.5,0.9
		c0.3,0.1,0.6,0.2,0.9,0.3c2.7,1,5.4,2.2,8.2,3.4C68.4,97.4,71.5,98.9,74.7,100.4z"/>
	<path class="st0" d="M165.7,127.9h-26.1l-4.5-7.8l-0.6-1c0.9,0,1.9,0,2.8,0c0.5,0,0.9,0,1.4,0l0.7,0l0.7,0c0.9-0.1,1.8-0.1,2.7-0.2
		c0.5,0,0.9-0.1,1.3-0.1c0.4,0,0.9-0.1,1.3-0.2c0.9-0.1,1.7-0.2,2.6-0.3c2.7-0.4,5.3-0.9,7.9-1.5c0.9-0.2,1.9-0.5,2.8-0.7l0.6,1.1
		L165.7,127.9z"/>
	<path class="st0" d="M77.2,96.1l-1.6,2.8l-0.9,1.5c-3.2-1.5-6.3-3-9.4-4.3c-2.8-1.2-5.5-2.4-8.2-3.4c-0.3-0.1-0.6-0.2-0.9-0.3
		c-0.8-0.3-1.7-0.6-2.5-0.9l1-1.7l1.6-2.8c0.3,0.1,0.6,0.2,0.9,0.3c2.7,1,5.4,2.2,8.2,3.4C69.2,92.3,73.1,94.1,77.2,96.1z"/>
	<path class="st0" d="M158.8,115.9c-0.9,0.2-1.9,0.5-2.8,0.7c-2.6,0.6-5.2,1.1-7.9,1.5c-0.9,0.1-1.7,0.2-2.6,0.3
		c-0.5,0-0.9,0.1-1.3,0.2c-0.5,0-0.9,0.1-1.3,0.1c-0.9,0.1-1.8,0.2-2.7,0.2l-0.7,0l-0.7,0c-0.5,0-0.9,0-1.4,0c-0.9,0-1.9,0-2.8,0
		l-1.3-2.2h0l-0.8-1.4l-1.1-2c2,0.1,4.1,0.2,6.1,0.1c0.5,0,0.9,0,1.4,0l0.7,0l0.7,0c0.9-0.1,1.8-0.1,2.7-0.2c0.5,0,0.9-0.1,1.3-0.1
		c0.4,0,0.9-0.1,1.3-0.2c0.9-0.1,1.7-0.2,2.6-0.3c2.7-0.4,5.3-0.9,7.9-1.5l1.7,2.9L158.8,115.9z"/>
</g>
<path class="st0" d="M144.5,91.2c-0.3,0-0.7,0-1,0c-0.4,0-0.7,0-1.1,0c-0.8,0-1.5-0.1-2.3-0.1l-0.6,0l-0.6,0c-0.4,0-0.7-0.1-1.1-0.1
	c-3-0.3-6-0.7-9-1.3c-4.4-0.8-8.8-2.1-13.4-3.5l-0.9-1.5L99.2,57.9L89.4,75L88.7,76c-6-2.3-12-4.4-17.9-6.1c-1.3-0.4-2.7-0.7-4-1.1
	l0.5-0.9l31.9-55.2l33.2,57.6l11.5,20L144.5,91.2z"/>
</svg>
