<svg width="51" height="50" viewBox="0 0 51 50" fill="none" xmlns="http://www.w3.org/2000/svg">
<g clip-path="url(#clip0_4526_7893)">
<g clip-path="url(#clip1_4526_7893)">
<path d="M25.7757 23.851C25.7739 25.9243 25.7721 28.0691 27.0473 29.2596C27.5948 29.7704 28.301 30.0288 29.1507 30.0288C29.2511 30.0288 29.3538 30.0252 29.4596 30.0174C31.4037 29.8828 33.1122 28.8419 34.3833 27.9501C36.6922 26.3275 39.0636 23.2025 38.1345 19.7169C37.5774 17.6292 35.8875 15.9339 33.8292 15.3966C32.4656 15.0409 30.855 15.1977 29.0341 15.86C29.0341 15.8594 29.0329 15.8588 29.0329 15.8576C29.4921 15.5367 30.0696 15.2037 30.6351 14.8774C32.432 13.8413 34.2907 12.771 34.6844 11.0715C34.8737 10.2554 34.6886 9.42488 34.1351 8.60276C33.0461 6.98678 31.2907 6.02764 29.8833 5.3726C27.3232 4.18149 23.4284 3.69411 20.8767 6.24099C19.3472 7.76863 18.7228 10.0799 19.2871 12.1304C19.6615 13.4898 20.6014 14.8059 22.0846 16.0517C21.5774 15.8149 21.0005 15.4814 20.4356 15.1544C18.6399 14.116 16.7835 13.0421 15.1147 13.5505C14.3136 13.7951 13.6868 14.3702 13.2517 15.2608C12.3965 17.0126 12.4434 19.0114 12.5798 20.5583C12.8286 23.3702 14.3544 26.9868 17.8358 27.9243C18.3454 28.0607 18.8707 28.1292 19.3983 28.1286C21.0089 28.1286 22.6002 27.4982 23.733 26.3558C24.721 25.354 25.3899 23.8852 25.7276 21.9826C25.7751 22.5385 25.7757 23.2013 25.7757 23.851ZM24.0576 16.5703C24.0894 16.5409 24.1201 16.509 24.1477 16.4754C24.5257 16.1022 25.0449 15.8714 25.6183 15.8726C25.9836 15.8726 26.3424 15.9694 26.6591 16.152C27.3064 16.5252 27.7048 17.2163 27.7036 17.9639C27.7018 19.1172 26.7661 20.0511 25.6122 20.0493C24.4584 20.0475 23.5251 19.1118 23.5269 17.9579C23.5275 17.4249 23.7282 16.9393 24.0576 16.5703ZM33.3442 17.2578C34.7222 17.6172 35.9007 18.8047 36.2763 20.2127C36.95 22.738 35.0816 25.1118 33.2787 26.3774C32.2108 27.1256 30.7979 27.9982 29.3262 28.0998C28.7391 28.1406 28.4933 27.9796 28.3598 27.8546C27.6988 27.235 27.6988 25.3594 27.6988 23.8522C27.6988 22.9952 27.6994 22.1725 27.605 21.4489C28.2132 21.1022 28.7306 20.5956 29.0906 19.9663C29.441 19.3594 29.6267 18.6707 29.6285 17.97C29.6285 17.8774 29.6249 17.7855 29.6189 17.6947C31.0828 17.1532 32.361 17.0018 33.3448 17.2578H33.3442ZM21.1417 11.6172C20.7637 10.2446 21.203 8.62981 22.2348 7.60036C24.084 5.75421 27.0744 6.1851 29.072 7.11478C30.2565 7.66466 31.7162 8.45252 32.5401 9.67548C32.8713 10.1659 32.852 10.4567 32.8112 10.637C32.6062 11.5222 30.9806 12.4585 29.6747 13.2109C28.9314 13.6394 28.2174 14.0517 27.6375 14.4958C27.0467 14.1508 26.3604 13.9513 25.6273 13.9495C24.7973 13.9477 24.0257 14.1977 23.3851 14.628C22.1826 13.6298 21.4115 12.598 21.1417 11.6172ZM22.3641 25.0054C21.3628 26.0192 19.7451 26.4459 18.3376 26.0673C15.8142 25.3876 14.6922 22.5835 14.4981 20.3888C14.3815 19.0901 14.3346 17.4297 14.9824 16.1046C15.2409 15.5757 15.5029 15.4435 15.6778 15.39C16.5467 15.125 18.1705 16.0643 19.4752 16.8191C20.2168 17.2494 20.9326 17.6623 21.6068 17.9423C21.6068 17.9453 21.6068 17.9477 21.6068 17.9507C21.6032 19.5343 22.5179 20.905 23.849 21.5601C23.5858 23.0986 23.078 24.2813 22.3641 25.0048V25.0054Z" fill="#1341AE"/>
<path d="M38.2013 30.7005C45.2248 23.6771 45.2248 12.29 38.2013 5.2666C31.1779 -1.75684 19.7909 -1.75684 12.7674 5.2666C9.39483 8.6392 7.5 13.2137 7.5 17.9835C7.5 26.4445 13.3431 33.5394 21.2139 35.4565V40.5917H18.229C17.8852 40.5917 17.5679 40.775 17.396 41.0725L13.0805 48.5569C12.9958 48.7029 12.9519 48.8688 12.9519 49.0376C12.9519 49.5689 13.3828 49.9992 13.9135 49.9992H37.0553C37.2242 49.9992 37.39 49.9547 37.5361 49.8706C37.9958 49.6049 38.1532 49.0172 37.8882 48.5569L33.5721 41.0725C33.4002 40.775 33.0829 40.5917 32.7392 40.5917H29.7548V35.4613C32.9285 34.6897 35.8594 33.0557 38.2013 30.7005ZM9.42308 17.9835C9.42308 9.12718 16.628 1.92225 25.4844 1.92225C34.3407 1.92225 41.5457 9.12718 41.5457 17.9835C41.5457 26.8399 34.3407 34.0448 25.4844 34.0448C16.628 34.0448 9.42308 26.8399 9.42308 17.9835ZM35.3906 48.0761H15.5775L18.7825 42.5154H32.1839L35.3906 48.0761ZM27.8317 40.5917H23.137V35.8153C23.9056 35.9156 24.6887 35.9679 25.4844 35.9679C26.2734 35.9703 27.0577 35.9186 27.8317 35.8183V40.5917Z" fill="#1341AE"/>
<path d="M23.2138 44.334H21.7955C21.2643 44.334 20.834 44.7643 20.834 45.2955C20.834 45.8268 21.2643 46.2571 21.7955 46.2571H23.2138C23.745 46.2571 24.1753 45.8268 24.1753 45.2955C24.1753 44.7643 23.745 44.334 23.2138 44.334Z" fill="#1341AE"/>
<path d="M26.793 45.2955C26.793 45.8268 27.2233 46.2571 27.7545 46.2571H29.1728C29.704 46.2571 30.1343 45.8268 30.1343 45.2955C30.1343 44.7643 29.704 44.334 29.1728 44.334H27.7545C27.2233 44.334 26.793 44.7643 26.793 45.2955Z" fill="#1341AE"/>
</g>
</g>
<defs>
<clipPath id="clip0_4526_7893">
<rect width="50" height="50" fill="white" transform="translate(0.5 -0.000976562)"/>
</clipPath>
<clipPath id="clip1_4526_7893">
<rect width="35.9688" height="50" fill="white" transform="translate(7.5 -0.000976562)"/>
</clipPath>
</defs>
</svg>
