<svg width="16" height="16" viewBox="0 0 16 16" fill="none" xmlns="http://www.w3.org/2000/svg">
<path fill-rule="evenodd" clip-rule="evenodd" d="M11.4062 2.1128C12.7935 2.49808 13.3241 3.46897 13.9894 4.80528H11.4062V2.1128ZM3.29932 4.91749C3.57092 4.91749 3.76807 5.07441 3.76807 5.44114C3.76807 5.75046 3.55896 6.00132 3.30066 6.0022H0.46875C0.209839 6.0022 0 6.25351 0 6.56326C0 6.87315 0.209839 7.12431 0.46875 7.12431H4.6875C4.94885 7.12431 5.15808 7.37533 5.15808 7.68537C5.15808 7.99527 4.94824 8.24643 4.68933 8.24643H0.46875C0.209839 8.24643 0 8.49759 0 8.80748C0 9.11738 0.209839 9.36854 0.46875 9.36854H1.5V11.0517C1.5 11.3616 1.70984 11.6128 1.96875 11.6128H2.91101C3.07898 12.6031 3.81006 13.3333 4.67188 13.3333C5.53369 13.3333 6.26477 12.6031 6.43274 11.6128H11.1923C11.3602 12.6031 12.0913 13.3333 12.9531 13.3333C13.8149 13.3333 14.546 12.6031 14.714 11.6128H15.5312C15.7902 11.6128 16 11.3616 16 11.0517V7.68537C16 6.03917 14.5493 5.92988 14.548 5.92739H10.9375C10.6786 5.92739 10.4688 5.67623 10.4688 5.36634V2H1.96875C1.70984 2 1.5 2.25116 1.5 2.56106V3.79538H0.9375C0.678589 3.79538 0.46875 4.04654 0.46875 4.35644C0.46875 4.66633 0.678589 4.91749 0.9375 4.91749H3.29932ZM13.5608 10.4553C13.8964 10.8569 13.8964 11.5084 13.5608 11.9101C13.021 12.5562 12.0938 12.0965 12.0938 11.1826C12.0938 10.2689 13.021 9.8092 13.5608 10.4553ZM5.27954 10.4553C5.61511 10.8569 5.61511 11.5084 5.27954 11.9101C4.73975 12.5562 3.8125 12.0965 3.8125 11.1826C3.8125 10.2689 4.73975 9.8092 5.27954 10.4553Z" fill="black"/>
</svg>
