<svg width="20" height="21" viewBox="0 0 20 21" fill="none" xmlns="http://www.w3.org/2000/svg">
<path d="M16.875 3.87598H9.375V17.626H16.875C17.3723 17.626 17.8492 17.4284 18.2008 17.0768C18.5525 16.7252 18.75 16.2483 18.75 15.751V5.75098C18.75 5.2537 18.5525 4.77678 18.2008 4.42515C17.8492 4.07352 17.3723 3.87598 16.875 3.87598ZM11.25 15.126C11.1264 15.126 11.0055 15.0893 10.9028 15.0206C10.8 14.952 10.7199 14.8544 10.6726 14.7402C10.6253 14.6259 10.6129 14.5003 10.637 14.379C10.6611 14.2578 10.7206 14.1464 10.8081 14.059C10.8955 13.9716 11.0068 13.9121 11.1281 13.888C11.2493 13.8639 11.375 13.8762 11.4892 13.9236C11.6034 13.9709 11.701 14.051 11.7697 14.1537C11.8383 14.2565 11.875 14.3774 11.875 14.501C11.875 14.6667 11.8092 14.8257 11.6919 14.9429C11.5747 15.0601 11.4158 15.126 11.25 15.126ZM11.25 12.626C11.1264 12.626 11.0055 12.5893 10.9028 12.5206C10.8 12.452 10.7199 12.3544 10.6726 12.2402C10.6253 12.1259 10.6129 12.0003 10.637 11.879C10.6611 11.7578 10.7206 11.6464 10.8081 11.559C10.8955 11.4716 11.0068 11.4121 11.1281 11.388C11.2493 11.3639 11.375 11.3762 11.4892 11.4236C11.6034 11.4709 11.701 11.551 11.7697 11.6537C11.8383 11.7565 11.875 11.8774 11.875 12.001C11.875 12.1667 11.8092 12.3257 11.6919 12.4429C11.5747 12.5601 11.4158 12.626 11.25 12.626ZM11.25 10.126C11.1264 10.126 11.0055 10.0893 10.9028 10.0206C10.8 9.95197 10.7199 9.85436 10.6726 9.74015C10.6253 9.62595 10.6129 9.50028 10.637 9.37905C10.6611 9.25781 10.7206 9.14644 10.8081 9.05903C10.8955 8.97163 11.0068 8.9121 11.1281 8.88799C11.2493 8.86387 11.375 8.87625 11.4892 8.92355C11.6034 8.97086 11.701 9.05096 11.7697 9.15374C11.8383 9.25653 11.875 9.37736 11.875 9.50098C11.875 9.66674 11.8092 9.82571 11.6919 9.94292C11.5747 10.0601 11.4158 10.126 11.25 10.126ZM13.75 15.126C13.6264 15.126 13.5055 15.0893 13.4028 15.0206C13.3 14.952 13.2199 14.8544 13.1726 14.7402C13.1253 14.6259 13.1129 14.5003 13.137 14.379C13.1611 14.2578 13.2206 14.1464 13.3081 14.059C13.3955 13.9716 13.5068 13.9121 13.6281 13.888C13.7493 13.8639 13.875 13.8762 13.9892 13.9236C14.1034 13.9709 14.201 14.051 14.2697 14.1537C14.3383 14.2565 14.375 14.3774 14.375 14.501C14.375 14.6667 14.3092 14.8257 14.1919 14.9429C14.0747 15.0601 13.9158 15.126 13.75 15.126ZM13.75 12.626C13.6264 12.626 13.5055 12.5893 13.4028 12.5206C13.3 12.452 13.2199 12.3544 13.1726 12.2402C13.1253 12.1259 13.1129 12.0003 13.137 11.879C13.1611 11.7578 13.2206 11.6464 13.3081 11.559C13.3955 11.4716 13.5068 11.4121 13.6281 11.388C13.7493 11.3639 13.875 11.3762 13.9892 11.4236C14.1034 11.4709 14.201 11.551 14.2697 11.6537C14.3383 11.7565 14.375 11.8774 14.375 12.001C14.375 12.1667 14.3092 12.3257 14.1919 12.4429C14.0747 12.5601 13.9158 12.626 13.75 12.626ZM13.75 10.126C13.6264 10.126 13.5055 10.0893 13.4028 10.0206C13.3 9.95197 13.2199 9.85436 13.1726 9.74015C13.1253 9.62595 13.1129 9.50028 13.137 9.37905C13.1611 9.25781 13.2206 9.14644 13.3081 9.05903C13.3955 8.97163 13.5068 8.9121 13.6281 8.88799C13.7493 8.86387 13.875 8.87625 13.9892 8.92355C14.1034 8.97086 14.201 9.05096 14.2697 9.15374C14.3383 9.25653 14.375 9.37736 14.375 9.50098C14.375 9.66674 14.3092 9.82571 14.1919 9.94292C14.0747 10.0601 13.9158 10.126 13.75 10.126ZM16.25 15.126C16.1264 15.126 16.0055 15.0893 15.9028 15.0206C15.8 14.952 15.7199 14.8544 15.6726 14.7402C15.6253 14.6259 15.6129 14.5003 15.637 14.379C15.6611 14.2578 15.7207 14.1464 15.8081 14.059C15.8955 13.9716 16.0068 13.9121 16.1281 13.888C16.2493 13.8639 16.375 13.8762 16.4892 13.9236C16.6034 13.9709 16.701 14.051 16.7697 14.1537C16.8383 14.2565 16.875 14.3774 16.875 14.501C16.875 14.6667 16.8092 14.8257 16.6919 14.9429C16.5747 15.0601 16.4158 15.126 16.25 15.126ZM16.25 12.626C16.1264 12.626 16.0055 12.5893 15.9028 12.5206C15.8 12.452 15.7199 12.3544 15.6726 12.2402C15.6253 12.1259 15.6129 12.0003 15.637 11.879C15.6611 11.7578 15.7207 11.6464 15.8081 11.559C15.8955 11.4716 16.0068 11.4121 16.1281 11.388C16.2493 11.3639 16.375 11.3762 16.4892 11.4236C16.6034 11.4709 16.701 11.551 16.7697 11.6537C16.8383 11.7565 16.875 11.8774 16.875 12.001C16.875 12.1667 16.8092 12.3257 16.6919 12.4429C16.5747 12.5601 16.4158 12.626 16.25 12.626ZM16.25 10.126C16.1264 10.126 16.0055 10.0893 15.9028 10.0206C15.8 9.95197 15.7199 9.85436 15.6726 9.74015C15.6253 9.62595 15.6129 9.50028 15.637 9.37905C15.6611 9.25781 15.7207 9.14644 15.8081 9.05903C15.8955 8.97163 16.0068 8.9121 16.1281 8.88799C16.2493 8.86387 16.375 8.87625 16.4892 8.92355C16.6034 8.97086 16.701 9.05096 16.7697 9.15374C16.8383 9.25653 16.875 9.37736 16.875 9.50098C16.875 9.66674 16.8092 9.82571 16.6919 9.94292C16.5747 10.0601 16.4158 10.126 16.25 10.126ZM16.25 7.62598H11.25C11.0842 7.62598 10.9253 7.56013 10.8081 7.44292C10.6908 7.32571 10.625 7.16674 10.625 7.00098C10.625 6.83522 10.6908 6.67625 10.8081 6.55903C10.9253 6.44182 11.0842 6.37598 11.25 6.37598H16.25C16.4158 6.37598 16.5747 6.44182 16.6919 6.55903C16.8092 6.67625 16.875 6.83522 16.875 7.00098C16.875 7.16674 16.8092 7.32571 16.6919 7.44292C16.5747 7.56013 16.4158 7.62598 16.25 7.62598Z" fill="white"/>
<path d="M1.25 5.75137V15.7514C1.25237 16.1371 1.37368 16.5128 1.59738 16.8271C1.82108 17.1414 2.13628 17.379 2.5 17.5076V3.99512C2.13628 4.1237 1.82108 4.36135 1.59738 4.67565C1.37368 4.98995 1.25237 5.3656 1.25 5.75137Z" fill="white"/>
<path d="M6.25 2.00098H5.625C4.58947 2.00098 3.75 2.84044 3.75 3.87598V17.626C3.75 18.6615 4.58947 19.501 5.625 19.501H6.25C7.28553 19.501 8.125 18.6615 8.125 17.626V3.87598C8.125 2.84044 7.28553 2.00098 6.25 2.00098Z" fill="white"/>
</svg>
