<?xml version="1.0" encoding="utf-8"?>
<!-- Generator: Adobe Illustrator 27.0.0, SVG Export Plug-In . SVG Version: 6.00 Build 0)  -->
<svg version="1.1" id="Layer_1" xmlns="http://www.w3.org/2000/svg" xmlns:xlink="http://www.w3.org/1999/xlink" x="0px" y="0px"
	 viewBox="0 0 16 16" style="enable-background:new 0 0 16 16;" xml:space="preserve">
<style type="text/css">
	.st0{clip-path:url(#SVGID_00000052802662867562671050000012196301991030674608_);}
	.st1{clip-path:url(#SVGID_00000155108469531206200100000003623896007477495188_);}
	.st2{fill:#012169;}
	.st3{fill:#FFFFFF;}
	.st4{clip-path:url(#SVGID_00000007389743365351041350000016074307971602262417_);}
	.st5{fill:#C8102E;}
</style>
<g>
	<defs>
		<circle id="SVGID_1_" cx="8" cy="8" r="8"/>
	</defs>
	<clipPath id="SVGID_00000102546216079749456810000012989988566961284225_">
		<use xlink:href="#SVGID_1_"  style="overflow:visible;"/>
	</clipPath>
	<g style="clip-path:url(#SVGID_00000102546216079749456810000012989988566961284225_);">
		<g>
			<defs>
				<rect id="SVGID_00000040562457206604361810000000229167109710418578_" x="-8.3" y="-0.1" width="32.5" height="16.3"/>
			</defs>
			<clipPath id="SVGID_00000145770061276289631600000010478498857472277420_">
				<use xlink:href="#SVGID_00000040562457206604361810000000229167109710418578_"  style="overflow:visible;"/>
			</clipPath>
			<g style="clip-path:url(#SVGID_00000145770061276289631600000010478498857472277420_);">
				<g>
					<path class="st2" d="M-8.3-0.1v16.3h32.5V-0.1H-8.3z"/>
				</g>
				<g>
					<path d="M-8.3-0.1l32.5,16.3 M24.3-0.1L-8.3,16.1"/>
					<polygon class="st3" points="23.5,17.6 8,9.8 -7.5,17.6 -9,14.7 4.4,8 -9,1.3 -7.5,-1.6 8,6.2 23.5,-1.6 25,1.3 11.6,8 
						25,14.7 					"/>
				</g>
				<g>
					<defs>
						<polygon id="SVGID_00000181054879691052888260000002997967559928524163_" points="8,8 24.3,8 24.3,16.1 8,16.1 -8.3,16.1 
							-8.3,8 -8.3,-0.1 8,-0.1 24.3,-0.1 						"/>
					</defs>
					<clipPath id="SVGID_00000173858277353494569260000016173363138119430072_">
						<use xlink:href="#SVGID_00000181054879691052888260000002997967559928524163_"  style="overflow:visible;"/>
					</clipPath>
					<g style="clip-path:url(#SVGID_00000173858277353494569260000016173363138119430072_);">
						<path d="M-8.3-0.1l32.5,16.3 M24.3-0.1L-8.3,16.1"/>
						<polygon class="st5" points="23.8,17.1 8,9.2 -7.8,17.1 -8.7,15.2 5.6,8 -8.7,0.8 -7.8,-1.1 8,6.8 23.8,-1.1 24.7,0.8 10.4,8 
							24.7,15.2 						"/>
					</g>
				</g>
				<g>
					<path d="M8-0.1v16.3 M-8.3,8h32.5"/>
					<polygon class="st3" points="10.7,16.1 5.3,16.1 5.3,10.7 -8.3,10.7 -8.3,5.3 5.3,5.3 5.3,-0.1 10.7,-0.1 10.7,5.3 24.3,5.3 
						24.3,10.7 10.7,10.7 					"/>
				</g>
				<g>
					<path d="M8-0.1v16.3 M-8.3,8h32.5"/>
					<polygon class="st5" points="9.6,16.1 6.4,16.1 6.4,9.6 -8.3,9.6 -8.3,6.4 6.4,6.4 6.4,-0.1 9.6,-0.1 9.6,6.4 24.3,6.4 
						24.3,9.6 9.6,9.6 					"/>
				</g>
			</g>
		</g>
	</g>
</g>
</svg>
