<svg width="24" height="25" viewBox="0 0 24 25" fill="none" xmlns="http://www.w3.org/2000/svg">
<g clip-path="url(#clip0_19495_5443)">
<path d="M9.07006 16.4865C8.82265 16.7104 8.90566 17.1654 9.22963 17.2753C10.6561 17.4267 12.2026 17.9574 13.6138 18.0705C15.2345 18.2004 16.4248 16.9941 16.3007 15.4037L22.1862 12.6643C23.8835 12.144 24.6048 14.7352 23.4048 15.7774L13.6162 21.5477C13.1504 21.7748 13.0521 21.8083 12.5379 21.6991C11.3919 21.4569 8.65582 20.3573 7.70082 20.4705C7.4937 20.4952 7.31882 20.5932 7.12218 20.6426L4.29102 13.7033C4.33615 13.5504 6.70875 12.5512 7.02789 12.3488C7.99175 12.109 8.96932 12.1767 9.83165 12.6851C10.075 12.8285 10.3539 13.1265 10.5602 13.2173C11.5982 13.6747 13.2173 13.7774 14.3335 14.1989C16.0299 14.8396 15.4746 17.2618 13.8572 17.1773L9.43595 16.3527C9.32957 16.3519 9.14662 16.4188 9.07087 16.4873L9.07006 16.4865Z" fill="#013040"/>
<path d="M15.7528 0.399409C16.1066 0.326901 16.5314 0.860748 16.7651 1.10377C18.1641 2.56348 20.162 5.16817 20.6254 7.12827C21.7101 11.7138 16.0994 14.9368 12.5703 11.8118C9.22175 8.84614 11.7185 4.89727 13.9605 2.20971C14.2136 1.90613 15.4845 0.454387 15.7528 0.399409ZM17.982 6.2534C17.8377 6.09723 17.5557 6.06376 17.3751 6.18248L15.6142 7.90195C15.4877 7.93063 14.8204 6.89003 14.4586 6.84222C14.0766 6.79123 13.8686 7.16891 13.9718 7.50435C14.0129 7.63821 15.3249 9.0302 15.4651 9.07243C15.6787 9.13697 15.8487 9.01586 16.0115 8.88917L18.0279 6.82788C18.1786 6.67251 18.1134 6.39523 17.982 6.2526V6.2534Z" fill="#013040"/>
<path d="M2.34 13.1416C2.73248 13.0795 2.9799 13.2038 3.17332 13.5416L6.80555 22.2967C7.02476 23.2744 5.96096 23.6656 5.25256 24.0138C4.64732 24.311 4.01549 24.7508 3.63107 23.8847L0.00770043 15.1201C-0.0374305 14.7687 0.118916 14.3591 0.395343 14.1416C0.571032 14.003 2.16432 13.1695 2.34081 13.1416H2.34Z" fill="#013040"/>
</g>
<defs>
<clipPath id="clip0_19495_5443">
<rect width="24" height="24" fill="white" transform="translate(0 0.3927)"/>
</clipPath>
</defs>
</svg>
