<svg width="48" height="48" viewBox="0 0 48 48" fill="none" xmlns="http://www.w3.org/2000/svg">
<path d="M40.0881 36.9648L36.9172 35.1341V26.581L42.1874 23.5382C42.6985 24.0372 43.3965 24.3454 44.1656 24.3454C45.7285 24.3454 47 23.0739 47 21.511C47 19.9481 45.7285 18.6766 44.1656 18.6766C42.6027 18.6766 41.3312 19.9481 41.3312 21.511C41.3312 21.8195 41.3814 22.1164 41.473 22.3947L36.2434 25.414L28.755 21.0906V12.4436L32.7418 10.1419C33.3721 10.9141 34.3308 11.4083 35.4031 11.4083C37.2969 11.4083 38.8378 9.86756 38.8378 7.97366C38.8378 6.07976 37.297 4.53903 35.4031 4.53903C33.5092 4.53903 31.9685 6.07976 31.9685 7.97366C31.9685 8.31282 32.0187 8.6403 32.1107 8.94999L28.0811 11.2765L20.5927 6.95304V5.11771C21.4289 4.83569 22.0331 4.04444 22.0331 3.1142C22.0331 1.94848 21.0847 1 19.9189 1C18.753 1 17.8047 1.94848 17.8047 3.1142C17.8047 4.04444 18.4088 4.8356 19.245 5.11771V6.95304L11.7566 11.2765L8.64717 9.48123C8.3249 9.29508 7.91279 9.4055 7.72673 9.72785C7.54066 10.0501 7.65108 10.4622 7.97335 10.6483L11.0827 12.4436V21.0905L5.81252 24.1332C5.3014 23.6343 4.6034 23.326 3.83434 23.326C2.27151 23.3261 1.00005 24.5976 1.00005 26.1605C1.00005 27.7234 2.27151 28.9949 3.83443 28.9949C5.39735 28.9949 6.66882 27.7234 6.66882 26.1605C6.66882 25.852 6.61859 25.5551 6.52704 25.2768L11.7566 22.2575L19.245 26.581V35.2279L15.2582 37.5297C14.6279 36.7574 13.6691 36.2632 12.5969 36.2632C10.7031 36.2632 9.16225 37.804 9.16225 39.6979C9.16225 41.5918 10.703 43.1325 12.5969 43.1325C14.4908 43.1325 16.0315 41.5918 16.0315 39.6979C16.0315 39.3587 15.9813 39.0312 15.8893 38.7215L19.9189 36.395L27.4073 40.7185V42.8823C26.5711 43.1643 25.9669 43.9556 25.9669 44.8858C25.9669 46.0516 26.9154 47 28.0811 47C29.2469 47 30.1953 46.0515 30.1953 44.8858C30.1953 43.9557 29.5912 43.1644 28.755 42.8823V40.7185L36.3247 36.3481L39.4144 38.132C39.5205 38.1933 39.6364 38.2224 39.7507 38.2224C39.9835 38.2224 40.21 38.1014 40.3348 37.8854C40.5209 37.563 40.4105 37.1509 40.0881 36.9648ZM35.4031 5.88677C36.5538 5.88677 37.4901 6.82294 37.4901 7.97375C37.4901 9.12455 36.5539 10.0607 35.4031 10.0607C34.2523 10.0607 33.3162 9.12455 33.3162 7.97375C33.3162 6.82294 34.2524 5.88677 35.4031 5.88677ZM12.5969 41.7848C11.4462 41.7848 10.5099 40.8486 10.5099 39.6978C10.5099 38.547 11.4461 37.6108 12.5969 37.6108C13.7477 37.6108 14.6839 38.547 14.6839 39.6978C14.6839 40.8486 13.7476 41.7848 12.5969 41.7848ZM44.1656 20.0242C44.9854 20.0242 45.6523 20.6911 45.6523 21.5109C45.6523 22.3308 44.9854 22.9977 44.1656 22.9977C43.3458 22.9977 42.6788 22.3308 42.6788 21.5109C42.6788 20.6911 43.3458 20.0242 44.1656 20.0242ZM19.9189 2.34765C20.3416 2.34765 20.6854 2.69157 20.6854 3.1142C20.6854 3.53682 20.3415 3.88074 19.9189 3.88074C19.4962 3.88074 19.1523 3.53682 19.1523 3.1142C19.1523 2.69157 19.4962 2.34765 19.9189 2.34765ZM3.83443 27.6473C3.01461 27.6473 2.3477 26.9804 2.3477 26.1606C2.3477 25.3408 3.01461 24.6738 3.83443 24.6738C4.65425 24.6738 5.32116 25.3407 5.32116 26.1605C5.32116 26.9803 4.65425 27.6473 3.83443 27.6473ZM28.0811 45.6523C27.6584 45.6523 27.3146 45.3083 27.3146 44.8857C27.3146 44.4631 27.6585 44.1192 28.0811 44.1192C28.5038 44.1192 28.8477 44.4631 28.8477 44.8857C28.8477 45.3083 28.5038 45.6523 28.0811 45.6523ZM35.5695 35.2279L28.0811 39.5513L20.5926 35.2279V26.581L24.6019 24.2663C24.9241 24.0802 25.0346 23.6681 24.8485 23.3458C24.6624 23.0235 24.2504 22.9131 23.928 23.0992L19.9188 25.4139L12.4303 21.0905V12.4436L19.9188 8.1201L27.4072 12.4436V21.0905L26.5438 21.5889C26.2216 21.775 26.1111 22.1871 26.2972 22.5094C26.4833 22.8317 26.8954 22.9421 27.2177 22.756L28.0811 22.2575L35.5695 26.581V35.2279Z" fill="#013040"/>
<path d="M44.1656 37.3699C42.6026 37.3699 41.3312 38.6413 41.3312 40.2043C41.3312 41.7672 42.6026 43.0386 44.1656 43.0386C45.7285 43.0386 46.9999 41.7672 46.9999 40.2043C46.9999 38.6413 45.7285 37.3699 44.1656 37.3699ZM44.1656 41.6911C43.3457 41.6911 42.6788 41.0242 42.6788 40.2043C42.6788 39.3845 43.3457 38.7176 44.1656 38.7176C44.9854 38.7176 45.6523 39.3844 45.6523 40.2043C45.6523 41.0241 44.9854 41.6911 44.1656 41.6911Z" fill="#013040"/>
<path d="M3.83443 10.2082C5.39735 10.2082 6.66882 8.9367 6.66882 7.37378C6.66882 5.81086 5.39735 4.53931 3.83443 4.53931C2.27151 4.53931 1.00005 5.81077 1.00005 7.37369C1.00005 8.93661 2.27151 10.2082 3.83443 10.2082ZM3.83443 5.88696C4.65425 5.88696 5.32116 6.55387 5.32116 7.37369C5.32116 8.19352 4.65425 8.86042 3.83443 8.86042C3.01461 8.86042 2.3477 8.19352 2.3477 7.37369C2.3477 6.55387 3.01461 5.88696 3.83443 5.88696Z" fill="#013040"/>
</svg>
