<svg width="85" height="85" viewBox="0 0 85 85" fill="none" xmlns="http://www.w3.org/2000/svg">
<path d="M0 42.5C0 19.0279 19.0279 0 42.5 0C65.9721 0 85 19.0279 85 42.5C85 65.9721 65.9721 85 42.5 85C19.0279 85 0 65.9721 0 42.5Z" fill="#C1E5F1"/>
<path d="M59.7585 56.5051L56.4554 54.5981V45.6886L61.9452 42.5191C62.4776 43.0388 63.2047 43.3599 64.0058 43.3599C65.6339 43.3599 66.9583 42.0354 66.9583 40.4074C66.9583 38.7794 65.6339 37.4549 64.0058 37.4549C62.3778 37.4549 61.0533 38.7794 61.0533 40.4074C61.0533 40.7288 61.1057 41.038 61.201 41.3279L55.7536 44.473L47.9531 39.9694V30.9622L52.106 28.5645C52.7626 29.369 53.7613 29.8837 54.8783 29.8837C56.851 29.8837 58.456 28.2788 58.456 26.306C58.456 24.3332 56.8511 22.7282 54.8783 22.7282C52.9055 22.7282 51.3005 24.3332 51.3005 26.306C51.3005 26.6593 51.3529 27.0004 51.4487 27.323L47.2512 29.7464L39.4507 25.2428V23.331C40.3218 23.0373 40.9511 22.213 40.9511 21.244C40.9511 20.0297 39.9632 19.0417 38.7488 19.0417C37.5344 19.0417 36.5465 20.0297 36.5465 21.244C36.5465 22.213 37.1758 23.0372 38.0469 23.331V25.2428L30.2464 29.7464L27.0075 27.8764C26.6718 27.6825 26.2425 27.7975 26.0487 28.1333C25.8549 28.469 25.9699 28.8982 26.3056 29.0921L29.5445 30.9621V39.9693L24.0547 43.1388C23.5223 42.6191 22.7952 42.298 21.9941 42.298C20.3662 42.2981 19.0417 43.6226 19.0417 45.2506C19.0417 46.8787 20.3662 48.2031 21.9942 48.2031C23.6223 48.2031 24.9467 46.8787 24.9467 45.2506C24.9467 44.9292 24.8944 44.62 24.799 44.3301L30.2464 41.185L38.0469 45.6886V54.6958L33.894 57.0935C33.2374 56.289 32.2386 55.7743 31.1218 55.7743C29.149 55.7743 27.544 57.3792 27.544 59.352C27.544 61.3249 29.1489 62.9298 31.1218 62.9298C33.0946 62.9298 34.6995 61.3249 34.6995 59.352C34.6995 58.9987 34.6472 58.6576 34.5514 58.335L38.7488 55.9116L46.5493 60.4152V62.6691C45.6782 62.9629 45.0489 63.7871 45.0489 64.7561C45.0489 65.9705 46.0369 66.9584 47.2512 66.9584C48.4655 66.9584 49.4535 65.9704 49.4535 64.7561C49.4535 63.7872 48.8242 62.963 47.9531 62.6691V60.4152L55.8382 55.8627L59.0567 57.7209C59.1672 57.7847 59.2879 57.8151 59.407 57.8151C59.6495 57.8151 59.8855 57.6891 60.0155 57.464C60.2093 57.1282 60.0943 56.6989 59.7585 56.5051ZM54.8783 24.1321C56.0769 24.1321 57.0522 25.1073 57.0522 26.3061C57.0522 27.5048 56.077 28.48 54.8783 28.48C53.6795 28.48 52.7043 27.5048 52.7043 26.3061C52.7043 25.1073 53.6796 24.1321 54.8783 24.1321ZM31.1218 61.5259C29.9231 61.5259 28.9478 60.5507 28.9478 59.3519C28.9478 58.1532 29.923 57.178 31.1218 57.178C32.3205 57.178 33.2957 58.1532 33.2957 59.3519C33.2957 60.5507 32.3204 61.5259 31.1218 61.5259ZM64.0058 38.8586C64.8598 38.8586 65.5545 39.5533 65.5545 40.4073C65.5545 41.2613 64.8598 41.956 64.0058 41.956C63.1518 41.956 62.4571 41.2613 62.4571 40.4073C62.4571 39.5533 63.1518 38.8586 64.0058 38.8586ZM38.7488 20.4456C39.1892 20.4456 39.5473 20.8038 39.5473 21.244C39.5473 21.6843 39.1891 22.0425 38.7488 22.0425C38.3086 22.0425 37.9503 21.6843 37.9503 21.244C37.9503 20.8038 38.3086 20.4456 38.7488 20.4456ZM21.9942 46.7994C21.1402 46.7994 20.4455 46.1047 20.4455 45.2507C20.4455 44.3967 21.1402 43.7019 21.9942 43.7019C22.8482 43.7019 23.5429 44.3966 23.5429 45.2506C23.5429 46.1046 22.8482 46.7994 21.9942 46.7994ZM47.2512 65.5545C46.8109 65.5545 46.4527 65.1963 46.4527 64.756C46.4527 64.3158 46.811 63.9576 47.2512 63.9576C47.6914 63.9576 48.0497 64.3158 48.0497 64.756C48.0497 65.1963 47.6914 65.5545 47.2512 65.5545ZM55.0516 54.6958L47.2511 59.1994L39.4506 54.6958V45.6886L43.627 43.2774C43.9627 43.0836 44.0777 42.6543 43.8839 42.3186C43.69 41.9829 43.2609 41.8679 42.9251 42.0617L38.7487 44.4729L30.9483 39.9693V30.9621L38.7487 26.4585L46.5492 30.9621V39.9693L45.6498 40.4885C45.3141 40.6824 45.1991 41.1116 45.393 41.4473C45.5868 41.7831 46.0161 41.8981 46.3517 41.7042L47.2511 41.185L55.0516 45.6886V54.6958Z" fill="#013040"/>
<path d="M64.0058 56.927C62.3777 56.927 61.0533 58.2514 61.0533 59.8795C61.0533 61.5075 62.3777 62.832 64.0058 62.832C65.6338 62.832 66.9583 61.5075 66.9583 59.8795C66.9583 58.2514 65.6338 56.927 64.0058 56.927ZM64.0058 61.4283C63.1518 61.4283 62.4571 60.7336 62.4571 59.8796C62.4571 59.0256 63.1518 58.3309 64.0058 58.3309C64.8598 58.3309 65.5545 59.0255 65.5545 59.8795C65.5545 60.7335 64.8598 61.4283 64.0058 61.4283Z" fill="#013040"/>
<path d="M21.9942 28.6336C23.6222 28.6336 24.9467 27.3091 24.9467 25.6811C24.9467 24.0531 23.6222 22.7285 21.9942 22.7285C20.3662 22.7285 19.0417 24.053 19.0417 25.681C19.0417 27.309 20.3662 28.6336 21.9942 28.6336ZM21.9942 24.1323C22.8482 24.1323 23.5429 24.827 23.5429 25.681C23.5429 26.535 22.8482 27.2297 21.9942 27.2297C21.1402 27.2297 20.4455 26.535 20.4455 25.681C20.4455 24.827 21.1402 24.1323 21.9942 24.1323Z" fill="#013040"/>
</svg>
