<svg width="30" height="30" viewBox="0 0 30 30" fill="none" xmlns="http://www.w3.org/2000/svg">
<g clip-path="url(#clip0_19416_5616)">
<g clip-path="url(#clip1_19416_5616)">
<path d="M30 16.2318C29.9258 16.7699 29.8745 17.3125 29.7743 17.8452C28.9505 22.2453 26.6135 25.6145 22.7993 27.9406C20.3889 29.4106 17.7428 30.0858 14.9254 29.9916C10.689 29.8505 7.13646 28.1836 4.30835 25.0274C2.32936 22.8193 1.16584 20.2165 0.752751 17.2803C0.703792 16.9316 0.667074 16.5813 0.625 16.2318C0.625 15.6195 0.625 15.0078 0.625 14.3955C0.667074 14.046 0.703792 13.6957 0.752751 13.347C1.17272 10.3602 2.3745 7.72828 4.39938 5.4926C6.66829 2.98867 9.47192 1.42439 12.8103 0.846499C13.3358 0.755293 13.8667 0.697811 14.3945 0.625C15.0065 0.625 15.6185 0.625 16.2305 0.625C16.3039 0.641095 16.3766 0.666387 16.4515 0.671752C18.6585 0.836535 20.7316 1.45504 22.6325 2.58553C26.5385 4.90858 28.9344 8.30694 29.7751 12.7821C29.8753 13.3148 29.9266 13.8574 30.0008 14.3955V16.2318H30ZM29.0193 15.3282C29.0094 7.71909 22.8712 1.5976 15.2544 1.60067C7.77445 1.60373 1.69443 7.75128 1.70667 15.2999C1.71891 22.8339 7.86318 28.9684 15.366 28.9883C22.9592 29.009 28.9971 22.8262 29.0193 15.329V15.3282Z" fill="#013040"/>
<path d="M15.3193 23.5067C11.4493 23.4691 8.2058 20.572 7.78507 16.7414C7.40411 13.2756 9.3984 10.0167 12.6449 8.80118C12.7077 8.77742 12.7689 8.75059 12.8331 8.7322C13.1047 8.65709 13.3464 8.77205 13.4421 9.01961C13.5361 9.26257 13.4298 9.51702 13.1728 9.63429C12.9999 9.714 12.8171 9.77224 12.6427 9.84889C10.0808 10.974 8.43453 13.632 8.74435 16.5115C9.07252 19.5596 11.245 21.8673 14.1726 22.3808C18.4297 23.1281 22.2874 19.6423 21.8881 15.3411C21.6395 12.6663 20.2014 10.7954 17.7221 9.73929C17.6517 9.7094 17.5798 9.68487 17.5087 9.65575C17.2095 9.53312 17.081 9.28479 17.1789 9.02344C17.2792 8.75749 17.5354 8.64636 17.8384 8.75136C18.7793 9.07862 19.6368 9.56071 20.3597 10.2451C22.5774 12.3429 23.4028 14.9081 22.6103 17.855C21.8147 20.8134 19.8028 22.6176 16.8217 23.3166C16.3329 23.4316 15.8204 23.4454 15.3185 23.5059L15.3193 23.5067Z" fill="#013040"/>
<path d="M15.7983 9.92102C15.7983 11.0776 15.7983 12.2341 15.7975 13.3914C15.7975 13.5056 15.799 13.6229 15.7745 13.7333C15.7218 13.9685 15.5542 14.0927 15.3217 14.0981C15.0891 14.1034 14.9162 13.9839 14.8535 13.7524C14.8237 13.6443 14.8245 13.5255 14.8245 13.4114C14.8229 11.0599 14.8229 8.70776 14.8245 6.35635C14.8245 6.25212 14.8245 6.14329 14.8489 6.04365C14.9094 5.79763 15.0815 5.67116 15.3301 5.67959C15.5649 5.68726 15.7264 5.81679 15.7761 6.05131C15.7998 6.16168 15.7975 6.27894 15.7975 6.39391C15.799 7.56961 15.7983 8.74532 15.7983 9.92179V9.92102Z" fill="#013040"/>
</g>
</g>
<defs>
<clipPath id="clip0_19416_5616">
<rect width="30" height="30" fill="white"/>
</clipPath>
<clipPath id="clip1_19416_5616">
<rect width="29.375" height="29.375" fill="white" transform="translate(0.625 0.625)"/>
</clipPath>
</defs>
</svg>
