<svg width="52" height="52" viewBox="0 0 52 52" fill="none" xmlns="http://www.w3.org/2000/svg">
<rect width="52" height="52" rx="26" fill="#C1E5F1"/>
<g clip-path="url(#clip0_19213_12674)">
<path d="M26.7996 17.173C26.8395 17.2421 27.4398 17.6699 27.5327 17.8169C28.8113 17.4031 30.1386 17.2832 31.4746 17.4468C31.4841 16.7977 31.862 16.7006 32.4188 16.6612C34.4427 16.516 35.9724 17.0374 37.0469 18.8239C37.5654 18.2325 38.1874 17.8012 38.9552 17.5999C39.486 17.4608 41.1677 17.1783 40.987 18.1354C40.8906 18.6463 40.0958 18.4127 39.7257 18.4416C38.9761 18.5002 38.2716 18.8729 37.7956 19.4485C38.9431 19.9533 39.7535 20.9288 40.0567 22.1527C40.1765 22.6383 40.3407 23.745 40.2556 24.2139C40.16 24.7415 39.6241 24.6907 39.6154 24.7581C40.2895 27.3818 39.7561 30.2347 37.7965 32.1533C38.8892 32.7692 41.5794 33.5907 40.5874 35.3527C40.0836 36.2477 37.5203 37.1943 36.5265 37.5574C31.8906 39.2494 22.2679 41.5021 17.9439 38.6186C17.6329 38.4112 17.368 38.1532 17.1117 37.8846C16.2196 39.2126 14.0585 40.9711 12.7147 39.1601C12.0988 38.3299 12.3377 37.4699 12.6452 36.5784C10.9913 36.0115 10.3294 34.2521 11.873 33.0754C12.1223 32.8856 12.415 32.806 12.6443 32.6013C12.0823 31.3931 12.2369 29.8883 13.6467 29.4229C15.1321 28.9321 16.2509 30.3441 17.1126 31.3336C17.6876 30.722 18.4355 30.2645 19.2303 30.0248C18.5658 28.3345 17.4444 26.5708 15.7801 25.7327C15.3232 25.5026 14.8628 25.451 14.4103 25.276C13.0109 24.738 12.0424 23.2603 12.1952 21.7416C12.2222 21.4721 12.5166 20.8002 12.5071 20.7031C12.4993 20.6252 12.1857 20.1475 12.1179 19.9848C11.3023 18.0234 12.1179 15.7339 13.9872 14.768C13.9247 9.81189 20.383 8.14003 22.6171 12.5738C24.701 12.5528 26.5894 14.1285 26.7866 16.2413C26.8057 16.4434 26.7414 17.0724 26.8013 17.1765L26.7996 17.173ZM24.1051 29.2925C24.258 29.1963 24.1468 26.6172 24.1807 26.192C24.284 24.8841 25.0102 22.9331 25.9049 21.9664C26.1003 21.7556 26.334 21.6287 26.5234 21.4091C27.3303 20.4704 27.3512 18.9175 26.3618 18.1039C26.0404 17.8397 25.7233 17.9123 25.7381 17.3506C25.772 15.9876 25.7798 15.1661 24.6019 14.2413C23.7072 13.5397 23.3007 13.7672 22.3218 13.6517C21.8293 13.5939 21.8223 13.111 21.6078 12.7322C20.0894 10.0569 16.0103 10.6001 15.1938 13.5572C15.0174 14.1958 15.1408 14.4915 15.1026 15.0497C15.0643 15.6079 14.5901 15.5869 14.2322 15.7986C12.8328 16.628 12.4107 18.4661 13.2003 19.8737C13.3245 20.0951 13.6598 20.4056 13.6719 20.6348C13.685 20.8816 13.2897 21.3706 13.2402 21.7433C13.0978 22.8203 13.7327 23.8946 14.7343 24.2909C16.0841 24.8255 16.6878 24.8963 17.8292 25.9602C18.9749 27.0275 19.5595 28.2969 20.2675 29.6635C21.5252 29.3713 22.8134 29.2654 24.1042 29.2925H24.1051ZM35.6614 20.9026C35.1002 20.382 36.173 19.8842 36.2208 19.6331C36.2468 19.4949 35.8264 18.8632 35.7118 18.7241C34.8961 17.739 33.7165 17.6096 32.5187 17.711C32.5734 18.2403 32.8131 18.732 33.1684 19.1205C33.4047 19.3785 33.9788 19.676 33.958 20.0347C33.9337 20.459 33.4177 20.5316 33.1258 20.7118C32.7019 20.9734 32.2173 21.4117 32.0618 21.9008C32.5856 22.0758 33.0885 22.2227 33.6505 22.1562C34.0006 22.1151 34.3298 21.836 34.6651 22.1326C34.9343 22.3706 34.7267 22.8176 34.7259 23.1125C34.7241 23.6076 34.9283 24.2498 35.2201 24.6496C35.7404 24.3075 36.0557 23.8815 36.3085 23.3216C36.4171 23.0818 36.3615 22.8246 36.6264 22.6593C37.1276 22.3478 37.3735 22.885 37.6983 23.1431C38.1761 23.5228 38.6677 23.7511 39.2923 23.7345C39.2575 22.1746 38.6234 20.704 37.0434 20.221C36.8584 20.242 36.2712 21.4677 35.6605 20.9017L35.6614 20.9026ZM31.7239 18.5089C30.4696 18.25 29.1788 18.3147 27.9575 18.6935C28.3136 19.6498 28.1286 20.6716 27.6187 21.5281C27.207 22.2201 26.5972 22.5394 26.1716 23.2166C25.1084 24.9068 25.1831 26.5909 25.157 28.4833C25.1535 28.7344 25.1579 28.9854 25.157 29.2356C29.0502 29.4876 32.8983 30.3695 36.5552 31.6975L36.7715 31.7141C38.5062 30.2829 39.155 28.087 38.8197 25.8805C38.7893 25.6828 38.6034 24.8053 38.5175 24.6933C38.4584 24.6164 37.2736 24.2699 37.1103 24.0083C36.6916 24.619 36.2642 25.1798 35.6388 25.5936C34.8162 26.1386 34.6095 25.7931 34.2003 25.0214C33.8876 24.4318 33.7278 23.8141 33.6896 23.1448C33.145 23.2997 31.0654 22.7888 30.9021 22.2464C30.7901 21.8737 31.26 21.137 31.4859 20.8299C31.7716 20.4424 32.146 20.1545 32.5048 19.8378C32.2051 19.417 31.8368 19.0356 31.723 18.5072L31.7239 18.5089ZM23.0714 30.2837C19.9495 30.3852 16.6079 31.3336 16.9484 35.1611C17.1126 37.0045 18.6527 38.1514 20.3352 38.5346V35.9476C20.3352 35.9275 20.4716 35.6222 20.5003 35.5889C20.7522 35.2993 21.3776 35.5373 21.3776 35.8164V38.7962C22.6319 38.9458 23.9887 38.9878 25.2569 38.93C25.4297 38.9222 26.3331 38.8469 26.3661 38.8006L26.4078 36.2232C26.5459 35.7473 27.3711 35.9161 27.3711 36.2748V38.7306C30.3245 38.3071 33.2622 37.6422 36.0696 36.6361C37.0364 36.2897 38.2482 35.8435 39.1177 35.3125C40.3676 34.5487 39.5181 34.1366 38.6217 33.6756C36.226 32.4429 33.3022 31.7693 30.6937 31.1341V34.3755C30.6937 34.393 30.5538 34.6388 30.5156 34.6729C30.1977 34.959 29.7382 34.7578 29.6669 34.3606L29.6522 30.8716C27.7942 30.6092 25.9327 30.2829 24.0495 30.2829V32.9355C24.0495 33.0536 23.6621 33.246 23.5022 33.2294C23.3581 33.2145 23.0723 32.9976 23.0723 32.8698V30.2829L23.0714 30.2837ZM13.8682 35.9992C14.2617 36.3903 13.6823 36.8653 13.5277 37.2258C13.0404 38.3622 13.7588 39.3981 14.9228 38.6938C15.2085 38.5206 16.4238 37.3369 16.422 37.0622C16.4211 36.9248 16.1866 36.5058 16.1328 36.3098C15.8036 35.1209 15.8218 34.1139 16.164 32.9346C16.2266 32.7194 16.4628 32.3782 16.4012 32.1822C16.2891 31.8235 15.1399 30.7159 14.7768 30.5348C13.8326 30.0641 13.2107 30.6853 13.3801 31.6774C13.4522 32.1008 13.9681 32.6625 13.9551 33.0011C13.936 33.4857 13.3193 33.4805 12.9588 33.6423C11.6593 34.2268 11.7218 35.0273 12.9605 35.6362C13.1707 35.7394 13.7536 35.8864 13.8682 36.001V35.9992Z" fill="#013040"/>
<path d="M23.0532 16.158C23.2156 16.2901 23.259 16.6418 23.1279 16.8168L20.4837 20.108L20.9884 22.2278C21.0709 22.2926 22.1385 20.8044 22.4034 20.6714C22.869 20.4378 23.2755 20.9243 23.0054 21.4081C22.6136 22.1088 21.7302 22.7869 21.3254 23.5182L22.0351 26.5829C22.0707 27.1927 21.2994 27.3589 21.0492 26.7832L20.3213 23.7492C19.4344 23.331 18.4433 23.0799 17.6077 22.5804C17.4062 22.3013 17.5009 21.8639 17.844 21.7869C18.3113 21.6819 19.8766 22.5935 20.0103 22.4894L19.4761 20.3425L15.642 18.794C15.0826 18.5035 15.2641 17.7704 15.9086 17.8027L19.1625 19.0844L18.5754 16.7582C18.578 16.2726 19.285 16.0758 19.5395 16.5779C19.6603 16.8168 20.0355 18.8237 20.1728 18.8211L22.4495 16.1344C22.6006 16.0276 22.9133 16.0443 23.0532 16.1571V16.158Z" fill="#013040"/>
</g>
<defs>
<clipPath id="clip0_19213_12674">
<rect width="30" height="30" fill="white" transform="translate(11 10)"/>
</clipPath>
</defs>
</svg>
