<svg width="31" height="30" viewBox="0 0 31 30" fill="none" xmlns="http://www.w3.org/2000/svg">
<path d="M10.2883 25.4318C11.9156 28.2495 14.9479 29.9999 18.2018 29.9999C23.2407 29.9999 27.3401 25.9005 27.3401 20.8616V13.7067C27.3401 12.4233 26.2959 11.3791 25.0124 11.3791C24.5014 11.3791 24.0283 11.5446 23.644 11.825C23.3826 10.8256 22.4719 10.086 21.3917 10.086C20.8513 10.086 20.3532 10.2712 19.9578 10.5814C19.6315 9.68967 18.7744 9.05152 17.771 9.05152C17.2929 9.05152 16.848 9.19642 16.4779 9.44463V4.91353C16.4779 3.63009 15.4337 2.58594 14.1502 2.58594C12.8668 2.58594 11.8226 3.63009 11.8226 4.91353V17.2536C11.8226 17.4123 11.7296 17.558 11.5858 17.625C11.392 17.715 11.1653 17.6435 11.0584 17.4584L9.50641 14.7702C8.5795 13.1647 6.51939 12.6127 4.91379 13.5396C4.61467 13.7123 4.40068 13.9912 4.31127 14.3249C4.22191 14.6586 4.26785 15.007 4.44058 15.3062L10.2883 25.4318ZM5.31071 14.5926C5.32108 14.554 5.35049 14.4821 5.43124 14.4356C5.78989 14.2285 6.18786 14.1227 6.59117 14.1227C6.79332 14.1227 6.99687 14.1493 7.19732 14.2031C7.79786 14.364 8.29977 14.7491 8.61062 15.2875L10.1627 17.9757C10.5395 18.6284 11.339 18.8808 12.0223 18.5631C12.5295 18.3271 12.8573 17.8132 12.8573 17.2537V4.91353C12.8573 4.2005 13.4374 3.62042 14.1504 3.62042C14.8634 3.62042 15.4435 4.2005 15.4435 4.91353V14.4826C15.4435 14.7682 15.6751 14.9998 15.9608 14.9998C16.2465 14.9998 16.4781 14.7683 16.4781 14.4826V11.3791C16.4781 10.6661 17.0581 10.086 17.7712 10.086C18.4842 10.086 19.0643 10.6661 19.0643 11.3791V14.4826C19.0643 14.7682 19.2959 14.9998 19.5816 14.9998C19.8672 14.9998 20.0988 14.7683 20.0988 14.4826V12.4136C20.0988 11.7006 20.6789 11.1205 21.392 11.1205C22.105 11.1205 22.6851 11.7006 22.6851 12.4136V14.7412C22.6851 15.0268 22.9166 15.2585 23.2023 15.2585C23.488 15.2585 23.7196 15.0269 23.7196 14.7412V13.7067C23.7196 12.9937 24.2997 12.4136 25.0127 12.4136C25.7258 12.4136 26.3058 12.9937 26.3058 13.7067V20.8616C26.3058 25.3301 22.6705 28.9655 18.202 28.9655C15.3164 28.9655 12.6275 27.4132 11.1844 24.9144L5.33655 14.7888C5.28991 14.7081 5.30034 14.6312 5.31071 14.5926Z" fill="#013040"/>
<path d="M10.6212 7.58672C10.8674 7.44182 10.9494 7.12476 10.8045 6.87861C10.4555 6.28569 10.271 5.60629 10.271 4.91383C10.271 2.77473 12.0113 1.03448 14.1504 1.03448C16.2895 1.03448 18.0297 2.77473 18.0297 4.91383C18.0297 5.60887 17.8439 6.29062 17.4923 6.88523C17.3469 7.13115 17.4284 7.44838 17.6743 7.59375C17.7569 7.64262 17.8475 7.66582 17.9371 7.66582C18.1139 7.66582 18.2862 7.57506 18.3828 7.41176C18.8286 6.65783 19.0643 5.79403 19.0643 4.91383C19.0642 2.20431 16.8599 0 14.1504 0C11.4409 0 9.23654 2.20431 9.23654 4.91383C9.23654 5.79069 9.47045 6.65156 9.91301 7.40338C10.058 7.64959 10.3751 7.73162 10.6212 7.58672Z" fill="#013040"/>
</svg>
