<svg width="48" height="48" viewBox="0 0 48 48" fill="none" xmlns="http://www.w3.org/2000/svg">
<g clip-path="url(#clip0_19289_10433)">
<path d="M19.4655 17.8001V10.3854L27.9116 1.31836V46.4202L19.4655 37.3533V30.2023" stroke="#013040" stroke-width="1.4" stroke-miterlimit="10" stroke-linecap="round" stroke-linejoin="round"/>
<path d="M31.6082 9.76572C34.3454 9.76572 35.8413 12.5522 39.2912 12.5522C42.7411 12.5522 43.3511 9.72156 47 9.72156" stroke="#013040" stroke-width="1.4" stroke-miterlimit="10" stroke-linecap="round" stroke-linejoin="round"/>
<path d="M31.6082 18.2667C34.3454 18.2667 35.8413 21.0532 39.2912 21.0532C42.7411 21.0532 43.3511 18.2225 47 18.2225" stroke="#013040" stroke-width="1.4" stroke-miterlimit="10" stroke-linecap="round" stroke-linejoin="round"/>
<path d="M31.6082 26.7677C34.3454 26.7677 35.8413 29.5542 39.2912 29.5542C42.7411 29.5542 43.3511 26.7235 47 26.7235" stroke="#013040" stroke-width="1.4" stroke-miterlimit="10" stroke-linecap="round" stroke-linejoin="round"/>
<path d="M31.6082 35.2688C34.3454 35.2688 35.8413 38.0553 39.2912 38.0553C42.7411 38.0553 43.3511 35.2246 47 35.2246" stroke="#013040" stroke-width="1.4" stroke-miterlimit="10" stroke-linecap="round" stroke-linejoin="round"/>
<path d="M3.58117 22.8224C5.00671 22.8224 6.16233 21.6667 6.16233 20.2412C6.16233 18.8157 5.00671 17.66 3.58117 17.66C2.15563 17.66 1 18.8157 1 20.2412C1 21.6667 2.15563 22.8224 3.58117 22.8224Z" stroke="#013040" stroke-width="1.4" stroke-miterlimit="10" stroke-linecap="round" stroke-linejoin="round"/>
<path d="M9.68338 39.1803C11.1089 39.1803 12.2645 38.0246 12.2645 36.5991C12.2645 35.1736 11.1089 34.0179 9.68338 34.0179C8.25784 34.0179 7.10221 35.1736 7.10221 36.5991C7.10221 38.0246 8.25784 39.1803 9.68338 39.1803Z" stroke="#013040" stroke-width="1.4" stroke-miterlimit="10" stroke-linecap="round" stroke-linejoin="round"/>
<path d="M11.7539 12.5112C13.1794 12.5112 14.335 11.3556 14.335 9.93004C14.335 8.50451 13.1794 7.34888 11.7539 7.34888C10.3283 7.34888 9.17268 8.50451 9.17268 9.93004C9.17268 11.3556 10.3283 12.5112 11.7539 12.5112Z" stroke="#013040" stroke-width="1.4" stroke-miterlimit="10" stroke-linecap="round" stroke-linejoin="round"/>
<path d="M14.0086 20.8874C14.7214 20.8874 15.2992 20.3096 15.2992 19.5969C15.2992 18.8841 14.7214 18.3063 14.0086 18.3063C13.2959 18.3063 12.7181 18.8841 12.7181 19.5969C12.7181 20.3096 13.2959 20.8874 14.0086 20.8874Z" stroke="#013040" stroke-width="1.4" stroke-miterlimit="10" stroke-linecap="round" stroke-linejoin="round"/>
<path d="M9.68339 29.0044C10.3962 29.0044 10.974 28.4266 10.974 27.7138C10.974 27.001 10.3962 26.4232 9.68339 26.4232C8.97062 26.4232 8.39281 27.001 8.39281 27.7138C8.39281 28.4266 8.97062 29.0044 9.68339 29.0044Z" stroke="#013040" stroke-width="1.4" stroke-miterlimit="10" stroke-linecap="round" stroke-linejoin="round"/>
<path d="M3.64534 30.609C4.00175 30.609 4.29068 30.3201 4.29068 29.9637C4.29068 29.6073 4.00175 29.3184 3.64534 29.3184C3.28893 29.3184 3 29.6073 3 29.9637C3 30.3201 3.28893 30.609 3.64534 30.609Z" fill="#013040"/>
<path d="M14.0087 42.4312C14.3651 42.4312 14.654 42.1423 14.654 41.7858C14.654 41.4294 14.3651 41.1405 14.0087 41.1405C13.6522 41.1405 13.3633 41.4294 13.3633 41.7858C13.3633 42.1423 13.6522 42.4312 14.0087 42.4312Z" fill="#013040"/>
<path d="M20.8414 27.4745C21.422 27.4745 21.8926 27.0038 21.8926 26.4232C21.8926 25.8426 21.422 25.3719 20.8414 25.3719C20.2608 25.3719 19.7901 25.8426 19.7901 26.4232C19.7901 27.0038 20.2608 27.4745 20.8414 27.4745Z" fill="#013040"/>
<path d="M23.5525 30.804C23.8338 30.804 24.0617 30.576 24.0617 30.2947C24.0617 30.0135 23.8338 29.7855 23.5525 29.7855C23.2713 29.7855 23.0433 30.0135 23.0433 30.2947C23.0433 30.576 23.2713 30.804 23.5525 30.804Z" fill="#013040"/>
<path d="M23.3659 13.4496C23.5441 13.4496 23.6885 13.3051 23.6885 13.1269C23.6885 12.9488 23.5441 12.8043 23.3659 12.8043C23.1877 12.8043 23.0433 12.9488 23.0433 13.1269C23.0433 13.3051 23.1877 13.4496 23.3659 13.4496Z" fill="#013040"/>
<path d="M23.3659 21.9333C23.5441 21.9333 23.6885 21.7889 23.6885 21.6107C23.6885 21.4325 23.5441 21.2881 23.3659 21.2881C23.1877 21.2881 23.0433 21.4325 23.0433 21.6107C23.0433 21.7889 23.1877 21.9333 23.3659 21.9333Z" fill="#013040"/>
<path d="M22.398 34.5478C22.5762 34.5478 22.7206 34.4034 22.7206 34.2252C22.7206 34.047 22.5762 33.9026 22.398 33.9026C22.2198 33.9026 22.0754 34.047 22.0754 34.2252C22.0754 34.4034 22.2198 34.5478 22.398 34.5478Z" fill="#013040"/>
<path d="M25.2954 26.1006C25.4736 26.1006 25.618 25.9561 25.618 25.7779C25.618 25.5998 25.4736 25.4553 25.2954 25.4553C25.1172 25.4553 24.9728 25.5998 24.9728 25.7779C24.9728 25.9561 25.1172 26.1006 25.2954 26.1006Z" fill="#013040"/>
<path d="M16.3033 27.0686C16.6597 27.0686 16.9486 26.7797 16.9486 26.4233C16.9486 26.0669 16.6597 25.778 16.3033 25.778C15.9469 25.778 15.658 26.0669 15.658 26.4233C15.658 26.7797 15.9469 27.0686 16.3033 27.0686Z" fill="#013040"/>
<path d="M19.4655 21.9333C19.8219 21.9333 20.1109 21.6443 20.1109 21.2879C20.1109 20.9315 19.8219 20.6426 19.4655 20.6426C19.1091 20.6426 18.8202 20.9315 18.8202 21.2879C18.8202 21.6443 19.1091 21.9333 19.4655 21.9333Z" fill="#013040"/>
<path d="M9.03816 16.1198C9.39457 16.1198 9.6835 15.8309 9.6835 15.4744C9.6835 15.118 9.39457 14.8291 9.03816 14.8291C8.68174 14.8291 8.39281 15.118 8.39281 15.4744C8.39281 15.8309 8.68174 16.1198 9.03816 16.1198Z" fill="#013040"/>
<path d="M23.0432 17.6599C23.3996 17.6599 23.6886 17.371 23.6886 17.0146C23.6886 16.6582 23.3996 16.3693 23.0432 16.3693C22.6868 16.3693 22.3979 16.6582 22.3979 17.0146C22.3979 17.371 22.6868 17.6599 23.0432 17.6599Z" fill="#013040"/>
<path d="M15.6579 32.6643C16.2583 32.6643 16.745 32.1776 16.745 31.5773C16.745 30.9769 16.2583 30.4902 15.6579 30.4902C15.0576 30.4902 14.5709 30.9769 14.5709 31.5773C14.5709 32.1776 15.0576 32.6643 15.6579 32.6643Z" fill="#013040"/>
</g>
<defs>
<clipPath id="clip0_19289_10433">
<rect width="48" height="48" fill="white"/>
</clipPath>
</defs>
</svg>
