<svg width="24" height="25" viewBox="0 0 24 25" fill="none" xmlns="http://www.w3.org/2000/svg">
<g clip-path="url(#clip0_19287_10150)">
<path d="M15.1566 12.1399C12.7454 14.9807 10.8228 17.5699 10.6046 19.5349C10.203 21.486 11.5101 22.8094 11.3306 22.7957C11.514 22.8097 8.70763 21.3679 7.60934 19.3063C6.32789 17.2268 6.75088 14.5231 9.16606 11.6827C11.5772 8.84196 13.4999 6.25277 13.7181 4.28768C14.1197 2.33659 12.8126 1.01327 12.9921 1.02697C12.8086 1.01297 15.6151 2.45473 16.7134 4.5163C17.9948 6.59585 17.5718 9.2995 15.1566 12.1399Z" fill="#013040"/>
<path d="M18.7602 17.4296C17.2353 19.2227 16.0189 20.8629 15.8841 22.1043C15.6296 23.3365 16.4562 24.1738 16.3406 24.165C16.4562 24.1738 14.6843 23.2643 13.9896 21.9597C13.1792 20.6462 13.45 18.9378 14.9712 17.1404C16.4961 15.3472 17.7125 13.7071 17.8473 12.4657C18.1018 11.2335 17.2752 10.3962 17.3908 10.405C17.2752 10.3962 19.0471 11.3057 19.7418 12.6103C20.5522 13.9238 20.2814 15.6322 18.7602 17.4296Z" fill="#013040"/>
<path d="M9.02874 7.64456C7.50385 9.43771 6.28749 11.0779 6.15263 12.3192C5.89811 13.5514 6.72478 14.3888 6.60912 14.3799C6.72478 14.3888 4.95286 13.4793 4.25814 12.1746C3.44775 10.8611 3.71855 9.1528 5.23976 7.35536C6.76465 5.56221 7.98101 3.92202 8.11587 2.68069C8.37039 1.44848 7.54372 0.611141 7.65938 0.61997C7.54372 0.611141 9.31564 1.52063 10.0104 2.82529C10.8207 4.13877 10.5499 5.84712 9.02874 7.64456Z" fill="#013040"/>
</g>
<defs>
<clipPath id="clip0_19287_10150">
<rect width="24" height="24" fill="white" transform="translate(0 0.3927)"/>
</clipPath>
</defs>
</svg>
