<svg width="52" height="52" viewBox="0 0 52 52" fill="none" xmlns="http://www.w3.org/2000/svg">
<rect width="52" height="52" rx="26" fill="#C1E5F1"/>
<path d="M35.4725 21.9906H24.2969C24.8137 21.3966 25.1277 20.6217 25.1277 19.7744C25.1277 17.9098 23.6107 16.3928 21.7461 16.3928C19.8815 16.3928 18.3645 17.9098 18.3645 19.7744C18.3645 20.6217 18.6785 21.3966 19.1953 21.9906H16.5275C14.9154 21.9906 13.6039 23.3021 13.6039 24.9142V28.364C13.6039 28.687 13.8657 28.9488 14.1886 28.9488C14.5116 28.9488 14.7733 28.687 14.7733 28.364V24.9142C14.7733 23.947 15.5603 23.1601 16.5275 23.1601H32.8998C33.867 23.1601 34.6539 23.947 34.6539 24.9142V28.0717H28.5728C26.9607 28.0717 25.6492 29.3833 25.6492 30.9954C25.6492 32.6074 26.9607 33.919 28.5728 33.919H34.6539V37.0765C34.6539 38.0437 33.867 38.8307 32.8998 38.8307H16.5275C15.5603 38.8307 14.7733 38.0437 14.7733 37.0765V33.622C14.7733 33.2991 14.5116 33.0373 14.1886 33.0373C13.8657 33.0373 13.6039 33.2991 13.6039 33.622V37.0765C13.6039 38.6886 14.9154 40.0001 16.5275 40.0001H35.4725C37.0846 40.0001 38.3962 38.6886 38.3962 37.0765V24.9142C38.3962 23.3021 37.0846 21.9906 35.4725 21.9906ZM21.7461 17.5623C22.9659 17.5623 23.9582 18.5547 23.9582 19.7745C23.9582 20.9942 22.9659 21.9866 21.7461 21.9866C20.5264 21.9866 19.534 20.9942 19.534 19.7745C19.534 18.5547 20.5263 17.5623 21.7461 17.5623ZM35.2371 23.1601H35.4725C36.4398 23.1601 37.2267 23.947 37.2267 24.9142V28.0717H35.8234V24.9142C35.8234 24.2566 35.605 23.6491 35.2371 23.1601ZM26.8186 30.9954C26.8186 30.0281 27.6056 29.2412 28.5728 29.2412H37.2267V32.7495H28.5728C27.6056 32.7495 26.8186 31.9626 26.8186 30.9954ZM35.4725 38.8307H35.2371C35.605 38.3416 35.8234 37.7342 35.8234 37.0765V33.919H37.2267V37.0765C37.2267 38.0437 36.4398 38.8307 35.4725 38.8307Z" fill="#013040"/>
<path d="M28.4231 30.4104C28.2688 30.4104 28.1179 30.473 28.0091 30.5817C27.9004 30.6905 27.8384 30.8413 27.8384 30.9951C27.8384 31.1489 27.9004 31.2998 28.0091 31.4085C28.1185 31.5173 28.2688 31.5798 28.4231 31.5798C28.5769 31.5798 28.7272 31.5173 28.8365 31.4085C28.9453 31.2998 29.0078 31.1489 29.0078 30.9951C29.0078 30.8413 28.9453 30.6905 28.8365 30.5817C28.7278 30.4729 28.5769 30.4104 28.4231 30.4104Z" fill="#013040"/>
<path d="M30.2539 18.0493C32.1186 18.0493 33.6355 16.5323 33.6355 14.6677C33.6355 12.8031 32.1186 11.2861 30.2539 11.2861C28.3893 11.2861 26.8724 12.8031 26.8724 14.6677C26.8724 16.5323 28.3893 18.0493 30.2539 18.0493ZM30.2539 12.4556C31.4737 12.4556 32.4661 13.448 32.4661 14.6678C32.4661 15.8876 31.4737 16.8799 30.2539 16.8799C29.0342 16.8799 28.0418 15.8876 28.0418 14.6678C28.0418 13.448 29.0342 12.4556 30.2539 12.4556Z" fill="#013040"/>
<path d="M24.543 15.7643C24.8659 15.7643 25.1277 15.5025 25.1277 15.1795V10.5847C25.1277 10.2618 24.8659 10 24.543 10C24.22 10 23.9582 10.2618 23.9582 10.5847V15.1795C23.9582 15.5025 24.22 15.7643 24.543 15.7643Z" fill="#013040"/>
<path d="M21.7363 13.7422C22.0592 13.7422 22.321 13.4804 22.321 13.1575V10.5847C22.321 10.2618 22.0592 10 21.7363 10C21.4133 10 21.1516 10.2618 21.1516 10.5847V13.1575C21.1516 13.4804 21.4133 13.7422 21.7363 13.7422Z" fill="#013040"/>
<path d="M14.1886 31.5798C14.3424 31.5798 14.4933 31.5173 14.602 31.4085C14.7108 31.2998 14.7733 31.1489 14.7733 30.9951C14.7733 30.8413 14.7108 30.6905 14.602 30.5817C14.4933 30.473 14.343 30.4104 14.1886 30.4104C14.0348 30.4104 13.884 30.473 13.7752 30.5817C13.6665 30.6905 13.6039 30.8413 13.6039 30.9951C13.6039 31.1489 13.6665 31.2998 13.7752 31.4085C13.884 31.5173 14.0348 31.5798 14.1886 31.5798Z" fill="#013040"/>
</svg>
