<svg width="85" height="85" viewBox="0 0 85 85" fill="none" xmlns="http://www.w3.org/2000/svg">
<path d="M0 42.5C0 19.0279 19.0279 0 42.5 0C65.9721 0 85 19.0279 85 42.5C85 65.9721 65.9721 85 42.5 85C19.0279 85 0 65.9721 0 42.5Z" fill="#C1E5F1"/>
<g clip-path="url(#clip0_19213_12741)">
<path fill-rule="evenodd" clip-rule="evenodd" d="M55.1721 19.4744C54.2481 18.551 52.7505 18.5503 51.8266 19.4737L40.3529 30.9474C40.0477 31.2526 40.0477 31.747 40.3529 32.0522C40.6576 32.3569 41.1531 32.3569 41.4578 32.0522L52.9307 20.5793C53.2443 20.2652 53.7537 20.2652 54.0672 20.5793L58.4478 24.9599C57.9521 25.4554 56.8035 26.6038 55.7633 27.6443C54.9029 28.5047 54.9036 29.8992 55.7641 30.7596L55.7655 30.7611C56.0161 31.0111 56.0153 31.4167 55.7648 31.6667L54.7822 32.6507C54.5317 32.9007 54.1259 32.9007 53.8759 32.6507L53.8745 32.6493C53.014 31.7888 51.6188 31.7888 50.7584 32.6493C48.4195 34.9887 45.132 38.2757 44.8529 38.5548L37.2218 30.9236C36.2978 29.9997 34.7995 29.9997 33.8756 30.9236L18.4846 46.3132C18.1799 46.6184 18.1806 47.1135 18.4853 47.4187C18.7905 47.7234 19.2849 47.7234 19.5901 47.4187L34.9804 32.0285C35.294 31.7149 35.8027 31.7142 36.1162 32.0277C39.7474 35.659 51.1677 47.0798 54.7995 50.711C55.113 51.0245 55.113 51.534 54.7995 51.8475L40.7607 65.8848C40.4561 66.19 40.4561 66.6844 40.7607 66.9896C41.0659 67.2943 41.5611 67.295 41.8663 66.9903C41.8663 66.9903 52.3973 56.4584 55.9036 52.9516C56.8275 52.0282 56.8282 50.5301 55.9043 49.6061L54.0241 47.7259L67.0514 34.6985C67.9749 33.7746 67.9741 32.277 67.0507 31.3531L55.1721 19.4744ZM59.5527 26.0647L65.9458 32.4579C66.2594 32.7715 66.2594 33.2809 65.9458 33.5944L52.9192 46.6211L45.9578 39.6596C46.2369 39.3805 49.5245 36.0938 51.864 33.7548C52.114 33.5043 52.5191 33.5036 52.7696 33.7541L52.7711 33.7556C53.6315 34.616 55.026 34.6153 55.8864 33.7548L56.8704 32.7708C57.7303 31.9109 57.7303 30.5166 56.8704 29.6562L56.8689 29.6548C56.6189 29.4048 56.6182 28.9992 56.8682 28.7492C57.9088 27.709 59.0571 26.5604 59.5527 26.0647ZM51.6446 27.4314C51.3399 27.1267 50.8451 27.1274 50.5405 27.4321L49.0069 28.9657C48.7022 29.2704 48.7015 29.7651 49.0062 30.0698C49.3114 30.3745 49.8073 30.3745 50.1125 30.0698L51.6453 28.537C51.9505 28.2318 51.9498 27.7366 51.6446 27.4314ZM59.3951 35.1819C59.0904 34.8772 58.5957 34.878 58.291 35.1827L56.7581 36.7155C56.4529 37.0202 56.4529 37.5157 56.7581 37.8203C57.0628 38.125 57.5578 38.125 57.863 37.8203L59.3958 36.2875C59.701 35.9823 59.7003 35.4871 59.3951 35.1819ZM42.2728 43.5072C41.9681 43.2025 41.4731 43.2025 41.1679 43.5072L34.3942 50.2809L34.3942 48.4064C34.3942 48.1933 34.4789 47.9894 34.6294 47.8388L37.8562 44.612C38.1614 44.3073 38.1614 43.8119 37.8562 43.5072C37.5515 43.2025 37.056 43.2025 36.7514 43.5072C36.7514 43.5072 34.5157 45.7423 33.5246 46.734C33.0808 47.1777 32.8319 47.7793 32.8319 48.4064V51.8432L29.1627 55.5124C27.9231 54.7675 26.2889 54.9282 25.2202 55.9965C23.9613 57.2559 23.962 59.3002 25.2209 60.559C26.4803 61.8184 28.5239 61.8184 29.7827 60.559C30.8515 59.4907 31.0127 57.8571 30.2675 56.6172L31.6637 55.2211H35.1006C35.7276 55.2211 36.3297 54.9721 36.773 54.5284L39.9998 51.3016C40.3044 50.9969 40.3044 50.5014 39.9998 50.1967C39.6951 49.8915 39.1996 49.8915 38.8949 50.1967L35.6688 53.4228C35.5183 53.5739 35.3143 53.658 35.1013 53.658H33.2268L42.2728 44.612C42.578 44.3073 42.578 43.8119 42.2728 43.5072ZM28.6786 57.1013C29.3275 57.7508 29.3275 58.8054 28.6786 59.4549C28.0291 60.1039 26.9747 60.1032 26.3257 59.4542C25.6763 58.8047 25.677 57.7508 26.3265 57.1013C26.9754 56.4524 28.0291 56.4524 28.6786 57.1013Z" fill="#013040"/>
</g>
<defs>
<clipPath id="clip0_19213_12741">
<rect width="50" height="50" fill="white" transform="translate(18 18)"/>
</clipPath>
</defs>
</svg>
