<svg width="48" height="48" viewBox="0 0 48 48" fill="none" xmlns="http://www.w3.org/2000/svg">
<path d="M45.9796 8.70945C45.9786 8.59166 45.9525 8.47544 45.9029 8.36856C45.8534 8.26169 45.7816 8.16661 45.6924 8.08969C45.6032 8.01277 45.4986 7.95578 45.3855 7.92252C45.2725 7.88926 45.1537 7.88051 45.0371 7.89683C33.942 9.55416 25.146 1.30968 25.0585 1.22622C24.9054 1.08097 24.7024 1 24.4914 1C24.2803 1 24.0773 1.08097 23.9242 1.22622C23.8372 1.30965 15.036 9.55696 3.94568 7.89683C3.82902 7.88052 3.71022 7.88929 3.59722 7.92255C3.48422 7.95582 3.37962 8.01281 3.29041 8.08973C3.2012 8.16665 3.12943 8.26171 3.07989 8.36858C3.03035 8.47545 3.00419 8.59167 3.00315 8.70945C2.9476 8.935 3.38906 40.4845 24.4914 47C45.5803 40.4913 46.0537 8.92654 45.9796 8.70945ZM24.4914 45.311C6.87407 39.2067 4.89346 14.7524 4.67326 9.64481C14.5859 10.686 22.3623 4.74383 24.4914 2.92205C26.6208 4.74342 34.3992 10.6813 44.3095 9.64481C44.0893 14.7524 42.1087 39.2067 24.4914 45.311Z" fill="#013040"/>
<path d="M23.8156 13.6749C23.1281 14.6704 17.0984 23.5081 17.0984 27.2848C17.4857 37.0834 31.497 37.0846 31.8844 27.2847C31.8844 23.5081 25.8548 14.6704 25.1673 13.6749C25.0877 13.5712 24.9854 13.4872 24.8682 13.4294C24.751 13.3716 24.6221 13.3416 24.4914 13.3416C24.3608 13.3416 24.2318 13.3716 24.1146 13.4294C23.9975 13.4872 23.8951 13.5712 23.8156 13.6749ZM24.4914 33.0349C22.9669 33.0332 21.5054 32.4269 20.4274 31.3489C19.3494 30.2709 18.743 28.8093 18.7413 27.2848C18.7413 24.8205 22.4246 18.7379 24.4914 15.611C26.5583 18.7379 30.2416 24.8205 30.2416 27.2848C30.2398 28.8093 29.6335 30.2709 28.5555 31.3489C27.4775 32.4269 26.0159 33.0332 24.4914 33.0349Z" fill="#013040"/>
<path d="M22.0276 27.2857C22.0276 27.0678 21.9411 26.8589 21.787 26.7048C21.633 26.5508 21.4241 26.4642 21.2062 26.4642C20.9883 26.4642 20.7794 26.5508 20.6254 26.7048C20.4713 26.8589 20.3848 27.0678 20.3848 27.2857C20.3861 28.3746 20.8192 29.4185 21.5892 30.1885C22.3591 30.9585 23.4031 31.3916 24.492 31.3929C24.7069 31.3885 24.9116 31.3 25.062 31.1464C25.2125 30.9929 25.2967 30.7864 25.2967 30.5714C25.2967 30.3565 25.2125 30.15 25.062 29.9965C24.9116 29.8429 24.7069 29.7544 24.492 29.75C23.8386 29.7493 23.2122 29.4895 22.7502 29.0275C22.2882 28.5654 22.0283 27.939 22.0276 27.2857Z" fill="#013040"/>
</svg>
