<svg width="85" height="85" viewBox="0 0 85 85" fill="none" xmlns="http://www.w3.org/2000/svg">
<path d="M0 42.5C0 19.0279 19.0279 0 42.5 0C65.9721 0 85 19.0279 85 42.5C85 65.9721 65.9721 85 42.5 85C19.0279 85 0 65.9721 0 42.5Z" fill="#C1E5F1"/>
<path d="M32.0361 60.3862C34.7482 65.0824 39.8021 67.9998 45.2252 67.9998C53.6233 67.9998 60.4557 61.1674 60.4557 52.7693V40.8444C60.4557 38.7054 58.7154 36.9651 56.5762 36.9651C55.7245 36.9651 54.936 37.241 54.2954 37.7082C53.8598 36.0425 52.342 34.8099 50.5417 34.8099C49.641 34.8099 48.8109 35.1185 48.1518 35.6355C47.608 34.1494 46.1795 33.0858 44.5072 33.0858C43.7104 33.0858 42.9688 33.3273 42.352 33.741V26.1891C42.352 24.0501 40.6117 22.3098 38.4726 22.3098C36.3335 22.3098 34.5932 24.0501 34.5932 26.1891V46.7559C34.5932 47.0204 34.4383 47.2632 34.1985 47.3749C33.8756 47.525 33.4976 47.4057 33.3196 47.0972L30.7329 42.6169C29.188 39.9411 25.7545 39.0211 23.0785 40.5659C22.58 40.8538 22.2233 41.3186 22.0743 41.8747C21.9254 42.4309 22.0019 43.0116 22.2898 43.5103L32.0361 60.3862ZM23.74 42.3209C23.7573 42.2566 23.8063 42.1368 23.9409 42.0592C24.5387 41.7141 25.2019 41.5378 25.8741 41.5378C26.211 41.5378 26.5503 41.5821 26.8844 41.6717C27.8853 41.9399 28.7218 42.5818 29.2399 43.4791L31.8266 47.9594C32.4547 49.0472 33.7872 49.4679 34.926 48.9383C35.7714 48.5451 36.3177 47.6885 36.3177 46.7561V26.1891C36.3177 25.0008 37.2845 24.0339 38.4729 24.0339C39.6612 24.0339 40.628 25.0008 40.628 26.1891V42.1375C40.628 42.6136 41.014 42.9996 41.4902 42.9996C41.9663 42.9996 42.3523 42.6137 42.3523 42.1375V36.9651C42.3523 35.7767 43.3191 34.8099 44.5075 34.8099C45.6959 34.8099 46.6627 35.7767 46.6627 36.9651V42.1375C46.6627 42.6136 47.0486 42.9996 47.5248 42.9996C48.0009 42.9996 48.3869 42.6137 48.3869 42.1375V38.6892C48.3869 37.5009 49.3537 36.534 50.5421 36.534C51.7305 36.534 52.6973 37.5009 52.6973 38.6892V42.5686C52.6973 43.0446 53.0832 43.4307 53.5594 43.4307C54.0355 43.4307 54.4215 43.0447 54.4215 42.5686V40.8444C54.4215 39.656 55.3883 38.6892 56.5767 38.6892C57.7651 38.6892 58.7319 39.656 58.7319 40.8444V52.7693C58.7319 60.2168 52.673 66.2757 45.2254 66.2757C40.4162 66.2757 35.9347 63.6886 33.5295 59.5239L23.7831 42.648C23.7054 42.5135 23.7227 42.3853 23.74 42.3209Z" fill="#013040"/>
<path d="M32.5908 30.6445C33.0012 30.403 33.1379 29.8746 32.8964 29.4643C32.3147 28.4762 32.0072 27.3438 32.0072 26.1897C32.0072 22.6245 34.9076 19.7241 38.4728 19.7241C42.038 19.7241 44.9384 22.6245 44.9384 26.1897C44.9384 27.3481 44.6286 28.4844 44.0427 29.4754C43.8004 29.8853 43.9361 30.414 44.346 30.6563C44.4837 30.7377 44.6348 30.7764 44.784 30.7764C45.0787 30.7764 45.3659 30.6251 45.5269 30.3529C46.2699 29.0964 46.6626 27.6567 46.6626 26.1897C46.6625 21.6739 42.9887 18 38.4728 18C33.9569 18 30.2831 21.6739 30.2831 26.1897C30.2831 27.6512 30.6729 29.0859 31.4105 30.339C31.6522 30.7493 32.1808 30.886 32.5908 30.6445Z" fill="#013040"/>
</svg>
