<svg width="24" height="25" viewBox="0 0 24 25" fill="none" xmlns="http://www.w3.org/2000/svg">
<path fill-rule="evenodd" clip-rule="evenodd" d="M18.9504 14.6321C18.0144 15.842 17.2011 16.8682 16.3495 18.0783C15.6898 19.0547 15.0988 20.0759 14.581 21.1344C14.2931 21.6334 14.0467 22.1551 13.8444 22.6944C13.8121 22.7882 13.8182 22.891 13.8615 22.9803C13.9048 23.0696 13.9817 23.1381 14.0754 23.1707C14.1691 23.2034 14.272 23.1975 14.3614 23.1545C14.4508 23.1115 14.5195 23.0348 14.5524 22.9412C14.793 22.3256 15.085 21.7315 15.4255 21.1652C19.0529 20.3758 21.972 18.1976 22.5135 14.3252C22.6862 12.9682 22.5317 11.5897 22.0627 10.3047C21.7688 9.50964 21.3814 8.75233 20.9088 8.04868C20.8203 8.05756 20.773 8.14252 20.7387 8.22532C19.9299 10.2156 19.9721 10.6354 17.9923 12.098C16.6483 13.0906 15.1054 13.49 14.1269 14.6765C12.5283 16.6145 12.5741 18.9317 13.7866 21.0435C15.6466 17.8236 16.2065 16.7816 18.9504 14.6328V14.6321ZM6.50138 17.077C5.92154 15.661 5.43962 14.444 4.8173 13.1016C4.3016 12.0421 3.71274 11.0198 3.05498 10.0421C2.76696 9.54351 2.43841 9.06943 2.07266 8.62468C2.04088 8.58619 2.00174 8.55444 1.95753 8.53128C1.91332 8.50812 1.86492 8.49402 1.81519 8.48981C1.76546 8.4856 1.71538 8.49136 1.66791 8.50676C1.62043 8.52216 1.57651 8.54689 1.53871 8.57949C1.50092 8.61209 1.47002 8.6519 1.44782 8.69661C1.42562 8.74131 1.41257 8.78999 1.40943 8.83981C1.4063 8.88962 1.41314 8.93956 1.42956 8.98669C1.44598 9.03382 1.47165 9.0772 1.50506 9.11428C1.91803 9.63059 2.28678 10.1808 2.60738 10.759C1.47722 14.2949 1.90418 17.9127 4.98602 20.3165C6.07489 21.1448 7.34625 21.7004 8.69378 21.9368C9.52923 22.0797 10.3787 22.1228 11.2243 22.0652C11.2354 22.0234 11.2349 21.9795 11.223 21.938C11.211 21.8966 11.188 21.8591 11.1564 21.8297C9.83642 20.1339 9.45242 19.9608 9.1757 17.515C8.98778 15.8549 9.41354 14.3187 8.87522 12.878C7.99634 10.5245 5.96666 9.40564 3.53162 9.39988C5.38994 12.6207 6.0125 13.6265 6.50138 17.077ZM10.6078 5.1094C13.8403 6.4114 15.0238 6.37516 18.7414 6.37612C17.5198 8.48188 15.5357 9.68068 13.0582 9.26476C11.5414 9.0106 10.4237 7.87276 8.89226 7.20652C6.63626 6.22252 6.2933 6.46972 4.16426 6.76444C4.12295 6.77695 4.07904 6.77809 4.03714 6.76775C3.99524 6.7574 3.95691 6.73594 3.92618 6.70564C4.29946 5.94444 4.7619 5.23031 5.30378 4.57828C6.18231 3.52975 7.29912 2.70681 8.56082 2.17828C12.1848 0.711402 15.5299 2.15044 18.0274 4.89724C18.6884 4.90883 19.3492 4.86451 20.0028 4.76476C20.0512 4.75554 20.1009 4.75594 20.1491 4.76593C20.1973 4.77592 20.2431 4.79531 20.2838 4.82299C20.3245 4.85067 20.3594 4.8861 20.3864 4.92725C20.4134 4.96841 20.4321 5.01448 20.4413 5.06284C20.4505 5.11121 20.4501 5.16091 20.4401 5.20912C20.4301 5.25733 20.4107 5.3031 20.3831 5.34382C20.3554 5.38453 20.32 5.4194 20.2788 5.44642C20.2377 5.47345 20.1916 5.4921 20.1432 5.50132C19.5751 5.59568 19.0002 5.64312 18.4243 5.64316C17.2487 5.72405 16.0689 5.72285 14.8935 5.63956C13.4199 5.50636 12.1241 5.31484 10.6078 5.1094Z" fill="#013040"/>
</svg>
