<svg width="52" height="52" viewBox="0 0 52 52" fill="none" xmlns="http://www.w3.org/2000/svg">
<rect width="52" height="52" rx="26" fill="#C1E5F1"/>
<g clip-path="url(#clip0_19213_12702)">
<path d="M26 11.4995C18.0041 11.4995 11.4996 18.004 11.4996 25.9991C11.4996 33.9941 18.0041 40.4995 26 40.4995C33.9959 40.4995 40.5004 33.995 40.5004 25.9991C40.5004 18.0032 33.995 11.4995 26 11.4995ZM25.9991 38.871C18.9015 38.871 13.1263 33.0967 13.1263 25.9982C13.1263 18.8997 18.9015 13.1263 25.9991 13.1263C33.0968 13.1263 38.8719 18.9006 38.8719 25.9982C38.8719 33.0959 33.0968 38.871 25.9991 38.871Z" fill="#013040"/>
<path d="M31.6183 30.8326C31.6097 31.1797 30.93 32.0831 30.5632 32.4593C29.3573 33.6944 27.6731 34.3338 25.9854 34.333C24.6938 34.333 23.3996 33.9584 22.3187 33.1913C21.6794 32.7379 20.416 31.4908 20.3791 30.8231C20.3783 30.8146 20.3783 30.8068 20.3783 30.7983C20.3783 30.4854 20.6834 30.0663 20.9577 30.0097C21.0622 29.9883 21.1539 29.978 21.2354 29.978C21.6408 29.978 21.8053 30.2292 22.0513 30.6029C22.1465 30.7486 22.2459 30.8994 22.3702 31.0477C23.2658 32.1114 24.5892 32.7216 26 32.7216C27.4108 32.7216 28.7341 32.1114 29.6298 31.0477C29.7567 30.8968 29.8552 30.7443 29.9512 30.5977C30.2306 30.1674 30.3995 29.9069 30.9995 30.0012C31.3363 30.0543 31.626 30.5103 31.6183 30.8326Z" fill="#013040"/>
<path d="M33.5768 22.9473C33.3899 23.4024 32.712 24.0821 32.2757 24.3418C31.5994 24.7438 30.8049 24.8518 30.0387 24.6452C29.2227 24.425 28.5164 23.8678 28.0999 23.117C27.9302 22.8119 27.9028 22.4382 28.0313 22.1665C28.1256 21.9659 28.291 21.8417 28.5242 21.7988C29.0864 21.6942 29.3136 21.9968 29.6024 22.3799C29.8707 22.7365 30.1749 23.1393 30.7792 23.1402H30.7801C31.4606 23.1402 31.7717 22.6902 32.0211 22.3293C32.1574 22.1322 32.2868 21.9462 32.4488 21.8708C32.7977 21.708 33.1559 21.7534 33.4062 21.9925C33.6556 22.2308 33.7208 22.5968 33.5768 22.9473Z" fill="#013040"/>
<path d="M23.9515 22.9908C23.6627 23.6825 22.8047 24.3545 22.1756 24.5799C20.7708 25.0847 18.9821 24.3065 18.4232 22.9471C18.3212 22.7003 18.3392 22.3857 18.4669 22.144C18.5364 22.0129 18.6692 21.8466 18.9041 21.7977C19.4989 21.6743 19.6763 21.9263 19.9446 22.3069C20.1306 22.57 20.3406 22.8674 20.7237 23.0225C21.6331 23.3902 22.0933 22.7826 22.4302 22.3394C22.6299 22.0754 22.8193 21.826 23.0541 21.7892C23.3936 21.7352 23.8093 21.8372 23.9704 22.1834C24.0818 22.4234 24.0758 22.6943 23.9515 22.9908Z" fill="#013040"/>
</g>
<defs>
<clipPath id="clip0_19213_12702">
<rect width="29.0009" height="29" fill="white" transform="translate(11.4996 11.4995)"/>
</clipPath>
</defs>
</svg>
