<svg width="31" height="30" viewBox="0 0 31 30" fill="none" xmlns="http://www.w3.org/2000/svg">
<g clip-path="url(#clip0_19308_12321)">
<path d="M16.1329 7.17301C16.1729 7.24212 16.7731 7.66993 16.8661 7.81691C18.1447 7.4031 19.472 7.28324 20.8079 7.44684C20.8175 6.79769 21.1953 6.70058 21.7521 6.66121C23.776 6.51598 25.3057 7.0374 26.3802 8.82388C26.8988 8.23247 27.5207 7.80116 28.2886 7.59994C28.8193 7.46084 30.501 7.17826 30.3203 8.13536C30.2239 8.64628 29.4291 8.41269 29.0591 8.44156C28.3094 8.50018 27.605 8.87287 27.129 9.44853C28.2764 9.95333 29.0869 10.9288 29.39 12.1527C29.5099 12.6383 29.6741 13.745 29.5889 14.2139C29.4934 14.7415 28.9574 14.6907 28.9488 14.7581C29.6228 17.3818 29.0895 20.2347 27.1298 22.1533C28.2226 22.7692 30.9127 23.5907 29.9208 25.3527C29.417 26.2477 26.8536 27.1943 25.8599 27.5574C21.224 29.2494 11.6013 31.5021 7.27722 28.6186C6.96625 28.4112 6.70132 28.1532 6.44507 27.8846C5.55298 29.2126 3.39182 30.9711 2.04805 29.1601C1.43219 28.3299 1.67106 27.4699 1.97856 26.5784C0.324679 26.0115 -0.33722 24.2521 1.20634 23.0754C1.45564 22.8856 1.74837 22.806 1.97769 22.6013C1.41568 21.3931 1.5703 19.8883 2.98009 19.4229C4.46546 18.9321 5.58426 20.3441 6.44594 21.3336C7.02098 20.722 7.76887 20.2645 8.56367 20.0248C7.89916 18.3345 6.77776 16.5708 5.11346 15.7327C4.65655 15.5026 4.19618 15.451 3.74362 15.276C2.34425 14.738 1.37573 13.2603 1.5286 11.7416C1.55553 11.4721 1.85 10.8002 1.84044 10.7031C1.83263 10.6252 1.51905 10.1475 1.4513 9.98482C0.63565 8.02338 1.4513 5.73385 3.3206 4.768C3.25805 -0.188108 9.71635 -1.85997 11.9505 2.57384C14.0343 2.55285 15.9227 4.12848 16.1199 6.24128C16.139 6.44337 16.0747 7.0724 16.1347 7.17651L16.1329 7.17301ZM13.4384 19.2925C13.5913 19.1963 13.4801 16.6172 13.514 16.192C13.6174 14.8841 14.3436 12.9331 15.2382 11.9664C15.4337 11.7556 15.6674 11.6287 15.8567 11.4091C16.6637 10.4704 16.6845 8.91749 15.6952 8.10386C15.3738 7.83965 15.0567 7.91227 15.0715 7.35061C15.1053 5.98757 15.1132 5.16607 13.9353 4.24133C13.0406 3.53969 12.6341 3.76716 11.6551 3.65168C11.1626 3.59393 11.1557 3.11101 10.9411 2.73219C9.42275 0.0568549 5.34364 0.600146 4.52713 3.55719C4.3508 4.19584 4.47414 4.49155 4.43592 5.04971C4.3977 5.60787 3.92343 5.58688 3.56555 5.79859C2.16618 6.62797 1.74403 8.46606 2.53361 9.87372C2.65783 10.0951 2.99312 10.4056 3.00528 10.6348C3.01831 10.8816 2.62308 11.3706 2.57357 11.7433C2.43112 12.8203 3.06609 13.8946 4.06762 14.2909C5.41748 14.8255 6.02118 14.8963 7.16256 15.9602C8.30829 17.0275 8.89288 18.2969 9.60082 19.6635C10.8586 19.3713 12.1468 19.2654 13.4376 19.2925H13.4384ZM24.9947 10.9026C24.4336 10.382 25.5064 9.88421 25.5541 9.63313C25.5802 9.4949 25.1598 8.86325 25.0451 8.72414C24.2295 7.73905 23.0499 7.60957 21.852 7.71105C21.9067 8.24034 22.1465 8.73202 22.5018 9.12046C22.738 9.37854 23.3122 9.676 23.2913 10.0347C23.267 10.459 22.7511 10.5316 22.4592 10.7118C22.0353 10.9734 21.5506 11.4117 21.3951 11.9008C21.9189 12.0758 22.4219 12.2227 22.9839 12.1562C23.3339 12.1151 23.6631 11.836 23.9984 12.1326C24.2677 12.3706 24.0601 12.8176 24.0592 13.1125C24.0575 13.6076 24.2616 14.2498 24.5535 14.6496C25.0738 14.3075 25.3891 13.8815 25.6419 13.3216C25.7505 13.0818 25.6949 12.8246 25.9598 12.6593C26.461 12.3478 26.7068 12.885 27.0317 13.1431C27.5094 13.5228 28.0011 13.7511 28.6256 13.7345C28.5909 12.1746 27.9568 10.704 26.3767 10.221C26.1917 10.242 25.6045 11.4677 24.9939 10.9017L24.9947 10.9026ZM21.0572 8.50893C19.8029 8.24997 18.5121 8.31471 17.2908 8.69352C17.647 9.64975 17.462 10.6716 16.9521 11.5281C16.5403 12.2201 15.9306 12.5394 15.5049 13.2166C14.4417 14.9068 14.5164 16.5909 14.4904 18.4833C14.4869 18.7344 14.4912 18.9854 14.4904 19.2356C18.3836 19.4876 22.2316 20.3695 25.8886 21.6975L26.1049 21.7141C27.8395 20.2829 28.4884 18.087 28.1531 15.8805C28.1227 15.6828 27.9368 14.8053 27.8508 14.6933C27.7917 14.6164 26.6069 14.2699 26.4436 14.0083C26.0249 14.619 25.5976 15.1798 24.9722 15.5936C24.1496 16.1386 23.9428 15.7931 23.5337 15.0214C23.221 14.4318 23.0612 13.8141 23.0229 13.1448C22.4783 13.2997 20.3988 12.7888 20.2355 12.2464C20.1234 11.8737 20.5934 11.137 20.8192 10.8299C21.105 10.4424 21.4794 10.1545 21.8381 9.83785C21.5384 9.41704 21.1701 9.03559 21.0564 8.50718L21.0572 8.50893ZM12.4048 20.2837C9.2829 20.3852 5.94126 21.3336 6.28177 25.1611C6.44594 27.0045 7.98603 28.1514 9.66857 28.5346V25.9476C9.66857 25.9275 9.80495 25.6222 9.83361 25.5889C10.0855 25.2993 10.7109 25.5373 10.7109 25.8164V28.7962C11.9652 28.9458 13.322 28.9878 14.5902 28.93C14.7631 28.9222 15.6665 28.8469 15.6995 28.8006L15.7412 26.2232C15.8793 25.7473 16.7045 25.9161 16.7045 26.2748V28.7306C19.6579 28.3071 22.5956 27.6422 25.403 26.6361C26.3698 26.2897 27.5815 25.8435 28.451 25.3125C29.701 24.5487 28.8515 24.1366 27.955 23.6756C25.5594 22.4429 22.6355 21.7693 20.027 21.1341V24.3755C20.027 24.393 19.8872 24.6388 19.849 24.6729C19.531 24.959 19.0715 24.7578 19.0003 24.3606L18.9855 20.8716C17.1275 20.6092 15.266 20.2829 13.3828 20.2829V22.9355C13.3828 23.0536 12.9954 23.246 12.8356 23.2294C12.6914 23.2145 12.4056 22.9976 12.4056 22.8698V20.2829L12.4048 20.2837ZM3.20159 25.9992C3.59508 26.3903 3.01571 26.8653 2.86109 27.2258C2.37379 28.3622 3.09215 29.3981 4.25611 28.6938C4.54189 28.5206 5.75711 27.3369 5.75538 27.0622C5.75451 26.9248 5.51998 26.5058 5.46612 26.3098C5.13691 25.1209 5.15515 24.1139 5.49739 22.9346C5.55993 22.7194 5.7962 22.3782 5.73453 22.1822C5.62248 21.8235 4.47327 20.7159 4.11018 20.5348C3.16598 20.0641 2.54404 20.6853 2.71342 21.6774C2.78552 22.1008 3.30149 22.6625 3.28846 23.0011C3.26935 23.4857 2.65262 23.4805 2.29213 23.6423C0.992658 24.2268 1.0552 25.0273 2.29387 25.6362C2.50408 25.7394 3.08693 25.8864 3.20159 26.001V25.9992Z" fill="#013040"/>
<path d="M12.3865 6.15824C12.549 6.29035 12.5924 6.64204 12.4612 6.81702L9.81711 10.1083L10.3218 12.2281C10.4043 12.2928 11.4719 10.8047 11.7368 10.6717C12.2024 10.4381 12.6089 10.9245 12.3388 11.4083C11.947 12.1091 11.0636 12.7871 10.6588 13.5185L11.3685 16.5831C11.4041 17.1929 10.6328 17.3591 10.3826 16.7835L9.65468 13.7494C8.7678 13.3313 7.77669 13.0802 6.94107 12.5806C6.73954 12.3015 6.83422 11.8641 7.17734 11.7871C7.64466 11.6821 9.20994 12.5937 9.34371 12.4896L8.8095 10.3427L4.97535 8.79421C4.41595 8.50376 4.59749 7.77062 5.24202 7.80299L8.49592 9.08467L7.90872 6.7584C7.91133 6.27285 8.6184 6.07601 8.87291 6.57818C8.99365 6.81702 9.3689 8.82396 9.50614 8.82133L11.7828 6.13462C11.934 6.02789 12.2467 6.04451 12.3865 6.15737V6.15824Z" fill="#013040"/>
</g>
<defs>
<clipPath id="clip0_19308_12321">
<rect width="30" height="30" fill="white" transform="translate(0.333374)"/>
</clipPath>
</defs>
</svg>
