<svg width="85" height="85" viewBox="0 0 85 85" fill="none" xmlns="http://www.w3.org/2000/svg">
<path d="M0 42.5C0 19.0279 19.0279 0 42.5 0C65.9721 0 85 19.0279 85 42.5C85 65.9721 65.9721 85 42.5 85C19.0279 85 0 65.9721 0 42.5Z" fill="#C1E5F1"/>
<g clip-path="url(#clip0_19213_12768)">
<path d="M46.5483 18C48.4462 18.7081 47.4868 21.1084 47.7224 22.673C49.9249 23.1013 51.9958 24.0411 53.9067 25.1879C55.3789 24.0918 56.4163 21.4533 58.4873 23.1624C59.1746 23.73 62.8076 27.3239 63.0952 27.9084C63.9947 29.7385 61.4955 30.7239 60.7171 32.036C61.873 33.9221 62.7685 35.9892 63.2137 38.1656C64.7223 38.3869 67.6889 37.382 67.8906 39.6755C68.0364 41.3286 68.0364 44.5581 67.8906 46.2112C67.6876 48.5061 64.7184 47.4999 63.2137 47.7212C62.7685 49.9184 61.8469 51.9946 60.6989 53.9054C61.7727 55.3503 64.3878 56.3982 62.7724 58.4366C62.3988 58.9078 61.3211 60.0767 60.7288 59.4076C59.9777 58.5589 61.502 57.7831 61.8391 57.1336C61.7988 56.9006 59.7434 55.185 59.4623 54.7294C59.1186 54.1723 59.2019 53.7922 59.4245 53.2377C59.7486 52.4306 60.3552 51.5781 60.7223 50.7359C61.2456 49.5344 61.5775 48.2731 61.9875 47.0313C62.0539 46.7306 62.8362 46.2568 63.064 46.2568H66.4249V39.6313H63.064C62.8362 39.6313 62.0539 39.1575 61.9875 38.8568C61.5788 37.6163 61.2456 36.3549 60.7223 35.1522C60.3552 34.3087 59.7486 33.4574 59.4245 32.6504C59.2019 32.0959 59.1186 31.7158 59.4623 31.1586C59.7213 30.7395 61.8808 28.9211 61.8391 28.6842L57.3184 24.1348L57.0724 24.0866C56.2276 24.7375 54.9494 26.7486 53.8195 26.6705C53.2793 26.634 51.4231 25.4664 50.7358 25.167C49.5344 24.6438 48.2731 24.3118 47.0313 23.9018C46.7306 23.8354 46.2568 23.0531 46.2568 22.8253V19.4618H39.6312V22.8227C39.6312 23.0505 39.1574 23.8328 38.8567 23.8992C37.6162 24.3079 36.3549 24.6412 35.1522 25.1644C34.4649 25.4638 32.6087 26.6314 32.0685 26.6679C30.9373 26.7447 29.6604 24.7336 28.8156 24.084L28.5696 24.1322L24.0489 28.6816C24.5956 29.6838 26.755 30.8189 26.6691 32.0672C26.6327 32.6074 25.4651 34.4636 25.1657 35.1509C24.6424 36.3523 24.3105 37.6137 23.9005 38.8555C23.8341 39.1562 23.0518 39.63 22.824 39.63H19.4617V46.2555H22.8227C23.0505 46.2555 23.8328 46.7293 23.8992 47.03C24.3079 48.2705 24.6411 49.5318 25.1644 50.7346C25.4638 51.4218 26.6314 53.278 26.6678 53.8182C26.7446 54.9494 24.7335 56.2263 24.084 57.0711L24.1322 57.3171L28.6815 61.8379C29.676 61.2807 30.8423 59.1317 32.0672 59.2176C32.6139 59.2566 34.4597 60.419 35.1508 60.721C36.3523 61.2443 37.6136 61.5762 38.8554 61.9863C39.1561 62.0526 39.6299 62.8349 39.6299 63.0627V66.4237H46.2555V63.0627C46.2555 62.8349 46.7293 62.0526 47.03 61.9863C48.2704 61.5775 49.5318 61.2443 50.7345 60.721C51.578 60.354 52.4293 59.7474 53.2363 59.4233C53.7909 59.2007 54.171 59.1174 54.7281 59.461C55.1837 59.7422 56.8993 61.7962 57.1323 61.8379C57.7987 61.5111 58.3259 60.2264 59.2123 60.6286C60.4698 61.2 58.2335 63.1968 57.4017 63.2983C56.0402 63.4637 54.9103 61.4265 53.9041 60.6989C51.9906 61.8431 49.921 62.779 47.7198 63.2137C47.4973 64.7185 48.5047 67.6876 46.2099 67.8907C44.5568 68.0364 41.3273 68.0364 39.6742 67.8907C37.3806 67.6889 38.3855 64.7224 38.1642 63.2137C35.9878 62.7686 33.9195 61.873 32.0346 60.7171C30.7225 61.4955 29.7372 63.9947 27.907 63.0953C27.3226 62.8076 23.7286 59.1746 23.1611 58.4874C21.452 56.4164 24.0905 55.3776 25.1865 53.9067C24.0449 51.9959 23.109 49.9223 22.6717 47.7225C21.1071 47.4869 18.7068 48.4462 17.9987 46.5484V39.3384C18.1327 38.931 18.7706 38.1695 19.217 38.1695H22.6756C23.1025 35.967 24.0384 33.8909 25.1865 31.9813C24.1243 30.5482 21.4806 29.4665 23.1129 27.4502C24.0059 26.3477 26.2981 24.0736 27.3994 23.1624C29.4703 21.4481 30.5 24.0879 31.98 25.1879C33.8895 24.0411 35.9657 23.1039 38.1681 22.6769V19.2184C38.1681 18.7719 38.9296 18.1341 39.337 18H46.547H46.5483Z" fill="#013040"/>
<path d="M41.2674 27.3823C57.4225 26.0273 64.967 46.3829 52.0752 55.6313C41.1125 63.4948 26.4126 54.8829 27.3499 41.5264C27.3954 40.8742 27.4865 39.7639 28.4302 40.062C29.2073 40.3067 28.8247 41.089 28.8116 41.624C28.6698 47.4906 30.8396 52.4813 36.1219 55.3684C47.9684 61.8442 61.3379 49.5824 55.9204 37.2269C51.2747 26.6313 36.2937 25.8359 30.6171 35.9265C30.3802 36.347 29.8048 37.8179 29.6018 38.0287C29.1149 38.5338 28.235 38.1511 28.3495 37.3675C28.4485 36.6815 29.4677 34.9503 29.8868 34.319C32.3496 30.6001 36.7701 27.7624 41.27 27.3849L41.2674 27.3823Z" fill="#013040"/>
<path d="M48.769 35.3696C50.6994 35.1925 52.3382 36.8691 52.1872 38.7904C52.1104 39.7744 51.5858 40.3823 50.9831 41.093C48.8744 43.5766 46.2489 46.3427 43.9684 48.6935C42.5912 50.1123 41.3338 51.2279 39.2745 50.072C38.5651 49.6737 34.8215 46.0446 34.2891 45.3131C32.7219 43.1562 34.4375 40.1675 37.0461 40.312C38.7083 40.4044 39.5635 41.9053 40.7519 42.8425L46.9375 36.1688C47.4387 35.7653 48.1233 35.4268 48.769 35.3682V35.3696ZM48.8666 36.8261C48.411 36.8717 47.9815 37.1672 47.6651 37.4835L41.1633 44.5255C40.9342 44.6219 40.64 44.6544 40.4096 44.549C39.5427 43.9528 38.2137 42.0745 37.2726 41.8415C35.7926 41.4744 34.6302 43.0351 35.419 44.3772C35.6754 44.8132 39.2902 48.3251 39.7926 48.6753C41.0774 49.5721 41.8076 48.8198 42.7006 47.9138C45.3703 45.2037 47.7888 42.2099 50.4299 39.4685C51.2461 38.2749 50.2815 36.6855 48.8666 36.8261Z" fill="#013040"/>
</g>
<defs>
<clipPath id="clip0_19213_12768">
<rect width="50" height="50" fill="white" transform="translate(18 18)"/>
</clipPath>
</defs>
</svg>
