<svg width="24" height="25" viewBox="0 0 24 25" fill="none" xmlns="http://www.w3.org/2000/svg">
<g clip-path="url(#clip0_19287_10060)">
<path d="M19.9726 12.5895C19.8238 17.0391 16.1422 20.5239 11.7454 20.3703C7.34382 20.2215 3.86862 16.5207 4.01262 12.1431C4.15662 7.75594 7.86222 4.26154 12.2158 4.41034C16.627 4.55914 20.1166 8.23594 19.9726 12.5847V12.5895ZM13.8046 10.7895C14.4814 10.7895 14.8558 10.1751 14.5726 9.64714C14.2318 9.01354 13.7038 8.60554 13.003 8.44234C12.859 8.40874 12.7774 8.37514 12.7678 8.18794C12.7438 7.78954 12.3886 7.49194 11.995 7.49674C11.5966 7.49674 11.2462 7.80394 11.2318 8.20234C11.2222 8.39434 11.155 8.45194 10.987 8.50954C9.97422 8.84074 9.29262 9.81994 9.33582 10.8471C9.38382 11.9319 10.1134 12.8343 11.1598 13.1079C11.5342 13.2039 11.9182 13.1655 12.2974 13.1799C12.7678 13.1991 13.1038 13.5495 13.1134 14.0103C13.1182 14.4759 12.787 14.8263 12.3118 14.8503C12.067 14.8647 11.827 14.8503 11.5822 14.8503C11.2366 14.8503 10.9822 14.6967 10.7998 14.4039C10.5406 13.9911 10.0942 13.8711 9.71022 14.1015C9.32622 14.3319 9.22542 14.8119 9.47502 15.2295C9.82062 15.8055 10.3246 16.1799 10.9774 16.3431C11.131 16.3815 11.2222 16.4055 11.2318 16.6071C11.251 16.9959 11.6014 17.2839 11.9902 17.2887C12.3886 17.2887 12.7438 16.9959 12.7678 16.5975C12.7774 16.4103 12.8398 16.3431 13.0126 16.2903C14.0398 15.9591 14.7358 14.9415 14.6638 13.9095C14.5774 12.7479 13.7758 11.8503 12.6574 11.6583C12.3406 11.6055 12.0238 11.6343 11.7118 11.6199C11.2462 11.6055 10.9006 11.2551 10.891 10.7943C10.8814 10.3431 11.203 9.98314 11.6638 9.94954C11.8798 9.93514 12.1006 9.94954 12.3214 9.93994C12.7246 9.92074 13.027 10.0647 13.2286 10.4247C13.3726 10.6791 13.6078 10.7943 13.8094 10.7991L13.8046 10.7895Z" fill="#013040"/>
<path d="M5.03513 2.98465C5.60153 2.57665 6.11993 2.24065 6.66713 1.96225C8.62073 0.973448 10.6895 0.541448 12.8687 0.738248C17.1647 1.12705 20.3663 3.24385 22.3967 7.05025C24.6383 11.255 23.9375 16.6118 20.7407 20.1542C18.7151 22.4006 16.1855 23.687 13.1807 24.023C7.94873 24.6086 2.82713 21.4022 1.03193 16.4438C0.196732 14.1446 0.0719323 11.807 0.681532 9.43585C0.801532 8.97025 1.19993 8.70625 1.62233 8.80705C2.06873 8.91745 2.31353 9.32065 2.19353 9.80065C1.91033 10.9382 1.79033 12.0854 1.89593 13.2518C2.09753 15.4934 2.93753 17.4614 4.43513 19.1366C6.15353 21.0518 8.30873 22.1654 10.8623 22.4583C15.3503 22.9718 19.7327 20.4614 21.4367 16.0694C23.0159 11.9942 21.8783 7.51105 18.5711 4.67905C16.9391 3.28225 15.0431 2.47105 12.8975 2.29825C9.83033 2.04865 7.17593 3.00385 4.93913 5.11585C4.71833 5.32705 4.48793 5.48545 4.16633 5.43745C3.79673 5.37985 3.51833 5.10625 3.51353 4.73185C3.49913 3.88705 3.49913 3.04225 3.51353 2.19745C3.51833 1.80865 3.84953 1.49665 4.23833 1.47745C4.62713 1.45345 4.98713 1.71745 5.03993 2.11105C5.07353 2.37505 5.04473 2.64385 5.04473 2.98945L5.03513 2.98465Z" fill="#013040"/>
</g>
<defs>
<clipPath id="clip0_19287_10060">
<rect width="24" height="24" fill="white" transform="translate(0 0.3927)"/>
</clipPath>
</defs>
</svg>
