<svg width="48" height="48" viewBox="0 0 48 48" fill="none" xmlns="http://www.w3.org/2000/svg">
<path d="M26.6108 48C24.3848 46.5672 22.4658 44.8017 20.9306 42.6353C20.0777 41.4328 19.3869 40.1449 18.8922 38.7547C18.6875 38.1662 18.8069 37.7654 19.2419 37.6204C19.6598 37.4839 20.0095 37.7057 20.2056 38.26C20.8368 40.034 21.8176 41.5948 23.0202 43.0362C23.0969 43.13 23.1652 43.2324 23.3187 43.275C23.1055 42.6098 22.8581 41.9616 22.679 41.2878C21.6129 37.4157 21.9967 33.6203 23.2675 29.8762C24.001 27.7099 25.0159 25.6715 26.21 23.7269C27.3102 21.9273 28.0863 19.9998 28.3933 17.8931C28.8113 15.0701 28.3422 12.3579 27.2846 9.73956C26.6876 8.25553 25.9114 6.86533 25.0244 5.54336C24.9392 5.41543 24.8453 5.29602 24.7259 5.18515C25.0074 6.22567 25.2974 7.25766 25.4935 8.31524C26.517 13.9272 25.5362 19.181 22.6193 24.068C21.4167 26.0894 20.3762 28.1704 19.8389 30.4817C19.5233 31.8463 19.3783 33.2195 19.4722 34.6182C19.4892 34.8229 19.4978 35.0276 19.5063 35.2238C19.5063 35.6758 19.2589 35.9743 18.8751 35.9999C18.4828 36.0255 18.1587 35.7696 18.1246 35.3261C18.0734 34.7632 18.0393 34.2003 18.0478 33.6459C18.099 30.1406 19.2589 26.9764 21.0329 24.0169C22.389 21.7652 23.4807 19.4198 24.018 16.8356C25.1439 11.3771 24.1801 6.26831 21.4764 1.44098C21.4167 1.3301 21.34 1.22776 21.2803 1.11688C21.0926 0.775729 21.0926 0.451632 21.3997 0.187238C21.7238 -0.0942147 22.0649 -0.0430414 22.372 0.238411C22.9946 0.801315 23.5745 1.42392 24.1289 2.06359C26.6364 4.97193 28.5725 8.20436 29.4936 11.9741C30.5341 16.2641 29.8774 20.3153 27.6343 24.0936C26.1673 26.5585 24.8795 29.0915 24.1545 31.8805C23.0799 35.9914 23.2163 40.0085 25.2291 43.8464C25.7579 44.8614 26.3976 45.7996 27.1993 46.6269C27.7452 47.1812 27.7196 47.5224 27.1055 48H26.6364H26.6108Z" fill="#013040"/>
<path d="M20.5212 15.1468C20.4871 17.2364 19.7195 19.1298 18.5766 20.8782C17.2973 22.8398 16.035 24.81 15.1224 26.9763C14.389 28.7162 13.8346 30.4902 13.9455 32.4177C14.0137 33.6203 14.406 34.7035 15.2077 35.6161C15.5745 36.034 15.6001 36.3922 15.3186 36.6992C15.0372 36.9977 14.7045 37.0063 14.2696 36.6992C12.6406 35.5819 11.2248 34.26 10.2269 32.5286C8.47847 29.4838 8.73434 26.4134 10.1416 23.3345C10.7045 22.0978 11.4721 20.972 12.2397 19.8547C13.5702 17.9272 14.7728 15.9229 15.6001 13.714C16.1544 12.2214 16.4956 10.6947 16.2227 9.0828C16.1715 8.7587 16.308 8.50283 16.6065 8.34931C16.8879 8.20432 17.1694 8.23844 17.3826 8.46019C19.1737 10.3195 20.4786 12.409 20.5042 15.1383L20.5212 15.1468ZM12.632 33.4071C12.5979 33.083 12.5723 32.8527 12.5553 32.6224C12.4273 30.7973 12.8282 29.0574 13.4593 27.3601C14.406 24.8271 15.7877 22.5328 17.2802 20.2982C18.1843 18.9507 18.8837 17.5093 19.0713 15.8718C19.276 14.1148 18.7643 12.554 17.7152 11.0444C17.5617 12.0935 17.3399 13.0317 17.0159 13.9442C16.1033 16.4944 14.7131 18.7801 13.1779 20.9891C12.4188 22.0808 11.7109 23.1981 11.2077 24.4347C10.3207 26.6096 10.0734 28.8015 11.0542 31.019C11.4295 31.8719 11.9327 32.6565 12.6406 33.39L12.632 33.4071Z" fill="#013040"/>
<path d="M30.5085 40.4434C30.5255 39.6417 30.5341 38.857 30.6791 38.0809C31.0884 35.8804 32.0352 33.9103 33.1695 32.0083C34.0138 30.6011 34.9691 29.2706 35.9755 27.9742C36.9989 26.6522 37.8433 25.245 38.1759 23.5818C38.5256 21.8249 38.1162 20.23 37.1781 18.6266C37.0501 19.1042 36.9648 19.4965 36.8454 19.8718C36.7004 20.3409 36.3849 20.537 35.9755 20.4432C35.5832 20.3494 35.3785 19.9912 35.4979 19.5221C35.7623 18.5327 35.9414 17.5434 35.8305 16.5199C35.7964 16.1958 35.9755 15.9485 36.2911 15.8376C36.6322 15.7097 36.8966 15.8462 37.1183 16.1106C40.0864 19.7012 40.6152 23.3345 38.0651 27.4369C37.2889 28.6821 36.3081 29.7908 35.4893 31.0019C34.1503 32.9892 32.9222 35.0275 32.274 37.3645C31.9669 38.4562 31.8305 39.5649 32.0181 40.6992C32.1546 41.5351 32.4787 42.2771 32.9904 42.9509C33.323 43.3944 33.3315 43.7526 33.016 44.034C32.7175 44.3069 32.3848 44.2899 31.9669 43.9573C30.4317 42.7462 29.1183 41.3304 28.2483 39.5564C26.8155 36.6566 27.0884 33.7909 28.4701 30.9508C29.1268 29.6117 29.9968 28.4092 30.9264 27.2578C32.1375 25.7652 33.2462 24.1959 34.1844 22.5157C34.3124 22.294 34.4488 22.0893 34.7217 22.0296C35.0032 21.9699 35.2505 22.0466 35.4296 22.2769C35.6514 22.5669 35.6002 22.8483 35.4296 23.1469C34.6535 24.5456 33.758 25.859 32.7942 27.1298C31.856 28.358 30.8326 29.5179 30.0735 30.8825C29.1183 32.6139 28.5127 34.422 28.743 36.4348C28.9136 37.9444 29.5277 39.2579 30.4914 40.4348L30.5085 40.4434Z" fill="#013040"/>
</svg>
