<svg width="48" height="48" viewBox="0 0 48 48" fill="none" xmlns="http://www.w3.org/2000/svg">
<path d="M1.82702 12.4129L22.2502 19.2467C22.816 19.4382 23.408 19.5253 24 19.5253C24.592 19.5253 25.184 19.4295 25.7498 19.2467L46.173 12.4129C46.6779 12.2474 47 11.7948 47 11.2637C47 10.7327 46.6779 10.2887 46.173 10.1146L25.7498 3.28075C24.6268 2.90642 23.3819 2.90642 22.2589 3.28075L1.82702 10.1146C1.3221 10.28 1 10.7327 1 11.2637C1 11.7948 1.3221 12.2387 1.82702 12.4129ZM22.6855 4.59529C23.5299 4.31671 24.4614 4.31671 25.3058 4.59529L45.2415 11.2637L25.3058 17.9322C24.4614 18.2107 23.5299 18.2107 22.6855 17.9322L2.74981 11.2637L22.6855 4.59529Z" fill="#013040"/>
<path d="M1.82705 18.3501L22.2502 25.1839C22.8161 25.3755 23.408 25.4625 24 25.4625C24.592 25.4625 25.184 25.3667 25.7498 25.1839L46.173 18.3501C46.6779 18.1847 47 17.732 47 17.201C47 16.6699 46.6779 16.2259 46.173 16.0518L42.4644 14.8069C42.1075 14.6851 41.7158 14.8766 41.5939 15.2422C41.472 15.6079 41.6635 15.9909 42.0292 16.1128L45.2502 17.1923L25.3146 23.8607C24.4701 24.1393 23.5386 24.1393 22.6942 23.8607L2.75854 17.1923L6.01441 16.1041C6.38004 15.9822 6.57156 15.5904 6.44968 15.2335C6.32781 14.8679 5.93606 14.6764 5.57913 14.7982L1.83575 16.0518C1.33083 16.2172 1.00873 16.6699 1.00873 17.201C1.00873 17.732 1.33083 18.176 1.83575 18.3501H1.82705Z" fill="#013040"/>
<path d="M1.82701 24.2958L22.2502 31.1297C22.816 31.3212 23.408 31.4083 24 31.4083C24.592 31.4083 25.1839 31.3125 25.7498 31.1297L46.173 24.2958C46.6779 24.1304 47 23.6778 47 23.1467C47 22.6157 46.6779 22.1717 46.173 21.9976L42.4644 20.7962C42.0988 20.6743 41.7157 20.8746 41.5939 21.2402C41.472 21.6058 41.6722 21.9889 42.0378 22.1108L45.2502 23.1554L25.3232 29.8239C24.4788 30.1024 23.5473 30.1024 22.7029 29.8239L2.78462 23.1641L6.02307 22.1282C6.3887 22.015 6.58893 21.6233 6.46705 21.2576C6.35388 20.892 5.96213 20.6918 5.5965 20.8136L1.85313 22.0063C1.85313 22.0063 1.85313 22.0063 1.84442 22.0063C1.3395 22.1717 1.0174 22.6244 1.0174 23.1554C1.0174 23.6865 1.3395 24.1304 1.84442 24.3046L1.82701 24.2958Z" fill="#013040"/>
<path d="M46.9129 28.6836C46.7911 28.3441 46.5299 28.0742 46.173 27.9436L42.4644 26.6204C42.1075 26.4898 41.707 26.6813 41.5852 27.0382C41.4546 27.3952 41.6461 27.7956 42.003 27.9175L45.2502 29.0753L25.3058 35.7438C24.4614 36.0223 23.5299 36.0223 22.6855 35.7438L2.74111 29.0753L6.02309 27.9088C6.38001 27.7782 6.57154 27.3865 6.44095 27.0295C6.31037 26.6726 5.91862 26.4811 5.5617 26.6117L1.82702 27.9349C1.46139 28.0568 1.20023 28.3267 1.07835 28.6749C1.03482 28.7706 1 28.8664 1 28.9796V36.7101C1 37.0061 1.19152 37.2759 1.4788 37.363L22.2502 44.1881C22.816 44.3797 23.408 44.4667 24 44.4667C24.592 44.4667 25.184 44.3709 25.7411 44.1881L46.5212 37.3543C46.8085 37.2585 47 36.9974 47 36.7014V28.9709C47 28.8577 46.9652 28.7619 46.9216 28.6662L46.9129 28.6836ZM25.2971 42.8997C24.4527 43.1783 23.5212 43.1783 22.6768 42.8997L2.37547 36.2226V30.4247L4.92619 31.2778V34.9951C4.92619 35.2737 5.15254 35.5 5.43111 35.5C5.70969 35.5 5.93603 35.2737 5.93603 34.9951V31.6174L8.90462 32.6098V36.4837C8.90462 36.7623 9.13096 36.9887 9.40954 36.9887C9.68812 36.9887 9.91446 36.7623 9.91446 36.4837V32.9493L12.883 33.9417V37.7373C12.883 38.0159 13.1094 38.2423 13.388 38.2423C13.6665 38.2423 13.8929 38.0159 13.8929 37.7373V34.2812L16.8615 35.2737V39.1041C16.8615 39.3827 17.0878 39.609 17.3664 39.609C17.645 39.609 17.8713 39.3827 17.8713 39.1041V35.6132L20.8399 36.6056V40.349C20.8399 40.6276 21.0662 40.8539 21.3448 40.8539C21.6234 40.8539 21.8497 40.6276 21.8497 40.349V36.9364L22.2154 37.0583C22.7812 37.2498 23.3732 37.3369 23.9652 37.3369C24.5572 37.3369 25.1491 37.2411 25.715 37.0583L26.1329 36.919V40.349C26.1329 40.6276 26.3592 40.8539 26.6378 40.8539C26.9164 40.8539 27.1427 40.6276 27.1427 40.349V36.5882L30.1113 35.5958V39.1041C30.1113 39.3827 30.3376 39.609 30.6162 39.609C30.8948 39.609 31.1211 39.3827 31.1211 39.1041V35.2563L34.0897 34.2638V37.7373C34.0897 38.0159 34.316 38.2423 34.5946 38.2423C34.8732 38.2423 35.0995 38.0159 35.0995 37.7373V33.9243L38.0681 32.9319V36.4837C38.0681 36.7623 38.2945 36.9887 38.5731 36.9887C38.8516 36.9887 39.078 36.7623 39.078 36.4837V32.5924L42.0466 31.5999V34.9951C42.0466 35.2737 42.2729 35.5 42.5515 35.5C42.8301 35.5 43.0564 35.2737 43.0564 34.9951V31.2604L45.5549 30.4247V36.2226L25.2449 42.8997H25.2971Z" fill="#013040"/>
<path d="M10.4368 10.28C10.0973 10.28 9.81873 10.5586 9.81873 10.8981C9.81873 11.2376 10.0973 11.5162 10.4368 11.5162C10.7763 11.5162 11.0549 11.2376 11.0549 10.8981C11.0549 10.5586 10.7763 10.28 10.4368 10.28Z" fill="#013040"/>
<path d="M24.0261 10.28C23.6866 10.28 23.408 10.5586 23.408 10.8981C23.408 11.2376 23.6866 11.5162 24.0261 11.5162C24.3656 11.5162 24.6442 11.2376 24.6442 10.8981C24.6442 10.5586 24.3656 10.28 24.0261 10.28Z" fill="#013040"/>
<path d="M37.6067 11.5162C37.9463 11.5162 38.2248 11.2376 38.2248 10.8981C38.2248 10.5586 37.9463 10.28 37.6067 10.28C37.2672 10.28 36.9886 10.5586 36.9886 10.8981C36.9886 11.2376 37.2672 11.5162 37.6067 11.5162Z" fill="#013040"/>
<path d="M17.2271 8.10364C16.8876 8.10364 16.609 8.38221 16.609 8.72173C16.609 9.06125 16.8876 9.33982 17.2271 9.33982C17.5666 9.33982 17.8452 9.06125 17.8452 8.72173C17.8452 8.38221 17.5666 8.10364 17.2271 8.10364Z" fill="#013040"/>
<path d="M30.7816 9.33982C31.1211 9.33982 31.3997 9.06125 31.3997 8.72173C31.3997 8.38221 31.1211 8.10364 30.7816 8.10364C30.4421 8.10364 30.1635 8.38221 30.1635 8.72173C30.1635 9.06125 30.4421 9.33982 30.7816 9.33982Z" fill="#013040"/>
<path d="M17.2271 13.6753C17.5685 13.6753 17.8452 13.3985 17.8452 13.0572C17.8452 12.7158 17.5685 12.4391 17.2271 12.4391C16.8857 12.4391 16.609 12.7158 16.609 13.0572C16.609 13.3985 16.8857 13.6753 17.2271 13.6753Z" fill="#013040"/>
<path d="M30.7816 13.6753C31.1211 13.6753 31.3997 13.3967 31.3997 13.0572C31.3997 12.7177 31.1211 12.4391 30.7816 12.4391C30.4421 12.4391 30.1635 12.7177 30.1635 13.0572C30.1635 13.3967 30.4421 13.6753 30.7816 13.6753Z" fill="#013040"/>
<path d="M24.0087 7.15476C24.3501 7.15476 24.6268 6.87803 24.6268 6.53667C24.6268 6.19531 24.3501 5.91858 24.0087 5.91858C23.6674 5.91858 23.3906 6.19531 23.3906 6.53667C23.3906 6.87803 23.6674 7.15476 24.0087 7.15476Z" fill="#013040"/>
<path d="M24.0087 15.8777C24.3501 15.8777 24.6268 15.6009 24.6268 15.2596C24.6268 14.9182 24.3501 14.6415 24.0087 14.6415C23.6674 14.6415 23.3906 14.9182 23.3906 15.2596C23.3906 15.6009 23.6674 15.8777 24.0087 15.8777Z" fill="#013040"/>
</svg>
