<svg width="48" height="48" viewBox="0 0 48 48" fill="none" xmlns="http://www.w3.org/2000/svg">
<g clip-path="url(#clip0_19289_10412)">
<path d="M24 0C10.7659 0 0 10.7667 0 24C0 37.1729 10.704 48 24 48C37.2341 48 48 37.2333 48 24C48 10.7404 37.2077 0 24 0ZM24 1.54839C29.9117 1.54839 35.2939 3.84929 39.3074 7.59716L16.1086 30.7966C15.3639 30.5063 14.6423 30.3159 13.9355 30.2392V29.6454C13.9355 29.2181 13.5894 28.8712 13.1613 28.8712C12.7332 28.8712 12.3871 29.2181 12.3871 29.6454V30.281C11.1639 30.5419 10.3215 31.423 10.1172 32.6803H9.70916C9.28103 32.6803 8.93497 33.0271 8.93497 33.4545C8.93497 33.8818 9.28103 34.2286 9.70916 34.2286H10.1605C10.2766 34.8449 10.5112 35.4612 10.8441 36.0612L7.59716 39.3081C3.84929 35.2939 1.54839 29.9117 1.54839 24C1.54839 11.6199 11.6206 1.54839 24 1.54839ZM11.9954 34.9107C10.9804 32.6392 11.8041 31.1071 14.8924 32.0137L11.9954 34.9107ZM24 46.4516C18.0883 46.4516 12.7061 44.1507 8.69265 40.4028L40.4028 8.69187C44.1507 12.7061 46.4516 18.0883 46.4516 24C46.4516 36.3801 36.3794 46.4516 24 46.4516Z" fill="#013040"/>
<path d="M7.19466 21.4352L7.84808 21.2958C8.06562 22.804 8.74459 24.4003 10.8388 24.7147V25.5485C10.8388 26.5727 12.3872 26.5735 12.3872 25.5485V24.7007C13.4664 24.5072 14.3165 23.9219 15.0218 23.1694L15.6279 23.6865C16.3944 24.3431 17.4171 23.1763 16.6321 22.509L15.9802 21.9531C16.3201 21.4514 16.6259 20.9335 16.9139 20.4458C17.3072 19.7784 17.6834 19.149 18.0674 18.6791L18.7263 19.3038C19.4633 20.0037 20.5356 18.8873 19.7923 18.1812L19.2767 17.692C19.8341 17.3676 20.5061 17.0556 21.2037 16.7335C21.8207 16.4486 22.4587 16.1529 23.0672 15.8254L23.5665 16.5183C24.1681 17.349 25.4207 16.4432 24.823 15.6125L24.3841 15.004C25.5098 14.1732 26.3227 13.1172 26.3227 11.613C26.3227 11.4001 26.3041 11.1957 26.2716 10.9991L27.0512 10.7776C28.0367 10.4982 27.614 9.0086 26.6277 9.28809L25.6894 9.55441C25.0127 8.55415 23.8808 7.87054 22.7258 7.45789L23.15 6.25789C23.2925 5.85454 23.0803 5.41248 22.6778 5.27002C22.2744 5.12602 21.8323 5.33893 21.6899 5.74228L21.2215 7.0677C20.829 7.00344 20.4558 6.96783 20.1291 6.96783C19.0901 6.96783 18.1317 7.10022 17.2414 7.32938L16.862 6.2308C16.5245 5.26073 15.0643 5.77093 15.398 6.73635L15.7727 7.82022C14.4945 8.35518 13.3921 9.10693 12.4483 9.97944L11.7678 9.31596C11.0339 8.6006 9.95388 9.7108 10.687 10.4254L11.3745 11.0958C10.4424 12.1851 9.71079 13.3751 9.15569 14.5209L8.0215 14.0842C7.06382 13.7172 6.51027 15.1611 7.46485 15.5289L8.54175 15.9438C7.99053 17.3993 7.74201 18.6582 7.74201 19.3549C7.74201 19.4734 7.74201 19.6011 7.74356 19.7343L6.87104 19.9201C5.87079 20.1338 6.19285 21.6504 7.19466 21.4352ZM24.7743 11.613C24.7743 13.3789 22.629 14.3691 20.5541 15.3268C17.3064 16.8272 16.9789 17.284 15.5792 19.6584C14.5456 21.4127 13.4772 23.2259 11.613 23.2259C10.0398 23.2259 9.2904 22.6468 9.2904 19.3549C9.2904 17.4419 12.1139 8.51622 20.1291 8.51622C21.4963 8.51622 24.7743 9.40731 24.7743 11.613Z" fill="#013040"/>
<path d="M31.3548 10.8387C32.849 10.8387 34.0645 9.62318 34.0645 8.12899C34.0645 6.6348 32.849 5.41931 31.3548 5.41931C29.8606 5.41931 28.6451 6.6348 28.6451 8.12899C28.6451 9.62318 29.8606 10.8387 31.3548 10.8387ZM31.3548 6.9677C31.9951 6.9677 32.5161 7.48873 32.5161 8.12899C32.5161 8.76925 31.9951 9.29028 31.3548 9.29028C30.7146 9.29028 30.1935 8.76925 30.1935 8.12899C30.1935 7.48873 30.7146 6.9677 31.3548 6.9677Z" fill="#013040"/>
<path d="M33.6774 36.3871C32.1832 36.3871 30.9677 37.6026 30.9677 39.0968C30.9677 40.591 32.1832 41.8064 33.6774 41.8064C35.1716 41.8064 36.3871 40.591 36.3871 39.0968C36.3871 37.6026 35.1716 36.3871 33.6774 36.3871ZM33.6774 40.2581C33.0371 40.2581 32.5161 39.737 32.5161 39.0968C32.5161 38.4565 33.0371 37.9355 33.6774 37.9355C34.3176 37.9355 34.8387 38.4565 34.8387 39.0968C34.8387 39.737 34.3176 40.2581 33.6774 40.2581Z" fill="#013040"/>
<path d="M40.258 17.0322C41.1132 17.0322 41.8064 16.339 41.8064 15.4838C41.8064 14.6287 41.1132 13.9354 40.258 13.9354C39.4029 13.9354 38.7097 14.6287 38.7097 15.4838C38.7097 16.339 39.4029 17.0322 40.258 17.0322Z" fill="#013040"/>
<path d="M22.0645 13.1613C22.7059 13.1613 23.2258 12.6414 23.2258 12C23.2258 11.3587 22.7059 10.8387 22.0645 10.8387C21.4231 10.8387 20.9032 11.3587 20.9032 12C20.9032 12.6414 21.4231 13.1613 22.0645 13.1613Z" fill="#013040"/>
<path d="M37.5484 30.1936C38.1897 30.1936 38.7097 29.6736 38.7097 29.0323C38.7097 28.3909 38.1897 27.871 37.5484 27.871C36.907 27.871 36.3871 28.3909 36.3871 29.0323C36.3871 29.6736 36.907 30.1936 37.5484 30.1936Z" fill="#013040"/>
<path d="M14.3226 14.7097C14.964 14.7097 15.4839 14.1897 15.4839 13.5484C15.4839 12.907 14.964 12.3871 14.3226 12.3871C13.6812 12.3871 13.1613 12.907 13.1613 13.5484C13.1613 14.1897 13.6812 14.7097 14.3226 14.7097Z" fill="#013040"/>
<path d="M11.2258 20.9033C11.8672 20.9033 12.3871 20.3833 12.3871 19.742C12.3871 19.1006 11.8672 18.5807 11.2258 18.5807C10.5844 18.5807 10.0645 19.1006 10.0645 19.742C10.0645 20.3833 10.5844 20.9033 11.2258 20.9033Z" fill="#013040"/>
<path d="M14.7097 18.5806C15.1373 18.5806 15.4839 18.234 15.4839 17.8064C15.4839 17.3788 15.1373 17.0322 14.7097 17.0322C14.2821 17.0322 13.9355 17.3788 13.9355 17.8064C13.9355 18.234 14.2821 18.5806 14.7097 18.5806Z" fill="#013040"/>
<path d="M17.8065 12.3871C18.2341 12.3871 18.5807 12.0405 18.5807 11.6129C18.5807 11.1854 18.2341 10.8387 17.8065 10.8387C17.3789 10.8387 17.0323 11.1854 17.0323 11.6129C17.0323 12.0405 17.3789 12.3871 17.8065 12.3871Z" fill="#013040"/>
<path d="M37.9355 25.5484C38.3631 25.5484 38.7097 25.2018 38.7097 24.7742C38.7097 24.3466 38.3631 24 37.9355 24C37.5079 24 37.1613 24.3466 37.1613 24.7742C37.1613 25.2018 37.5079 25.5484 37.9355 25.5484Z" fill="#013040"/>
<path d="M21.6774 38.7096C22.105 38.7096 22.4516 38.363 22.4516 37.9354C22.4516 37.5079 22.105 37.1613 21.6774 37.1613C21.2498 37.1613 20.9032 37.5079 20.9032 37.9354C20.9032 38.363 21.2498 38.7096 21.6774 38.7096Z" fill="#013040"/>
<path d="M17.0323 37.3548C17.5667 37.3548 18 36.9215 18 36.3871C18 35.8526 17.5667 35.4193 17.0323 35.4193C16.4978 35.4193 16.0645 35.8526 16.0645 36.3871C16.0645 36.9215 16.4978 37.3548 17.0323 37.3548Z" fill="#013040"/>
<path d="M33.5814 26.2583C33.1185 26.5254 32.9597 27.1177 33.2261 27.5806C33.4939 28.0428 34.0862 28.2023 34.5492 27.9345C35.0114 27.6674 35.1701 27.0743 34.903 26.6129C34.6359 26.1507 34.0436 25.992 33.5814 26.2583Z" fill="#013040"/>
<path d="M6.19353 30.1936C7.04868 30.1936 7.74192 29.5003 7.74192 28.6452C7.74192 27.79 7.04868 27.0968 6.19353 27.0968C5.33838 27.0968 4.64514 27.79 4.64514 28.6452C4.64514 29.5003 5.33838 30.1936 6.19353 30.1936Z" fill="#013040"/>
<path d="M44.1298 26.3226H42.5272C42.3855 25.1946 41.9396 24.1618 41.2738 23.3056L42.4095 22.1706C42.7122 21.8679 42.7122 21.3778 42.4095 21.0751C42.1068 20.7724 41.6175 20.7732 41.3148 21.0751L40.1783 22.2109C39.322 21.5451 38.2893 21.0991 37.1613 20.9575V19.3549C37.1613 18.9275 36.8152 18.5807 36.3871 18.5807C35.9589 18.5807 35.6129 18.9275 35.6129 19.3549V20.9567C34.4841 21.0984 33.4513 21.5443 32.5951 22.2101L31.4601 21.0751C31.1574 20.7724 30.6681 20.7724 30.3654 21.0751C30.0627 21.3778 30.0627 21.8671 30.3654 22.1698L31.5003 23.3048C30.8345 24.1611 30.3886 25.1938 30.2469 26.3226H28.6459C28.2178 26.3226 27.8717 26.6695 27.8717 27.0968C27.8717 27.5242 28.2178 27.871 28.6459 27.871H30.2477C30.3894 28.9998 30.8353 30.0326 31.5011 30.8888L30.3669 32.0238C29.633 32.7577 30.7478 33.8323 31.4616 33.1185L32.5958 31.9835C33.4521 32.6493 34.4849 33.0953 35.6129 33.2369V34.8388C35.6129 35.863 37.1613 35.8638 37.1613 34.8388V33.2369C38.29 33.0953 39.3228 32.6493 40.1791 31.9835L41.314 33.1193C42.0325 33.8377 43.1342 32.75 42.4087 32.0246L41.2738 30.8888C41.9396 30.0326 42.3855 28.9998 42.5272 27.871H44.1298C45.1525 27.871 45.1548 26.3226 44.1298 26.3226ZM36.3871 31.742C33.8253 31.742 31.7419 29.6586 31.7419 27.0968C31.7419 24.535 33.8253 22.4517 36.3871 22.4517C38.9489 22.4517 41.0322 24.535 41.0322 27.0968C41.0322 29.6586 38.9489 31.742 36.3871 31.742Z" fill="#013040"/>
<path d="M28.1891 36.5597L27.5078 36.6782C27.12 36.0735 26.4557 35.6369 25.6761 35.2916L25.8186 34.9254C26.1871 33.9716 24.7471 33.408 24.3747 34.3649L24.2222 34.7589C23.9295 34.6668 23.6361 34.5785 23.3473 34.4926C22.6583 34.2882 21.9654 34.0753 21.3778 33.8314L21.5605 33.5396C22.1047 32.6694 20.7894 31.8518 20.2482 32.7174L20.0361 33.0565C19.9726 33.0124 19.9192 32.9767 19.8542 32.9303C19.6475 32.7847 19.4291 32.6314 19.1992 32.4735C18.8462 32.2312 18.3638 32.3218 18.1223 32.6733C17.88 33.0255 17.9698 33.5078 18.322 33.7494C20.0036 34.9029 20.074 35.1336 22.9068 35.976C24.5853 36.4769 26.3226 36.9933 26.3226 37.9354C26.3226 39.346 24.4993 40.258 21.6774 40.258C19.0924 40.258 16.217 39.2322 14.1747 37.5809C13.841 37.3122 13.354 37.3641 13.0862 37.6962C12.8167 38.0284 12.8694 38.5161 13.2007 38.7847C13.5553 39.0712 13.9339 39.3336 14.3226 39.5837L14.2196 39.8361C13.8325 40.7845 15.2663 41.369 15.6534 40.4206L15.6828 40.3478C16.6831 40.8418 17.7445 41.218 18.8268 41.4642V42.1285C18.8268 43.1527 20.3752 43.1535 20.3752 42.1285V41.729C20.8111 41.7754 21.2462 41.8064 21.6774 41.8064C22.4624 41.8064 23.1546 41.7414 23.7724 41.6299L23.9736 42.0665C24.4026 42.9948 25.8108 42.3514 25.3796 41.4178L25.282 41.2072C27.0062 40.512 27.7579 39.3158 27.8555 38.1902L28.4547 38.0856C29.4573 37.9099 29.208 36.3902 28.1891 36.5597Z" fill="#013040"/>
</g>
<defs>
<clipPath id="clip0_19289_10412">
<rect width="48" height="48" fill="white"/>
</clipPath>
</defs>
</svg>
