<svg width="48" height="48" viewBox="0 0 48 48" fill="none" xmlns="http://www.w3.org/2000/svg">
<g clip-path="url(#clip0_19289_10486)">
<path d="M34.0372 27.2599H29.434C29.0362 27.2599 28.7141 26.9392 28.7141 26.543C28.7141 26.1469 29.0362 25.8262 29.434 25.8262H33.6217L36.0708 21.5999L33.6217 17.3729H28.7235L27.0906 20.1904C26.8919 20.5333 26.4517 20.6508 26.1074 20.453C25.763 20.2551 25.645 19.8168 25.8437 19.4739L27.6851 16.2972C27.8139 16.076 28.0513 15.9396 28.3084 15.9396H34.0381C34.2952 15.9396 34.533 16.0764 34.6618 16.298L37.5264 21.2419C37.6547 21.4635 37.6547 21.7368 37.5264 21.9584L34.6618 26.9015C34.5334 27.1235 34.2956 27.2599 34.0381 27.2599H34.0372Z" fill="#013040"/>
<path d="M34.0553 17.3631C33.9369 17.3631 33.8167 17.334 33.7056 17.2725C33.3584 17.08 33.2333 16.6433 33.4271 16.2976L34.9917 13.501C35.1851 13.1553 35.6236 13.0307 35.9708 13.2237C36.3181 13.4162 36.4431 13.8529 36.2494 14.1986L34.6848 16.9952C34.5531 17.2307 34.3079 17.3635 34.0553 17.3635V17.3631Z" fill="#013040"/>
<path d="M28.2921 17.3633C28.0395 17.3633 27.7943 17.2306 27.6626 16.995L26.0977 14.1984C25.9043 13.8527 26.0289 13.416 26.3762 13.2235C26.7234 13.031 27.162 13.1551 27.3553 13.5008L28.9203 16.2974C29.1137 16.6431 28.989 17.0798 28.6418 17.2723C28.5307 17.3338 28.4106 17.3633 28.2921 17.3633Z" fill="#013040"/>
<path d="M40.1341 22.3064H36.9206C36.5228 22.3064 36.2007 21.9857 36.2007 21.5895C36.2007 21.1934 36.5228 20.8727 36.9206 20.8727H40.1341C40.532 20.8727 40.8541 21.1934 40.8541 21.5895C40.8541 21.9857 40.532 22.3064 40.1341 22.3064Z" fill="#013040"/>
<path d="M35.6214 30.0565C35.3688 30.0565 35.1236 29.9238 34.9919 29.6883L33.4274 26.8917C33.234 26.5459 33.3587 26.1092 33.7059 25.9167C34.0531 25.7242 34.4917 25.8483 34.685 26.194L36.2496 28.9906C36.443 29.3364 36.3183 29.773 35.9711 29.9656C35.86 30.027 35.7399 30.0561 35.6214 30.0561V30.0565Z" fill="#013040"/>
<path d="M36.1425 32.0585C35.1538 32.0585 34.3495 31.2577 34.3495 30.2729C34.3495 29.2881 35.1538 28.4873 36.1425 28.4873C37.1311 28.4873 37.9354 29.2886 37.9354 30.2729C37.9354 31.2573 37.1311 32.0585 36.1425 32.0585ZM36.1425 29.921C35.9479 29.921 35.7895 30.0787 35.7895 30.2729C35.7895 30.4671 35.9479 30.6248 36.1425 30.6248C36.3371 30.6248 36.4954 30.4671 36.4954 30.2729C36.4954 30.0787 36.3371 29.921 36.1425 29.921Z" fill="#013040"/>
<path d="M41.207 23.3752C40.2184 23.3752 39.4141 22.5739 39.4141 21.5896C39.4141 20.6052 40.2184 19.804 41.207 19.804C42.1956 19.804 42.9999 20.6052 42.9999 21.5896C42.9999 22.5739 42.1956 23.3752 41.207 23.3752ZM41.207 21.2377C41.0124 21.2377 40.854 21.3954 40.854 21.5896C40.854 21.7837 41.0124 21.9414 41.207 21.9414C41.4016 21.9414 41.56 21.7837 41.56 21.5896C41.56 21.3954 41.4016 21.2377 41.207 21.2377Z" fill="#013040"/>
<path d="M36.1425 14.702C35.1538 14.702 34.3495 13.9007 34.3495 12.9163C34.3495 11.932 35.1538 11.1307 36.1425 11.1307C37.1311 11.1307 37.9354 11.932 37.9354 12.9163C37.9354 13.9007 37.1311 14.702 36.1425 14.702ZM36.1425 12.5645C35.9479 12.5645 35.7895 12.7222 35.7895 12.9163C35.7895 13.1105 35.9479 13.2682 36.1425 13.2682C36.3371 13.2682 36.4954 13.1105 36.4954 12.9163C36.4954 12.7222 36.3371 12.5645 36.1425 12.5645Z" fill="#013040"/>
<path d="M26.2043 14.7021C25.2157 14.7021 24.4114 13.9008 24.4114 12.9165C24.4114 11.9321 25.2157 11.1309 26.2043 11.1309C27.1929 11.1309 27.9972 11.9321 27.9972 12.9165C27.9972 13.9008 27.1929 14.7021 26.2043 14.7021ZM26.2043 12.5646C26.0097 12.5646 25.8513 12.7223 25.8513 12.9165C25.8513 13.1106 26.0097 13.2683 26.2043 13.2683C26.3989 13.2683 26.5573 13.1106 26.5573 12.9165C26.5573 12.7223 26.3989 12.5646 26.2043 12.5646Z" fill="#013040"/>
<path d="M29.1354 45.9998H6.04891C5.15657 45.9998 4.34487 45.5901 3.82238 44.8761C3.29578 44.1568 3.15385 43.2499 3.43237 42.388L12.3607 14.7489V7.06086C12.3607 6.66474 12.6828 6.34399 13.0807 6.34399C13.4785 6.34399 13.8006 6.66474 13.8006 7.06086V14.8616C13.8006 14.9361 13.7891 15.0103 13.7661 15.0812L4.80276 42.8271C4.667 43.2478 4.73365 43.687 4.98584 44.0319C5.23433 44.3715 5.62187 44.5665 6.04891 44.5665H29.1354C29.5624 44.5665 29.9496 44.3719 30.1985 44.0319C30.4507 43.6874 30.5173 43.2482 30.3816 42.8276L21.4182 15.0816C21.3952 15.0107 21.3837 14.9366 21.3837 14.862V7.06086C21.3837 6.66474 21.7058 6.34399 22.1036 6.34399C22.5015 6.34399 22.8236 6.66474 22.8236 7.06086V14.7489L31.752 42.388C32.0305 43.2499 31.8881 44.1568 31.3619 44.8761C30.839 45.5901 30.0277 45.9998 29.1354 45.9998Z" fill="#013040"/>
<path d="M22.9504 7.77745H12.2349C10.6349 7.77745 9.33325 6.48136 9.33325 4.88828C9.33325 3.2952 10.6349 1.99951 12.2349 1.99951H22.9508C24.5508 1.99951 25.8525 3.29561 25.8525 4.88869C25.8525 6.48177 24.5508 7.77786 22.9508 7.77786L22.9504 7.77745ZM12.2349 3.43324C11.429 3.43324 10.7732 4.08621 10.7732 4.88869C10.7732 5.69117 11.429 6.34413 12.2349 6.34413H22.9508C23.7568 6.34413 24.4125 5.69117 24.4125 4.88869C24.4125 4.08621 23.7568 3.43324 22.9508 3.43324H12.2349Z" fill="#013040"/>
<path d="M23.9415 21.2653H18.8841C18.4863 21.2653 18.1641 20.9445 18.1641 20.5484C18.1641 20.1523 18.4863 19.8315 18.8841 19.8315H23.9415C24.3393 19.8315 24.6615 20.1523 24.6615 20.5484C24.6615 20.9445 24.3393 21.2653 23.9415 21.2653Z" fill="#013040"/>
<path d="M25.7578 26.8887H18.8832C18.4853 26.8887 18.1632 26.5679 18.1632 26.1718C18.1632 25.7757 18.4853 25.455 18.8832 25.455H25.7578C26.1556 25.455 26.4777 25.7757 26.4777 26.1718C26.4777 26.5679 26.1556 26.8887 25.7578 26.8887Z" fill="#013040"/>
<path d="M27.5745 32.5121H18.8835C18.4857 32.5121 18.1636 32.1914 18.1636 31.7952C18.1636 31.3991 18.4857 31.0784 18.8835 31.0784H27.5745C27.9723 31.0784 28.2945 31.3991 28.2945 31.7952C28.2945 32.1914 27.9723 32.5121 27.5745 32.5121Z" fill="#013040"/>
<path d="M29.3909 38.1356H18.8835C18.4857 38.1356 18.1636 37.8149 18.1636 37.4188C18.1636 37.0227 18.4857 36.7019 18.8835 36.7019H29.3909C29.7887 36.7019 30.1108 37.0227 30.1108 37.4188C30.1108 37.8149 29.7887 38.1356 29.3909 38.1356Z" fill="#013040"/>
</g>
<defs>
<clipPath id="clip0_19289_10486">
<rect width="39.7073" height="44" fill="white" transform="translate(3.29272 2)"/>
</clipPath>
</defs>
</svg>
