<svg width="48" height="48" viewBox="0 0 48 48" fill="none" xmlns="http://www.w3.org/2000/svg">
<g clip-path="url(#clip0_19289_10375)">
<path d="M32.5357 18.3226C33.9926 18.3227 35.185 19.4999 35.1851 20.9584V22.3285H35.5347L35.6568 22.3392C36.2414 22.4198 36.6995 22.8984 36.7476 23.4828H36.7593L36.7613 23.5326C36.7808 24.0179 36.7857 24.5033 36.7759 24.9886L36.7613 25.475C36.734 26.1131 36.2019 26.651 35.5435 26.6781H35.5416C35.5378 26.6781 35.5287 26.6792 35.5181 26.683C35.5138 26.6846 35.5102 26.6866 35.5074 26.6879L35.5035 26.6898L35.4927 26.6947H35.1851V28.057C35.185 29.5066 34.0014 30.6917 32.5357 30.6918H24.8668L24.9234 30.6117L25.7115 29.5004L25.7271 29.4789H32.5357C33.3218 29.4788 33.9652 28.8381 33.9654 28.057V20.9584C33.9653 20.1772 33.3218 19.5366 32.5357 19.5365H26.814L26.8306 19.473L27.1158 18.3617L27.1255 18.3226H32.5357ZM23.15 18.3148L23.0933 18.3949L22.3052 19.5062L22.2896 19.5277H16.0357C15.2496 19.5277 14.6052 20.1685 14.605 20.9496V28.0482C14.6051 28.8294 15.2495 29.4701 16.0357 29.4701H21.1939L21.1783 29.5336L20.8922 30.6449L20.8824 30.684H16.0357C14.5787 30.684 13.3863 29.5068 13.3863 28.0482V20.9496C13.3865 19.5 14.5699 18.3148 16.0357 18.3148H23.15Z" fill="#013040" stroke="#013040" stroke-width="0.102218"/>
<path d="M27.2323 14.2522L25.0663 22.6995H29.3944L29.3378 22.7795L20.8671 34.7883L20.7753 34.7463L22.9413 26.2991H18.6132L18.6698 26.218L27.1405 14.2102L27.2323 14.2522Z" fill="#013040" stroke="#013040" stroke-width="0.102218"/>
<path d="M24.0041 0.397461C24.3631 0.397582 24.6516 0.684564 24.6516 1.04297V6.59863C24.6516 6.95704 24.3631 7.24402 24.0041 7.24414C23.645 7.24414 23.3557 6.95711 23.3557 6.59863V1.04297L23.3693 0.912109C23.4295 0.617133 23.6899 0.397461 24.0041 0.397461Z" fill="#013040" stroke="#013040" stroke-width="0.204437"/>
<path d="M19.0988 0.911377C19.3556 0.910014 19.5889 1.05983 19.6955 1.2981L19.7385 1.42505V1.42603L20.8996 6.86157V6.86255L20.9133 6.99243C20.915 7.29137 20.7093 7.55824 20.3976 7.62915L20.3859 7.6311H20.3752C20.3646 7.6311 20.3502 7.6327 20.3293 7.63501C20.3113 7.637 20.2858 7.63989 20.2619 7.63989C19.9635 7.63977 19.6967 7.43481 19.6252 7.13013V7.12817L18.465 1.69263H18.4641C18.3919 1.3442 18.6099 1.00716 18.966 0.926025L18.968 0.925049L19.0988 0.911377Z" fill="#013040" stroke="#013040" stroke-width="0.204437"/>
<path d="M14.2661 2.44238C14.5599 2.37879 14.8669 2.52268 14.9937 2.80957H14.9946L17.272 7.89258L17.313 8.01758C17.3771 8.31087 17.2314 8.61751 16.9429 8.74316L16.9419 8.74121C16.8561 8.78264 16.7656 8.79237 16.6851 8.79297V8.79395H16.6763V8.79297C16.4327 8.78958 16.2014 8.64891 16.0903 8.41797L16.0894 8.41504L13.812 3.33301L13.811 3.33203C13.6675 3.00554 13.8113 2.62603 14.1411 2.48242L14.2661 2.44238Z" fill="#013040" stroke="#013040" stroke-width="0.204437"/>
<path d="M9.8786 4.93494C10.152 4.81366 10.4891 4.89054 10.6706 5.14294L13.9528 9.63904L13.9538 9.64001L14.0182 9.75232C14.1402 10.0249 14.0621 10.361 13.8083 10.5414L13.8073 10.5404C13.6943 10.6218 13.5614 10.6635 13.4284 10.6635C13.2341 10.6634 13.0289 10.5718 12.904 10.3959V10.3969L9.62177 5.90076L9.62079 5.89978C9.41589 5.61411 9.47642 5.2055 9.7663 4.99939L9.8786 4.93494Z" fill="#013040" stroke="#013040" stroke-width="0.204437"/>
<path d="M6.08557 8.28613C6.29256 8.13215 6.57518 8.11765 6.79846 8.24609L6.90393 8.32227L6.90491 8.32324L11.0612 12.0439L11.151 12.1396C11.3313 12.3796 11.3193 12.7209 11.1139 12.9531L11.1149 12.9541C10.9892 13.0999 10.8036 13.1708 10.6305 13.1709C10.4779 13.1709 10.3226 13.1195 10.1979 13.0059V13.0068L6.04065 9.28516V9.28418C5.77314 9.0476 5.75324 8.63897 5.98889 8.37402L6.08557 8.28613Z" fill="#013040" stroke="#013040" stroke-width="0.204437"/>
<path d="M3.09937 12.3429C3.29839 12.1189 3.63871 12.0619 3.90698 12.213H3.90796L8.74976 14.9952H8.74878C9.05971 15.1705 9.16135 15.5702 8.98706 15.8761L8.98608 15.8781C8.86433 16.0799 8.64931 16.2032 8.42163 16.2032H8.31909V16.1847C8.24232 16.1724 8.16859 16.1479 8.10425 16.1124L8.10229 16.1115L3.26147 13.3292V13.3302C2.95061 13.155 2.84905 12.7552 3.02319 12.4493L3.09937 12.3429Z" fill="#013040" stroke="#013040" stroke-width="0.204437"/>
<path d="M1.01587 16.9395C1.1651 16.6802 1.47816 16.5509 1.77563 16.6494L1.77466 16.6504L7.09302 18.3633L7.09399 18.3643L7.21313 18.417C7.4365 18.544 7.56499 18.7908 7.53442 19.0459L7.50513 19.1738C7.41334 19.4477 7.1669 19.6229 6.88892 19.623H6.78638V19.6084C6.75602 19.6043 6.72416 19.5957 6.69263 19.582V19.583L1.37427 17.8691C1.03644 17.7571 0.84837 17.3982 0.962158 17.0586L1.01587 16.9395Z" fill="#013040" stroke="#013040" stroke-width="0.204437"/>
<path d="M0.613281 21.4183L0.612305 21.4193L6.17285 21.9955H6.17383L6.30273 22.0228C6.58964 22.115 6.78256 22.3933 6.74805 22.6996L6.74902 22.7006C6.71804 23.0293 6.43283 23.2703 6.11035 23.2748V23.2758H6.03906V23.2748L0.478516 22.6976H0.477539C0.120731 22.6571 -0.13926 22.3413 -0.0976562 21.9896C-0.0563819 21.6339 0.26132 21.3772 0.613281 21.4183Z" fill="#013040" stroke="#013040" stroke-width="0.204437"/>
<path d="M6.03809 25.7426C6.39681 25.7019 6.71798 25.9575 6.74902 26.3177H6.74805C6.78738 26.6747 6.53073 26.992 6.1709 27.0228L6.16992 27.0219L0.612305 27.599L0.601562 27.601V27.6H0.541016V27.599C0.215784 27.5949 -0.0569551 27.3515 -0.0976562 27.0277V27.0267C-0.133523 26.7134 0.0591968 26.4307 0.349609 26.3441L0.480469 26.3187L6.03809 25.7435V25.7426Z" fill="#013040" stroke="#013040" stroke-width="0.204437"/>
<path d="M6.68353 29.4154C7.02061 29.3037 7.39176 29.4849 7.49701 29.8246L7.52631 29.9525C7.56185 30.2504 7.38292 30.5435 7.08392 30.6342L7.0849 30.6351L1.76654 32.348L1.76752 32.349C1.73716 32.359 1.70491 32.3663 1.67279 32.3715V32.389H1.57123C1.32782 32.389 1.10853 32.2546 0.996033 32.0375L0.954041 31.9398C0.841273 31.6031 1.02498 31.2334 1.36615 31.1293L6.68353 29.4164V29.4154Z" fill="#013040" stroke="#013040" stroke-width="0.204437"/>
<path d="M8.21326 32.8345C8.49791 32.7419 8.82453 32.8526 8.97888 33.1235L9.03162 33.2417C9.12484 33.5255 9.01271 33.851 8.7406 34.0044L8.73962 34.0034L3.90076 36.7837L3.90173 36.7847C3.83031 36.8273 3.75471 36.8494 3.68298 36.8599V36.8774H3.58044C3.35536 36.8774 3.13912 36.7643 3.01599 36.5503H3.01501C2.84086 36.2446 2.94193 35.8449 3.25232 35.6694L8.09412 32.8872H8.09509L8.21326 32.8345Z" fill="#013040" stroke="#013040" stroke-width="0.204437"/>
<path d="M10.3053 35.9155C10.5655 35.7662 10.9062 35.81 11.1139 36.0435L11.1901 36.1499C11.3405 36.4091 11.2957 36.7468 11.0612 36.9536L11.0621 36.9546L6.90491 40.6763C6.78032 40.7895 6.62465 40.8403 6.47229 40.8403C6.2968 40.8402 6.1226 40.7676 5.99084 40.6265L5.98889 40.6245C5.75317 40.3591 5.77303 39.9497 6.04163 39.7134L10.1979 35.9927L10.1989 35.9917L10.3053 35.9155Z" fill="#013040" stroke="#013040" stroke-width="0.204437"/>
<path d="M12.9816 38.5049C13.203 38.303 13.5482 38.2798 13.799 38.458L13.8967 38.5439C14.0997 38.7642 14.1239 39.1084 13.9445 39.3584L13.9435 39.3594L10.6613 43.8555L10.6603 43.8545C10.5354 44.0301 10.3311 44.122 10.1369 44.1221C10.0037 44.1221 9.87021 44.0808 9.75702 43.999V44C9.46693 43.7939 9.4065 43.3844 9.61151 43.0986L9.61249 43.0977L12.8947 38.6016L12.9816 38.5049Z" fill="#013040" stroke="#013040" stroke-width="0.204437"/>
<path d="M16.0894 40.5924C16.2342 40.2643 16.6159 40.123 16.9429 40.2653L17.0571 40.3297C17.3037 40.5031 17.3977 40.8291 17.272 41.1149V41.1158L14.9946 46.1979L14.9937 46.1969C14.8906 46.4326 14.6575 46.5728 14.4067 46.5758V46.5768H14.3989V46.5758C14.3085 46.5746 14.2296 46.5553 14.1499 46.5289L14.1411 46.526C13.8111 46.3824 13.6674 46.002 13.811 45.6754H13.812L16.0894 40.5924Z" fill="#013040" stroke="#013040" stroke-width="0.204437"/>
<path d="M20.3947 41.3699C20.745 41.4416 20.9705 41.7888 20.8986 42.1365V42.1375L19.7385 47.573C19.6837 47.8427 19.4707 48.0317 19.2141 48.075L19.1008 48.0847H19.0871C19.0786 48.0846 19.066 48.0843 19.0529 48.0837C19.0309 48.0827 18.9958 48.0794 18.968 48.073V48.074C18.967 48.0738 18.966 48.0732 18.965 48.073H18.9641V48.072C18.6162 47.9984 18.3926 47.6536 18.4641 47.3074V47.3064L19.6252 41.8708L19.6642 41.7468C19.7843 41.4708 20.0899 41.3075 20.3947 41.3699Z" fill="#013040" stroke="#013040" stroke-width="0.204437"/>
<path d="M24.004 41.7559C24.363 41.756 24.6515 42.043 24.6515 42.4014V47.957C24.6515 48.3154 24.363 48.6024 24.004 48.6025C23.6449 48.6025 23.3556 48.3155 23.3556 47.957V42.4014C23.3556 42.0429 23.645 41.7559 24.004 41.7559Z" fill="#013040" stroke="#013040" stroke-width="0.204437"/>
<path d="M27.7431 41.3562C27.9998 41.3548 28.2332 41.5047 28.3398 41.7429L28.3828 41.8699V41.8708L29.5439 47.3064V47.3074L29.5576 47.4373C29.5592 47.7362 29.3535 48.0031 29.0419 48.074L29.0302 48.0759H29.0195C29.0089 48.0759 28.9945 48.0775 28.9736 48.0798C28.9556 48.0818 28.9301 48.0847 28.9062 48.0847C28.6078 48.0846 28.341 47.8796 28.2695 47.575V47.573L27.1093 42.1375H27.1083C27.0362 41.789 27.2542 41.452 27.6103 41.3708L27.6122 41.3699L27.7431 41.3562Z" fill="#013040" stroke="#013040" stroke-width="0.204437"/>
<path d="M31.1818 40.2252C31.4756 40.1616 31.7825 40.3055 31.9093 40.5924H31.9103L34.1876 45.6754L34.2286 45.8004C34.2927 46.0937 34.147 46.4003 33.8585 46.526L33.8575 46.524C33.7717 46.5655 33.6812 46.5752 33.6007 46.5758V46.5768H33.5919V46.5758C33.3483 46.5724 33.1171 46.4317 33.006 46.2008L33.005 46.1979L30.7277 41.1158L30.7267 41.1149C30.5832 40.7884 30.7269 40.4089 31.0568 40.2653L31.1818 40.2252Z" fill="#013040" stroke="#013040" stroke-width="0.204437"/>
<path d="M34.3207 38.3936C34.5941 38.2723 34.9313 38.3492 35.1127 38.6016L38.395 43.0977L38.3959 43.0986L38.4604 43.2109C38.5823 43.4835 38.5043 43.8197 38.2504 44L38.2495 43.999C38.1364 44.0804 38.0035 44.1221 37.8705 44.1221C37.6762 44.122 37.471 44.0304 37.3461 43.8545V43.8555L34.0639 39.3594L34.0629 39.3584C33.858 39.0727 33.9186 38.6641 34.2084 38.458L34.3207 38.3936Z" fill="#013040" stroke="#013040" stroke-width="0.204437"/>
<path d="M36.9897 35.9556C37.1967 35.8016 37.4794 35.7871 37.7026 35.9155L37.8081 35.9917L37.8091 35.9927L41.9653 39.7134L42.0552 39.8091C42.2354 40.049 42.2235 40.3904 42.0181 40.6226L42.019 40.6235C41.8934 40.7694 41.7077 40.8403 41.5347 40.8403C41.3821 40.8403 41.2267 40.7889 41.1021 40.6753V40.6763L36.9448 36.9546V36.9536C36.6773 36.717 36.6574 36.3084 36.8931 36.0435L36.9897 35.9556Z" fill="#013040" stroke="#013040" stroke-width="0.204437"/>
<path d="M39.1056 33.0253C39.3046 32.8013 39.6449 32.7443 39.9132 32.8954H39.9142L44.756 35.6776H44.755C45.0659 35.8528 45.1676 36.2526 44.9933 36.5585L44.9923 36.5604C44.8706 36.7622 44.6555 36.8856 44.4279 36.8856H44.3253V36.8671C44.2485 36.8548 44.1748 36.8303 44.1105 36.7948L44.1085 36.7938L39.2677 34.0116V34.0126C38.9568 33.8374 38.8553 33.4376 39.0294 33.1317L39.1056 33.0253Z" fill="#013040" stroke="#013040" stroke-width="0.204437"/>
<path d="M40.5642 29.7147C40.7134 29.4554 41.0265 29.3262 41.324 29.4247L41.323 29.4257L46.6414 31.1385L46.6423 31.1395L46.7615 31.1923C46.9848 31.3193 47.1133 31.5661 47.0828 31.8212L47.0535 31.9491C46.9617 32.223 46.7152 32.3982 46.4373 32.3983H46.3347V32.3837C46.3044 32.3795 46.2725 32.371 46.241 32.3573V32.3583L40.9226 30.6444C40.5848 30.5324 40.3967 30.1735 40.5105 29.8339L40.5642 29.7147Z" fill="#013040" stroke="#013040" stroke-width="0.204437"/>
<path d="M41.9626 25.7426L41.9617 25.7435L47.5222 26.3197H47.5232L47.6521 26.347C47.939 26.4392 48.1319 26.7176 48.0974 27.0238L48.0984 27.0248C48.0674 27.3535 47.7822 27.5945 47.4597 27.599V27.6H47.3884V27.599L41.8279 27.0219H41.8269C41.4701 26.9813 41.2101 26.6656 41.2517 26.3138C41.293 25.9581 41.6107 25.7014 41.9626 25.7426Z" fill="#013040" stroke="#013040" stroke-width="0.204437"/>
<path d="M47.3875 21.4183C47.7462 21.3777 48.0673 21.6333 48.0984 21.9935H48.0974C48.1367 22.3505 47.8801 22.6678 47.5203 22.6986L47.5193 22.6976L41.9617 23.2748L41.9509 23.2767V23.2758H41.8904V23.2748C41.6063 23.2712 41.3624 23.0856 41.2781 22.8226L41.2517 22.7035V22.7025C41.2158 22.3892 41.4086 22.1065 41.699 22.0199L41.8298 21.9945L47.3875 21.4193V21.4183Z" fill="#013040" stroke="#013040" stroke-width="0.204437"/>
<path d="M46.2316 16.6403C46.5687 16.5285 46.9399 16.7097 47.0451 17.0494L47.0744 17.1774C47.1099 17.4752 46.931 17.7684 46.632 17.859L46.633 17.86L41.3146 19.5729L41.3156 19.5739C41.2853 19.5839 41.253 19.5912 41.2209 19.5963V19.6139H41.1193C40.8759 19.6139 40.6566 19.4794 40.5441 19.2623L40.5021 19.1647C40.3894 18.8279 40.5731 18.4582 40.9142 18.3541L46.2316 16.6412V16.6403Z" fill="#013040" stroke="#013040" stroke-width="0.204437"/>
<path d="M44.2183 12.1521C44.5029 12.0595 44.8295 12.1703 44.9839 12.4412L45.0366 12.5593C45.1298 12.8431 45.0177 13.1687 44.7456 13.322L44.7446 13.321L39.9058 16.1013L39.9067 16.1023C39.8353 16.1449 39.7597 16.167 39.688 16.1775V16.1951H39.5854C39.3604 16.195 39.1441 16.082 39.021 15.8679H39.02C38.8459 15.5623 38.9469 15.1625 39.2573 14.9871L44.0991 12.2048H44.1001L44.2183 12.1521Z" fill="#013040" stroke="#013040" stroke-width="0.204437"/>
<path d="M41.2095 8.24609C41.4697 8.09673 41.8103 8.14062 42.0181 8.37402L42.0942 8.48047C42.2447 8.73963 42.1999 9.07733 41.9653 9.28418L41.9663 9.28516L37.8091 13.0068C37.6845 13.1201 37.5288 13.1709 37.3765 13.1709C37.201 13.1708 37.0268 13.0981 36.895 12.957L36.8931 12.9551C36.6573 12.6897 36.6772 12.2803 36.9458 12.0439L41.1021 8.32324L41.103 8.32227L41.2095 8.24609Z" fill="#013040" stroke="#013040" stroke-width="0.204437"/>
<path d="M37.4247 5.04626C37.6461 4.84436 37.9913 4.82121 38.2421 4.99939L38.3398 5.08533C38.5429 5.30555 38.567 5.64974 38.3876 5.89978L38.3867 5.90076L35.1044 10.3969L35.1035 10.3959C34.9785 10.5715 34.7742 10.6634 34.58 10.6635C34.4468 10.6635 34.3133 10.6221 34.2001 10.5404V10.5414C33.91 10.3353 33.8496 9.92576 34.0546 9.64001L34.0556 9.63904L37.3378 5.14294L37.4247 5.04626Z" fill="#013040" stroke="#013040" stroke-width="0.204437"/>
<path d="M33.005 2.80957C33.1499 2.48142 33.5315 2.34015 33.8585 2.48242L33.9728 2.54688C34.2193 2.72021 34.3133 3.04629 34.1876 3.33203V3.33301L31.9103 8.41504L31.9093 8.41406C31.8062 8.64971 31.5731 8.78995 31.3224 8.79297V8.79395H31.3146V8.79297C31.2242 8.79177 31.1452 8.77251 31.0656 8.74609L31.0568 8.74316C30.7268 8.59958 30.583 8.21915 30.7267 7.89258H30.7277L33.005 2.80957Z" fill="#013040" stroke="#013040" stroke-width="0.204437"/>
<path d="M29.039 0.926147L29.164 0.96521C29.4411 1.08438 29.6058 1.38836 29.5429 1.69275V1.69373L28.3828 7.12927C28.328 7.39896 28.1149 7.58795 27.8583 7.63123L27.7451 7.64099H27.7314C27.7229 7.64084 27.7103 7.64061 27.6972 7.64001C27.6752 7.63902 27.6401 7.63563 27.6122 7.62927V7.63025C27.6112 7.63004 27.6103 7.62948 27.6093 7.62927H27.6083V7.6283C27.2605 7.55466 27.0369 7.20989 27.1083 6.86365V6.86267L28.2695 1.42712L28.3085 1.3031C28.4286 1.02707 28.7342 0.863822 29.039 0.926147Z" fill="#013040" stroke="#013040" stroke-width="0.204437"/>
</g>
<defs>
<clipPath id="clip0_19289_10375">
<rect width="48" height="48" fill="white"/>
</clipPath>
</defs>
</svg>
