<svg width="128" height="128" viewBox="0 0 128 128" fill="none" xmlns="http://www.w3.org/2000/svg">
<g clip-path="url(#clip0_19685_5338)">
<path d="M127.608 65.3857L125.23 62.8261C124.733 62.2914 124.703 61.4729 125.16 60.9035L127.347 58.1738C127.855 57.5397 127.753 56.6133 127.119 56.105L124.394 53.9191C123.825 53.4623 123.676 52.6574 124.045 52.0273L125.812 49.0079C126.222 48.3065 125.987 47.405 125.286 46.9943L122.272 45.2286C121.642 44.8596 121.378 44.0847 121.651 43.4077L122.959 40.1631C123.263 39.4094 122.899 38.5518 122.146 38.2475L118.907 36.9397C118.23 36.6665 117.856 35.9384 118.028 35.2285L118.85 31.8281C119.041 31.0382 118.556 30.2427 117.767 30.0515L114.372 29.2294C113.663 29.0575 113.187 28.3915 113.253 27.6648L113.572 24.1807C113.646 23.3713 113.051 22.6549 112.242 22.5807L108.764 22.2618C108.037 22.1952 107.469 21.6057 107.429 20.8768L107.238 17.3835C107.193 16.572 106.5 15.9499 105.688 15.9945L102.201 16.1858C101.473 16.2256 100.825 15.7253 100.68 15.01L99.9818 11.5818C99.8198 10.7853 99.043 10.2711 98.2469 10.4335L94.8245 11.1309C94.1096 11.2764 93.3961 10.876 93.1477 10.1892L91.9584 6.8992C91.6823 6.13486 90.839 5.73916 90.075 6.01564L86.7909 7.20421C86.1048 7.45253 85.3405 7.15995 84.9952 6.51703L83.34 3.43515C82.9553 2.71909 82.0637 2.45065 81.348 2.83538L78.2716 4.48987C77.629 4.83547 76.8303 4.65737 76.3947 4.0715L74.3087 1.26391C73.8241 0.611474 72.9029 0.475794 72.2508 0.960732L69.448 3.04567C68.8625 3.48123 68.0462 3.42162 67.5305 2.90523L65.0583 0.431177C64.4838 -0.143726 63.5527 -0.143726 62.9781 0.431177L60.5085 2.90231C59.9924 3.4187 59.1765 3.47831 58.591 3.04274L55.7853 0.955246C55.1332 0.470309 54.212 0.605989 53.7274 1.25842L51.6435 4.06309C51.2083 4.64896 50.4096 4.82706 49.7667 4.48146L46.687 2.82514C45.9713 2.44041 45.0797 2.70885 44.695 3.42491L43.0416 6.50313C42.6964 7.14606 41.932 7.43863 41.2459 7.19031L37.9582 6.00028C37.1942 5.7238 36.3512 6.1195 36.0747 6.88384L34.8869 10.1701C34.6386 10.8566 33.9251 11.2574 33.2101 11.1119L29.7841 10.4137C28.9883 10.2513 28.2115 10.7655 28.0491 11.5621L27.3521 14.9866C27.2065 15.7019 26.5588 16.2026 25.8303 16.1624L22.3392 15.9707C21.5281 15.9261 20.8347 16.5482 20.7901 17.3597L20.5988 20.8494C20.5589 21.5782 19.991 22.1678 19.2643 22.2343L15.7823 22.5532C14.9734 22.6275 14.3776 23.3435 14.4519 24.1532L14.7704 27.6334C14.837 28.3604 14.3608 29.0264 13.6517 29.1979L10.2535 30.0208C9.46389 30.212 8.97895 31.0075 9.16986 31.7974L9.99125 35.1942C10.1628 35.9036 9.78865 36.6318 9.11207 36.9053L5.86965 38.2146C5.11628 38.5189 4.75203 39.3765 5.0563 40.1302L6.36337 43.3708C6.63656 44.0477 6.37214 44.8227 5.74275 45.1917L2.72561 46.9595C2.02453 47.3702 1.78901 48.2717 2.19934 48.9732L3.96391 51.9889C4.33255 52.619 4.18408 53.4239 3.61466 53.8807L0.886795 56.0691C0.253012 56.5775 0.151344 57.5038 0.659321 58.138L2.8441 60.8647C3.30051 61.4342 3.27052 62.2526 2.77388 62.7873L0.393446 65.3499C-0.159514 65.9452 -0.125502 66.8764 0.469515 67.43L3.02769 69.8094C3.56199 70.3064 3.65159 71.1205 3.23797 71.7217L1.2558 74.6039C0.795366 75.2735 0.964326 76.19 1.63358 76.6508L4.51066 78.6319C5.11153 79.0459 5.31852 79.838 4.99706 80.4934L3.45557 83.6334C3.09754 84.363 3.39815 85.2447 4.12702 85.6031L7.26156 87.1439C7.91656 87.4657 8.23655 88.2194 8.01347 88.9147L6.94522 92.246C6.6969 93.0198 7.12296 93.8485 7.89644 94.0972L11.2219 95.1651C11.9167 95.3882 12.3428 96.0871 12.2236 96.8075L11.6512 100.259C11.5185 101.061 12.0601 101.819 12.8614 101.952L16.3068 102.524C17.0265 102.644 17.5498 103.273 17.5367 104.003L17.4727 107.501C17.4577 108.314 18.1043 108.985 18.9165 108.999L22.4083 109.063C23.1379 109.076 23.7472 109.623 23.8401 110.347L24.2859 113.817C24.3894 114.623 25.1267 115.193 25.9324 115.089L29.3964 114.644C30.1202 114.551 30.8026 115.003 31.0001 115.705L31.9462 119.074C32.166 119.856 32.9782 120.312 33.7601 120.092L37.1221 119.146C37.8247 118.949 38.5656 119.296 38.8629 119.963L40.2889 123.158C40.6202 123.9 41.4899 124.233 42.2315 123.901L45.4202 122.476C46.0865 122.178 46.8699 122.414 47.2612 123.03L49.1369 125.983C49.5729 126.669 50.4817 126.872 51.1674 126.435L54.1147 124.561C54.7305 124.169 55.5399 124.288 56.0168 124.841L58.3021 127.489C58.8331 128.104 59.7617 128.172 60.3768 127.641L63.0202 125.356C63.5724 124.879 64.3905 124.879 64.9427 125.356L67.5891 127.643C68.2038 128.174 69.1327 128.106 69.6638 127.491L71.9465 124.846C72.4234 124.294 73.2331 124.175 73.8486 124.566L76.7992 126.443C77.4849 126.879 78.3937 126.676 78.8297 125.991L80.7032 123.041C81.0945 122.425 81.8782 122.189 82.5442 122.487L85.7365 123.914C86.4782 124.245 87.3479 123.912 87.6792 123.17L89.1037 119.98C89.4014 119.313 90.1423 118.965 90.8445 119.163L94.2105 120.109C94.9924 120.329 95.8046 119.873 96.0244 119.091L96.9694 115.727C97.1669 115.024 97.8494 114.572 98.5731 114.665L102.041 115.111C102.846 115.215 103.584 114.645 103.687 113.839L104.133 110.373C104.226 109.649 104.835 109.102 105.565 109.089L109.061 109.025C109.873 109.01 110.519 108.339 110.505 107.527L110.441 104.033C110.428 103.303 110.951 102.673 111.671 102.554L115.12 101.981C115.921 101.848 116.463 101.09 116.33 100.288L115.758 96.8408C115.639 96.1207 116.065 95.4215 116.76 95.1987L120.089 94.1297C120.863 93.8814 121.288 93.0527 121.04 92.2785L119.973 88.9509C119.75 88.2556 120.071 87.5023 120.725 87.1801L123.863 85.6375C124.593 85.2791 124.893 84.397 124.535 83.6678L122.995 80.531C122.673 79.8757 122.88 79.0835 123.481 78.6695L126.362 76.6863C127.031 76.2255 127.2 75.309 126.739 74.6394L124.759 71.7605C124.346 71.1592 124.435 70.3452 124.97 69.8481L127.531 67.4662C128.126 66.9129 128.16 65.9814 127.607 65.3861L127.608 65.3857Z" fill="#023141"/>
<path d="M106.408 72.2002L107.869 76.6952H112.595L108.771 79.4732L110.232 83.9678L106.408 81.1898L102.585 83.9678L104.045 79.4732L100.222 76.6952H104.948L106.408 72.2002Z" fill="white"/>
<path d="M22.1868 72L23.6475 76.495H28.3736L24.55 79.273L26.0103 83.7676L22.1868 80.9896L18.3632 83.7676L19.8235 79.273L16 76.495H20.7265L22.1868 72Z" fill="white"/>
<path d="M64.0029 98.6705C83.0922 98.6705 98.5672 83.1855 98.5672 64.0838C98.5672 44.9821 83.0922 29.4971 64.0029 29.4971C44.9135 29.4971 29.4385 44.9821 29.4385 64.0838C29.4385 83.1855 44.9135 98.6705 64.0029 98.6705Z" fill="white"/>
<path d="M64.0021 9.79923C67.6841 9.79923 71.3632 10.1704 74.937 10.9022C78.4189 11.615 81.8438 12.6792 85.117 14.0642C88.3309 15.4243 91.431 17.108 94.3308 19.0686C97.2038 21.0109 99.9054 23.2414 102.361 25.6983C104.816 28.1552 107.045 30.8589 108.986 33.7338C110.946 36.6357 112.629 39.7377 113.988 42.9542C115.372 46.2291 116.436 49.6566 117.148 53.1411C117.879 56.7174 118.25 60.3991 118.25 64.084C118.25 67.769 117.879 71.4502 117.148 75.0269C116.436 78.5115 115.372 81.9389 113.988 85.2139C112.629 88.43 110.946 91.5323 108.986 94.4343C107.046 97.3092 104.816 100.013 102.361 102.47C99.9054 104.927 97.2035 107.157 94.3308 109.099C91.4307 111.06 88.3309 112.744 85.117 114.104C81.8442 115.489 78.4193 116.553 74.937 117.266C71.3632 117.998 67.6841 118.369 64.0021 118.369C60.3201 118.369 56.641 117.998 53.0673 117.266C49.5853 116.553 46.1604 115.489 42.8872 114.104C39.6733 112.744 36.5732 111.06 33.6734 109.099C30.8004 107.157 28.0988 104.927 25.6434 102.47C23.188 100.013 20.959 97.3092 19.0178 94.4343C17.0587 91.5323 15.3756 88.4304 14.0163 85.2139C12.632 81.9386 11.5686 78.5115 10.8561 75.0269C10.1247 71.4506 9.75388 67.769 9.75388 64.084C9.75388 60.3991 10.1247 56.7178 10.8561 53.1411C11.5686 49.6566 12.632 46.2291 14.0163 42.9542C15.3756 39.7381 17.0583 36.6357 19.0178 33.7338C20.9586 30.8589 23.188 28.1555 25.6434 25.6983C28.0988 23.2414 30.8004 21.0106 33.6734 19.0686C36.5735 17.108 39.6733 15.4243 42.8872 14.0642C46.16 12.6789 49.5849 11.615 53.0673 10.9022C56.641 10.1704 60.3201 9.79923 64.0021 9.79923ZM64.0021 7.66602C32.8634 7.66602 7.6203 32.9252 7.6203 64.084C7.6203 95.2429 32.8634 120.502 64.0021 120.502C95.1409 120.502 120.384 95.2429 120.384 64.084C120.384 32.9252 95.1409 7.66602 64.0021 7.66602Z" fill="white"/>
<path d="M43.0335 74.6584H39.3636V57.2563H35.6436V54.264L43.0335 53.5088V74.6588V74.6584Z" fill="#023141"/>
<path d="M58.4898 66.4219C58.4898 69.2207 57.9346 71.344 56.8247 72.7915C55.7144 74.2394 54.2124 74.9631 52.3191 74.9631C50.4258 74.9631 48.8964 74.2394 47.782 72.7915C46.6677 71.344 46.1104 69.2207 46.1104 66.4219V61.759C46.1104 58.9701 46.6655 56.8471 47.7758 55.3894C48.8858 53.932 50.3918 53.2031 52.2938 53.2031C54.1959 53.2031 55.6935 53.932 56.8122 55.3894C57.931 56.8471 58.4901 58.9701 58.4901 61.759V66.4219H58.4898ZM54.8326 61.3187C54.8326 59.6452 54.6147 58.4186 54.1791 57.6396C53.7432 56.861 53.1149 56.4715 52.2938 56.4715C51.4728 56.4715 50.8361 56.8584 50.4086 57.6323C49.9814 58.4061 49.7675 59.6349 49.7675 61.3183V66.8183C49.7675 68.5214 49.9833 69.7597 50.4148 70.5336C50.8463 71.3074 51.4809 71.6947 52.3187 71.6947C53.1566 71.6947 53.764 71.3078 54.1915 70.5336C54.6187 69.7597 54.8326 68.5214 54.8326 66.8183V61.3183V61.3187Z" fill="#023141"/>
<path d="M73.2574 66.4219C73.2574 69.2207 72.7022 71.344 71.5923 72.7915C70.482 74.2394 68.98 74.9631 67.0867 74.9631C65.1934 74.9631 63.6639 74.2394 62.5496 72.7915C61.4353 71.344 60.8779 69.2207 60.8779 66.4219V61.759C60.8779 58.9701 61.4331 56.8471 62.5434 55.3894C63.6533 53.932 65.1593 53.2031 67.0614 53.2031C68.9635 53.2031 70.4611 53.932 71.5798 55.3894C72.6985 56.8471 73.2577 58.9701 73.2577 61.759V66.4219H73.2574ZM69.5998 61.3187C69.5998 59.6452 69.3819 58.4186 68.9463 57.6396C68.5108 56.861 67.8821 56.4715 67.0611 56.4715C66.24 56.4715 65.6033 56.8584 65.1758 57.6323C64.7487 58.4061 64.5347 59.6349 64.5347 61.3183V66.8183C64.5347 68.5214 64.7505 69.7597 65.182 70.5336C65.6136 71.3074 66.2481 71.6947 67.0859 71.6947C67.9238 71.6947 68.5312 71.3078 68.9588 70.5336C69.3859 69.7597 69.5995 68.5214 69.5995 66.8183V61.3183L69.5998 61.3187Z" fill="#023141"/>
<path d="M75.6455 57.5756C75.6455 56.3263 75.9951 55.2855 76.6951 54.4524C77.3947 53.6197 78.3686 53.2031 79.6172 53.2031C80.8657 53.2031 81.8627 53.6171 82.5582 54.4451C83.2535 55.2731 83.6013 56.3168 83.6013 57.5756V58.694C83.6013 59.9432 83.2535 60.9797 82.5582 61.8025C81.8627 62.6258 80.8909 63.0372 79.6424 63.0372C78.3939 63.0372 77.4053 62.6258 76.7013 61.8025C75.9973 60.9797 75.6455 59.9432 75.6455 58.694V57.5756ZM78.0837 58.694C78.0837 59.2557 78.2176 59.7278 78.486 60.1104C78.7541 60.4929 79.1395 60.6842 79.6424 60.6842C80.1453 60.6842 80.5033 60.4929 80.7673 60.1104C81.0314 59.7278 81.1634 59.2557 81.1634 58.694V57.5756C81.1634 57.0142 81.0292 56.537 80.7611 56.1449C80.4927 55.7529 80.1116 55.5565 79.6175 55.5565C79.1235 55.5565 78.7442 55.7525 78.4802 56.1449C78.2161 56.537 78.0841 57.0142 78.0841 57.5756V58.694H78.0837ZM80.2455 73.0746L78.4608 71.9851L87.3966 55.4545L89.1813 56.5439L80.2455 73.0746ZM84.393 69.4719C84.393 68.2325 84.7448 67.1964 85.4488 66.3634C86.1525 65.5306 87.1286 65.1141 88.3771 65.1141C89.6257 65.1141 90.612 65.5281 91.3116 66.356C92.0112 67.184 92.3612 68.2226 92.3612 69.4719V70.5903C92.3612 71.8494 92.0134 72.8903 91.3182 73.7135C90.6226 74.5367 89.6509 74.9481 88.4024 74.9481C87.1538 74.9481 86.1631 74.5341 85.4551 73.7062C84.747 72.8782 84.393 71.8396 84.393 70.5903V69.4719ZM86.8312 70.5903C86.8312 71.1421 86.9757 71.6143 87.265 72.0067C87.5539 72.3991 87.9331 72.5951 88.4024 72.5951C88.9469 72.5951 89.3364 72.4137 89.5712 72.0506C89.8056 71.6874 89.923 71.2007 89.923 70.5906V69.4723C89.923 68.9204 89.7888 68.4483 89.5207 68.0559C89.2523 67.6638 88.8712 67.4674 88.3771 67.4674C87.883 67.4674 87.491 67.6635 87.227 68.0559C86.9629 68.4483 86.8312 68.9201 86.8312 69.4723V70.5906V70.5903Z" fill="#023141"/>
<path d="M18.4361 63.0666C18.0651 63.1157 17.7812 63.2836 17.5843 63.5703C17.3874 63.857 17.2968 64.2403 17.3126 64.7201C17.3233 65.0462 17.3785 65.32 17.4781 65.5415C17.5747 65.7631 17.705 65.9313 17.8688 66.046C18.0326 66.1576 18.216 66.2101 18.4191 66.2034C18.5884 66.204 18.7349 66.1638 18.8585 66.0827C18.982 65.9986 19.0876 65.8858 19.1753 65.7444C19.26 65.603 19.3332 65.4405 19.3949 65.2568C19.4535 65.0732 19.5025 64.8776 19.5419 64.67L19.717 63.8143C19.7958 63.3991 19.9064 63.0167 20.0488 62.6672C20.1913 62.3176 20.3707 62.013 20.587 61.7534C20.8032 61.4938 21.0613 61.2898 21.3613 61.1413C21.6612 60.9898 22.0079 60.9061 22.4016 60.8901C22.9799 60.8742 23.4862 61.0053 23.9203 61.2836C24.3512 61.5589 24.6925 61.9665 24.9443 62.5063C25.1929 63.0432 25.3298 63.6961 25.3551 64.4651C25.3801 65.228 25.2851 65.8962 25.0699 66.4699C24.8546 67.0405 24.523 67.4917 24.0751 67.8236C23.624 68.1525 23.0588 68.3358 22.3795 68.3735L22.316 66.4403C22.6321 66.4083 22.8937 66.3089 23.1007 66.142C23.3045 65.9721 23.4558 65.75 23.5545 65.4758C23.6501 65.1986 23.6923 64.8877 23.6809 64.5432C23.6698 64.2049 23.611 63.9127 23.5043 63.6668C23.3976 63.4178 23.2543 63.227 23.0744 63.0943C22.8946 62.9617 22.6908 62.8991 22.4632 62.9065C22.2509 62.9135 22.0746 62.9824 21.9342 63.1133C21.7937 63.2411 21.6766 63.4266 21.583 63.6699C21.4892 63.9101 21.4065 64.2038 21.3348 64.551L21.1102 65.5884C20.9426 66.3915 20.6603 67.0305 20.2632 67.5054C19.8662 67.9804 19.3185 68.2278 18.6202 68.2476C18.0481 68.2695 17.5433 68.1337 17.1056 67.8401C16.6678 67.5435 16.3201 67.1284 16.0624 66.5949C15.8047 66.0614 15.6645 65.4502 15.6419 64.7612C15.6188 64.0598 15.7187 63.4438 15.9414 62.913C16.1641 62.3791 16.4844 61.959 16.9023 61.6527C17.3203 61.3465 17.8106 61.1795 18.3732 61.1518L18.4361 63.0666ZM20.728 50.6839L20.3598 52.6721C20.0959 52.6608 19.8537 52.6926 19.6332 52.7676C19.4097 52.842 19.2106 52.9538 19.0359 53.103C18.8611 53.2522 18.7146 53.4348 18.5964 53.6507C18.4787 53.8637 18.3952 54.1033 18.3459 54.3696C18.2568 54.8508 18.2987 55.2921 18.4716 55.6934C18.6415 56.0942 18.9352 56.435 19.3527 56.7158C19.7672 56.996 20.2967 57.1958 20.9413 57.3152C21.6041 57.4379 22.1791 57.4427 22.6664 57.3295C23.1543 57.2132 23.5463 56.9979 23.8424 56.6834C24.1386 56.3689 24.3301 55.9771 24.4169 55.5081C24.4657 55.2448 24.476 54.9947 24.4479 54.7579C24.4203 54.518 24.3562 54.298 24.2555 54.0978C24.1519 53.8971 24.0138 53.7213 23.8415 53.5704C23.6696 53.4165 23.4639 53.2939 23.2241 53.2026L23.6014 51.2161C24.0186 51.3465 24.4063 51.5514 24.7646 51.8306C25.1205 52.1062 25.4223 52.4453 25.6701 52.848C25.9155 53.2472 26.0849 53.7011 26.1785 54.2098C26.2696 54.715 26.26 55.2656 26.1496 55.8618C25.996 56.691 25.6711 57.3976 25.1748 57.9818C24.6791 58.5629 24.0406 58.9768 23.2594 59.2234C22.4787 59.4669 21.583 59.4951 20.5723 59.3079C19.5585 59.1202 18.7313 58.7698 18.0908 58.2568C17.4503 57.7438 17.0044 57.126 16.7532 56.4034C16.499 55.6802 16.4476 54.9101 16.5989 54.0931C16.6987 53.5544 16.8668 53.0691 17.1033 52.6371C17.3404 52.2021 17.6372 51.833 17.9939 51.5297C18.3475 51.2259 18.7538 51.0006 19.2129 50.854C19.6726 50.7044 20.1776 50.6477 20.728 50.6839ZM27.1175 50.9836L18.484 47.1299L19.2988 45.3046L22.8609 46.8946L24.5149 43.1891L20.9528 41.5991L21.7656 39.7779L30.3992 43.6316L29.5863 45.4527L26.0199 43.8608L24.3659 47.5663L27.9323 49.1582L27.1175 50.9836ZM28.2749 30.699L35.8002 36.4224L34.755 37.7967L27.5286 37.4683L27.4867 37.5234L32.2231 41.1258L31.013 42.7168L23.4877 36.9934L24.5496 35.5971L31.7528 35.9483L31.8031 35.8822L27.0704 32.2827L28.2749 30.699ZM36.5965 35.6547L30.4093 28.5058L35.2265 24.3367L36.305 25.5829L32.9993 28.4438L34.4736 30.1473L37.5314 27.5008L38.61 28.747L35.5521 31.3935L37.0294 33.1004L40.3491 30.2274L41.4276 31.4736L36.5965 35.6547ZM42.2987 30.9134L37.485 22.776L39.2054 21.7583L43.18 28.4771L46.6686 26.4135L47.5077 27.8319L42.2987 30.9134ZM48.2542 27.5583L44.947 18.701L46.8197 18.0018L49.5503 25.3151L53.3475 23.8973L53.924 25.4413L48.2542 27.5583ZM54.7076 25.3065L53.0479 15.9988L59.3197 14.8805L59.609 16.503L55.3051 17.2704L55.7006 19.4883L59.6818 18.7783L59.9711 20.4008L55.9899 21.1107L56.3862 23.3331L60.7082 22.5625L60.9976 24.185L54.7076 25.3065ZM62.0322 24.1613L62.197 14.7082L65.9265 14.7732C66.6404 14.7856 67.2475 14.9239 67.7477 15.1881C68.251 15.4493 68.631 15.8145 68.8875 16.2838C69.1472 16.75 69.2716 17.2955 69.2607 17.9202C69.2498 18.5479 69.105 19.0856 68.8263 19.5332C68.5477 19.9778 68.1493 20.3156 67.6312 20.5466C67.1162 20.7778 66.4956 20.887 65.7694 20.8743L63.2723 20.8308L63.3003 19.2245L65.4743 19.2624C65.8559 19.2691 66.1737 19.2223 66.4279 19.122C66.682 19.0218 66.8725 18.8682 66.9992 18.6611C67.129 18.454 67.1966 18.1951 67.2021 17.8843C67.2075 17.5704 67.1491 17.3047 67.0267 17.0871C66.9073 16.8695 66.7209 16.7031 66.4674 16.5879C66.2171 16.4697 65.8996 16.4072 65.515 16.4005L64.1671 16.377L64.0309 24.1961L62.0322 24.1613ZM67.2123 19.9483L69.4867 24.2912L67.2804 24.2527L65.0567 19.9108L67.2123 19.9483ZM76.87 16.3607L76.9379 23.8983L77.0218 23.9242L81.3258 17.7341L83.4434 18.3868L77.5439 26.4618L75.0822 25.7031L74.748 15.7066L76.87 16.3607ZM81.1607 27.7572L85.7807 19.5084L91.339 22.6215L90.5337 24.0594L86.7194 21.9231L85.6185 23.8886L89.1468 25.8648L88.3415 27.3027L84.8132 25.3265L83.71 27.2961L87.5404 29.4414L86.7351 30.8794L81.1607 27.7572ZM87.5505 31.5186L93.6813 24.3211L96.5209 26.7399C97.0644 27.2029 97.4455 27.6953 97.6641 28.217C97.887 28.7384 97.9486 29.2618 97.8487 29.7872C97.7532 30.3123 97.5029 30.8126 97.0977 31.2883C96.6906 31.7662 96.2373 32.0896 95.7377 32.2584C95.2402 32.4248 94.718 32.4328 94.171 32.2822C93.6265 32.1337 93.0777 31.8239 92.5248 31.353L90.6235 29.7335L91.6652 28.5105L93.3205 29.9204C93.611 30.1679 93.8863 30.3336 94.1462 30.4176C94.4062 30.5016 94.6509 30.5038 94.8803 30.4243C95.1121 30.3468 95.3288 30.1898 95.5303 29.9531C95.7339 29.7142 95.8575 29.4718 95.9011 29.2259C95.9471 28.9821 95.9088 28.7352 95.7862 28.4852C95.6679 28.2349 95.4623 27.985 95.1695 27.7355L94.1433 26.8614L89.0723 32.8147L87.5505 31.5186ZM94.2274 31.554L93.2262 36.3531L91.5464 34.9222L92.5862 30.156L94.2274 31.554ZM101.985 36.6912C102.255 36.4321 102.385 36.1288 102.374 35.7812C102.363 35.4335 102.21 35.0709 101.913 34.6934C101.712 34.4368 101.505 34.2487 101.294 34.129C101.085 34.0074 100.881 33.9489 100.681 33.9533C100.482 33.9602 100.303 34.0264 100.144 34.1518C100.007 34.2515 99.9125 34.3706 99.8608 34.5091C99.811 34.6499 99.7925 34.8033 99.8054 34.9693C99.8208 35.1333 99.8579 35.3077 99.9168 35.4923C99.9781 35.675 100.054 35.8617 100.145 36.0524L100.51 36.8459C100.692 37.2273 100.829 37.601 100.921 37.9671C101.013 38.3333 101.049 38.685 101.028 39.0222C101.007 39.3595 100.92 39.6766 100.765 39.9737C100.613 40.2733 100.383 40.5459 100.075 40.7916C99.6184 41.1466 99.1326 41.3402 98.618 41.3726C98.1077 41.4055 97.5914 41.2788 97.0691 40.9924C96.5511 40.7066 96.0545 40.2611 95.5793 39.656C95.1079 39.0557 94.7893 38.4607 94.6235 37.8708C94.4595 37.2834 94.46 36.7234 94.6249 36.1909C94.794 35.6589 95.1413 35.1768 95.6668 34.7446L96.8615 36.2658C96.6255 36.4786 96.4734 36.7134 96.4052 36.9705C96.3414 37.228 96.3507 37.4965 96.4333 37.7761C96.5202 38.0561 96.6701 38.3317 96.883 38.6028C97.0921 38.869 97.3123 39.0698 97.5438 39.205C97.7771 39.3426 98.0055 39.4118 98.229 39.4123C98.4525 39.4129 98.6538 39.3428 98.8329 39.2022C99 39.071 99.1014 38.9111 99.1372 38.7226C99.1749 38.5364 99.1596 38.3176 99.0912 38.066C99.0247 37.8169 98.9177 37.5312 98.7701 37.2088L98.3376 36.2395C97.9977 35.4928 97.8474 34.8106 97.8866 34.1928C97.9258 33.575 98.2211 33.0516 98.7725 32.6225C99.2208 32.2665 99.7082 32.0774 100.235 32.0552C100.763 32.0355 101.289 32.1645 101.812 32.4422C102.336 32.7199 102.81 33.1299 103.236 33.6721C103.67 34.2239 103.953 34.7797 104.088 35.3395C104.224 35.9016 104.214 36.4298 104.058 36.924C103.902 37.4181 103.606 37.8428 103.169 38.1979L101.985 36.6912ZM98.8812 44.4875L97.9466 42.5601L107.878 41.3718L109.002 43.6897L101.917 50.7474L100.982 48.82L106.512 43.5067L106.48 43.4402L98.8812 44.4875ZM102.167 42.7456L104.374 47.2983L102.97 47.9791L100.763 43.4264L102.167 42.7456ZM112.945 57.0082L103.717 59.0649L103.341 57.3796L108.255 52.0704L108.24 52.0028L102.432 53.2973L101.997 51.3462L111.225 49.2895L111.607 51.0018L106.691 56.2785L106.709 56.3596L112.512 55.0661L112.945 57.0082ZM103.744 63.5206L103.773 60.1691L113.227 60.2501L113.198 63.6292C113.19 64.5802 112.994 65.3972 112.609 66.0803C112.228 66.7633 111.683 67.2865 110.976 67.6498C110.268 68.0161 109.423 68.1951 108.441 68.1867C107.456 68.1783 106.612 67.9848 105.907 67.6064C105.202 67.231 104.664 66.6955 104.291 65.9998C103.918 65.3072 103.736 64.4808 103.744 63.5206ZM105.469 62.1827L105.458 63.4522C105.453 64.043 105.553 64.541 105.759 64.9459C105.968 65.354 106.293 65.6615 106.734 65.8684C107.179 66.0784 107.753 66.1864 108.458 66.1924C109.157 66.1984 109.728 66.1002 110.173 65.8978C110.618 65.6985 110.947 65.3981 111.16 64.9968C111.373 64.5954 111.481 64.0993 111.487 63.5084L111.497 62.2343L105.469 62.1827Z" fill="white"/>
<path d="M33.1034 92.8974C33.2464 92.6901 33.3496 92.479 33.4133 92.2639C33.4795 92.0467 33.5047 91.8266 33.4891 91.6037C33.478 91.3813 33.4259 91.1583 33.3326 90.9347C33.2413 90.7138 33.1074 90.4957 32.9309 90.2804C32.6009 89.8781 32.2108 89.6064 31.7608 89.4654C31.3129 89.327 30.8287 89.3298 30.3081 89.4739C29.7901 89.6159 29.2569 89.9118 28.7085 90.3616C28.1601 90.8114 27.7621 91.2773 27.5143 91.7591C27.2665 92.241 27.1665 92.7174 27.2142 93.1884C27.2645 93.6573 27.4599 94.0993 27.8004 94.5145C28.1094 94.8912 28.4398 95.1581 28.7917 95.3153C29.1482 95.473 29.5073 95.5214 29.8689 95.4606C30.2326 95.4023 30.5823 95.2355 30.918 94.9601L31.1455 95.3394L29.4807 93.3098L30.7338 92.2819L33.4359 95.5761L32.4442 96.3896C31.7523 96.9571 31.038 97.2987 30.3012 97.4144C29.567 97.5279 28.8552 97.4388 28.1657 97.147C27.4788 96.8531 26.8642 96.3755 26.3219 95.7144C25.7165 94.9764 25.3474 94.1946 25.2146 93.369C25.0844 92.5413 25.1922 91.7241 25.5379 90.9175C25.8884 90.1114 26.4787 89.3678 27.309 88.6867C27.9471 88.1633 28.5916 87.7889 29.2427 87.5636C29.8984 87.3386 30.5382 87.2511 31.1621 87.3009C31.7859 87.3508 32.3717 87.524 32.9194 87.8206C33.4671 88.1173 33.9543 88.5257 34.381 89.0459C34.7468 89.4918 35.0219 89.9605 35.2065 90.4521C35.3937 90.9416 35.4913 91.4317 35.4994 91.9223C35.5096 92.4155 35.4297 92.8904 35.2598 93.347C35.0925 93.8015 34.8361 94.2154 34.4907 94.5887L33.1034 92.8974ZM32.0925 101.6L30.268 100.188L39.2782 94.2857L41.4724 95.9832L38.0185 106.184L36.1939 104.773L38.9831 96.9991L38.9201 96.9504L32.0925 101.6ZM34.4273 98.3461L38.7371 101.68L37.7089 103.009L33.3991 99.6752L34.4273 98.3461ZM39.7326 107.269L44.0815 98.0628L47.7137 99.7786C48.4089 100.107 48.9436 100.512 49.3175 100.993C49.6959 101.472 49.9071 101.999 49.9511 102.573C49.9995 103.146 49.88 103.736 49.5926 104.345C49.3038 104.956 48.9235 105.42 48.4517 105.736C47.9813 106.048 47.4406 106.204 46.8298 106.201C46.2219 106.2 45.5643 106.032 44.857 105.698L42.4251 104.549L43.164 102.985L45.2813 103.985C45.6529 104.161 45.9857 104.255 46.2795 104.27C46.5734 104.284 46.8284 104.217 47.0445 104.07C47.2637 103.924 47.4447 103.7 47.5877 103.397C47.7321 103.092 47.7924 102.805 47.7686 102.537C47.7479 102.271 47.6386 102.025 47.4408 101.8C47.2474 101.573 46.9635 101.371 46.5888 101.194L45.2762 100.574L41.6791 108.189L39.7326 107.269ZM46.6835 105.428L46.9926 110.699L44.8438 109.684L44.5842 104.436L46.6835 105.428ZM50.5566 111.756L48.308 111.241L54.0077 102.101L56.7118 102.72L57.8596 113.429L55.6111 112.914L54.879 104.688L54.8014 104.67L50.5566 111.756ZM51.3097 107.823L56.621 109.039L56.2458 110.677L50.9345 109.461L51.3097 107.823ZM68.3771 103.496L68.3866 113.678L66.5272 113.68L62.0915 107.276L62.017 107.276L62.0229 113.684L59.8702 113.686L59.8607 103.504L61.7499 103.502L66.1508 109.902L66.2403 109.902L66.2343 103.498L68.3771 103.496ZM68.7826 105.358L68.4028 103.624L76.5713 101.835L76.9511 103.568L73.9062 104.235L75.7053 112.448L73.6267 112.903L71.8276 104.691L68.7826 105.358ZM79.211 100.906L82.8674 110.409L80.8583 111.182L77.2019 101.679L79.211 100.906ZM85.2478 109.357L80.2675 100.476L86.2515 97.1205L87.1197 98.6685L83.0132 100.971L84.1999 103.087L87.9985 100.957L88.8666 102.505L85.0681 104.636L86.2572 106.756L90.381 104.443L91.2492 105.991L85.2478 109.357ZM93.3443 104.618L86.7261 96.8808L89.7788 94.2697C90.3631 93.7699 90.9512 93.4479 91.5431 93.3036C92.1354 93.1547 92.7024 93.1778 93.2444 93.3728C93.7866 93.5632 94.2765 93.914 94.7138 94.4253C95.1533 94.9391 95.4205 95.476 95.5156 96.0358C95.6085 96.5931 95.5286 97.1499 95.2761 97.7061C95.026 98.2602 94.6037 98.7915 94.0093 99.2999L91.9654 101.048L90.8408 99.7334L92.6203 98.2113C92.9326 97.9442 93.1554 97.6795 93.2887 97.4172C93.422 97.1549 93.4658 96.895 93.42 96.6376C93.3768 96.378 93.2464 96.121 93.0288 95.8666C92.809 95.6097 92.5721 95.4372 92.318 95.3493C92.0665 95.2591 91.7974 95.2581 91.5108 95.3463C91.2246 95.4297 90.924 95.6061 90.6092 95.8754L89.506 96.819L94.9802 103.219L93.3443 104.618ZM94.5111 97.5231L99.4459 99.3994L97.64 100.944L92.7467 99.0322L94.5111 97.5231ZM93.9908 93.0845L92.5984 91.9839L97.7837 85.4235L99.1761 86.5241L97.2432 88.9696L103.839 94.1827L102.519 95.852L95.9237 90.639L93.9908 93.0845Z" fill="white"/>
</g>
<defs>
<clipPath id="clip0_19685_5338">
<rect width="128" height="128" fill="white"/>
</clipPath>
</defs>
</svg>
