<svg width="110" height="22" viewBox="0 0 110 22" fill="none" xmlns="http://www.w3.org/2000/svg">
<path d="M4.4542 0.347778V1.44691C4.17862 1.41326 3.92386 1.53663 3.879 1.82664L5.06145 14.6397L6.07566 5.47171C5.80328 4.32612 5.92985 2.84085 5.64305 1.73371C5.55013 1.3716 5.35145 1.44531 5.031 1.44851V0.347778H9.42752V1.36039C9.3362 1.48056 9.17277 1.43409 9.03818 1.49177C8.63282 1.66321 8.74497 2.17432 8.73215 2.5204L10.0075 13.8866L10.1229 13.2794L11.1675 2.5204C11.182 1.92918 11.0906 1.35558 10.3552 1.44691V0.347778H13.4796V1.44691C13.063 1.37801 12.8964 1.56708 12.789 1.942L10.7606 21.7552H7.92623L6.79826 12.0921L5.67029 21.7552L2.83114 21.7295L0.72581 1.73371C0.576803 1.31072 0.256357 1.54945 0 1.36039V0.434299L0.0865204 0.347778H4.4542Z" fill="white"/>
<path d="M21.0599 20.7121C21.406 20.6913 21.5934 20.6801 21.6703 20.31C21.6816 15.9343 21.7777 11.5265 21.6223 7.16046C21.5053 6.78874 21.4172 6.84963 21.0679 6.7599V5.76332L21.2041 5.66878L24.7867 5.38679C24.9918 5.43646 24.7723 5.90111 24.8155 6.04531L24.9341 6.82559C25.3747 5.48773 26.7606 5.22336 28.0152 5.45248C28.8547 5.60469 29.3755 6.08056 29.5052 6.94095L29.9427 6.252C30.6765 5.15126 33.3153 5.04391 33.9899 6.18791C34.4145 6.90891 34.2943 7.74527 34.3039 8.53037C34.3456 12.3869 34.2783 16.2467 34.3087 20.1033C34.3472 20.5263 34.4145 20.7169 34.8855 20.7121V21.7536H30.489V20.7121C30.8335 20.7201 30.9729 20.6288 31.0113 20.2795V8.18429C30.9473 7.71323 31.0194 7.42643 30.4618 7.4024C29.6687 7.37035 29.6078 7.85743 29.5613 8.53197C29.3018 12.302 29.7632 16.3653 29.5613 20.1658C29.619 20.7874 30.026 20.6737 30.026 20.7137V21.7552H25.7448V20.7137C26.171 20.7346 26.2367 20.4734 26.2671 20.1081C26.1037 16.2804 26.477 12.2828 26.2671 8.47429C26.2575 8.29003 26.2079 7.68439 26.1374 7.56262C26.0428 7.39919 25.8826 7.41041 25.716 7.404C24.5447 7.35753 24.9982 8.41501 24.8155 9.16966C24.9629 12.6769 24.6281 16.3316 24.8155 19.8197C24.8299 20.0744 24.8956 20.3404 24.9036 20.5984L25.2802 20.7137V21.7552H21.0567V20.7137L21.0599 20.7121Z" fill="white"/>
<path d="M65.6094 0.347778V1.44691C65.1175 1.43729 64.7666 1.35558 64.6881 1.9436C64.3613 4.41264 64.8051 7.29505 64.6224 9.81055L64.7122 10.0108H67.46V2.22719C67.46 2.18874 67.3831 1.80741 67.3639 1.74492C67.2421 1.34116 66.8063 1.45973 66.4762 1.44691V0.347778H71.6835V1.44691C71.2893 1.47895 70.884 1.29149 70.7718 1.77857C70.6532 7.94716 70.6532 14.1558 70.7718 20.3228C70.8311 20.7506 71.347 20.7201 71.6835 20.7121V21.7536H66.5627C66.5451 21.7536 66.5179 21.8273 66.4762 21.8113V20.7121C67.2966 20.7714 67.4023 20.491 67.4584 19.7572V11.2814H64.6817C64.7074 11.5073 64.6337 11.7204 64.6208 11.9447C64.4911 14.2199 64.5295 17.2 64.6801 19.4688C64.7314 20.2395 64.5295 20.7938 65.6062 20.7121V21.7536H60.3413V20.7121C60.8027 20.7265 61.3539 20.7538 61.3827 20.1626L61.3859 2.39703C61.3331 1.56227 61.2594 1.36359 60.3413 1.44531V0.347778H65.6062H65.6094Z" fill="white"/>
<path d="M103.911 0V6.88478C104.064 6.91523 104.001 6.85274 104.033 6.80147C104.475 6.06444 104.727 5.64786 105.643 5.46361C106.872 5.21846 108.551 5.43637 108.745 6.93926C108.938 11.3903 108.776 15.8749 108.829 20.3371C108.832 20.6752 109.128 20.7232 109.409 20.712V21.7535H104.954V20.712L105.345 20.6399L105.419 20.3387L105.39 7.69231C105.28 7.33821 104.687 7.34623 104.4 7.45998C103.796 7.69711 104.049 8.61679 103.91 9.11028C104.107 12.6768 103.655 16.5142 103.91 20.0503C103.935 20.4012 103.932 20.7633 104.374 20.7136V21.7551H100.209V20.7136C100.688 20.6592 100.75 20.579 100.789 20.108V2.16782C100.736 1.49007 100.622 1.37952 99.9186 1.44681V0.347684L103.911 0Z" fill="white"/>
<path d="M46.9212 6.88472L47.3025 6.25344C48.2174 4.98607 51.2952 4.99408 51.6285 6.77737C51.8496 11.1995 51.6605 15.6665 51.7246 20.1031C51.7631 20.5261 51.8304 20.7168 52.3014 20.712V21.7534H47.9049V20.712C48.2606 20.6943 48.3872 20.5694 48.4256 20.2201L48.4288 8.2418C48.5218 6.98566 46.8747 7.1587 46.9195 8.29948V20.454C46.9099 20.6815 47.1487 20.7184 47.3265 20.7104V21.7518H43.1607V20.7104C43.542 20.7072 43.6975 20.5998 43.7391 20.2185L43.6846 7.13947C43.5901 6.74692 43.2104 6.75013 42.8707 6.76615L42.8787 5.76155C42.9316 5.59973 43.3706 5.67824 43.5356 5.66542C44.6203 5.5805 45.7067 5.48276 46.7898 5.38823L46.9195 5.46354V6.88151L46.9212 6.88472Z" fill="white"/>
<path d="M88.5795 19.7586C88.5283 20.4187 88.3264 21.3096 87.732 21.6877C87.1375 22.0658 85.7244 22.0642 85.0883 21.8047C84.5131 21.5707 84.3657 21.0404 84.2407 20.4828L83.8273 21.1958C82.9942 22.2132 81.0747 22.2998 80.2608 21.1958C79.2898 19.8804 79.3747 16.1488 79.6984 14.5786C80.1646 12.3291 81.8566 11.8724 83.7985 11.2155L83.8946 11.0809C83.8193 9.95938 83.994 8.71605 83.893 7.61051C83.7712 6.26944 82.8724 6.56265 81.8694 6.77094L82.5151 7.65697C82.9733 8.38118 83.0727 9.57965 82.1578 9.98181C80.0749 10.8967 79.4773 7.81399 80.4226 6.56746C81.2686 5.4523 83.4925 5.25683 84.7742 5.45551C86.3893 5.70546 86.9805 6.68442 87.0782 8.24339C87.317 12.0679 86.894 16.1392 87.0782 19.9909L87.2064 20.329C87.8826 20.6382 87.5974 19.0456 87.6567 18.7188C87.6679 18.6547 87.6855 18.6098 87.7432 18.5746H88.5827V19.7602L88.5795 19.7586ZM83.893 12.0919C82.8804 12.422 82.6737 13.4234 82.6176 14.3751C82.5407 15.6809 82.5519 17.0669 82.6224 18.3679C82.6481 18.8453 82.4927 20.039 83.2313 20.0727C83.6078 20.0903 83.893 19.7762 83.893 19.4109V12.0919Z" fill="white"/>
<path d="M16.3624 5.39785C20.4529 5.15912 20.4865 9.17912 20.5955 12.1817C20.6772 14.428 20.8294 18.6868 19.5797 20.5918C18.3572 22.4584 14.9476 22.476 13.7331 20.6046C12.4033 18.5538 12.6036 13.7391 12.7269 11.3101C12.8599 8.71927 13.1051 5.58691 16.3608 5.39785H16.3624ZM16.4729 6.78218C16.0692 6.87351 16.0516 7.40384 15.9763 7.7307C16.0035 11.4062 15.7215 15.1586 15.909 18.8342C15.9266 19.1915 15.9859 19.991 16.1301 20.2906C16.2823 20.6062 16.7213 20.6735 17.0065 20.5069C17.3974 20.2794 17.3333 18.847 17.3542 18.424C17.5032 15.3701 17.5016 11.9942 17.3542 8.94038C17.3237 8.3043 17.5288 6.53864 16.4713 6.78058L16.4729 6.78218Z" fill="white"/>
<path d="M79.2641 13.2486H74.8676V16.8665C75.0935 17.9223 74.5567 20.3465 76.1093 20.4827C77.2917 20.5852 77.5897 20.2632 77.7019 19.1208L77.7612 16.663H78.8603C78.8155 17.9736 79.1071 20.4443 78.0207 21.4072C77.2373 22.1026 75.2777 22.0817 74.3164 21.8142C73.5281 21.5947 72.8776 20.9778 72.5251 20.2488C71.442 18.0105 71.5493 12.542 71.8666 10.0458C72.2175 7.28193 73.1596 4.92985 76.4522 5.44577C77.8477 5.66528 78.4277 6.42794 78.7978 7.72895C79.2929 9.46737 79.2096 11.4541 79.2657 13.2502L79.2641 13.2486ZM76.3128 12.0918V7.43414C76.3128 7.39088 76.1958 7.00314 76.1638 6.94706C75.9971 6.65866 75.3995 6.6859 75.2232 6.98071C75.0102 7.3364 74.9461 8.59896 74.9252 9.0556C74.882 10.065 74.9381 11.084 74.8676 12.0918H76.3144H76.3128Z" fill="white"/>
<path d="M42.7551 13.249H38.5316C38.5893 14.8432 38.4531 16.4919 38.5316 18.0797C38.5557 18.5604 38.6214 19.408 38.7928 19.8438C39.0716 20.5504 39.9096 20.568 40.5697 20.4671C41.2298 20.3661 41.3436 19.7477 41.4221 19.1789C41.5374 18.3489 41.4557 17.4981 41.4813 16.6634H42.6382C42.5885 18.2079 42.8705 21.1176 41.0487 21.7569C39.8695 22.1702 37.809 22.0949 36.8509 21.2057C35.1894 19.6627 35.3063 15.1733 35.3496 13.0503C35.4169 9.7914 35.4762 4.66907 40.1627 5.45577C41.632 5.70251 42.1591 6.74877 42.4363 8.09945C42.7775 9.75455 42.7199 11.5651 42.7519 13.2506L42.7551 13.249ZM39.9785 12.0922C39.9064 10.7031 40.0746 9.2178 39.9785 7.83988C39.932 7.18938 39.9224 6.58694 39.094 6.78081C38.6806 6.87694 38.615 8.04016 38.5877 8.41509C38.5557 8.86371 38.5429 9.3572 38.53 9.80422C38.5076 10.5653 38.5509 11.3311 38.5316 12.0922H39.9785Z" fill="white"/>
<path d="M93.5538 20.7122V21.7536H89.1573V20.7122L89.5483 20.6401L89.622 20.3372L89.5659 1.64243C89.4553 1.31077 89.0291 1.4822 88.752 1.44375V0.347825L92.7207 0.00334506C92.7687 -0.00947278 92.8601 0.0626276 92.8601 0.086661V20.4526C92.8601 20.6833 93.3808 20.749 93.5538 20.7122Z" fill="white"/>
<path d="M58.9559 5.55507H59.9397V10.2993H58.7252C58.5409 9.4533 58.6547 7.94079 58.1948 7.21338C57.735 6.48597 56.2545 6.56608 56.128 7.61554C55.8347 10.0349 58.0859 12.4415 59.1401 14.4843C60.1127 16.3669 61.1509 19.8518 59.1578 21.4075C58.0939 22.2375 55.6601 22.2647 54.875 21.0006C54.5834 20.9509 54.5417 21.5902 54.4136 21.7552H53.3433V16.7803H54.6154C54.7869 17.5958 54.702 20.0136 55.4871 20.4494C55.9357 20.6994 57.0012 20.6593 57.2479 20.137C57.8279 18.9129 56.9659 17.0174 56.3603 15.9311C55.471 14.3401 54.2998 12.8821 53.6878 11.1404C52.9988 9.17771 52.8674 6.16712 55.3797 5.53905C56.5542 5.24584 57.9128 5.3564 58.7524 6.30652L58.9543 5.55507H58.9559Z" fill="white"/>
<path d="M97.6047 1.44669V5.5548H99.5723V6.76929H97.6335L97.547 6.85582V19.7586C97.547 19.7906 97.6159 20.2104 97.6303 20.2537C97.7457 20.6238 98.4154 20.5004 98.4154 20.1623V16.6326L98.502 16.5461H99.5146V20.2777C99.5146 20.4507 99.2838 21.1061 99.1781 21.2727C98.6189 22.1635 96.8276 22.0642 95.94 21.8271C94.5589 21.4601 94.4659 20.3001 94.3618 19.0648L94.365 6.76769L93.6376 6.71322L93.612 5.5516C95.7926 5.77431 96.0538 2.99444 96.4479 1.44348H97.6047V1.44669Z" fill="white"/>
<path d="M53.6894 3.70608C52.5342 3.31193 51.4527 1.90838 52.5118 0.817257C53.1671 0.142719 54.1925 0.291726 54.8222 0.924607C56.6712 2.7848 54.2983 5.20416 52.688 6.18313L52.0151 5.52621L53.6365 3.90956L53.6894 3.70768V3.70608Z" fill="white"/>
</svg>
