<svg width="158" height="22" viewBox="0 0 158 22" fill="none" xmlns="http://www.w3.org/2000/svg">
<path d="M71.8322 16.4674C70.6578 16.4674 70.0576 15.5801 70.0576 13.8316C70.0576 12.8921 70.3186 11.3262 70.9188 9.96916C71.3886 8.89917 72.2498 7.5943 73.5546 7.5943C74.729 7.5943 75.3293 8.48161 75.3293 10.2301C75.3293 11.1696 75.0683 12.7355 74.468 14.0925C73.9722 15.1625 73.1371 16.4674 71.8322 16.4674ZM75.5641 15.0059C76.4514 13.9098 76.9734 12.4484 76.9734 11.013C76.9734 9.89086 76.6602 8.92526 76.0339 8.24674C75.4336 7.56821 74.5985 7.20284 73.6068 7.20284C72.8239 7.20284 72.0932 7.38553 71.4147 7.72479C70.7883 8.03796 70.2403 8.48161 69.7705 9.05575C68.8832 10.1518 68.3613 11.6133 68.3613 13.0486C68.3613 14.1708 68.6744 15.1364 69.3008 15.8149C69.901 16.4935 70.7361 16.8588 71.7278 16.8588C72.5107 16.8588 73.2415 16.6762 73.92 16.3369C74.5463 16.0237 75.0944 15.5801 75.5641 15.0059ZM85.0896 2.45315C84.6982 2.13998 84.1501 1.98339 83.4716 1.98339C82.5582 1.98339 81.7231 2.34876 81.0446 3.02729C80.2877 3.78411 79.7136 4.95848 79.3221 6.49822L79.1134 7.38553H76.9473L76.8168 7.77699H79.0612L77.0517 16.9893C76.4514 19.86 75.9817 20.3559 75.1205 20.3559C74.8334 20.3559 74.6246 20.3037 74.4941 20.1993C74.7029 20.0166 74.9378 19.7034 74.9378 19.3381C74.9378 18.8683 74.6246 18.3464 73.9461 18.3464C73.372 18.3464 72.9544 18.79 72.9544 19.3903C72.9544 19.7817 73.1371 20.121 73.4763 20.382C73.8417 20.6429 74.3376 20.7734 74.9639 20.7734C75.5119 20.7734 75.9817 20.6951 76.3731 20.5125C76.7907 20.3298 77.1561 20.0166 77.4692 19.573C78.1217 18.6856 78.6436 17.2503 79.1395 14.9015L80.6531 7.77699H82.9758L83.1062 7.41163H80.6792L81.1489 5.45433C81.4099 4.35825 81.7231 3.57533 82.1145 3.05338C82.4538 2.60973 82.8453 2.37485 83.315 2.37485C83.576 2.37485 83.8631 2.45314 83.9935 2.66192C83.8109 2.8707 83.6282 3.34045 83.6282 3.67972C83.6282 4.30605 84.0196 4.69751 84.6199 4.69751C85.2462 4.69751 85.6377 4.27995 85.6377 3.60142C85.6638 3.15777 85.4811 2.74022 85.0896 2.45315ZM45.7871 17.7983C45.7871 20.5386 47.0137 22 49.3625 22C51.111 22 52.5463 20.9561 53.7207 18.8161L53.7468 18.7639L53.3814 18.503L53.3553 18.5552C52.3897 20.121 51.4502 20.8517 50.4325 20.8517C49.1015 20.8517 48.423 19.9122 48.423 18.0332V7.35943H53.1988V6.57651H48.3969V1.04389L45.7871 2.24437V6.49822L42.7077 6.96797V7.38553H45.7871V17.7983ZM63.9508 12.5006H56.3565C56.6436 8.82088 58.105 6.81139 60.4538 6.81139C61.4455 6.81139 62.2545 7.12455 62.8287 7.72479C63.6899 8.6121 64.0552 10.2301 63.9508 12.5006ZM60.5582 21.9478C63.0896 21.9478 65.1513 20.6429 66.7954 17.981L66.8215 17.9288L66.4301 17.6679L66.404 17.72C64.9947 19.5469 63.6116 20.7734 61.4455 20.7734C58.2616 20.7734 56.2782 18.1898 56.2782 14.0403V14.0142C56.2782 13.675 56.2782 13.3618 56.3043 13.0225H66.7432V12.9703C66.8737 11.0391 66.2996 9.26453 65.1252 8.03796C64.003 6.83749 62.4372 6.21115 60.5843 6.21115C56.7219 6.21115 53.4858 9.89087 53.4858 14.2752C53.4858 18.7378 56.4609 21.9478 60.5582 21.9478ZM26.7622 13.5967V18.4508C26.162 19.2337 24.8832 20.5386 23.1869 20.5386C21.5428 20.5386 20.6294 19.5469 20.6294 17.7722C20.6294 15.5279 21.5689 14.5362 26.7622 13.5967ZM18.5416 9.70818C18.5416 10.5433 19.0374 11.4045 20.1335 11.4045C21.1252 11.4045 21.8037 10.726 21.8037 9.70818C21.8037 9.02966 21.3862 8.42942 20.6816 8.09016C21.2557 7.41163 22.3518 6.99407 23.6306 6.99407C25.8488 6.99407 26.7622 8.11625 26.7622 10.8565V13.0486C26.423 13.1269 26.0315 13.2052 25.5618 13.3096C23.8915 13.6489 21.595 14.0925 19.9247 15.0059C18.5677 15.7628 17.8631 16.8849 17.8631 18.3464C17.8631 20.0949 19.1157 21.8434 21.882 21.8434C23.6306 21.8434 25.2747 20.9561 26.8666 19.1554H26.8927C26.9449 20.7473 27.7539 21.6346 29.3459 21.8173C29.5807 21.8434 29.8156 21.8434 30.0244 21.8434C31.538 21.8434 32.6602 21.2954 33.4953 20.7995C34.6697 21.5042 36.2616 21.9478 37.5665 21.9478C40.5416 21.9478 42.7077 19.8861 42.7077 17.0676C42.7077 14.7972 41.4028 13.5445 38.0363 12.5528C35.0612 11.7177 34.0173 10.9087 34.0173 9.47331C34.0173 7.90747 35.2699 6.81139 37.0446 6.81139C38.9236 6.81139 39.7587 7.62041 41.6116 11.0652L41.6377 11.0913H42.003V6.21115H41.6638L40.8287 7.12456C39.7848 6.55042 38.506 6.21115 37.4099 6.21115C34.487 6.21115 32.1905 8.24674 32.1905 10.8565C32.1905 13.3096 33.8607 14.223 36.9663 15.1103C40.385 16.102 40.9852 17.0154 40.9852 18.5291C40.9852 19.8861 39.9935 21.3476 37.8275 21.3476C35.3482 21.3476 34.4609 20.3037 32.4775 16.4935L32.4514 16.4674H32.0861V19.1293C32.0339 20.3037 31.6424 20.93 30.8856 21.0605C30.3636 21.1127 29.9722 20.93 29.7373 20.4603C29.5285 20.0949 29.4502 19.5469 29.4502 18.8683V10.726C29.4502 7.80308 27.6495 6.34164 24.0742 6.34164C20.9425 6.36773 18.5416 7.82918 18.5416 9.70818ZM1.23909 6.36774L1.26519 6.31554C3.14419 2.06168 4.47515 0.678531 6.77171 0.678531H9.32925V18.9988C9.32925 20.5386 8.70291 21.1127 5.25807 21.191H5.20588V21.6085H16.4016V21.2171H16.3494C12.8785 21.1127 12.2782 20.5647 12.2782 19.0249V0.704625H14.8358C17.1323 0.704625 18.4633 2.06169 20.3423 6.34164L20.3684 6.39384L20.4206 6.36774C20.5772 6.31554 20.7338 6.26335 20.8903 6.21115H20.9425L20.7338 0.0782926H0.821535L0.638855 6.15895H0.691049C0.847632 6.21115 1.00422 6.26334 1.1608 6.31554L1.23909 6.36774ZM106.568 0.495851H106.62V0H96.8856V0.495851H96.9378C99.7824 0.574142 100.096 1.25267 100.096 2.63583V10.0475H89.9437V2.63583C89.9437 1.25267 90.2569 0.60024 93.1276 0.495851H93.1798V0H83.4194V0.495851H83.4716C86.3162 0.60024 86.8903 1.40925 86.8903 2.63583V18.9727C86.8903 20.2254 86.3162 21.0083 83.4716 21.1127H83.4194V21.6346H93.1798V21.1127H93.1276C90.2569 21.0344 89.9437 20.382 89.9437 18.9727V10.8043H100.096V18.9727C100.096 20.382 99.8085 21.0083 96.9378 21.1127H96.8856V21.6346H106.62V21.1127H106.568C103.723 21.0083 103.149 20.2254 103.149 18.9727V2.63583C103.149 1.40925 103.723 0.60024 106.568 0.495851ZM150.855 6.81139C151.846 6.81139 152.655 7.12455 153.23 7.72479C154.091 8.63819 154.456 10.2301 154.352 12.5006H146.757C147.071 8.82088 148.532 6.81139 150.855 6.81139ZM156.857 17.694L156.831 17.7461C155.422 19.573 154.039 20.7995 151.873 20.7995C148.689 20.7995 146.705 18.2159 146.705 14.0664V14.0403C146.705 13.7011 146.705 13.3879 146.731 13.0486H157.17V12.9964C157.301 11.0652 156.727 9.29063 155.552 8.06406C154.43 6.88968 152.864 6.23725 151.011 6.23725C147.149 6.23725 143.913 9.91696 143.913 14.3013C143.913 18.7378 146.888 21.9739 150.985 21.9739C153.517 21.9739 155.578 20.669 157.223 18.0071L157.249 17.9549L156.857 17.694ZM112.283 21.1388C109.334 21.1388 107.925 18.79 107.925 13.9881C107.925 9.05575 109.177 6.86358 111.996 6.86358C114.945 6.86358 116.354 9.18624 116.354 13.9881C116.354 18.8683 115.049 21.1388 112.283 21.1388ZM112.153 6.15895C110.247 6.15895 108.368 6.96797 106.959 8.37722C105.472 9.86477 104.663 11.8743 104.663 14.0403C104.663 18.4769 107.899 21.8434 112.179 21.8434C115.78 21.8434 119.642 18.8161 119.642 13.9098C119.616 9.5777 116.328 6.15895 112.153 6.15895ZM142.634 19.8339V10.7521C142.634 7.90747 141.225 6.26335 138.746 6.26335C136.684 6.26335 134.701 7.46382 133.265 9.5777C132.926 7.43772 131.595 6.26335 129.455 6.26335C127.263 6.26335 125.488 7.46382 124.001 9.91697V6.34164L118.807 6.47212V6.99407H118.86C120.921 7.02017 121.208 7.82919 121.208 8.6121V19.8339C121.208 20.9039 120.739 21.0605 118.86 21.0866H118.807V21.6085H125.932V21.0866H125.88C124.262 21.0605 124.079 20.9039 124.079 19.8339V10.9869C125.071 8.87307 126.323 7.77699 127.785 7.77699C129.638 7.77699 130.473 9.00356 130.473 11.7177V19.8078C130.473 20.8517 130.16 21.0344 128.437 21.0605H128.385V21.5824H135.744V21.0605H135.692C133.709 21.0344 133.343 20.8517 133.343 19.8078V10.5172C134.309 8.79478 135.692 7.77699 137.049 7.77699C138.902 7.77699 139.737 9.00356 139.737 11.7177V19.8078C139.737 20.8778 139.529 21.0344 137.884 21.0605H137.832V21.5824H145.009V21.0605H144.957C142.973 21.0605 142.634 20.8517 142.634 19.8339ZM155.604 21.1388C155.604 20.6951 155.97 20.3037 156.44 20.3037C156.909 20.3037 157.275 20.669 157.275 21.1127C157.275 21.5563 156.909 21.9478 156.44 21.9478C155.97 21.9478 155.604 21.5824 155.604 21.1388ZM157.144 21.1388C157.144 20.7212 156.831 20.4081 156.413 20.4081C155.996 20.4081 155.683 20.7473 155.683 21.1388C155.683 21.5303 155.996 21.8695 156.413 21.8695C156.831 21.8695 157.144 21.5303 157.144 21.1388ZM156.074 20.669H156.466C156.596 20.669 156.674 20.6951 156.727 20.7734C156.779 20.8256 156.805 20.8778 156.805 20.9561C156.805 21.0866 156.727 21.191 156.622 21.2171L156.831 21.5303H156.596L156.413 21.2432H156.257V21.5303H156.074V20.669ZM156.466 21.0866C156.57 21.0866 156.622 21.0344 156.622 20.9561C156.622 20.8778 156.57 20.8256 156.466 20.8256H156.283V21.0866H156.466Z" fill="white"/>
</svg>
