<svg width="116" height="24" viewBox="0 0 116 24" fill="none" xmlns="http://www.w3.org/2000/svg">
<path d="M46.0521 4.87041C46.2439 7.81775 44.7862 10.8235 41.6729 11.3779C37.0756 12.1964 33.5827 8.07176 35.1596 3.67293C36.7364 -0.725892 43.4234 -1.19561 45.5292 3.05605C45.1536 3.19717 43.7827 4.32006 43.5122 4.14668C41.4649 0.463524 36.0156 2.93509 37.2977 6.87226C38.2184 9.69864 42.428 10.0917 43.3789 7.14038H40.0375V4.87041H46.0541H46.0521Z" fill="white"/>
<path d="M113.301 19.6881H109.96V17.4181H115.976C116.321 21.7847 112.867 25.0848 108.492 23.6233C103.818 22.0609 103.414 15.3336 107.769 13.1645C110.474 11.8178 113.987 12.8258 115.429 15.4667L113.501 16.7488C111.54 12.9225 105.895 15.3498 107.22 19.42C108.122 22.1939 112.36 22.5911 113.301 19.6881Z" fill="white"/>
<path d="M96.2554 12.7469C96.6249 12.8639 99.7685 18.4138 100.429 19.2524C100.513 19.3613 100.423 19.4964 100.736 19.4218V12.7469H103.009V23.8267H100.669C99.0739 21.6797 97.8625 19.2605 96.3543 17.0591C96.2715 16.9381 96.3765 16.8152 96.0555 16.8857V23.8267H93.7821V12.7469H96.2554Z" fill="white"/>
<path d="M3.40304 12.7469V17.1518H7.14627V12.7469H9.55293V23.8267H7.14627V19.4218H3.40304V23.8267H0.594604V12.7469H3.40304Z" fill="white"/>
<path d="M52.1678 0.0987083C59.5433 -0.838713 61.0454 10.3176 53.8557 11.3941C46.129 12.5513 44.8712 1.02605 52.1678 0.0987083ZM52.711 2.36465C49.0061 2.5602 48.3963 8.03151 52.0083 9.00119C57.1023 10.368 57.8735 2.09249 52.711 2.36465Z" fill="white"/>
<path d="M15.941 12.6499C23.2841 11.7548 24.8711 21.9959 18.3477 23.7296C10.3867 25.8444 8.41418 13.5672 15.941 12.6499ZM16.3388 14.9179C12.8479 15.4017 12.4037 20.5142 15.834 21.4939C21.1702 23.016 21.6225 14.1881 16.3388 14.9179Z" fill="white"/>
<path d="M69.5352 1.71355C74.9017 7.07802 66.6843 15.0451 61.4874 9.81569C56.2905 4.58629 64.2575 -3.56221 69.5352 1.71355ZM64.5987 2.49776C60.9302 3.24165 61.5762 9.83988 66.1412 9.11011C70.3286 8.43879 69.5331 1.49784 64.5987 2.49776Z" fill="white"/>
<path d="M72.9257 11.4124V0.197632H76.6023C78.2619 0.197632 80.4747 1.57252 81.2379 3.04417C83.2529 6.92892 80.3899 11.4104 76.0672 11.4104H72.9257V11.4124ZM75.197 9.14244C80.8543 9.71498 81.0158 1.71565 75.197 2.4676V9.14244Z" fill="white"/>
<path d="M54.4735 12.747V16.6177C54.6976 16.666 54.7441 16.5471 54.8713 16.414C55.802 15.4605 56.6076 14.0957 57.5505 13.0756C57.6333 12.9849 57.6737 12.866 57.6817 12.745H60.6234L57.1689 17.1055L60.8899 23.8247H58.2834L55.5456 18.9481L55.267 18.9703C55.2266 19.2142 54.4715 19.9077 54.4715 20.0206V23.8247H52.1981V12.745H54.4715L54.4735 12.747Z" fill="white"/>
<path d="M50.0618 12.7469V15.0169H45.7835V17.1518H50.0618V19.4218H45.7835V21.5587H50.0618V23.8267H43.3768V12.7469H50.0618Z" fill="white"/>
<path d="M68.7805 12.7469V15.0169H64.5022V17.1518H68.7805V19.4218H64.5022V21.5587H68.7805V23.8267H62.0956V12.7469H68.7805Z" fill="white"/>
<path d="M77.6037 12.7469V15.0169H73.1922V16.9522L73.3921 17.1518H77.6037V19.4218H73.1922V21.5587H77.6037V23.8267H70.9188V12.7469H77.6037Z" fill="white"/>
<path d="M26.3973 12.747V20.1557C26.3973 20.9479 27.2594 21.7906 28.065 21.8027C28.6848 21.8128 29.872 21.0467 29.872 20.4218V12.745H32.2787V20.0206C32.2787 20.2222 32.0909 21.1092 32.0182 21.3632C31.1339 24.4718 26.3387 24.9053 24.7054 22.2442C24.5701 22.0224 24.1239 21.0084 24.1239 20.8229V12.747H26.3973Z" fill="white"/>
<path d="M35.6207 20.2222C35.8993 21.5528 38.4372 22.339 39.156 21.1476C40.1816 19.4441 37.0966 19.1054 36.0689 18.6458C34.4052 17.9019 33.5492 16.4665 34.2619 14.6582C35.3764 11.8298 39.9716 12.0878 41.6393 14.2852L39.8182 15.6762C38.9924 15.0513 38.6976 14.6521 37.5589 14.7469C36.4202 14.8416 35.9518 15.8133 37.0057 16.5129C38.5886 17.5652 41.4677 17.3535 41.7625 20.0388C42.2652 24.6332 35.5864 25.1311 33.5048 21.8914L35.6267 20.2242L35.6207 20.2222Z" fill="white"/>
<path d="M82.0174 20.7564V23.8267H79.744V12.7469H84.4907C84.949 12.7469 86.3603 13.7529 86.6934 14.1521C88.6862 16.541 86.9498 20.7564 83.9557 20.7564H82.0174ZM82.0174 18.4884H83.9557C84.2383 18.4884 84.8884 17.8574 85.0257 17.555C85.9565 15.4947 83.7497 14.5633 82.0174 14.8839V18.4884Z" fill="white"/>
<path d="M91.5086 12.7469H89.2352V23.8267H91.5086V12.7469Z" fill="white"/>
</svg>
