<svg width="169" height="22" viewBox="0 0 169 22" fill="none" xmlns="http://www.w3.org/2000/svg">
<path d="M0.57605 0.419738V21.5746H5.41703V13.2637H13.0563V9.17828H5.33309V4.50519H14.3715V0.419738H0.57605ZM124.735 21.5746H129.492V0.419738H124.735V21.5746ZM138.25 0.419738L146.337 13.7954V0.419738H150.87V21.5746H146.421L138.054 8.19889V21.5746H133.521V0.419738H138.25ZM154.312 0.419738V21.5746H168.471V17.4891H159.069V12.7321H166.82V8.95442H159.069V4.50519H168.136V0.419738H154.312ZM25.1447 4.08546C28.2228 4.08546 29.7339 6.79976 29.7339 10.9971C29.7339 15.1945 28.2228 17.9088 25.1447 17.9088C22.0667 17.9088 20.5556 15.1945 20.5556 10.9971C20.5276 6.79976 22.0667 4.08546 25.1447 4.08546ZM15.6307 10.9971C15.6307 16.9854 18.4289 21.9943 25.1447 21.9943C31.8326 21.9943 34.6588 16.9854 34.6588 10.9971C34.6588 5.00887 31.8605 0 25.1447 0C18.4569 0 15.6307 5.00887 15.6307 10.9971ZM62.4455 4.50519H63.4808C67.8461 4.50519 69.7489 6.15616 69.7489 10.9971C69.7489 15.8381 67.8461 17.4891 63.4808 17.4891H62.4455V4.50519ZM57.6885 21.5746H62.9492C70.1407 21.5746 74.5619 18.5245 74.5619 10.9971C74.5619 3.46983 70.1407 0.419738 62.9492 0.419738H57.6885V21.5746ZM99.5504 0.419738L103.02 14.6349L107.106 0.419738H110.771L114.717 14.6349L118.075 0.419738H122.608L116.928 21.5746H112.87L108.757 8.3388L104.671 21.6025H100.446L94.9053 0.447723H99.5504V0.419738ZM46.1317 4.08546C49.2097 4.08546 50.7208 6.79976 50.7208 10.9971C50.7208 15.1945 49.2097 17.9088 46.1317 17.9088C43.0536 17.9088 41.5425 15.1945 41.5425 10.9971C41.5425 6.79976 43.0536 4.08546 46.1317 4.08546ZM36.6456 10.9971C36.6456 16.9854 39.4438 21.9943 46.1596 21.9943C52.8475 21.9943 55.6737 16.9854 55.6737 10.9971C55.6737 5.00887 52.8755 0 46.1596 0C39.4438 0 36.6456 5.00887 36.6456 10.9971Z" fill="white"/>
<path d="M84.3112 20.7408C86.1581 20.7408 87.5572 19.8734 88.1448 19.2857C86.9136 18.2504 84.7869 16.1797 84.2273 15.564C83.6676 14.9484 82.2685 13.4094 81.7648 12.6818C80.8414 13.3254 80.0299 14.4168 80.0299 16.1517C80.0579 18.894 81.9607 20.7408 84.3112 20.7408ZM83.5837 22C79.3583 22 77.9032 19.0898 77.9032 17.187C77.9032 14.6406 79.834 12.7938 81.3451 11.9823C80.4776 10.807 80.2817 9.91157 80.2537 8.93218C80.2537 7.22524 81.8767 4.93066 85.2346 4.93066C86.3259 4.93066 87.2774 5.15453 87.865 5.43436C88.1728 5.57427 88.2008 5.71418 88.2008 5.99401C88.2008 6.69357 88.0609 8.31656 88.0049 8.65235C87.9489 8.98814 87.865 9.01612 87.7531 9.01612C87.6411 9.01612 87.6131 8.93217 87.6131 8.59638C87.6131 8.03673 87.4732 7.30918 86.9695 6.74953C86.5218 6.24584 85.7663 5.77014 84.675 5.77014C83.5557 5.77014 82.1286 6.49769 82.1286 8.42848C82.1286 10.3033 83.6396 11.8703 85.6544 14.081C86.3819 14.9204 89.0682 17.3549 89.6279 17.8586C90.1596 17.1311 90.6912 15.704 90.6912 14.3888C90.6912 14.053 90.6073 13.6612 90.2715 13.3534C89.9917 13.0736 89.5439 13.0176 89.2082 13.0176C89.0682 13.0176 88.9563 12.9617 88.9563 12.8497C88.9563 12.7098 89.1242 12.6539 89.2921 12.6539C89.8238 12.6539 90.6912 12.6818 91.8945 12.7938C92.2583 12.8497 92.4541 12.9896 92.4541 13.2415C92.4541 14.9484 91.4188 17.0751 90.2995 18.3903C91.7546 19.5935 92.706 20.1812 93.3216 20.5449C94.0212 20.9647 95.1684 21.3564 95.7841 21.3564C95.9799 21.3564 96.0919 21.3844 96.0919 21.5243C96.0919 21.6363 95.924 21.6922 95.5882 21.6922H93.6854C91.6426 21.6922 90.999 21.4963 88.8444 19.8174C88.2567 20.405 86.6617 22 83.5837 22Z" fill="white"/>
</svg>
