<svg width="129" height="28" viewBox="0 0 129 28" fill="none" xmlns="http://www.w3.org/2000/svg">
<g clip-path="url(#clip0_19470_7321)">
<path d="M5.19324 0.724976V10.4896L6.65263 8.81535C13.1823 4.79165 18.2373 13.4053 14.2105 18.7795C11.9347 21.8164 6.7355 22.398 4.96305 18.58C4.52262 18.5692 3.64176 21.4021 2.74096 21.0184V4.00593C2.74096 3.93381 2.58596 2.94553 2.55527 2.81662C2.36038 1.99408 1.15726 1.89894 0.442139 1.94498V1.03036L3.90264 0.884573L4.27402 0.72651H5.19324V0.724976ZM8.52637 9.15449C3.08471 10.0215 4.20496 22.3044 10.486 19.6496C13.9005 18.2055 14.1 8.2675 8.52637 9.15449Z" fill="white"/>
<path d="M66.1979 10.6431L67.4209 9.03791C73.702 4.66125 79.2112 12.5828 75.6709 18.3191C73.989 21.0446 69.5371 22.4595 67.1201 20.0256C66.8455 19.7494 66.6813 19.2291 66.3513 19.0358V25.2156C66.3513 25.3859 66.8669 25.9184 67.0756 26.0197C68.0117 26.4739 69.2747 25.7189 68.9571 27.275H61.6002V26.3604C62.7481 26.2898 63.6336 26.2253 63.7533 24.9163C64.1783 20.2742 63.4279 14.9814 63.7364 10.2702C63.5614 9.15761 62.4765 9.30647 61.6156 9.10236L61.6217 8.4517L61.9823 8.20002L66.1979 7.89464V10.6416V10.6431ZM69.686 9.15761C64.9625 9.83743 65.0791 19.4256 69.5095 19.9335C74.0135 20.4507 74.5798 14.7589 73.5977 11.593C73.0176 9.72234 71.6518 8.87525 69.686 9.15761Z" fill="white"/>
<path d="M81.5254 10.643L82.75 9.03937C88.7426 4.94507 93.9356 11.6973 91.3621 17.6131C89.9411 20.8803 85.7916 22.3213 82.7653 20.3186L81.6788 19.0357V25.3674C81.6788 25.5761 82.0809 25.88 82.2896 25.9813C83.1597 26.4033 84.9982 25.9076 84.0544 27.2749H76.9277V26.3603C77.8945 26.3342 78.9749 26.1915 79.0593 25.0482C78.8122 20.4429 79.4353 15.4217 79.0792 10.8655C78.9488 9.19436 78.4455 9.36317 76.9431 9.10229L76.9262 8.20148L81.5254 7.89763V10.6446V10.643ZM85.0135 9.15753C80.29 9.83735 80.4067 19.4255 84.837 19.9334C89.3411 20.4506 89.9073 14.7588 88.9252 11.5929C88.3451 9.72226 86.9793 8.87517 85.0135 9.15753Z" fill="white"/>
<path d="M34.7756 10.3376C35.9127 8.70174 37.4719 7.60605 39.5835 7.76104C44.9085 8.15083 43.2711 13.8288 43.5059 17.4397C43.6118 19.0572 43.6455 20.1605 45.6589 19.9503V20.8665H38.9144L38.9359 20.1252C39.8382 19.7938 40.8066 20.1437 41.0245 18.9237C41.2685 17.5533 41.1963 13.2764 41.0659 11.7832C40.8771 9.60255 39.5313 8.6112 37.3829 9.34781C34.484 10.3422 34.7833 14.7895 34.9229 17.2893C34.9674 18.0904 34.9459 19.5145 35.7363 19.8367C36.4805 20.1406 37.3138 19.671 37.076 20.868H30.3314L30.3529 20.1268L32.133 19.6096C32.2527 19.4777 32.4108 18.827 32.4384 18.6152C32.6793 16.7768 32.6134 13.0815 32.4845 11.1709C32.3648 9.37236 32.1238 9.33093 30.3483 9.10227L30.3314 8.20147L34.7771 7.89762V10.3392L34.7756 10.3376Z" fill="white"/>
<path d="M57.9188 18.8838L56.5315 20.4752C54.3309 21.9223 50.0985 21.3376 49.6842 18.3099C49.1992 14.7604 53.1447 13.7782 55.8701 13.4099C56.2185 13.3623 57.8451 13.4513 57.9295 13.1444C57.994 11.0973 57.9387 8.82609 55.2931 8.90435C53.3472 8.96113 53.4301 9.84506 52.6812 11.151C51.4566 13.2902 49.0458 11.3121 50.8704 9.34785C52.6413 7.44189 57.2543 7.21477 59.1511 9.03633C61.3271 11.1264 59.9782 16.4607 60.4048 19.2322C60.6688 20.1207 61.5435 20.0869 62.1343 19.4961C62.8019 20.1406 62.0376 20.8419 61.3333 20.9847C59.6483 21.3253 57.9142 20.8435 57.9188 18.8838ZM57.9203 14.3046C55.8548 14.4765 52.3973 14.8371 52.3896 17.5855C52.3804 20.9662 56.53 20.6148 57.5796 17.7052C57.6487 17.5119 57.9203 16.628 57.9203 16.5175V14.3046Z" fill="white"/>
<path d="M23.0973 7.78867C31.4363 7.3467 32.6762 19.4454 25.0033 21.1335C15.5333 23.2159 13.7946 8.2828 23.0973 7.78867ZM22.6277 9.00099C17.9043 9.80665 18.7559 22.665 25.0693 19.8245C28.4929 18.2837 28.6142 7.98049 22.6277 9.00099Z" fill="white"/>
<path d="M104.977 13.9992H96.0871C95.5101 19.3519 100.444 22.2078 104.156 17.8296L105.127 18.5002C103.57 20.7054 101.573 21.3714 98.9154 21.1765C92.8154 20.7315 91.5002 12.3066 96.0365 8.99031C100.135 5.99172 105.612 8.89056 104.977 13.9992ZM102.371 13.0846C102.532 7.28692 96.5076 7.86392 96.2406 13.0846H102.371Z" fill="white"/>
<path d="M125.209 3.47187V8.20149H128.427V9.11764H125.438L125.208 9.34629V18.8071C125.208 18.8577 125.51 19.7217 125.548 19.7631C126.23 20.4752 127.529 19.1646 127.661 18.4249L128.412 18.982C127.706 21.91 123.128 22.1248 122.752 18.8055C122.431 15.965 123.093 12.463 122.76 9.64247C122.734 9.41995 122.741 9.24961 122.522 9.1161H120.3V8.20149C123.328 8.21837 124.029 6.04231 124.301 3.48722L125.204 3.47034L125.209 3.47187Z" fill="white"/>
<path d="M110.035 3.47192V7.97288L110.265 8.20154H112.794V9.11769H110.265L110.035 9.34634V18.3483C110.035 18.4066 110.238 19.4179 110.267 19.49C110.779 20.6947 112.375 19.2353 112.489 18.425L113.239 18.982C112.563 21.9346 107.953 22.0911 107.58 18.8056L107.558 9.36629C107.4 8.88597 105.884 9.20516 105.433 9.11769L105.428 8.28747C108.18 8.13862 108.962 5.85975 109.114 3.47192H110.032H110.035Z" fill="white"/>
<path d="M118.465 7.89607V18.6536C118.465 18.7518 118.758 19.5528 118.879 19.6541C119.246 19.9641 119.995 19.9764 120.458 19.9488V20.8649H114.172L114.192 20.1222C114.86 19.8567 115.566 20.0746 115.848 19.252C116.201 18.2239 116.123 12.5321 116.017 11.1694C115.902 9.67773 115.555 9.29254 114.034 9.10072L114.019 8.19838L118.465 7.89453V7.89607Z" fill="white"/>
<path d="M98.5394 7.1334C98.478 6.84796 98.3706 6.7252 98.4949 6.41828C98.5977 6.16047 100.697 3.50409 100.986 3.23707C102.496 1.83445 104.118 3.41662 102.913 4.698C102.531 5.10313 98.7512 7.28993 98.5409 7.1334H98.5394Z" fill="white"/>
<path d="M116.734 2.74149C119.368 2.13686 119.528 6.13907 117.027 5.90581C115.179 5.73394 115.136 3.10825 116.734 2.74149Z" fill="white"/>
</g>
<defs>
<clipPath id="clip0_19470_7321">
<rect width="127.985" height="26.55" fill="white" transform="translate(0.442139 0.724976)"/>
</clipPath>
</defs>
</svg>
