<svg width="2200" height="48" viewBox="0 0 2200 48" fill="none" xmlns="http://www.w3.org/2000/svg">
<path d="M9.73008 0.758789V3.15689C9.12807 3.08348 8.57157 3.35265 8.47357 3.98539L11.0566 31.9411L13.2721 11.9383C12.6771 9.4388 12.9536 6.19822 12.3271 3.78263C12.1241 2.99259 11.6901 3.1534 10.9901 3.16039V0.758789H20.5942V2.96812C20.3947 3.2303 20.0377 3.12892 19.7437 3.25477C18.8581 3.62882 19.1031 4.74397 19.0751 5.49906L21.8612 30.2981L22.1132 28.9732L24.3952 5.49906C24.4267 4.20912 24.2272 2.95763 22.6207 3.15689V0.758789H29.4457V3.15689C28.5357 3.00657 28.1717 3.41907 27.9372 4.23709L23.5062 47.4658H17.3146L14.8506 26.3828L12.3866 47.4658L6.18455 47.4099L1.58551 3.78263C1.26001 2.85975 0.560004 3.38062 0 2.96812V0.947561L0.189001 0.758789H9.73008Z" fill="white"/>
<path d="M46.005 45.19C46.7611 45.1446 47.1706 45.1201 47.3386 44.3126C47.3631 34.7656 47.5731 25.1487 47.2336 15.6227C46.9781 14.8117 46.7856 14.9446 46.0225 14.7488V12.5744L46.32 12.3682L54.1461 11.7529C54.5941 11.8613 54.1146 12.8751 54.2091 13.1897L54.4681 14.8921C55.4306 11.9731 58.4581 11.3963 61.1987 11.8962C63.0327 12.2283 64.1702 13.2666 64.4537 15.1438L65.4092 13.6406C67.0122 11.239 72.7768 11.0048 74.2503 13.5008C75.1778 15.0739 74.9153 16.8987 74.9363 18.6116C75.0273 27.026 74.8803 35.4473 74.9468 43.8616C75.0308 44.7845 75.1778 45.2005 76.2068 45.19V47.4623H66.6027V45.19C67.3552 45.2075 67.6597 45.0082 67.7437 44.2461V17.8565C67.6037 16.8288 67.7612 16.203 66.5432 16.1506C64.8107 16.0807 64.6777 17.1434 64.5762 18.6151C64.0092 26.8407 65.0172 35.706 64.5762 43.9979C64.7022 45.3543 65.5912 45.1061 65.5912 45.1935V47.4658H56.2391V45.1935C57.1701 45.2389 57.3136 44.6691 57.3801 43.8721C57.0231 35.5207 57.8386 26.7987 57.3801 18.4893C57.3591 18.0873 57.2506 16.7659 57.0966 16.5002C56.8901 16.1436 56.5401 16.1681 56.1761 16.1541C53.6176 16.0527 54.6081 18.3599 54.2091 20.0064C54.5311 27.6587 53.7996 35.6325 54.2091 43.2429C54.2406 43.7987 54.3841 44.379 54.4016 44.9418L55.2241 45.1935V47.4658H45.998V45.1935L46.005 45.19Z" fill="white"/>
<path d="M143.322 0.758789V3.15689C142.247 3.13592 141.481 2.95763 141.309 4.24058C140.595 9.62757 141.565 15.9165 141.166 21.4048L141.362 21.8418H147.364V4.85933C147.364 4.77543 147.196 3.94344 147.154 3.80711C146.888 2.92617 145.936 3.18486 145.215 3.15689V0.758789H156.59V3.15689C155.729 3.22681 154.844 2.8178 154.599 3.88052C154.34 17.3393 154.34 30.8854 154.599 44.3406C154.728 45.274 155.855 45.2076 156.59 45.1901V47.4623H145.404C145.366 47.4623 145.306 47.6232 145.215 47.5882V45.1901C147.007 45.3194 147.238 44.7077 147.361 43.1066V24.614H141.295C141.351 25.1069 141.19 25.5718 141.162 26.0612C140.879 31.0252 140.963 37.5274 141.292 42.4774C141.404 44.1588 140.963 45.3684 143.315 45.1901V47.4623H131.813V45.1901C132.821 45.2216 134.025 45.281 134.088 43.991L134.096 5.22989C133.98 3.40859 133.819 2.97511 131.813 3.1534V0.758789H143.315H143.322Z" fill="white"/>
<path d="M226.992 0V15.0213C227.324 15.0878 227.188 14.9514 227.258 14.8396C228.224 13.2315 228.773 12.3226 230.775 11.9206C233.46 11.3857 237.128 11.8612 237.551 15.1402C237.971 24.8515 237.618 34.6361 237.733 44.3719C237.74 45.1095 238.388 45.2144 239 45.1899V47.4621H229.27V45.1899L230.124 45.0326L230.285 44.3754L230.222 16.7832C229.981 16.0107 228.686 16.0281 228.059 16.2763C226.74 16.7937 227.293 18.8003 226.988 19.877C227.419 27.6586 226.432 36.031 226.988 43.7461C227.044 44.5117 227.037 45.3018 228.003 45.1934V47.4656H218.903V45.1934C219.95 45.0745 220.086 44.8997 220.17 43.872V4.72978C220.055 3.25107 219.806 3.00986 218.27 3.15669V0.758583L226.992 0Z" fill="white"/>
<path d="M102.497 15.021L103.33 13.6437C105.329 10.8785 112.053 10.896 112.781 14.7868C113.264 24.4351 112.851 34.1814 112.991 43.8612C113.075 44.784 113.222 45.2 114.251 45.1896V47.4618H104.646V45.1896C105.424 45.1511 105.7 44.8784 105.784 44.1164L105.791 17.9819C105.994 15.2413 102.396 15.6188 102.494 18.1078V44.6267C102.473 45.1231 102.994 45.2035 103.383 45.1861V47.4583H94.2829V45.1861C95.1159 45.1791 95.4554 44.9449 95.5464 44.1129L95.4274 15.5768C95.2209 14.7204 94.3914 14.7274 93.6494 14.7623L93.6669 12.5705C93.7824 12.2174 94.7414 12.3887 95.1019 12.3607C97.4714 12.1755 99.8445 11.9622 102.21 11.756L102.494 11.9203V15.014L102.497 15.021Z" fill="white"/>
<path d="M193.5 43.1097C193.388 44.55 192.947 46.4936 191.648 47.3186C190.35 48.1436 187.263 48.1401 185.873 47.5738C184.617 47.0634 184.295 45.9063 184.022 44.6898L183.119 46.2454C181.299 48.4652 177.106 48.654 175.328 46.2454C173.207 43.3754 173.392 35.2337 174.099 31.8079C175.118 26.8998 178.814 25.9035 183.056 24.4702L183.266 24.1766C183.101 21.7295 183.483 19.0168 183.262 16.6047C182.996 13.6788 181.033 14.3185 178.842 14.773L180.252 16.7061C181.253 18.2862 181.47 20.901 179.472 21.7785C174.922 23.7746 173.616 17.0487 175.681 14.329C177.529 11.8959 182.387 11.4694 185.187 11.9029C188.715 12.4483 190.007 14.5842 190.22 17.9856C190.742 26.33 189.818 35.2128 190.22 43.6166L190.5 44.3542C191.977 45.0289 191.354 41.5541 191.484 40.8409C191.508 40.7011 191.547 40.6032 191.673 40.5263H193.507V43.1132L193.5 43.1097ZM183.262 26.3824C181.05 27.1026 180.599 29.2874 180.476 31.3639C180.308 34.213 180.333 37.2368 180.487 40.0754C180.543 41.1171 180.203 43.7215 181.817 43.7949C182.639 43.8333 183.262 43.1482 183.262 42.3511V26.3824Z" fill="white"/>
<path d="M35.7435 11.777C44.6791 11.2562 44.7526 20.0271 44.9906 26.5782C45.1691 31.4792 45.5016 40.771 42.7716 44.9275C40.1011 49.0001 32.653 49.0385 30 44.9554C27.095 40.4809 27.5325 29.976 27.802 24.6765C28.0925 19.0238 28.628 12.1895 35.74 11.777H35.7435ZM35.985 14.7974C35.103 14.9967 35.0645 16.1538 34.9 16.8669C34.9595 24.8862 34.3435 33.0733 34.753 41.0926C34.7915 41.8722 34.921 43.6166 35.236 44.2703C35.5685 44.9589 36.5276 45.1058 37.1506 44.7422C38.0046 44.2458 37.8646 41.1206 37.9101 40.1977C38.2356 33.5347 38.2321 26.1691 37.9101 19.5062C37.8436 18.1184 38.2916 14.266 35.9815 14.7939L35.985 14.7974Z" fill="white"/>
<path d="M173.15 28.906H163.546V36.7995C164.039 39.1032 162.867 44.3923 166.258 44.6894C168.841 44.9132 169.492 44.2105 169.737 41.718L169.867 36.3555H172.268C172.17 39.2151 172.807 44.6055 170.434 46.7065C168.722 48.2237 164.442 48.1782 162.342 47.5944C160.62 47.1155 159.199 45.7696 158.429 44.1791C156.063 39.2955 156.297 27.3644 156.99 21.918C157.757 15.8878 159.815 10.756 167.007 11.8816C170.056 12.3605 171.323 14.0245 172.131 16.8631C173.213 20.656 173.031 24.9908 173.153 28.9095L173.15 28.906ZM166.703 26.3821V16.2199C166.703 16.1255 166.447 15.2795 166.377 15.1571C166.013 14.5279 164.708 14.5873 164.323 15.2305C163.857 16.0066 163.717 18.7613 163.672 19.7576C163.577 21.9599 163.7 24.1832 163.546 26.3821H166.706H166.703Z" fill="white"/>
<path d="M93.3975 28.9068H84.1715C84.2975 32.3851 84 35.9822 84.1715 39.4465C84.224 40.4953 84.3675 42.3445 84.742 43.2954C85.351 44.837 87.1815 44.8755 88.6235 44.6552C90.0655 44.435 90.314 43.0856 90.4855 41.8446C90.7375 40.0338 90.559 38.1776 90.615 36.3563H93.142C93.0335 39.7262 93.6496 46.0745 89.67 47.4693C87.094 48.3712 82.593 48.2069 80.4999 46.2668C76.8704 42.9004 77.1259 33.1052 77.2204 28.4733C77.3674 21.3629 77.4969 10.1869 87.7345 11.9033C90.944 12.4417 92.0955 14.7244 92.701 17.6713C93.4465 21.2825 93.3205 25.2327 93.3905 28.9103L93.3975 28.9068ZM87.332 26.3828C87.1745 23.352 87.542 20.1114 87.332 17.105C87.2305 15.6857 87.2095 14.3713 85.4 14.7943C84.497 15.0041 84.3535 17.542 84.294 18.36C84.224 19.3388 84.196 20.4155 84.168 21.3908C84.119 23.0513 84.2135 24.7223 84.1715 26.3828H87.332Z" fill="white"/>
<path d="M204.366 45.1901V47.4624H194.761V45.1901L195.616 45.0328L195.776 44.3721L195.654 3.58339C195.412 2.85976 194.481 3.23381 193.876 3.14991V0.758801L202.546 0.00720954C202.651 -0.0207567 202.85 0.136553 202.85 0.18899V44.6238C202.85 45.1272 203.988 45.2705 204.366 45.1901Z" fill="white"/>
<path d="M128.788 12.1201H130.937V22.4711H128.284C127.881 20.6253 128.13 17.3253 127.125 15.7382C126.121 14.1511 122.886 14.3259 122.61 16.6156C121.969 21.8943 126.887 27.1449 129.19 31.602C131.315 35.7096 133.583 43.3129 129.229 46.7073C126.905 48.5181 121.588 48.5775 119.873 45.8193C119.236 45.711 119.145 47.1058 118.865 47.4659H116.527V36.6115H119.306C119.68 38.3908 119.495 43.6659 121.21 44.6168C122.19 45.1621 124.518 45.0747 125.057 43.9351C126.324 41.2643 124.441 37.1288 123.117 34.7587C121.175 31.2874 118.616 28.1062 117.279 24.3063C115.774 20.024 115.487 13.4555 120.975 12.0851C123.541 11.4454 126.509 11.6866 128.343 13.7596L128.784 12.1201H128.788Z" fill="white"/>
<path d="M213.215 3.15641V12.1196H217.513V14.7694H213.278L213.089 14.9581V43.1096C213.089 43.1795 213.24 44.0954 213.271 44.1898C213.523 44.9973 214.986 44.7282 214.986 43.9906V36.2894L215.175 36.1006H217.387V44.2423C217.387 44.6198 216.883 46.0496 216.652 46.4131C215.431 48.3568 211.518 48.14 209.579 47.6227C206.562 46.8221 206.359 44.2912 206.131 41.596L206.138 14.7659L204.549 14.647L204.493 12.1126C209.257 12.5985 209.827 6.53332 210.688 3.14941H213.215V3.15641Z" fill="white"/>
<path d="M117.283 8.08599C114.76 7.22603 112.397 4.16373 114.711 1.78311C116.142 0.311386 118.383 0.636493 119.758 2.01732C123.797 6.07592 118.614 11.3545 115.096 13.4905L113.626 12.0572L117.168 8.52995L117.283 8.08949V8.08599Z" fill="white"/>
<path d="M441.25 0.915793V47.0718H451.812V28.9391H468.48V20.0253H451.629V9.82951H471.349V0.915793H441.25ZM712.142 47.0718H722.521V0.915793H712.142V47.0718ZM741.63 0.915793L759.274 30.0991V0.915793H769.165V47.0718H759.457L741.203 17.8885V47.0718H731.312V0.915793H741.63ZM776.674 0.915793V47.0718H807.567V38.158H787.053V27.7791H803.965V19.5369H787.053V9.82951H806.835V0.915793H776.674ZM494.854 8.91372C501.57 8.91372 504.867 14.8358 504.867 23.9938C504.867 33.1517 501.57 39.0738 494.854 39.0738C488.139 39.0738 484.842 33.1517 484.842 23.9938C484.781 14.8358 488.139 8.91372 494.854 8.91372ZM474.096 23.9938C474.096 37.0591 480.202 47.9876 494.854 47.9876C509.446 47.9876 515.612 37.0591 515.612 23.9938C515.612 10.9285 509.507 0 494.854 0C480.263 0 474.096 10.9285 474.096 23.9938ZM576.238 9.82951H578.497C588.021 9.82951 592.173 13.4316 592.173 23.9938C592.173 34.5559 588.021 38.158 578.497 38.158H576.238V9.82951ZM565.859 47.0718H577.337C593.027 47.0718 602.674 40.417 602.674 23.9938C602.674 7.57055 593.027 0.915793 577.337 0.915793H565.859V47.0718ZM657.194 0.915793L664.765 31.9306L673.678 0.915793H681.676L690.285 31.9306L697.611 0.915793H707.502L695.108 47.0718H686.255L677.28 18.1937L668.367 47.1328H659.148L647.059 0.976849H657.194V0.915793ZM540.644 8.91372C547.36 8.91372 550.657 14.8358 550.657 23.9938C550.657 33.1517 547.36 39.0738 540.644 39.0738C533.928 39.0738 530.631 33.1517 530.631 23.9938C530.631 14.8358 533.928 8.91372 540.644 8.91372ZM519.947 23.9938C519.947 37.0591 526.052 47.9876 540.705 47.9876C555.297 47.9876 561.463 37.0591 561.463 23.9938C561.463 10.9285 555.358 0 540.705 0C526.052 0 519.947 10.9285 519.947 23.9938Z" fill="white"/>
<path d="M623.945 45.2527C627.974 45.2527 631.027 43.3601 632.309 42.0779C629.623 39.819 624.983 35.3011 623.762 33.9579C622.541 32.6147 619.488 29.2568 618.389 27.6695C616.374 29.0737 614.604 31.4547 614.604 35.24C614.665 41.2232 618.817 45.2527 623.945 45.2527ZM622.358 48.0001C613.139 48.0001 609.964 41.6506 609.964 37.499C609.964 31.9432 614.177 27.9137 617.473 26.1431C615.581 23.5789 615.153 21.6252 615.092 19.4884C615.092 15.7642 618.633 10.7578 625.96 10.7578C628.341 10.7578 630.417 11.2462 631.699 11.8568C632.37 12.162 632.431 12.4673 632.431 13.0778C632.431 14.6042 632.126 18.1452 632.004 18.8779C631.882 19.6105 631.699 19.6715 631.454 19.6715C631.21 19.6715 631.149 19.4884 631.149 18.7557C631.149 17.5347 630.844 15.9473 629.745 14.7262C628.768 13.6273 627.12 12.5894 624.739 12.5894C622.297 12.5894 619.183 14.1768 619.183 18.3894C619.183 22.48 622.48 25.8989 626.876 30.7221C628.463 32.5537 634.324 37.8653 635.545 38.9642C636.705 37.3769 637.865 34.2632 637.865 31.3937C637.865 30.6611 637.682 29.8063 636.949 29.1347C636.339 28.5242 635.362 28.4021 634.629 28.4021C634.324 28.4021 634.08 28.28 634.08 28.0358C634.08 27.7305 634.446 27.6084 634.812 27.6084C635.972 27.6084 637.865 27.6695 640.49 27.9137C641.284 28.0358 641.711 28.341 641.711 28.8905C641.711 32.6147 639.452 37.2548 637.01 40.1242C640.185 42.7495 642.261 44.0316 643.604 44.8253C645.13 45.7411 647.633 46.5958 648.977 46.5958C649.404 46.5958 649.648 46.6569 649.648 46.9622C649.648 47.2064 649.282 47.3285 648.549 47.3285H644.398C639.941 47.3285 638.537 46.9011 633.836 43.2379C632.553 44.5201 629.073 48.0001 622.358 48.0001Z" fill="white"/>
<path d="M1164.81 35.9288C1162.25 35.9288 1160.94 33.9929 1160.94 30.1779C1160.94 28.1281 1161.51 24.7117 1162.82 21.7509C1163.84 19.4164 1165.72 16.5694 1168.56 16.5694C1171.11 16.5694 1172.42 18.5053 1172.42 22.3203C1172.42 24.3701 1171.85 27.7865 1170.55 30.7473C1169.47 33.0819 1167.65 35.9288 1164.81 35.9288ZM1172.93 32.7402C1174.86 30.3488 1176 27.1601 1176 24.0285C1176 21.5801 1175.32 19.4733 1173.95 17.9929C1172.65 16.5125 1170.83 15.7153 1168.67 15.7153C1166.97 15.7153 1165.38 16.1139 1163.9 16.8541C1162.53 17.5374 1161.34 18.5053 1160.32 19.758C1158.39 22.1495 1157.25 25.3381 1157.25 28.4698C1157.25 30.9182 1157.93 33.0249 1159.3 34.5053C1160.6 35.9858 1162.42 36.7829 1164.58 36.7829C1166.28 36.7829 1167.88 36.3843 1169.35 35.6441C1170.72 34.9608 1171.91 33.9929 1172.93 32.7402ZM1193.67 5.35232C1192.82 4.66904 1191.62 4.32741 1190.15 4.32741C1188.16 4.32741 1186.34 5.12456 1184.86 6.60499C1183.21 8.25623 1181.97 10.8185 1181.11 14.1779L1180.66 16.1139H1175.94L1175.66 16.968H1180.54L1176.17 37.0676C1174.86 43.331 1173.84 44.4128 1171.97 44.4128C1171.34 44.4128 1170.89 44.2989 1170.6 44.0712C1171.06 43.6726 1171.57 42.9893 1171.57 42.1922C1171.57 41.1673 1170.89 40.0285 1169.41 40.0285C1168.16 40.0285 1167.25 40.9964 1167.25 42.3061C1167.25 43.1601 1167.65 43.9003 1168.39 44.4697C1169.18 45.0391 1170.26 45.3238 1171.62 45.3238C1172.82 45.3238 1173.84 45.153 1174.69 44.7544C1175.6 44.3559 1176.4 43.6726 1177.08 42.7046C1178.5 40.7687 1179.64 37.637 1180.72 32.5124L1184.01 16.968H1189.07L1189.35 16.1708H1184.07L1185.09 11.9004C1185.66 9.5089 1186.34 7.80071 1187.19 6.66192C1187.93 5.69395 1188.78 5.1815 1189.81 5.1815C1190.37 5.1815 1191 5.35231 1191.28 5.80783C1190.88 6.26334 1190.49 7.28826 1190.49 8.02847C1190.49 9.39502 1191.34 10.2491 1192.65 10.2491C1194.01 10.2491 1194.86 9.33808 1194.86 7.85765C1194.92 6.88968 1194.52 5.97865 1193.67 5.35232ZM1108.11 38.8327C1108.11 44.8114 1110.78 48 1115.89 48C1119.7 48 1122.82 45.7224 1125.38 41.0534L1125.43 40.9395L1124.64 40.3701L1124.58 40.484C1122.48 43.9003 1120.44 45.4947 1118.22 45.4947C1115.32 45.4947 1113.84 43.4448 1113.84 39.3452V16.0569H1124.24V14.3488H1113.79V2.27758L1108.11 4.8968V14.1779L1101.4 15.2028V16.1139H1108.11V38.8327ZM1147.65 27.274H1131.12C1131.74 19.2456 1134.92 14.8612 1140.04 14.8612C1142.19 14.8612 1143.96 15.5445 1145.21 16.8541C1147.08 18.79 1147.88 22.3203 1147.65 27.274ZM1140.26 47.8861C1145.77 47.8861 1150.26 45.0392 1153.84 39.2313L1153.9 39.1174L1153.05 38.548L1152.99 38.6619C1149.92 42.6477 1146.91 45.3238 1142.19 45.3238C1135.26 45.3238 1130.95 39.6868 1130.95 30.6335V30.5765C1130.95 29.8363 1130.95 29.153 1131 28.4128H1153.73V28.2989C1154.01 24.0854 1152.76 20.2135 1150.21 17.5374C1147.76 14.9182 1144.35 13.5516 1140.32 13.5516C1131.91 13.5516 1124.87 21.5801 1124.87 31.1459C1124.87 40.8826 1131.34 47.8861 1140.26 47.8861ZM1066.69 29.6655V40.2562C1065.38 41.9644 1062.6 44.8114 1058.91 44.8114C1055.33 44.8114 1053.34 42.6477 1053.34 38.7758C1053.34 33.879 1055.38 31.7153 1066.69 29.6655ZM1048.79 21.1815C1048.79 23.0036 1049.87 24.8826 1052.26 24.8826C1054.42 24.8826 1055.89 23.4021 1055.89 21.1815C1055.89 19.7011 1054.98 18.3915 1053.45 17.6513C1054.7 16.1708 1057.09 15.2598 1059.87 15.2598C1064.7 15.2598 1066.69 17.7082 1066.69 23.6868V28.4698C1065.95 28.6406 1065.1 28.8114 1064.08 29.0392C1060.44 29.7794 1055.44 30.7473 1051.8 32.7402C1048.85 34.3915 1047.31 36.8399 1047.31 40.0285C1047.31 43.8434 1050.04 47.6584 1056.06 47.6584C1059.87 47.6584 1063.45 45.7224 1066.92 41.7936H1066.97C1067.09 45.2669 1068.85 47.2028 1072.31 47.6014C1072.82 47.6584 1073.34 47.6584 1073.79 47.6584C1077.09 47.6584 1079.53 46.4626 1081.35 45.3808C1083.9 46.9181 1087.37 47.8861 1090.21 47.8861C1096.69 47.8861 1101.4 43.3879 1101.4 37.2384C1101.4 32.2847 1098.56 29.5516 1091.23 27.3879C1084.76 25.5658 1082.48 23.8007 1082.48 20.669C1082.48 17.2527 1085.21 14.8612 1089.07 14.8612C1093.16 14.8612 1094.98 16.6263 1099.02 24.1424L1099.07 24.1993H1099.87V13.5516H1099.13L1097.31 15.5445C1095.04 14.2918 1092.26 13.5516 1089.87 13.5516C1083.51 13.5516 1078.51 17.9929 1078.51 23.6868C1078.51 29.0391 1082.14 31.032 1088.9 32.968C1096.35 35.1317 1097.65 37.1246 1097.65 40.4271C1097.65 43.3879 1095.49 46.5765 1090.78 46.5765C1085.38 46.5765 1083.45 44.2989 1079.13 35.9858L1079.07 35.9288H1078.28V41.7367C1078.17 44.2989 1077.31 45.6655 1075.67 45.9502C1074.53 46.0641 1073.68 45.6655 1073.17 44.6406C1072.71 43.8434 1072.54 42.6477 1072.54 41.1673V23.4021C1072.54 17.0249 1068.62 13.8363 1060.84 13.8363C1054.02 13.8932 1048.79 17.0818 1048.79 21.1815ZM1011.12 13.8932L1011.18 13.7794C1015.27 4.49822 1018.17 1.48043 1023.17 1.48043H1028.74V41.452C1028.74 44.8114 1027.37 46.0641 1019.87 46.2349H1019.76V47.1459H1044.13V46.2918H1044.02C1036.46 46.0641 1035.16 44.8683 1035.16 41.5089V1.53736H1040.72C1045.72 1.53736 1048.62 4.49822 1052.71 13.8363L1052.77 13.9502L1052.88 13.8932C1053.22 13.7794 1053.56 13.6655 1053.91 13.5516H1054.02L1053.56 0.17082H1010.22L1009.82 13.4377H1009.93C1010.27 13.5516 1010.61 13.6655 1010.95 13.7794L1011.12 13.8932ZM1240.43 1.08186H1240.54V0H1219.35V1.08186H1219.46C1225.66 1.25267 1226.34 2.7331 1226.34 5.75089V21.9217H1204.24V5.75089C1204.24 2.7331 1204.92 1.30961 1211.17 1.08186H1211.28V0H1190.03V1.08186H1190.15C1196.34 1.30961 1197.59 3.07474 1197.59 5.75089V41.395C1197.59 44.1281 1196.34 45.8363 1190.15 46.0641H1190.03V47.2029H1211.28V46.0641H1211.17C1204.92 45.8932 1204.24 44.4697 1204.24 41.395V23.573H1226.34V41.395C1226.34 44.4697 1225.71 45.8363 1219.46 46.0641H1219.35V47.2029H1240.54V46.0641H1240.43C1234.23 45.8363 1232.98 44.1281 1232.98 41.395V5.75089C1232.98 3.07474 1234.23 1.30961 1240.43 1.08186ZM1336.84 14.8612C1339 14.8612 1340.76 15.5445 1342.01 16.8541C1343.89 18.847 1344.68 22.3203 1344.45 27.274H1327.92C1328.6 19.2456 1331.78 14.8612 1336.84 14.8612ZM1349.91 38.605L1349.85 38.7189C1346.78 42.7046 1343.77 45.3808 1339.06 45.3808C1332.13 45.3808 1327.81 39.7438 1327.81 30.6904V30.6335C1327.81 29.8932 1327.81 29.21 1327.86 28.4698H1350.59V28.3559C1350.87 24.1423 1349.62 20.2705 1347.07 17.5943C1344.62 15.032 1341.22 13.6085 1337.18 13.6085C1328.77 13.6085 1321.73 21.637 1321.73 31.2028C1321.73 40.8826 1328.21 47.9431 1337.13 47.9431C1342.64 47.9431 1347.12 45.0961 1350.7 39.2883L1350.76 39.1744L1349.91 38.605ZM1252.87 46.121C1246.45 46.121 1243.38 40.9964 1243.38 30.5196C1243.38 19.758 1246.11 14.9751 1252.24 14.9751C1258.66 14.9751 1261.73 20.0427 1261.73 30.5196C1261.73 41.1673 1258.89 46.121 1252.87 46.121ZM1252.59 13.4377C1248.44 13.4377 1244.35 15.2028 1241.28 18.2776C1238.04 21.5231 1236.28 25.9075 1236.28 30.6335C1236.28 40.3132 1243.32 47.6584 1252.64 47.6584C1260.48 47.6584 1268.89 41.0534 1268.89 30.3488C1268.83 20.8968 1261.68 13.4377 1252.59 13.4377ZM1318.94 43.274V23.4591C1318.94 17.2527 1315.88 13.6655 1310.48 13.6655C1305.99 13.6655 1301.67 16.2847 1298.55 20.8968C1297.81 16.2278 1294.91 13.6655 1290.25 13.6655C1285.48 13.6655 1281.62 16.2847 1278.38 21.637V13.8363L1267.07 14.121V15.2598H1267.19C1271.67 15.3167 1272.3 17.0819 1272.3 18.79V43.274C1272.3 45.6085 1271.28 45.9502 1267.19 46.0071H1267.07V47.1459H1282.58V46.0071H1282.47C1278.95 45.9502 1278.55 45.6085 1278.55 43.274V23.9715C1280.71 19.3594 1283.44 16.968 1286.62 16.968C1290.65 16.968 1292.47 19.6441 1292.47 25.5658V43.2171C1292.47 45.4947 1291.79 45.8932 1288.04 45.9502H1287.92V47.089H1303.95V45.9502H1303.83C1299.51 45.8932 1298.72 45.4947 1298.72 43.2171V22.9466C1300.82 19.1886 1303.83 16.968 1306.79 16.968C1310.82 16.968 1312.64 19.6441 1312.64 25.5658V43.2171C1312.64 45.5516 1312.18 45.8932 1308.6 45.9502H1308.49V47.089H1324.11V45.9502H1324C1319.68 45.9502 1318.94 45.4947 1318.94 43.274ZM1347.18 46.121C1347.18 45.153 1347.98 44.2989 1349 44.2989C1350.02 44.2989 1350.82 45.0961 1350.82 46.0641C1350.82 47.032 1350.02 47.8861 1349 47.8861C1347.98 47.8861 1347.18 47.089 1347.18 46.121ZM1350.53 46.121C1350.53 45.21 1349.85 44.5267 1348.94 44.5267C1348.03 44.5267 1347.35 45.2669 1347.35 46.121C1347.35 46.9751 1348.03 47.7153 1348.94 47.7153C1349.85 47.7153 1350.53 46.9751 1350.53 46.121ZM1348.2 45.0961H1349.06C1349.34 45.0961 1349.51 45.153 1349.62 45.3238C1349.74 45.4377 1349.79 45.5516 1349.79 45.7224C1349.79 46.0071 1349.62 46.2349 1349.4 46.2918L1349.85 46.9751H1349.34L1348.94 46.3488H1348.6V46.9751H1348.2V45.0961ZM1349.06 46.0071C1349.28 46.0071 1349.4 45.8932 1349.4 45.7224C1349.4 45.5516 1349.28 45.4377 1349.06 45.4377H1348.66V46.0071H1349.06Z" fill="white"/>
<g clip-path="url(#clip0_19598_3548)">
<path d="M1561 1.82617V18.1368L1563.44 15.3401C1574.35 8.61904 1582.79 23.0071 1576.06 31.984C1572.26 37.0568 1563.58 38.0283 1560.62 31.6507C1559.88 31.6328 1558.41 36.3647 1556.91 35.7239V7.30661C1556.91 7.18613 1556.65 5.53534 1556.6 5.32001C1556.27 3.94606 1554.26 3.78713 1553.07 3.86403V2.33628L1558.85 2.09276L1559.47 1.82874H1561V1.82617ZM1566.57 15.9066C1557.48 17.3549 1559.35 37.872 1569.84 33.4374C1575.55 31.0253 1575.88 14.425 1566.57 15.9066Z" fill="white"/>
<path d="M1662.9 18.3929L1664.95 15.7117C1675.44 8.40101 1684.64 21.633 1678.73 31.2148C1675.92 35.7673 1668.48 38.1307 1664.44 34.0653C1663.99 33.6038 1663.71 32.7349 1663.16 32.4119V42.7345C1663.16 43.019 1664.02 43.9085 1664.37 44.0777C1665.93 44.8364 1668.04 43.5753 1667.51 46.1745H1655.22V44.6468C1657.14 44.5288 1658.62 44.4212 1658.82 42.2346C1659.53 34.4805 1658.28 25.6395 1658.79 17.7701C1658.5 15.9116 1656.69 16.1603 1655.25 15.8193L1655.26 14.7325L1655.86 14.3121L1662.9 13.802V18.3904V18.3929ZM1668.73 15.9116C1660.84 17.0472 1661.03 33.063 1668.44 33.9115C1675.96 34.7753 1676.9 25.2678 1675.26 19.9797C1674.29 16.8549 1672.01 15.44 1668.73 15.9116Z" fill="white"/>
<path d="M1688.51 18.3935L1690.55 15.7148C1700.56 8.87582 1709.24 20.1546 1704.94 30.0363C1702.56 35.4936 1695.63 37.9006 1690.58 34.5554L1688.76 32.4125V42.9889C1688.76 43.3375 1689.43 43.845 1689.78 44.0142C1691.24 44.7191 1694.31 43.8911 1692.73 46.1751H1680.83V44.6473C1682.44 44.6038 1684.25 44.3654 1684.39 42.4557C1683.97 34.7631 1685.01 26.3758 1684.42 18.7652C1684.2 15.9737 1683.36 16.2557 1680.85 15.8199L1680.82 14.3152L1688.51 13.8077V18.3961V18.3935ZM1694.33 15.9122C1686.44 17.0478 1686.64 33.0636 1694.04 33.912C1701.56 34.7759 1702.51 25.2684 1700.87 19.9802C1699.9 16.8555 1697.62 15.4406 1694.33 15.9122Z" fill="white"/>
<path d="M1610.42 17.8829C1612.32 15.1504 1614.92 13.3201 1618.45 13.579C1627.34 14.2301 1624.61 23.7145 1625 29.7461C1625.18 32.4478 1625.23 34.2909 1628.6 33.9397V35.47H1617.33L1617.37 34.2319C1618.87 33.6783 1620.49 34.2627 1620.85 32.2248C1621.26 29.9358 1621.14 22.7917 1620.92 20.2976C1620.61 16.6551 1618.36 14.9991 1614.77 16.2295C1609.93 17.8906 1610.43 25.3192 1610.66 29.4949C1610.74 30.8329 1610.7 33.2117 1612.02 33.75C1613.26 34.2576 1614.66 33.4732 1614.26 35.4726H1602.99L1603.03 34.2345L1606 33.3706C1606.2 33.1502 1606.47 32.0633 1606.51 31.7096C1606.92 28.6387 1606.8 22.4662 1606.59 19.2748C1606.39 16.2706 1605.99 16.2013 1603.02 15.8194L1602.99 14.3147L1610.42 13.8072V17.8855L1610.42 17.8829Z" fill="white"/>
<path d="M1649.07 32.1579L1646.76 34.8161C1643.08 37.2334 1636.01 36.2567 1635.32 31.1992C1634.51 25.2702 1641.1 23.6297 1645.65 23.0145C1646.23 22.935 1648.95 23.0837 1649.09 22.571C1649.2 19.1515 1649.11 15.3578 1644.69 15.4885C1641.44 15.5833 1641.58 17.0598 1640.33 19.2412C1638.28 22.8145 1634.25 19.5104 1637.3 16.2293C1640.26 13.0456 1647.96 12.6662 1651.13 15.7089C1654.77 19.2002 1652.51 28.1104 1653.23 32.7398C1653.67 34.224 1655.13 34.1676 1656.12 33.1807C1657.23 34.2573 1655.95 35.4288 1654.78 35.6672C1651.96 36.2362 1649.07 35.4313 1649.07 32.1579ZM1649.08 24.5089C1645.63 24.796 1639.85 25.3984 1639.84 29.9893C1639.82 35.6364 1646.75 35.0494 1648.51 30.1893C1648.62 29.8663 1649.08 28.3898 1649.08 28.2053V24.5089Z" fill="white"/>
<path d="M1590.91 13.6252C1604.84 12.887 1606.91 33.0964 1594.09 35.9161C1578.27 39.3945 1575.37 14.4506 1590.91 13.6252ZM1590.12 15.6502C1582.23 16.996 1583.66 38.4743 1594.2 33.7295C1599.92 31.1559 1600.12 13.9456 1590.12 15.6502Z" fill="white"/>
<path d="M1727.68 23.9989H1712.83C1711.87 32.9399 1720.11 37.7103 1726.31 30.397L1727.93 31.5172C1725.33 35.2008 1721.99 36.3132 1717.55 35.9877C1707.36 35.2443 1705.17 21.1715 1712.74 15.6322C1719.59 10.6234 1728.74 15.4655 1727.68 23.9989ZM1723.33 22.4712C1723.6 12.7868 1713.53 13.7507 1713.09 22.4712H1723.33Z" fill="white"/>
<path d="M1761.47 6.41467V14.3149H1766.85V15.8452H1761.86L1761.47 16.2272V32.0302C1761.47 32.1148 1761.98 33.558 1762.04 33.6272C1763.18 34.8166 1765.35 32.6275 1765.57 31.3919L1766.82 32.3224C1765.65 37.2133 1758 37.5722 1757.37 32.0276C1756.83 27.2829 1757.94 21.4333 1757.38 16.7219C1757.34 16.3502 1757.35 16.0657 1756.99 15.8427H1753.27V14.3149C1758.33 14.3431 1759.5 10.7083 1759.96 6.44031L1761.47 6.41211L1761.47 6.41467Z" fill="white"/>
<path d="M1736.13 6.41504V13.9333L1736.51 14.3153H1740.74V15.8456H1736.51L1736.13 16.2275V31.2641C1736.13 31.3615 1736.47 33.0508 1736.51 33.1713C1737.37 35.1835 1740.04 32.7457 1740.23 31.3923L1741.48 32.3228C1740.35 37.2547 1732.65 37.5161 1732.03 32.028L1731.99 16.2609C1731.73 15.4585 1729.19 15.9917 1728.44 15.8456L1728.43 14.4588C1733.03 14.2102 1734.34 10.4036 1734.59 6.41504H1736.12H1736.13Z" fill="white"/>
<path d="M1750.21 13.8043V31.7734C1750.21 31.9374 1750.7 33.2755 1750.9 33.4447C1751.51 33.9625 1752.76 33.983 1753.54 33.9369V35.4672H1743.04L1743.07 34.2265C1744.19 33.7831 1745.37 34.1471 1745.84 32.7731C1746.43 31.0557 1746.3 21.5482 1746.12 19.2719C1745.93 16.7804 1745.35 16.137 1742.81 15.8165L1742.78 14.3093L1750.21 13.8018V13.8043Z" fill="white"/>
<path d="M1716.93 12.5307C1716.82 12.054 1716.64 11.8489 1716.85 11.3362C1717.02 10.9056 1720.53 6.46842 1721.01 6.02239C1723.53 3.67949 1726.24 6.32231 1724.23 8.4627C1723.59 9.13942 1717.28 12.7922 1716.93 12.5307H1716.93Z" fill="white"/>
<path d="M1747.32 5.19486C1751.72 4.1849 1751.98 10.8701 1747.81 10.4805C1744.72 10.1934 1744.65 5.8075 1747.32 5.19486Z" fill="white"/>
</g>
<path d="M2060.05 9.734C2060.43 15.6309 2057.52 21.6449 2051.29 22.7541C2042.09 24.3917 2035.1 16.1392 2038.26 7.33812C2041.41 -1.46292 2054.79 -2.40272 2059 6.10388C2058.25 6.38622 2055.51 8.63286 2054.97 8.28598C2050.87 0.916825 2039.97 5.86187 2042.53 13.7392C2044.38 19.3942 2052.8 20.1807 2054.7 14.2757H2048.02V9.734H2060.05H2060.05Z" fill="white"/>
<path d="M2194.6 39.381H2187.91V34.8393H2199.95C2200.64 43.5758 2193.73 50.1786 2184.98 47.2543C2175.63 44.1284 2174.82 30.6687 2183.53 26.3286C2188.94 23.6343 2195.97 25.651 2198.86 30.9349L2195 33.5002C2191.08 25.8446 2179.78 30.7009 2182.43 38.8445C2184.24 44.3946 2192.72 45.1892 2194.6 39.381Z" fill="white"/>
<path d="M2160.5 25.4941C2161.23 25.7281 2167.52 36.8322 2168.85 38.5102C2169.01 38.728 2168.83 38.9982 2169.46 38.849V25.4941H2174.01V47.6621H2169.33C2166.13 43.3665 2163.71 38.5263 2160.69 34.1217C2160.53 33.8797 2160.74 33.6337 2160.1 33.7749V47.6621H2155.55V25.4941H2160.5Z" fill="white"/>
<path d="M1974.72 25.4941V34.3073H1982.21V25.4941H1987.02V47.6621H1982.21V38.849H1974.72V47.6621H1969.1V25.4941H1974.72Z" fill="white"/>
<path d="M2072.29 0.187938C2087.04 -1.68763 2090.05 20.6336 2075.66 22.7875C2060.2 25.1027 2057.69 2.04334 2072.29 0.187938ZM2073.37 4.72156C2065.96 5.11281 2064.74 16.0597 2071.97 17.9998C2082.16 20.7345 2083.7 4.17705 2073.37 4.72156Z" fill="white"/>
<path d="M1999.8 25.3001C2014.5 23.5092 2017.67 43.9993 2004.62 47.4681C1988.69 51.6992 1984.74 27.1353 1999.8 25.3001ZM2000.6 29.8378C1993.62 30.8058 1992.73 41.0347 1999.59 42.995C2010.27 46.0402 2011.17 28.3776 2000.6 29.8378Z" fill="white"/>
<path d="M2107.03 3.4189C2117.77 14.152 2101.33 30.0923 2090.93 19.6294C2080.53 9.1666 2096.47 -7.1367 2107.03 3.4189ZM2097.16 4.98792C2089.82 6.47627 2091.11 19.6778 2100.24 18.2177C2108.62 16.8746 2107.03 2.98732 2097.16 4.98792Z" fill="white"/>
<path d="M2113.82 22.823V0.384766H2121.17C2124.49 0.384766 2128.92 3.1356 2130.45 6.08003C2134.48 13.8525 2128.75 22.819 2120.1 22.819H2113.82V22.823ZM2118.36 18.2813C2129.68 19.4268 2130 3.42197 2118.36 4.92646V18.2813Z" fill="white"/>
<path d="M2076.9 25.4943V33.2385C2077.35 33.3353 2077.44 33.0974 2077.7 32.8312C2079.56 30.9233 2081.17 28.1927 2083.06 26.1517C2083.22 25.9702 2083.3 25.7322 2083.32 25.4902H2089.2L2082.29 34.2146L2089.74 47.6582H2084.52L2079.04 37.9012L2078.49 37.9456C2078.41 38.4337 2076.9 39.8212 2076.9 40.047V47.6582H2072.35V25.4902H2076.9L2076.9 25.4943Z" fill="white"/>
<path d="M2068.07 25.4941V30.0358H2059.51V34.3073H2068.07V38.849H2059.51V43.1245H2068.07V47.6621H2054.7V25.4941H2068.07Z" fill="white"/>
<path d="M2105.52 25.4941V30.0358H2096.96V34.3073H2105.52V38.849H2096.96V43.1245H2105.52V47.6621H2092.15V25.4941H2105.52Z" fill="white"/>
<path d="M2123.18 25.4941V30.0358H2114.35V33.908L2114.75 34.3073H2123.18V38.849H2114.35V43.1245H2123.18V47.6621H2109.8V25.4941H2123.18Z" fill="white"/>
<path d="M2020.73 25.4943V40.3173C2020.73 41.9024 2022.45 43.5884 2024.06 43.6126C2025.3 43.6328 2027.68 42.1001 2027.68 40.8497V25.4902H2032.49V40.047C2032.49 40.4504 2032.12 42.2251 2031.97 42.7333C2030.2 48.953 2020.61 49.8202 2017.34 44.496C2017.07 44.0523 2016.18 42.0234 2016.18 41.6524V25.4943H2020.73Z" fill="white"/>
<path d="M2039.18 40.4506C2039.74 43.1127 2044.81 44.6858 2046.25 42.302C2048.3 38.8937 2042.13 38.2161 2040.08 37.2964C2036.75 35.8081 2035.03 32.9362 2036.46 29.3182C2038.69 23.6592 2047.88 24.1755 2051.22 28.572L2047.58 31.3551C2045.92 30.1047 2045.34 29.3061 2043.06 29.4957C2040.78 29.6853 2039.84 31.6294 2041.95 33.029C2045.12 35.1345 2050.88 34.711 2051.47 40.0836C2052.47 49.2758 2039.11 50.2721 2034.95 43.7903L2039.19 40.4546L2039.18 40.4506Z" fill="white"/>
<path d="M2132.01 41.5191V47.6621H2127.46V25.4941H2136.96C2137.87 25.4941 2140.7 27.5068 2141.36 28.3055C2145.35 33.0851 2141.88 41.5191 2135.89 41.5191H2132.01ZM2132.01 36.9815H2135.89C2136.45 36.9815 2137.75 35.719 2138.03 35.114C2139.89 30.9918 2135.47 29.1283 2132.01 29.7696V36.9815Z" fill="white"/>
<path d="M2151 25.4941H2146.45V47.6621H2151V25.4941Z" fill="white"/>
<defs>
<clipPath id="clip0_19598_3548">
<rect width="213.783" height="44.3485" fill="white" transform="translate(1553.07 1.82617)"/>
</clipPath>
</defs>
</svg>
