<svg width="20" height="20" viewBox="0 0 20 20" fill="none" xmlns="http://www.w3.org/2000/svg">
<path d="M17.6813 3.9375C17.4299 3.81572 17.1545 3.75166 16.8751 3.75H3.1251C2.84574 3.75166 2.57027 3.81572 2.31885 3.9375L10.0001 11.025L17.6813 3.9375Z" fill="white"/>
<path d="M18.5625 4.8186L10.4375 12.3186C10.3219 12.4258 10.1701 12.4853 10.0125 12.4853C9.85488 12.4853 9.70307 12.4258 9.5875 12.3186L1.4625 4.8186C1.33205 5.068 1.25942 5.34356 1.25 5.62485V14.3749C1.25 14.8721 1.44754 15.349 1.79917 15.7007C2.15081 16.0523 2.62772 16.2499 3.125 16.2499H16.875C17.3723 16.2499 17.8492 16.0523 18.2008 15.7007C18.5525 15.349 18.75 14.8721 18.75 14.3749V5.62485C18.7483 5.34549 18.6843 5.07003 18.5625 4.8186Z" fill="white"/>
</svg>
