<svg width="71" height="71" viewBox="0 0 71 71" fill="none" xmlns="http://www.w3.org/2000/svg">
<g clip-path="url(#clip0_19404_5566)">
<path d="M39.0859 5H31.0945C17.7614 5 11 9.91286 11 19.6003V52.9677C11 58.2209 13.0275 61.6184 17.1978 63.3553C20.8488 64.8759 25.6925 65 31.1831 65H38.9973C44.4897 65 49.3317 64.8759 52.9826 63.3553C57.1529 61.6184 59.1804 58.2209 59.1804 52.9677V19.6003C59.1804 9.91286 52.4208 5 39.0859 5ZM31.0945 6.77232H39.0859C51.4159 6.77232 57.4081 10.9692 57.4081 19.6003V50.3943C56.6176 51.0519 52.3393 53.721 35.0893 53.721C17.8394 53.721 13.561 51.0519 12.7705 50.3943V19.6003C12.7723 10.9692 18.7663 6.77232 31.0945 6.77232ZM38.9973 63.2277H31.1831C20.0619 63.2277 12.7723 62.5134 12.7723 52.9695V52.4999C13.3944 52.826 14.238 53.1804 15.3829 53.526C19.6932 54.8322 26.3234 55.4951 35.0893 55.4951C43.8552 55.4951 50.4854 54.8322 54.7957 53.526C55.9406 53.1786 56.786 52.826 57.4063 52.4999V52.9695C57.4063 62.5134 50.1168 63.2277 38.9955 63.2277H38.9973Z" fill="black"/>
<path d="M31.8177 48.5049H24.5388C24.1394 48.5049 23.8157 48.8286 23.8157 49.228V49.3095C23.8157 49.7089 24.1394 50.0326 24.5388 50.0326H31.8177C32.217 50.0326 32.5408 49.7089 32.5408 49.3095V49.228C32.5408 48.8286 32.217 48.5049 31.8177 48.5049Z" fill="black"/>
<path d="M31.8177 42.832H24.5388C24.1394 42.832 23.8157 43.1558 23.8157 43.5551V43.6367C23.8157 44.036 24.1394 44.3598 24.5388 44.3598H31.8177C32.217 44.3598 32.5408 44.036 32.5408 43.6367V43.5551C32.5408 43.1558 32.217 42.832 31.8177 42.832Z" fill="black"/>
<path d="M31.8177 37.1587H24.5388C24.1394 37.1587 23.8157 37.4824 23.8157 37.8818V37.9633C23.8157 38.3627 24.1394 38.6864 24.5388 38.6864H31.8177C32.217 38.6864 32.5408 38.3627 32.5408 37.9633V37.8818C32.5408 37.4824 32.217 37.1587 31.8177 37.1587Z" fill="black"/>
<path d="M31.8177 31.4873H24.5388C24.1394 31.4873 23.8157 31.8111 23.8157 32.2104V32.2919C23.8157 32.6913 24.1394 33.015 24.5388 33.015H31.8177C32.217 33.015 32.5408 32.6913 32.5408 32.2919V32.2104C32.5408 31.8111 32.217 31.4873 31.8177 31.4873Z" fill="black"/>
<path d="M45.6436 48.5049H38.3647C37.9653 48.5049 37.6416 48.8286 37.6416 49.228V49.3095C37.6416 49.7089 37.9653 50.0326 38.3647 50.0326H45.6436C46.043 50.0326 46.3667 49.7089 46.3667 49.3095V49.228C46.3667 48.8286 46.043 48.5049 45.6436 48.5049Z" fill="black"/>
<path d="M45.6436 42.832H38.3647C37.9653 42.832 37.6416 43.1558 37.6416 43.5551V43.6367C37.6416 44.036 37.9653 44.3598 38.3647 44.3598H45.6436C46.043 44.3598 46.3667 44.036 46.3667 43.6367V43.5551C46.3667 43.1558 46.043 42.832 45.6436 42.832Z" fill="black"/>
<path d="M38.3647 37.1587H45.6436C46.0424 37.1587 46.3667 37.483 46.3667 37.8818V37.9633C46.3667 38.3621 46.0424 38.6864 45.6436 38.6864H38.3647C37.9659 38.6864 37.6416 38.3621 37.6416 37.9633V37.8818C37.6416 37.483 37.9659 37.1587 38.3647 37.1587Z" fill="black"/>
<path d="M45.6436 31.4873H38.3647C37.9653 31.4873 37.6416 31.8111 37.6416 32.2104V32.2919C37.6416 32.6913 37.9653 33.015 38.3647 33.015H45.6436C46.043 33.015 46.3667 32.6913 46.3667 32.2919V32.2104C46.3667 31.8111 46.043 31.4873 45.6436 31.4873Z" fill="black"/>
<path d="M24.9039 45.7671H17.625C17.2256 45.7671 16.9019 46.0908 16.9019 46.4902V46.5717C16.9019 46.9711 17.2256 47.2948 17.625 47.2948H24.9039C25.3032 47.2948 25.627 46.9711 25.627 46.5717V46.4902C25.627 46.0908 25.3032 45.7671 24.9039 45.7671Z" fill="black"/>
<path d="M24.9039 40.0933H17.625C17.2256 40.0933 16.9019 40.417 16.9019 40.8164V40.8979C16.9019 41.2973 17.2256 41.621 17.625 41.621H24.9039C25.3032 41.621 25.627 41.2973 25.627 40.8979V40.8164C25.627 40.417 25.3032 40.0933 24.9039 40.0933Z" fill="black"/>
<path d="M24.9039 34.4204H17.625C17.2256 34.4204 16.9019 34.7442 16.9019 35.1435V35.225C16.9019 35.6244 17.2256 35.9481 17.625 35.9481H24.9039C25.3032 35.9481 25.627 35.6244 25.627 35.225V35.1435C25.627 34.7442 25.3032 34.4204 24.9039 34.4204Z" fill="black"/>
<path d="M24.9039 28.7471H17.625C17.2256 28.7471 16.9019 29.0708 16.9019 29.4702V29.5517C16.9019 29.9511 17.2256 30.2748 17.625 30.2748H24.9039C25.3032 30.2748 25.627 29.9511 25.627 29.5517V29.4702C25.627 29.0708 25.3032 28.7471 24.9039 28.7471Z" fill="black"/>
<path d="M31.4437 45.7705H38.7227C39.1214 45.7705 39.4458 46.0948 39.4458 46.4936V46.5751C39.4458 46.9739 39.1214 47.2982 38.7227 47.2982H31.4437C31.045 47.2982 30.7206 46.9739 30.7206 46.5751V46.4936C30.7206 46.0948 31.045 45.7705 31.4437 45.7705Z" fill="black"/>
<path d="M38.7244 40.0972H31.4455C31.0462 40.0972 30.7224 40.4209 30.7224 40.8203V40.9018C30.7224 41.3012 31.0462 41.6249 31.4455 41.6249H38.7244C39.1238 41.6249 39.4475 41.3012 39.4475 40.9018V40.8203C39.4475 40.4209 39.1238 40.0972 38.7244 40.0972Z" fill="black"/>
<path d="M38.7244 34.4258H31.4455C31.0462 34.4258 30.7224 34.7495 30.7224 35.1489V35.2304C30.7224 35.6298 31.0462 35.9535 31.4455 35.9535H38.7244C39.1238 35.9535 39.4475 35.6298 39.4475 35.2304V35.1489C39.4475 34.7495 39.1238 34.4258 38.7244 34.4258Z" fill="black"/>
<path d="M38.7244 28.7524H31.4455C31.0462 28.7524 30.7224 29.0762 30.7224 29.4755V29.5571C30.7224 29.9564 31.0462 30.2802 31.4455 30.2802H38.7244C39.1238 30.2802 39.4475 29.9564 39.4475 29.5571V29.4755C39.4475 29.0762 39.1238 28.7524 38.7244 28.7524Z" fill="black"/>
<path d="M52.5573 45.7705H45.2784C44.879 45.7705 44.5553 46.0943 44.5553 46.4936V46.5751C44.5553 46.9745 44.879 47.2982 45.2784 47.2982H52.5573C52.9567 47.2982 53.2804 46.9745 53.2804 46.5751V46.4936C53.2804 46.0943 52.9567 45.7705 52.5573 45.7705Z" fill="black"/>
<path d="M52.5573 40.0972H45.2784C44.879 40.0972 44.5553 40.4209 44.5553 40.8203V40.9018C44.5553 41.3012 44.879 41.6249 45.2784 41.6249H52.5573C52.9567 41.6249 53.2804 41.3012 53.2804 40.9018V40.8203C53.2804 40.4209 52.9567 40.0972 52.5573 40.0972Z" fill="black"/>
<path d="M52.5573 34.4258H45.2784C44.879 34.4258 44.5553 34.7495 44.5553 35.1489V35.2304C44.5553 35.6298 44.879 35.9535 45.2784 35.9535H52.5573C52.9567 35.9535 53.2804 35.6298 53.2804 35.2304V35.1489C53.2804 34.7495 52.9567 34.4258 52.5573 34.4258Z" fill="black"/>
<path d="M52.5573 28.7524H45.2784C44.879 28.7524 44.5553 29.0762 44.5553 29.4755V29.5571C44.5553 29.9564 44.879 30.2802 45.2784 30.2802H52.5573C52.9567 30.2802 53.2804 29.9564 53.2804 29.5571V29.4755C53.2804 29.0762 52.9567 28.7524 52.5573 28.7524Z" fill="black"/>
</g>
<defs>
<clipPath id="clip0_19404_5566">
<rect width="48.1804" height="60" fill="white" transform="translate(11 5)"/>
</clipPath>
</defs>
</svg>
