<svg width="140" height="49" viewBox="0 0 140 49" fill="none" xmlns="http://www.w3.org/2000/svg">
<path d="M85.2945 2.17817C85.8869 3.73487 84.7194 4.75367 84.2335 6.19634C83.066 9.66669 82.6099 13.5262 81.5787 17.0461C85.5671 17.2048 89.6299 17.0858 93.6109 17.2866C102.458 17.7303 119.8 18.9796 127.62 22.6731C128.542 23.1093 127.933 24.1356 130.161 23.2482C130.302 23.9125 129.983 23.6745 129.673 23.8629C128.317 24.6884 126.676 25.0701 125.077 25.2263C124.356 25.2957 121.842 25.0726 121.525 25.2709C121.391 25.3552 120.407 27.4473 119.884 27.9678C118.65 29.1924 116.731 29.6559 116.756 27.3382C116.758 27.0482 117.38 25.1816 116.654 25.4816C115.296 26.3244 111.981 30.816 110.326 29.822C108.962 29.004 110.541 24.9908 110.821 23.7439C108.93 25.4766 107.145 27.3159 104.88 28.5826C97.8671 32.4991 100.98 26.8672 100.413 26.2252C99.2329 26.3715 95.4899 29.2246 94.5677 27.9753C94.1439 27.4002 95.1949 26.3789 94.3447 26.4731C92.7656 27.7299 86.7 30.6549 85.178 28.942C84.6748 28.3744 84.707 27.5167 84.5434 26.8425C84.4715 26.5475 84.7293 26.3938 84.179 26.4682C82.9892 26.6318 79.6204 29.3808 78.9859 29.1949C78.733 29.0461 78.6289 28.8602 78.5893 28.5702C78.4851 27.8117 79.1272 25.261 79.2982 24.3116C79.3701 23.9125 79.4073 23.9745 78.9834 23.9992L64.7227 28.8255C67.3007 31.7381 70.2902 35.3597 68.0419 39.3382C65.7936 43.3167 57.0805 43.8348 54.0539 40.4809C53.682 40.0695 53.5655 39.0928 52.9905 39.1424C48.6476 41.1428 44.3642 43.401 39.9221 45.1783C38.2861 45.8327 34.1365 47.8083 32.5997 46.8143C30.9736 45.7633 32.4212 41.4303 32.8104 39.8017C34.3671 33.3246 36.6401 27.0011 38.1919 20.5215C28.755 21.9418 18.0564 22.8144 9.12522 26.2798C6.95873 27.1201 0.563367 29.6584 3.35452 32.6776C6.58443 36.1703 20.7459 38.5078 25.4359 38.1285C26.1002 38.074 28.8913 37.2461 29.0202 37.3774C29.4764 37.841 28.5939 38.7656 28.0337 38.9912C23.4999 40.8057 5.9201 37.4617 2.49189 33.5427C-1.44944 29.0387 6.30184 25.8831 9.55901 24.733C18.6513 21.5204 28.9211 20.4049 38.4522 19.1705C39.7263 16.4487 42.1357 4.02489 44.4559 2.84497C44.6418 2.75078 46.0671 2.3616 46.1241 2.42605C46.201 3.49442 44.9814 3.96044 44.4311 4.82059C43.2214 6.70698 40.2791 15.4101 39.7957 17.7848C39.7114 18.2038 39.6271 18.6053 39.6817 19.0342C44.4534 18.5632 49.2425 18.0005 54.0588 18.0451C53.3895 12.847 57.1747 9.94184 61.2772 7.78774C65.1689 5.74272 71.0239 3.72991 75.4411 4.47108C78.8198 5.03625 79.6651 8.85612 76.9855 10.8565C76.7004 11.0697 75.3841 11.8654 75.1288 11.6002C74.5389 10.9879 76.6136 10.2591 76.9681 9.84765C77.9572 8.70243 77.9547 6.68963 76.5442 5.84683C73.4308 3.99019 66.158 6.52602 63.057 8.08272C59.656 9.79063 54.5323 13.1594 55.4098 17.5617L80.5698 17.0412C81.368 13.2511 81.9927 9.12135 83.242 5.46261C83.3461 5.15524 84.5781 1.50641 85.2895 2.18313L85.2945 2.17817ZM80.0914 18.288L55.799 19.1556C57.7498 22.8441 61.2152 25.2436 64.0956 28.1215L79.3007 23.4514C79.4197 22.7103 80.3864 18.5905 80.0914 18.2905V18.288ZM112.314 20.2736L96.3228 18.7863C91.3354 18.521 86.3207 18.6698 81.3383 18.298L79.8435 27.9554C80.0171 28.1885 83.6138 25.1197 84.9226 25.2188C85.9836 25.3006 85.3267 27.601 85.8175 28.4215C89.4787 28.6024 93.1598 26.4235 96.2806 24.6884C97.8993 23.7885 100.066 21.3692 101.159 24.4826C100.584 24.6165 100.42 23.8803 99.9939 23.7786C98.8784 23.5134 95.4304 26.1013 95.2098 27.4572C95.9187 27.9901 100.554 24.9288 101.285 24.9908C102.564 25.0974 99.9319 28.7214 101.538 28.9594C103.553 29.2568 108.293 25.2114 109.713 23.7464C110.026 23.4242 112.584 20.5091 112.311 20.2736H112.314ZM54.7554 19.3316C49.5102 19.2696 44.146 19.7753 38.9901 20.5735C37.5697 27.2391 35.0958 33.8749 33.8118 40.5528C33.5788 41.765 32.7806 44.7321 33.844 45.5873C34.4241 46.0533 37.6936 44.7891 38.5042 44.5041C43.3677 42.7962 48.1394 40.3545 52.9136 38.3962C53.6622 33.3915 58.9396 30.7838 62.9801 28.6991C63.0768 28.3397 62.8834 28.2876 62.7397 28.0794C61.7134 26.5847 59.252 24.9387 57.896 23.5035C56.7459 22.2839 55.5486 20.8065 54.7504 19.3366L54.7554 19.3316ZM126.443 24.2347C126.128 23.6919 125.265 23.3424 124.703 23.1267C121.225 21.7956 117.113 21.2924 113.466 20.5462C112.809 20.7322 110.762 26.2004 110.643 27.1523C110.574 27.71 110.323 28.9395 111.186 28.9495C112.314 28.9618 115.306 24.9114 116.691 24.79C118.419 24.6388 117.487 26.9019 117.509 27.8265C117.519 28.2008 117.442 28.2653 117.889 28.2058C119.735 27.9579 120.531 24.7181 121.156 24.5124C121.686 24.3364 122.643 24.7578 123.342 24.7528C124.301 24.7454 125.456 24.2868 126.443 24.2347ZM54.3241 38.3814C53.8506 38.9317 55.1272 40.1463 55.566 40.4586C58.1638 42.3078 63.0198 41.8641 65.6374 40.1513C70.0844 37.2436 66.6736 31.6538 63.4709 29.299C60.013 31.3366 55.0677 33.3444 54.0638 37.6229C54.4083 37.96 58.4538 35.6051 59.1528 35.3993C59.661 35.2506 59.6263 35.9001 59.4825 36.1033C59.3387 36.3066 55.8014 37.903 55.2214 38.1707C54.9562 38.2946 54.3538 38.3442 54.3241 38.3789V38.3814Z" fill="black"/>
<path d="M138.897 12.4121C139.712 12.4344 139.834 13.3342 139.207 13.711C138.83 13.9366 137.603 14.006 136.983 14.2117C136.086 14.5116 135.112 14.8116 134.259 15.2057C132.96 15.8056 130.062 18.0712 128.922 18.0712C128.543 18.0712 128.28 18.0117 128.062 17.6771C127.804 16.8616 130.045 16.2443 130.704 15.8626C132.747 14.6852 136.505 12.3427 138.899 12.4096L138.897 12.4121Z" fill="black"/>
</svg>
