<svg width="168" height="32" viewBox="0 0 168 32" fill="none" xmlns="http://www.w3.org/2000/svg">
<rect width="32" height="32" fill="#04B67B"/>
<path d="M20.6802 18.6291L23.417 27.4119L16.004 22.0239L20.6802 18.6291ZM28 13.3099H18.835L16.005 4.58887L13.165 13.3119L4 13.2999L11.422 18.6969L8.582 27.4109L16.004 22.0239L20.587 18.6969L28 13.3099Z" fill="white"/>
<rect width="32" height="32" transform="translate(34)" fill="#04B67B"/>
<path d="M54.6802 18.6291L57.417 27.4119L50.004 22.0239L54.6802 18.6291ZM62 13.3099H52.835L50.005 4.58887L47.165 13.3119L38 13.2999L45.422 18.6969L42.582 27.4109L50.004 22.0239L54.587 18.6969L62 13.3099Z" fill="white"/>
<rect width="32" height="32" transform="translate(68)" fill="#04B67B"/>
<path d="M88.6802 18.6291L91.417 27.4119L84.004 22.0239L88.6802 18.6291ZM96 13.3099H86.835L84.005 4.58887L81.165 13.3119L72 13.2999L79.422 18.6969L76.582 27.4109L84.004 22.0239L88.587 18.6969L96 13.3099Z" fill="white"/>
<rect width="32" height="32" transform="translate(102)" fill="#04B67B"/>
<path d="M122.68 18.6291L125.417 27.4119L118.004 22.0239L122.68 18.6291ZM130 13.3099H120.835L118.005 4.58887L115.165 13.3119L106 13.2999L113.422 18.6969L110.582 27.4109L118.004 22.0239L122.587 18.6969L130 13.3099Z" fill="white"/>
<rect width="16" height="32" transform="translate(152)" fill="#DADBE4"/>
<rect width="16" height="32" transform="translate(136)" fill="#04B67B"/>
<path d="M156.68 19.0403L159.417 27.823L152.004 22.435L156.68 19.0403ZM164 13.721H154.835L152.005 5L149.165 13.723L140 13.711L147.422 19.108L144.582 27.822L152.004 22.435L156.587 19.108L164 13.721Z" fill="white"/>
</svg>
