<svg width="82" height="16" viewBox="0 0 82 16" fill="none" xmlns="http://www.w3.org/2000/svg">
<rect width="15.1558" height="15.1558" rx="2" fill="#1BBA86"/>
<path d="M7.3885 2.27344L8.62197 6.06968L12.6136 6.06968L9.3843 8.41588L10.6178 12.2121L7.3885 9.86592L4.15923 12.2121L5.3927 8.41588L2.16343 6.06968L6.15503 6.06968L7.3885 2.27344Z" fill="white"/>
<rect x="16.6719" width="15.1558" height="15.1558" rx="2" fill="#1BBA86"/>
<path d="M24.0604 2.27344L25.2938 6.06968L29.2855 6.06968L26.0562 8.41588L27.2897 12.2121L24.0604 9.86592L20.8311 12.2121L22.0646 8.41588L18.8353 6.06968L22.8269 6.06968L24.0604 2.27344Z" fill="white"/>
<rect x="33.3428" width="15.1558" height="15.1558" rx="2" fill="#1BBA86"/>
<path d="M40.7313 2.27344L41.9647 6.06968L45.9564 6.06968L42.7271 8.41588L43.9606 12.2121L40.7313 9.86592L37.502 12.2121L38.7355 8.41588L35.5062 6.06968L39.4978 6.06968L40.7313 2.27344Z" fill="white"/>
<rect x="50.0146" width="15.1558" height="15.1558" rx="2" fill="#1BBA86"/>
<path d="M57.4032 2.27344L58.6366 6.06968L62.6282 6.06968L59.399 8.41588L60.6324 12.2121L57.4032 9.86592L54.1739 12.2121L55.4073 8.41588L52.1781 6.06968L56.1697 6.06968L57.4032 2.27344Z" fill="white"/>
<rect x="66.6846" width="15.1558" height="15.1558" rx="2" fill="#1BBA86"/>
<path d="M74.0731 2.27344L75.3065 6.06968L79.2981 6.06968L76.0689 8.41588L77.3023 12.2121L74.0731 9.86592L70.8438 12.2121L72.0773 8.41588L68.848 6.06968L72.8396 6.06968L74.0731 2.27344Z" fill="white"/>
</svg>
