<svg width="89" height="99" viewBox="0 0 89 99" fill="none" xmlns="http://www.w3.org/2000/svg">
<rect width="88.3821" height="98.2023" rx="4" fill="#DAF4A1"/>
<path d="M34.2033 34.1545C34.5398 34.5001 35.0054 34.6729 35.6002 34.6729C36.5024 34.6729 37.1263 34.2309 37.4737 33.3469C37.8193 32.4629 37.9721 31.1005 37.9339 29.2561C37.6065 29.9091 37.079 30.4275 36.3496 30.8113C35.6202 31.1951 34.7835 31.3879 33.8431 31.3879C31.9605 31.3879 30.4672 30.8113 29.3631 29.6599C28.259 28.5067 27.7061 26.8551 27.7061 24.7051C27.7061 23.3027 27.9989 22.0731 28.5846 21.0181C29.1703 19.9613 30.0106 19.141 31.1056 18.5553C32.2006 17.9696 33.5066 17.6768 35.0236 17.6768C37.0972 17.6768 38.7161 18.1097 39.8784 18.9737C41.0406 19.8376 41.8464 21.0145 42.2975 22.5024C42.7486 23.9903 42.9742 25.8019 42.9742 27.9337C42.9742 31.6607 42.4121 34.4691 41.288 36.3608C40.1639 38.2525 38.2668 39.1984 35.5984 39.1984C34.0814 39.1984 32.7791 38.891 31.695 38.2762C30.6091 37.6614 29.7796 36.8556 29.203 35.857C28.6264 34.8584 28.3008 33.7725 28.2244 32.6011H33.5248C33.6394 33.2923 33.865 33.8107 34.2015 34.1563L34.2033 34.1545ZM36.9408 23.1499C36.5461 22.7461 35.9749 22.5442 35.2273 22.5442C34.5361 22.5442 33.9886 22.7316 33.5848 23.1063C33.181 23.481 32.9791 24.043 32.9791 24.7924C32.9791 25.5418 33.1847 26.0548 33.5994 26.4495C34.0123 26.8442 34.5652 27.0406 35.2564 27.0406C35.9094 27.0406 36.4515 26.8496 36.8844 26.464C37.3173 26.0802 37.5319 25.5418 37.5319 24.8506C37.5319 24.1212 37.3355 23.5537 36.9408 23.1517V23.1499Z" fill="black"/>
<path d="M44.3223 28.5673C44.3223 25.3987 44.9989 22.8867 46.354 21.0332C47.7073 19.1797 49.8154 18.2539 52.6784 18.2539C55.5414 18.2539 57.6532 19.1852 59.0156 21.0478C60.3798 22.9104 61.0619 25.4169 61.0619 28.5673C61.0619 31.7176 60.3798 34.2532 59.0156 36.1158C57.6514 37.9784 55.5396 38.9097 52.6784 38.9097C49.8173 38.9097 47.7091 37.9784 46.354 36.1158C45.0007 34.2532 44.3223 31.7376 44.3223 28.5673ZM55.4705 28.5673C55.4705 26.9921 55.2832 25.7734 54.9085 24.9076C54.5338 24.0436 53.7898 23.6107 52.6766 23.6107C51.5634 23.6107 50.8177 24.0436 50.4448 24.9076C50.0701 25.7716 49.8827 26.9921 49.8827 28.5673C49.8827 30.1424 50.0701 31.3902 50.4448 32.2542C50.8195 33.1182 51.5634 33.5511 52.6766 33.5511C53.7898 33.5511 54.5356 33.1182 54.9085 32.2542C55.2832 31.3902 55.4705 30.1606 55.4705 28.5673Z" fill="black"/>
<path d="M17.4081 61.6586C17.8483 62.1261 18.0684 62.7918 18.0684 63.6577V67.2848H16.7805V63.7941C16.7805 63.2521 16.6441 62.8319 16.3731 62.5354C16.102 62.2389 15.7291 62.0897 15.2544 62.0897C14.7505 62.0897 14.3485 62.2498 14.052 62.5699C13.7537 62.8901 13.6064 63.3594 13.6064 63.976V67.2866H12.3185V63.7959C12.3185 63.2539 12.1821 62.8337 11.911 62.5372C11.64 62.2389 11.2671 62.0915 10.7923 62.0915C10.2885 62.0915 9.88647 62.2516 9.58997 62.5717C9.29165 62.8919 9.14431 63.3612 9.14431 63.9778V67.2884H7.85645V61.0638H9.14431V62.3626C9.30256 61.9114 9.56632 61.564 9.93558 61.3239C10.3048 61.0838 10.7378 60.9619 11.2344 60.9619C11.7309 60.9619 12.2039 61.0892 12.5841 61.3457C12.9642 61.6022 13.2407 61.9715 13.4135 62.4535C13.5936 61.986 13.8847 61.6222 14.283 61.3585C14.6814 61.0947 15.1343 60.9637 15.6382 60.9637C16.3767 60.9637 16.9661 61.1966 17.4063 61.6641L17.4081 61.6586Z" fill="black"/>
<path d="M24.0453 61.3643C24.5274 61.6208 24.9039 61.99 25.1749 62.4721C25.446 62.9541 25.5824 63.5198 25.5824 64.1674C25.5824 64.8149 25.446 65.3916 25.1749 65.8736C24.9039 66.3557 24.5274 66.7249 24.0453 66.9814C23.5633 67.2379 23.0212 67.3652 22.4191 67.3652C21.817 67.3652 21.2768 67.2379 20.7984 66.9814C20.32 66.7249 19.9434 66.3538 19.6688 65.8682C19.3941 65.3825 19.2559 64.8149 19.2559 64.1674C19.2559 63.5198 19.3941 62.9541 19.6688 62.4721C19.9434 61.99 20.32 61.6208 20.7984 61.3643C21.2768 61.1078 21.817 60.9805 22.4191 60.9805C23.0212 60.9805 23.5633 61.1078 24.0453 61.3643ZM21.5042 62.3247C21.2259 62.4757 21.0021 62.7067 20.8311 63.0196C20.662 63.3325 20.5765 63.7144 20.5765 64.1656C20.5765 64.6167 20.662 65.0096 20.8311 65.317C21.0003 65.6262 21.224 65.8554 21.5042 66.0064C21.7825 66.1574 22.0881 66.232 22.4191 66.232C22.7502 66.232 23.0558 66.1574 23.3341 66.0064C23.6124 65.8554 23.8361 65.6262 24.0071 65.317C24.1763 65.0078 24.2618 64.624 24.2618 64.1656C24.2618 63.7072 24.1763 63.3325 24.0071 63.0196C23.838 62.7067 23.6142 62.4757 23.3341 62.3247C23.0558 62.1737 22.7502 62.0992 22.4191 62.0992C22.0881 62.0992 21.7825 62.1737 21.5042 62.3247Z" fill="black"/>
<path d="M32.0428 61.6585C32.4794 62.126 32.6977 62.7917 32.6977 63.6576V67.2847H31.4098V63.794C31.4098 63.2374 31.2661 62.8063 30.9805 62.5007C30.6949 62.1951 30.302 62.0441 29.8054 62.0441C29.3089 62.0441 28.8832 62.2078 28.574 62.5352C28.2647 62.8627 28.1101 63.3429 28.1101 63.9759V67.2865H26.8223V61.0618H28.1101V62.4279C28.2757 61.9604 28.554 61.6003 28.9469 61.3438C29.338 61.0873 29.7909 60.96 30.302 60.96C31.0242 60.96 31.6045 61.1928 32.041 61.6603L32.0428 61.6585Z" fill="black"/>
<path d="M39.9384 64.4256H35.149C35.1708 65.0658 35.3491 65.5406 35.6801 65.848C36.0112 66.1573 36.4223 66.3119 36.9116 66.3119C37.3409 66.3119 37.7047 66.2027 38.0012 65.9844C38.2995 65.7662 38.4814 65.4751 38.5487 65.115H39.9275C39.8439 65.5515 39.6711 65.939 39.4073 66.2791C39.1435 66.6175 38.8016 66.883 38.3796 67.0759C37.9575 67.2687 37.4864 67.3633 36.968 67.3633C36.3659 67.3633 35.8329 67.2359 35.3691 66.9794C34.9052 66.723 34.5432 66.3537 34.2795 65.8717C34.0157 65.3896 33.8848 64.8203 33.8848 64.1654C33.8848 63.5106 34.0157 62.9521 34.2795 62.4701C34.5432 61.9881 34.907 61.6188 35.3691 61.3623C35.8329 61.1058 36.3641 60.9785 36.968 60.9785C37.5719 60.9785 38.1103 61.104 38.5669 61.3569C39.0217 61.6097 39.3727 61.9553 39.6183 62.3955C39.8639 62.8357 39.9857 63.3269 39.9857 63.8689C39.9857 64.0799 39.9712 64.2637 39.9403 64.4219L39.9384 64.4256ZM38.476 62.8157C38.3213 62.5411 38.1103 62.3373 37.8429 62.2064C37.5755 62.0754 37.2845 62.0081 36.968 62.0081C36.4641 62.0081 36.0421 62.1627 35.702 62.4719C35.3636 62.7812 35.1781 63.2359 35.149 63.838H38.6851C38.6997 63.4305 38.6306 63.0904 38.476 62.8157Z" fill="black"/>
<path d="M41.9608 61.0586L43.8253 65.6334L45.5533 61.0586H46.9885L43.2268 70.2428H41.7916L43.1358 67.1359L40.5146 61.0586H41.9608Z" fill="black"/>
<path d="M51.607 62.6514V63.7355H46.9521V62.6514H51.607Z" fill="black"/>
<path d="M58.5721 61.3641C58.9978 61.6206 59.3306 61.9898 59.5726 62.4719C59.8127 62.9539 59.9345 63.5196 59.9345 64.1672C59.9345 64.8148 59.8145 65.3914 59.5726 65.8734C59.3324 66.3555 58.9978 66.7247 58.5721 66.9812C58.1465 67.2377 57.6626 67.365 57.1205 67.365C56.5785 67.365 56.0728 67.225 55.6744 66.9467C55.276 66.6683 54.9959 66.2991 54.8377 65.8389V67.285H53.5498V58.9248H54.8377V62.5064C54.9959 62.048 55.2742 61.6788 55.6744 61.3987C56.0728 61.1204 56.5548 60.9803 57.1205 60.9803C57.6862 60.9803 58.1465 61.1076 58.5721 61.3641ZM55.7526 62.3646C55.467 62.5337 55.2397 62.7757 55.0741 63.0867C54.9086 63.3996 54.8249 63.7597 54.8249 64.1654C54.8249 64.571 54.9086 64.9403 55.0741 65.2495C55.2397 65.5587 55.4652 65.797 55.7526 65.9662C56.04 66.1354 56.362 66.2209 56.724 66.2209C57.297 66.2209 57.7554 66.039 58.1028 65.6733C58.4484 65.3077 58.623 64.8057 58.623 64.1654C58.623 63.5251 58.4502 63.0321 58.1028 62.6629C57.7572 62.2936 57.297 62.1099 56.724 62.1099C56.362 62.1099 56.0382 62.1954 55.7526 62.3646Z" fill="black"/>
<path d="M65.1176 61.3988C65.5159 61.6771 65.7997 62.0464 65.9652 62.5066V61.0605H67.2531V67.2852H65.9652V65.8391C65.7997 66.2993 65.5177 66.6685 65.1176 66.9468C64.7192 67.2251 64.2372 67.3652 63.6714 67.3652C63.1057 67.3652 62.6455 67.2379 62.2199 66.9814C61.7942 66.7249 61.4613 66.3557 61.2194 65.8736C60.9775 65.3916 60.8574 64.8222 60.8574 64.1674C60.8574 63.5125 60.9775 62.9541 61.2194 62.4721C61.4595 61.99 61.7942 61.6208 62.2199 61.3643C62.6455 61.1078 63.1294 60.9805 63.6714 60.9805C64.2135 60.9805 64.7174 61.1205 65.1176 61.3988ZM62.6946 62.6594C62.3527 63.025 62.1798 63.5271 62.1798 64.1674C62.1798 64.8077 62.3508 65.3097 62.6946 65.6753C63.0366 66.041 63.495 66.2229 64.068 66.2229C64.43 66.2229 64.7537 66.1374 65.0393 65.9682C65.3249 65.799 65.5505 65.5589 65.7178 65.2515C65.8852 64.9441 65.967 64.5803 65.967 64.1674C65.967 63.7545 65.8834 63.4016 65.7178 63.0887C65.5523 62.7758 65.3267 62.5357 65.0393 62.3666C64.7537 62.1974 64.43 62.1119 64.068 62.1119C63.495 62.1119 63.0384 62.2938 62.6946 62.6594Z" fill="black"/>
<path d="M73.5677 61.6189C74.0952 62.0446 74.4226 62.623 74.5499 63.3525H73.1839C73.1093 62.9614 72.9256 62.654 72.6363 62.432C72.3471 62.2101 71.9833 62.0992 71.5468 62.0992C71.0502 62.0992 70.6354 62.2738 70.3044 62.6249C69.9733 62.9759 69.8078 63.4889 69.8078 64.1674C69.8078 64.8459 69.9733 65.3607 70.3044 65.7154C70.6354 66.0701 71.0502 66.2465 71.5468 66.2465C71.9833 66.2465 72.3471 66.1337 72.6363 65.9082C72.9256 65.6826 73.1093 65.3734 73.1839 64.9823H74.5499C74.4226 65.7135 74.0934 66.292 73.5677 66.7213C73.0402 67.1506 72.3744 67.3652 71.5686 67.3652C70.9665 67.3652 70.4335 67.2379 69.9697 66.9814C69.5058 66.7249 69.1438 66.3557 68.8801 65.8736C68.6163 65.3916 68.4854 64.8222 68.4854 64.1674C68.4854 63.5125 68.6163 62.9541 68.8801 62.4721C69.1438 61.99 69.5076 61.6208 69.9697 61.3643C70.4335 61.1078 70.9647 60.9805 71.5686 60.9805C72.3744 60.9805 73.0402 61.1933 73.5677 61.6189Z" fill="black"/>
<path d="M79.3172 67.283L77.0799 64.5145V67.283H75.792V58.9229H77.0799V63.7123L79.2936 61.0584H80.8416L78.1294 64.1543L80.9089 67.283H79.3154H79.3172Z" fill="black"/>
<path d="M18.5267 71.7192C18.9251 71.9975 19.2089 72.3667 19.3744 72.8269V71.3808H20.6623V77.6728C20.6623 78.2531 20.544 78.766 20.3057 79.2153C20.0693 79.6628 19.7273 80.0157 19.2834 80.2722C18.8396 80.5286 18.3121 80.656 17.7027 80.656C16.8296 80.656 16.1238 80.4486 15.5854 80.0339C15.047 79.6191 14.7104 79.0589 14.574 78.3513H15.851C15.9565 78.7205 16.1602 79.0079 16.4603 79.2153C16.7623 79.4227 17.1461 79.5264 17.6118 79.5264C18.1229 79.5264 18.5449 79.3681 18.8778 79.0516C19.2089 78.7351 19.3744 78.2749 19.3744 77.6728V76.1594C19.2089 76.6196 18.9269 76.9888 18.5267 77.2672C18.1284 77.5455 17.6463 77.6855 17.0806 77.6855C16.5149 77.6855 16.0547 77.5582 15.629 77.3017C15.2034 77.0452 14.8705 76.676 14.6286 76.1939C14.3867 75.7119 14.2666 75.1425 14.2666 74.4877C14.2666 73.8329 14.3867 73.2744 14.6286 72.7924C14.8687 72.3103 15.2034 71.9411 15.629 71.6846C16.0547 71.4281 16.5386 71.3008 17.0806 71.3008C17.6227 71.3008 18.1265 71.4408 18.5267 71.7192ZM16.1038 72.9797C15.7618 73.3454 15.589 73.8474 15.589 74.4877C15.589 75.128 15.76 75.63 16.1038 75.9957C16.4458 76.3613 16.9042 76.5432 17.4772 76.5432C17.8391 76.5432 18.1629 76.4577 18.4485 76.2885C18.7341 76.1194 18.9597 75.8792 19.127 75.5718C19.2925 75.2626 19.3762 74.9006 19.3762 74.4877C19.3762 74.0748 19.2925 73.7219 19.127 73.409C18.9615 73.0961 18.7359 72.856 18.4485 72.6869C18.1629 72.5177 17.8391 72.4322 17.4772 72.4322C16.9042 72.4322 16.4476 72.6141 16.1038 72.9797Z" fill="black"/>
<path d="M27.9471 71.3809V77.6055H26.6484V76.2504C26.4901 76.7106 26.2154 77.0653 25.8244 77.3181C25.4333 77.571 24.9767 77.6965 24.4583 77.6965C23.7361 77.6965 23.1559 77.4636 22.7193 76.9962C22.2827 76.5287 22.0645 75.8629 22.0645 74.9971V71.3827H23.3523V74.8625C23.3523 75.4282 23.496 75.8629 23.7816 76.1667C24.0672 76.4723 24.4601 76.6251 24.9567 76.6251C25.4533 76.6251 25.8789 76.4595 26.1882 76.1285C26.4974 75.7974 26.652 75.3154 26.652 74.6824V71.3845H27.9508L27.9471 71.3809Z" fill="black"/>
<path d="M33.4369 71.7192C33.8353 71.9975 34.119 72.3667 34.2846 72.8269V71.3808H35.5724V77.6055H34.2846V76.1594C34.119 76.6196 33.8371 76.9888 33.4369 77.2672C33.0385 77.5455 32.5565 77.6855 31.9908 77.6855C31.4251 77.6855 30.9648 77.5582 30.5392 77.3017C30.1136 77.0452 29.7807 76.676 29.5387 76.1939C29.2968 75.7119 29.1768 75.1425 29.1768 74.4877C29.1768 73.8329 29.2968 73.2744 29.5387 72.7924C29.7789 72.3103 30.1136 71.9411 30.5392 71.6846C30.9648 71.4281 31.4487 71.3008 31.9908 71.3008C32.5328 71.3008 33.0367 71.4408 33.4369 71.7192ZM31.014 72.9797C30.672 73.3454 30.4992 73.8474 30.4992 74.4877C30.4992 75.128 30.6702 75.63 31.014 75.9957C31.3559 76.3613 31.8143 76.5432 32.3873 76.5432C32.7493 76.5432 33.0731 76.4577 33.3587 76.2885C33.6443 76.1194 33.8698 75.8792 34.0372 75.5718C34.2027 75.2626 34.2864 74.9006 34.2864 74.4877C34.2864 74.0748 34.2027 73.7219 34.0372 73.409C33.8716 73.0961 33.6461 72.856 33.3587 72.6869C33.0731 72.5177 32.7493 72.4322 32.3873 72.4322C31.8143 72.4322 31.3578 72.6141 31.014 72.9797Z" fill="black"/>
<path d="M39.3111 71.6358C39.7021 71.3994 40.1551 71.2793 40.6662 71.2793V72.6799H40.2824C39.7167 72.6799 39.2638 72.8182 38.9218 73.0929C38.5798 73.3675 38.407 73.8223 38.407 74.4535V77.6058H37.1191V71.3812H38.407V72.6017C38.618 72.1943 38.92 71.8723 39.3111 71.6358Z" fill="black"/>
<path d="M45.5707 71.7192C45.969 71.9975 46.2528 72.3667 46.4183 72.8269V71.3808H47.7062V77.6055H46.4183V76.1594C46.2528 76.6196 45.9709 76.9888 45.5707 77.2672C45.1723 77.5455 44.6903 77.6855 44.1246 77.6855C43.5588 77.6855 43.0986 77.5582 42.673 77.3017C42.2473 77.0452 41.9145 76.676 41.6725 76.1939C41.4306 75.7119 41.3105 75.1425 41.3105 74.4877C41.3105 73.8329 41.4306 73.2744 41.6725 72.7924C41.9126 72.3103 42.2473 71.9411 42.673 71.6846C43.0986 71.4281 43.5825 71.3008 44.1246 71.3008C44.6666 71.3008 45.1705 71.4408 45.5707 71.7192ZM43.1478 72.9797C42.8058 73.3454 42.633 73.8474 42.633 74.4877C42.633 75.128 42.804 75.63 43.1478 75.9957C43.4897 76.3613 43.9481 76.5432 44.5211 76.5432C44.8831 76.5432 45.2069 76.4577 45.4925 76.2885C45.778 76.1194 46.0036 75.8792 46.171 75.5718C46.3383 75.2644 46.4202 74.9006 46.4202 74.4877C46.4202 74.0748 46.3365 73.7219 46.171 73.409C46.0054 73.0961 45.7799 72.856 45.4925 72.6869C45.2069 72.5177 44.8831 72.4322 44.5211 72.4322C43.9481 72.4322 43.4915 72.6141 43.1478 72.9797Z" fill="black"/>
<path d="M54.4725 71.9788C54.9091 72.4463 55.1274 73.112 55.1274 73.9779V77.605H53.8395V74.1143C53.8395 73.5577 53.6958 73.1266 53.4102 72.821C53.1246 72.5154 52.7317 72.3644 52.2351 72.3644C51.7385 72.3644 51.3129 72.5281 51.0037 72.8555C50.6944 73.183 50.5398 73.6632 50.5398 74.2962V77.6068H49.252V71.3821H50.5398V72.7482C50.7053 72.2807 50.9837 71.9206 51.3766 71.6641C51.7676 71.4076 52.2206 71.2803 52.7317 71.2803C53.4557 71.2803 54.0341 71.5131 54.4707 71.9806L54.4725 71.9788Z" fill="black"/>
<path d="M59.757 76.487V77.6057H58.9657C58.3036 77.6057 57.7997 77.4456 57.4577 77.1254C57.1157 76.8053 56.9429 76.2723 56.9429 75.5265V72.476H56.0498V71.381H56.9429V69.833H58.2417V71.381H59.7442V72.476H58.2417V75.5484C58.2417 75.9031 58.3072 76.1468 58.44 76.2832C58.571 76.4197 58.8038 76.487 59.1349 76.487H59.757Z" fill="black"/>
<path d="M66.7041 74.7478H61.9146C61.9364 75.3881 62.1147 75.8629 62.4458 76.1703C62.7768 76.4795 63.1879 76.6341 63.6772 76.6341C64.1065 76.6341 64.4703 76.525 64.7668 76.3067C65.0633 76.0884 65.247 75.7974 65.3143 75.4372H66.6932C66.6095 75.8738 66.4367 76.2612 66.1729 76.6014C65.9092 76.9397 65.5672 77.2053 65.1452 77.3981C64.7232 77.5909 64.252 77.6855 63.7336 77.6855C63.1315 77.6855 62.5986 77.5582 62.1347 77.3017C61.6709 77.0452 61.3089 76.676 61.0451 76.1939C60.7814 75.7119 60.6504 75.1425 60.6504 74.4877C60.6504 73.8329 60.7814 73.2744 61.0451 72.7924C61.3089 72.3103 61.6727 71.9411 62.1347 71.6846C62.5986 71.4281 63.1297 71.3008 63.7336 71.3008C64.3375 71.3008 64.876 71.4263 65.3325 71.6791C65.7873 71.932 66.1384 72.2776 66.3839 72.7178C66.6277 73.158 66.7514 73.6491 66.7514 74.1912C66.7514 74.4022 66.7368 74.5859 66.7059 74.7442L66.7041 74.7478ZM65.2416 73.138C65.087 72.8633 64.876 72.6596 64.6086 72.5286C64.3412 72.3976 64.0501 72.3303 63.7336 72.3303C63.2297 72.3303 62.8077 72.485 62.4676 72.7942C62.1292 73.1034 61.9437 73.5582 61.9146 74.1603H65.4508C65.4653 73.7528 65.3962 73.4127 65.2416 73.138Z" fill="black"/>
<path d="M73.7314 74.7478H68.942C68.9638 75.3881 69.142 75.8629 69.4731 76.1703C69.8042 76.4795 70.2153 76.6341 70.7046 76.6341C71.1339 76.6341 71.4977 76.525 71.7942 76.3067C72.0907 76.0884 72.2744 75.7974 72.3417 75.4372H73.7205C73.6368 75.8738 73.464 76.2612 73.2003 76.6014C72.9365 76.9397 72.5945 77.2053 72.1725 77.3981C71.7505 77.5909 71.2794 77.6855 70.761 77.6855C70.1589 77.6855 69.6259 77.5582 69.1621 77.3017C68.6982 77.0452 68.3362 76.676 68.0725 76.1939C67.8087 75.7119 67.6777 75.1425 67.6777 74.4877C67.6777 73.8329 67.8087 73.2744 68.0725 72.7924C68.3362 72.3103 68.7 71.9411 69.1621 71.6846C69.6259 71.4281 70.1571 71.3008 70.761 71.3008C71.3649 71.3008 71.9033 71.4263 72.3599 71.6791C72.8146 71.932 73.1657 72.2776 73.4113 72.7178C73.655 73.158 73.7787 73.6491 73.7787 74.1912C73.7787 74.4022 73.7642 74.5859 73.7332 74.7442L73.7314 74.7478ZM72.2689 73.138C72.1143 72.8633 71.9033 72.6596 71.6359 72.5286C71.3685 72.3976 71.0775 72.3303 70.761 72.3303C70.2571 72.3303 69.8351 72.485 69.4949 72.7942C69.1566 73.1034 68.9711 73.5582 68.942 74.1603H72.4781C72.4927 73.7528 72.4235 73.4127 72.2689 73.138Z" fill="black"/>
<path d="M38.5829 51.2181C38.0045 52.224 37.1805 53.0153 36.1109 53.5901C35.0431 54.1649 33.788 54.4523 32.3455 54.4523H26.8994V41.1826H32.3455C33.7862 41.1826 35.045 41.4609 36.12 42.0175C37.195 42.5742 38.019 43.3509 38.592 44.3513C39.165 45.3518 39.4506 46.4941 39.4506 47.782C39.4506 49.0699 39.1614 50.2158 38.5811 51.2218L38.5829 51.2181ZM34.643 50.2722C35.2869 49.6847 35.6089 48.8534 35.6089 47.7802C35.6089 46.707 35.2869 45.8902 34.643 45.2972C33.999 44.7042 33.1168 44.4077 31.9981 44.4077H30.7048V51.1563H31.9981C33.1186 51.1563 33.999 50.8634 34.643 50.2759V50.2722Z" fill="black"/>
<path d="M47.8512 52.2405H43.0053L42.2522 54.4524H38.2559L43.2563 41.2373H47.6402L52.6224 54.4524H48.6061L47.853 52.2405H47.8512ZM46.9053 49.4665L45.4373 45.1555L43.9512 49.4665H46.9053Z" fill="black"/>
<path d="M61.8626 41.1807L57.0349 50.2339V54.4504H53.2495V50.2339L48.4219 41.1807H52.7675L55.1813 46.2412L57.5752 41.1807H61.8626Z" fill="black"/>
</svg>
