<svg width="20" height="20" viewBox="0 0 20 20" fill="none" xmlns="http://www.w3.org/2000/svg">
<path fill-rule="evenodd" clip-rule="evenodd" d="M12.0871 12.8908C11.7974 13.9494 10.8283 14.7027 9.18065 15.1518C9.05137 15.1868 8.91723 15.1158 8.87348 14.9894C8.02686 12.5224 6.66989 10.1632 4.80547 7.91396C4.75881 7.85855 4.74035 7.79343 4.74909 7.7215C4.75784 7.64957 4.79186 7.59125 4.84921 7.54751C5.48104 7.07705 6.35974 6.72226 7.48441 6.48315C7.5612 6.46662 7.63508 6.48412 7.69631 6.53369C8.70431 7.34242 9.47608 8.18613 10.175 9.35453C10.2226 9.43521 10.3042 9.47992 10.3976 9.47797C10.4909 9.47603 10.5706 9.4284 10.6163 9.34578C13.3886 4.29311 16.5175 1.44515 19.5424 0.458508C19.6541 0.42157 19.7727 0.46434 19.8359 0.564458C19.8991 0.664576 19.8865 0.789968 19.8058 0.875506C16.3395 4.53717 13.7695 8.53401 12.0948 12.8655C12.0919 12.8743 12.089 12.8821 12.0871 12.8908ZM0 9.50539C0 14.7554 4.25638 19.0118 9.50638 19.0118C14.7564 19.0118 19.0128 14.7554 19.0128 9.50539C19.0128 8.8765 18.9515 8.26217 18.8349 7.6673C18.691 7.32417 18.3518 7.0831 17.9562 7.0831C17.4303 7.0831 17.0036 7.50981 17.0036 8.03568C17.0959 8.51101 17.1445 9.00284 17.1445 9.50537C17.1445 13.7239 13.725 17.1435 9.50645 17.1435C5.28789 17.1435 1.86835 13.7239 1.86835 9.50537C1.86835 5.28681 5.28789 1.86727 9.50645 1.86727C10.5183 1.86727 11.4855 2.06459 12.3691 2.4223C12.8697 2.55644 13.3848 2.259 13.52 1.7584C13.6366 1.32099 13.4257 0.873854 13.0378 0.677495C12.9815 0.655139 12.9251 0.632782 12.8687 0.611397C11.8238 0.215793 10.6904 1.66422e-07 9.5074 1.66422e-07C4.25566 -0.000971797 0 4.25565 0 9.50539Z" fill="#EC4807"/>
</svg>
