<svg width="92" height="102" viewBox="0 0 92 102" fill="none" xmlns="http://www.w3.org/2000/svg">
<rect width="91.3764" height="101.245" rx="4" fill="black"/>
<path d="M35.3619 35.212C35.7098 35.5683 36.1912 35.7464 36.8061 35.7464C37.7389 35.7464 38.3839 35.2907 38.7431 34.3793C39.1004 33.4679 39.2584 32.0633 39.2189 30.1618C38.8804 30.835 38.335 31.3695 37.5809 31.7652C36.8268 32.1608 35.9618 32.3596 34.9895 32.3596C33.0432 32.3596 31.4992 31.7652 30.3577 30.5781C29.2162 29.3892 28.6445 27.6864 28.6445 25.4698C28.6445 24.0239 28.9473 22.7562 29.5528 21.6686C30.1584 20.579 31.0272 19.7332 32.1593 19.1294C33.2914 18.5256 34.6416 18.2236 36.21 18.2236C38.3538 18.2236 40.0275 18.67 41.2292 19.5607C42.4309 20.4515 43.264 21.6648 43.7304 23.1988C44.1967 24.7328 44.4299 26.6006 44.4299 28.7984C44.4299 32.6409 43.8488 35.5364 42.6866 37.4867C41.5245 39.437 39.563 40.4122 36.8043 40.4122C35.2359 40.4122 33.8894 40.0952 32.7686 39.4614C31.6459 38.8275 30.7884 37.9968 30.1922 36.9672C29.5961 35.9377 29.2595 34.8181 29.1805 33.6105H34.6604C34.7789 34.3231 35.0121 34.8575 35.36 35.2138L35.3619 35.212ZM38.1921 23.8664C37.784 23.4501 37.1935 23.2419 36.4206 23.2419C35.706 23.2419 35.14 23.4351 34.7225 23.8214C34.305 24.2077 34.0963 24.7872 34.0963 25.5598C34.0963 26.3324 34.3088 26.8613 34.7375 27.2682C35.1644 27.6751 35.7361 27.8777 36.4507 27.8777C37.1258 27.8777 37.6862 27.6808 38.1338 27.2832C38.5814 26.8875 38.8033 26.3324 38.8033 25.6198C38.8033 24.8678 38.6002 24.2827 38.1921 23.8683V23.8664Z" fill="white"/>
<path d="M45.8237 29.4513C45.8237 26.1845 46.5233 23.5947 47.9243 21.6838C49.3234 19.7729 51.503 18.8184 54.463 18.8184C57.423 18.8184 59.6063 19.7785 61.0149 21.6988C62.4253 23.6191 63.1305 26.2033 63.1305 29.4513C63.1305 32.6993 62.4253 35.3135 61.0149 37.2338C59.6044 39.1541 57.4211 40.1142 54.463 40.1142C51.5049 40.1142 49.3253 39.1541 47.9243 37.2338C46.5252 35.3135 45.8237 32.7199 45.8237 29.4513ZM57.3497 29.4513C57.3497 27.8273 57.156 26.5708 56.7686 25.6782C56.3812 24.7874 55.612 24.3411 54.4611 24.3411C53.3102 24.3411 52.5392 24.7874 52.1537 25.6782C51.7663 26.569 51.5726 27.8273 51.5726 29.4513C51.5726 31.0753 51.7663 32.3618 52.1537 33.2525C52.5411 34.1433 53.3102 34.5896 54.4611 34.5896C55.612 34.5896 56.3831 34.1433 56.7686 33.2525C57.156 32.3618 57.3497 31.0941 57.3497 29.4513Z" fill="white"/>
<path d="M17.9978 63.5679C18.4529 64.0499 18.6805 64.7362 18.6805 65.6289V69.3684H17.349V65.7696C17.349 65.2107 17.2079 64.7775 16.9277 64.4718C16.6475 64.1661 16.262 64.0123 15.7711 64.0123C15.2502 64.0123 14.8346 64.1774 14.528 64.5074C14.2196 64.8375 14.0673 65.3214 14.0673 65.9571V69.3703H12.7358V65.7715C12.7358 65.2126 12.5947 64.7794 12.3145 64.4737C12.0343 64.1661 11.6488 64.0142 11.1579 64.0142C10.637 64.0142 10.2214 64.1793 9.91481 64.5093C9.60638 64.8394 9.45405 65.3232 9.45405 65.959V69.3722H8.12256V62.9546H9.45405V64.2937C9.61767 63.8286 9.89036 63.4704 10.2721 63.2228C10.6539 62.9753 11.1015 62.8496 11.6149 62.8496C12.1283 62.8496 12.6173 62.9809 13.0103 63.2453C13.4034 63.5097 13.6893 63.8904 13.8679 64.3874C14.0541 63.9055 14.355 63.5304 14.7669 63.2584C15.1787 62.9865 15.647 62.8515 16.1679 62.8515C16.9315 62.8515 17.5408 63.0915 17.9959 63.5735L17.9978 63.5679Z" fill="white"/>
<path d="M24.8599 63.2639C25.3583 63.5283 25.7476 63.909 26.0278 64.406C26.308 64.903 26.4491 65.4862 26.4491 66.1538C26.4491 66.8215 26.308 67.416 26.0278 67.9129C25.7476 68.4099 25.3583 68.7906 24.8599 69.0551C24.3616 69.3195 23.8011 69.4508 23.1786 69.4508C22.5561 69.4508 21.9976 69.3195 21.503 69.0551C21.0084 68.7906 20.6191 68.408 20.3351 67.9073C20.0511 67.4066 19.9082 66.8215 19.9082 66.1538C19.9082 65.4862 20.0511 64.903 20.3351 64.406C20.6191 63.909 21.0084 63.5283 21.503 63.2639C21.9976 62.9994 22.5561 62.8682 23.1786 62.8682C23.8011 62.8682 24.3616 62.9994 24.8599 63.2639ZM22.2327 64.2541C21.9449 64.4097 21.7136 64.6479 21.5368 64.9705C21.3619 65.293 21.2736 65.6869 21.2736 66.152C21.2736 66.6171 21.3619 67.0221 21.5368 67.3391C21.7117 67.6579 21.9431 67.8942 22.2327 68.0498C22.5204 68.2055 22.8364 68.2824 23.1786 68.2824C23.5209 68.2824 23.8369 68.2055 24.1246 68.0498C24.4123 67.8942 24.6437 67.6579 24.8204 67.3391C24.9953 67.0203 25.0837 66.6246 25.0837 66.152C25.0837 65.6794 24.9953 65.293 24.8204 64.9705C24.6455 64.6479 24.4142 64.4097 24.1246 64.2541C23.8369 64.0984 23.5209 64.0215 23.1786 64.0215C22.8364 64.0215 22.5204 64.0984 22.2327 64.2541Z" fill="white"/>
<path d="M33.1284 63.5678C33.5798 64.0498 33.8054 64.7362 33.8054 65.6289V69.3684H32.4739V65.7695C32.4739 65.1956 32.3254 64.7512 32.0301 64.4361C31.7348 64.121 31.3286 63.9654 30.8152 63.9654C30.3018 63.9654 29.8617 64.1342 29.542 64.4717C29.2223 64.8093 29.0625 65.3044 29.0625 65.957V69.3702H27.731V62.9527H29.0625V64.3611C29.2336 63.8791 29.5213 63.5078 29.9275 63.2434C30.3319 62.9789 30.8002 62.8477 31.3286 62.8477C32.0752 62.8477 32.6752 63.0877 33.1265 63.5697L33.1284 63.5678Z" fill="white"/>
<path d="M41.291 66.4201H36.3393C36.3618 67.0802 36.5461 67.5697 36.8884 67.8866C37.2307 68.2054 37.6557 68.3648 38.1616 68.3648C38.6054 68.3648 38.9816 68.2523 39.2881 68.0273C39.5965 67.8022 39.7846 67.5022 39.8542 67.1308H41.2797C41.1932 67.5809 41.0145 67.9804 40.7419 68.3311C40.4692 68.6799 40.1156 68.9537 39.6793 69.1525C39.243 69.3513 38.7559 69.4488 38.2199 69.4488C37.5974 69.4488 37.0464 69.3175 36.5668 69.0531C36.0873 68.7887 35.713 68.408 35.4403 67.911C35.1676 67.414 35.0322 66.827 35.0322 66.1519C35.0322 65.4767 35.1676 64.901 35.4403 64.404C35.713 63.9071 36.0891 63.5263 36.5668 63.2619C37.0464 62.9975 37.5955 62.8662 38.2199 62.8662C38.8443 62.8662 39.401 62.9956 39.873 63.2563C40.3432 63.517 40.7061 63.8733 40.96 64.3271C41.2139 64.781 41.3399 65.2873 41.3399 65.8462C41.3399 66.0637 41.3249 66.2532 41.2929 66.4163L41.291 66.4201ZM39.779 64.7603C39.6191 64.4772 39.401 64.2671 39.1245 64.1321C38.848 63.9971 38.5471 63.9277 38.2199 63.9277C37.699 63.9277 37.2627 64.0871 36.911 64.4059C36.5612 64.7247 36.3694 65.1936 36.3393 65.8143H39.9952C40.0103 65.3942 39.9388 65.0435 39.779 64.7603Z" fill="white"/>
<path d="M43.3823 62.9482L45.31 67.6648L47.0966 62.9482H48.5804L44.6912 72.417H43.2074L44.5972 69.2139L41.8872 62.9482H43.3823Z" fill="white"/>
<path d="M53.3546 64.5918V65.7095H48.542V64.5918H53.3546Z" fill="white"/>
<path d="M60.5557 63.2639C60.9958 63.5283 61.34 63.909 61.5901 64.406C61.8383 64.903 61.9643 65.4862 61.9643 66.1539C61.9643 66.8215 61.8402 67.416 61.5901 67.913C61.3418 68.41 60.9958 68.7907 60.5557 69.0551C60.1157 69.3195 59.6154 69.4508 59.055 69.4508C58.4946 69.4508 57.9717 69.3064 57.5599 69.0195C57.148 68.7325 56.8584 68.3518 56.6948 67.8773V69.3683H55.3633V60.749H56.6948V64.4416C56.8584 63.9691 57.1461 63.5883 57.5599 63.2995C57.9717 63.0126 58.4701 62.8682 59.055 62.8682C59.6399 62.8682 60.1157 62.9995 60.5557 63.2639ZM57.6407 64.2954C57.3455 64.4698 57.1104 64.7192 56.9393 65.0399C56.7681 65.3625 56.6816 65.7338 56.6816 66.152C56.6816 66.5702 56.7681 66.9509 56.9393 67.2697C57.1104 67.5885 57.3436 67.8342 57.6407 68.0086C57.9379 68.183 58.2707 68.2712 58.645 68.2712C59.2374 68.2712 59.7113 68.0836 60.0705 67.7067C60.4278 67.3297 60.6084 66.8121 60.6084 66.152C60.6084 65.4919 60.4297 64.9836 60.0705 64.6029C59.7132 64.2222 59.2374 64.0328 58.645 64.0328C58.2707 64.0328 57.936 64.121 57.6407 64.2954Z" fill="white"/>
<path d="M67.3234 63.2995C67.7353 63.5864 68.0287 63.9671 68.1998 64.4416V62.9507H69.5313V69.3682H68.1998V67.8773C68.0287 68.3518 67.7372 68.7325 67.3234 69.0194C66.9115 69.3064 66.4132 69.4508 65.8283 69.4508C65.2434 69.4508 64.7676 69.3195 64.3275 69.0551C63.8875 68.7906 63.5433 68.4099 63.2932 67.9129C63.0431 67.416 62.9189 66.829 62.9189 66.1538C62.9189 65.4787 63.0431 64.903 63.2932 64.406C63.5414 63.909 63.8875 63.5283 64.3275 63.2639C64.7676 62.9994 65.2679 62.8682 65.8283 62.8682C66.3887 62.8682 66.9097 63.0126 67.3234 63.2995ZM64.8184 64.5991C64.4648 64.9761 64.2862 65.4937 64.2862 66.1538C64.2862 66.814 64.463 67.3316 64.8184 67.7085C65.172 68.0855 65.6459 68.273 66.2383 68.273C66.6125 68.273 66.9473 68.1849 67.2425 68.0105C67.5378 67.8361 67.771 67.5885 67.944 67.2716C68.117 66.9546 68.2017 66.5795 68.2017 66.1538C68.2017 65.7281 68.1152 65.3643 67.944 65.0417C67.7729 64.7192 67.5397 64.4716 67.2425 64.2972C66.9473 64.1228 66.6125 64.0347 66.2383 64.0347C65.6459 64.0347 65.1738 64.2222 64.8184 64.5991Z" fill="white"/>
<path d="M76.0602 63.5264C76.6056 63.9653 76.9441 64.5616 77.0757 65.3137H75.6634C75.5863 64.9105 75.3963 64.5935 75.0973 64.3647C74.7983 64.1359 74.4221 64.0215 73.9708 64.0215C73.4574 64.0215 73.0286 64.2016 72.6863 64.5635C72.344 64.9255 72.1729 65.4543 72.1729 66.1538C72.1729 66.8534 72.344 67.3841 72.6863 67.7498C73.0286 68.1155 73.4574 68.2974 73.9708 68.2974C74.4221 68.2974 74.7983 68.1811 75.0973 67.9486C75.3963 67.716 75.5863 67.3972 75.6634 66.994H77.0757C76.9441 67.7479 76.6037 68.3443 76.0602 68.7869C75.5148 69.2295 74.8265 69.4508 73.9934 69.4508C73.3709 69.4508 72.8198 69.3195 72.3403 69.0551C71.8607 68.7906 71.4865 68.4099 71.2138 67.9129C70.9411 67.416 70.8057 66.829 70.8057 66.1538C70.8057 65.4787 70.9411 64.903 71.2138 64.406C71.4865 63.909 71.8626 63.5283 72.3403 63.2639C72.8198 62.9994 73.369 62.8682 73.9934 62.8682C74.8265 62.8682 75.5148 63.0876 76.0602 63.5264Z" fill="white"/>
<path d="M82.0045 69.3663L79.6914 66.512V69.3663H78.3599V60.7471H79.6914V65.6849L81.9801 62.9488H83.5805L80.7765 66.1407L83.6501 69.3663H82.0027H82.0045Z" fill="white"/>
<path d="M19.154 73.9411C19.5658 74.228 19.8592 74.6087 20.0304 75.0832V73.5923H21.3618V80.0792C21.3618 80.6775 21.2396 81.2063 20.9932 81.6696C20.7488 82.1309 20.3952 82.4947 19.9363 82.7592C19.4774 83.0236 18.9321 83.1549 18.302 83.1549C17.3993 83.1549 16.6696 82.9411 16.113 82.5135C15.5563 82.0859 15.2084 81.5083 15.0673 80.7788H16.3875C16.4966 81.1595 16.7073 81.4558 17.0176 81.6696C17.3298 81.8834 17.7266 81.9902 18.208 81.9902C18.7365 81.9902 19.1728 81.8271 19.5169 81.5008C19.8592 81.1745 20.0304 80.7 20.0304 80.0792V78.5189C19.8592 78.9934 19.5677 79.3741 19.154 79.661C18.7421 79.948 18.2437 80.0924 17.6589 80.0924C17.074 80.0924 16.5982 79.9611 16.1581 79.6967C15.718 79.4322 15.3739 79.0515 15.1238 78.5545C14.8736 78.0576 14.7495 77.4706 14.7495 76.7954C14.7495 76.1203 14.8736 75.5446 15.1238 75.0476C15.372 74.5506 15.718 74.1699 16.1581 73.9055C16.5982 73.641 17.0984 73.5098 17.6589 73.5098C18.2193 73.5098 18.7402 73.6542 19.154 73.9411ZM16.649 75.2407C16.2954 75.6177 16.1167 76.1353 16.1167 76.7954C16.1167 77.4556 16.2935 77.9732 16.649 78.3501C17.0025 78.7271 17.4764 78.9146 18.0688 78.9146C18.4431 78.9146 18.7778 78.8265 19.0731 78.6521C19.3684 78.4777 19.6016 78.2301 19.7746 77.9132C19.9457 77.5944 20.0322 77.2212 20.0322 76.7954C20.0322 76.3697 19.9457 76.0059 19.7746 75.6833C19.6034 75.3608 19.3702 75.1132 19.0731 74.9388C18.7778 74.7644 18.4431 74.6763 18.0688 74.6763C17.4764 74.6763 17.0044 74.8638 16.649 75.2407Z" fill="white"/>
<path d="M28.894 73.5908V80.0084H27.5512V78.6112C27.3876 79.0857 27.1036 79.4514 26.6993 79.7121C26.295 79.9728 25.8229 80.1021 25.2869 80.1021C24.5403 80.1021 23.9404 79.8621 23.489 79.3801C23.0377 78.8982 22.812 78.2118 22.812 77.3191V73.5927H24.1435V77.1803C24.1435 77.7635 24.2921 78.2118 24.5873 78.525C24.8826 78.84 25.2888 78.9976 25.8022 78.9976C26.3156 78.9976 26.7557 78.8269 27.0754 78.4856C27.3951 78.1443 27.555 77.6473 27.555 76.9946V73.5946H28.8978L28.894 73.5908Z" fill="white"/>
<path d="M34.57 73.9411C34.9818 74.228 35.2752 74.6087 35.4464 75.0832V73.5923H36.7779V80.0098H35.4464V78.5189C35.2752 78.9934 34.9837 79.3741 34.57 79.661C34.1581 79.948 33.6598 80.0924 33.0749 80.0924C32.49 80.0924 32.0142 79.9611 31.5741 79.6967C31.1341 79.4322 30.7899 79.0515 30.5398 78.5545C30.2897 78.0576 30.1655 77.4706 30.1655 76.7954C30.1655 76.1203 30.2897 75.5446 30.5398 75.0476C30.788 74.5506 31.1341 74.1699 31.5741 73.9055C32.0142 73.641 32.5144 73.5098 33.0749 73.5098C33.6353 73.5098 34.1562 73.6542 34.57 73.9411ZM32.065 75.2407C31.7114 75.6177 31.5328 76.1353 31.5328 76.7954C31.5328 77.4556 31.7095 77.9732 32.065 78.3501C32.4185 78.7271 32.8925 78.9146 33.4849 78.9146C33.8591 78.9146 34.1939 78.8265 34.4891 78.6521C34.7844 78.4777 35.0176 78.2301 35.1906 77.9132C35.3617 77.5944 35.4482 77.2212 35.4482 76.7954C35.4482 76.3697 35.3617 76.0059 35.1906 75.6833C35.0195 75.3608 34.7863 75.1132 34.4891 74.9388C34.1939 74.7644 33.8591 74.6763 33.4849 74.6763C32.8925 74.6763 32.4204 74.8638 32.065 75.2407Z" fill="white"/>
<path d="M40.6431 73.8539C41.0475 73.6101 41.5157 73.4863 42.0442 73.4863V74.9304H41.6474C41.0625 74.9304 40.5942 75.0729 40.2407 75.3561C39.8871 75.6393 39.7084 76.1081 39.7084 76.7589V80.0089H38.377V73.5913H39.7084V74.8497C39.9266 74.4296 40.2388 74.0977 40.6431 73.8539Z" fill="white"/>
<path d="M47.1144 73.9411C47.5263 74.228 47.8197 74.6087 47.9908 75.0832V73.5923H49.3223V80.0098H47.9908V78.5189C47.8197 78.9934 47.5282 79.3741 47.1144 79.661C46.7026 79.948 46.2042 80.0924 45.6193 80.0924C45.0344 80.0924 44.5586 79.9611 44.1186 79.6967C43.6785 79.4322 43.3343 79.0515 43.0842 78.5545C42.8341 78.0576 42.71 77.4706 42.71 76.7954C42.71 76.1203 42.8341 75.5446 43.0842 75.0476C43.3325 74.5506 43.6785 74.1699 44.1186 73.9055C44.5586 73.641 45.0589 73.5098 45.6193 73.5098C46.1797 73.5098 46.7007 73.6542 47.1144 73.9411ZM44.6094 75.2407C44.2558 75.6177 44.0772 76.1353 44.0772 76.7954C44.0772 77.4556 44.254 77.9732 44.6094 78.3501C44.963 78.7271 45.4369 78.9146 46.0293 78.9146C46.4035 78.9146 46.7383 78.8265 47.0336 78.6521C47.3288 78.4777 47.562 78.2301 47.735 77.9132C47.9081 77.5962 47.9927 77.2212 47.9927 76.7954C47.9927 76.3697 47.9062 76.0059 47.735 75.6833C47.5639 75.3608 47.3307 75.1132 47.0336 74.9388C46.7383 74.7644 46.4035 74.6763 46.0293 74.6763C45.4369 74.6763 44.9649 74.8638 44.6094 75.2407Z" fill="white"/>
<path d="M56.3183 74.2075C56.7697 74.6894 56.9954 75.3758 56.9954 76.2685V80.008H55.6639V76.4091C55.6639 75.8353 55.5153 75.3908 55.22 75.0758C54.9248 74.7607 54.5186 74.605 54.0051 74.605C53.4917 74.605 53.0517 74.7738 52.732 75.1114C52.4122 75.449 52.2524 75.9441 52.2524 76.5967V80.0099H50.9209V73.5923H52.2524V75.0007C52.4235 74.5188 52.7113 74.1474 53.1175 73.883C53.5218 73.6186 53.9901 73.4873 54.5186 73.4873C55.2671 73.4873 55.8651 73.7274 56.3165 74.2093L56.3183 74.2075Z" fill="white"/>
<path d="M61.7815 78.8562V80.0096H60.9634C60.2788 80.0096 59.7579 79.8446 59.4043 79.5145C59.0508 79.1844 58.8721 78.635 58.8721 77.866V74.721H57.9487V73.592H58.8721V71.9961H60.2149V73.592H61.7683V74.721H60.2149V77.8885C60.2149 78.2542 60.2826 78.5055 60.4199 78.6462C60.5553 78.7869 60.796 78.8562 61.1383 78.8562H61.7815Z" fill="white"/>
<path d="M68.9634 77.0636H64.0116C64.0342 77.7238 64.2185 78.2132 64.5608 78.5302C64.9031 78.849 65.3281 79.0084 65.834 79.0084C66.2778 79.0084 66.6539 78.8959 66.9605 78.6708C67.267 78.4458 67.457 78.1457 67.5266 77.7744H68.9521C68.8656 78.2245 68.6869 78.6239 68.4142 78.9746C68.1415 79.3235 67.788 79.5973 67.3517 79.7961C66.9153 79.9948 66.4283 80.0924 65.8923 80.0924C65.2698 80.0924 64.7188 79.9611 64.2392 79.6967C63.7596 79.4322 63.3854 79.0515 63.1127 78.5545C62.84 78.0576 62.7046 77.4706 62.7046 76.7954C62.7046 76.1203 62.84 75.5446 63.1127 75.0476C63.3854 74.5506 63.7615 74.1699 64.2392 73.9055C64.7188 73.641 65.2679 73.5098 65.8923 73.5098C66.5166 73.5098 67.0733 73.6392 67.5454 73.8998C68.0155 74.1605 68.3785 74.5168 68.6324 74.9707C68.8844 75.4245 69.0123 75.9309 69.0123 76.4898C69.0123 76.7073 68.9972 76.8967 68.9652 77.0599L68.9634 77.0636ZM67.4513 75.4039C67.2915 75.1207 67.0733 74.9107 66.7969 74.7756C66.5204 74.6406 66.2195 74.5712 65.8923 74.5712C65.3713 74.5712 64.935 74.7306 64.5833 75.0495C64.2335 75.3683 64.0417 75.8371 64.0116 76.4579H67.6676C67.6826 76.0378 67.6112 75.6871 67.4513 75.4039Z" fill="white"/>
<path d="M76.229 77.0636H71.2773C71.2998 77.7238 71.4841 78.2132 71.8264 78.5302C72.1687 78.849 72.5937 79.0084 73.0996 79.0084C73.5434 79.0084 73.9196 78.8959 74.2261 78.6708C74.5327 78.4458 74.7226 78.1457 74.7922 77.7744H76.2177C76.1312 78.2245 75.9525 78.6239 75.6798 78.9746C75.4072 79.3235 75.0536 79.5973 74.6173 79.7961C74.181 79.9948 73.6939 80.0924 73.1579 80.0924C72.5354 80.0924 71.9844 79.9611 71.5048 79.6967C71.0253 79.4322 70.651 79.0515 70.3783 78.5545C70.1056 78.0576 69.9702 77.4706 69.9702 76.7954C69.9702 76.1203 70.1056 75.5446 70.3783 75.0476C70.651 74.5506 71.0271 74.1699 71.5048 73.9055C71.9844 73.641 72.5335 73.5098 73.1579 73.5098C73.7823 73.5098 74.3389 73.6392 74.811 73.8998C75.2811 74.1605 75.6441 74.5168 75.898 74.9707C76.15 75.4245 76.2779 75.9309 76.2779 76.4898C76.2779 76.7073 76.2628 76.8967 76.2309 77.0599L76.229 77.0636ZM74.717 75.4039C74.5571 75.1207 74.3389 74.9107 74.0625 74.7756C73.786 74.6406 73.4851 74.5712 73.1579 74.5712C72.637 74.5712 72.2007 74.7306 71.849 75.0495C71.4992 75.3683 71.3074 75.8371 71.2773 76.4579H74.9332C74.9483 76.0378 74.8768 75.6871 74.717 75.4039Z" fill="white"/>
<path d="M39.8904 52.8045C39.2924 53.8416 38.4404 54.6574 37.3346 55.25C36.2307 55.8426 34.933 56.1389 33.4417 56.1389H27.811V42.458H33.4417C34.9311 42.458 36.2325 42.7449 37.344 43.3188C38.4555 43.8927 39.3074 44.6935 39.8998 45.7249C40.4922 46.7564 40.7875 47.9341 40.7875 49.2619C40.7875 50.5897 40.4884 51.7712 39.8885 52.8082L39.8904 52.8045ZM35.8169 51.8293C36.4827 51.2235 36.8155 50.3665 36.8155 49.26C36.8155 48.1535 36.4827 47.3115 35.8169 46.7001C35.1512 46.0887 34.2391 45.7831 33.0825 45.7831H31.7453V52.7407H33.0825C34.2409 52.7407 35.1512 52.4388 35.8169 51.833V51.8293Z" fill="white"/>
<path d="M49.4721 53.8579H44.4621L43.6835 56.1383H39.5518L44.7216 42.5137H49.254L54.4051 56.1383H50.2526L49.474 53.8579H49.4721ZM48.4942 50.9979L46.9765 46.5532L45.44 50.9979H48.4942Z" fill="white"/>
<path d="M63.9586 42.4561L58.9673 51.7898V56.137H55.0537V51.7898L50.0625 42.4561H54.5553L57.051 47.6734L59.5259 42.4561H63.9586Z" fill="white"/>
</svg>
