<svg width="37" height="37" viewBox="0 0 37 37" fill="none" xmlns="http://www.w3.org/2000/svg">
<path d="M18.022 7.12047C18.3959 7.12047 18.6992 7.42229 18.6992 7.79618V17.3448L26.9082 17.3463C27.2806 17.3463 27.5839 17.6481 27.5839 18.022C27.5839 18.3959 27.2806 18.6977 26.9082 18.6977H18.0219C17.6495 18.6977 17.3462 18.3959 17.3462 18.022V7.79607C17.3462 7.42217 17.6481 7.12047 18.022 7.12047ZM18.022 3.68486C10.1041 3.68486 3.6849 10.104 3.6849 18.022C3.6849 25.9399 10.1041 32.3591 18.022 32.3591C25.94 32.3591 32.3591 25.9399 32.3591 18.022C32.3591 10.104 25.9415 3.68486 18.022 3.68486ZM18.022 2.2824C26.7146 2.2824 33.7615 9.3293 33.7615 18.0218C33.7615 26.7144 26.7146 33.7613 18.022 33.7613C9.32949 33.7613 2.28259 26.7144 2.28259 18.0218C2.28259 9.3293 9.32949 2.2824 18.022 2.2824ZM18.022 0C8.06788 0 0 8.06941 0 18.022C0 27.9746 8.06941 36.044 18.022 36.044C27.9746 36.044 36.0441 27.9746 36.0441 18.022C36.0441 8.06788 27.9746 0 18.022 0Z" fill="black"/>
</svg>
