<svg width="36" height="37" viewBox="0 0 36 37" fill="none" xmlns="http://www.w3.org/2000/svg">
<path d="M32.6831 2.38867H29.5741V5.42191C29.5741 6.97644 28.3228 8.26557 26.7304 8.26557H24.0005C22.408 8.26557 21.1568 6.97644 21.1568 5.42191V2.38867H14.787V5.42191C14.787 6.97644 13.5358 8.26557 11.9434 8.26557H9.21345C7.62101 8.26557 6.3698 6.97644 6.3698 5.42191V2.38867H3.26073C1.44079 2.38867 0 3.86737 0 5.6494V12.095C0 12.5121 0.341239 12.8154 0.720394 12.8154H35.2235C35.6405 12.8154 35.9438 12.4742 35.9438 12.095V5.6494C35.9438 3.82946 34.5031 2.38867 32.6831 2.38867Z" fill="black"/>
<path d="M32.8348 31.3185C32.8348 32.1905 32.1144 32.873 31.2802 32.873H4.70152C3.82946 32.873 3.14698 32.1526 3.14698 31.3185V16.5314C3.14698 16.1144 2.80574 15.811 2.42659 15.811H0.720394C0.303324 15.811 0 16.1523 0 16.5314V31.3185C0 33.9346 2.08535 36.02 4.70152 36.02H31.2423C33.8206 36.02 35.9438 33.9346 35.9438 31.3185V16.5314C35.9438 16.1144 35.6026 15.811 35.2235 15.811H33.5552C33.1381 15.811 32.8348 16.1523 32.8348 16.5314V31.3185Z" fill="black"/>
<path d="M7.65875 21.8015H11.9432C12.4361 21.8015 12.8532 21.3844 12.8532 20.8915V17.3275C12.8532 16.8346 12.4361 16.4175 11.9432 16.4175H7.65875C7.16585 16.4175 6.74878 16.8346 6.74878 17.3275V20.8915C6.78669 21.3844 7.16585 21.8015 7.65875 21.8015Z" fill="black"/>
<path d="M24.0005 21.8015H28.285C28.7779 21.8015 29.195 21.3844 29.195 20.8915V17.3275C29.195 16.8346 28.7779 16.4175 28.285 16.4175H24.0005C23.5076 16.4175 23.0906 16.8346 23.0906 17.3275V20.8915C23.0906 21.3844 23.4697 21.8015 24.0005 21.8015Z" fill="black"/>
<path d="M23.0906 28.3607C23.0906 28.8536 23.5076 29.2707 24.0005 29.2707H28.285C28.7779 29.2707 29.195 28.8536 29.195 28.3607V24.7967C29.195 24.3038 28.7779 23.8867 28.285 23.8867H24.0005C23.5076 23.8867 23.0906 24.3038 23.0906 24.7967V28.3607Z" fill="black"/>
<path d="M15.8106 21.8015H20.0951C20.588 21.8015 21.005 21.3844 21.005 20.8915V17.3275C21.005 16.8346 20.588 16.4175 20.0951 16.4175H15.8106C15.3177 16.4175 14.9006 16.8346 14.9006 17.3275V20.8915C14.9386 21.3844 15.3177 21.8015 15.8106 21.8015Z" fill="black"/>
<path d="M6.78669 28.3607C6.78669 28.8536 7.20376 29.2707 7.69667 29.2707H11.9811C12.474 29.2707 12.8911 28.8536 12.8911 28.3607V24.7967C12.8911 24.3038 12.474 23.8867 11.9811 23.8867H7.65875C7.16585 23.8867 6.74878 24.3038 6.74878 24.7967V28.3607H6.78669Z" fill="black"/>
<path d="M14.9385 28.3607C14.9385 28.8536 15.3556 29.2707 15.8485 29.2707H20.133C20.6259 29.2707 21.0429 28.8536 21.0429 28.3607V24.7967C21.0429 24.3038 20.6259 23.8867 20.133 23.8867H15.8106C15.3177 23.8867 14.9006 24.3038 14.9006 24.7967V28.3607H14.9385Z" fill="black"/>
<path d="M9.21359 6.3698H11.9435C12.4743 6.3698 12.8914 5.95273 12.8914 5.42191V1.13746C12.8914 0.530816 12.3985 0 11.7539 0H9.36525C8.72068 0 8.22778 0.530816 8.22778 1.13746V5.38399C8.22778 5.91481 8.68277 6.3698 9.21359 6.3698Z" fill="black"/>
<path d="M24.0005 6.3698H26.7304C27.2612 6.3698 27.6782 5.95273 27.6782 5.42191V1.13746C27.6782 0.530816 27.1853 0 26.5408 0H24.1521C23.5076 0 23.0146 0.530816 23.0146 1.13746V5.38399C23.0526 5.91481 23.4696 6.3698 24.0005 6.3698Z" fill="black"/>
</svg>
