<svg width="32" height="37" viewBox="0 0 32 37" fill="none" xmlns="http://www.w3.org/2000/svg">
<path d="M15.7018 2.26644C19.8963 5.15464 26.5839 6.55495 29.4349 7.04587C29.5434 8.04501 29.5989 9.03802 29.5989 10.0098C29.5989 19.9701 24.2904 29.0878 15.6816 34.0302C7.07218 29.0864 1.76327 19.9691 1.76327 10.0098C1.76327 9.04775 1.81878 8.06231 1.92727 7.06497C4.83818 6.60253 11.6559 5.25088 15.7018 2.26644ZM15.6542 0C11.3928 4.21678 0.353231 5.50788 0.353231 5.50788C0.126875 6.97775 0 8.4779 0 10.0098C0 21.3013 6.35815 31.0998 15.6813 36.0439C25.0058 31.0994 31.3618 21.3013 31.3618 10.0098C31.3618 8.4779 31.2371 6.97775 31.0111 5.50788C31.0111 5.50788 20.2617 4.08738 15.6542 0Z" fill="black"/>
<path d="M5.09314 9.37673C4.93635 10.3946 4.84912 11.432 4.84912 12.4902C4.84912 20.2876 9.24288 27.0545 15.6814 30.4696C22.1203 27.0541 26.5133 20.2876 26.5133 12.4902C26.5133 11.432 26.4243 10.3946 26.2704 9.37673C26.2704 9.37673 18.8446 8.39669 15.6619 5.57373C12.7179 8.48536 5.09314 9.37673 5.09314 9.37673Z" fill="black"/>
</svg>
