<svg width="37" height="37" viewBox="0 0 37 37" fill="none" xmlns="http://www.w3.org/2000/svg">
<path d="M21.8099 2.9472C16.3611 1.49876 10.8156 3.02853 6.93024 6.52907L8.39162 6.40875C9.0529 6.35426 9.63314 6.8462 9.68762 7.50747C9.74211 8.16881 9.25012 8.74905 8.58884 8.80354L4.06887 9.17581C3.59609 9.21473 3.14466 8.9718 2.91667 8.5558C2.68867 8.1398 2.7268 7.62864 3.01398 7.25102C7.38745 1.50109 14.9865 -1.35299 22.4272 0.62495C32.218 3.2276 38.0424 13.2191 35.4137 22.9518C35.2407 23.5924 34.5812 23.9715 33.9405 23.7985C33.3 23.6254 32.9209 22.9659 33.0939 22.3252C35.3715 13.8925 30.3297 5.21199 21.8099 2.9472Z" fill="black"/>
<path d="M2.93096 14.0023C3.10397 13.3618 2.72493 12.7022 2.08435 12.5292C1.44376 12.3562 0.784198 12.7352 0.611184 13.3758C-1.97902 22.966 3.90625 32.8117 13.677 35.409C21.1055 37.3837 28.6848 34.6188 33.0361 28.9725C33.3257 28.5966 33.367 28.0855 33.1414 27.668C32.9159 27.2505 32.4657 27.0049 31.9925 27.0412L27.4797 27.3872C26.818 27.4379 26.3228 28.0154 26.3736 28.677C26.4243 29.3386 27.0018 29.8338 27.6634 29.783L29.0998 29.6729C25.2424 33.0645 19.7322 34.5323 14.2944 33.0867C5.75453 30.8166 0.702469 22.2533 2.93096 14.0023Z" fill="black"/>
<path fill-rule="evenodd" clip-rule="evenodd" d="M30.037 18.0223C30.037 24.6577 24.658 30.0368 18.0225 30.0368C11.3871 30.0368 6.00806 24.6577 6.00806 18.0223C6.00806 11.3869 11.3871 6.00781 18.0225 6.00781C24.658 6.00781 30.037 11.3869 30.037 18.0223ZM22.2393 21.7727C22.8176 22.098 23.5502 21.8929 23.8755 21.3146C24.2008 20.7363 23.9957 20.0037 23.4173 19.6784L19.224 17.3196V10.5132C19.224 9.84968 18.6861 9.3118 18.0225 9.3118C17.359 9.3118 16.8211 9.84968 16.8211 10.5132V18.0223C16.8211 18.4563 17.0552 18.8566 17.4335 19.0695L22.2393 21.7727Z" fill="black"/>
</svg>
