<svg width="51" height="37" viewBox="0 0 51 37" fill="none" xmlns="http://www.w3.org/2000/svg">
<path d="M25.0645 3.6044C24.6874 3.6044 24.3214 3.62659 23.9554 3.65986V1.10905C23.9554 0.499071 24.4545 0 25.0645 0C25.6744 0 26.1735 0.499071 26.1735 1.10905V3.65986C25.8075 3.62659 25.4415 3.6044 25.0645 3.6044ZM25.0645 36.044C26.3011 36.044 27.338 35.2233 27.6929 34.1032H22.436C22.7909 35.2233 23.8279 36.044 25.0645 36.044ZM35.2178 27.6763C34.7354 27.1938 34.4692 26.5506 34.4692 25.8685V15.2272C34.4692 10.0424 30.2493 5.8225 25.0645 5.8225C19.8797 5.8225 15.6597 10.0424 15.6597 15.2272V25.8685C15.6597 26.5506 15.3936 27.1938 14.9111 27.6763L12.133 30.4544C12.0664 30.5154 12.0332 30.6042 12.0332 30.6929V31.5413C12.0332 31.7298 12.1884 31.8851 12.377 31.8851H37.752C37.9405 31.8851 38.0958 31.7298 38.0958 31.5413V30.6929C38.0958 30.6042 38.0625 30.5154 37.996 30.4544L35.2178 27.6763ZM9.87607 11.6339C9.44354 11.2014 8.73929 11.2014 8.30677 11.6339C6.52674 13.4139 5.54524 15.7817 5.54524 18.2993C5.54524 20.8168 6.52674 23.1846 8.30677 24.9647C8.52303 25.1809 8.80584 25.2918 9.08864 25.2918C9.37145 25.2918 9.65426 25.1809 9.87052 24.9647C10.3031 24.5321 10.3031 23.8279 9.87052 23.3954C8.50639 22.0312 7.75779 20.2235 7.75779 18.2993C7.75779 16.3751 8.50639 14.5618 9.87052 13.2032C10.3086 12.7707 10.3086 12.0664 9.87607 11.6339ZM2.21809 18.2993C2.21809 14.8945 3.54341 11.6894 5.95558 9.28273C6.38811 8.8502 6.38811 8.14595 5.95558 7.71342C5.52306 7.2809 4.81881 7.2809 4.38628 7.71342C1.55821 10.5415 0 14.3012 0 18.2993C0 22.2974 1.55821 26.0571 4.38628 28.8851C4.60255 29.1014 4.88535 29.2123 5.16816 29.2123C5.45097 29.2123 5.73377 29.1014 5.95004 28.8851C6.38257 28.4526 6.38257 27.7484 5.95004 27.3158C3.54895 24.9092 2.21809 21.7041 2.21809 18.2993ZM41.8222 11.6339C41.3896 11.2014 40.6854 11.2014 40.2529 11.6339C39.8203 12.0664 39.8203 12.7707 40.2529 13.2032C43.0643 16.0146 43.0643 20.5895 40.2529 23.3954C39.8203 23.8279 39.8203 24.5321 40.2529 24.9647C40.4691 25.1809 40.7519 25.2918 41.0348 25.2918C41.3176 25.2918 41.6004 25.1809 41.8166 24.9647C45.4987 21.2882 45.4987 15.3104 41.8222 11.6339ZM45.7427 7.71342C45.3101 7.2809 44.6059 7.2809 44.1734 7.71342C43.7408 8.14595 43.7408 8.8502 44.1734 9.28273C46.58 11.6894 47.9108 14.8945 47.9108 18.2993C47.9108 21.7041 46.5855 24.9092 44.1734 27.3158C43.7408 27.7484 43.7408 28.4526 44.1734 28.8851C44.3896 29.1014 44.6724 29.2123 44.9552 29.2123C45.238 29.2123 45.5208 29.1014 45.7371 28.8851C48.5652 26.0571 50.1234 22.2974 50.1234 18.2993C50.1234 14.3012 48.5707 10.5415 45.7427 7.71342Z" fill="black"/>
</svg>
