<svg width="20" height="37" viewBox="0 0 20 37" fill="none" xmlns="http://www.w3.org/2000/svg">
<path fill-rule="evenodd" clip-rule="evenodd" d="M6.80959 2.54462e-06H12.6948C13.235 2.54462e-06 13.6746 0.439496 13.6746 0.979732V2.45976L5.82951 2.45802V0.977995C5.82951 0.439502 6.2711 2.54462e-06 6.80959 2.54462e-06ZM11.1559 11.0531L9.34059 17.701H14.9359C15.259 17.701 15.5352 17.8695 15.6846 18.1562C15.8322 18.4428 15.8114 18.7659 15.6238 19.0299L8.94786 28.4817C8.85232 28.6172 8.67861 28.6623 8.52921 28.5928C8.37982 28.5234 8.30512 28.3583 8.34855 28.1985L10.1638 21.5506L4.56856 21.5489C4.24545 21.5489 3.96923 21.3804 3.81985 21.0938C3.67219 20.8071 3.69304 20.484 3.88065 20.22L10.5566 10.77C10.6521 10.6345 10.8258 10.5894 10.9752 10.6589C11.1246 10.7301 11.1993 10.8951 11.1559 11.0531ZM2.54462e-06 5.24263V34.0097C2.54462e-06 35.1301 0.913738 36.0439 2.03417 36.0439L17.4721 36.0421C18.5925 36.0421 19.5063 35.1284 19.5063 34.008L19.5045 5.24267C19.5045 4.12224 18.5908 3.2085 17.4704 3.2085L2.03244 3.21024C0.913735 3.21024 2.54462e-06 4.1222 2.54462e-06 5.24263Z" fill="black"/>
</svg>
