<svg width="148" height="37" viewBox="0 0 148 37" fill="none" xmlns="http://www.w3.org/2000/svg">
<g clip-path="url(#clip0_50_4059)">
<path d="M56.1695 11.4789C55.9778 13.0227 55.4464 14.3146 54.5793 15.3504C53.2128 16.9863 51.3429 17.8062 48.9735 17.8062C46.9078 17.8062 45.1617 17.1862 43.7353 15.9504C42.9362 15.2505 42.3009 14.3945 41.8254 13.3827C41.282 12.2068 41.0063 10.9189 41.0063 9.52307C41.0063 7.93925 41.3659 6.4954 42.0891 5.19154C42.9082 3.7237 44.063 2.65982 45.5413 1.99989C46.5083 1.56793 47.5591 1.35596 48.6938 1.35596C50.352 1.35596 51.8304 1.78791 53.1249 2.64782C54.3596 3.47573 55.2066 4.52761 55.6701 5.79148C55.8459 6.26743 55.9618 6.85936 56.0137 7.56729H51.3988C51.3229 6.94335 51.1231 6.45141 50.7995 6.07945C50.308 5.52751 49.6368 5.25154 48.7857 5.25154C47.9347 5.25154 47.3154 5.5555 46.8399 6.16344C46.1407 7.06334 45.793 8.23921 45.793 9.69106C45.793 11.1429 46.1327 12.2268 46.8159 13.0107C47.3393 13.6186 48.0386 13.9226 48.9216 13.9226C49.9205 13.9226 50.6357 13.5106 51.0752 12.6907C51.243 12.3668 51.3549 11.9708 51.4108 11.4909H56.1656L56.1695 11.4789Z" fill="white"/>
<path d="M61.0042 15.2147L60.2451 17.4504H55.5503L61.3039 1.72412H66.0467L71.8003 17.4504H66.9656L66.2424 15.2147H61.0042ZM62.095 11.963H65.1676L63.6933 7.33152L62.095 11.963Z" fill="white"/>
<path d="M77.1182 12.0346V17.45H72.3994V1.71973H79.975C81.7011 1.71973 83.0516 1.9477 84.0265 2.39965C85.7366 3.19157 86.5917 4.53542 86.5917 6.43122C86.5917 8.32701 85.7127 9.55888 83.9546 10.3028C84.8137 10.5948 85.4569 11.1787 85.8885 12.0546C86.2041 12.7545 86.3759 13.8424 86.4079 15.3143C86.4399 16.1342 86.4998 16.6781 86.5917 16.9381C86.6436 17.0901 86.7235 17.262 86.8234 17.446H81.9209C81.805 17.0021 81.7331 16.3341 81.7011 15.4422C81.6492 14.1504 81.4454 13.2745 81.0898 12.8145C80.8301 12.4706 80.4984 12.2426 80.0989 12.1346C79.8591 12.0666 79.5195 12.0306 79.076 12.0306H77.1182V12.0346ZM77.1182 5.57931V8.63098H79.8112C80.3786 8.63098 80.7701 8.58298 80.9859 8.49099C81.5213 8.25102 81.793 7.77107 81.793 7.05115C81.793 6.33123 81.5013 5.87928 80.918 5.6793C80.7102 5.61131 80.3466 5.57531 79.8232 5.57531H77.1182V5.57931Z" fill="white"/>
<path d="M87.4429 1.71973H95.2023C96.7845 1.71973 97.9392 1.90771 98.6664 2.28367C99.3017 2.60763 99.8092 3.05558 100.185 3.63152C100.624 4.28345 100.84 5.01937 100.84 5.83128C100.84 7.23113 100.209 8.25102 98.9421 8.89495C100.668 9.61887 101.531 10.9027 101.531 12.7545C101.531 14.0064 101.108 15.0663 100.265 15.9342C99.4815 16.7421 98.4347 17.2181 97.1241 17.362C96.6487 17.414 96.0174 17.442 95.2382 17.442H87.4469V1.71973H87.4429ZM92.1057 5.41933V7.80307H94.4671C95.1264 7.80307 95.5739 7.75507 95.8016 7.66308C96.2371 7.4951 96.4569 7.14714 96.4569 6.6272C96.4569 6.07526 96.1972 5.7073 95.6737 5.51932C95.49 5.45132 95.0944 5.41533 94.4871 5.41533H92.1057V5.41933ZM92.1057 10.8707V13.7504H95.0624C95.6857 13.7504 96.1093 13.6944 96.341 13.5784C96.8245 13.3465 97.0642 12.9305 97.0642 12.3226C97.0642 11.5547 96.6766 11.0907 95.9015 10.9267C95.7257 10.8867 95.41 10.8707 94.9585 10.8707H92.1057Z" fill="white"/>
<path d="M110.05 1.36377C112.06 1.36377 113.77 1.94371 115.184 3.10358C117.026 4.61542 117.945 6.77918 117.945 9.59088C117.945 12.4026 117.026 14.5463 115.184 16.0662C113.782 17.2261 112.036 17.806 109.958 17.806C107.88 17.806 106.138 17.2261 104.732 16.0662C102.89 14.5463 101.971 12.3946 101.971 9.61488C101.971 6.83518 102.89 4.57142 104.732 3.10358C106.182 1.94371 107.956 1.36377 110.05 1.36377ZM109.914 5.25935C108.887 5.25935 108.084 5.7153 107.509 6.6312C107.009 7.42311 106.761 8.41101 106.761 9.59088C106.761 10.7708 107.009 11.7506 107.509 12.5426C108.084 13.4585 108.903 13.9144 109.962 13.9144C111.021 13.9144 111.84 13.4585 112.415 12.5426C112.915 11.7426 113.162 10.7628 113.162 9.60288C113.162 8.443 112.915 7.40712 112.415 6.6312C111.832 5.7153 111.001 5.25935 109.918 5.25935H109.914Z" fill="white"/>
<path d="M133.024 1.71973V17.446H128.225L123.471 9.3469V17.446H118.752V1.71973H123.507L128.305 9.92284V1.71973H133.024Z" fill="white"/>
<path d="M49.0893 19.7622C51.0991 19.7622 52.8092 20.3421 54.2236 21.502C56.0656 23.0139 56.9846 25.1776 56.9846 27.9893C56.9846 30.801 56.0656 32.9448 54.2236 34.4646C52.8212 35.6245 51.0791 36.2044 48.9974 36.2044C46.9157 36.2044 45.1776 35.6245 43.7712 34.4646C41.9292 32.9448 41.0103 30.793 41.0103 28.0133C41.0103 25.2336 41.9292 22.9699 43.7712 21.502C45.2216 20.3421 46.9956 19.7622 49.0893 19.7622ZM48.9495 23.6578C47.9226 23.6578 47.1195 24.1137 46.5441 25.0296C46.0447 25.8216 45.797 26.8094 45.797 27.9893C45.797 29.1692 46.0447 30.1491 46.5441 30.941C47.1195 31.8569 47.9386 32.3129 48.9974 32.3129C50.0562 32.3129 50.8753 31.8569 51.4507 30.941C51.9501 30.1411 52.1979 29.1612 52.1979 28.0013C52.1979 26.8414 51.9501 25.8056 51.4507 25.0296C50.8673 24.1137 50.0363 23.6578 48.9535 23.6578H48.9495Z" fill="white"/>
<path d="M72.0637 20.1182V35.8445H67.265L62.5103 27.7453V35.8445H57.7915V20.1182H62.5462L67.3449 28.3213V20.1182H72.0637Z" fill="white"/>
<path d="M77.8775 29.649V31.7568H86.6597V35.8484H73.1587V20.1221H86.444V24.2136H77.8815V26.1974H85.2613V29.653H77.8815L77.8775 29.649Z" fill="white"/>
<path d="M103.997 24.7374H99.3218C99.2379 24.4014 99.142 24.1574 99.0341 24.0134C98.7105 23.5895 98.1431 23.3815 97.332 23.3815C96.8725 23.3815 96.4889 23.4655 96.1813 23.6335C95.8576 23.8175 95.6978 24.0694 95.6978 24.3934C95.6978 24.6774 95.8736 24.9014 96.2292 25.0613C96.437 25.1533 97.0803 25.3413 98.1631 25.6253C99.8892 26.0692 101.028 26.4092 101.583 26.6412C103.633 27.5171 104.656 28.9209 104.656 30.8567C104.656 32.0166 104.276 33.0485 103.517 33.9564C102.259 35.4562 100.309 36.2041 97.6716 36.2041C95.6059 36.2041 93.9318 35.7562 92.6412 34.8563C91.2068 33.8564 90.4916 32.4885 90.4996 30.7527H95.2783C95.3542 31.1767 95.4501 31.4846 95.566 31.6726C95.9336 32.2806 96.6488 32.5845 97.7076 32.5845C98.3309 32.5845 98.8423 32.4805 99.2499 32.2726C99.6494 32.0646 99.8492 31.7606 99.8492 31.3607C99.8492 31.0007 99.6814 30.7327 99.3418 30.5647C99.182 30.4887 98.7424 30.3368 98.0312 30.1168C95.9056 29.5009 94.4792 29.0369 93.748 28.7209C91.89 27.901 90.9631 26.5332 90.9631 24.6174C90.9631 23.1335 91.4945 21.9657 92.5613 21.1018C93.1367 20.6338 93.756 20.3098 94.4152 20.1339C95.3582 19.8819 96.405 19.7539 97.5558 19.7539C100.073 19.7539 101.867 20.4138 102.942 21.7377C103.525 22.4616 103.877 23.4575 104.001 24.7334L103.997 24.7374Z" fill="white"/>
<path d="M109.774 33.6126L109.015 35.8484H104.32L110.074 20.1221H114.817L120.57 35.8484H115.736L115.008 33.6126H109.77H109.774ZM110.869 30.361H113.942L112.467 25.7295L110.869 30.361Z" fill="white"/>
<path d="M125.876 30.109V35.8484H121.158V20.1221H133.784V24.2136H125.876V26.4134H132.425V30.113H125.876V30.109Z" fill="white"/>
<path d="M139.217 29.649V31.7568H148V35.8484H134.499V20.1221H147.784V24.2136H139.221V26.1974H146.601V29.653H139.221L139.217 29.649Z" fill="white"/>
<path d="M22.7148 18.0261L18.3077 16.5982L6.10923 20.4458L2.6131 21.5257C2.13763 20.3858 1.7101 19.2699 1.3545 18.102L15.6107 13.6105L18.2997 12.7546L31.0616 16.8022L31.4691 14.8624L24.5048 12.6666L18.2957 10.7388L9.39759 13.5305L0.867039 16.2062C0.331633 13.8345 0.0759159 11.4988 0.0119867 9.10701L0 5.76738L6.48881 3.74759L18.2478 0L36.3957 5.75138L36.3717 6.73927L36.2239 10.2269L32.7038 9.11101L18.3157 4.6035L13.1334 6.23133L4.35118 9.02702L4.49901 10.8148L14.0844 7.79916L18.3117 6.4353L25.1921 8.58307L36.06 11.9787C35.6805 15.2543 34.8773 18.462 33.5988 21.5097L22.7188 18.0301L22.7148 18.0261Z" fill="white"/>
<path d="M18.2196 37C11.9826 34.0363 6.74436 29.5848 3.52393 23.4414L10.2285 21.3336L18.3195 18.7739L27.789 21.7856L32.7396 23.3734C29.623 29.3728 24.2889 34.0723 18.2196 37ZM24.2769 28.4609C25.2239 27.433 26.047 26.4171 26.8661 25.2452L18.3155 22.5455L9.72905 25.2572C10.4123 26.2451 11.1475 27.133 11.9746 28.0089C13.8844 30.0607 16.0181 31.8285 18.4354 33.3164C20.585 31.9685 22.5309 30.3527 24.2769 28.4609Z" fill="white"/>
</g>
<defs>
<clipPath id="clip0_50_4059">
<rect width="148" height="37" fill="white"/>
</clipPath>
</defs>
</svg>
