<svg width="148" height="37" viewBox="0 0 148 37" fill="none" xmlns="http://www.w3.org/2000/svg">
<g clip-path="url(#clip0_50_46)">
<path d="M56.1695 11.4788C55.9778 13.0226 55.4464 14.3145 54.5793 15.3503C53.2128 16.9862 51.3429 17.8061 48.9735 17.8061C46.9078 17.8061 45.1617 17.1861 43.7353 15.9503C42.9362 15.2503 42.3009 14.3944 41.8254 13.3826C41.282 12.2067 41.0063 10.9188 41.0063 9.52297C41.0063 7.93914 41.3659 6.49529 42.0891 5.19144C42.9082 3.72359 44.063 2.65971 45.5413 1.99978C46.5083 1.56783 47.5591 1.35585 48.6938 1.35585C50.352 1.35585 51.8304 1.7878 53.1249 2.64771C54.3596 3.47562 55.2066 4.52751 55.6701 5.79137C55.8459 6.26732 55.9618 6.85926 56.0137 7.56718H51.3988C51.3229 6.94325 51.1231 6.4513 50.7995 6.07934C50.308 5.5274 49.6368 5.25143 48.7857 5.25143C47.9347 5.25143 47.3154 5.5554 46.8399 6.16333C46.1407 7.06323 45.793 8.23911 45.793 9.69095C45.793 11.1428 46.1327 12.2267 46.8159 13.0106C47.3393 13.6185 48.0386 13.9225 48.9216 13.9225C49.9205 13.9225 50.6357 13.5105 51.0752 12.6906C51.243 12.3667 51.3549 11.9707 51.4108 11.4908H56.1656L56.1695 11.4788Z" fill="black"/>
<path d="M61.0042 15.2144L60.2451 17.4501H55.5503L61.3039 1.72382H66.0467L71.8003 17.4501H66.9656L66.2424 15.2144H61.0042ZM62.095 11.9627H65.1676L63.6933 7.33121L62.095 11.9627Z" fill="black"/>
<path d="M77.1182 12.0347V17.4501H72.3994V1.71982H79.975C81.7011 1.71982 83.0516 1.94779 84.0265 2.39974C85.7366 3.19166 86.5917 4.53551 86.5917 6.43131C86.5917 8.3271 85.7127 9.55897 83.9546 10.3029C84.8137 10.5949 85.4569 11.1788 85.8885 12.0547C86.2041 12.7546 86.3759 13.8425 86.4079 15.3143C86.4399 16.1343 86.4998 16.6782 86.5917 16.9382C86.6436 17.0902 86.7235 17.2621 86.8234 17.4461H81.9209C81.805 17.0022 81.7331 16.3342 81.7011 15.4423C81.6492 14.1505 81.4454 13.2746 81.0898 12.8146C80.8301 12.4707 80.4984 12.2427 80.0989 12.1347C79.8591 12.0667 79.5195 12.0307 79.076 12.0307H77.1182V12.0347ZM77.1182 5.5794V8.63107H79.8112C80.3786 8.63107 80.7701 8.58308 80.9859 8.49109C81.5213 8.25111 81.793 7.77116 81.793 7.05124C81.793 6.33132 81.5013 5.87937 80.918 5.67939C80.7102 5.6114 80.3466 5.5754 79.8232 5.5754H77.1182V5.5794Z" fill="black"/>
<path d="M87.4429 1.71982H95.2023C96.7845 1.71982 97.9392 1.9078 98.6664 2.28376C99.3017 2.60772 99.8092 3.05567 100.185 3.63161C100.624 4.28354 100.84 5.01946 100.84 5.83137C100.84 7.23122 100.209 8.25111 98.9421 8.89504C100.668 9.61896 101.531 10.9028 101.531 12.7546C101.531 14.0065 101.108 15.0664 100.265 15.9343C99.4815 16.7422 98.4347 17.2181 97.1241 17.3621C96.6487 17.4141 96.0174 17.4421 95.2382 17.4421H87.4469V1.71982H87.4429ZM92.1057 5.41942V7.80316H94.4671C95.1264 7.80316 95.5739 7.75517 95.8016 7.66318C96.2371 7.49519 96.4569 7.14723 96.4569 6.62729C96.4569 6.07535 96.1972 5.70739 95.6737 5.51941C95.49 5.45141 95.0944 5.41542 94.4871 5.41542H92.1057V5.41942ZM92.1057 10.8708V13.7505H95.0624C95.6857 13.7505 96.1093 13.6945 96.341 13.5785C96.8245 13.3466 97.0642 12.9306 97.0642 12.3227C97.0642 11.5548 96.6766 11.0908 95.9015 10.9268C95.7257 10.8868 95.41 10.8708 94.9585 10.8708H92.1057Z" fill="black"/>
<path d="M110.05 1.36385C112.06 1.36385 113.77 1.94378 115.184 3.10366C117.026 4.61549 117.945 6.77926 117.945 9.59096C117.945 12.4027 117.026 14.5464 115.184 16.0663C113.782 17.2261 112.036 17.8061 109.958 17.8061C107.88 17.8061 106.138 17.2261 104.732 16.0663C102.89 14.5464 101.971 12.3947 101.971 9.61495C101.971 6.83525 102.89 4.5715 104.732 3.10366C106.182 1.94378 107.956 1.36385 110.05 1.36385ZM109.914 5.25942C108.887 5.25942 108.084 5.71538 107.509 6.63128C107.009 7.42319 106.761 8.41108 106.761 9.59096C106.761 10.7708 107.009 11.7507 107.509 12.5426C108.084 13.4585 108.903 13.9145 109.962 13.9145C111.021 13.9145 111.84 13.4585 112.415 12.5426C112.915 11.7427 113.162 10.7628 113.162 9.60295C113.162 8.44308 112.915 7.40719 112.415 6.63128C111.832 5.71538 111.001 5.25942 109.918 5.25942H109.914Z" fill="black"/>
<path d="M133.024 1.71982V17.4461H128.225L123.471 9.34699V17.4461H118.752V1.71982H123.507L128.305 9.92293V1.71982H133.024Z" fill="black"/>
<path d="M49.0893 19.7619C51.0991 19.7619 52.8092 20.3418 54.2236 21.5017C56.0656 23.0135 56.9846 25.1773 56.9846 27.989C56.9846 30.8007 56.0656 32.9444 54.2236 34.4643C52.8212 35.6241 51.0791 36.2041 48.9974 36.2041C46.9157 36.2041 45.1776 35.6241 43.7712 34.4643C41.9292 32.9444 41.0103 30.7927 41.0103 28.013C41.0103 25.2333 41.9292 22.9695 43.7712 21.5017C45.2216 20.3418 46.9956 19.7619 49.0893 19.7619ZM48.9495 23.6574C47.9226 23.6574 47.1195 24.1134 46.5441 25.0293C46.0447 25.8212 45.797 26.8091 45.797 27.989C45.797 29.1688 46.0447 30.1487 46.5441 30.9406C47.1195 31.8565 47.9386 32.3125 48.9974 32.3125C50.0562 32.3125 50.8753 31.8565 51.4507 30.9406C51.9501 30.1407 52.1979 29.1608 52.1979 28.001C52.1979 26.8411 51.9501 25.8052 51.4507 25.0293C50.8673 24.1134 50.0363 23.6574 48.9535 23.6574H48.9495Z" fill="black"/>
<path d="M72.0637 20.1178V35.8441H67.265L62.5103 27.745V35.8441H57.7915V20.1178H62.5462L67.3449 28.3209V20.1178H72.0637Z" fill="black"/>
<path d="M77.8775 29.6488V31.7566H86.6597V35.8481H73.1587V20.1218H86.444V24.2134H77.8815V26.1972H85.2613V29.6528H77.8815L77.8775 29.6488Z" fill="black"/>
<path d="M103.997 24.7373H99.3218C99.2379 24.4014 99.142 24.1574 99.0341 24.0134C98.7105 23.5894 98.1431 23.3815 97.332 23.3815C96.8725 23.3815 96.4889 23.4655 96.1813 23.6334C95.8576 23.8174 95.6978 24.0694 95.6978 24.3934C95.6978 24.6773 95.8736 24.9013 96.2292 25.0613C96.437 25.1533 97.0803 25.3413 98.1631 25.6252C99.8892 26.0692 101.028 26.4091 101.583 26.6411C103.633 27.517 104.656 28.9209 104.656 30.8567C104.656 32.0165 104.276 33.0484 103.517 33.9563C102.259 35.4562 100.309 36.2041 97.6716 36.2041C95.6059 36.2041 93.9318 35.7561 92.6412 34.8562C91.2068 33.8563 90.4916 32.4885 90.4996 30.7527H95.2783C95.3542 31.1766 95.4501 31.4846 95.566 31.6726C95.9336 32.2805 96.6488 32.5845 97.7076 32.5845C98.3309 32.5845 98.8423 32.4805 99.2499 32.2725C99.6494 32.0645 99.8492 31.7606 99.8492 31.3606C99.8492 31.0006 99.6814 30.7327 99.3418 30.5647C99.182 30.4887 98.7424 30.3367 98.0312 30.1167C95.9056 29.5008 94.4792 29.0369 93.748 28.7209C91.89 27.901 90.9631 26.5331 90.9631 24.6173C90.9631 23.1335 91.4945 21.9656 92.5613 21.1017C93.1367 20.6338 93.756 20.3098 94.4152 20.1338C95.3582 19.8818 96.405 19.7539 97.5558 19.7539C100.073 19.7539 101.867 20.4138 102.942 21.7376C103.525 22.4616 103.877 23.4575 104.001 24.7333L103.997 24.7373Z" fill="black"/>
<path d="M109.774 33.6124L109.015 35.8481H104.32L110.074 20.1218H114.817L120.57 35.8481H115.736L115.008 33.6124H109.77H109.774ZM110.869 30.3607H113.942L112.467 25.7292L110.869 30.3607Z" fill="black"/>
<path d="M125.876 30.1087V35.8481H121.158V20.1218H133.784V24.2134H125.876V26.4131H132.425V30.1127H125.876V30.1087Z" fill="black"/>
<path d="M139.217 29.6488V31.7566H148V35.8481H134.499V20.1218H147.784V24.2134H139.221V26.1972H146.601V29.6528H139.221L139.217 29.6488Z" fill="black"/>
<path d="M22.7148 18.0261L18.3077 16.5982L6.10923 20.4458L2.6131 21.5257C2.13763 20.3858 1.7101 19.2699 1.3545 18.102L15.6107 13.6105L18.2997 12.7546L31.0616 16.8022L31.4691 14.8624L24.5048 12.6666L18.2957 10.7388L9.39759 13.5305L0.867039 16.2062C0.331633 13.8345 0.0759159 11.4988 0.0119867 9.10701L0 5.76738L6.48881 3.74759L18.2478 0L36.3957 5.75138L36.3717 6.73927L36.2239 10.2269L32.7038 9.11101L18.3157 4.6035L13.1334 6.23133L4.35118 9.02702L4.49901 10.8148L14.0844 7.79916L18.3117 6.4353L25.1921 8.58307L36.06 11.9787C35.6805 15.2543 34.8773 18.462 33.5988 21.5097L22.7188 18.0301L22.7148 18.0261Z" fill="black"/>
<path d="M18.2196 37C11.9826 34.0363 6.74436 29.5848 3.52393 23.4415L10.2285 21.3337L18.3195 18.774L27.789 21.7856L32.7396 23.3735C29.623 29.3728 24.2889 34.0723 18.2196 37ZM24.2769 28.4609C25.2239 27.433 26.047 26.4171 26.8661 25.2453L18.3155 22.5456L9.72905 25.2573C10.4123 26.2452 11.1475 27.1331 11.9746 28.009C13.8844 30.0608 16.0181 31.8286 18.4354 33.3164C20.585 31.9685 22.5309 30.3527 24.2769 28.4609Z" fill="black"/>
</g>
<defs>
<clipPath id="clip0_50_46">
<rect width="148" height="37" fill="white"/>
</clipPath>
</defs>
</svg>
