<svg xmlns="http://www.w3.org/2000/svg" width="104" height="21" fill="none" viewBox="0 0 104 21"><rect width="19.259" height="19.259" y=".948" fill="#1bba86" rx="2"/><path fill="#fff" d="m9.389 3.837 1.567 4.824h5.073l-4.104 2.982 1.567 4.824-4.103-2.982-4.104 2.982 1.568-4.824L2.749 8.66H7.82z"/><rect width="19.259" height="19.259" x="21.185" y=".948" fill="#1bba86" rx="2"/><path fill="#fff" d="m30.574 3.837 1.568 4.824h5.072l-4.103 2.982 1.567 4.824-4.104-2.982-4.103 2.982 1.567-4.824-4.103-2.982h5.072z"/><rect width="19.259" height="19.259" x="42.371" y=".948" fill="#1bba86" rx="2"/><path fill="#fff" d="m51.76 3.837 1.567 4.824H58.4l-4.104 2.982 1.568 4.824-4.104-2.982-4.104 2.982 1.568-4.824L45.12 8.66h5.072z"/><rect width="19.259" height="19.259" x="63.556" y=".948" fill="#1bba86" rx="2"/><path fill="#fff" d="m72.945 3.837 1.568 4.824h5.072l-4.103 2.982 1.567 4.824-4.104-2.982-4.103 2.982 1.567-4.824-4.103-2.982h5.072z"/><rect width="19.259" height="19.259" x="84.74" y=".948" fill="#1bba85" rx="2"/><path fill="#fff" d="m94.13 3.837 1.567 4.824h5.072l-4.104 2.982 1.568 4.824-4.104-2.982-4.103 2.982 1.567-4.824-4.104-2.982h5.073z"/></svg>