<svg width="24" height="24" viewBox="0 0 24 24" fill="none" xmlns="http://www.w3.org/2000/svg">
<path fill-rule="evenodd" clip-rule="evenodd" d="M7.2531 17.7354C7.2962 17.7784 7.31057 17.8648 7.31057 17.8648C7.31057 17.9078 7.2531 17.9942 7.2531 17.9942L2.26755 22.9681C2.1957 23.0399 2.00893 22.9681 2.00893 22.9681L1.03193 21.9905C0.960094 21.9187 1.03193 21.7317 1.03193 21.7317L6.01749 16.7578C6.08932 16.686 6.2761 16.7578 6.2761 16.7578L7.2531 17.7354ZM11.3497 14.8596L8.7617 17.4622C8.73297 17.5054 8.6755 17.5198 8.6324 17.5198C8.58929 17.5198 8.50309 17.4622 8.50309 17.4622L6.52037 15.4785C6.44852 15.4066 6.52037 15.2197 6.52037 15.2197L9.12764 12.6109L9.78183 10.6195C9.79612 10.562 9.85371 10.5188 9.91115 10.5045C9.96859 10.4901 10.0835 10.5476 10.0835 10.5476L13.4311 13.8971C13.4743 13.9403 13.4886 14.0265 13.4886 14.0265L13.4743 14.0122L13.4743 14.0552C13.4599 14.1128 13.3594 14.1846 13.3594 14.1846L11.3497 14.8596ZM15.4426 9.92952C15.4858 9.97256 15.5001 10.0589 15.5001 10.0589L15.4858 10.0589L15.4858 10.1164L14.4944 13.0922C14.48 13.1496 14.4225 13.1927 14.3651 13.2071C14.2932 13.2215 14.1926 13.1639 14.1926 13.1639L10.8307 9.80014C10.7875 9.75696 10.7875 9.68505 10.7875 9.62757C10.8019 9.5701 10.9024 9.49819 10.9024 9.49819L13.891 8.50633C13.9627 8.47758 14.0777 8.54945 14.0777 8.54945L15.4426 9.92952ZM16.6495 9.3545L16.5395 9.492C16.5516 9.51166 16.5835 9.56171 16.6063 9.58454C16.6639 9.61327 16.7214 9.62757 16.7788 9.59884L22.8994 6.96814C22.8994 6.96814 23 6.89626 23 6.83876L23 6.81001L23 6.79564C23 6.79564 22.9856 6.70938 22.9426 6.66625L17.3248 1.04543C17.3248 1.04543 17.2242 0.987926 17.1667 1.00231C17.1093 1.00231 17.0517 1.05981 17.0374 1.10293L14.4081 7.24128C14.4081 7.24128 14.3938 7.35628 14.4225 7.41378C14.4512 7.44253 14.48 7.47128 14.5231 7.48565L16.5346 9.48389L16.6495 9.3545ZM16.5346 9.48389C16.5346 9.48389 16.5364 9.48691 16.5395 9.492L16.5346 9.49819L16.5346 9.48389ZM16.7644 6.49374C16.6639 6.60875 16.6063 6.73813 16.6063 6.88189C16.6063 7.01126 16.6495 7.15502 16.7501 7.25564C16.98 7.4569 17.3248 7.4569 17.526 7.25564L19.2357 5.54496C19.4512 5.34371 19.4656 5.01307 19.2357 4.78306C19.1351 4.68243 19.0058 4.62494 18.8622 4.62494C18.7184 4.62494 18.5891 4.66806 18.4885 4.78306L16.7644 6.49374Z" fill="#1C2B54"/>
</svg>
