<svg width="85" height="85" viewBox="0 0 85 85" fill="none" xmlns="http://www.w3.org/2000/svg">
<path d="M0 42.5C0 19.0279 19.0279 0 42.5 0C65.9721 0 85 19.0279 85 42.5C85 65.9721 65.9721 85 42.5 85C19.0279 85 0 65.9721 0 42.5Z" fill="#F5F9FC"/>
<g clip-path="url(#clip0_3096_3556)">
<path d="M16.8071 51.1429C16.8617 51.3055 16.9681 51.4458 17.11 51.5423C17.2519 51.6387 17.4215 51.6861 17.5928 51.6772C17.6762 51.6891 17.7608 51.6891 17.8442 51.6772C17.9424 51.6444 18.0331 51.5925 18.1112 51.5245C18.1892 51.4566 18.2531 51.3738 18.2991 51.2811C18.3451 51.1884 18.3723 51.0875 18.3792 50.9842C18.3861 50.8809 18.3725 50.7773 18.3392 50.6793C16.5718 45.4369 16.5552 39.7621 18.2921 34.5095C20.0289 29.2568 23.4252 24.7106 27.9694 21.5552C32.5137 18.3998 37.9601 16.8061 43.4886 17.014C49.017 17.2219 54.3283 19.2201 58.6228 22.7079L56.7135 24.2793L62.4492 26.0786L61.8992 20.0915L59.8642 21.7022C55.3334 17.9174 49.6906 15.7158 43.7938 15.432C37.897 15.1482 32.0688 16.7978 27.1955 20.13C22.3222 23.4622 18.6703 28.2946 16.7951 33.8925C14.92 39.4904 14.9242 45.5476 16.8071 51.1429Z" fill="#153655"/>
<path d="M67.195 33.3542C67.0968 33.387 67.0061 33.4388 66.928 33.5068C66.85 33.5748 66.7861 33.6575 66.7401 33.7502C66.6941 33.8429 66.6669 33.9438 66.66 34.0471C66.6531 34.1504 66.6667 34.254 66.7 34.352C68.4875 39.6477 68.4871 45.3837 66.6988 50.6791C64.9105 55.9745 61.4333 60.5364 56.8011 63.6641C52.1689 66.7917 46.6381 68.3122 41.0581 67.992C35.478 67.6717 30.1575 65.5284 25.9136 61.8913L27.6971 60.1863L21.8357 58.8663L22.8571 64.7906L24.7507 62.9835C28.2165 65.9833 32.384 68.059 36.8664 69.0177C38.7191 69.4069 40.6069 69.6044 42.5 69.607C46.8009 69.6054 51.0398 68.5806 54.8665 66.6174C58.6932 64.6542 61.998 61.8089 64.508 58.3163C67.0181 54.8238 68.6613 50.7843 69.302 46.5313C69.9427 42.2784 69.5625 37.934 68.1928 33.857C68.1608 33.7582 68.1095 33.6666 68.0419 33.5877C67.9743 33.5088 67.8917 33.4441 67.7989 33.3973C67.7061 33.3505 67.6049 33.3226 67.5013 33.3152C67.3976 33.3078 67.2935 33.3211 67.195 33.3542Z" fill="#153655"/>
<path d="M42.4999 23.9885C42.3813 23.99 42.2645 24.0184 42.1583 24.0714C42.0522 24.1245 41.9594 24.2009 41.8871 24.295C41.4313 24.8921 30.7849 38.9407 30.7849 47.9685C30.7849 49.508 31.0881 51.0324 31.6773 52.4547C32.2664 53.877 33.1299 55.1693 34.2185 56.2579C35.307 57.3464 36.5993 58.2099 38.0216 58.799C39.4439 59.3882 40.9683 59.6914 42.5078 59.6914C44.0472 59.6914 45.5716 59.3882 46.9939 58.799C48.4162 58.2099 49.7085 57.3464 50.7971 56.2579C51.8856 55.1693 52.7491 53.877 53.3383 52.4547C53.9274 51.0324 54.2306 49.508 54.2306 47.9685C54.2306 38.3435 43.5763 24.8528 43.1206 24.2871C43.0466 24.1935 42.9523 24.1179 42.8447 24.0662C42.7372 24.0144 42.6193 23.9879 42.4999 23.9885ZM42.4999 58.12C39.8143 58.1158 37.2394 57.0493 35.3374 55.1532C33.4355 53.2572 32.3609 50.6856 32.3485 48C32.3485 40.7007 40.2056 29.2685 42.5156 26.1178C44.8099 29.1428 52.6513 40.1821 52.6513 48C52.6389 50.6856 51.5644 53.2572 49.6624 55.1532C47.7604 57.0493 45.1855 58.1158 42.4999 58.12Z" fill="#153655"/>
<path d="M41.7144 54.9771C41.7144 55.1855 41.7971 55.3854 41.9445 55.5327C42.0918 55.6801 42.2917 55.7628 42.5001 55.7628C42.7251 55.7748 42.9507 55.7748 43.1758 55.7628C43.279 55.7536 43.3793 55.724 43.4711 55.676C43.5629 55.6279 43.6443 55.5622 43.7107 55.4827C43.777 55.4032 43.8271 55.3114 43.858 55.2125C43.8889 55.1136 43.9001 55.0096 43.8908 54.9064C43.8815 54.8032 43.852 54.7029 43.8039 54.6111C43.7558 54.5193 43.6902 54.4379 43.6107 54.3715C43.5311 54.3051 43.4393 54.2551 43.3404 54.2242C43.2415 54.1932 43.1375 54.1821 43.0344 54.1914C42.8615 54.1914 42.6808 54.1914 42.5001 54.1914C42.2917 54.1914 42.0918 54.2742 41.9445 54.4215C41.7971 54.5689 41.7144 54.7687 41.7144 54.9771Z" fill="#153655"/>
<path d="M46.6093 54.4273C46.7757 54.4278 46.938 54.3756 47.0728 54.278C48.0631 53.5544 48.8703 52.609 49.4297 51.5175C49.9891 50.426 50.2852 49.2187 50.2943 47.9923C50.2943 47.7839 50.2115 47.584 50.0641 47.4367C49.9168 47.2893 49.7169 47.2065 49.5085 47.2065C49.3002 47.2065 49.1003 47.2893 48.953 47.4367C48.8056 47.584 48.7228 47.7839 48.7228 47.9923C48.7177 48.9741 48.4826 49.941 48.0364 50.8157C47.5903 51.6903 46.9454 52.4482 46.1536 53.0287C46.0698 53.0894 45.9989 53.1661 45.9448 53.2543C45.8908 53.3425 45.8547 53.4406 45.8386 53.5428C45.8226 53.645 45.8268 53.7494 45.8512 53.8499C45.8756 53.9504 45.9196 54.0452 45.9807 54.1287C46.0555 54.2234 46.1511 54.2996 46.2601 54.3514C46.3691 54.4031 46.4886 54.4291 46.6093 54.4273Z" fill="#153655"/>
</g>
<defs>
<clipPath id="clip0_3096_3556">
<rect width="55" height="55" fill="white" transform="translate(15 15)"/>
</clipPath>
</defs>
</svg>
