<svg width="32" height="32" viewBox="0 0 32 32" fill="none" xmlns="http://www.w3.org/2000/svg">
<path d="M30.1479 31.298H16.9114C11.3551 31.298 6.83495 26.6914 6.83495 21.0289C6.83021 18.7312 7.58374 16.4985 8.9744 14.6899C10.3651 12.8813 12.3121 11.6018 14.5024 11.057C14.5644 11.0419 14.6264 11.0282 14.689 11.0145C15.3357 11.5767 16.0188 12.1939 16.6958 12.8441C14.5965 12.9202 12.6099 13.831 11.1614 15.3813C9.71284 16.9317 8.91751 18.9985 8.94569 21.1391C8.97387 23.2797 9.82332 25.3239 11.3121 26.8342C12.801 28.3444 14.8108 29.2005 16.9114 29.2192H30.1479C30.1944 29.2213 30.2409 29.2138 30.2845 29.1971C30.3281 29.1804 30.3679 29.1548 30.4016 29.122C30.4352 29.0892 30.462 29.0498 30.4803 29.0061C30.4986 28.9625 30.5081 28.9155 30.5081 28.868C30.5081 28.8206 30.4986 28.7736 30.4803 28.73C30.462 28.6863 30.4352 28.6469 30.4016 28.6141C30.3679 28.5813 30.3281 28.5557 30.2845 28.539C30.2409 28.5223 30.1944 28.5148 30.1479 28.5169H24.781C26.6396 26.4832 27.6744 23.8081 27.6776 21.0289C27.6776 15.5792 23.7078 10.9252 18.4284 10.1659C16.8016 8.62102 15.0891 7.17258 13.2993 5.82773L13.822 5.2023C13.8514 5.16731 13.8737 5.12674 13.8877 5.08294C13.9017 5.03914 13.9071 4.99295 13.9035 4.94703C13.8999 4.90111 13.8875 4.85637 13.8669 4.81535C13.8464 4.77433 13.8181 4.73785 13.7836 4.708L12.2733 3.39536C12.2035 3.33511 12.1133 3.30527 12.022 3.31229C11.9768 3.31617 11.9329 3.32915 11.8926 3.35048C11.8524 3.37181 11.8167 3.40106 11.7876 3.43655L11.6051 3.65486L6.37283 0.0601896C6.30257 0.0118448 6.2173 -0.00843859 6.13331 0.00321164C6.04931 0.0148619 5.97246 0.0576296 5.91744 0.12335L4.59035 1.7113C4.53543 1.77694 4.50616 1.86091 4.50815 1.94716C4.51014 2.0334 4.54324 2.11588 4.60113 2.17882L8.91248 6.87332L8.72992 7.09164C8.67079 7.1626 8.64169 7.25457 8.64901 7.34737C8.65634 7.44017 8.69949 7.52621 8.769 7.58663L10.2793 8.89927C10.3418 8.95333 10.421 8.98301 10.503 8.98303H10.5306C10.5758 8.97957 10.6198 8.96699 10.6602 8.946C10.7006 8.92502 10.7364 8.89607 10.7657 8.86083L11.2824 8.24295C11.7391 8.58621 12.7799 9.39014 14.0376 10.4556C11.7665 11.0918 9.76362 12.4714 8.33766 14.3819C6.9117 16.2924 6.14176 18.6278 6.14648 21.0282C6.14648 27.0779 10.9765 31.9997 16.9127 31.9997H30.1479C30.1944 32.0018 30.2409 31.9942 30.2845 31.9775C30.3281 31.9608 30.3679 31.9353 30.4016 31.9025C30.4352 31.8697 30.462 31.8302 30.4803 31.7866C30.4986 31.7429 30.5081 31.696 30.5081 31.6485C30.5081 31.601 30.4986 31.5541 30.4803 31.5104C30.462 31.4668 30.4352 31.4273 30.4016 31.3945C30.3679 31.3617 30.3281 31.3362 30.2845 31.3195C30.2409 31.3028 30.1944 31.2952 30.1479 31.2973V31.298ZM6.24281 0.81606L11.1551 4.19173L9.36248 6.33577L5.31452 1.92618L6.24281 0.81606ZM26.9912 21.0275C26.9893 22.4308 26.7061 23.8188 26.1589 25.1065C25.6116 26.3941 24.8119 27.5542 23.8089 28.5155H20.1712C21.8804 27.742 23.2719 26.3861 24.1066 24.6806C24.9413 22.9751 25.1671 21.0265 24.7452 19.1698L24.7351 19.1258C24.6099 18.5933 24.432 18.0751 24.2043 17.5791L24.2009 17.5743C23.2161 15.343 21.3083 13.0432 19.3412 11.0577C23.7705 12.1788 26.9892 16.2809 26.9892 21.0289L26.9912 21.0275ZM10.4639 8.13654L9.47835 7.28112L12.0887 4.15878L13.075 5.01557L10.4639 8.13654ZM12.8513 6.3646C14.2397 7.40607 21.4066 12.9423 23.5785 17.875C23.5879 17.8949 23.5967 17.9155 23.6054 17.9361C23.7941 18.3642 23.9445 18.8088 24.0548 19.2645L24.0669 19.3167C24.0851 19.3984 24.1026 19.4801 24.1174 19.5611C24.1174 19.5666 24.1174 19.5721 24.1221 19.5776C24.4148 21.0917 24.2412 22.6611 23.6253 24.0709C23.0093 25.4807 21.981 26.6622 20.681 27.4536C19.381 28.2451 17.8728 28.6079 16.3627 28.4925C14.8527 28.377 13.4145 27.7889 12.2449 26.8086C11.0754 25.8284 10.2315 24.5038 9.82886 23.0161C9.4262 21.5283 9.48438 19.9502 9.99543 18.4975C10.5065 17.0447 11.4455 15.7884 12.6839 14.9003C13.9223 14.0122 15.3998 13.5358 16.9141 13.5361C17.0401 13.5361 17.1654 13.5395 17.2907 13.5457C17.3286 13.5459 17.3663 13.5401 17.4025 13.5285C18.2396 14.3578 19.0269 15.2377 19.7602 16.1635C18.7072 15.5238 17.4761 15.2572 16.2588 15.4052C15.0415 15.5532 13.9065 16.1075 13.0307 16.9817C12.155 17.856 11.5876 19.0009 11.4172 20.2381C11.2467 21.4754 11.4827 22.7353 12.0884 23.8215C12.6941 24.9077 13.6355 25.7591 14.7657 26.243C15.8959 26.7269 17.1515 26.8161 18.3367 26.4967C19.5218 26.1773 20.57 25.4672 21.3177 24.4772C22.0654 23.4871 22.4707 22.2728 22.4703 21.0234C22.4699 20.8024 22.4569 20.5817 22.4313 20.3623C22.4131 15.9602 13.5189 9.04276 11.7337 7.69922L12.8513 6.3646ZM21.7785 21.0289C21.7784 22.0097 21.4929 22.9685 20.9581 23.784C20.4233 24.5995 19.6633 25.235 18.7741 25.6103C17.8849 25.9856 16.9064 26.0838 15.9625 25.8924C15.0186 25.701 14.1515 25.2287 13.471 24.5351C12.7904 23.8415 12.327 22.9579 12.1392 21.9959C11.9514 21.0339 12.0477 20.0368 12.4159 19.1306C12.7842 18.2244 13.4078 17.4498 14.208 16.9048C15.0082 16.3598 15.949 16.0688 16.9114 16.0687C18.2019 16.0698 19.4392 16.5927 20.3518 17.5227C21.2643 18.4527 21.7774 19.7137 21.7785 21.0289Z" fill="#153655"/>
</svg>
