<svg width="41" height="40" viewBox="0 0 41 40" fill="none" xmlns="http://www.w3.org/2000/svg">
<path fill-rule="evenodd" clip-rule="evenodd" d="M12.5886 29.5593C12.6604 29.6311 12.6844 29.775 12.6844 29.775C12.6844 29.8467 12.5886 29.9906 12.5886 29.9906L4.27933 38.2805C4.15959 38.4001 3.8483 38.2805 3.8483 38.2805L2.21996 36.6511C2.10024 36.5315 2.21996 36.2198 2.21996 36.2198L10.5292 27.93C10.649 27.8103 10.9602 27.93 10.9602 27.93L12.5886 29.5593ZM19.4163 24.7663L15.1029 29.104C15.055 29.1759 14.9592 29.2 14.8874 29.2C14.8156 29.2 14.6719 29.104 14.6719 29.104L11.3674 25.7978C11.2476 25.6779 11.3674 25.3665 11.3674 25.3665L15.7128 21.0185L16.8031 17.6995C16.827 17.6037 16.9229 17.5317 17.0187 17.5079C17.1144 17.4838 17.3059 17.5796 17.3059 17.5796L22.8853 23.1621C22.9572 23.2341 22.9811 23.3778 22.9811 23.3778L22.9572 23.3539L22.9572 23.4257C22.9332 23.5217 22.7658 23.6413 22.7658 23.6413L19.4163 24.7663ZM26.2378 16.5495C26.3097 16.6213 26.3335 16.7652 26.3335 16.7652L26.3097 16.7652L26.3097 16.861L24.6574 21.8206C24.6334 21.9164 24.5376 21.9881 24.4419 22.0122C24.3221 22.0362 24.1544 21.9402 24.1544 21.9402L18.5512 16.3339C18.4793 16.2619 18.4793 16.1421 18.4793 16.0463C18.5033 15.9505 18.6707 15.8306 18.6707 15.8306L23.6517 14.1775C23.7712 14.1296 23.9629 14.2494 23.9629 14.2494L26.2378 16.5495ZM28.2492 15.5912L28.066 15.8203C28.0861 15.8531 28.1393 15.9365 28.1773 15.9746C28.2733 16.0225 28.369 16.0463 28.4647 15.9984L38.6658 11.6139C38.6658 11.6139 38.8334 11.4941 38.8334 11.3983L38.8334 11.3503L38.8334 11.3264C38.8334 11.3264 38.8094 11.1826 38.7377 11.1107L29.3747 1.74271C29.3747 1.74271 29.2071 1.64687 29.1113 1.67084C29.0156 1.67084 28.9196 1.76668 28.8958 1.83854L24.5136 12.0691C24.5136 12.0691 24.4897 12.2608 24.5376 12.3566C24.5855 12.4045 24.6333 12.4525 24.7053 12.4764L28.0577 15.8068L28.2492 15.5912ZM28.0577 15.8068C28.0577 15.8068 28.0607 15.8118 28.066 15.8203L28.0577 15.8306L28.0577 15.8068ZM28.4407 10.8232C28.2733 11.0149 28.1773 11.2305 28.1773 11.4701C28.1773 11.6858 28.2492 11.9254 28.4169 12.0931C28.8001 12.4285 29.3747 12.4285 29.71 12.0931L32.5595 9.24193C32.9187 8.9065 32.9427 8.35545 32.5595 7.9721C32.3919 7.80437 32.1763 7.70856 31.937 7.70856C31.6974 7.70856 31.4819 7.78042 31.3142 7.9721L28.4407 10.8232Z" fill="#0B2843"/>
</svg>
