<svg width="24" height="24" viewBox="0 0 24 24" fill="none" xmlns="http://www.w3.org/2000/svg">
<path d="M10.5 16.5C8.01825 16.5 6 14.4818 6 12C6 9.51825 8.01825 7.5 10.5 7.5C12.9818 7.5 15 9.51825 15 12C15 14.4818 12.9818 16.5 10.5 16.5ZM10.5 10.5C9.67275 10.5 9 11.1727 9 12C9 12.8273 9.67275 13.5 10.5 13.5C11.3273 13.5 12 12.8273 12 12C12 11.1727 11.3273 10.5 10.5 10.5Z" fill="#1C2B54"/>
<path d="M4.5 20.6047V22.5H1.5V17.3805C2.26425 18.6547 3.28575 19.755 4.5 20.6047Z" fill="#1C2B54"/>
<path d="M19.5 12C19.5 16.9628 15.4628 21 10.5 21C5.53725 21 1.5 16.9628 1.5 12C1.5 7.03725 5.53725 3 10.5 3H13.5V6H10.5C7.19175 6 4.5 8.69175 4.5 12C4.5 15.3082 7.19175 18 10.5 18C13.8082 18 16.5 15.3082 16.5 12C16.5 10.9028 16.1963 9.87825 15.6788 8.9925C15.7028 8.99325 15.7253 9 15.75 9C16.5907 9 17.3265 8.53575 17.712 7.85025L18.3975 7.698C19.0988 8.976 19.5 10.4415 19.5 12Z" fill="#1C2B54"/>
<path d="M15 6.75V2.25C15 1.836 15.336 1.5 15.75 1.5C16.164 1.5 16.5 1.836 16.5 2.25V2.4165L22.5 3.75V5.25L16.5 6.5835V6.75C16.5 7.164 16.164 7.5 15.75 7.5C15.336 7.5 15 7.164 15 6.75Z" fill="#1C2B54"/>
</svg>
