<svg width="85" height="85" viewBox="0 0 85 85" fill="none" xmlns="http://www.w3.org/2000/svg">
<path d="M0 42.5C0 19.0279 19.0279 0 42.5 0C65.9721 0 85 19.0279 85 42.5C85 65.9721 65.9721 85 42.5 85C19.0279 85 0 65.9721 0 42.5Z" fill="#F5F9FC"/>
<g clip-path="url(#clip0_3096_3605)">
<path d="M64.2073 20.7928C61.7614 18.347 58.5096 17 55.0508 17C51.5919 17 48.3401 18.347 45.8943 20.7928L37.1524 29.5345C35.597 31.09 34.5215 32.9461 33.9245 34.9174C31.8982 35.5323 30.042 36.645 28.5345 38.1525L19.7926 46.8943C17.3469 49.3401 16 52.5919 16 56.0508C16 59.5097 17.3469 62.7614 19.7928 65.2073C22.2385 67.653 25.4903 69 28.9492 69C32.4081 69 35.66 67.653 38.1057 65.2073L46.8476 56.4655C48.4029 54.91 49.4785 53.054 50.0754 51.0828C52.1017 50.4677 53.9579 49.3551 55.4655 47.8476L64.2073 39.1057C66.653 36.6599 68 33.4081 68 29.9492C68 26.4904 66.653 23.2386 64.2073 20.7928ZM34.2005 43.2796C34.8293 44.9462 35.8132 46.5084 37.1524 47.8477C38.4511 49.1464 40.0145 50.1538 41.7192 50.8006C41.6365 50.8958 41.5514 50.9893 41.4614 51.0793L32.7195 59.8212C31.7124 60.8282 30.3734 61.3828 28.9492 61.3828C27.525 61.3828 26.186 60.8282 25.1789 59.8211C23.0999 57.7421 23.0999 54.3595 25.1789 52.2805L33.9207 43.5387C34.0108 43.4486 34.1046 43.3628 34.2005 43.2796ZM45.7702 55.3882L37.0284 64.13C34.8704 66.2881 32.0012 67.4766 28.9492 67.4766C25.8973 67.4766 23.028 66.2881 20.87 64.13C18.7119 61.972 17.5234 59.1027 17.5234 56.0508C17.5234 52.9988 18.7119 50.1296 20.8699 47.9716L29.6118 39.2298C30.73 38.1115 32.0657 37.2409 33.5242 36.6692C33.2614 38.3455 33.3272 40.0637 33.7225 41.7189C33.4105 41.9409 33.116 42.1889 32.8435 42.4614L24.1017 51.2032C22.8068 52.4981 22.0938 54.2196 22.0938 56.0508C22.0938 57.882 22.8068 59.6034 24.1017 60.8984C25.3965 62.1932 27.118 62.9062 28.9492 62.9062C30.7804 62.9062 32.5019 62.1932 33.7967 60.8984L42.5385 52.1565C43.8334 50.8616 44.5465 49.1402 44.5465 47.309C44.5465 45.4778 43.8334 43.7563 42.5385 42.4614C40.4595 40.3824 40.4595 36.9999 42.5385 34.9209L51.2803 26.1791C52.2876 25.1719 53.6266 24.6172 55.0508 24.6172C56.475 24.6172 57.814 25.1719 58.8211 26.179C59.8281 27.186 60.3828 28.525 60.3828 29.9492C60.3828 31.3734 59.8281 32.7124 58.821 33.7195L50.0792 42.4614C49.9891 42.5515 49.8954 42.6372 49.7995 42.7205C49.1707 41.0539 48.1869 39.4917 46.8476 38.1525C46.079 37.3839 45.2192 36.7153 44.2924 36.1654C43.9308 35.951 43.4632 36.0701 43.2486 36.4318C43.034 36.7936 43.1532 37.2608 43.515 37.4755C44.3327 37.9607 45.0915 38.551 45.7703 39.2298C50.2251 43.6846 50.2251 50.9333 45.7702 55.3882ZM63.13 38.0284L54.3883 46.7703C53.27 47.8885 51.9343 48.7591 50.4758 49.3309C50.7386 47.6546 50.6728 45.9364 50.2775 44.2812C50.5896 44.0592 50.8841 43.8111 51.1565 43.5387L59.8983 34.7969C61.1932 33.5019 61.9062 31.7804 61.9062 29.9492C61.9062 28.118 61.1932 26.3966 59.8983 25.1017C58.6034 23.8068 56.882 23.0938 55.0508 23.0938C53.2196 23.0938 51.4981 23.8068 50.2032 25.1017L41.4614 33.8435C40.1666 35.1385 39.4534 36.8599 39.4534 38.6911C39.4534 40.5222 40.1665 42.2437 41.4614 43.5386C42.4685 44.5457 43.0231 45.8847 43.0231 47.3089C43.0231 48.0718 42.8626 48.8096 42.56 49.4857C40.9394 48.9228 39.4521 47.9927 38.2297 46.7702C33.7749 42.3154 33.7749 35.0666 38.2297 30.6117L46.9717 21.8699C49.1296 19.7119 51.9988 18.5234 55.0508 18.5234C58.1027 18.5234 60.972 19.7119 63.13 21.87C65.2881 24.028 66.4766 26.8973 66.4766 29.9492C66.4766 33.0012 65.2881 35.8704 63.13 38.0284Z" fill="#153655"/>
</g>
<defs>
<clipPath id="clip0_3096_3605">
<rect width="52" height="52" fill="white" transform="translate(16 17)"/>
</clipPath>
</defs>
</svg>
