<svg width="33" height="32" viewBox="0 0 33 32" fill="none" xmlns="http://www.w3.org/2000/svg">
<g clip-path="url(#clip0_7097_2787)">
<path d="M31.1234 11.1355C29.4003 7.3482 25.9747 6.52487 23.3103 6.52487C23.2342 6.52487 23.1511 6.52487 23.075 6.52487C21.5871 6.55232 20.203 6.88165 18.9643 7.49228L18.902 7.51973L18.8605 7.4717C16.9781 5.27616 14.0439 4 10.9366 4C10.7497 4 10.5629 4 10.376 4.01372C7.16497 4.17153 2.98504 5.68782 1.78781 9.46141C1.42103 10.6346 0.694386 14.1269 0.666704 15.2796C0.645943 16 0.798192 16.9674 0.943521 17.9005C1.02657 18.4082 1.09577 18.8885 1.14421 19.307C1.18574 19.6981 1.21342 20.0961 1.2411 20.4871C1.2757 21.0086 1.3103 21.5437 1.37951 22.072C1.82241 22.4288 2.27224 22.8062 2.70823 23.1698C3.69093 23.9931 4.70823 24.8508 5.76013 25.5712C7.94698 27.06 8.94352 27.2521 11.6563 26.7101C13.0404 26.4288 14.4591 25.9966 15.9954 25.3722L16.0923 25.331L16.1131 25.434C16.1338 25.5369 16.1546 25.6329 16.1684 25.7358V25.7839C16.2515 26.0583 16.5145 26.1544 16.7982 26.2642C18.9435 27.0532 23.4003 28.1235 25.8432 27.9931C26.4937 27.9588 27.4556 27.1424 28.0369 26.6484L28.1754 26.5317C29.0819 25.7633 29.9539 24.9057 30.7982 24.0823C31.3726 23.5129 31.9747 22.9297 32.5767 22.3808C32.6321 20.837 32.6667 19.1835 32.6736 17.187C32.6805 14.8954 31.7117 12.4185 31.1304 11.1424L31.1234 11.1355ZM8.32068 21.3654C8.30684 21.482 8.293 21.5849 8.293 21.6741C8.28608 22.4014 8.293 23.1355 8.293 23.8491C8.293 24.5626 8.29992 25.3036 8.293 26.024V26.1544L8.16843 26.0995C6.53522 25.3654 5.15805 24.2058 3.82933 23.0875C3.2757 22.6209 2.70823 22.1475 2.12691 21.7015L2.09923 21.681V21.6467L1.50407 15.9382L1.6148 15.9588C4.12691 16.3842 6.11999 18.0789 7.35183 19.4237C7.49715 19.5815 8.21688 20.3774 8.293 20.5557C8.38989 20.7959 8.35529 21.0978 8.32068 21.3585V21.3654ZM8.70823 19.8834L8.65286 19.8148C6.73591 17.2693 4.23072 15.6226 1.60096 15.1904L1.51792 15.1767L1.53176 15.0943C1.60788 14.6141 1.68401 14.1201 1.75321 13.6261C1.90546 12.5626 2.06463 11.458 2.30684 10.4357C2.88124 8 4.68747 6.17496 7.38643 5.29674C10.7359 4.20583 14.7705 4.87135 17.1927 6.91595C17.3518 7.05317 17.7463 7.45111 18.12 7.86964L18.1892 7.94511L18.1061 8C17.8017 8.19897 17.5041 8.41852 17.2203 8.65866L17.1857 8.69297L17.1373 8.67925L13.8501 7.54031C13.6494 7.49228 13.4487 7.506 13.2549 7.53345L6.70131 9.50257C6.34144 9.76329 6.03003 10.1063 5.73245 10.4357C5.56636 10.6141 5.40027 10.7993 5.22034 10.9708C5.06117 11.1218 4.86048 11.2933 4.64594 11.4786C4.2238 11.8422 3.74629 12.2539 3.52484 12.5695C3.40027 12.7479 3.36567 12.9194 3.43487 13.0566C3.51099 13.2007 3.71169 13.2762 3.9539 13.283C4.293 13.283 4.90892 13.1115 5.39335 12.9743C5.55252 12.9331 5.69785 12.8919 5.82241 12.8576C8.40373 12.2058 11.0196 11.3482 13.5387 10.518C14.3484 10.2504 15.1511 9.98971 15.9608 9.72899L16.2376 9.63979L16.0577 9.86621C15.1581 10.9708 14.1823 12.3362 14.1269 12.693C14.0992 12.9057 14.1131 13.235 14.1269 13.4683C14.1684 14.3808 14.2722 15.4854 14.4314 16.8576V16.9331L14.3691 16.9537C12.376 17.5094 10.5006 18.4837 8.78435 19.8422L8.71515 19.8971L8.70823 19.8834ZM15.7809 8.96741L5.22034 12.247L5.19958 12.1578C5.16497 12.0137 5.24802 11.9383 5.3103 11.8902C5.32414 11.8765 5.3449 11.8628 5.35875 11.8422C5.67016 11.4717 6.07155 11.1081 6.45217 10.7581C6.68747 10.5455 6.90892 10.3396 7.11653 10.1338L7.15113 10.1132L13.4418 8.21269H13.4695L15.7878 8.96741H15.7809ZM15.857 24.6038C13.7947 25.434 11.5525 26.2093 9.16497 26.2504H9.07501V20.6998L9.10269 20.6724C10.6252 19.2864 12.466 18.2573 14.4245 17.6878L14.5214 17.6604L14.5352 17.7633C14.6044 18.2847 14.6736 18.7925 14.7359 19.259C14.9089 20.4871 15.2203 21.7358 15.5248 22.9365C15.6563 23.4511 15.7878 23.9863 15.9124 24.5077L15.9262 24.5763L15.857 24.6038ZM25.5594 27.1355V27.2178H25.4626C22.7982 27.2178 20.2169 26.4563 17.7186 25.7221C17.4556 25.6467 17.1927 25.5643 16.9297 25.4888L16.8743 25.4751L16.6667 24.1578L16.1131 20.6655L16.1892 20.6449C16.4729 20.5626 16.7636 20.4871 17.0542 20.4391C17.5525 20.3636 18.1615 20.3568 18.8536 20.4048C19.1165 20.4254 19.4072 20.4528 19.7048 20.494C21.3657 20.7204 23.2134 21.2487 24.3968 21.8388C24.5075 21.8937 25.4487 22.4082 25.5318 22.518C25.7809 22.813 25.5525 27.0875 25.5525 27.1286L25.5594 27.1355ZM25.8985 21.8113L25.8363 21.777C25.075 21.3654 24.2584 20.9331 23.4141 20.6175C22.3068 20.2058 21.1027 19.9314 19.8293 19.801C19.5318 19.7736 19.2411 19.753 18.9643 19.7393C18.5421 19.7187 18.1269 19.7118 17.7463 19.7256C17.6356 19.7256 17.5248 19.7256 17.421 19.7256C16.8259 19.7256 16.2653 19.7256 15.7878 20.1098L15.6632 20.2058L14.819 12.8439L14.8397 12.8165C14.9504 12.6587 15.0612 12.5009 15.1719 12.3431C16.0785 11.0326 17.0196 9.68096 18.2792 8.75472C18.3968 8.67238 18.5006 8.59691 18.6044 8.53516C18.8674 8.36364 19.1581 8.21269 19.4626 8.07547C21.9885 6.93654 25.5525 7.05317 27.767 8.33619C30.3138 9.82504 31.1027 12.8851 31.8017 15.5952L31.9539 16.1921L31.9193 16.2264C31.4072 16.7067 30.8328 17.1389 30.2722 17.5575C29.774 17.928 29.2619 18.3122 28.7982 18.7307C27.8778 19.554 27.0266 20.5283 26.21 21.4614L25.8985 21.8113ZM31.857 20.7822C31.8293 21.187 31.8017 21.5986 31.7809 22.0034V22.0377L31.7532 22.0583C31.4695 22.3396 31.1857 22.6209 30.902 22.9022C29.511 24.2882 28.0785 25.729 26.466 26.9228L26.3276 27.0257V22.4014L26.3484 22.3739C27.6978 20.8233 29.5318 18.8473 31.7809 17.2693L31.9055 17.1801L31.9193 17.331C32.0093 18.4768 31.9262 19.6432 31.857 20.7684V20.7822Z" fill="#153655"/>
<path d="M23.1719 9.53665C23.0197 9.53665 22.8743 9.54351 22.7428 9.56409C22.0439 9.66014 21.4418 10.1267 21.1927 10.7373C20.9851 11.2656 21.075 11.8077 21.4556 12.2673C22.1684 13.1387 23.5318 13.173 24.4591 12.7613C25.2826 12.3908 25.6979 11.7322 25.5733 11.0049C25.4003 9.98262 24.1823 9.52979 23.1719 9.52979V9.53665ZM24.556 11.7871C24.2584 12.1027 23.7532 12.3017 23.2342 12.3017H23.2134C22.7428 12.3017 22.3276 12.1301 22.0646 11.842C21.7601 11.5058 21.7878 11.197 21.8709 11.0049C22.03 10.6138 22.5214 10.2982 23.0404 10.2571C23.5595 10.2228 24.4868 10.4766 24.7428 10.9912C24.8328 11.1696 24.8674 11.4577 24.5491 11.7939L24.556 11.7871Z" fill="#153655"/>
</g>
<defs>
<clipPath id="clip0_7097_2787">
<rect width="32" height="24" fill="white" transform="translate(0.666748 4)"/>
</clipPath>
</defs>
</svg>
