<svg width="41" height="40" viewBox="0 0 41 40" fill="none" xmlns="http://www.w3.org/2000/svg">
<path d="M18 27.5C13.8637 27.5 10.5 24.1362 10.5 20C10.5 15.8637 13.8637 12.5 18 12.5C22.1362 12.5 25.5 15.8637 25.5 20C25.5 24.1362 22.1362 27.5 18 27.5ZM18 17.5C16.6213 17.5 15.5 18.6213 15.5 20C15.5 21.3787 16.6213 22.5 18 22.5C19.3787 22.5 20.5 21.3787 20.5 20C20.5 18.6213 19.3787 17.5 18 17.5Z" fill="#0B2843"/>
<path d="M8 34.3415V37.5003H3V28.9678C4.27375 31.0915 5.97625 32.9253 8 34.3415Z" fill="#0B2843"/>
<path d="M33 20C33 28.2712 26.2712 35 18 35C9.72875 35 3 28.2712 3 20C3 11.7287 9.72875 5 18 5H23V10H18C12.4862 10 8 14.4862 8 20C8 25.5138 12.4862 30 18 30C23.5138 30 28 25.5138 28 20C28 18.1713 27.4938 16.4637 26.6313 14.9875C26.6713 14.9887 26.7087 15 26.75 15C28.1513 15 29.3775 14.2262 30.02 13.0837L31.1625 12.83C32.3313 14.96 33 17.4025 33 20Z" fill="#0B2843"/>
<path d="M25.5 11.25V3.75C25.5 3.06 26.06 2.5 26.75 2.5C27.44 2.5 28 3.06 28 3.75V4.0275L38 6.25V8.75L28 10.9725V11.25C28 11.94 27.44 12.5 26.75 12.5C26.06 12.5 25.5 11.94 25.5 11.25Z" fill="#0B2843"/>
</svg>
