<svg width="85" height="85" viewBox="0 0 85 85" fill="none" xmlns="http://www.w3.org/2000/svg">
<path d="M0 42.5C0 19.0279 19.0279 0 42.5 0C65.9721 0 85 19.0279 85 42.5C85 65.9721 65.9721 85 42.5 85C19.0279 85 0 65.9721 0 42.5Z" fill="#F5F9FC"/>
<path d="M71.9053 59.5913C71.7823 59.797 71.5666 59.92 71.3285 59.92H17.6714C17.4333 59.92 17.2175 59.7981 17.0957 59.5925C16.9727 59.3856 16.9683 59.1375 17.0823 58.9284L27.8137 39.2542C27.9311 39.0384 28.1569 38.9043 28.4028 38.9043H44.4999C44.8699 38.9043 45.1707 39.205 45.1707 39.575C45.1707 39.945 44.8699 40.2457 44.4999 40.2457H28.8008L18.8016 58.5786H70.1983L60.198 40.2457H55.2314C54.8613 40.2457 54.5606 39.945 54.5606 39.575C54.5606 39.205 54.8613 38.9043 55.2314 38.9043H60.5971C60.843 38.9043 61.0688 39.0384 61.1862 39.2542L71.9176 58.9284C72.0316 59.1375 72.0271 59.3857 71.9053 59.5913Z" fill="black"/>
<path d="M32.4538 44.5205L28.8767 48.0976C28.5547 48.4207 28.1702 48.3257 27.9332 48.0876C27.6984 47.8528 27.6057 47.4716 27.9287 47.1497L31.5059 43.5726C31.6668 43.4116 31.8289 43.3635 31.9642 43.3635C32.0223 43.3635 32.076 43.3725 32.1218 43.3848C32.3677 43.4507 32.5768 43.6598 32.6427 43.9046C32.683 44.0588 32.6841 44.2902 32.4538 44.5205Z" fill="black"/>
<path d="M36.031 47.2034L34.2424 48.9919C33.9204 49.315 33.5247 49.2122 33.2922 48.9808C33.167 48.8544 33.0921 48.6979 33.0832 48.5392C33.072 48.3615 33.1435 48.1949 33.2944 48.044L35.083 46.2554C35.244 46.0945 35.4061 46.0464 35.5413 46.0464C35.5995 46.0464 35.6531 46.0553 35.6989 46.0676C35.9449 46.1336 36.1539 46.3426 36.2199 46.5874C36.2601 46.7417 36.2612 46.9731 36.031 47.2034Z" fill="black"/>
<path d="M31.7565 51.2008C31.7565 51.3797 31.6871 51.5485 31.5597 51.6748L28.8769 54.3577C28.7315 54.5041 28.5594 54.5745 28.3805 54.5622C28.2184 54.5511 28.0541 54.4728 27.9267 54.3465C27.6942 54.114 27.6047 53.7339 27.9289 53.4097L30.6118 50.7269C30.7426 50.5961 30.9136 50.5312 31.0857 50.5312C31.2579 50.5312 31.4289 50.5961 31.5597 50.7269C31.6871 50.8543 31.7565 51.022 31.7565 51.2008Z" fill="black"/>
<path d="M59.0577 32.6935L54.1973 30.7496C53.398 30.431 52.7564 29.7893 52.4356 28.9901L50.4883 24.1251C50.3642 23.8144 50.0847 23.7048 49.8656 23.7048C49.6465 23.7048 49.3671 23.8144 49.243 24.1251L47.2968 28.9901C46.976 29.7893 46.3332 30.431 45.5339 30.7507L40.6735 32.6935C40.3638 32.8176 40.2532 33.0959 40.2532 33.315C40.2532 33.5341 40.3638 33.8136 40.6735 33.9388L45.5339 35.8816C46.3332 36.2013 46.976 36.843 47.2968 37.6423L49.243 42.5083C49.3056 42.6625 49.4062 42.7676 49.5191 42.8336C49.632 42.8995 49.7561 42.9275 49.8656 42.9275C50.0858 42.9275 50.3642 42.8179 50.4883 42.5083L52.4356 37.6423C52.7564 36.843 53.398 36.2013 54.1973 35.8816L59.0577 33.9388C59.3685 33.8147 59.4792 33.5353 59.4792 33.3162C59.4792 33.0971 59.3685 32.8165 59.0577 32.6935ZM53.6987 34.6363C52.5596 35.0913 51.6452 36.0057 51.1903 37.1437L49.8656 40.4537L48.541 37.1437C48.0849 36.0046 47.1705 35.0902 46.0325 34.6352L42.7292 33.315L46.0325 31.9937C47.1705 31.5388 48.0849 30.6244 48.541 29.4864L49.8656 26.1775L51.1914 29.4875C51.6464 30.6266 52.5619 31.5399 53.6999 31.9949L57.002 33.315L53.6987 34.6363Z" fill="black"/>
<path d="M40.2777 26.4334L37.3612 25.2664C36.9488 25.102 36.6179 24.7712 36.4524 24.3598L35.2854 21.4411C35.2228 21.2868 35.1222 21.1817 35.0093 21.1147C34.8964 21.0487 34.7723 21.0208 34.6627 21.0208C34.4425 21.0208 34.1642 21.1314 34.0401 21.4411L32.8719 24.3598C32.7076 24.7723 32.3767 25.1032 31.9642 25.2664L29.0478 26.4334C28.7381 26.5564 28.6274 26.8358 28.6274 27.0549C28.6274 27.1645 28.6554 27.2897 28.7213 27.4026C28.7884 27.5155 28.8935 27.6161 29.0478 27.6787L31.9642 28.8446C32.3767 29.0101 32.7076 29.3398 32.8719 29.7512L34.0401 32.671C34.1642 32.9807 34.4436 33.0902 34.6627 33.0902C34.8818 33.0902 35.1613 32.9807 35.2854 32.671L36.4524 29.7512C36.6179 29.3398 36.9488 29.0089 37.3612 28.8446L40.2766 27.6787C40.5874 27.5546 40.698 27.2752 40.698 27.0549C40.698 26.8347 40.5874 26.5564 40.2777 26.4334ZM36.8638 27.5982C36.1126 27.8989 35.509 28.5014 35.2083 29.2526L34.6627 30.6153L34.1172 29.2526C33.8165 28.5014 33.2129 27.8978 32.4617 27.5982L31.1035 27.0549L32.4617 26.5117C33.2129 26.2121 33.8154 25.6096 34.1172 24.8584L34.6627 23.4957L35.2083 24.8584C35.509 25.6096 36.1126 26.2121 36.8638 26.5117L38.222 27.0549L36.8638 27.5982Z" fill="black"/>
</svg>
