<svg width="33" height="32" viewBox="0 0 33 32" fill="none" xmlns="http://www.w3.org/2000/svg">
<g clip-path="url(#clip0_7065_2704)">
<path fill-rule="evenodd" clip-rule="evenodd" d="M3.19071 10.2174C3.47884 10.7914 3.8738 11.2707 4.34554 11.6139C3.87372 11.9571 3.47884 12.4366 3.19071 13.0113C2.9022 12.4366 2.50724 11.9571 2.03619 11.6139C2.50732 11.2707 2.9022 10.7914 3.19071 10.2174ZM0.813473 12.0843C1.78584 12.3641 2.54649 13.4451 2.70553 14.7738C2.77341 15.3438 3.60724 15.3444 3.67567 14.7738C3.83471 13.4451 4.59535 12.3641 5.56811 12.0843C6.0364 11.9498 6.03655 11.279 5.56811 11.1436C4.59543 10.8637 3.83471 9.78278 3.67567 8.45466C3.60732 7.88424 2.77334 7.88478 2.70553 8.45466C2.54649 9.78347 1.78584 10.8637 0.813473 11.1436C0.344107 11.2793 0.344261 11.9496 0.813473 12.0843ZM9.49659 2.19023C9.78472 2.76427 10.1804 3.24374 10.6514 3.58692C10.1804 3.93064 9.78549 4.41011 9.49659 4.98415C9.20876 4.41011 8.81312 3.93064 8.34206 3.58692C8.81312 3.24374 9.20876 2.76434 9.49659 2.19023ZM7.11965 4.05725C8.09241 4.33724 8.85305 5.41804 9.01132 6.74685C9.07982 7.31651 9.91442 7.31628 9.98216 6.74685C10.1412 5.41804 10.9008 4.33724 11.8738 4.05725C12.3433 3.92249 12.3433 3.25212 11.8738 3.11667C10.9008 2.83676 10.1412 1.75642 9.98216 0.42776C9.91427 -0.142202 9.08013 -0.142971 9.01132 0.42776C8.85236 1.75642 8.09241 2.83668 7.11965 3.11667C6.65075 3.25197 6.65067 3.92287 7.11965 4.05725ZM32.328 23.1922C32.2284 23.4466 31.9431 23.5663 31.6946 23.4688L29.3091 22.5307C29.0575 22.4323 28.934 22.1478 29.0329 21.8966C29.131 21.6448 29.4151 21.5215 29.6663 21.62L32.0518 22.5581C32.3034 22.6567 32.4273 22.9404 32.328 23.1922ZM29.3091 18.4817L31.6946 17.5436C31.9454 17.4451 32.2299 17.5691 32.328 17.8202C32.4273 18.072 32.3034 18.3557 32.0518 18.455L29.6663 19.3923C29.4213 19.4896 29.1335 19.3723 29.0329 19.1157C28.934 18.8646 29.0575 18.5808 29.3091 18.4817ZM28.9989 20.5067C28.9989 20.2359 29.2176 20.0174 29.4875 20.0174H31.973C32.2425 20.0174 32.4616 20.2359 32.4616 20.5067C32.4616 20.7767 32.2425 20.9958 31.973 20.9958H29.4875C29.2176 20.9958 28.9989 20.7767 28.9989 20.5067ZM26.999 20.9841H12.8865L13.0672 20.0285L27.0002 20.0297L26.999 20.9841ZM11.7096 21.9508H6.90133C6.72662 21.9508 6.56574 22.044 6.47842 22.1954L4.19295 26.157C3.94283 26.5908 3.90966 27.0854 4.09926 27.5492L4.3404 28.1388H1.19529L1.23861 26.4231C1.24122 26.3136 1.26472 26.23 1.31962 26.1354L5.39931 19.0615H12.2546L11.7096 21.9508ZM8.18156 25.0364L9.80115 22.9293H7.18347L5.66057 25.57H7.09869C7.54517 25.5701 7.90948 25.3905 8.18156 25.0364ZM8.6967 11.0829L16.3212 6.6483L23.9454 11.0829V19.05H13.2515L13.3243 18.6631C13.3808 18.3628 13.1498 18.0832 12.8444 18.0832H8.6967V11.0829ZM26.999 19.05H24.923V10.8012C24.923 10.6269 24.8305 10.4658 24.68 10.3785L16.5665 5.65943C16.4146 5.57126 16.2276 5.57126 16.0757 5.65943L7.96216 10.3785C7.81172 10.4658 7.71919 10.6269 7.71919 10.8012V18.0831H5.11709C4.94239 18.0831 4.78081 18.1764 4.69342 18.3278L0.472968 25.6462C0.337119 25.8812 0.268004 26.1269 0.260939 26.3985L0.205724 28.6164C0.198813 28.891 0.419519 29.1174 0.694289 29.1174H2.40081C2.51754 30.8582 3.7957 32 5.58285 32C8.04134 32 9.63512 30.2205 11.1526 28.516C12.7421 26.7304 14.2346 25.0538 16.7305 25.056C20.0096 25.0618 21.9435 26.797 22.8154 30.5167C22.8773 30.7795 23.1412 30.942 23.4032 30.8807C23.6656 30.8194 23.8288 30.5558 23.7675 30.2929C22.7912 26.1154 20.4759 24.0775 16.7205 24.0775C13.7941 24.0775 12.0028 26.09 10.4225 27.865C9.00894 29.4533 7.67342 30.9536 5.6982 31.0196C4.41351 31.0619 3.49735 30.3667 3.38208 29.1174H5.0681C5.41482 29.1174 5.65143 28.7637 5.52049 28.4428L5.00351 27.1786C4.89823 26.9212 4.96957 26.7667 5.09605 26.5484H7.09861C7.84252 26.5484 8.5021 26.2236 8.95634 25.6332L11.0339 22.9293H12.1149C12.3496 22.9293 12.5516 22.7616 12.5953 22.5307L12.7021 21.9626H26.999C27.5387 21.9626 27.9776 21.5229 27.9776 20.9828V20.0296C27.9777 19.4896 27.5388 19.05 26.999 19.05ZM27.3562 10.0921C27.0673 9.51802 26.6724 9.03854 26.2014 8.69536C26.6724 8.35157 27.0673 7.87271 27.3562 7.29806C27.644 7.87271 28.0389 8.35157 28.51 8.69536C28.0389 9.03854 27.644 9.51802 27.3562 10.0921ZM30.0866 8.69544C30.0866 8.91323 29.9426 9.10511 29.7328 9.16569C28.7604 9.44552 28.0001 10.5259 27.8411 11.8548C27.7727 12.425 26.9389 12.4246 26.8706 11.8548C26.7117 10.5265 25.9513 9.44552 24.979 9.16515C24.5089 9.03016 24.5101 8.35995 24.979 8.22519C25.9513 7.9452 26.7117 6.8644 26.8706 5.53559C26.9388 4.96639 27.7729 4.96601 27.8411 5.53559C28.0001 6.86447 28.7604 7.9452 29.7328 8.22519C29.9426 8.28515 30.0866 8.47688 30.0866 8.69544ZM17.7329 11.1912V12.0778H18.6183V11.1912H17.7329ZM17.7049 13.0563H18.647C19.1703 13.0563 19.5958 12.6304 19.5958 12.1058V11.1632C19.5958 10.6387 19.1703 10.2127 18.647 10.2127H17.7049C17.1815 10.2127 16.7553 10.6387 16.7553 11.1632V12.1058C16.7553 12.6304 17.1816 13.0563 17.7049 13.0563ZM14.0234 11.1912V12.0778H14.9092V11.1912H14.0234ZM13.9951 13.0563H14.9372C15.4605 13.0563 15.8868 12.6304 15.8868 12.1058V11.1632C15.8868 10.6387 15.4605 10.2127 14.9372 10.2127H13.9951C13.4718 10.2127 13.0462 10.6387 13.0462 11.1632V12.1058C13.0462 12.6304 13.4718 13.0563 13.9951 13.0563ZM17.7329 14.8345V15.7211H18.6183V14.8345H17.7329ZM17.7049 16.6996H18.647C19.1703 16.6996 19.5958 16.2735 19.5958 15.7497V14.8065C19.5958 14.2827 19.1703 13.856 18.647 13.856H17.7049C17.1815 13.856 16.7553 14.2827 16.7553 14.8065V15.7497C16.7553 16.2735 17.1816 16.6996 17.7049 16.6996ZM14.0234 14.8345V15.7211H14.9092V14.8345H14.0234ZM13.9951 16.6996H14.9372C15.4605 16.6996 15.8868 16.2735 15.8868 15.7497V14.8065C15.8868 14.2827 15.4605 13.856 14.9372 13.856H13.9951C13.4718 13.856 13.0462 14.2827 13.0462 14.8065V15.7497C13.0462 16.2735 13.4718 16.6996 13.9951 16.6996Z" fill="#153655"/>
</g>
<defs>
<clipPath id="clip0_7065_2704">
<rect width="32" height="32" fill="white" transform="translate(0.333496)"/>
</clipPath>
</defs>
</svg>
