<svg width="41" height="40" viewBox="0 0 41 40" fill="none" xmlns="http://www.w3.org/2000/svg">
<path d="M33.8143 8.61553C30.9289 5.63084 27.1945 3.73295 23.1417 3.15561L24.2969 2.00045C24.7545 1.54279 24.7545 0.80084 24.2969 0.343184C23.8393 -0.114395 23.0973 -0.114395 22.6396 0.343184L19.6719 3.31084C19.2142 3.76842 19.2142 4.51045 19.6719 4.96811L22.6395 7.93576C22.8684 8.16459 23.1683 8.27904 23.4681 8.27904C23.768 8.27904 24.068 8.16459 24.2967 7.93576C24.7544 7.47818 24.7544 6.73615 24.2967 6.2785L23.633 5.61482C26.8528 6.2449 29.8059 7.84131 32.1291 10.2444C35.0591 13.2754 36.6728 17.2669 36.6728 21.4837C36.673 30.4012 29.418 37.6562 20.5005 37.6562C11.5831 37.6562 4.32813 30.4012 4.32813 21.4838C4.32813 18.0811 5.37242 14.8261 7.3482 12.0708C9.28297 9.37256 11.9502 7.3592 15.0616 6.24842C15.6712 6.03076 15.9888 5.36029 15.7713 4.75068C15.5537 4.14115 14.883 3.8235 14.2735 4.04107C10.7108 5.31303 7.65742 7.6174 5.44344 10.705C3.18047 13.8609 1.98438 17.5882 1.98438 21.4839C1.98438 26.4297 3.91039 31.0795 7.40766 34.5768C10.9049 38.0738 15.5547 39.9999 20.5005 39.9999C25.4464 39.9999 30.0962 38.0739 33.5934 34.5767C37.0907 31.0794 39.0167 26.4297 39.0167 21.4838C39.0167 16.6558 37.1691 12.0858 33.8143 8.61553Z" fill="#0B2843"/>
<path d="M7.16675 21.6664C7.16675 29.0184 13.1481 34.9997 20.5001 34.9997C27.8521 34.9997 33.8334 29.0184 33.8334 21.6664C33.8334 14.3145 27.8521 8.33301 20.5001 8.33301C13.148 8.33301 7.16675 14.3144 7.16675 21.6664ZM21.2968 22.8215C19.4287 22.1611 18.3464 21.6406 17.5612 21.0247C16.5948 20.2668 16.1525 18.9577 16.4067 17.6085C16.6825 16.1449 17.7032 14.9797 19.0705 14.5678C19.0895 14.5621 19.1081 14.5575 19.127 14.552V14.0294C19.127 13.3127 19.708 12.7317 20.4247 12.7317C21.1414 12.7317 21.7224 13.3127 21.7224 14.0294V14.4693C22.6285 14.6816 23.2609 15.0957 23.5166 15.2868C24.0906 15.716 24.2081 16.5292 23.779 17.1033C23.3498 17.6774 22.5368 17.7947 21.9625 17.3657C21.6877 17.1603 20.9293 16.7184 19.8192 17.0528C19.1633 17.2504 18.9936 17.8959 18.9572 18.0891C18.8853 18.4707 18.9679 18.8298 19.1629 18.9826C19.8417 19.5149 21.0597 19.9849 22.1616 20.3744C24.1775 21.087 25.2983 22.9544 24.9509 25.0211C24.7803 26.0359 24.2699 26.9774 23.5134 27.6725C22.9931 28.1504 22.3869 28.4902 21.7224 28.6819V29.3033C21.7224 30.02 21.1414 30.601 20.4247 30.601C19.708 30.601 19.127 30.02 19.127 29.3033V28.8095C18.2636 28.708 17.5432 28.4422 16.5743 27.8084C15.9745 27.416 15.8064 26.6117 16.1988 26.0119C16.5911 25.412 17.3955 25.244 17.9952 25.6363C18.8935 26.224 19.2332 26.278 20.416 26.2698C21.5806 26.262 22.2563 25.394 22.3913 24.5908C22.4574 24.1985 22.4828 23.2407 21.2968 22.8215Z" fill="#0B2843"/>
</svg>
