<svg width="24" height="24" viewBox="0 0 24 24" fill="none" xmlns="http://www.w3.org/2000/svg">
<g clip-path="url(#clip0_7051_2669)">
<path d="M23.748 9.404C23.748 9.204 23.684 9.124 23.476 9.096C21.232 8.808 19.132 8.136 17.264 6.828C17.104 6.72 17.008 6.788 16.888 6.868C16.032 7.436 15.136 7.916 14.172 8.28C13.048 8.7 11.88 8.936 10.696 9.108C10.536 9.132 10.456 9.172 10.456 9.344C10.428 11.504 10.268 13.66 10.516 15.816C10.668 17.172 11.116 18.416 11.988 19.488C13.172 20.948 14.604 22.168 16.016 23.4C16.672 23.964 17.648 23.896 18.308 23.308C19.352 22.392 20.38 21.46 21.356 20.468C22.444 19.364 23.28 18.116 23.572 16.564C23.84 15.144 23.744 10.356 23.748 9.408V9.404ZM21.952 16.24C21.736 17.408 21.108 18.344 20.288 19.172C19.556 19.916 18.784 20.616 18 21.304C17.504 21.744 16.772 21.796 16.28 21.372C15.22 20.448 14.144 19.532 13.256 18.436C12.6 17.632 12.264 16.7 12.148 15.68C11.96 14.06 12.084 12.444 12.104 10.82C12.104 10.692 12.164 10.66 12.284 10.644C13.172 10.516 14.048 10.34 14.896 10.024C15.62 9.752 16.296 9.392 16.936 8.964C17.024 8.904 17.1 8.852 17.216 8.932C18.616 9.916 20.196 10.42 21.88 10.636C22.036 10.656 22.084 10.716 22.084 10.868C22.084 11.58 22.152 15.176 21.952 16.24Z" fill="#1C2B54"/>
<path d="M10.4439 18.54C9.98389 18.568 9.61989 18.388 9.27989 18.136C8.97589 17.912 8.73589 17.62 8.46789 17.36C7.55189 16.464 6.18389 16.56 5.38789 17.576C5.14389 17.888 4.97189 18.244 4.78389 18.592C4.50389 19.116 4.16389 19.588 3.66789 19.936C3.05989 20.364 2.39589 20.344 1.81589 19.88C0.66389 18.948 0.61189 17.376 1.68389 16.2C2.04389 15.804 2.48789 15.524 2.94389 15.256C3.73189 14.8 4.52789 14.352 5.21189 13.736C5.82389 13.188 6.06789 12.528 5.89189 11.716C5.75589 11.096 5.37989 10.772 4.74389 10.756C4.18389 10.74 3.66389 10.9 3.14789 11.096C2.62789 11.292 2.10389 11.332 1.56789 11.172C0.61989 10.888 0.06389 9.99202 0.27589 9.08802C0.44789 8.36002 1.13189 7.86402 2.01589 7.83602C2.71189 7.81202 3.37989 7.99202 4.04789 8.16402C4.45189 8.26802 4.84789 8.38802 5.25589 8.46802C5.72389 8.56002 6.16389 8.45602 6.55989 8.18802C7.45589 7.58402 7.47589 6.45602 6.60389 5.81602C6.18389 5.50802 5.69589 5.37602 5.19989 5.27202C4.53989 5.13602 3.99189 4.86002 3.77989 4.15202C3.44389 3.03202 4.04389 2.00002 5.13589 1.84002C5.69989 1.75602 6.27189 2.05202 6.52389 2.56402C6.63189 2.78002 6.70389 3.01602 6.80389 3.23602C7.22789 4.18002 7.96389 4.76002 8.96389 4.98402C9.57189 5.12002 10.0199 4.75602 10.0719 4.13202C10.0959 3.82802 10.0799 3.52402 10.0439 3.22002C9.96789 2.56802 9.99189 1.92402 10.2679 1.31202C10.6239 0.524024 11.2639 0.148024 12.1159 0.224024C12.9359 0.296024 13.5679 0.796025 13.7479 1.50802C13.9279 2.22002 13.5679 2.95602 12.8399 3.35602C12.5839 3.49602 12.3079 3.60802 12.0559 3.75602C11.5399 4.05602 11.3359 4.56802 11.4919 5.10002C11.6519 5.64002 12.1919 6.03202 12.7519 6.01202C13.0599 6.00002 13.2879 5.85202 13.4799 5.62802C13.7119 5.36002 13.9439 5.08802 14.2559 4.90802C14.7399 4.62802 15.1519 4.70802 15.4759 5.16002C15.7319 5.51202 15.8359 5.92402 15.9159 6.34402C15.9519 6.52802 15.8439 6.59202 15.7159 6.66802C14.3679 7.45202 12.9159 7.93602 11.3839 8.19202C10.9759 8.26002 10.5639 8.32002 10.1519 8.38402C9.79589 8.44002 9.68789 8.54002 9.67989 8.89602C9.63189 11.016 9.49989 13.132 9.65589 15.252C9.73189 16.308 9.91989 17.34 10.3559 18.316C10.3839 18.38 10.3999 18.448 10.4319 18.54H10.4439Z" fill="#1C2B54"/>
<path d="M16.9039 17.828C16.6959 17.828 16.4959 17.748 16.3479 17.6L13.7719 15.06C13.4599 14.752 13.4559 14.252 13.7639 13.94C14.0719 13.628 14.5719 13.624 14.8839 13.932L16.8719 15.888L19.7399 12.692C20.0319 12.368 20.5319 12.34 20.8559 12.632C21.1799 12.924 21.2079 13.424 20.9159 13.748L17.4959 17.56C17.3519 17.72 17.1479 17.816 16.9319 17.824C16.9239 17.824 16.9159 17.824 16.9079 17.824L16.9039 17.828Z" fill="#1C2B54"/>
</g>
<defs>
<clipPath id="clip0_7051_2669">
<rect width="24" height="24" fill="white"/>
</clipPath>
</defs>
</svg>
