<svg width="49" height="49" viewBox="0 0 49 49" fill="none" xmlns="http://www.w3.org/2000/svg">
<path d="M34.1932 20.8516C34.0652 20.5716 33.9772 20.2996 34.0092 19.9876C34.2092 17.6516 34.4012 15.3156 34.5932 12.9796C34.7052 11.6356 33.8092 10.4356 32.4972 10.1636C31.6492 9.98756 30.8812 10.2436 30.1292 10.5796C29.9692 10.6516 29.8492 10.7156 29.7132 10.5316C28.6972 9.25156 26.6012 8.96356 25.0812 10.3236C23.7372 11.5236 22.3292 12.6436 20.9452 13.7956C20.8252 13.8916 20.7292 14.0356 20.5532 14.0596C20.4332 13.3556 20.4652 13.2276 20.8332 12.6756C20.9612 12.4916 21.0892 12.3076 21.2172 12.1156L23.5772 8.65956H23.5692C23.6492 8.52356 23.7452 8.40356 23.8252 8.27556C24.2332 7.60356 24.3532 6.86756 24.1852 6.10756C23.8972 4.77956 23.0732 3.91556 21.7532 3.64356C20.4492 3.37156 19.3372 3.80356 18.5612 4.89956C17.3932 6.55556 16.2652 8.25156 15.1132 9.92356C14.5212 10.7796 14.2332 11.7156 14.2332 12.7636C14.2492 14.8516 14.2332 16.9396 14.2412 19.0276C14.2412 19.2996 14.1612 19.4836 13.9532 19.6516C13.4092 20.0836 12.8732 20.5316 12.3532 20.9876C11.1052 22.0836 10.4332 23.4756 10.5052 25.1396C10.5532 26.4036 10.6652 27.6676 10.7772 28.9316C10.7772 28.9316 10.8732 31.8836 11.2332 33.7156H11.2492C11.4812 34.8676 11.8812 35.9476 12.5212 36.9396C13.3852 38.2836 14.4652 39.4596 15.4412 40.7156C15.6092 40.9316 15.6892 41.1476 15.6812 41.4196C15.6652 42.4996 15.6732 43.5716 15.6812 44.6516C15.6812 45.1156 15.9052 45.3716 16.2732 45.3796C16.6572 45.3876 16.8892 45.1236 16.8972 44.6436C16.9052 44.0276 16.8972 43.4196 16.8972 42.8036C16.8972 42.2036 16.8972 41.6036 16.8972 41.0036C16.8972 40.7156 16.8172 40.4836 16.6332 40.2596C15.8812 39.3236 15.1532 38.3716 14.3852 37.4516C13.4972 36.3796 12.8492 35.1956 12.5212 33.8756C12.3052 32.4276 12.1532 30.7716 12.0812 29.8116C11.9852 28.4836 11.9132 27.1476 11.7532 25.8276C11.5452 24.0676 12.1452 22.7076 13.5052 21.5956C15.9932 19.5556 18.4492 17.4756 20.9132 15.4036C22.5932 13.9956 24.2812 12.5876 25.9612 11.1716C26.5132 10.7076 27.1212 10.5156 27.8172 10.7076C28.5532 10.9076 29.0172 11.4116 29.1692 12.1476C29.3292 12.9236 29.0732 13.5876 28.4492 14.0676C25.8892 16.0436 23.6412 18.3956 20.8652 20.1236C19.5852 20.9236 18.5292 22.0836 17.3852 23.0916C17.0972 23.3396 17.0972 23.7156 17.3212 23.9636C17.5452 24.2036 17.8732 24.2276 18.1692 24.0116C18.2332 23.9636 18.2972 23.9076 18.3532 23.8516C19.3612 22.9716 20.3692 22.0916 21.3772 21.2196C22.0492 20.6356 22.8092 20.6276 23.4892 21.1876C23.5932 21.2756 23.6972 21.3636 23.8012 21.4516C25.3212 22.7396 26.8412 24.0276 28.3532 25.3236C29.4172 26.2436 29.2652 27.8436 28.0732 28.4916C27.8252 28.6276 27.6572 28.6196 27.4332 28.4196C26.3932 27.5156 25.3452 26.6276 24.2892 25.7396C23.2092 24.8356 21.8092 24.7636 20.7612 25.6276C19.6252 26.5636 18.5292 27.5556 17.4172 28.5156C17.2892 28.6276 17.1852 28.7476 17.1692 28.9236C17.1372 29.1956 17.2252 29.4116 17.4652 29.5476C17.7532 29.7076 18.0092 29.6276 18.2492 29.4196C19.2972 28.5076 20.3452 27.5876 21.4012 26.6836C22.0412 26.1316 22.8092 26.0996 23.4492 26.6356C25.1212 28.0436 26.7852 29.4516 28.4332 30.8756C29.0332 31.3956 29.2092 32.0836 28.9932 32.8436C28.6012 34.1796 27.0172 34.6356 25.9292 33.7396C24.9772 32.9476 24.0332 32.1316 23.0892 31.3316C22.5452 30.8676 22.3372 30.8756 21.8412 31.3636C21.6732 31.5236 21.5132 31.6916 21.3532 31.8516C20.9052 32.2996 20.8332 32.6356 21.1212 32.9316C21.4252 33.2436 21.7692 33.1956 22.2252 32.6996C22.4492 32.4596 22.5852 32.4916 22.8092 32.6916C23.6012 33.3796 24.3852 34.0756 25.2092 34.7316C26.2492 35.5556 27.4092 35.6836 28.5852 35.0836C29.7452 34.4916 30.3212 33.5076 30.2972 32.1956C30.2812 31.1716 29.8012 30.3796 29.0172 29.7476C28.8812 29.6436 28.7132 29.5796 28.9692 29.3716C30.7452 27.9716 30.7692 25.7476 29.0412 24.2836C28.4492 23.7796 27.8652 23.2676 27.2572 22.7796C27.0652 22.6276 27.0012 22.4836 27.0572 22.2276C27.4012 20.5476 27.7692 18.8676 28.0412 17.1716C28.1932 16.2276 28.4892 15.4756 29.3132 14.8996C30.1132 14.3396 30.4492 13.4596 30.4412 12.4676C30.4412 11.6596 30.4412 11.6596 31.2252 11.4276C31.3532 11.3876 31.4892 11.3556 31.6252 11.3316C32.6092 11.1396 33.4412 11.8596 33.3612 12.8516C33.1932 14.9316 33.0332 17.0116 32.8252 19.0836C32.7292 20.0596 32.7932 20.9716 33.3052 21.8436C33.6012 22.3476 33.8252 22.8916 34.0812 23.4196C35.1692 25.7236 35.4332 28.1076 34.8492 30.5876C34.6732 31.3476 34.3772 32.0596 34.0652 32.7636L32.3292 36.6276C31.8892 37.6036 31.4572 38.5876 31.0092 39.5636C30.8732 39.8516 30.8092 40.1476 30.8092 40.4676C30.8172 41.8036 30.8252 43.1396 30.8092 44.4756C30.8092 44.8516 30.8732 45.1636 31.1692 45.4116H31.6572C31.9852 45.1876 32.0492 44.8676 32.0492 44.4916C32.0332 43.2116 32.0492 41.9316 32.0492 40.6516C32.0492 40.4036 32.0892 40.1716 32.2012 39.9396C32.5692 39.1396 32.9292 38.3316 33.2812 37.5316L35.0732 33.5396C35.1532 33.3636 35.2332 33.1876 35.3132 33.0116C36.5692 30.1556 36.7292 27.2516 35.7532 24.2836C35.3532 23.0756 34.7212 21.9716 34.1852 20.8276L34.1932 20.8516ZM18.5852 15.7956C17.5372 16.5876 16.5532 17.4756 15.4732 18.3796C15.4732 16.2916 15.4652 14.2996 15.4732 12.3076C15.4732 11.7796 15.6732 11.2916 15.9692 10.8516C17.1532 9.10756 18.3372 7.35556 19.5452 5.61956C20.1532 4.74756 21.2892 4.55556 22.1532 5.12356C23.0092 5.69156 23.2572 6.82756 22.7132 7.72356C22.6252 7.86756 22.5292 8.01156 22.4332 8.14756L20.0892 11.5476C19.5292 12.3316 19.0732 13.1636 19.2732 14.2436C19.3932 14.9156 19.1372 15.3716 18.5852 15.7876V15.7956ZM25.9372 21.6436C25.1052 21.0356 24.4492 20.2916 23.5692 19.7796C24.6412 18.8836 25.6972 18.0036 26.8332 17.0436C26.5212 18.6356 26.2332 20.1156 25.9292 21.6436H25.9372Z" fill="black"/>
<path d="M36.6576 7.60488C35.9616 8.02088 35.2656 8.45288 34.5776 8.88488C34.2176 9.11688 34.1216 9.43688 34.2976 9.74888C34.4816 10.0689 34.8416 10.1489 35.2176 9.93288C35.9136 9.51688 36.6016 9.07688 37.2976 8.65288C37.5056 8.52488 37.6336 8.34088 37.6416 8.10888C37.6416 7.59688 37.1216 7.33288 36.6576 7.60488Z" fill="black"/>
<path d="M29.7213 7.35683C30.0573 7.34083 30.2893 7.09283 30.2973 6.70083C30.3053 6.29283 30.2973 5.88483 30.2973 5.47683C30.2973 5.06883 30.2973 4.66083 30.2973 4.25283C30.2893 3.82883 30.0653 3.57283 29.7053 3.55683C29.3533 3.54883 29.0813 3.79683 29.0813 4.21283C29.0653 5.04483 29.0653 5.87683 29.0813 6.70883C29.0813 7.11683 29.3613 7.37283 29.7133 7.36483L29.7213 7.35683Z" fill="black"/>
<path d="M32.3056 7.96387C32.6336 8.15587 32.9776 8.03587 33.2096 7.61987C33.5936 6.94787 33.9616 6.26787 34.3376 5.59587C34.4096 5.46787 34.4736 5.33187 34.4736 5.25987C34.4576 4.88387 34.3216 4.68387 34.0416 4.60387C33.7216 4.50787 33.4736 4.63587 33.3216 4.91587C32.9216 5.61987 32.5216 6.33187 32.1376 7.05187C31.9216 7.45187 31.9856 7.78787 32.3056 7.97187V7.96387Z" fill="black"/>
</svg>
