<svg width="85" height="85" viewBox="0 0 85 85" fill="none" xmlns="http://www.w3.org/2000/svg">
<path d="M0 42.5C0 19.0279 19.0279 0 42.5 0C65.9721 0 85 19.0279 85 42.5C85 65.9721 65.9721 85 42.5 85C19.0279 85 0 65.9721 0 42.5Z" fill="#F5F9FC"/>
<g clip-path="url(#clip0_3096_3796)">
<path d="M65.1786 24.521L42.8348 15.0678C42.6208 14.9774 42.3793 14.9774 42.1652 15.0678L19.8214 24.521C19.5034 24.6556 19.2969 24.9673 19.2969 25.3126V38.8882C19.2969 53.0292 28.463 65.7208 42.2472 69.9621C42.412 70.0127 42.5877 70.0128 42.7527 69.9621C56.2684 65.8034 65.7031 53.3102 65.7031 38.8881V25.3126C65.7031 24.9673 65.4966 24.6556 65.1786 24.521ZM63.9844 38.8881C63.9844 52.4032 55.3625 64.1653 42.5 68.2403C29.6375 64.1653 21.0156 52.4033 21.0156 38.8881V25.882L42.5 16.7925L63.9844 25.882V38.8881Z" fill="#153655"/>
<path d="M38.9584 48.7675C39.9661 49.7751 41.5968 49.775 42.6043 48.7675L53.8499 37.5218C54.8957 36.476 54.8957 34.7742 53.8499 33.7283C52.8041 32.6827 51.1023 32.6827 50.0564 33.7283L40.7813 43.0036L36.6624 38.8846C35.6166 37.8389 33.9149 37.8389 32.8691 38.8846C31.8207 39.9328 31.8206 41.6298 32.8691 42.6781L38.9584 48.7675ZM34.0842 40.1001C34.4599 39.7244 35.0713 39.7243 35.4471 40.1001L40.1736 44.8266C40.5092 45.1621 41.0533 45.1621 41.3889 44.8266L51.2718 34.9438C51.4537 34.7618 51.6957 34.6616 51.9532 34.6616C52.8096 34.6616 53.2376 35.7036 52.6346 36.3066L41.3889 47.5521C41.0538 47.8872 40.5087 47.8872 40.1736 47.5521L34.0842 41.4627C33.7077 41.0861 33.7076 40.4767 34.0842 40.1001Z" fill="#153655"/>
<path d="M42.1473 20.232L24.9598 27.9664C24.6514 28.105 24.4531 28.4117 24.4531 28.75V39.7589C24.4531 51.0154 31.5915 61.0769 42.2161 64.7954C42.4114 64.8638 42.6255 64.8595 42.8192 64.7822L43.8724 64.3608C53.9485 60.3304 60.5469 50.5839 60.5469 39.7324V28.75C60.5469 28.4118 60.3485 28.105 60.0402 27.9664L42.8527 20.232C42.6283 20.131 42.3714 20.131 42.1473 20.232ZM58.8281 29.3056V39.7323C58.8281 49.935 52.7072 58.9758 43.2341 62.7649L42.4827 63.0656C32.713 59.5047 26.1719 50.1795 26.1719 39.7589V29.3056L42.5 21.9579L58.8281 29.3056Z" fill="#153655"/>
</g>
<defs>
<clipPath id="clip0_3096_3796">
<rect width="55" height="55" fill="white" transform="translate(15 15)"/>
</clipPath>
</defs>
</svg>
