<svg width="41" height="40" viewBox="0 0 41 40" fill="none" xmlns="http://www.w3.org/2000/svg">
<g clip-path="url(#clip0_7068_2798)">
<path d="M40.08 15.6736C40.08 15.3403 39.9734 15.2069 39.6267 15.1603C35.8867 14.6803 32.3867 13.5603 29.2734 11.3803C29.0067 11.2003 28.8467 11.3136 28.6467 11.4469C27.22 12.3936 25.7267 13.1936 24.12 13.8003C22.2467 14.5003 20.3 14.8936 18.3267 15.1803C18.06 15.2203 17.9267 15.287 17.9267 15.5736C17.88 19.1736 17.6134 22.767 18.0267 26.3603C18.28 28.6203 19.0267 30.6936 20.48 32.4803C22.4534 34.9136 24.84 36.9469 27.1934 39.0003C28.2867 39.9403 29.9134 39.8269 31.0134 38.8469C32.7534 37.3203 34.4667 35.7669 36.0934 34.1136C37.9067 32.2736 39.3 30.1936 39.7867 27.6069C40.2334 25.2403 40.0734 17.2603 40.08 15.6803V15.6736ZM37.0867 27.0669C36.7267 29.0136 35.68 30.5736 34.3134 31.9536C33.0934 33.1936 31.8067 34.3603 30.5 35.5069C29.6734 36.2403 28.4534 36.3269 27.6334 35.6203C25.8667 34.0803 24.0734 32.5536 22.5934 30.7269C21.5 29.3869 20.94 27.8336 20.7467 26.1336C20.4334 23.4336 20.64 20.7403 20.6734 18.0336C20.6734 17.8203 20.7734 17.7669 20.9734 17.7403C22.4534 17.5269 23.9134 17.2336 25.3267 16.7069C26.5334 16.2536 27.66 15.6536 28.7267 14.9403C28.8734 14.8403 29 14.7536 29.1934 14.8869C31.5267 16.5269 34.16 17.3669 36.9667 17.7269C37.2267 17.7603 37.3067 17.8603 37.3067 18.1136C37.3067 19.3003 37.42 25.2936 37.0867 27.0669Z" fill="#0B2843"/>
<path d="M17.9067 30.9001C17.14 30.9468 16.5334 30.6468 15.9667 30.2268C15.46 29.8534 15.06 29.3668 14.6134 28.9334C13.0867 27.4401 10.8067 27.6001 9.48002 29.2934C9.07335 29.8134 8.78669 30.4068 8.47335 30.9868C8.00669 31.8601 7.44002 32.6468 6.61335 33.2268C5.60002 33.9401 4.49335 33.9068 3.52669 33.1334C1.60669 31.5801 1.52002 28.9601 3.30669 27.0001C3.90669 26.3401 4.64669 25.8734 5.40669 25.4268C6.72002 24.6668 8.04669 23.9201 9.18669 22.8934C10.2067 21.9801 10.6134 20.8801 10.32 19.5268C10.0934 18.4934 9.46669 17.9534 8.40669 17.9268C7.47335 17.9001 6.60669 18.1668 5.74669 18.4934C4.88002 18.8201 4.00669 18.8868 3.11335 18.6201C1.53335 18.1468 0.606687 16.6534 0.96002 15.1468C1.24669 13.9334 2.38669 13.1068 3.86002 13.0601C5.02002 13.0201 6.13335 13.3201 7.24669 13.6068C7.92002 13.7801 8.58002 13.9801 9.26002 14.1134C10.04 14.2668 10.7734 14.0934 11.4334 13.6468C12.9267 12.6401 12.96 10.7601 11.5067 9.69343C10.8067 9.1801 9.99335 8.9601 9.16669 8.78677C8.06669 8.5601 7.15335 8.1001 6.80002 6.9201C6.24002 5.05343 7.24002 3.33343 9.06002 3.06677C10 2.92677 10.9534 3.4201 11.3734 4.27343C11.5534 4.63343 11.6734 5.02677 11.84 5.39344C12.5467 6.96677 13.7734 7.93343 15.44 8.30677C16.4534 8.53343 17.2 7.92677 17.2867 6.88677C17.3267 6.3801 17.3 5.87344 17.24 5.36677C17.1134 4.2801 17.1534 3.20677 17.6134 2.18677C18.2067 0.873435 19.2734 0.246769 20.6934 0.373435C22.06 0.493435 23.1134 1.32677 23.4134 2.51344C23.7134 3.7001 23.1134 4.92677 21.9 5.59343C21.4734 5.82677 21.0134 6.01343 20.5934 6.2601C19.7334 6.7601 19.3934 7.61343 19.6534 8.5001C19.92 9.4001 20.82 10.0534 21.7534 10.0201C22.2667 10.0001 22.6467 9.75343 22.9667 9.3801C23.3534 8.93343 23.74 8.4801 24.26 8.1801C25.0667 7.71343 25.7534 7.84677 26.2934 8.6001C26.72 9.18677 26.8934 9.87343 27.0267 10.5734C27.0867 10.8801 26.9067 10.9868 26.6934 11.1134C24.4467 12.4201 22.0267 13.2268 19.4734 13.6534C18.7934 13.7668 18.1067 13.8668 17.42 13.9734C16.8267 14.0668 16.6467 14.2334 16.6334 14.8268C16.5534 18.3601 16.3334 21.8868 16.5934 25.4201C16.72 27.1801 17.0334 28.9001 17.76 30.5268C17.8067 30.6334 17.8334 30.7468 17.8867 30.9001H17.9067Z" fill="#0B2843"/>
<path d="M28.6733 29.7138C28.3266 29.7138 27.9933 29.5804 27.7466 29.3338L23.4533 25.1004C22.9333 24.5871 22.9266 23.7538 23.44 23.2338C23.9533 22.7138 24.7866 22.7071 25.3066 23.2204L28.62 26.4804L33.4 21.1538C33.8866 20.6138 34.72 20.5671 35.26 21.0538C35.8 21.5404 35.8466 22.3738 35.36 22.9138L29.66 29.2671C29.42 29.5338 29.08 29.6938 28.72 29.7071C28.7066 29.7071 28.6933 29.7071 28.68 29.7071L28.6733 29.7138Z" fill="#0B2843"/>
</g>
<defs>
<clipPath id="clip0_7068_2798">
<rect width="40" height="40" fill="white" transform="translate(0.5)"/>
</clipPath>
</defs>
</svg>
