<svg width="50" height="49" viewBox="0 0 50 49" fill="none" xmlns="http://www.w3.org/2000/svg">
<g clip-path="url(#clip0_7087_2667)">
<path d="M27.3987 20.8108C27.3176 20.7906 27.2264 20.7906 27.1149 20.8108H27.1048C26.0305 20.6798 25.2196 19.7827 25.2095 18.7041C25.2095 18.2606 24.8548 17.9078 24.4088 17.9078C23.9629 17.9078 23.6082 18.2606 23.6082 18.7041C23.6082 20.3673 24.7433 21.849 26.3548 22.2824L26.4257 22.3026V23.2702C26.4257 23.7138 26.7805 24.0665 27.2264 24.0665C27.6723 24.0665 28.0271 23.7138 28.0271 23.2702V22.353L28.1082 22.3328C29.9832 21.9397 31.25 20.2161 31.0575 18.311C30.8548 16.4161 29.2636 14.9847 27.348 14.9847C26.1723 14.9847 25.2095 14.0272 25.2095 12.8579C25.2095 11.6887 26.1622 10.7311 27.348 10.7311C28.5338 10.7311 29.4865 11.6887 29.4865 12.8579C29.4865 13.3014 29.8413 13.6542 30.2872 13.6542C30.7332 13.6542 31.0879 13.3014 31.0879 12.8579C31.0879 11.1141 29.8311 9.58202 28.1183 9.22923L28.0372 9.20907V8.32205C28.0372 7.87855 27.6825 7.52576 27.2365 7.52576C26.7906 7.52576 26.4359 7.87855 26.4359 8.32205V9.25947L26.3649 9.27962C24.571 9.76345 23.4055 11.5173 23.6487 13.3518C23.7703 14.2388 24.2061 15.0553 24.8953 15.65C25.5744 16.2447 26.446 16.5672 27.348 16.5672C28.5034 16.5672 29.4561 17.5047 29.4865 18.6537C29.5068 19.8028 28.5845 20.7705 27.4088 20.8108H27.3987Z" fill="black"/>
<path d="M27.348 28.6831C34.473 28.6831 40.2601 22.9175 40.2601 15.8415C40.2601 8.76559 34.4628 3 27.348 3C20.2331 3 14.4459 8.76559 14.4358 15.8415C14.4358 22.9276 20.2331 28.6831 27.348 28.6831ZM16.027 15.8415C16.027 12.8479 17.2128 10.0256 19.3513 7.89873C21.4898 5.77192 24.3277 4.59259 27.3378 4.59259C33.5811 4.59259 38.6486 9.64252 38.6486 15.8415C38.6486 22.0406 33.5709 27.0905 27.3378 27.0905C21.1047 27.0905 16.027 22.0406 16.027 15.8415Z" fill="black"/>
<path d="M49.8986 33.5113C48.7331 31.455 46.1588 30.6789 44.0405 31.7372L36.9257 35.0837L36.8851 35.0031C35.9324 33.2492 34.098 32.1203 32.0912 32.0598L25.6047 31.8884C24.5709 31.8582 23.5372 31.5961 22.6149 31.1224L21.9561 30.7797C18.6014 29.046 14.6081 29.046 11.2635 30.7898L11.1115 30.8704L11.1622 29.2173C11.1622 29.0056 11.0912 28.8041 10.9392 28.6529C10.7872 28.5017 10.5946 28.4109 10.3818 28.4009L3.26689 28.2094C3.04392 28.2094 2.85135 28.2799 2.69932 28.421C2.5473 28.5621 2.45608 28.7637 2.44595 28.9754L2 44.4981C2 44.7098 2.07095 44.9114 2.21284 45.0727C2.35473 45.2239 2.55743 45.3146 2.77027 45.3247L9.90541 45.5162C10.3412 45.5162 10.6959 45.1735 10.7061 44.7401L10.7264 43.9438L12.6216 42.9358C13.3615 42.5427 14.2331 42.4419 15.0642 42.6737L26.1014 45.7581H26.1622C26.9527 45.9395 27.7534 46.0202 28.5743 46.0202C30.2973 46.0202 31.9595 45.6573 33.5304 44.9417C33.5608 44.9316 33.5912 44.9114 33.6318 44.8913L49.6351 34.5999C49.9899 34.368 50.1013 33.9044 49.8986 33.5415V33.5113ZM11.8818 41.5246L10.7872 42.1093L11.0405 32.7553L11.0811 32.7251C14.1014 30.7293 17.9831 30.5176 21.1959 32.1908L21.8547 32.5335C22.9899 33.1182 24.2669 33.4407 25.5338 33.481L32.0203 33.6625C33.8953 33.7129 35.4763 35.0333 35.8513 36.8577L35.8716 36.9787L26.0811 36.7065C25.6351 36.7065 25.2804 37.0392 25.2703 37.4827C25.2601 37.9161 25.6047 38.2891 26.0507 38.2991L36.7432 38.5914C37.1791 38.5914 37.5338 38.2487 37.5439 37.8153C37.5541 37.4323 37.5236 37.0492 37.4628 36.6763V36.6057L44.75 33.1786C45.8041 32.6444 47.0912 32.8259 47.9628 33.6221L48.0541 33.7028L32.8007 43.5204C30.8243 44.4074 28.6554 44.6493 26.5169 44.2159L15.5101 41.1416C15.0743 41.0206 14.6284 40.9602 14.1824 40.9602C13.3919 40.9602 12.6014 41.1517 11.8818 41.5347V41.5246ZM9.52027 29.9632L9.13513 43.9034L3.62162 43.7522L4.00676 29.812L9.52027 29.9632Z" fill="black"/>
</g>
<defs>
<clipPath id="clip0_7087_2667">
<rect width="48" height="43" fill="white" transform="translate(2 3)"/>
</clipPath>
</defs>
</svg>
