<svg width="49" height="49" viewBox="0 0 49 49" fill="none" xmlns="http://www.w3.org/2000/svg">
<path d="M45.5372 28.2164C45.4231 27.9882 45.1379 27.8741 44.9097 27.8171C43.5977 27.8171 32.3029 27.3607 32.3029 14.2406C32.3029 13.8413 31.9607 13.499 31.5614 13.499C31.1621 13.499 30.8198 13.8413 30.8198 14.2406C30.8198 27.3607 19.5251 27.8171 18.2701 27.8171C18.099 27.8171 17.9278 27.8741 17.8137 27.9882C17.6997 28.0453 17.6426 28.1594 17.5856 28.2164C17.4715 28.4446 17.4715 28.7298 17.5856 28.958C17.6997 29.1861 17.9849 29.3573 18.2701 29.3573C18.2701 29.3573 18.2701 29.3573 18.3271 29.3573C19.6392 29.3573 30.8768 29.8136 30.8768 42.9338C30.8768 43.3331 31.2191 43.6753 31.6184 43.6753C32.0177 43.6753 32.36 43.3331 32.36 42.9338C32.36 29.8707 43.5977 29.3573 44.9097 29.3573C45.1949 29.3573 45.4231 29.1861 45.5942 28.958C45.7083 28.7298 45.7083 28.4446 45.5372 28.2164ZM31.5614 37.3434C29.9071 31.9243 25.857 29.5855 22.6625 28.5587C25.857 27.5319 29.9071 25.1931 31.5614 19.7739C33.2156 25.1931 37.2658 27.5319 40.4602 28.5587C37.2658 29.5855 33.2156 31.9243 31.5614 37.3434Z" fill="black"/>
<path d="M24.9754 13.1965C25.3747 13.1965 25.7169 12.8543 25.7169 12.3979C25.7169 11.9986 25.3747 11.6563 24.9754 11.6563C24.2908 11.6563 18.1301 11.4282 18.1301 4.2406C18.1301 3.84129 17.7878 3.49902 17.3885 3.49902C16.9892 3.49902 16.6469 3.84129 16.6469 4.2406C16.6469 11.4282 10.4862 11.6563 9.80163 11.6563C9.74459 11.6563 9.74459 11.6563 9.74459 11.6563C9.34528 11.7134 9.06006 11.9986 9.06006 12.3979C9.06006 12.7972 9.40232 13.1395 9.80163 13.1395C10.5432 13.1395 16.6469 13.3676 16.6469 20.5552C16.6469 20.9545 16.9892 21.2968 17.3885 21.2968C17.7308 21.3538 18.073 21.0116 18.073 20.6122C18.073 13.4247 24.2338 13.1965 24.9183 13.1965H24.9754ZM17.3315 16.448C16.4187 14.2804 14.7645 13.0824 13.2243 12.3979C14.8786 11.7134 16.4187 10.4014 17.3315 8.34777C18.2442 10.5154 19.8984 11.7134 21.4386 12.3979C19.7843 13.0824 18.2442 14.3944 17.3315 16.448Z" fill="black"/>
<path d="M19.4153 36.3839C18.7308 36.3839 12.57 36.1557 12.57 28.9681C12.57 28.5688 12.2277 28.2266 11.8284 28.2266C11.4291 28.2266 11.0869 28.5688 11.0869 28.9681C11.0869 36.1557 4.9261 36.3839 4.24157 36.3839C4.18453 36.3839 4.18453 36.3839 4.18453 36.3839C3.78522 36.4409 3.5 36.7261 3.5 37.1254C3.5 37.5247 3.84226 37.867 4.24157 37.867C4.98315 37.867 11.0869 38.0952 11.0869 45.2827C11.0869 45.6821 11.4291 46.0243 11.8284 46.0243C12.1707 46.1384 12.513 45.7961 12.513 45.3398C12.513 38.1522 18.6737 37.9241 19.3583 37.9241H19.4153C19.8146 37.9241 20.1569 37.5818 20.1569 37.1254C20.1569 36.7261 19.8146 36.3839 19.4153 36.3839ZM11.7714 41.2326C10.8016 39.0649 9.20441 37.867 7.66422 37.1825C9.3185 36.498 10.8587 35.1859 11.7714 33.1324C12.6841 35.3 14.3384 36.498 15.8786 37.1825C14.2243 37.867 12.6841 39.179 11.7714 41.2326Z" fill="black"/>
</svg>
