<svg width="49" height="49" viewBox="0 0 49 49" fill="none" xmlns="http://www.w3.org/2000/svg">
<g clip-path="url(#clip0_7064_2881)">
<path d="M2.07715 32.0428C2.12486 32.1848 2.21772 32.3072 2.34154 32.3914C2.46536 32.4756 2.61333 32.5169 2.76286 32.5091C2.83564 32.5195 2.90952 32.5195 2.98229 32.5091C3.06797 32.4805 3.14715 32.4352 3.21527 32.3759C3.2834 32.3166 3.33914 32.2444 3.37928 32.1635C3.41942 32.0826 3.44318 31.9945 3.44919 31.9044C3.4552 31.8142 3.44334 31.7238 3.41429 31.6383C1.87179 27.0631 1.85735 22.1106 3.37315 17.5264C4.88894 12.9423 7.85293 8.97464 11.8189 6.22085C15.7848 3.46706 20.538 2.07617 25.3628 2.25761C30.1876 2.43904 34.823 4.18298 38.5709 7.22684L36.9046 8.59827L41.9103 10.1686L41.4303 4.94341L39.6543 6.34913C35.7001 3.04607 30.7755 1.12462 25.6292 0.87696C20.4829 0.629296 15.3965 2.06896 11.1434 4.97705C6.89031 7.88513 3.70322 12.1025 2.06673 16.988C0.430253 21.8734 0.43391 27.1597 2.07715 32.0428Z" fill="black"/>
<path d="M46.0521 16.5183C45.9664 16.5469 45.8873 16.5922 45.8191 16.6515C45.751 16.7108 45.6953 16.783 45.6551 16.8639C45.615 16.9448 45.5912 17.0329 45.5852 17.123C45.5792 17.2132 45.5911 17.3036 45.6201 17.3891C47.1801 22.0108 47.1798 27.0168 45.6191 31.6382C44.0584 36.2597 41.0237 40.241 36.9811 42.9706C32.9385 45.7002 28.1115 47.0271 23.2417 46.7476C18.3719 46.4681 13.7284 44.5976 10.0247 41.4234L11.5812 39.9354L6.46582 38.7834L7.35725 43.9537L9.00982 42.3766C12.0345 44.9946 15.6716 46.8061 19.5835 47.6428C21.2004 47.9825 22.8479 48.1548 24.5001 48.1571C28.2536 48.1557 31.953 47.2614 35.2927 45.548C38.6324 43.8347 41.5166 41.3515 43.7071 38.3034C45.8977 35.2554 47.3318 31.73 47.8909 28.0183C48.4501 24.3067 48.1183 20.5152 46.923 16.9571C46.895 16.8708 46.8503 16.7909 46.7913 16.7221C46.7322 16.6532 46.6601 16.5967 46.5791 16.5559C46.4981 16.5151 46.4099 16.4907 46.3194 16.4843C46.2289 16.4778 46.1381 16.4894 46.0521 16.5183Z" fill="black"/>
<path d="M24.4999 8.34461C24.3963 8.34591 24.2944 8.37064 24.2018 8.41695C24.1091 8.46327 24.0282 8.52997 23.965 8.61204C23.5673 9.13319 14.2759 21.3938 14.2759 29.2726C14.2759 30.6161 14.5405 31.9465 15.0547 33.1878C15.5688 34.4291 16.3224 35.5569 17.2724 36.5069C18.2225 37.4569 19.3503 38.2105 20.5916 38.7247C21.8328 39.2388 23.1632 39.5035 24.5067 39.5035C25.8503 39.5035 27.1806 39.2388 28.4219 38.7247C29.6632 38.2105 30.791 37.4569 31.741 36.5069C32.6911 35.5569 33.4447 34.4291 33.9588 33.1878C34.473 31.9465 34.7376 30.6161 34.7376 29.2726C34.7376 20.8726 25.4393 9.0989 25.0416 8.60519C24.977 8.52346 24.8947 8.45752 24.8008 8.41238C24.7069 8.36723 24.604 8.34405 24.4999 8.34461ZM24.4999 38.132C22.1561 38.1284 19.9089 37.1977 18.249 35.5429C16.5891 33.8881 15.6513 31.6438 15.6405 29.3C15.6405 22.9298 22.4976 12.9526 24.5136 10.2029C26.5159 12.8429 33.3593 22.4772 33.3593 29.3C33.3484 31.6438 32.4107 33.8881 30.7508 35.5429C29.0909 37.1977 26.8437 38.1284 24.4999 38.132Z" fill="black"/>
<path d="M23.8142 35.3892C23.8142 35.571 23.8865 35.7454 24.015 35.874C24.1436 36.0026 24.3181 36.0749 24.4999 36.0749C24.6964 36.0853 24.8932 36.0853 25.0896 36.0749C25.1797 36.0668 25.2673 36.041 25.3474 35.9991C25.4274 35.9571 25.4985 35.8998 25.5564 35.8304C25.6144 35.761 25.6581 35.6809 25.6851 35.5946C25.712 35.5083 25.7217 35.4175 25.7136 35.3275C25.7055 35.2374 25.6798 35.1498 25.6378 35.0697C25.5959 34.9896 25.5386 34.9186 25.4692 34.8607C25.3998 34.8027 25.3196 34.759 25.2333 34.732C25.147 34.7051 25.0563 34.6954 24.9662 34.7035C24.8154 34.7035 24.6576 34.7035 24.4999 34.7035C24.3181 34.7035 24.1436 34.7757 24.015 34.9043C23.8865 35.0329 23.8142 35.2073 23.8142 35.3892Z" fill="black"/>
<path d="M28.0864 34.9091C28.2316 34.9097 28.3733 34.864 28.491 34.7789C29.3552 34.1473 30.0596 33.3223 30.5478 32.3697C31.036 31.4171 31.2944 30.3635 31.3024 29.2931C31.3024 29.1113 31.2301 28.9369 31.1015 28.8083C30.9729 28.6797 30.7985 28.6074 30.6167 28.6074C30.4348 28.6074 30.2604 28.6797 30.1318 28.8083C30.0032 28.9369 29.931 29.1113 29.931 29.2931C29.9265 30.15 29.7213 30.9939 29.3319 31.7572C28.9425 32.5205 28.3797 33.1819 27.6887 33.6886C27.6156 33.7416 27.5537 33.8085 27.5065 33.8855C27.4593 33.9625 27.4278 34.048 27.4138 34.1372C27.3998 34.2264 27.4036 34.3175 27.4248 34.4053C27.4461 34.493 27.4845 34.5757 27.5378 34.6486C27.6031 34.7312 27.6865 34.7977 27.7817 34.8429C27.8768 34.8881 27.9811 34.9107 28.0864 34.9091Z" fill="black"/>
</g>
<defs>
<clipPath id="clip0_7064_2881">
<rect width="48" height="48" fill="white" transform="translate(0.5 0.5)"/>
</clipPath>
</defs>
</svg>
