<svg width="49" height="49" viewBox="0 0 49 49" fill="none" xmlns="http://www.w3.org/2000/svg">
<g clip-path="url(#clip0_7087_2649)">
<path d="M47.9321 18.2047C44.556 17.3335 40.9891 17.341 37.6178 18.2283C34.4581 19.0598 31.5034 20.6718 29.0732 22.8895L28.94 23.0114L24.7598 18.8311L24.7806 18.731C25.4893 15.2972 27.0691 12.0666 29.3501 9.38968C29.4814 9.23566 29.5438 9.04007 29.5277 8.83881C29.5116 8.63754 29.4181 8.45423 29.2641 8.32384C28.9466 8.05359 28.4685 8.09139 28.1982 8.40888C26.026 10.9592 24.4272 14.0169 23.5749 17.2531L23.5012 17.5328L23.2745 17.3533C23.1167 17.2286 22.9192 17.1719 22.7189 17.1946C22.4893 17.221 22.2861 17.3486 22.1633 17.5451L17.128 25.6165L15.5954 27.1491H9.78344C9.58124 27.1491 9.39132 27.2275 9.24864 27.3702L4.26061 32.3583C4.02344 32.5955 3.97053 32.9536 4.12832 33.2494L5.99825 36.7455L4.60833 38.1354C4.43447 38.3093 4.35604 38.5588 4.39951 38.8016L4.41651 38.8961L4.35037 38.9651C2.95573 40.4278 1.70092 42.0162 0.620923 43.6886C0.395096 44.0392 0.495254 44.5079 0.845805 44.7337C0.96864 44.8131 1.10943 44.8546 1.25494 44.8546C1.51289 44.8546 1.751 44.7252 1.89084 44.5088C2.88014 42.979 4.02533 41.5172 5.2962 40.166L5.42943 40.0243L7.70187 42.2968L7.57714 42.43C6.1721 43.9352 4.94187 45.5964 3.92234 47.3662C3.71447 47.7271 3.83825 48.1901 4.20014 48.399C4.31447 48.4651 4.44486 48.5001 4.5762 48.5001C4.84644 48.5001 5.09777 48.3545 5.23195 48.1212C6.21462 46.4156 7.40423 44.8178 8.76675 43.3721L8.83478 43.3003L8.9321 43.3144C8.97368 43.3211 9.00958 43.3239 9.04171 43.3239C9.24392 43.3239 9.43384 43.2455 9.57651 43.1028L22.0981 30.581L22.116 30.5696L30.1249 25.4983C30.3195 25.3746 30.4461 25.1724 30.4716 24.9427C30.4971 24.7131 30.4178 24.4882 30.2553 24.3248L30.0124 24.0819L30.1598 23.9487C32.4606 21.8718 35.2782 20.3779 38.3104 19.6286C41.351 18.8774 44.5485 18.8907 47.5551 19.6674C47.9586 19.7713 48.3715 19.5275 48.4764 19.124C48.5274 18.9285 48.4981 18.7253 48.396 18.5514C48.294 18.3776 48.1296 18.2538 47.934 18.2037L47.9321 18.2047ZM5.72612 33.0311L10.0962 28.6609H14.0836L7.1151 35.6296L5.72518 33.032L5.72612 33.0311ZM9.04171 41.4993L6.21273 38.6703L17.7242 27.1585L20.5532 29.9876L9.04171 41.4993ZM21.7286 29.0257L18.6833 25.9802L22.9428 19.1524L28.5167 24.7264L21.7286 29.0257Z" fill="black"/>
<path d="M34.8057 15.7998C34.9399 16.0379 35.1922 16.1863 35.4652 16.1863C35.5937 16.1863 35.7213 16.1532 35.8347 16.0889C38.76 14.4467 41.9188 13.2901 45.223 12.6533C45.4215 12.6155 45.5925 12.5021 45.7059 12.3348C45.8192 12.1676 45.8599 11.9663 45.8221 11.7679C45.7522 11.407 45.4347 11.1547 45.0803 11.1547C45.0331 11.1547 44.9849 11.1594 44.9377 11.1688C41.4737 11.8359 38.1619 13.0482 35.0948 14.7708C34.7311 14.9749 34.6016 15.437 34.8057 15.7998Z" fill="black"/>
<path d="M47.7432 5.19238C47.7347 5.19238 47.7262 5.19238 47.7177 5.19238C45.4273 5.27175 43.1624 5.66389 40.9854 6.35933C40.5886 6.48595 40.3684 6.9121 40.495 7.30896C40.5952 7.62361 40.8843 7.83527 41.215 7.83527C41.2925 7.83527 41.37 7.82299 41.4456 7.79936C43.4903 7.14644 45.6182 6.77793 47.7697 6.70328C48.1863 6.68911 48.5133 6.33855 48.4991 5.92185C48.4849 5.51459 48.1486 5.19238 47.7432 5.19238Z" fill="black"/>
<path d="M31.4827 13.7777C31.6849 13.7777 31.8749 13.6993 32.0175 13.5566C33.055 12.5191 34.1889 11.577 35.3889 10.7578C35.7328 10.5225 35.8216 10.051 35.5864 9.70709C35.472 9.54079 35.3001 9.42834 35.1016 9.39055C35.0544 9.38204 35.0072 9.37732 34.9609 9.37732C34.8106 9.37732 34.6632 9.42267 34.5357 9.50961C33.2591 10.3817 32.0525 11.3843 30.9489 12.4879C30.8062 12.6306 30.7278 12.8205 30.7278 13.0227C30.7278 13.225 30.8062 13.4149 30.9489 13.5576C31.0916 13.7002 31.2815 13.7787 31.4837 13.7787L31.4827 13.7777Z" fill="black"/>
<path d="M35.4171 4.39582C35.5371 4.39582 35.6533 4.36748 35.761 4.31267C38.7383 2.78571 41.9585 2.01184 45.3317 2.01184H47.743C48.1597 2.01184 48.4989 1.67262 48.4989 1.25592C48.4989 0.839219 48.1597 0.5 47.743 0.5H45.3317C41.7156 0.5 38.263 1.32962 35.0712 2.96714C34.7008 3.15706 34.5534 3.61345 34.7434 3.98479C34.8737 4.23803 35.1317 4.39582 35.4171 4.39582Z" fill="black"/>
<path d="M31.8343 6.70422C32.0327 6.70422 32.2283 6.62391 32.3691 6.48312C32.5099 6.34233 32.5902 6.14768 32.5902 5.9483C32.5902 5.74893 32.5099 5.55428 32.3691 5.41349C32.2292 5.2727 32.0346 5.19238 31.8343 5.19238C31.634 5.19238 31.4403 5.2727 31.3004 5.41349C31.1587 5.55428 31.0784 5.74893 31.0784 5.9483C31.0784 6.14768 31.1587 6.34233 31.2995 6.48312C31.4403 6.62391 31.6349 6.70422 31.8343 6.70422Z" fill="black"/>
</g>
<defs>
<clipPath id="clip0_7087_2649">
<rect width="48" height="48" fill="white" transform="translate(0.5 0.5)"/>
</clipPath>
</defs>
</svg>
