<svg width="108" height="24" viewBox="0 0 108 24" fill="none" xmlns="http://www.w3.org/2000/svg">
<g clip-path="url(#clip0_7087_2694)">
<path d="M9.17051 0C3.77791 0 0.856689 2.35736 0.856689 7.02958V16.9704C0.856689 21.6426 3.77853 24 9.17113 24H24.9311V13.6881H23.642C23.0721 19.6716 20.4264 22.1973 15.2262 22.1973H11.9707C9.43713 22.1973 8.20688 20.9385 8.20688 18.4533V5.54667C8.20688 3.06146 9.4378 1.80271 11.9707 1.80271H15.2242C20.502 1.80271 23.0998 4.18695 23.6427 9.98667H24.9317V0H9.17051ZM42.6749 0V1.20563C48.2795 1.76296 50.8366 4.133 50.8366 10.4185V17.944L36.0492 0.000625H28.6767V24H38.8845V22.7944C33.1381 22.1704 30.5918 19.824 30.5918 13.496V4.89354L46.3421 24H52.7517V0.000625L42.6749 0ZM56.4967 0V24H80.5717V13.6881H79.2827C78.7128 19.6911 76.0671 22.2242 70.8671 22.2242H63.6233V12.4375H66.0763C70.1797 12.4375 71.9158 14.2564 72.3277 18.2056H73.6384V5.01354H72.3277C71.9131 8.94396 70.1716 10.7762 66.0763 10.7762H63.6233V1.77646H70.8644C76.142 1.77646 78.7371 4.16541 79.2827 9.98667H80.5717V0H56.4967ZM83.7817 0V9.98625H85.0713C85.6277 4.49266 87.9311 1.94068 92.2566 1.47688V18.355C92.2566 21.2886 91.2188 22.4612 87.4199 22.7069V24H104.218V22.7069C100.42 22.4619 99.3824 21.2886 99.3824 18.355V1.4775C103.708 1.9413 106.011 4.49328 106.568 9.98688H107.857V0H83.7817Z" fill="white"/>
</g>
<defs>
<clipPath id="clip0_7087_2694">
<rect width="107" height="24" fill="white" transform="translate(0.856689)"/>
</clipPath>
</defs>
</svg>
