<svg width="56" height="40" viewBox="0 0 56 40" fill="none" xmlns="http://www.w3.org/2000/svg">
<path d="M6.6499 10.8601V28.3601H11.9767V22.7121H16.8198V17.9238H11.9767V15.6334H17.9154L17.5929 10.8601H6.6499Z" fill="white"/>
<path d="M26.4615 10.8601C21.5864 10.8601 17.6616 14.7627 17.6616 19.6102C17.6616 24.4577 21.5864 28.3601 26.4615 28.3601C31.3365 28.3601 35.2612 24.4577 35.2612 19.6102C35.2612 14.7627 31.3365 10.8601 26.4615 10.8601ZM26.4615 14.4641C27.2846 14.4641 27.9472 15.1229 27.9472 15.9414V23.2788C27.9472 24.0973 27.2846 24.7562 26.4615 24.7562C25.6383 24.7562 24.9756 24.0973 24.9756 23.2788V15.9414C24.9756 15.1229 25.6383 14.4641 26.4615 14.4641Z" fill="white"/>
<path d="M32.6216 10.8601L37.6147 19.6101L32.6216 28.3601H38.3302L40.4691 24.6119L42.608 28.3601H48.3167L43.3235 19.6101L48.3167 10.8601H42.608L40.4691 14.6083L38.3303 10.8601H32.6216Z" fill="white"/>
</svg>
