<svg width="60" height="60" viewBox="0 0 60 60" fill="none" xmlns="http://www.w3.org/2000/svg">
<rect width="60" height="60" rx="30" fill="#00214F"/>
<path d="M19.4688 32.8438L22.8555 20.9375H24.4961L23.5469 25.5664L19.9023 38H18.2734L19.4688 32.8438ZM15.9648 20.9375L18.6602 32.6094L19.4688 38H17.8516L13.7148 20.9375H15.9648ZM28.8789 32.5977L31.5156 20.9375H33.7773L29.6523 38H28.0352L28.8789 32.5977ZM24.7422 20.9375L28.0352 32.8438L29.2305 38H27.6016L24.0859 25.5664L23.125 20.9375H24.7422ZM47.125 36.1602V38H38.0898V36.1602H47.125ZM38.5469 20.9375V38H36.2852V20.9375H38.5469ZM45.9297 28.2734V30.1133H38.0898V28.2734H45.9297ZM47.0078 20.9375V22.7891H38.0898V20.9375H47.0078Z" fill="white"/>
</svg>
