<svg width="115" height="24" viewBox="0 0 115 24" fill="none" xmlns="http://www.w3.org/2000/svg">
<g clip-path="url(#clip0_7064_2706)">
<path d="M94.572 16.86V17.202C94.572 19.236 94.572 21.264 94.572 23.298C94.572 23.376 94.572 23.454 94.572 23.532C94.572 23.646 94.524 23.688 94.41 23.688C93.708 23.688 93.006 23.688 92.31 23.688C92.178 23.688 92.136 23.628 92.142 23.508C92.142 23.448 92.142 23.388 92.142 23.328C92.142 19.872 92.142 16.422 92.142 12.966C92.142 12.594 92.094 12.612 92.49 12.612C93.144 12.612 93.792 12.624 94.446 12.612C94.68 12.612 94.812 12.678 94.944 12.882C96.216 14.916 97.5 16.938 98.778 18.966C98.826 19.044 98.868 19.14 98.97 19.212C99.012 19.11 98.994 19.008 98.994 18.918C98.994 16.974 98.994 15.03 98.994 13.086C98.994 13.026 98.994 12.966 98.994 12.906C98.994 12.582 98.994 12.618 99.282 12.618C99.906 12.618 100.524 12.618 101.148 12.618C101.418 12.618 101.418 12.618 101.418 12.9C101.418 15.072 101.418 17.244 101.418 19.41C101.418 20.7 101.418 21.996 101.418 23.286C101.418 23.358 101.418 23.424 101.418 23.496C101.43 23.634 101.376 23.694 101.232 23.688C100.524 23.688 99.81 23.682 99.102 23.688C98.934 23.688 98.88 23.586 98.814 23.478C98.358 22.752 97.902 22.026 97.44 21.3C96.558 19.896 95.67 18.498 94.788 17.094C94.74 17.016 94.704 16.92 94.572 16.848V16.86Z" fill="white"/>
<path d="M42.6239 7.30805C42.3779 7.30805 42.1679 7.30805 41.9639 7.30805C41.1719 7.30805 40.3859 7.30805 39.5939 7.30805C39.3659 7.30805 39.3659 7.30805 39.3599 7.08005C39.3599 6.45005 39.3599 5.82005 39.3599 5.18405C39.3599 4.97405 39.3659 4.96805 39.5759 4.96205C39.6239 4.96205 39.6719 4.96205 39.7259 4.96205C41.4599 4.96205 43.1999 4.96205 44.9339 4.96205C45.0119 4.96205 45.0899 4.96205 45.1679 4.96205C45.2519 4.96205 45.2879 5.01005 45.2939 5.09405C45.3479 6.44405 45.2399 7.75805 44.5079 8.94605C43.5479 10.5001 42.1439 11.3521 40.3379 11.4961C38.8499 11.6161 37.4759 11.2441 36.2879 10.3201C35.0879 9.38405 34.4039 8.13605 34.2119 6.63005C34.0319 5.23205 34.2719 3.91205 35.0339 2.71805C35.9759 1.23605 37.3499 0.408051 39.0839 0.204051C40.5779 0.0240507 41.9639 0.348051 43.2119 1.20605C43.8719 1.66205 44.3939 2.25005 44.7959 2.94005C44.9219 3.15605 44.9219 3.15605 44.6999 3.29405C44.1299 3.64205 43.5539 3.99005 42.9839 4.33805C42.8039 4.44605 42.7979 4.44605 42.6959 4.26005C42.4619 3.83405 42.1679 3.45005 41.7839 3.14405C40.7159 2.29805 38.7479 2.21405 37.4939 3.52205C36.0299 5.05205 36.3419 7.64405 38.1719 8.67605C39.3299 9.33005 40.5299 9.34205 41.6699 8.59205C42.1259 8.29205 42.4319 7.86005 42.6299 7.29605L42.6239 7.30805Z" fill="white"/>
<path d="M111.414 19.626C110.448 19.626 109.518 19.626 108.594 19.626C108.504 19.626 108.414 19.626 108.33 19.626C108.216 19.632 108.174 19.59 108.174 19.47C108.174 18.798 108.174 18.126 108.174 17.46C108.174 17.334 108.222 17.28 108.348 17.286C108.414 17.286 108.486 17.286 108.558 17.286C110.286 17.286 112.014 17.286 113.742 17.286C113.82 17.286 113.898 17.286 113.976 17.286C114.078 17.286 114.114 17.334 114.114 17.436C114.12 18.258 114.144 19.08 113.904 19.872C113.232 22.098 111.762 23.466 109.446 23.772C107.322 24.054 105.504 23.376 104.142 21.684C103.242 20.568 102.9 19.254 102.972 17.838C103.062 16.152 103.728 14.748 105.048 13.686C105.942 12.966 106.974 12.588 108.12 12.504C109.548 12.396 110.862 12.726 112.038 13.548C112.692 14.01 113.214 14.598 113.616 15.288C113.724 15.48 113.724 15.48 113.556 15.588C112.968 15.948 112.374 16.308 111.786 16.662C111.606 16.77 111.6 16.77 111.498 16.59C111.282 16.2 111.018 15.846 110.676 15.552C109.626 14.64 107.622 14.532 106.356 15.798C104.658 17.49 105.24 20.43 107.454 21.252C108.438 21.618 109.41 21.576 110.334 21.036C110.814 20.754 111.15 20.328 111.378 19.818C111.396 19.776 111.408 19.728 111.432 19.638L111.414 19.626Z" fill="white"/>
<path d="M52.0319 11.5139C48.9119 11.5139 46.3979 8.96394 46.3979 5.81394C46.3979 2.68794 48.9479 0.137945 52.0679 0.149945C55.1759 0.161945 57.7139 2.72394 57.7079 5.84994C57.7079 8.97594 55.1519 11.5139 52.0319 11.5139ZM48.8159 5.82594C48.8159 7.63794 50.2499 9.10794 52.0379 9.11394C53.8379 9.11394 55.2959 7.64994 55.2959 5.83194C55.2959 4.03194 53.8499 2.56794 52.0559 2.56194C50.2679 2.55594 48.8219 4.01394 48.8159 5.82594Z" fill="white"/>
<path d="M70.1159 5.83202C70.1159 8.97003 67.5839 11.514 64.4639 11.514C61.3319 11.514 58.7999 8.96403 58.8059 5.80802C58.8059 2.70002 61.3619 0.150024 64.4579 0.150024C67.5779 0.150024 70.1159 2.70002 70.1159 5.83202ZM64.3919 9.11402C66.1499 9.17402 67.6319 7.74003 67.7039 5.91002C67.7759 4.18202 66.3419 2.64602 64.6319 2.55602C62.8679 2.46602 61.2899 3.83402 61.2239 5.71202C61.1579 7.54803 62.5679 9.04803 64.3919 9.10802V9.11402Z" fill="white"/>
<path d="M22.1639 18.192C22.1159 21.51 19.3679 23.952 16.2899 23.838C13.2419 23.724 10.8059 21.156 10.8479 18.066C10.8899 15.096 13.3139 12.438 16.5659 12.48C19.7099 12.516 22.1639 15.078 22.1639 18.192ZM16.4999 14.88C14.7119 14.88 13.2659 16.338 13.2599 18.15C13.2479 19.944 14.7059 21.426 16.4879 21.438C18.2759 21.45 19.7459 19.962 19.7459 18.15C19.7459 16.356 18.2819 14.886 16.4999 14.886V14.88Z" fill="white"/>
<path d="M9.39599 18.1739C9.39599 19.8779 9.39599 21.5879 9.39599 23.2919C9.39599 23.3639 9.39599 23.4299 9.39599 23.5019C9.40799 23.6339 9.35999 23.6999 9.20999 23.6939C8.51999 23.6939 7.82999 23.6939 7.13999 23.6939C7.01399 23.6939 6.96599 23.6459 6.96599 23.5199C6.96599 23.2859 6.96599 23.0459 6.96599 22.8119C6.96599 21.7679 6.96599 20.7179 6.96599 19.6739C6.96599 19.6019 6.96599 19.5359 6.96599 19.4639C6.96599 19.3679 6.92999 19.3199 6.82799 19.3199C6.76799 19.3199 6.70799 19.3199 6.64799 19.3199C5.65199 19.3199 4.65599 19.3199 3.65999 19.3199C3.32999 19.3199 3.35399 19.2959 3.35399 19.6199C3.35399 20.8439 3.35399 22.0679 3.35399 23.2919C3.35399 23.3639 3.35399 23.4299 3.35399 23.5019C3.36599 23.6339 3.31799 23.6999 3.16799 23.6999C2.35199 23.6999 1.52999 23.6999 0.713994 23.6999C0.563994 23.6999 0.491994 23.6519 0.497994 23.4959C0.497994 23.4299 0.497994 23.3579 0.497994 23.2859C0.497994 19.8719 0.497994 16.4579 0.497994 13.0439C0.497994 12.5759 0.467994 12.6239 0.905994 12.6239C1.62599 12.6239 2.34599 12.6239 3.06599 12.6239C3.34799 12.6239 3.35399 12.6239 3.35399 12.9179C3.35399 14.1599 3.35399 15.4019 3.35399 16.6499C3.35399 16.9919 3.32399 16.9739 3.67199 16.9739C4.66799 16.9739 5.66399 16.9739 6.65999 16.9739C6.70799 16.9739 6.75599 16.9739 6.80999 16.9739C6.91799 16.9739 6.97799 16.9379 6.97199 16.8239C6.97199 16.7579 6.97199 16.6859 6.97199 16.6139C6.97199 15.4199 6.97199 14.2259 6.97199 13.0319C6.97199 12.9599 6.97799 12.8939 6.97199 12.8219C6.95399 12.6599 7.03199 12.6179 7.18199 12.6239C7.83599 12.6239 8.48399 12.6239 9.13799 12.6239C9.40199 12.6239 9.40799 12.6239 9.40799 12.9059C9.40799 14.6639 9.40799 16.4159 9.40799 18.1739H9.39599Z" fill="white"/>
<path d="M71.634 5.84405C71.634 4.12805 71.634 2.41205 71.634 0.696055C71.634 0.618055 71.634 0.540055 71.634 0.462055C71.634 0.348055 71.682 0.300055 71.79 0.306055C71.808 0.306055 71.832 0.306055 71.85 0.306055C73.014 0.318055 74.178 0.258055 75.342 0.330055C76.71 0.414055 77.946 0.864055 78.96 1.81805C79.794 2.60405 80.28 3.57605 80.478 4.69805C80.67 5.77805 80.616 6.84606 80.22 7.87206C79.518 9.69005 78.162 10.7581 76.296 11.2141C75.786 11.3401 75.264 11.3761 74.742 11.3761C73.806 11.3761 72.87 11.3761 71.928 11.3761C71.88 11.3761 71.832 11.3761 71.778 11.3761C71.676 11.3761 71.634 11.3281 71.64 11.2321C71.64 11.1541 71.64 11.0761 71.64 10.9981C71.64 9.28206 71.64 7.56605 71.64 5.85005L71.634 5.84405ZM74.064 5.83805C74.064 6.14405 74.064 6.45006 74.064 6.75606C74.064 7.45806 74.064 8.15406 74.064 8.85606C74.064 9.07806 74.064 9.07806 74.298 9.08405C74.76 9.09606 75.228 9.08405 75.678 8.95806C76.926 8.62806 77.766 7.88406 78.066 6.60006C78.186 6.08405 78.18 5.56205 78.078 5.04005C77.874 4.01405 77.298 3.29405 76.32 2.89805C75.648 2.62205 74.946 2.56805 74.232 2.57405C74.1 2.57405 74.058 2.63405 74.064 2.75406C74.064 2.82006 74.064 2.89205 74.064 2.96405C74.064 3.91806 74.064 4.87806 74.064 5.83206V5.83805Z" fill="white"/>
<path d="M59.7839 12.666C59.5559 12.948 59.3519 13.212 59.1419 13.47C58.2479 14.574 57.3539 15.678 56.4599 16.782C56.3439 16.922 56.3319 17.074 56.4239 17.238C57.5639 19.278 58.7099 21.318 59.8499 23.352C59.9039 23.448 59.9519 23.544 59.9999 23.634C59.9339 23.736 59.8499 23.694 59.7779 23.7C59.0399 23.7 58.2959 23.694 57.5579 23.706C57.3359 23.706 57.2279 23.622 57.1259 23.436C56.3459 21.99 55.5479 20.544 54.7619 19.098C54.7079 18.996 54.6659 18.882 54.5519 18.78C54.3239 19.062 54.1139 19.338 53.8799 19.602C53.7299 19.77 53.6879 19.95 53.6879 20.166C53.6939 21.222 53.6879 22.278 53.6879 23.334C53.6879 23.406 53.6879 23.472 53.6879 23.544C53.6879 23.658 53.6339 23.7 53.5259 23.7C52.8239 23.7 52.1219 23.7 51.4259 23.7C51.2939 23.7 51.2519 23.634 51.2579 23.52C51.2579 23.46 51.2579 23.4 51.2579 23.34C51.2579 19.884 51.2579 16.434 51.2579 12.978C51.2579 12.6 51.2099 12.63 51.6059 12.624C52.2179 12.624 52.8299 12.624 53.4419 12.624C53.6819 12.624 53.6879 12.624 53.6879 12.87C53.6879 13.968 53.6879 15.06 53.6879 16.158C53.6879 16.254 53.6699 16.35 53.7179 16.464C53.8199 16.416 53.8619 16.326 53.9219 16.254C54.8279 15.126 55.7399 13.998 56.6399 12.858C56.7779 12.684 56.9159 12.618 57.1379 12.624C57.9059 12.636 58.6799 12.624 59.4479 12.63C59.5439 12.63 59.6459 12.612 59.7779 12.672L59.7839 12.666Z" fill="white"/>
<path d="M42.63 18.156C42.63 16.422 42.63 14.682 42.63 12.948C42.63 12.624 42.588 12.624 42.948 12.624C44.982 12.624 47.01 12.624 49.044 12.624C49.062 12.624 49.086 12.624 49.104 12.624C49.362 12.624 49.362 12.624 49.362 12.888C49.362 13.482 49.362 14.07 49.362 14.664C49.362 14.958 49.362 14.958 49.074 14.958C47.952 14.958 46.824 14.958 45.702 14.958C45.546 14.958 45.384 14.958 45.228 14.958C45.096 14.958 45.054 15.012 45.054 15.138C45.054 15.69 45.054 16.242 45.054 16.794C45.054 16.956 45.138 16.968 45.258 16.968C45.702 16.968 46.146 16.968 46.59 16.968C47.43 16.968 48.27 16.968 49.104 16.968C49.356 16.968 49.362 16.968 49.362 17.232C49.362 17.832 49.362 18.438 49.362 19.038C49.362 19.314 49.362 19.314 49.086 19.314C47.88 19.314 46.68 19.314 45.474 19.314C44.994 19.314 45.06 19.272 45.054 19.716C45.054 20.178 45.054 20.646 45.054 21.108C45.054 21.348 45.054 21.348 45.3 21.348C46.524 21.348 47.748 21.348 48.972 21.348C49.41 21.348 49.356 21.294 49.356 21.75C49.356 22.302 49.356 22.854 49.356 23.406C49.356 23.694 49.356 23.7 49.062 23.7C47.13 23.7 45.192 23.7 43.26 23.7C43.134 23.7 43.002 23.7 42.876 23.7C42.63 23.7 42.624 23.7 42.624 23.46C42.624 23.4 42.624 23.34 42.624 23.28C42.624 21.576 42.624 19.866 42.624 18.162L42.63 18.156Z" fill="white"/>
<path d="M69.6901 18.156C69.6901 16.446 69.6901 14.742 69.6901 13.032C69.6901 12.99 69.6901 12.954 69.6901 12.912C69.6901 12.624 69.6901 12.618 69.9781 12.618C72.0301 12.618 74.0821 12.618 76.1341 12.618C76.1821 12.618 76.2301 12.618 76.2841 12.618C76.3861 12.618 76.4221 12.672 76.4221 12.768C76.4221 12.828 76.4221 12.888 76.4221 12.948C76.4221 13.53 76.4221 14.112 76.4221 14.694C76.4221 14.946 76.4221 14.952 76.1581 14.952C74.9461 14.952 73.7281 14.952 72.5161 14.952C72.4381 14.952 72.3601 14.952 72.2821 14.952C72.1681 14.952 72.1201 15 72.1201 15.108C72.1201 15.672 72.1201 16.23 72.1201 16.794C72.1201 16.908 72.1621 16.962 72.2761 16.95C72.3421 16.95 72.4141 16.95 72.4861 16.95C73.6801 16.95 74.8741 16.95 76.0681 16.95C76.1401 16.95 76.2061 16.95 76.2781 16.95C76.3921 16.944 76.4341 17.004 76.4281 17.112C76.4281 17.784 76.4281 18.456 76.4281 19.122C76.4281 19.248 76.3741 19.296 76.2541 19.296C76.0981 19.296 75.9361 19.296 75.7801 19.296C74.6941 19.296 73.6081 19.296 72.5221 19.296C72.4501 19.296 72.3841 19.296 72.3121 19.296C72.1741 19.29 72.1201 19.338 72.1201 19.482C72.1261 20.046 72.1201 20.604 72.1201 21.168C72.1201 21.276 72.1561 21.336 72.2701 21.33C72.3361 21.33 72.4081 21.33 72.4801 21.33C73.6741 21.33 74.8681 21.33 76.0621 21.33C76.1341 21.33 76.2001 21.33 76.2721 21.33C76.3861 21.33 76.4281 21.378 76.4281 21.492C76.4281 22.164 76.4281 22.836 76.4281 23.502C76.4281 23.628 76.3861 23.688 76.2541 23.676C76.1941 23.676 76.1341 23.676 76.0741 23.676C74.0581 23.676 72.0481 23.676 70.0321 23.676C70.0021 23.676 69.9721 23.676 69.9421 23.676C69.6901 23.676 69.6841 23.676 69.6841 23.406C69.6841 21.648 69.6841 19.896 69.6841 18.138L69.6901 18.156Z" fill="white"/>
<path d="M61.068 18.144C61.068 16.446 61.068 14.748 61.068 13.05C61.068 12.972 61.068 12.894 61.068 12.816C61.056 12.678 61.11 12.6121 61.254 12.6241C61.314 12.6241 61.374 12.6241 61.434 12.6241C63.438 12.6241 65.442 12.6241 67.446 12.6241C67.494 12.6241 67.548 12.6241 67.596 12.6241C67.752 12.6061 67.8 12.678 67.794 12.828C67.794 13.452 67.794 14.07 67.794 14.694C67.794 14.952 67.794 14.952 67.536 14.958C66.33 14.958 65.13 14.958 63.924 14.958C63.474 14.958 63.51 14.8921 63.51 15.3661C63.51 15.7981 63.51 16.2361 63.51 16.6681C63.51 17.0041 63.51 16.962 63.822 16.962C65.016 16.962 66.21 16.962 67.404 16.962C67.848 16.962 67.794 16.9021 67.794 17.358C67.794 17.91 67.794 18.462 67.794 19.0141C67.794 19.3081 67.794 19.3081 67.506 19.3081C66.294 19.3081 65.076 19.3081 63.864 19.3081C63.48 19.3081 63.51 19.272 63.51 19.656C63.51 20.142 63.51 20.6221 63.51 21.1081C63.51 21.3421 63.51 21.3481 63.762 21.3481C64.986 21.3481 66.21 21.3481 67.434 21.3481C67.506 21.3481 67.572 21.3481 67.644 21.3481C67.758 21.3421 67.806 21.39 67.806 21.5041C67.806 22.182 67.806 22.8661 67.806 23.5441C67.806 23.6641 67.746 23.7001 67.638 23.6941C67.578 23.6941 67.518 23.6941 67.458 23.6941C65.442 23.6941 63.432 23.6941 61.416 23.6941C61.356 23.6941 61.296 23.6941 61.236 23.6941C61.122 23.6941 61.074 23.6401 61.08 23.5321C61.08 23.4541 61.08 23.3761 61.08 23.2981C61.08 21.5821 61.08 19.866 61.08 18.144H61.068Z" fill="white"/>
<path d="M23.64 16.572C23.64 15.396 23.64 14.226 23.64 13.05C23.64 12.972 23.64 12.894 23.64 12.816C23.628 12.678 23.682 12.624 23.826 12.624C24.516 12.624 25.206 12.624 25.896 12.624C26.022 12.624 26.076 12.672 26.07 12.798C26.07 12.876 26.07 12.954 26.07 13.032C26.07 15.264 26.07 17.49 26.07 19.722C26.07 19.968 26.07 20.214 26.148 20.454C26.382 21.186 27.066 21.624 27.846 21.534C28.632 21.444 29.232 20.844 29.292 20.088C29.304 19.962 29.298 19.83 29.298 19.704C29.298 17.484 29.298 15.264 29.298 13.044C29.298 12.972 29.298 12.906 29.298 12.834C29.304 12.624 29.304 12.618 29.514 12.618C30.186 12.618 30.858 12.618 31.524 12.618C31.542 12.618 31.566 12.618 31.584 12.618C31.686 12.618 31.728 12.66 31.728 12.756C31.728 12.816 31.728 12.876 31.728 12.936C31.728 15.192 31.728 17.454 31.728 19.71C31.728 20.178 31.698 20.64 31.572 21.084C31.146 22.608 30.114 23.478 28.578 23.748C27.822 23.88 27.066 23.856 26.322 23.646C24.846 23.22 24.006 22.218 23.718 20.73C23.646 20.352 23.64 19.968 23.634 19.578C23.634 18.57 23.634 17.568 23.634 16.56L23.64 16.572Z" fill="white"/>
<path d="M78.3301 18.15C78.3301 16.452 78.3301 14.754 78.3301 13.056C78.3301 12.996 78.3301 12.936 78.3301 12.876C78.3301 12.618 78.3301 12.618 78.5941 12.618C79.8181 12.618 81.0421 12.606 82.2661 12.618C84.0481 12.642 85.5481 13.74 86.0461 15.402C86.8561 18.096 84.9421 20.568 82.3201 20.634C81.8761 20.646 81.4321 20.634 80.9881 20.634C80.7661 20.634 80.7601 20.634 80.7601 20.868C80.7601 21.684 80.7601 22.506 80.7601 23.322C80.7601 23.394 80.7601 23.46 80.7601 23.532C80.7601 23.646 80.7001 23.688 80.5981 23.688C79.8961 23.688 79.1941 23.688 78.4981 23.688C78.3901 23.688 78.3301 23.646 78.3361 23.532C78.3361 23.454 78.3361 23.376 78.3361 23.298C78.3361 21.582 78.3361 19.866 78.3361 18.15H78.3301ZM80.7541 16.632C80.7541 16.728 80.7541 16.83 80.7541 16.926C80.7541 17.34 80.7541 17.754 80.7541 18.168C80.7541 18.27 80.7541 18.372 80.8981 18.366C81.3781 18.354 81.8641 18.408 82.3441 18.33C83.2201 18.198 83.7841 17.52 83.7781 16.62C83.7781 15.738 83.2021 15.066 82.3441 14.934C81.8941 14.862 81.4381 14.91 80.9881 14.898C80.7541 14.898 80.7481 14.898 80.7481 15.15C80.7481 15.642 80.7481 16.134 80.7481 16.632H80.7541Z" fill="white"/>
<path d="M34.9499 19.968C35.0579 20.136 35.1419 20.28 35.2379 20.412C35.8139 21.18 36.5519 21.594 37.5359 21.456C38.1479 21.372 38.5799 20.898 38.5979 20.328C38.6039 20.082 38.5139 19.89 38.3399 19.728C38.1599 19.566 37.9499 19.464 37.7279 19.374C37.2179 19.164 36.6839 19.026 36.1559 18.858C35.7719 18.732 35.3939 18.588 35.0279 18.414C32.8679 17.382 32.9819 14.676 34.3919 13.452C35.2259 12.726 36.2099 12.45 37.2899 12.474C38.7899 12.51 40.0199 13.098 40.9679 14.22C40.9559 14.322 40.8659 14.352 40.7999 14.406C40.2719 14.808 39.7439 15.204 39.2159 15.6C38.9879 15.774 38.9819 15.774 38.8259 15.546C38.5319 15.126 38.1419 14.838 37.6319 14.736C37.2779 14.664 36.9239 14.658 36.5759 14.76C36.4439 14.802 36.3179 14.862 36.2099 14.946C35.7419 15.312 35.7539 15.936 36.2339 16.278C36.4799 16.452 36.7559 16.56 37.0319 16.656C37.5419 16.836 38.0579 17.004 38.5679 17.184C38.9099 17.304 39.2399 17.46 39.5579 17.64C40.8719 18.396 41.3099 19.656 41.0339 21.018C40.7759 22.266 39.9839 23.088 38.8199 23.514C37.1459 24.126 35.5619 23.85 34.0739 22.902C33.6119 22.608 33.2279 22.23 32.8619 21.822C32.7839 21.738 32.7479 21.678 32.8619 21.588C33.5459 21.054 34.2299 20.52 34.9319 19.962L34.9499 19.968Z" fill="white"/>
<path d="M87.6839 18.138C87.6839 16.434 87.6839 14.724 87.6839 13.02C87.6839 12.948 87.6839 12.882 87.6839 12.816C87.6719 12.684 87.7199 12.618 87.8639 12.624C88.5539 12.624 89.2439 12.624 89.9339 12.624C90.0539 12.624 90.1199 12.66 90.1139 12.792C90.1139 12.858 90.1139 12.93 90.1139 13.002C90.1139 16.446 90.1139 19.884 90.1139 23.328C90.1139 23.724 90.1619 23.7 89.7539 23.7C89.1599 23.7 88.5719 23.7 87.9779 23.7C87.6839 23.7 87.6839 23.7 87.6839 23.412C87.6839 21.654 87.6839 19.902 87.6839 18.144V18.138Z" fill="white"/>
</g>
<defs>
<clipPath id="clip0_7064_2706">
<rect width="114.6" height="24" fill="white"/>
</clipPath>
</defs>
</svg>
