<svg width="128" height="128" viewBox="0 0 128 128" fill="none" xmlns="http://www.w3.org/2000/svg">
<path d="M127.607 65.3852L125.229 62.8256C124.732 62.2909 124.702 61.4724 125.159 60.903L127.346 58.1733C127.854 57.5392 127.752 56.6128 127.118 56.1045L124.393 53.9186C123.824 53.4618 123.675 52.6569 124.044 52.0268L125.811 49.0074C126.221 48.306 125.986 47.4045 125.285 46.9938L122.271 45.2281C121.641 44.8591 121.377 44.0842 121.65 43.4072L122.958 40.1626C123.262 39.4089 122.898 38.5513 122.145 38.247L118.906 36.9392C118.229 36.666 117.855 35.9379 118.027 35.228L118.849 31.8276C119.04 31.0377 118.555 30.2423 117.766 30.051L114.371 29.2289C113.662 29.057 113.186 28.391 113.252 27.6643L113.571 24.1802C113.645 23.3709 113.05 22.6544 112.241 22.5802L108.763 22.2613C108.036 22.1947 107.468 21.6052 107.428 20.8763L107.237 17.383C107.192 16.5715 106.499 15.9494 105.687 15.994L102.2 16.1853C101.472 16.2252 100.824 15.7249 100.679 15.0095L99.9809 11.5813C99.8189 10.7848 99.0421 10.2706 98.2459 10.433L94.8236 11.1304C94.1086 11.2759 93.3951 10.8755 93.1468 10.1887L91.9575 6.89871C91.6813 6.13437 90.838 5.73867 90.074 6.01515L86.7899 7.20372C86.1038 7.45204 85.3395 7.15947 84.9943 6.51654L83.339 3.43467C82.9543 2.7186 82.0627 2.45016 81.347 2.83489L78.2706 4.48939C77.628 4.83499 76.8293 4.65688 76.3937 4.07101L74.3077 1.26342C73.8231 0.610986 72.9019 0.475306 72.2498 0.960243L69.447 3.04518C68.8615 3.48075 68.0452 3.42113 67.5296 2.90475L65.0573 0.430689C64.4828 -0.144214 63.5517 -0.144214 62.9772 0.430689L60.5075 2.90182C59.9915 3.41821 59.1756 3.47782 58.59 3.04225L55.7843 0.954758C55.1322 0.46982 54.211 0.6055 53.7264 1.25793L51.6426 4.0626C51.2074 4.64847 50.4087 4.82657 49.7657 4.48097L46.686 2.82465C45.9703 2.43992 45.0787 2.70836 44.694 3.42443L43.0406 6.50264C42.6954 7.14557 41.931 7.43814 41.245 7.18982L37.9572 5.99979C37.1932 5.72331 36.3502 6.11901 36.0737 6.88335L34.8859 10.1697C34.6376 10.8561 33.9241 11.2569 33.2091 11.1114L29.7831 10.4132C28.9873 10.2508 28.2105 10.765 28.0481 11.5616L27.3511 14.9861C27.2055 15.7015 26.5579 16.2021 25.8294 16.1619L22.3383 15.9703C21.5271 15.9256 20.8337 16.5477 20.7891 17.3592L20.5978 20.8489C20.558 21.5778 19.99 22.1673 19.2633 22.2338L15.7814 22.5527C14.9724 22.627 14.3767 23.3431 14.4509 24.1527L14.7694 27.6329C14.836 28.3599 14.3598 29.0259 13.6507 29.1974L10.2525 30.0203C9.46291 30.2115 8.97798 31.007 9.16888 31.7969L9.99028 35.1937C10.1618 35.9032 9.78767 36.6313 9.1111 36.9048L5.86868 38.2141C5.1153 38.5184 4.75105 39.376 5.05533 40.1297L6.36239 43.3703C6.63558 44.0472 6.37117 44.8222 5.74177 45.1912L2.72463 46.9591C2.02356 47.3698 1.78804 48.2712 2.19837 48.9727L3.96294 51.9884C4.33158 52.6185 4.1831 53.4234 3.61368 53.8802L0.885818 56.0686C0.252036 56.577 0.150367 57.5033 0.658344 58.1375L2.84312 60.8642C3.29953 61.4337 3.26954 62.2521 2.7729 62.7868L0.39247 65.3494C-0.16049 65.9448 -0.126479 66.8759 0.468538 67.4296L3.02671 69.8089C3.56102 70.3059 3.65062 71.12 3.237 71.7212L1.25482 74.6034C0.79439 75.273 0.96335 76.1895 1.63261 76.6503L4.50968 78.6314C5.11055 79.0454 5.31754 79.8375 4.99608 80.4929L3.4546 83.6329C3.09656 84.3625 3.39718 85.2442 4.12605 85.6026L7.26058 87.1434C7.91558 87.4652 8.23558 88.2189 8.01249 88.9142L6.94424 92.2455C6.69592 93.0193 7.12198 93.848 7.89546 94.0967L11.2209 95.1646C11.9158 95.3877 12.3418 96.0866 12.2226 96.807L11.6503 100.259C11.5175 101.061 12.0591 101.818 12.8604 101.952L16.3058 102.524C17.0255 102.643 17.5489 103.272 17.5357 104.002L17.4717 107.501C17.4567 108.313 18.1033 108.984 18.9155 108.999L22.4074 109.063C23.137 109.076 23.7463 109.623 23.8391 110.347L24.2849 113.817C24.3884 114.623 25.1257 115.193 25.9314 115.089L29.3954 114.643C30.1192 114.55 30.8016 115.002 30.9991 115.705L31.9452 119.073C32.165 119.856 32.9772 120.312 33.7591 120.092L37.1212 119.146C37.8237 118.948 38.5646 119.296 38.862 119.963L40.2879 123.157C40.6192 123.899 41.4889 124.232 42.2305 123.901L45.4192 122.475C46.0855 122.178 46.8689 122.414 47.2602 123.03L49.136 125.983C49.5719 126.669 50.4807 126.871 51.1664 126.435L54.1137 124.56C54.7296 124.169 55.5389 124.288 56.0158 124.84L58.3011 127.488C58.8322 128.103 59.7607 128.171 60.3758 127.64L63.0192 125.356C63.5714 124.879 64.3895 124.879 64.9418 125.356L67.5881 127.643C68.2028 128.174 69.1318 128.106 69.6628 127.491L71.9456 124.846C72.4225 124.293 73.2322 124.174 73.8476 124.566L76.7982 126.443C77.4839 126.879 78.3927 126.676 78.8287 125.99L80.7022 123.041C81.0935 122.425 81.8773 122.189 82.5432 122.486L85.7356 123.913C86.4772 124.245 87.3469 123.912 87.6782 123.17L89.1027 119.979C89.4004 119.312 90.1413 118.965 90.8435 119.162L94.2095 120.109C94.9914 120.329 95.8037 119.873 96.0235 119.09L96.9685 115.726C97.166 115.023 97.8484 114.572 98.5721 114.664L102.04 115.111C102.845 115.214 103.583 114.645 103.686 113.839L104.132 110.372C104.225 109.648 104.834 109.102 105.564 109.088L109.06 109.024C109.872 109.009 110.518 108.339 110.504 107.526L110.44 104.032C110.427 103.302 110.95 102.673 111.67 102.553L115.119 101.981C115.92 101.848 116.462 101.09 116.329 100.288L115.757 96.8403C115.638 96.1202 116.064 95.421 116.759 95.1982L120.088 94.1293C120.862 93.8809 121.287 93.0522 121.039 92.278L119.972 88.9504C119.749 88.2552 120.07 87.5018 120.724 87.1796L123.862 85.637C124.592 85.2786 124.892 84.3965 124.534 83.6673L122.994 80.5305C122.672 79.8752 122.879 79.083 123.48 78.6691L126.361 76.6858C127.03 76.225 127.199 75.3085 126.738 74.6389L124.758 71.76C124.345 71.1587 124.434 70.3447 124.969 69.8477L127.53 67.4658C128.125 66.9124 128.159 65.981 127.606 65.3856L127.607 65.3852Z" fill="#2F2F2F"/>
<path d="M108.407 58.1992L109.868 62.6942H114.594L110.771 65.4722L112.231 69.9668L108.407 67.1888L104.584 69.9668L106.044 65.4722L102.221 62.6942H106.947L108.407 58.1992Z" fill="white"/>
<path d="M19.595 58.1992L21.0557 62.6942H25.7818L21.9582 65.4722L23.4185 69.9668L19.595 67.1888L15.7714 69.9668L17.2317 65.4722L13.4082 62.6942H18.1347L19.595 58.1992Z" fill="white"/>
<path d="M64.0019 98.67C83.0913 98.67 98.5663 83.185 98.5663 64.0833C98.5663 44.9816 83.0913 29.4966 64.0019 29.4966C44.9125 29.4966 29.4375 44.9816 29.4375 64.0833C29.4375 83.185 44.9125 98.67 64.0019 98.67Z" fill="white"/>
<path d="M64.0012 9.79825C67.6832 9.79825 71.3623 10.1695 74.936 10.9012C78.418 11.614 81.8429 12.6783 85.1161 14.0632C88.33 15.4233 91.4301 17.1071 94.3299 19.0676C97.2029 21.01 99.9045 23.2404 102.36 25.6973C104.815 28.1542 107.044 30.8579 108.986 33.7328C110.945 36.6347 112.628 39.7367 113.987 42.9532C115.371 46.2281 116.435 49.6556 117.147 53.1402C117.879 56.7165 118.249 60.3981 118.249 64.0831C118.249 67.768 117.879 71.4493 117.147 75.026C116.435 78.5105 115.371 81.938 113.987 85.2129C112.628 88.429 110.945 91.5314 108.986 94.4333C107.045 97.3082 104.815 100.012 102.36 102.469C99.9045 104.926 97.2026 107.157 94.3299 109.098C91.4298 111.059 88.33 112.743 85.1161 114.103C81.8433 115.488 78.4184 116.552 74.936 117.265C71.3623 117.997 67.6832 118.368 64.0012 118.368C60.3192 118.368 56.6401 117.997 53.0663 117.265C49.5844 116.552 46.1595 115.488 42.8863 114.103C39.6724 112.743 36.5723 111.059 33.6725 109.098C30.7995 107.156 28.0979 104.926 25.6425 102.469C23.1871 100.012 20.9581 97.3082 19.0169 94.4333C17.0577 91.5314 15.3747 88.4294 14.0154 85.2129C12.6311 81.9376 11.5676 78.5105 10.8552 75.026C10.1238 71.4496 9.75296 67.768 9.75296 64.0831C9.75296 60.3981 10.1238 56.7168 10.8552 53.1402C11.5676 49.6556 12.6311 46.2281 14.0154 42.9532C15.3747 39.7371 17.0574 36.6347 19.0169 33.7328C20.9577 30.8579 23.1871 28.1545 25.6425 25.6973C28.0979 23.2404 30.7995 21.0096 33.6725 19.0676C36.5726 17.1071 39.6724 15.4233 42.8863 14.0632C46.1591 12.6779 49.584 11.614 53.0663 10.9012C56.6401 10.1695 60.3192 9.79825 64.0012 9.79825ZM64.0012 7.66504C32.8624 7.66504 7.61938 32.9242 7.61938 64.0831C7.61938 95.2419 32.8624 120.501 64.0012 120.501C95.1399 120.501 120.383 95.2419 120.383 64.0831C120.383 32.9242 95.1399 7.66504 64.0012 7.66504Z" fill="white"/>
<path d="M43.0326 74.6584H39.3626V57.2563H35.6426V54.264L43.0326 53.5088V74.6588V74.6584Z" fill="#2F2F2F"/>
<path d="M58.4888 66.4219C58.4888 69.2207 57.9336 71.344 56.8237 72.7915C55.7134 74.2394 54.2114 74.9631 52.3181 74.9631C50.4248 74.9631 48.8954 74.2394 47.7811 72.7915C46.6667 71.344 46.1094 69.2207 46.1094 66.4219V61.759C46.1094 58.9701 46.6645 56.8471 47.7748 55.3894C48.8848 53.932 50.3908 53.2031 52.2929 53.2031C54.195 53.2031 55.6926 53.932 56.8113 55.3894C57.93 56.8471 58.4892 58.9701 58.4892 61.759V66.4219H58.4888ZM54.8317 61.3187C54.8317 59.6452 54.6137 58.4186 54.1781 57.6396C53.7422 56.861 53.1139 56.4715 52.2929 56.4715C51.4718 56.4715 50.8351 56.8584 50.4076 57.6323C49.9805 58.4061 49.7665 59.6349 49.7665 61.3183V66.8183C49.7665 68.5214 49.9823 69.7597 50.4138 70.5336C50.8454 71.3074 51.4799 71.6947 52.3177 71.6947C53.1556 71.6947 53.763 71.3078 54.1906 70.5336C54.6177 69.7597 54.8317 68.5214 54.8317 66.8183V61.3183V61.3187Z" fill="#2F2F2F"/>
<path d="M73.2564 66.4219C73.2564 69.2207 72.7012 71.344 71.5913 72.7915C70.481 74.2394 68.979 74.9631 67.0857 74.9631C65.1924 74.9631 63.663 74.2394 62.5486 72.7915C61.4343 71.344 60.877 69.2207 60.877 66.4219V61.759C60.877 58.9701 61.4321 56.8471 62.5424 55.3894C63.6524 53.932 65.1584 53.2031 67.0605 53.2031C68.9625 53.2031 70.4601 53.932 71.5789 55.3894C72.6976 56.8471 73.2567 58.9701 73.2567 61.759V66.4219H73.2564ZM69.5989 61.3187C69.5989 59.6452 69.3809 58.4186 68.9453 57.6396C68.5098 56.861 67.8811 56.4715 67.0601 56.4715C66.2391 56.4715 65.6023 56.8584 65.1748 57.6323C64.7477 58.4061 64.5337 59.6349 64.5337 61.3183V66.8183C64.5337 68.5214 64.7495 69.7597 65.181 70.5336C65.6126 71.3074 66.2471 71.6947 67.085 71.6947C67.9228 71.6947 68.5303 71.3078 68.9578 70.5336C69.3849 69.7597 69.5985 68.5214 69.5985 66.8183V61.3183L69.5989 61.3187Z" fill="#2F2F2F"/>
<path d="M75.6445 57.5756C75.6445 56.3263 75.9942 55.2855 76.6941 54.4524C77.3937 53.6197 78.3676 53.2031 79.6162 53.2031C80.8647 53.2031 81.8617 53.6171 82.5573 54.4451C83.2525 55.2731 83.6003 56.3168 83.6003 57.5756V58.694C83.6003 59.9432 83.2525 60.9797 82.5573 61.8025C81.8617 62.6258 80.89 63.0372 79.6414 63.0372C78.3929 63.0372 77.4044 62.6258 76.7004 61.8025C75.9964 60.9797 75.6445 59.9432 75.6445 58.694V57.5756ZM78.0828 58.694C78.0828 59.2557 78.2166 59.7278 78.485 60.1104C78.7531 60.4929 79.1386 60.6842 79.6414 60.6842C80.1443 60.6842 80.5023 60.4929 80.7664 60.1104C81.0304 59.7278 81.1624 59.2557 81.1624 58.694V57.5756C81.1624 57.0142 81.0282 56.537 80.7601 56.1449C80.4917 55.7529 80.1106 55.5565 79.6166 55.5565C79.1225 55.5565 78.7432 55.7525 78.4792 56.1449C78.2151 56.537 78.0831 57.0142 78.0831 57.5756V58.694H78.0828ZM80.2445 73.0746L78.4598 71.9851L87.3957 55.4545L89.1804 56.5439L80.2445 73.0746ZM84.3921 69.4719C84.3921 68.2325 84.7439 67.1964 85.4479 66.3634C86.1515 65.5306 87.1276 65.1141 88.3761 65.1141C89.6247 65.1141 90.611 65.5281 91.3106 66.356C92.0102 67.184 92.3602 68.2226 92.3602 69.4719V70.5903C92.3602 71.8494 92.0124 72.8903 91.3172 73.7135C90.6216 74.5367 89.6499 74.9481 88.4014 74.9481C87.1528 74.9481 86.1621 74.5341 85.4541 73.7062C84.7461 72.8782 84.3921 71.8396 84.3921 70.5903V69.4719ZM86.8303 70.5903C86.8303 71.1421 86.9747 71.6143 87.264 72.0067C87.5529 72.3991 87.9322 72.5951 88.4014 72.5951C88.9459 72.5951 89.3354 72.4137 89.5702 72.0506C89.8046 71.6874 89.922 71.2007 89.922 70.5906V69.4723C89.922 68.9204 89.7878 68.4483 89.5197 68.0559C89.2513 67.6638 88.8702 67.4674 88.3761 67.4674C87.8821 67.4674 87.49 67.6635 87.226 68.0559C86.9619 68.4483 86.8303 68.9201 86.8303 69.4723V70.5906V70.5903Z" fill="#2F2F2F"/>
<path d="M98.291 46.0092L107.712 42.1484L108.529 44.1404L104.375 45.8427L104.426 45.9669L109.969 47.655L110.947 50.0426L105.296 48.275L101.543 53.9448L100.566 51.5618L103.382 47.3937L101.785 46.904L99.1073 48.0012L98.291 46.0092Z" fill="white"/>
<path d="M102.869 40.7135L101.561 38.9727C101.762 38.7716 101.913 38.5564 102.015 38.3269C102.119 38.0955 102.175 37.8561 102.184 37.6089C102.193 37.3616 102.155 37.1124 102.07 36.8613C101.987 36.6128 101.858 36.3719 101.683 36.1388C101.366 35.7175 100.985 35.4291 100.541 35.2738C100.1 35.1164 99.6154 35.101 99.0885 35.2274C98.5643 35.3519 98.02 35.6261 97.4556 36.0502C96.8753 36.4863 96.4525 36.9388 96.1871 37.4077C95.9237 37.8792 95.8088 38.347 95.8424 38.811C95.876 39.275 96.0471 39.7123 96.3557 40.123C96.5289 40.3535 96.7197 40.5439 96.928 40.6942C97.1383 40.8471 97.3594 40.9566 97.5915 41.0227C97.8262 41.0868 98.0662 41.1055 98.3114 41.0787C98.5587 41.0546 98.8059 40.9808 99.053 40.8573L100.353 42.6041C99.9458 42.8398 99.5008 42.998 99.0183 43.0786C98.5404 43.1599 98.0515 43.1521 97.5516 43.0551C97.0564 42.9588 96.573 42.7624 96.1014 42.4659C95.6344 42.17 95.2048 41.7611 94.8126 41.2391C94.267 40.5131 93.9435 39.7405 93.8419 38.9213C93.7424 38.1047 93.8795 37.2968 94.2533 36.4977C94.6291 35.7012 95.2595 34.9705 96.1444 34.3055C97.0321 33.6384 97.9127 33.2379 98.7862 33.1038C99.6598 32.9698 100.475 33.0664 101.231 33.3939C101.989 33.7193 102.637 34.2397 103.175 34.9551C103.529 35.4267 103.792 35.9137 103.962 36.416C104.134 36.921 104.21 37.4253 104.191 37.9292C104.174 38.431 104.057 38.9173 103.838 39.3882C103.622 39.8617 103.299 40.3034 102.869 40.7135Z" fill="white"/>
<path d="M95.5614 26.929L97.2558 28.2567L93.1776 33.4614C92.7196 34.0458 92.1794 34.4478 91.5568 34.6673C90.9368 34.8889 90.2816 34.9271 89.5912 34.7819C88.9028 34.6341 88.2272 34.3006 87.5646 33.7813C86.8993 33.26 86.4126 32.6829 86.1044 32.0498C85.7983 31.4141 85.6786 30.7688 85.7455 30.1138C85.8124 29.4588 86.0748 28.8391 86.5327 28.2547L90.611 23.05L92.3055 24.3777L88.3407 29.4377C88.1015 29.7429 87.9554 30.0664 87.9024 30.408C87.8521 30.7517 87.8964 31.0875 88.0353 31.4153C88.1742 31.7431 88.4067 32.0348 88.7329 32.2903C89.0616 32.5479 89.4004 32.7039 89.7493 32.7584C90.1009 32.8149 90.4362 32.7766 90.7552 32.6434C91.0769 32.5123 91.3574 32.2941 91.5965 31.9889L95.5614 26.929ZM93.3838 23.8963C93.1594 23.7205 93.0277 23.491 92.9886 23.2077C92.9516 22.9218 93.0179 22.6706 93.1875 22.4541C93.3613 22.2323 93.5894 22.1078 93.8717 22.0807C94.1541 22.0535 94.4074 22.1278 94.6318 22.3036C94.8588 22.4814 94.9902 22.7087 95.0262 22.9852C95.0647 23.2639 94.9971 23.514 94.8233 23.7358C94.6536 23.9523 94.4269 24.0778 94.143 24.1123C93.8638 24.1461 93.6108 24.0742 93.3838 23.8963ZM95.7787 25.7729C95.5544 25.5971 95.4227 25.3676 95.3836 25.0843C95.3465 24.7984 95.4128 24.5472 95.5825 24.3307C95.7563 24.1089 95.9843 23.9845 96.2667 23.9573C96.549 23.9301 96.8024 24.0044 97.0268 24.1802C97.2537 24.3581 97.3852 24.5853 97.4211 24.8619C97.4596 25.1405 97.392 25.3907 97.2183 25.6124C97.0486 25.829 96.8218 25.9544 96.538 25.9889C96.2588 26.0228 96.0057 25.9508 95.7787 25.7729Z" fill="white"/>
<path d="M76.072 27.1427L80.2225 17.8452L83.8907 19.4827C84.5928 19.7962 85.136 20.1893 85.5202 20.6621C85.9088 21.1332 86.1312 21.6553 86.1875 22.2285C86.2481 22.8 86.1413 23.393 85.8671 24.0074C85.5914 24.6248 85.2212 25.0965 84.7562 25.4225C84.2926 25.7455 83.7554 25.9122 83.1446 25.9226C82.5368 25.9344 81.8758 25.7809 81.1615 25.462L78.7055 24.3656L79.4108 22.7858L81.549 23.7403C81.9243 23.9078 82.259 23.9955 82.5531 24.0034C82.8472 24.0113 83.1008 23.9394 83.3137 23.7876C83.5297 23.6372 83.7059 23.4092 83.8423 23.1035C83.9801 22.7948 84.0343 22.5068 84.0048 22.2396C83.9783 21.9737 83.8638 21.7302 83.6612 21.5091C83.463 21.2863 83.1748 21.0905 82.7965 20.9216L81.4708 20.3298L78.0377 28.0202L76.072 27.1427ZM82.9818 25.153L83.4038 30.4157L81.2337 29.4469L80.8617 24.2066L82.9818 25.153Z" fill="white"/>
<path d="M74.0355 16.2355L76.1566 16.6029L75.0281 23.1181C74.9014 23.8496 74.6158 24.4594 74.1714 24.9475C73.7302 25.4362 73.1711 25.78 72.4942 25.979C71.8178 26.1747 71.0648 26.2007 70.2353 26.057C69.4026 25.9127 68.7006 25.6347 68.1295 25.223C67.5589 24.808 67.148 24.2961 66.8969 23.6875C66.6457 23.0789 66.5835 22.4088 66.7102 21.6773L67.8387 15.1621L69.9598 15.5295L68.8627 21.8635C68.7965 22.2456 68.821 22.5996 68.9361 22.9257C69.0544 23.2523 69.2524 23.5271 69.5299 23.75C69.8075 23.973 70.1504 24.1199 70.5586 24.1906C70.9701 24.2619 71.3424 24.2389 71.6755 24.1217C72.0119 24.005 72.2892 23.8125 72.5072 23.5442C72.7285 23.2764 72.8722 22.9515 72.9384 22.5694L74.0355 16.2355Z" fill="white"/>
<path d="M56.7118 25.6739L56.6175 24.3997L61.1585 16.9149L56.0814 17.2906L55.9504 15.5206L63.7246 14.9453L63.8189 16.2195L59.273 23.7047L64.355 23.3286L64.486 25.0986L56.7118 25.6739Z" fill="white"/>
<path d="M53.4129 20.2812L53.8691 21.8985L49.4 23.1591L48.9438 21.5418L53.4129 20.2812Z" fill="white"/>
<path d="M44.6319 30.1693L41.4453 31.8644L36.6636 22.8752L39.8765 21.1661C40.7807 20.6852 41.6547 20.4511 42.4987 20.4639C43.3412 20.4738 44.1162 20.7203 44.8238 21.2036C45.5343 21.6854 46.1378 22.393 46.6344 23.3264C47.1325 24.2628 47.3835 25.1616 47.3874 26.023C47.3943 26.8828 47.1643 27.6678 46.6973 28.3779C46.2333 29.0865 45.5449 29.6836 44.6319 30.1693ZM42.4796 29.225L43.6867 28.5829C44.2485 28.284 44.6681 27.9332 44.9456 27.5303C45.2245 27.1229 45.3484 26.6572 45.3174 26.1331C45.2877 25.6045 45.0947 25.0052 44.7382 24.3351C44.3849 23.6708 43.9981 23.1802 43.5779 22.8631C43.1606 22.5445 42.7074 22.3876 42.2182 22.3926C41.7291 22.3975 41.2036 22.5494 40.6418 22.8482L39.4303 23.4927L42.4796 29.225Z" fill="white"/>
<path d="M35.3562 36.9105L28.6628 29.2379L30.285 27.8228L35.8116 34.1579L39.1009 31.2884L40.2677 32.6259L35.3562 36.9105Z" fill="white"/>
<path d="M30.0745 43.618L21.9421 37.4916L26.0703 32.0117L27.4879 33.0797L24.655 36.8401L26.5928 38.2999L29.2133 34.8214L30.6309 35.8894L28.0104 39.3679L29.9522 40.8307L32.7971 37.0544L34.2147 38.1223L30.0745 43.618Z" fill="white"/>
<path d="M22.0347 44.3765C21.7848 44.346 21.5498 44.3525 21.3297 44.3959C21.1066 44.4381 20.9 44.5178 20.7098 44.6351C20.5178 44.7481 20.3445 44.8977 20.1898 45.0841C20.0363 45.2674 19.9052 45.4872 19.7965 45.7435C19.5932 46.2225 19.5335 46.694 19.6174 47.1581C19.7025 47.6191 19.9297 48.0468 20.2988 48.4411C20.6649 48.8341 21.1744 49.1692 21.8273 49.4463C22.4802 49.7234 23.0776 49.8599 23.6194 49.8558C24.1612 49.8517 24.6297 49.7193 25.0248 49.4585C25.4169 49.1964 25.7178 48.8183 25.9276 48.324C26.1179 47.8755 26.2011 47.459 26.1771 47.0743C26.1514 46.6853 26.0277 46.3448 25.806 46.0527C25.5856 45.7575 25.2756 45.5251 24.8759 45.3555L25.1063 44.978L24.0808 47.3944L22.5888 46.7612L24.2534 42.8392L25.4341 43.3403C26.2579 43.6899 26.8919 44.1642 27.3362 44.7632C27.7774 45.361 28.0287 46.0329 28.0901 46.7791C28.1484 47.5239 28.0105 48.2899 27.6765 49.0771C27.3035 49.9558 26.7822 50.6454 26.1124 51.1461C25.4396 51.6455 24.6658 51.9291 23.7908 51.997C22.9141 52.0606 21.9815 51.8826 20.9929 51.4631C20.2333 51.1407 19.6026 50.7434 19.1008 50.2712C18.5974 49.7947 18.223 49.2685 17.9777 48.6928C17.7324 48.117 17.6141 47.5177 17.6228 46.8949C17.6314 46.2721 17.7672 45.651 18.0301 45.0316C18.2554 44.5008 18.543 44.0395 18.8928 43.6479C19.2396 43.255 19.6284 42.9412 20.0593 42.7064C20.4915 42.4685 20.9492 42.319 21.4325 42.2576C21.9128 42.195 22.3984 42.2301 22.8893 42.3628L22.0347 44.3765Z" fill="white"/>
<path d="M91.5063 104.895L85.3721 96.7687L90.848 92.6353L91.9173 94.0518L88.1595 96.8883L89.6212 98.8247L93.0972 96.2009L94.1665 97.6175L90.6905 100.241L92.1552 102.182L95.9288 99.3332L96.9981 100.75L91.5063 104.895Z" fill="white"/>
<path d="M84.9616 97.04L90.0332 105.869L88.1666 106.941L83.095 98.1123L84.9616 97.04Z" fill="white"/>
<path d="M76.0402 102.935L75.3701 101.291L83.1134 98.1338L83.7835 99.7773L80.897 100.954L84.0712 108.739L82.1009 109.542L78.9267 101.758L76.0402 102.935Z" fill="white"/>
<path d="M76.0067 101.064L77.8957 111.069L76.0686 111.414L70.5269 105.939L70.4536 105.953L71.6426 112.25L69.5272 112.649L67.6382 102.644L69.4946 102.294L75.0012 107.77L75.0891 107.754L73.9011 101.462L76.0067 101.064Z" fill="white"/>
<path d="M60.8478 112.645L58.5415 112.595L62.2749 102.492L65.0484 102.551L68.3382 112.806L66.032 112.757L63.6513 104.849L63.5717 104.847L60.8478 112.645ZM60.7898 108.641L66.2374 108.758L66.2012 110.438L60.7536 110.321L60.7898 108.641Z" fill="white"/>
<path d="M50.1184 110.789L52.3289 100.85L56.2501 101.722C57.0007 101.889 57.6114 102.166 58.0823 102.552C58.5571 102.936 58.8793 103.404 59.0489 103.954C59.2225 104.502 59.2362 105.104 59.0901 105.761C58.9434 106.421 58.6747 106.957 58.2842 107.37C57.8945 107.779 57.4014 108.049 56.805 108.181C56.2118 108.314 55.5334 108.296 54.7699 108.126L52.1444 107.542L52.52 105.853L54.8057 106.362C55.2069 106.451 55.5524 106.47 55.8422 106.419C56.1319 106.368 56.366 106.247 56.5443 106.056C56.7259 105.865 56.853 105.606 56.9257 105.28C56.9991 104.95 56.9947 104.657 56.9124 104.401C56.8333 104.145 56.6725 103.93 56.4299 103.754C56.1912 103.575 55.8696 103.441 55.4652 103.351L54.0481 103.035L52.2198 111.256L50.1184 110.789ZM56.4918 107.46L57.956 112.532L55.6363 112.016L54.2254 106.956L56.4918 107.46Z" fill="white"/>
<path d="M42.1208 107.414L40.0142 106.474L47.3726 98.6079L49.9061 99.7382L48.9629 110.467L46.8562 109.527L47.7277 101.314L47.655 101.282L42.1208 107.414ZM43.6198 103.7L48.5959 105.921L47.9112 107.455L42.9351 105.235L43.6198 103.7Z" fill="white"/>
<path d="M41.5956 99.1894C41.6816 98.9528 41.7283 98.7224 41.7356 98.4982C41.7449 98.2713 41.7138 98.052 41.6424 97.8403C41.5756 97.6278 41.4689 97.4251 41.3222 97.2324C41.1782 97.0416 40.9936 96.8643 40.7685 96.7006C40.3476 96.3945 39.9017 96.23 39.4307 96.2071C38.9623 96.1861 38.4945 96.311 38.0271 96.5817C37.5616 96.8498 37.1203 97.2706 36.7031 97.8442C36.286 98.4178 36.0183 98.969 35.9001 99.4978C35.7819 100.027 35.8053 100.513 35.9702 100.957C36.1371 101.398 36.4377 101.776 36.8719 102.092C37.266 102.378 37.653 102.553 38.0332 102.617C38.418 102.679 38.7776 102.636 39.1122 102.486C39.4495 102.337 39.7458 102.088 40.0012 101.737L40.317 102.046L38.194 100.502L39.1473 99.1915L42.593 101.698L41.8386 102.735C41.3122 103.459 40.7072 103.969 40.0234 104.267C39.3416 104.562 38.6303 104.656 37.8895 104.547C37.1507 104.436 36.4355 104.129 35.7439 103.626C34.972 103.064 34.4176 102.401 34.0808 101.636C33.746 100.868 33.6442 100.05 33.7753 99.1819C33.9111 98.3135 34.2947 97.445 34.9264 96.5765C35.4118 95.9091 35.9411 95.3842 36.5142 95.0019C37.092 94.6189 37.689 94.3728 38.3053 94.2636C38.9215 94.1544 39.5321 94.1743 40.1369 94.3232C40.7417 94.4721 41.3162 94.7444 41.8603 95.1402C42.3267 95.4794 42.7112 95.8635 43.0139 96.2927C43.3184 96.7191 43.5365 97.1687 43.6681 97.6415C43.8024 98.1161 43.8449 98.5958 43.7956 99.0805C43.7484 99.5625 43.6047 100.028 43.3647 100.476L41.5956 99.1894Z" fill="white"/>
</svg>
