<svg width="608" height="81" viewBox="0 0 608 81" fill="none" xmlns="http://www.w3.org/2000/svg">
<g clip-path="url(#clip0_9171_5982)">
<path d="M29.1131 80.7371C19.9276 80.7371 12.7808 78.6581 7.67289 74.4783C2.56494 70.3201 0 63.953 0 55.3985C0 53.9908 0.0438451 52.9729 0.109613 52.3015C0.109613 50.3957 0.263071 48.8797 0.569986 47.7752L25.189 46.5625C25.1232 46.8657 24.9479 47.7319 24.6848 49.1613C24.4217 50.5906 24.2902 52.085 24.2902 53.6443C24.2902 56.3731 24.8163 58.4088 25.8467 59.7299C26.899 61.051 28.6528 61.7223 31.1081 61.7223C34.1553 61.7223 36.6764 60.7478 38.6056 58.7986C40.5348 56.8495 41.8063 54.164 42.4201 50.7856L51.4961 0H76.7947L67.3899 53.1895C64.1892 71.5546 51.4084 80.7371 29.1131 80.7371Z" fill="#040029"/>
<path d="M147.319 29.9732L144.184 47.4504H108.144L105.907 60.163H144.184L140.83 78.9613H77.8027L91.7893 0H154.817L151.572 18.2568H113.295L111.278 29.9732H147.319Z" fill="#040029"/>
<path d="M165.339 0L161.766 19.9244H185.946L184.609 27.461C192.961 26.9196 201.292 26.3782 209.644 25.8367L210.697 19.9244H234.877L238.341 0H165.339ZM175.533 78.9829H200.152L205.041 51.6302C196.907 51.0454 188.796 50.4824 180.663 49.9193L175.533 78.9829Z" fill="#040029"/>
<path d="M248.075 0L244.502 19.9244H268.683L268.31 22.0251C276.64 21.4837 284.993 20.9423 293.323 20.4009L293.411 19.9244H317.592L317.789 18.8199L321.077 0H248.075ZM258.269 78.9829H282.888L286.747 57.3476C278.635 56.7629 270.502 56.1998 262.391 55.6367L258.269 78.9829Z" fill="#040029"/>
<path d="M333.157 0L329.956 18.0402C351.199 16.6542 372.464 15.2682 393.707 13.9038L396.184 0H333.157ZM322.546 59.8598L319.17 78.9829H382.197L384.828 64.2129C364.067 62.7402 343.329 61.2892 322.568 59.8598H322.546Z" fill="#040029"/>
<path d="M465.657 2.59883C461.514 0.866278 456.866 0 451.715 0H409.623L407.321 13.0158C429.617 11.5648 451.912 10.1355 474.207 8.68444C471.993 6.08561 469.143 4.04985 465.657 2.59883ZM440.403 68.0895L444.787 78.9829H471.861L467.652 70.0169C458.576 69.3672 449.478 68.7392 440.403 68.0895ZM395.637 78.9829H420.256L422.426 66.8334C414.315 66.2703 406.203 65.7072 398.092 65.1441L395.637 78.9829Z" fill="#040029"/>
<path d="M495.713 0L494.42 7.36337C502.728 6.82194 511.015 6.28052 519.324 5.76075L520.354 0H495.713ZM481.727 78.9829H506.346L507.442 72.789C499.33 72.226 491.241 71.6629 483.13 71.0998L481.727 78.9829Z" fill="#040029"/>
<path d="M579.456 0L578.163 1.92747C588.116 1.29942 598.047 0.649709 607.999 0H579.456ZM569.372 78.9829H595.788C586.734 78.3549 577.702 77.7052 568.648 77.0771L569.372 78.9829ZM532.323 0L534.559 4.76453C542.999 4.22311 551.461 3.66003 559.901 3.1186L558.739 0L532.323 0ZM516.078 78.9829H544.643L547.011 75.5611C538.066 74.9331 529.144 74.305 520.2 73.677L516.078 78.9829Z" fill="#040029"/>
<path d="M209.646 25.8369L205.042 51.6303C196.909 51.0456 188.797 50.4825 180.664 49.9194L184.61 27.4612C192.963 26.9198 201.293 26.3783 209.646 25.8369Z" fill="url(#paint0_linear_9171_5982)"/>
<path d="M293.323 20.4004L286.747 57.3472C278.635 56.7624 270.502 56.1993 262.391 55.6363L268.31 22.0247C276.64 21.4832 284.993 20.9418 293.323 20.4004Z" fill="url(#paint1_linear_9171_5982)"/>
<path d="M354.663 18.2564L352.646 29.9728H388.687L385.552 47.4499H349.511L347.275 60.1626H385.552L384.828 64.2124C364.068 62.7398 343.329 61.2887 322.568 59.8594L329.956 18.0398C351.199 16.6538 372.464 15.2677 393.707 13.9033L392.94 18.2564H354.663Z" fill="url(#paint2_linear_9171_5982)"/>
<path d="M475.456 10.2439C475.062 9.70245 474.667 9.18268 474.207 8.68457C451.912 10.1356 429.616 11.5649 407.321 13.016L398.092 65.1443C406.203 65.7073 414.314 66.2704 422.426 66.8335L424.728 53.9909H434.702L440.38 68.0896H440.402C449.478 68.7393 458.576 69.3674 467.652 70.0171L458.993 51.5437C465.482 49.2697 470.458 45.6097 473.878 40.6069C477.32 35.5825 479.03 29.4319 479.03 22.1335C479.03 17.5639 477.846 13.6007 475.456 10.2439ZM450.596 32.9187C448.36 34.7812 445.225 35.7341 441.192 35.7341H427.994L431.129 18.2569H444.326C450.75 18.2569 453.95 20.5742 453.95 25.2305C453.95 28.479 452.832 31.0345 450.596 32.9187Z" fill="url(#paint3_linear_9171_5982)"/>
<path d="M519.323 5.76074L507.441 72.789C499.33 72.2259 491.24 71.6629 483.129 71.0998L494.397 7.36336H494.419C502.728 6.82193 511.014 6.28051 519.323 5.76074Z" fill="url(#paint4_linear_9171_5982)"/>
<path d="M577.331 39.6106L595.79 78.9829C586.736 78.3549 577.704 77.7052 568.65 77.0771L560.648 55.8533L547.012 75.5611C538.068 74.9331 529.146 74.305 520.201 73.677L549.336 36.1671L534.56 4.76453C543.001 4.22311 551.463 3.66003 559.903 3.1186L566.129 19.8161L578.164 1.92747C588.117 1.29942 598.048 0.649709 608.001 0L577.331 39.6106Z" fill="url(#paint5_linear_9171_5982)"/>
</g>
<defs>
<linearGradient id="paint0_linear_9171_5982" x1="195.155" y1="25.8369" x2="191.378" y2="56.9392" gradientUnits="userSpaceOnUse">
<stop stop-color="#4DC1EB"/>
<stop offset="1" stop-color="#035E7F"/>
</linearGradient>
<linearGradient id="paint1_linear_9171_5982" x1="277.857" y1="20.4004" x2="270.68" y2="64.439" gradientUnits="userSpaceOnUse">
<stop stop-color="#4DC1EB"/>
<stop offset="1" stop-color="#035E7F"/>
</linearGradient>
<linearGradient id="paint2_linear_9171_5982" x1="358.138" y1="13.9033" x2="352.253" y2="74.8939" gradientUnits="userSpaceOnUse">
<stop stop-color="#4DC1EB"/>
<stop offset="1" stop-color="#035E7F"/>
</linearGradient>
<linearGradient id="paint3_linear_9171_5982" x1="438.561" y1="8.68457" x2="430.884" y2="82.9375" gradientUnits="userSpaceOnUse">
<stop stop-color="#4DC1EB"/>
<stop offset="1" stop-color="#035E7F"/>
</linearGradient>
<linearGradient id="paint4_linear_9171_5982" x1="501.226" y1="5.76074" x2="481.747" y2="82.8549" gradientUnits="userSpaceOnUse">
<stop stop-color="#4DC1EB"/>
<stop offset="1" stop-color="#035E7F"/>
</linearGradient>
<linearGradient id="paint5_linear_9171_5982" x1="564.101" y1="0" x2="552.415" y2="95.2095" gradientUnits="userSpaceOnUse">
<stop stop-color="#4DC1EB"/>
<stop offset="1" stop-color="#035E7F"/>
</linearGradient>
<clipPath id="clip0_9171_5982">
<rect width="608" height="80.7371" fill="white"/>
</clipPath>
</defs>
</svg>
