<?xml version="1.0" encoding="UTF-8"?>
<svg id="Layer_2" data-name="Layer 2" xmlns="http://www.w3.org/2000/svg" xmlns:xlink="http://www.w3.org/1999/xlink" viewBox="0 0 65 69.16">
  <defs>
    <style>
      .cls-1 {
        fill: url(#linear-gradient-2);
      }

      .cls-2 {
        fill: url(#linear-gradient);
      }

      .cls-3 {
        fill: #040029;
      }
    </style>
    <linearGradient id="linear-gradient" x1="11.03" y1="40.95" x2="10.51" y2="47.2" gradientUnits="userSpaceOnUse">
      <stop offset="0" stop-color="#4dc1eb"/>
      <stop offset="1" stop-color="#035e7f"/>
    </linearGradient>
    <linearGradient id="linear-gradient-2" x1="50.07" y1="11.57" x2="43.34" y2="55.02" xlink:href="#linear-gradient"/>
  </defs>
  <g id="Layer_1-2" data-name="Layer 1">
    <g>
      <path class="cls-3" d="M30.85,51.76c-1.28.74-2.8,1.11-4.51,1.11-2.08,0-3.56-.58-4.45-1.71-.37-.46-.65-1.04-.87-1.71L.09,44.54v.28c-.06.56-.09,1.45-.09,2.65,0,7.33,2.17,12.76,6.49,16.34,4.32,3.56,10.37,5.34,18.14,5.34,13.6,0,23-4.08,28.2-12.22l-21.98-5.18ZM43.57,0l-2.62,14.88,22.72-7.35,1.32-7.53h-21.43Z"/>
      <path class="cls-2" d="M20.57,45.95c0,1.37.15,2.54.45,3.51L.09,44.54c.02-1.52.15-2.73.39-3.62l20.83-1.04c-.06.26-.2,1-.43,2.23-.22,1.24-.32,2.52-.32,3.84Z"/>
      <path class="cls-1" d="M63.68,7.53l-6.64,38.05c-.76,4.4-2.17,8.18-4.21,11.35l-21.98-5.18c.67-.35,1.28-.83,1.84-1.41,1.65-1.67,2.73-3.95,3.23-6.86l5.05-28.6,22.72-7.35Z"/>
    </g>
  </g>
</svg>