<svg width="120" height="40" viewBox="0 0 120 40" fill="none" xmlns="http://www.w3.org/2000/svg">
<mask id="mask0_7087_2700" style="mask-type:luminance" maskUnits="userSpaceOnUse" x="7" y="10" width="107" height="20">
<path d="M113.154 10.834H7.32129V29.1673H113.154V10.834Z" fill="white"/>
</mask>
<g mask="url(#mask0_7087_2700)">
<path d="M7.32129 10.8929V15.797H10.6037V28.7282H16.1517V10.8929M25.5197 17.6708H22.9234V15.7885H24.2298V10.8929H17.3837V28.7282H22.9234V21.9841H25.5197V28.7282H31.0759V10.8929H25.5197M32.2913 28.7282H42.5687V23.8156H37.5912V21.7392H40.758V17.6708H37.5912V15.797H42.5687V10.8929H32.2913M86.2662 16.928C86.2662 13.0791 83.4803 10.8929 79.5277 10.8929H73.3513V28.7197H78.8993V24.1533L82.0743 28.7197H88.3337L83.8353 21.8827C85.4561 20.9796 86.2662 19.3336 86.2662 16.928ZM78.8828 18.9032V15.586C79.6517 15.586 80.5943 15.8223 80.8755 16.6832C80.9002 16.7592 80.9168 16.8436 80.9416 16.928C80.9416 16.9365 80.9416 16.9533 80.9499 16.9618C80.9582 17.0462 80.9746 17.1475 80.9746 17.2487C80.9746 18.574 79.7923 18.9032 78.8828 18.9032ZM53.5572 21.7561H53.5076L53.1107 20.2875L51.8705 15.8054H54.0533L55.492 10.8929H44.4126L50.7626 28.7197H56.4511L57.1374 26.8122C57.1374 26.8122 60.1801 18.3883 61.842 13.7965V28.7197H72.1194V23.8072H67.1419V21.7308H70.3004V17.6708H67.1419V15.797H72.1194V10.8844H56.7653L53.5572 21.7561ZM113.154 15.8054V10.9013H102.877V28.7282H113.154V23.8156H108.169V21.7392H111.335V17.6877H108.169V15.8054" fill="white"/>
<path d="M101.812 24.9888V17.7213H93.9729V21.7729H96.8912V23.2162C96.6687 23.4188 96.1887 23.5285 95.6929 23.5285C93.6587 23.5285 92.1537 21.891 92.1537 19.8905C92.1537 17.8901 93.617 16.1175 95.6512 16.1175C96.8829 16.1175 99.802 16.1259 99.802 16.1259V10.842H98.4704C95.9904 10.842 93.5178 10.6394 91.2445 11.8381C89.4504 12.7834 88.0279 14.3872 87.2754 16.2948C86.837 17.4174 86.6154 18.6329 86.6154 19.8399C86.6154 24.8959 90.5004 29.1585 95.5354 29.1585C98.0329 29.1585 100.472 28.2047 101.803 27.0145C101.811 25.7822 101.812 25.5965 101.812 24.9888Z" fill="white"/>
</g>
</svg>
