<svg width="100" height="40" viewBox="0 0 100 40" fill="none" xmlns="http://www.w3.org/2000/svg">
<path d="M79.0036 13.9176V26.1256H84.7938C86.4113 26.1256 87.3479 25.8602 88.0288 25.2409C88.8804 24.4448 89.3063 23.0293 89.3063 20.0216C89.3063 17.0138 88.8804 15.5984 88.0288 14.8023C87.3479 14.183 86.4113 13.9176 84.7938 13.9176H79.0036ZM86.9221 20.0216C86.9221 22.6755 86.7521 23.2948 86.2413 23.6486C85.9004 23.9139 85.4746 24.0024 84.6229 24.0024H81.3877V15.9523H84.6229C85.4746 15.9523 85.9004 15.9523 86.2413 16.3061C86.7521 16.7484 86.9221 17.3677 86.9221 20.0216ZM92.2863 28.824H75.2994V11.1752H92.2863V28.824ZM61.4213 15.9523V13.9176H71.4685V17.81H69.3392V15.9523H65.2522V18.8715H68.4877V20.8178H65.2522V24.0909H69.425V21.9678H71.5529V26.1256H61.422V24.0909H63.039V15.9523H61.4213ZM52.3106 22.9408C52.3106 24.2678 52.3951 25.2409 52.5654 26.0371H54.865C54.7792 25.4178 54.6947 24.2678 54.6947 22.7639C54.6089 20.9947 54.098 20.7293 52.9059 20.4639C54.2683 20.1985 54.865 19.5793 54.865 17.3677C54.865 15.5984 54.6089 14.8907 54.098 14.4483C53.7574 14.0945 53.1621 13.9176 52.2248 13.9176H45.0725V26.1256H47.4566V21.3485H50.778C51.4592 21.3485 51.7139 21.437 51.97 21.6139C52.2262 21.7908 52.3106 22.0563 52.3106 22.9408ZM47.4566 19.4023V16.0407H51.2889C51.7998 16.0407 51.97 16.1292 52.0545 16.2177C52.2248 16.3946 52.3951 16.6599 52.3951 17.7215C52.3951 18.7831 52.2248 19.1369 52.0545 19.3138C51.97 19.4023 51.7998 19.4908 51.2889 19.4908L47.4566 19.4023ZM58.2709 28.824H41.2416V11.1752H58.2279V28.824H58.2709ZM36.814 24.0909V26.1256H28.7244V24.0909H31.6194V15.9523H28.7244V13.9176H36.8134V15.9523H33.9184V24.0909H36.814ZM23.1477 13.9176H20.9339L19.3162 23.5601L17.4429 14.6253C17.3578 14.006 17.1024 13.9176 16.5914 13.9176H15.3994C14.8885 13.9176 14.6331 14.0945 14.5479 14.6253L12.6748 23.5601L11.0569 13.9176H8.67289L10.9719 25.5063C11.0569 26.0371 11.2273 26.1256 11.8233 26.1256H13.4411C13.9519 26.1256 14.1223 26.0371 14.2925 25.5063L16.0806 17.1023L17.8687 25.5063C17.9538 26.0371 18.1241 26.1256 18.7201 26.1256H20.2528C20.7636 26.1256 21.0191 26.0371 21.1042 25.5063L23.1477 13.9176ZM24.3398 28.824H7.31055V11.1752H24.2975V28.824H24.3398Z" fill="white"/>
</svg>
