<?xml version="1.0" encoding="UTF-8"?><svg id="Layer_2" xmlns="http://www.w3.org/2000/svg" xmlns:xlink="http://www.w3.org/1999/xlink" viewBox="0 0 359.11 28"><defs><style>.cls-1{clip-path:url(#clippath);}.cls-2{fill:none;}.cls-2,.cls-3,.cls-4,.cls-5,.cls-6,.cls-7,.cls-8,.cls-9,.cls-10,.cls-11,.cls-12,.cls-13,.cls-14,.cls-15,.cls-16,.cls-17{stroke-width:0px;}.cls-18{clip-path:url(#clippath-1);}.cls-19{clip-path:url(#clippath-4);}.cls-20{clip-path:url(#clippath-3);}.cls-21{clip-path:url(#clippath-2);}.cls-22{clip-path:url(#clippath-6);}.cls-23{clip-path:url(#clippath-5);}.cls-3{fill:#1f72cd;fill-rule:evenodd;}.cls-5{fill:#f79e1b;}.cls-6{fill:#f9b50b;}.cls-7{fill:#2b2b2b;}.cls-8{fill:#1d1d1b;}.cls-9{fill:#3362ab;}.cls-10{fill:#009cde;}.cls-11{fill:#ff5f00;}.cls-12{fill:#fff;}.cls-13{fill:#f26e21;}.cls-14{fill:#eb001b;}.cls-15{fill:#f5f5f5;}.cls-16{fill:#003087;}.cls-17{fill:#0079be;}</style><clipPath id="clippath"><rect class="cls-2" width="42" height="28"/></clipPath><clipPath id="clippath-1"><rect class="cls-2" x="45.5" width="42" height="28"/></clipPath><clipPath id="clippath-2"><rect class="cls-2" x="91" width="42" height="28"/></clipPath><clipPath id="clippath-3"><rect class="cls-2" x="180.61" width="42" height="28"/></clipPath><clipPath id="clippath-4"><rect class="cls-2" x="226.11" width="42" height="28"/></clipPath><clipPath id="clippath-5"><rect class="cls-2" x="271.61" width="42" height="28"/></clipPath><clipPath id="clippath-6"><rect class="cls-2" x="317.11" width="42" height="28"/></clipPath></defs><g id="Layer_1-2"><g class="cls-1"><path class="cls-15" d="m0,3.5C0,1.57,1.57,0,3.5,0h35c1.93,0,3.5,1.57,3.5,3.5v21c0,1.93-1.57,3.5-3.5,3.5H3.5c-1.93,0-3.5-1.57-3.5-3.5V3.5Z"/><path class="cls-16" d="m9.42,10.08c-.44-.3-1.01-.45-1.72-.45h-2.73c-.22,0-.34.11-.36.32l-1.11,6.97c-.01.07,0,.13.05.19.05.06.1.09.17.09h1.3c.23,0,.35-.11.38-.32l.31-1.88c.01-.09.05-.17.12-.22.07-.06.15-.09.26-.11.1-.02.2-.03.29-.03s.2,0,.32.02c.13.01.21.02.24.02.98,0,1.75-.28,2.31-.83.56-.55.84-1.32.84-2.3,0-.67-.22-1.16-.66-1.46h0Zm-1.41,2.09c-.06.4-.21.66-.44.79-.24.13-.58.19-1.03.19l-.56.02.29-1.83c.02-.13.1-.19.22-.19h.32c.46,0,.79.07.99.2.2.13.27.41.2.83Z"/><path class="cls-10" d="m38.28,9.63h-1.26c-.13,0-.2.06-.22.19l-1.11,7.11-.02.03c0,.06.02.11.07.16.05.05.1.08.17.08h1.13c.22,0,.34-.11.36-.32l1.11-6.99v-.02c0-.16-.07-.24-.22-.24h0Z"/><path class="cls-16" d="m23,12.38c0-.06-.02-.11-.07-.16-.05-.05-.1-.08-.15-.08h-1.32c-.13,0-.23.06-.31.17l-1.81,2.67-.75-2.56c-.06-.18-.18-.27-.38-.27h-1.28c-.06,0-.11.03-.15.08-.05.05-.07.11-.07.16,0,.02.11.36.33,1.01.22.65.46,1.35.72,2.1.26.75.39,1.15.4,1.2-.93,1.28-1.4,1.96-1.4,2.05,0,.15.07.22.22.22h1.32c.13,0,.23-.06.31-.17l4.36-6.29s.03-.06.03-.12h0Z"/><path class="cls-10" d="m35.25,12.14h-1.3c-.16,0-.26.19-.29.56-.3-.46-.84-.68-1.62-.68s-1.52.31-2.09.92c-.58.62-.86,1.34-.86,2.17,0,.67.2,1.21.59,1.61.39.4.92.6,1.58.6.33,0,.67-.07,1.01-.21.34-.14.61-.32.8-.55,0,.01-.01.06-.03.15-.02.09-.03.16-.03.21,0,.18.07.27.22.27h1.18c.22,0,.34-.11.38-.32l.7-4.46c.01-.07,0-.13-.05-.19-.05-.06-.1-.09-.17-.09Zm-2.23,3.37c-.29.28-.64.43-1.05.43-.33,0-.6-.09-.8-.27-.21-.18-.31-.43-.31-.75,0-.42.14-.78.43-1.07.28-.29.64-.44,1.06-.44.32,0,.58.09.79.28.21.19.32.45.32.78,0,.41-.15.76-.44,1.04Z"/><path class="cls-16" d="m15.84,12.14h-1.3c-.16,0-.26.19-.29.56-.31-.46-.85-.68-1.62-.68-.82,0-1.52.31-2.09.92-.58.62-.86,1.34-.86,2.17,0,.67.2,1.21.59,1.61.39.4.92.6,1.58.6.32,0,.65-.07.99-.21.34-.14.62-.32.82-.55-.05.14-.07.26-.07.36,0,.18.07.27.22.27h1.18c.22,0,.34-.11.38-.32l.7-4.46c.01-.07,0-.13-.05-.19-.05-.06-.1-.09-.17-.09Zm-2.23,3.38c-.29.28-.65.42-1.07.42-.33,0-.6-.09-.79-.27-.2-.18-.3-.43-.3-.75,0-.42.14-.78.43-1.07.28-.29.64-.44,1.06-.44.32,0,.58.09.79.28.21.19.32.45.32.78,0,.42-.15.77-.44,1.05Z"/><path class="cls-10" d="m28.84,10.08c-.44-.3-1.01-.45-1.72-.45h-2.72c-.23,0-.35.11-.38.32l-1.11,6.97c-.01.07,0,.13.05.19.05.06.1.09.17.09h1.4c.14,0,.23-.07.27-.22l.31-1.98c.01-.09.05-.17.12-.22.07-.06.15-.09.26-.11.1-.02.2-.03.29-.03s.2,0,.32.02c.13.01.21.02.24.02.98,0,1.75-.28,2.31-.83.56-.55.84-1.32.84-2.3,0-.67-.22-1.16-.66-1.46h0Zm-1.75,2.81c-.25.17-.63.26-1.13.26l-.55.02.29-1.83c.02-.13.1-.19.22-.19h.31c.25,0,.45.01.6.03.15.02.29.09.43.21.14.12.2.29.2.52,0,.48-.13.8-.38.97Z"/></g><g class="cls-18"><path class="cls-15" d="m45.5,3.5c0-1.93,1.57-3.5,3.5-3.5h35c1.93,0,3.5,1.57,3.5,3.5v21c0,1.93-1.57,3.5-3.5,3.5h-35c-1.93,0-3.5-1.57-3.5-3.5V3.5Z"/><path class="cls-9" d="m81.65,8.78h-2.2c-.67,0-1.18.2-1.48.87l-4.2,9.57h2.97s.51-1.28.61-1.59h3.63c.1.36.36,1.54.36,1.54h2.66l-2.35-10.39Zm-3.48,6.7c.26-.61,1.13-2.92,1.13-2.92,0,.05.26-.61.36-.97l.2.92s.56,2.51.67,3.02h-2.35v-.05Z"/><path class="cls-9" d="m73.97,15.79c0,2.15-1.94,3.58-4.96,3.58-1.28,0-2.51-.26-3.17-.56l.41-2.35.36.15c.92.41,1.54.56,2.66.56.82,0,1.69-.31,1.69-1.02,0-.46-.36-.77-1.48-1.28-1.07-.51-2.51-1.33-2.51-2.81,0-2.05,2-3.43,4.81-3.43,1.07,0,2,.2,2.56.46l-.41,2.25-.2-.2c-.51-.2-1.18-.41-2.15-.41-1.07.05-1.59.51-1.59.92,0,.46.61.82,1.59,1.28,1.64.77,2.4,1.64,2.4,2.87Z"/><path class="cls-6" d="m49,8.88l.05-.2h4.4c.61,0,1.07.2,1.23.87l.97,4.61c-.97-2.46-3.22-4.45-6.65-5.27Z"/><path class="cls-9" d="m61.85,8.78l-4.45,10.39h-3.02l-2.56-8.7c1.84,1.18,3.38,3.02,3.94,4.3l.31,1.07,2.76-7.11h3.02v.05Z"/><path class="cls-9" d="m63.02,8.73h2.81l-1.79,10.44h-2.81l1.79-10.44Z"/></g><g class="cls-21"><path class="cls-15" d="m91,3.5c0-1.93,1.57-3.5,3.5-3.5h35c1.93,0,3.5,1.57,3.5,3.5v21c0,1.93-1.57,3.5-3.5,3.5h-35c-1.93,0-3.5-1.57-3.5-3.5V3.5Z"/><path class="cls-11" d="m116.39,5.71l-9.04.03.27,16.55,9.04-.03-.27-16.55Z"/><path class="cls-14" d="m107.94,14.05c-.06-3.37,1.45-6.36,3.81-8.3-1.78-1.4-4.02-2.24-6.44-2.23-5.74.02-10.3,4.75-10.21,10.57.1,5.82,4.82,10.52,10.56,10.5,2.42,0,4.63-.86,6.36-2.28-2.42-1.89-4.03-4.9-4.09-8.27Z"/><path class="cls-5" d="m128.9,13.91c.1,5.82-4.47,10.55-10.21,10.57-2.42,0-4.66-.83-6.44-2.23,2.39-1.94,3.87-4.93,3.81-8.3-.06-3.37-1.66-6.34-4.09-8.27,1.74-1.41,3.94-2.27,6.36-2.28,5.74-.02,10.46,4.71,10.56,10.5Z"/></g><rect class="cls-15" x="136.5" width="40.6" height="28" rx="2.8" ry="2.8"/><path class="cls-3" d="m144.25,9.92l-3.69,8.45h4.42l.55-1.35h1.25l.55,1.35h4.86v-1.03l.43,1.03h2.51l.43-1.05v1.05h10.11l1.23-1.31,1.15,1.31h5.19s-3.7-4.2-3.7-4.2l3.7-4.25h-5.11l-1.2,1.29-1.12-1.29h-11l-.94,2.18-.97-2.18h-4.41v.99l-.49-.99h-3.77Zm15.1,1.2h5.81l1.78,1.99,1.83-1.99h1.78l-2.7,3.05,2.7,3.01h-1.86l-1.78-2.01-1.84,2.01h-5.72v-6.06Zm1.43,2.36v-1.11h0s3.62,0,3.62,0l1.58,1.77-1.65,1.78h-3.55v-1.21h3.17v-1.23h-3.17Zm-15.68-2.36h2.15l2.45,5.73v-5.73h2.36l1.89,4.11,1.74-4.11h2.35v6.07h-1.43v-4.75s-2.09,4.75-2.09,4.75h-1.28l-2.09-4.75v4.75h-2.94l-.56-1.36h-3.01l-.56,1.36h-1.57l2.59-6.07Zm.06,3.45l.99-2.42.99,2.42h-1.98Z"/><g class="cls-20"><path class="cls-15" d="m180.61,3.5c0-1.93,1.57-3.5,3.5-3.5h35c1.93,0,3.5,1.57,3.5,3.5v21c0,1.93-1.57,3.5-3.5,3.5h-35c-1.93,0-3.5-1.57-3.5-3.5V3.5Z"/><path class="cls-4" d="m213.16,21.99c1.61,0,2.37-.62,3.04-2.48l2.9-8.15h-1.68l-1.95,6.3h-.03l-1.95-6.3h-1.73l2.8,7.76-.15.47c-.11.68-.71,1.16-1.4,1.11-.13,0-.38-.01-.49-.03v1.28c.21.03.42.04.63.04h0Zm-5.61-4.08c-.88,0-1.44-.43-1.44-1.07s.54-1.06,1.57-1.12l1.84-.12v.6c-.04.99-.88,1.76-1.87,1.72-.03,0-.07,0-.1,0h0Zm-.44,1.26c1,.03,1.94-.49,2.44-1.36h.03v1.28h1.53v-5.3c0-1.54-1.23-2.53-3.12-2.53-1.76,0-3.06,1-3.1,2.39h1.49c.18-.7.85-1.17,1.57-1.09,1.01,0,1.58.47,1.58,1.34v.59l-2.06.12c-1.92.12-2.96.9-2.96,2.27,0,1.39,1.07,2.3,2.61,2.3h0Zm-8.87-9.35h1.91c1.44,0,2.26.77,2.26,2.11s-.82,2.12-2.26,2.12h-1.9v-4.23Zm-1.65-1.39v10.66h1.65v-3.63h2.29c1.87.1,3.46-1.33,3.56-3.2,0-.11,0-.21,0-.32.09-1.85-1.34-3.41-3.18-3.5-.11,0-.22,0-.33,0h-4Zm-5.49,1.99c-.95-.05-1.76.54-2.21.54s-1.15-.51-1.9-.5c-1,.03-1.9.58-2.39,1.45-1.02,1.76-.27,4.38.73,5.81.49.71,1.07,1.49,1.83,1.46.72-.03,1.01-.47,1.89-.47s1.14.47,1.9.46c.79-.01,1.29-.71,1.78-1.42.34-.5.61-1.06.79-1.64-.93-.41-1.54-1.33-1.54-2.35.01-.9.49-1.73,1.25-2.2-.49-.69-1.27-1.12-2.12-1.15h0Zm-.59-.94c-.42.52-1.05.83-1.72.81-.04-.65.18-1.3.62-1.78.43-.5,1.05-.82,1.71-.88.05.67-.17,1.33-.6,1.85"/></g><g class="cls-19"><path class="cls-15" d="m226.11,3.5c0-1.93,1.57-3.5,3.5-3.5h35c1.93,0,3.5,1.57,3.5,3.5v21c0,1.93-1.57,3.5-3.5,3.5h-35c-1.93,0-3.5-1.57-3.5-3.5V3.5Z"/><path class="cls-17" d="m260.33,14.09c0-6.26-5.23-10.59-10.96-10.59h-4.93c-5.8,0-10.57,4.33-10.57,10.59,0,5.73,4.77,10.44,10.57,10.41h4.93c5.73.03,10.96-4.68,10.96-10.41Z"/><path class="cls-12" d="m244.48,4.39c-5.3,0-9.59,4.3-9.59,9.61,0,5.31,4.29,9.61,9.59,9.61,5.3,0,9.59-4.3,9.59-9.61,0-5.31-4.29-9.61-9.59-9.61Z"/><path class="cls-17" d="m238.42,13.98c0-2.59,1.62-4.81,3.9-5.69v11.37c-2.28-.88-3.9-3.09-3.9-5.68h0Zm8.25,5.69v-11.37c2.28.88,3.9,3.09,3.91,5.69,0,2.6-1.62,4.81-3.91,5.69h0Z"/></g><g class="cls-23"><path class="cls-15" d="m271.61,3.5c0-1.93,1.57-3.5,3.5-3.5h35c1.93,0,3.5,1.57,3.5,3.5v21c0,1.93-1.57,3.5-3.5,3.5h-35c-1.93,0-3.5-1.57-3.5-3.5V3.5Z"/><path class="cls-8" d="m310.11,16.89v.03c0,.55-.46,1-1.01,1-.55,0-1-.46-1-1.01,0-.56.46-1,1.01-1h0c.55,0,.99.44.99.98Z"/><path class="cls-8" d="m304.45,16.51c-.76.05-1.43-.52-1.48-1.29-.05-.77.52-1.43,1.29-1.48.03,0,.06,0,.09,0,.76-.05,1.43.52,1.48,1.29.05.77-.52,1.43-1.29,1.48-.03,0-.06,0-.09,0Zm1.39-4.06v.35c-1.29-.87-3.04-.54-3.91.75s-.54,3.04.75,3.91c.95.65,2.21.65,3.16,0v.35h1.59v-5.36h-1.59Z"/><path class="cls-8" d="m300.9,14.39v3.39h-1.59v-2.82c0-.78-.4-1.2-1.09-1.2-.05,0-.11,0-.17,0-.62.06-1.07.6-1.03,1.22v2.81h-1.6v-5.36h1.58v.61c.39-.5,1-.78,1.64-.75.05,0,.1,0,.15,0,1.16,0,2.11.94,2.11,2.1Z"/><path class="cls-8" d="m294.69,12.45v1.55h-.02c-.63,0-1.53.46-1.53,1.3v2.51h-1.63v-5.35h1.62v.7c.39-.46.96-.71,1.56-.7Z"/><path class="cls-8" d="m287.69,16.5c-.77,0-1.39-.62-1.39-1.38,0-.77.62-1.39,1.38-1.4.77,0,1.39.62,1.39,1.38h0c-.02.76-.63,1.37-1.38,1.4Zm1.39-4.07v.35c-.46-.32-1.01-.49-1.57-.5-1.56.03-2.8,1.31-2.77,2.87.03,1.52,1.25,2.75,2.77,2.77.56,0,1.11-.17,1.57-.49v.35h1.59v-5.36h-1.59Z"/><path class="cls-8" d="m284.08,10.06h-1.66v7.74h1.66v-7.74Z"/><path class="cls-8" d="m276.87,10.06h-1.76v7.74h1.76v-7.74Z"/><path class="cls-8" d="m281.89,17.8h-2.18l-2.64-3.64.68-.51c1.12-.85,1.78-2.18,1.77-3.59h1.72c0,1.64-.64,3.22-1.79,4.39l2.43,3.35Z"/></g><g class="cls-22"><path class="cls-15" d="m317.11,3.5c0-1.93,1.57-3.5,3.5-3.5h35c1.93,0,3.5,1.57,3.5,3.5v21c0,1.93-1.57,3.5-3.5,3.5h-35c-1.93,0-3.5-1.57-3.5-3.5V3.5Z"/><path class="cls-13" d="m342.12,13.98c0-.75-.28-1.51-.85-2.07-.57-.57-1.32-.85-2.08-.85,0,0,0,0-.01,0-1.64,0-2.93,1.3-2.93,2.94s1.32,2.94,2.93,2.94,2.94-1.3,2.94-2.94v-.02Z"/><path class="cls-7" d="m335.7,15.24c-.44.44-.84.61-1.28.62-1.06,0-1.84-.8-1.84-1.92,0-.56.21-1.03.55-1.42.32-.3.73-.5,1.2-.5.51,0,.9.17,1.35.62v-1.3c-.45-.23-.85-.34-1.35-.34-.72.05-1.39.34-1.91.8-.15.13-.29.28-.41.45-.38.49-.61,1.09-.61,1.74,0,1.64,1.3,2.88,2.93,2.88,0,0,.02,0,.02,0,.01,0,.02,0,.03,0,.45,0,.85-.11,1.36-.34l-.04-1.3s.02.04,0,.05v-.05Z"/><path class="cls-7" d="m345.82,11.82l-1.28,3.14-1.47-3.73h-1.18l2.32,5.7h.62l2.43-5.7h-1.18l-.25.58Z"/><path class="cls-7" d="m347.71,13.72v3.05h3.1v-.9h-1.98v-1.52h1.92v-.96h-1.92v-1.19h1.98v-.96h-3.1v2.48Z"/><path class="cls-7" d="m322.19,11.23h-1.58v5.53h1.58c.85,0,1.47-.23,1.98-.62.62-.51,1.02-1.3,1.02-2.14,0-1.64-1.19-2.77-2.99-2.77Zm1.3,4.18c-.34.28-.79.45-1.47.45h-.34v-3.67h.28c.68,0,1.13.11,1.47.45.39.34.62.85.62,1.36.06.51-.17,1.07-.57,1.41Z"/><path class="cls-7" d="m326.76,11.23h-1.07v5.53h1.07v-5.53Z"/><path class="cls-7" d="m329.47,13.38c-.68-.23-.85-.4-.85-.68,0-.34.34-.62.79-.62.34,0,.62.11.9.45l.57-.73c-.45-.4-1.02-.62-1.64-.62-.96,0-1.75.68-1.75,1.58,0,.79.34,1.13,1.36,1.52.45.17.62.23.73.34.23.11.34.34.34.56,0,.45-.34.79-.85.79s-.96-.28-1.19-.73l-.68.68c.51.73,1.13,1.07,1.92,1.07,1.13,0,1.92-.73,1.92-1.81,0-.96-.34-1.35-1.58-1.81Z"/><path class="cls-7" d="m353.86,14.45c.85-.17,1.3-.73,1.3-1.58,0-1.02-.73-1.64-1.98-1.64h-1.64v5.53h1.07v-2.2h.17l1.52,2.2h1.3l-1.75-2.31Zm-.9-.68h-.34v-1.69h.34c.68,0,1.07.28,1.07.85s-.4.85-1.07.85Z"/></g></g></svg>