<svg width="61" height="24" viewBox="0 0 61 24" fill="none" xmlns="http://www.w3.org/2000/svg">
<path fill-rule="evenodd" clip-rule="evenodd" d="M55.1374 16.462C55.8923 16.462 56.2867 15.7521 56.4444 14.8507H60.5684C60.05 21.1268 51.374 21.1718 50.6191 16.2028V19.4366H44.636V16.1577C44.1176 19.3577 42.281 19.7972 41.481 19.7972C40.805 19.7972 39.1599 19.2451 38.5514 17.5549L38.6078 19.3916C38.6191 20.5296 39.3514 21.2507 40.1176 21.3521V24H33.143V21.3408C33.7289 21.3296 34.6641 20.7437 34.6754 19.4704V14.6592C34.4613 15.8648 33.5712 19.7746 29.2782 19.7746C25.0303 19.7746 24.0613 15.6507 23.881 15.0423C23.081 19.538 20.0951 19.7859 18.7881 19.7634C16.4331 19.7296 15.0134 18.107 14.9796 18.0732C13.5599 16.631 13.2895 14.4563 13.3458 12.1014C13.3458 11.6282 13.4698 10.7042 13.5148 10.2535C11.9937 11.8873 10.574 11.6845 8.89511 11.7521H7.48666V14.4451C7.48666 15.5268 7.88103 16.169 9.08666 16.1803V19.4141H0.793701V16.2479C1.99934 16.2366 2.41624 15.538 2.41624 14.4563V4.86761C2.41624 4.64225 2.3599 3.15493 0.804969 3.14366V0H9.75145C11.4416 0 12.636 0.51831 13.4472 1.1493C14.9345 2.32113 15.2388 4.3493 15.3627 5.83662C17.6388 3.85352 23.036 3.41408 23.9486 9.34084C24.9289 4.82253 28.2529 4.48451 29.0303 4.47324C30.4275 4.47324 32.8162 5.31831 33.5937 7.60563V4.78873H38.4951V6.60282C38.8557 5.23944 40.0613 4.49577 41.2895 4.48451C42.4726 4.47324 44.8951 5.79155 45.5148 10.7831V4.13521C45.5148 3.17746 44.9176 2.68169 43.9599 2.68169V0.0338032H49.6613V10.7944C50.1796 6.02817 52.8388 4.50704 55.081 4.50704C57.3571 4.50704 58.9683 5.76901 59.7909 7.39155C60.85 9.46479 60.7712 11.662 60.7148 13.0817H53.774C53.7514 13.3521 53.774 13.8141 53.7965 14.231C53.8303 15.4028 54.2134 16.4732 55.1374 16.462ZM18.9007 16.462C19.6557 16.462 20.05 15.7634 20.2078 14.862H23.8247C23.6444 13.9606 23.6219 13.769 23.5993 13.0704H17.5148C17.4923 13.3408 17.5148 13.8028 17.5374 14.2197C17.5937 15.4028 17.9768 16.4732 18.9007 16.462ZM27.7571 12.169C27.7571 14.5577 28.1853 16.4845 29.2669 16.4958C30.3712 16.507 30.7768 14.5577 30.7768 12.169C30.7768 9.78028 30.3486 7.85352 29.2669 7.84225C28.2191 7.81972 27.7571 9.78028 27.7571 12.169ZM18.8782 7.75211C17.9543 7.75211 17.5374 8.87887 17.481 10.062C17.4585 10.4676 17.4585 10.4789 17.481 10.7831H20.2191C20.2416 10.4789 20.2416 10.4676 20.2191 10.062C20.1627 8.87887 19.8022 7.75211 18.8782 7.75211ZM55.1148 7.84225C54.1909 7.84225 53.8078 8.87887 53.7402 10.062C53.7176 10.4676 53.7176 10.4789 53.7402 10.7831H56.4782C56.5007 10.4789 56.5007 10.4676 56.4782 10.062C56.4219 8.87887 56.0388 7.84225 55.1148 7.84225ZM38.7317 14.3437C38.7317 15.5493 39.0247 16.462 39.8698 16.462C40.8162 16.462 41.3796 15.1887 41.3796 12.1803C41.3796 8.87887 40.8726 7.75211 39.9824 7.71831C39.1261 7.68451 38.6867 8.40563 38.7317 9.91549V14.3437ZM7.48666 8.16901H8.64722C9.69511 8.13521 10.0669 7.50423 10.0669 5.89296C10.0669 4.42817 9.54863 3.67324 8.64722 3.67324H7.48666V8.16901Z" fill="white"/>
</svg>
