<svg width="106" height="41" viewBox="0 0 106 41" fill="none" xmlns="http://www.w3.org/2000/svg">
<g clip-path="url(#clip0_7087_2711)">
<path d="M103.377 33.8885C102.883 33.5604 101.128 32.8329 100.981 32.6542C100.476 32.0297 99.0856 28.8589 98.6439 27.8979C98.0612 26.6279 95.1688 19.8868 95.314 19.0415C95.3834 18.6357 95.7999 18.5032 95.7347 18.0848C94.645 18.581 95.009 17.1049 93.8436 17.454L94.0329 18.5768L93.7174 18.9048C91.5549 19.6807 89.5334 20.8267 87.3752 21.6068C86.2519 22.0126 83.4878 23.394 83.1155 21.6614C84.6279 21.2682 87.1059 19.5735 85.9742 17.8535C83.492 16.6928 80.6081 22.1955 83.3132 23.0366C86.2266 23.9407 91.5739 19.9057 94.4536 19.1487L100.152 32.1706C93.0316 30.2067 85.6271 30.1751 78.2731 30.2824C78.4456 26.1759 79.1061 22.0904 79.8129 18.0469C80.6186 13.4484 81.6388 7.67235 83.1597 3.30931C83.5593 2.16125 84.5922 1.33069 83.9506 0.00390625C82.4171 1.09099 82.3393 3.33874 81.6767 4.98303C80.0759 8.95708 73.8472 19.8531 70.5594 22.2565C70.0272 22.6455 68.5126 23.7326 68.3822 22.6097C68.3128 22.021 69.535 19.7207 68.6977 19.5588L63.7607 21.6614C63.6114 20.4608 66.5248 18.4128 67.4335 18.5011C67.9594 18.5516 68.0562 19.2076 68.5989 19.1361C67.728 15.6667 61.9769 20.6458 63.0098 22.0967C63.7691 23.1606 67.7322 20.3473 67.9657 20.6122C68.012 21.7729 67.0654 23.9912 69.068 23.7262C71.1673 23.4508 73.8956 19.8111 75.0799 18.1542L80.7974 8.4167C79.2513 15.6793 77.6505 23.024 77.6441 30.4947L68.7041 30.9153L51.7684 32.8035C55.519 29.5485 58.4766 25.7722 60.4287 21.1715C63.0813 14.9224 64.4907 4.4826 55.8156 2.57968C50.2181 1.35172 39.7171 5.69794 37.8723 11.4509C37.1613 13.6671 37.622 16.7012 40.1967 17.2437L38.76 15.6331C36.3662 11.8756 41.3369 7.73753 44.265 6.06381C57.1051 -1.27662 64.9997 6.09535 59.9238 19.8237C58.5607 23.5097 53.0747 32.2252 49.0927 33.1778C45.2011 34.1092 40.4807 33.9642 36.5155 34.9272C35.0073 34.9293 34.8411 32.8813 34.9968 31.7017C35.5521 27.4942 40.4366 22.5509 43.7749 20.1896C43.4236 23.0219 42.1888 25.9025 41.9111 28.7327C41.8775 29.0691 41.684 30.1415 42.092 30.2824L44.8204 19.4452C47.3804 17.6706 50.3422 16.4783 53.4554 16.1945C53.7478 15.9169 53.4344 15.7971 53.1357 15.7676C52.6435 15.7193 51.2677 15.9716 50.7103 16.0809C48.8066 16.4552 46.966 17.2038 45.2537 18.089C44.9592 17.7021 47.5192 9.94324 47.7211 8.67743C47.7864 8.27161 48.0346 7.3969 47.3593 7.57563L44.2966 18.499C42.1741 19.9814 40.0074 21.468 38.3057 23.4445C35.6699 26.506 33.335 31.1087 34.9463 35.1185L25.6907 36.3822C28.2696 27.4396 30.8275 18.4023 31.9698 9.12319C32.523 4.63189 34.0186 -3.98907 27.1589 2.21171C21.2879 7.51675 16.3383 15.816 12.0491 22.4415C11.9166 22.6455 11.5148 23.8524 11.3844 22.8242C11.3129 22.2649 11.3402 21.2956 11.376 20.7089C11.6179 16.8442 13.7509 7.52727 12.2406 4.30177C11.0079 1.67343 8.21437 6.00914 7.50968 7.17191C5.0317 11.2553 0.92136 23.9449 3.63704 28.0409C3.79691 28.2827 4.43429 28.9283 4.4385 28.2869C4.4385 28.1818 3.71908 27.1326 3.62653 26.3693C2.94498 20.8225 5.90467 9.59419 9.70999 5.37413C11.4896 3.39972 12.1564 4.20504 12.2385 6.62312C12.3352 9.50588 11.6726 13.7175 11.3844 16.718C11.2624 18.0028 10.2064 23.0933 11.05 23.783C11.8914 24.4727 12.3752 23.3646 12.819 22.7779C17.6278 16.451 21.086 9.21571 27.058 3.57845C27.7227 2.94975 30.4615 0.525369 31.3429 1.08047C31.4754 1.36854 31.5491 1.67974 31.5806 1.99724C31.9424 5.85774 30.5688 12.2688 29.8305 16.2302C28.5641 23.0429 26.7803 29.7441 25.0764 36.4516C17.4153 38.0328 9.57747 38.8276 1.87427 40.2217C1.43463 40.3016 0.898221 40.3899 0.483822 40.5245C0.132529 40.638 -0.0715158 40.432 0.0252475 41.0018L34.4225 35.7451C35.529 35.4571 35.8172 36.2729 36.6144 36.7039C39.5972 38.3125 43.7581 37.0908 46.6525 35.783C47.9715 35.1879 49.6564 33.798 50.8744 33.4847C54.6439 32.5175 61.6466 32.1243 65.7591 31.7521C69.0974 31.4494 72.4968 31.1991 75.8519 31.1192C76.4136 31.1066 77.0194 30.6461 77.5579 31.1003L78.17 32.1706L78.3951 30.9069C84.405 30.9426 90.4569 30.6188 96.3721 31.8489C97.2492 32.0318 100.102 32.7341 100.684 33.2156C101.137 33.5899 102.06 35.4802 102.588 36.1488C103.356 37.1203 104.412 38.487 105.802 38.2431C106.618 36.5378 104.685 34.7611 103.373 33.8927L103.377 33.8885ZM82.9051 21.2346C83.1681 19.8742 84.0305 18.1836 85.6376 18.2929C86.3108 19.3085 83.1807 21.5142 82.9051 21.2346ZM46.2339 34.7316C43.4068 35.9344 39.715 36.992 36.8374 35.4297L47.353 34.0672C47.2436 34.3742 46.5411 34.6034 46.2339 34.7337V34.7316ZM101.625 33.6446C103.263 34.3574 105.392 35.6421 105.409 37.6375C104.778 38.2915 101.824 34.2733 101.625 33.6446Z" fill="black"/>
</g>
<defs>
<clipPath id="clip0_7087_2711">
<rect width="106" height="41" fill="white"/>
</clipPath>
</defs>
</svg>
