<svg width="12" height="12" viewBox="0 0 12 12" fill="none" xmlns="http://www.w3.org/2000/svg">
<g clip-path="url(#clip0_661_27389)">
<path d="M11.6411 6.72754C11.8372 6.72754 11.9961 6.56859 11.9961 6.37255V1.1587C11.9961 0.962641 11.8371 0.803711 11.6411 0.803711H9.50237V6.72754H11.6411Z" fill="#E3E3ED"/>
<path d="M0.0057869 4.76748C0.0057869 5.21811 0.247921 5.61327 0.608906 5.82969C0.470601 6.0294 0.389483 6.27167 0.389483 6.53246C0.389483 7.2148 0.944624 7.76994 1.62696 7.76994H4.23926C4.1592 8.13276 4.0497 8.67719 3.97346 9.24712C3.77504 10.7303 3.91065 11.5528 4.40019 11.8357C4.70539 12.012 5.03445 12.0478 5.32677 11.9365C5.55259 11.8505 5.85756 11.639 6.03135 11.12L6.71793 9.32228C7.066 8.46266 8.13191 7.5602 8.79297 7.06119V0.646852C7.56779 0.217569 6.28932 -2.57492e-05 4.98502 -2.57492e-05H2.13863C1.45629 -2.57492e-05 0.901149 0.555117 0.901149 1.23745C0.901149 1.4764 0.969235 1.69976 1.08701 1.88911C0.674484 2.09002 0.389529 2.51363 0.389529 3.00247C0.389529 3.26328 0.470647 3.50551 0.608952 3.70524C0.24792 3.92166 0.0057869 4.31684 0.0057869 4.76748Z" fill="#E3E3ED"/>
</g>
<defs>
<clipPath id="clip0_661_27389">
<rect width="12" height="12" fill="white" transform="matrix(-1 0 0 -1 12 12)"/>
</clipPath>
</defs>
</svg>
