<svg width="12" height="12" viewBox="0 0 12 12" fill="none" xmlns="http://www.w3.org/2000/svg">
<g clip-path="url(#clip0_948_27307)">
<path d="M0.358891 5.27246C0.162836 5.27246 0.00390625 5.43141 0.00390625 5.62745V10.8413C0.00390625 11.0374 0.162859 11.1963 0.358891 11.1963H2.49763V5.27246H0.358891Z" fill="#53A179"/>
<path d="M11.9942 7.23252C11.9942 6.78189 11.7521 6.38673 11.3911 6.17031C11.5294 5.9706 11.6105 5.72833 11.6105 5.46754C11.6105 4.7852 11.0554 4.23006 10.373 4.23006H7.76074C7.8408 3.86724 7.9503 3.32281 8.02654 2.75288C8.22496 1.26973 8.08935 0.44719 7.59981 0.164322C7.29461 -0.0119984 6.96555 -0.0477641 6.67323 0.0635174C6.44741 0.149533 6.14244 0.36101 5.96865 0.880035L5.28207 2.67772C4.934 3.53734 3.86809 4.4398 3.20703 4.93881V11.3531C4.43221 11.7824 5.71068 12 7.01498 12H9.86137C10.5437 12 11.0989 11.4449 11.0989 10.7625C11.0989 10.5236 11.0308 10.3002 10.913 10.1109C11.3255 9.90998 11.6105 9.48637 11.6105 8.99753C11.6105 8.73672 11.5294 8.49449 11.391 8.29476C11.7521 8.07834 11.9942 7.68316 11.9942 7.23252Z" fill="#53A179"/>
</g>
<defs>
<clipPath id="clip0_948_27307">
<rect width="12" height="12" fill="white"/>
</clipPath>
</defs>
</svg>
