<svg width="36" height="36" viewBox="0 0 36 36" fill="none" xmlns="http://www.w3.org/2000/svg">
<g clip-path="url(#clip0_10845_85060)">
<path fill-rule="evenodd" clip-rule="evenodd" d="M31.6975 5.39753L25.094 0.13614C24.8258 -0.0768774 24.4355 -0.033678 24.2225 0.234456L23.1053 1.6362L30.6801 7.67071L31.7958 6.26897C32.0088 6.00083 31.9656 5.61055 31.6975 5.39753ZM9.68071 20.2834L8.92249 21.9474L14.0513 26.0334L15.5022 24.9222L9.68071 20.2834ZM8.85397 23.4787L6.8653 26.4759L10.0948 29.0499L12.5736 26.4431L8.85397 23.4787ZM27.2271 33.8406C22.1579 28.5256 19.0535 30.5202 14.2971 31.0282C13.0473 31.1608 10.5507 31.1816 9.23829 30.5724C8.97165 30.4487 8.74969 30.3236 8.69756 30.1076C8.66329 29.9601 8.70649 29.8022 8.81524 29.6175L8.65436 29.4894V29.4864H8.64989L6.42139 27.7093C5.71084 28.463 4.76641 29.6771 4.30164 30.9135C3.85773 32.0948 3.85028 33.288 4.64277 34.2205C5.10903 34.7687 5.87768 35.2424 7.0813 35.5284C12.4246 36.8005 15.9968 35.1277 17.8573 34.8848C21.6901 34.3814 20.9051 34.4678 26.7326 34.8878C26.9888 34.9057 27.2301 34.7657 27.3388 34.5333C27.4476 34.3009 27.4029 34.0253 27.2271 33.8406Z" fill="#2C0D4C"/>
<path fill-rule="evenodd" clip-rule="evenodd" d="M29.8846 8.62378L16.4049 24.0534L10.3257 19.2091L22.353 2.62354L29.8846 8.62378Z" fill="#2C0D4C"/>
</g>
<defs>
<clipPath id="clip0_10845_85060">
<rect width="36" height="36" fill="white" transform="translate(0 0.000976562)"/>
</clipPath>
</defs>
</svg>
