<svg width="41" height="40" viewBox="0 0 41 40" fill="none" xmlns="http://www.w3.org/2000/svg">
<g clip-path="url(#clip0_10845_84690)">
<path d="M38.5 18.001H38.16C36.054 18.001 34.244 16.663 33.446 14.713L33.404 14.615C32.588 12.661 32.906 10.421 34.404 8.92298L34.642 8.68498C34.8276 8.4993 34.975 8.27884 35.0754 8.03624C35.176 7.79362 35.2276 7.53358 35.2276 7.27098C35.2276 7.00838 35.176 6.74834 35.0754 6.50572C34.975 6.26312 34.8276 6.04266 34.642 5.85698C34.4564 5.6713 34.2358 5.524 33.9932 5.4235C33.7506 5.323 33.4906 5.27128 33.228 5.27128C32.9654 5.27128 32.7054 5.323 32.4628 5.4235C32.2202 5.524 31.9996 5.6713 31.814 5.85698L31.576 6.09498C30.078 7.59298 27.838 7.91098 25.884 7.09498L25.786 7.05298C23.838 6.25698 22.5 4.43698 22.5 2.33098V2.16898C22.5 0.894977 21.606 0.000976562 20.5 0.000976562C19.394 0.000976562 18.5 0.894977 18.5 2.00098V2.07298C18.5 4.26498 17.18 6.24098 15.154 7.07898L15.142 7.08498C14.1516 7.49492 13.0619 7.602 12.0106 7.39268C10.9594 7.18336 9.99382 6.66704 9.236 5.90898L9.186 5.85898C9.00032 5.6733 8.77986 5.526 8.53726 5.4255C8.29464 5.325 8.0346 5.27328 7.772 5.27328C7.5094 5.27328 7.24936 5.325 7.00674 5.4255C6.76414 5.526 6.54368 5.6733 6.358 5.85898C6.17232 6.04466 6.02502 6.26512 5.92452 6.50772C5.82402 6.75034 5.7723 7.01038 5.7723 7.27298C5.7723 7.53558 5.82402 7.79562 5.92452 8.03824C6.02502 8.28084 6.17232 8.5013 6.358 8.68698L6.43 8.75898C7.18136 9.51098 7.69308 10.4687 7.9006 11.5113C8.10812 12.5539 8.00214 13.6346 7.596 14.617L7.542 14.745C7.14268 15.7085 6.46674 16.532 5.5996 17.1116C4.73244 17.691 3.71298 18.0006 2.67 18.001C1.396 18.001 0.5 18.895 0.5 20.001C0.5 21.107 1.394 22.001 2.5 22.001H2.636C3.68914 22.0008 4.71868 22.313 5.59418 22.8984C6.46968 23.4836 7.15174 24.3158 7.554 25.289L7.596 25.387C8.00214 26.3694 8.10812 27.45 7.9006 28.4926C7.69308 29.5352 7.18136 30.493 6.43 31.245L6.358 31.317C5.98298 31.692 5.7723 32.2006 5.7723 32.731C5.7723 33.2614 5.98298 33.77 6.358 34.145C6.73302 34.52 7.24164 34.7306 7.772 34.7306C8.30236 34.7306 8.81098 34.52 9.186 34.145L9.258 34.073C10.0099 33.3214 10.9676 32.8096 12.0102 32.602C13.0529 32.3944 14.1336 32.5006 15.116 32.907L15.402 33.027C16.3193 33.4058 17.1034 34.0484 17.655 34.8734C18.2066 35.6984 18.5006 36.6686 18.5 37.661V37.831C18.5 39.107 19.394 40.001 20.5 40.001C21.606 40.001 22.5 39.105 22.5 38.001V37.661C22.5 35.631 23.722 33.801 25.6 33.025L26.104 32.817C27.0216 32.4364 28.0314 32.337 29.0056 32.531C29.9798 32.725 30.8744 33.204 31.576 33.907L31.814 34.145C31.9996 34.3306 32.2202 34.478 32.4628 34.5784C32.7054 34.679 32.9654 34.7306 33.228 34.7306C33.4906 34.7306 33.7506 34.679 33.9932 34.5784C34.2358 34.478 34.4564 34.3306 34.642 34.145C34.8276 33.9594 34.975 33.7388 35.0754 33.4962C35.176 33.2536 35.2276 32.9936 35.2276 32.731C35.2276 32.4684 35.176 32.2084 35.0754 31.9658C34.975 31.7232 34.8276 31.5026 34.642 31.317L34.404 31.079C32.906 29.581 32.588 27.341 33.404 25.387L33.446 25.289C34.244 23.339 36.064 22.001 38.17 22.001H38.33C39.606 22.001 40.5 21.107 40.5 20.001C40.5 18.895 39.606 18.001 38.5 18.001ZM12.5 22.001C11.9696 22.001 11.4609 21.7902 11.0858 21.4152C10.7107 21.0402 10.5 20.5314 10.5 20.001C10.5 19.4706 10.7107 18.9618 11.0858 18.5868C11.4609 18.2118 11.9696 18.001 12.5 18.001C13.0304 18.001 13.5391 18.2118 13.9142 18.5868C14.2893 18.9618 14.5 19.4706 14.5 20.001C14.5 20.5314 14.2893 21.0402 13.9142 21.4152C13.5391 21.7902 13.0304 22.001 12.5 22.001ZM22.5 29.001C21.9696 29.001 21.4608 28.7902 21.0858 28.4152C20.7108 28.0402 20.5 27.5314 20.5 27.001C20.5 26.4706 20.7108 25.9618 21.0858 25.5868C21.4608 25.2118 21.9696 25.001 22.5 25.001C23.0304 25.001 23.5392 25.2118 23.9142 25.5868C24.2892 25.9618 24.5 26.4706 24.5 27.001C24.5 27.5314 24.2892 28.0402 23.9142 28.4152C23.5392 28.7902 23.0304 29.001 22.5 29.001ZM24.5 20.001C23.9746 20.0008 23.4544 19.8972 22.969 19.696C22.4836 19.4948 22.0426 19.2 21.6712 18.8284C21.2998 18.4568 21.0052 18.0156 20.8042 17.5302C20.6032 17.0448 20.4998 16.5244 20.5 15.999C20.5002 15.4736 20.6038 14.9533 20.805 14.4679C21.0062 13.9826 21.301 13.5416 21.6726 13.1701C22.0442 12.7987 22.4854 12.5041 22.9708 12.3032C23.4562 12.1022 23.9766 11.9988 24.502 11.999C25.5632 11.9992 26.5806 12.421 27.3308 13.1716C28.081 13.9221 28.5022 14.9398 28.502 16.001C28.5018 17.0622 28.08 18.0796 27.3294 18.8298C26.579 19.58 25.5612 20.0012 24.5 20.001Z" fill="#400F98"/>
</g>
<defs>
<clipPath id="clip0_10845_84690">
<rect width="40" height="40" fill="white" transform="translate(0.5 0.000976562)"/>
</clipPath>
</defs>
</svg>
