<svg width="24" height="24" viewBox="0 0 24 24" fill="none" xmlns="http://www.w3.org/2000/svg">
<g clip-path="url(#clip0_10845_84684)">
<path d="M22.8 10.801H22.596C21.3324 10.801 20.2464 9.99818 19.7676 8.82818L19.7424 8.76938C19.2528 7.59698 19.4436 6.25298 20.3424 5.35418L20.4852 5.21138C20.5966 5.09997 20.685 4.96769 20.7452 4.82213C20.8056 4.67656 20.8366 4.52054 20.8366 4.36298C20.8366 4.20542 20.8056 4.04939 20.7452 3.90382C20.685 3.75826 20.5966 3.62598 20.4852 3.51458C20.3738 3.40317 20.2415 3.31479 20.0959 3.25449C19.9504 3.19419 19.7944 3.16316 19.6368 3.16316C19.4792 3.16316 19.3232 3.19419 19.1777 3.25449C19.0321 3.31479 18.8998 3.40317 18.7884 3.51458L18.6456 3.65738C17.7468 4.55618 16.4028 4.74698 15.2304 4.25738L15.1716 4.23218C14.0028 3.75458 13.2 2.66258 13.2 1.39898V1.30178C13.2 0.537377 12.6636 0.000976562 12 0.000976562C11.3364 0.000976562 10.8 0.537377 10.8 1.20098V1.24418C10.8 2.55938 10.008 3.74498 8.7924 4.24778L8.7852 4.25138C8.19096 4.49734 7.53714 4.56159 6.90638 4.436C6.27564 4.3104 5.69629 4.00061 5.2416 3.54578L5.2116 3.51578C5.10019 3.40437 4.96792 3.31599 4.82236 3.25569C4.67678 3.19539 4.52076 3.16436 4.3632 3.16436C4.20564 3.16436 4.04962 3.19539 3.90404 3.25569C3.75848 3.31599 3.62621 3.40437 3.5148 3.51578C3.40339 3.62718 3.31501 3.75946 3.25471 3.90502C3.19441 4.05059 3.16338 4.20662 3.16338 4.36418C3.16338 4.52174 3.19441 4.67776 3.25471 4.82333C3.31501 4.96889 3.40339 5.10117 3.5148 5.21258L3.558 5.25578C4.00882 5.70698 4.31585 6.28162 4.44036 6.90717C4.56487 7.53273 4.50128 8.18114 4.2576 8.77058L4.2252 8.84738C3.98561 9.42548 3.58004 9.91958 3.05976 10.2673C2.53946 10.615 1.92779 10.8007 1.302 10.801C0.5376 10.801 0 11.3374 0 12.001C0 12.6646 0.5364 13.201 1.2 13.201H1.2816C1.91348 13.2009 2.53121 13.3882 3.05651 13.7394C3.58181 14.0905 3.99104 14.5899 4.2324 15.1738L4.2576 15.2326C4.50128 15.822 4.56487 16.4704 4.44036 17.0959C4.31585 17.7215 4.00882 18.2962 3.558 18.7474L3.5148 18.7906C3.28979 19.0156 3.16338 19.3207 3.16338 19.639C3.16338 19.9572 3.28979 20.2624 3.5148 20.4874C3.73981 20.7124 4.04498 20.8387 4.3632 20.8387C4.68142 20.8387 4.98659 20.7124 5.2116 20.4874L5.2548 20.4442C5.70592 19.9932 6.28056 19.6861 6.90614 19.5616C7.53173 19.437 8.18018 19.5007 8.7696 19.7446L8.9412 19.8166C9.49157 20.0439 9.96204 20.4294 10.293 20.9244C10.624 21.4194 10.8004 22.0015 10.8 22.597V22.699C10.8 23.4646 11.3364 24.001 12 24.001C12.6636 24.001 13.2 23.4634 13.2 22.801V22.597C13.2 21.379 13.9332 20.281 15.06 19.8154L15.3624 19.6906C15.913 19.4622 16.5188 19.4026 17.1034 19.519C17.6879 19.6354 18.2246 19.9228 18.6456 20.3446L18.7884 20.4874C18.8998 20.5987 19.0321 20.6872 19.1777 20.7474C19.3232 20.8078 19.4792 20.8387 19.6368 20.8387C19.7944 20.8387 19.9504 20.8078 20.0959 20.7474C20.2415 20.6872 20.3738 20.5987 20.4852 20.4874C20.5966 20.376 20.685 20.2437 20.7452 20.0981C20.8056 19.9525 20.8366 19.7965 20.8366 19.639C20.8366 19.4814 20.8056 19.3254 20.7452 19.1799C20.685 19.0343 20.5966 18.9019 20.4852 18.7906L20.3424 18.6478C19.4436 17.749 19.2528 16.405 19.7424 15.2326L19.7676 15.1738C20.2464 14.0038 21.3384 13.201 22.602 13.201H22.698C23.4636 13.201 24 12.6646 24 12.001C24 11.3374 23.4636 10.801 22.8 10.801ZM7.2 13.201C6.88174 13.201 6.57652 13.0745 6.35147 12.8495C6.12643 12.6245 6 12.3192 6 12.001C6 11.6827 6.12643 11.3775 6.35147 11.1525C6.57652 10.9275 6.88174 10.801 7.2 10.801C7.51826 10.801 7.82348 10.9275 8.04853 11.1525C8.27357 11.3775 8.4 11.6827 8.4 12.001C8.4 12.3192 8.27357 12.6245 8.04853 12.8495C7.82348 13.0745 7.51826 13.201 7.2 13.201ZM13.2 17.401C12.8818 17.401 12.5765 17.2745 12.3515 17.0495C12.1265 16.8245 12 16.5192 12 16.201C12 15.8827 12.1265 15.5775 12.3515 15.3525C12.5765 15.1275 12.8818 15.001 13.2 15.001C13.5182 15.001 13.8235 15.1275 14.0485 15.3525C14.2735 15.5775 14.4 15.8827 14.4 16.201C14.4 16.5192 14.2735 16.8245 14.0485 17.0495C13.8235 17.2745 13.5182 17.401 13.2 17.401ZM14.4 12.001C14.0848 12.0009 13.7726 11.9387 13.4814 11.818C13.1902 11.6973 12.9256 11.5204 12.7027 11.2974C12.4799 11.0745 12.3031 10.8097 12.1825 10.5185C12.0619 10.2273 11.9999 9.91502 12 9.59978C12.0001 9.28452 12.0623 8.97238 12.183 8.68115C12.3037 8.38993 12.4806 8.12534 12.7036 7.90247C12.9265 7.67961 13.1912 7.50285 13.4825 7.38228C13.7737 7.26171 14.086 7.19969 14.4012 7.19978C15.0379 7.19993 15.6484 7.45301 16.0985 7.90332C16.5486 8.35364 16.8013 8.96429 16.8012 9.60098C16.8011 10.2377 16.548 10.8481 16.0976 11.2983C15.6474 11.7484 15.0367 12.0011 14.4 12.001Z" fill="#2C0D4C"/>
</g>
<defs>
<clipPath id="clip0_10845_84684">
<rect width="24" height="24" fill="white" transform="translate(0 0.000976562)"/>
</clipPath>
</defs>
</svg>
