<svg width="56" height="56" viewBox="0 0 56 56" fill="none" xmlns="http://www.w3.org/2000/svg">
<rect y="0.000976562" width="56" height="56" rx="28" fill="#2C0D4C"/>
<path d="M42.2531 31.2666H13.7469L12 40.6416H15.6063L16.7681 34.8329L18.6069 35.2004L17.5188 40.6416H21.2312L22.3931 34.8329L24.2319 35.2004L23.1438 40.6416H27.0625V35.0166H28.9375V40.6416H32.8563L31.7681 35.2004L33.6069 34.8329L34.7687 40.6416H38.4813L37.3931 35.2004L39.2319 34.8329L40.3937 40.6416H44L42.2531 31.2666Z" fill="white"/>
<path d="M42.0625 26.5791V29.3916H14.0325C14.4675 27.2547 16.3619 25.6416 18.625 25.6416H36.3431C35.9075 23.5047 34.0138 21.8916 31.75 21.8916H23.3125C20.7281 21.8916 18.625 19.7885 18.625 17.2041V16.2666H31.75C37.4363 16.2666 42.0625 20.8929 42.0625 26.5791Z" fill="white"/>
</svg>
