<svg width="85" height="85" viewBox="0 0 85 85" fill="none" xmlns="http://www.w3.org/2000/svg">
<path d="M0 42.501C0 19.0289 19.0279 0.000976562 42.5 0.000976562C65.9721 0.000976562 85 19.0289 85 42.501C85 65.9731 65.9721 85.001 42.5 85.001C19.0279 85.001 0 65.9731 0 42.501Z" fill="#2C0D4C"/>
<g clip-path="url(#clip0_10714_23492)">
<path d="M28.2786 46.4081H33.0441C33.4559 46.4081 33.7894 46.0728 33.7894 45.6587C33.7894 45.2446 33.4559 44.9092 33.0441 44.9092H28.7088L26.1734 40.4909L28.7088 36.0717H33.7796L35.47 39.0173C35.6757 39.3757 36.1314 39.4986 36.4879 39.2918C36.8444 39.0849 36.9666 38.6267 36.7609 38.2682L34.8546 34.9471C34.7213 34.7159 34.4755 34.5732 34.2093 34.5732H28.2778C28.0116 34.5732 27.7654 34.7163 27.6321 34.948L24.6666 40.1166C24.5337 40.3483 24.5337 40.6339 24.6666 40.8656L27.6321 46.0334C27.765 46.2655 28.0112 46.4081 28.2778 46.4081H28.2786Z" fill="white"/>
<path d="M28.2599 36.0617C28.3826 36.0617 28.5069 36.0313 28.6219 35.967C28.9814 35.7658 29.1109 35.3092 28.9103 34.9478L27.2906 32.0241C27.0904 31.6626 26.6364 31.5324 26.2769 31.7341C25.9174 31.9354 25.788 32.3919 25.9886 32.7534L27.6083 35.6771C27.7446 35.9234 27.9984 36.0621 28.2599 36.0621V36.0617Z" fill="white"/>
<path d="M34.2262 36.0619C34.4877 36.0619 34.7415 35.9232 34.8778 35.6769L36.4979 32.7532C36.6981 32.3918 36.5691 31.9352 36.2096 31.7339C35.8502 31.5327 35.3961 31.6624 35.196 32.0239L33.5758 34.9476C33.3757 35.309 33.5047 35.7656 33.8642 35.9668C33.9792 36.0311 34.1035 36.0619 34.2262 36.0619Z" fill="white"/>
<path d="M21.9669 41.2294H25.2936C25.7054 41.2294 26.0389 40.894 26.0389 40.4799C26.0389 40.0658 25.7054 39.7305 25.2936 39.7305H21.9669C21.555 39.7305 21.2215 40.0658 21.2215 40.4799C21.2215 40.894 21.555 41.2294 21.9669 41.2294Z" fill="white"/>
<path d="M26.6386 49.3319C26.9001 49.3319 27.154 49.1932 27.2903 48.9469L28.91 46.0232C29.1101 45.6618 28.9811 45.2052 28.6216 45.004C28.2622 44.8027 27.8082 44.9325 27.608 45.2939L25.9883 48.2176C25.7881 48.5791 25.9172 49.0356 26.2766 49.2369C26.3916 49.3011 26.516 49.3315 26.6386 49.3315V49.3319Z" fill="white"/>
<path d="M26.0992 51.425C27.1226 51.425 27.9553 50.5877 27.9553 49.5582C27.9553 48.5287 27.1226 47.6914 26.0992 47.6914C25.0757 47.6914 24.2431 48.5291 24.2431 49.5582C24.2431 50.5873 25.0757 51.425 26.0992 51.425ZM26.0992 49.1903C26.3006 49.1903 26.4646 49.3552 26.4646 49.5582C26.4646 49.7612 26.3006 49.9261 26.0992 49.9261C25.8977 49.9261 25.7338 49.7612 25.7338 49.5582C25.7338 49.3552 25.8977 49.1903 26.0992 49.1903Z" fill="white"/>
<path d="M20.8562 42.3468C21.8797 42.3468 22.7123 41.5092 22.7123 40.4801C22.7123 39.451 21.8797 38.6133 20.8562 38.6133C19.8328 38.6133 19.0001 39.451 19.0001 40.4801C19.0001 41.5092 19.8328 42.3468 20.8562 42.3468ZM20.8562 40.1122C21.0577 40.1122 21.2217 40.2771 21.2217 40.4801C21.2217 40.683 21.0577 40.8479 20.8562 40.8479C20.6548 40.8479 20.4908 40.683 20.4908 40.4801C20.4908 40.2771 20.6548 40.1122 20.8562 40.1122Z" fill="white"/>
<path d="M26.0992 33.2794C27.1226 33.2794 27.9553 32.4418 27.9553 31.4127C27.9553 30.3836 27.1226 29.5459 26.0992 29.5459C25.0757 29.5459 24.2431 30.3836 24.2431 31.4127C24.2431 32.4418 25.0757 33.2794 26.0992 33.2794ZM26.0992 31.0448C26.3006 31.0448 26.4646 31.2097 26.4646 31.4127C26.4646 31.6157 26.3006 31.7805 26.0992 31.7805C25.8977 31.7805 25.7338 31.6157 25.7338 31.4127C25.7338 31.2097 25.8977 31.0448 26.0992 31.0448Z" fill="white"/>
<path d="M36.3876 33.2794C37.4111 33.2794 38.2437 32.4418 38.2437 31.4127C38.2437 30.3836 37.4111 29.5459 36.3876 29.5459C35.3642 29.5459 34.5315 30.3836 34.5315 31.4127C34.5315 32.4418 35.3642 33.2794 36.3876 33.2794ZM36.3876 31.0448C36.5891 31.0448 36.753 31.2097 36.753 31.4127C36.753 31.6157 36.5891 31.7805 36.3876 31.7805C36.1862 31.7805 36.0222 31.6157 36.0222 31.4127C36.0222 31.2097 36.1862 31.0448 36.3876 31.0448Z" fill="white"/>
<path d="M33.353 65.9998H57.253C58.1767 65.9998 59.017 65.5716 59.5579 64.8251C60.1031 64.0731 60.25 63.1249 59.9617 62.2239L50.7188 33.3285V25.291C50.7188 24.8768 50.3853 24.5415 49.9734 24.5415C49.5616 24.5415 49.2281 24.8768 49.2281 25.291V33.4463C49.2281 33.5242 49.24 33.6017 49.2639 33.6758L58.543 62.683C58.6836 63.1228 58.6146 63.5819 58.3535 63.9425C58.0962 64.2975 57.695 64.5014 57.253 64.5014H33.353C32.9109 64.5014 32.5102 64.2979 32.2525 63.9425C31.9914 63.5823 31.9224 63.1232 32.063 62.6834L41.3421 33.6762C41.366 33.6021 41.3779 33.5246 41.3779 33.4467V25.291C41.3779 24.8768 41.0444 24.5415 40.6325 24.5415C40.2207 24.5415 39.8872 24.8768 39.8872 25.291V33.3285L30.6443 62.2239C30.356 63.1249 30.5033 64.0731 31.048 64.8251C31.5894 65.5716 32.4292 65.9998 33.353 65.9998Z" fill="white"/>
<path d="M39.7562 26.0401H50.8492C52.5055 26.0401 53.8531 24.6851 53.8531 23.0196C53.8531 21.3541 52.5055 19.9995 50.8492 19.9995H39.7557C38.0994 19.9995 36.7519 21.3545 36.7519 23.02C36.7519 24.6855 38.0994 26.0405 39.7557 26.0405L39.7562 26.0401ZM50.8492 21.4984C51.6836 21.4984 52.3624 22.1811 52.3624 23.02C52.3624 23.859 51.6836 24.5416 50.8492 24.5416H39.7557C38.9214 24.5416 38.2425 23.859 38.2425 23.02C38.2425 22.1811 38.9214 21.4984 39.7557 21.4984H50.8492Z" fill="white"/>
<path d="M38.7301 40.141H43.9657C44.3775 40.141 44.711 39.8057 44.711 39.3915C44.711 38.9774 44.3775 38.6421 43.9657 38.6421H38.7301C38.3182 38.6421 37.9847 38.9774 37.9847 39.3915C37.9847 39.8057 38.3182 40.141 38.7301 40.141Z" fill="white"/>
<path d="M36.8498 46.0199H43.9666C44.3785 46.0199 44.712 45.6846 44.712 45.2704C44.712 44.8563 44.3785 44.521 43.9666 44.521H36.8498C36.438 44.521 36.1045 44.8563 36.1045 45.2704C36.1045 45.6846 36.438 46.0199 36.8498 46.0199Z" fill="white"/>
<path d="M34.969 51.8993H43.9662C44.378 51.8993 44.7115 51.564 44.7115 51.1498C44.7115 50.7357 44.378 50.4004 43.9662 50.4004H34.969C34.5571 50.4004 34.2237 50.7357 34.2237 51.1498C34.2237 51.564 34.5571 51.8993 34.969 51.8993Z" fill="white"/>
<path d="M33.0886 57.7782H43.9662C44.378 57.7782 44.7115 57.4429 44.7115 57.0287C44.7115 56.6146 44.378 56.2793 43.9662 56.2793H33.0886C32.6768 56.2793 32.3433 56.6146 32.3433 57.0287C32.3433 57.4429 32.6768 57.7782 33.0886 57.7782Z" fill="white"/>
</g>
<defs>
<clipPath id="clip0_10714_23492">
<rect width="41.1064" height="46" fill="white" transform="matrix(-1 0 0 1 60.1064 20)"/>
</clipPath>
</defs>
</svg>
