<svg width="48" height="48" viewBox="0 0 48 48" fill="none" xmlns="http://www.w3.org/2000/svg">
<g clip-path="url(#clip0_10845_84693)">
<path d="M9.25552 27.2598H13.8588C14.2566 27.2598 14.5787 26.939 14.5787 26.5429C14.5787 26.1468 14.2566 25.8261 13.8588 25.8261H9.67104L7.22194 21.5998L9.67104 17.3728H14.5692L16.2021 20.1903C16.4008 20.5331 16.841 20.6507 17.1854 20.4528C17.5297 20.255 17.6478 19.8167 17.4491 19.4738L15.6076 16.2971C15.4789 16.0759 15.2415 15.9395 14.9844 15.9395H9.2547C8.99757 15.9395 8.75978 16.0763 8.63101 16.2979L5.76638 21.2418C5.63802 21.4634 5.63802 21.7366 5.76638 21.9583L8.63101 26.9014C8.75937 27.1234 8.99716 27.2598 9.2547 27.2598H9.25552Z" fill="#2C0D4C"/>
<path d="M9.23743 17.3631C9.35592 17.3631 9.47605 17.334 9.58713 17.2725C9.93436 17.08 10.0594 16.6433 9.86565 16.2976L8.30107 13.501C8.10771 13.1553 7.66915 13.0307 7.32192 13.2237C6.9747 13.4162 6.84963 13.8529 7.0434 14.1986L8.60798 16.9952C8.73963 17.2307 8.98483 17.3635 9.23743 17.3635V17.3631Z" fill="#2C0D4C"/>
<path d="M15.0006 17.3633C15.2533 17.3633 15.4984 17.2306 15.6301 16.995L17.1951 14.1984C17.3884 13.8527 17.2638 13.416 16.9166 13.2235C16.5693 13.031 16.1308 13.1551 15.9374 13.5008L14.3724 16.2974C14.1791 16.6431 14.3037 17.0798 14.651 17.2723C14.762 17.3338 14.8822 17.3633 15.0006 17.3633Z" fill="#2C0D4C"/>
<path d="M3.15858 22.3068H6.37208C6.76991 22.3068 7.09204 21.986 7.09204 21.5899C7.09204 21.1938 6.76991 20.873 6.37208 20.873H3.15858C2.76075 20.873 2.43862 21.1938 2.43862 21.5899C2.43862 21.986 2.76075 22.3068 3.15858 22.3068Z" fill="#2C0D4C"/>
<path d="M7.67134 30.0566C7.92395 30.0566 8.16915 29.9239 8.3008 29.6884L9.86538 26.8918C10.0587 26.546 9.93408 26.1094 9.58685 25.9168C9.23963 25.7243 8.80107 25.8484 8.60771 26.1942L7.04313 28.9908C6.84977 29.3365 6.97442 29.7732 7.32165 29.9657C7.43273 30.0271 7.55286 30.0562 7.67134 30.0562V30.0566Z" fill="#2C0D4C"/>
<path d="M7.15025 32.0585C8.13886 32.0585 8.94316 31.2577 8.94316 30.2729C8.94316 29.2881 8.13886 28.4873 7.15025 28.4873C6.16164 28.4873 5.35734 29.2886 5.35734 30.2729C5.35734 31.2573 6.16164 32.0585 7.15025 32.0585ZM7.15025 29.921C7.34485 29.921 7.50324 30.0787 7.50324 30.2729C7.50324 30.4671 7.34485 30.6248 7.15025 30.6248C6.95566 30.6248 6.79727 30.4671 6.79727 30.2729C6.79727 30.0787 6.95566 29.921 7.15025 29.921Z" fill="#2C0D4C"/>
<path d="M2.08574 23.3749C3.07435 23.3749 3.87865 22.5737 3.87865 21.5893C3.87865 20.605 3.07435 19.8037 2.08574 19.8037C1.09713 19.8037 0.292829 20.605 0.292829 21.5893C0.292829 22.5737 1.09713 23.3749 2.08574 23.3749ZM2.08574 21.2374C2.28033 21.2374 2.43872 21.3952 2.43872 21.5893C2.43872 21.7835 2.28033 21.9412 2.08574 21.9412C1.89114 21.9412 1.73275 21.7835 1.73275 21.5893C1.73275 21.3952 1.89114 21.2374 2.08574 21.2374Z" fill="#2C0D4C"/>
<path d="M7.15025 14.7021C8.13886 14.7021 8.94316 13.9008 8.94316 12.9165C8.94316 11.9321 8.13886 11.1309 7.15025 11.1309C6.16164 11.1309 5.35734 11.9321 5.35734 12.9165C5.35734 13.9008 6.16164 14.7021 7.15025 14.7021ZM7.15025 12.5646C7.34485 12.5646 7.50324 12.7223 7.50324 12.9165C7.50324 13.1106 7.34485 13.2683 7.15025 13.2683C6.95566 13.2683 6.79727 13.1106 6.79727 12.9165C6.79727 12.7223 6.95566 12.5646 7.15025 12.5646Z" fill="#2C0D4C"/>
<path d="M17.0885 14.7021C18.0771 14.7021 18.8814 13.9008 18.8814 12.9165C18.8814 11.9321 18.0771 11.1309 17.0885 11.1309C16.0999 11.1309 15.2956 11.9321 15.2956 12.9165C15.2956 13.9008 16.0999 14.7021 17.0885 14.7021ZM17.0885 12.5646C17.2831 12.5646 17.4415 12.7223 17.4415 12.9165C17.4415 13.1106 17.2831 13.2683 17.0885 13.2683C16.8939 13.2683 16.7355 13.1106 16.7355 12.9165C16.7355 12.7223 16.8939 12.5646 17.0885 12.5646Z" fill="#2C0D4C"/>
<path d="M14.1572 45.9995H37.2437C38.136 45.9995 38.9477 45.5899 39.4702 44.8759C39.9968 44.1566 40.1388 43.2496 39.8602 42.3878L30.9319 14.7487V7.06062C30.9319 6.6645 30.6098 6.34375 30.2119 6.34375C29.8141 6.34375 29.492 6.6645 29.492 7.06062V14.8613C29.492 14.9359 29.5035 15.01 29.5265 15.0809L38.4898 42.8269C38.6256 43.2476 38.559 43.6867 38.3068 44.0316C38.0583 44.3712 37.6707 44.5662 37.2437 44.5662H14.1572C13.7302 44.5662 13.343 44.3716 13.0941 44.0316C12.8419 43.6871 12.7753 43.248 12.911 42.8273L21.8744 15.0813C21.8974 15.0105 21.9089 14.9363 21.9089 14.8618V7.06062C21.9089 6.6645 21.5868 6.34375 21.189 6.34375C20.7911 6.34375 20.469 6.6645 20.469 7.06062V14.7487L11.5406 42.3878C11.2621 43.2496 11.4045 44.1566 11.9307 44.8759C12.4536 45.5899 13.2649 45.9995 14.1572 45.9995Z" fill="#2C0D4C"/>
<path d="M20.3424 7.77794H31.0579C32.6579 7.77794 33.9595 6.48185 33.9595 4.88876C33.9595 3.29568 32.6579 2 31.0579 2H20.342C18.742 2 17.4403 3.29609 17.4403 4.88917C17.4403 6.48226 18.742 7.77835 20.342 7.77835L20.3424 7.77794ZM31.0579 3.43373C31.8638 3.43373 32.5196 4.08669 32.5196 4.88917C32.5196 5.69165 31.8638 6.34462 31.0579 6.34462H20.342C19.536 6.34462 18.8803 5.69165 18.8803 4.88917C18.8803 4.08669 19.536 3.43373 20.342 3.43373H31.0579Z" fill="#2C0D4C"/>
<path d="M19.3512 21.2658H24.4087C24.8065 21.2658 25.1286 20.945 25.1286 20.5489C25.1286 20.1528 24.8065 19.832 24.4087 19.832H19.3512C18.9534 19.832 18.6313 20.1528 18.6313 20.5489C18.6313 20.945 18.9534 21.2658 19.3512 21.2658Z" fill="#2C0D4C"/>
<path d="M17.535 26.8888H24.4096C24.8074 26.8888 25.1295 26.5681 25.1295 26.1719C25.1295 25.7758 24.8074 25.4551 24.4096 25.4551H17.535C17.1372 25.4551 16.815 25.7758 16.815 26.1719C16.815 26.5681 17.1372 26.8888 17.535 26.8888Z" fill="#2C0D4C"/>
<path d="M15.7182 32.5119H24.4091C24.807 32.5119 25.1291 32.1911 25.1291 31.795C25.1291 31.3989 24.807 31.0781 24.4091 31.0781H15.7182C15.3203 31.0781 14.9982 31.3989 14.9982 31.795C14.9982 32.1911 15.3203 32.5119 15.7182 32.5119Z" fill="#2C0D4C"/>
<path d="M13.9018 38.1359H24.4091C24.807 38.1359 25.1291 37.8151 25.1291 37.419C25.1291 37.0229 24.807 36.7021 24.4091 36.7021H13.9018C13.504 36.7021 13.1818 37.0229 13.1818 37.419C13.1818 37.8151 13.504 38.1359 13.9018 38.1359Z" fill="#2C0D4C"/>
</g>
<defs>
<clipPath id="clip0_10845_84693">
<rect width="39.7073" height="44" fill="white" transform="matrix(-1 0 0 1 40 2)"/>
</clipPath>
</defs>
</svg>
