<svg width="52" height="52" viewBox="0 0 52 52" fill="none" xmlns="http://www.w3.org/2000/svg">
<rect y="0.000976562" width="52" height="52" rx="26" fill="#2C0D4C"/>
<g clip-path="url(#clip0_10714_23445)">
<path d="M18.385 23.5075C18.1895 23.529 18.025 23.663 17.964 23.85C17.9035 24.037 17.9575 24.242 18.103 24.3745L22 27.919L20.9305 33.077C20.891 33.2695 20.967 33.4675 21.1265 33.583C21.214 33.646 21.317 33.6785 21.4205 33.6785C21.506 33.6785 21.5915 33.657 21.6685 33.613L26.2435 31.002L30.818 33.613C30.989 33.7105 31.201 33.6985 31.36 33.583C31.519 33.4675 31.5955 33.2695 31.556 33.077L30.4865 27.919L34.3835 24.3745C34.529 24.242 34.583 24.037 34.5225 23.85C34.4615 23.663 34.297 23.529 34.1015 23.5075L28.8655 22.9305L26.6985 18.129C26.618 17.95 26.4395 17.8345 26.243 17.8345C26.0465 17.8345 25.868 17.9495 25.7875 18.129L23.6205 22.9305L18.384 23.5075H18.385ZM24.4155 23.6015L26.244 19.55L28.0725 23.6015C28.1455 23.763 28.2975 23.8735 28.4735 23.893L32.892 24.38L29.6035 27.371C29.4725 27.49 29.4145 27.669 29.45 27.8425L30.3525 32.195L26.492 29.992C26.3375 29.9045 26.15 29.9045 25.996 29.992L22.135 32.195L23.0375 27.8425C23.073 27.669 23.015 27.49 22.884 27.371L19.596 24.38L24.0145 23.893C24.1905 23.8735 24.3425 23.763 24.4155 23.6015Z" fill="white"/>
<path d="M26.2435 15.416C26.52 15.416 26.7435 15.192 26.7435 14.916V11.5C26.7435 11.224 26.52 11 26.2435 11C25.967 11 25.7435 11.224 25.7435 11.5V14.916C25.7435 15.192 25.967 15.416 26.2435 15.416Z" fill="white"/>
<path d="M36.779 15.5656C36.5835 15.3701 36.2675 15.3701 36.072 15.5656L33.6565 17.9811C33.461 18.1766 33.461 18.4926 33.6565 18.6881C33.754 18.7856 33.882 18.8346 34.01 18.8346C34.138 18.8346 34.266 18.7856 34.3635 18.6881L36.779 16.2726C36.9745 16.0771 36.9745 15.7611 36.779 15.5656Z" fill="white"/>
<path d="M40.5 25.7437H37.084C36.8075 25.7437 36.584 25.9677 36.584 26.2437C36.584 26.5197 36.8075 26.7437 37.084 26.7437H40.5C40.7765 26.7437 41 26.5197 41 26.2437C41 25.9677 40.7765 25.7437 40.5 25.7437Z" fill="white"/>
<path d="M34.019 33.6559C33.8235 33.4604 33.5075 33.4604 33.312 33.6559C33.1165 33.8514 33.1165 34.1674 33.312 34.3629L35.7275 36.7784C35.825 36.8759 35.953 36.9249 36.081 36.9249C36.209 36.9249 36.337 36.8759 36.4345 36.7784C36.63 36.5829 36.63 36.2669 36.4345 36.0714L34.019 33.6559Z" fill="white"/>
<path d="M26.2565 40.5V37.084C26.2565 36.808 26.033 36.584 25.7565 36.584C25.48 36.584 25.2565 36.808 25.2565 37.084V40.5C25.2565 40.776 25.48 41 25.7565 41C26.033 41 26.2565 40.776 26.2565 40.5Z" fill="white"/>
<path d="M15.221 36.4347C15.3185 36.5322 15.4465 36.5812 15.5745 36.5812C15.7025 36.5812 15.8305 36.5322 15.928 36.4347L18.3435 34.0192C18.539 33.8237 18.539 33.5077 18.3435 33.3122C18.148 33.1167 17.832 33.1167 17.6365 33.3122L15.221 35.7277C15.0255 35.9232 15.0255 36.2392 15.221 36.4347Z" fill="white"/>
<path d="M11.5 26.2568H14.916C15.1925 26.2568 15.416 26.0328 15.416 25.7568C15.416 25.4808 15.1925 25.2568 14.916 25.2568H11.5C11.2235 25.2568 11 25.4808 11 25.7568C11 26.0328 11.2235 26.2568 11.5 26.2568Z" fill="white"/>
<path d="M18.3345 18.4903C18.4625 18.4903 18.5905 18.4413 18.688 18.3438C18.8835 18.1483 18.8835 17.8323 18.688 17.6368L16.2725 15.2213C16.077 15.0258 15.761 15.0258 15.5655 15.2213C15.37 15.4168 15.37 15.7328 15.5655 15.9283L17.981 18.3438C18.0785 18.4413 18.2065 18.4903 18.3345 18.4903Z" fill="white"/>
</g>
<defs>
<clipPath id="clip0_10714_23445">
<rect width="30" height="30" fill="white" transform="translate(11 11)"/>
</clipPath>
</defs>
</svg>
