<svg width="52" height="52" viewBox="0 0 52 52" fill="none" xmlns="http://www.w3.org/2000/svg">
<rect y="0.000976562" width="52" height="52" rx="26" fill="#2C0D4C"/>
<path d="M38.2178 14.8907L25.8699 11.0223C25.8293 11.0076 25.7861 11 25.7424 11H25.7411C25.6969 11 25.6541 11.0076 25.6136 11.0223L13.2657 14.8907C13.1074 14.9402 13 15.0868 13 15.2522V25.6547C13 29.2766 14.2704 32.8094 16.5773 35.6021C18.8842 38.3949 22.1134 40.3095 25.6702 40.9933C25.6938 40.9978 25.7179 41 25.7415 41C25.7651 41 25.7892 40.9978 25.8128 40.9933C29.3696 40.3095 32.5993 38.3945 34.9057 35.6021C37.2125 32.8094 38.483 29.2766 38.483 25.6547V15.2522C38.483 15.0864 38.3756 14.9402 38.2173 14.8907H38.2178ZM37.7256 25.6547C37.7256 29.101 36.5167 32.4626 34.3222 35.1198C32.1428 37.7583 29.0977 39.5731 25.7419 40.2355C22.3857 39.5726 19.3411 37.7579 17.1617 35.1198C14.9667 32.4626 13.7583 29.1015 13.7583 25.6547V15.5308L25.7415 11.7761L37.7252 15.5304V25.6547H37.7256Z" fill="white"/>
<path d="M16.5943 17.3359C16.4361 17.3854 16.3286 17.5321 16.3286 17.6974V25.6549C16.3286 28.3866 17.2594 31.0782 18.9493 33.2339C20.6334 35.3821 23.013 36.9263 25.6502 37.5824C25.68 37.59 25.7108 37.5936 25.7415 37.5936C25.7723 37.5936 25.8031 37.59 25.8329 37.5824C27.3945 37.1942 28.8432 36.513 30.1391 35.5582C30.3076 35.4342 30.3437 35.1971 30.2193 35.0286C30.0954 34.8601 29.8583 34.824 29.6897 34.9484C28.4991 35.8252 27.1711 36.456 25.7415 36.8242C23.3041 36.1961 21.1064 34.7576 19.5458 32.7668C17.9597 30.7438 17.0864 28.2181 17.0864 25.6554V17.9765L25.742 15.2649L34.3975 17.9765V25.6554C34.3975 27.5285 33.9335 29.3936 33.0558 31.0479C32.9577 31.2329 33.0281 31.462 33.2127 31.56C33.3977 31.6581 33.6268 31.5877 33.7249 31.4031C34.6606 29.6397 35.1554 27.652 35.1554 25.6554V17.6979C35.1554 17.5321 35.0479 17.3858 34.8897 17.3364L25.8552 14.5062C25.7817 14.483 25.7023 14.483 25.6288 14.5062L16.5943 17.3364V17.3359Z" fill="white"/>
<path d="M29.0518 21.4543C28.9809 21.3834 28.8842 21.3433 28.7839 21.3433C28.6836 21.3433 28.5868 21.3834 28.516 21.4543L24.6618 25.3084L22.967 23.6136C22.8961 23.5427 22.7994 23.5026 22.6991 23.5026C22.5988 23.5026 22.502 23.5427 22.4312 23.6136L20.4141 25.6311C20.2661 25.7791 20.2661 26.019 20.4141 26.167L24.3943 30.1473C24.4652 30.2181 24.562 30.2583 24.6623 30.2583C24.7626 30.2583 24.8593 30.2181 24.9302 30.1473L31.0693 24.0081C31.2173 23.8601 31.2173 23.6203 31.0693 23.4723L29.0522 21.4552L29.0518 21.4543ZM24.6618 29.3431L21.2173 25.8991L22.6986 24.4178L24.3935 26.1126C24.4643 26.1835 24.5611 26.2236 24.6614 26.2236C24.7617 26.2236 24.8584 26.1835 24.9293 26.1126L28.7834 22.2584L30.2647 23.7397L24.6614 29.3431H24.6618Z" fill="white"/>
<path d="M32.087 33.121C32.0665 33.1072 32.0442 33.0956 32.0215 33.0858C31.9988 33.0764 31.9747 33.0693 31.9506 33.0644C31.8276 33.0394 31.6965 33.08 31.6087 33.1678C31.5383 33.2382 31.4977 33.3359 31.4977 33.4357C31.4977 33.4607 31.5004 33.4856 31.5053 33.5097C31.5098 33.5342 31.5173 33.5579 31.5267 33.5806C31.5361 33.6038 31.5481 33.6256 31.5615 33.6461C31.5753 33.6671 31.5913 33.6862 31.6087 33.7036C31.6261 33.7215 31.6453 33.7371 31.6662 33.7509C31.6867 33.7647 31.7086 33.7763 31.7318 33.7857C31.7545 33.795 31.7786 33.8026 31.8026 33.8075C31.8272 33.8124 31.8517 33.8146 31.8766 33.8146C31.9016 33.8146 31.9261 33.8124 31.9506 33.8075C31.9747 33.8026 31.9988 33.795 32.0215 33.7857C32.0442 33.7763 32.0665 33.7647 32.087 33.7509C32.1075 33.7371 32.1272 33.7215 32.1445 33.7036C32.1619 33.6862 32.178 33.6671 32.1918 33.6461C32.2052 33.6256 32.2172 33.6038 32.2266 33.5806C32.2359 33.5579 32.2431 33.5342 32.248 33.5097C32.2529 33.4856 32.2555 33.4607 32.2555 33.4357C32.2555 33.3359 32.215 33.2382 32.1445 33.1678C32.1272 33.1504 32.1075 33.1348 32.087 33.121Z" fill="white"/>
</svg>
