<svg width="85" height="85" viewBox="0 0 85 85" fill="none" xmlns="http://www.w3.org/2000/svg">
<path d="M0 42.501C0 19.0289 19.0279 0.000976562 42.5 0.000976562C65.9721 0.000976562 85 19.0289 85 42.501C85 65.9731 65.9721 85.001 42.5 85.001C19.0279 85.001 0 65.9731 0 42.501Z" fill="#2C0D4C"/>
<g clip-path="url(#clip0_10714_23517)">
<path d="M55.6344 38.2266C55.4662 37.8587 55.3505 37.5012 55.3926 37.0913C55.6554 34.0216 55.9077 30.952 56.16 27.8823C56.3072 26.1162 55.1298 24.5393 53.4057 24.1819C52.2914 23.9506 51.2822 24.287 50.294 24.7285C50.0838 24.8232 49.9261 24.9073 49.7474 24.6655C48.4123 22.9835 45.658 22.605 43.6606 24.3921C41.8945 25.969 40.0443 27.4408 38.2257 28.9546C38.068 29.0807 37.9418 29.27 37.7106 29.3015C37.5529 28.3764 37.5949 28.2082 38.0785 27.4828C38.2467 27.241 38.4149 26.9992 38.5831 26.7469L41.6843 22.2055H41.6738C41.7789 22.0268 41.905 21.8691 42.0102 21.7009C42.5463 20.8179 42.704 19.8507 42.4832 18.8521C42.1048 17.107 41.022 15.9716 39.2874 15.6142C37.5739 15.2568 36.1127 15.8245 35.0929 17.2647C33.5581 19.4408 32.0758 21.6694 30.562 23.8665C29.7841 24.9914 29.4057 26.2213 29.4057 27.5985C29.4267 30.3422 29.4057 33.086 29.4162 35.8298C29.4162 36.1872 29.3111 36.429 29.0377 36.6497C28.3229 37.2174 27.6185 37.8061 26.9352 38.4053C25.2953 39.8455 24.4122 41.6747 24.5068 43.8613C24.5699 45.5223 24.7171 47.1833 24.8643 48.8442C24.8643 48.8442 24.9904 52.7233 25.4635 55.1307H25.4845C25.7894 56.6445 26.315 58.0637 27.156 59.3672C28.2913 61.1333 29.7105 62.6787 30.9931 64.3291C31.2138 64.613 31.3189 64.8968 31.3084 65.2542C31.2874 66.6734 31.2979 68.0821 31.3084 69.5013C31.3084 70.111 31.6028 70.4474 32.0864 70.4579C32.591 70.4684 32.8958 70.1215 32.9063 69.4908C32.9169 68.6813 32.9063 67.8824 32.9063 67.0729C32.9063 66.2845 32.9063 65.496 32.9063 64.7076C32.9063 64.3291 32.8012 64.0243 32.5594 63.7299C31.5712 62.5 30.6146 61.249 29.6054 60.04C28.4385 58.6314 27.587 57.0755 27.156 55.341C26.8722 53.4382 26.6724 51.2621 26.5778 50.0006C26.4517 48.2555 26.357 46.4999 26.1468 44.7654C25.8735 42.4526 26.6619 40.6655 28.449 39.2043C31.7184 36.5236 34.9458 33.7903 38.1836 31.0676C40.3912 29.2174 42.6094 27.3672 44.817 25.5065C45.5424 24.8967 46.3413 24.6444 47.2559 24.8967C48.2231 25.1596 48.8328 25.8218 49.0325 26.789C49.2428 27.8087 48.9064 28.6812 48.0864 29.312C44.7224 31.9086 41.7684 34.9993 38.1205 37.27C36.4385 38.3212 35.0509 39.8455 33.5476 41.1701C33.1692 41.496 33.1692 41.9901 33.4635 42.316C33.7579 42.6313 34.1889 42.6629 34.5778 42.379C34.6619 42.316 34.746 42.2424 34.8196 42.1688C36.1442 41.0124 37.4688 39.856 38.7933 38.7102C39.6764 37.9428 40.6751 37.9323 41.5686 38.6681C41.7053 38.7838 41.842 38.8994 41.9786 39.015C43.976 40.7076 45.9734 42.4001 47.9602 44.1031C49.3584 45.312 49.1587 47.4145 47.5923 48.266C47.2664 48.4448 47.0457 48.4342 46.7513 48.1714C45.3847 46.9835 44.0075 45.8166 42.6199 44.6497C41.2007 43.4618 39.361 43.3672 37.9839 44.5026C36.4911 45.7325 35.0509 47.0361 33.5897 48.2976C33.4215 48.4448 33.2848 48.6024 33.2638 48.8337C33.2217 49.1911 33.3374 49.475 33.6527 49.6537C34.0312 49.8639 34.3676 49.7588 34.683 49.4855C36.0601 48.2871 37.4372 47.0781 38.8249 45.8902C39.6659 45.1649 40.6751 45.1228 41.5161 45.8271C43.7132 47.6773 45.8998 49.5275 48.0654 51.3988C48.8538 52.0821 49.0851 52.9862 48.8012 53.9848C48.2861 55.7404 46.2047 56.3396 44.775 55.1622C43.524 54.1215 42.2835 53.0492 41.043 51.998C40.3282 51.3883 40.0548 51.3988 39.4031 52.04C39.1823 52.2503 38.9721 52.471 38.7618 52.6813C38.1731 53.27 38.0785 53.7115 38.4569 54.1005C38.8564 54.5105 39.3085 54.4474 39.9077 53.7956C40.202 53.4802 40.3807 53.5223 40.6751 53.7851C41.7158 54.6892 42.746 55.6038 43.8288 56.4658C45.1955 57.5486 46.7198 57.7168 48.2651 56.9283C49.7894 56.1504 50.5463 54.8574 50.5148 53.1333C50.4938 51.7877 49.863 50.747 48.8328 49.9165C48.6541 49.7798 48.4333 49.6957 48.7697 49.4224C51.1035 47.5827 51.135 44.6603 48.8643 42.7365C48.0864 42.0742 47.319 41.4014 46.52 40.7601C46.2677 40.5604 46.1836 40.3712 46.2572 40.0348C46.7093 37.8271 47.1928 35.6195 47.5503 33.3909C47.75 32.1504 48.139 31.1622 49.2217 30.4053C50.273 29.6694 50.7145 28.5131 50.704 27.2095C50.704 26.1477 50.704 26.1477 51.7342 25.8429C51.9024 25.7903 52.0811 25.7483 52.2599 25.7167C53.5529 25.4644 54.6462 26.4105 54.5411 27.7141C54.3203 30.4473 54.1101 33.1806 53.8367 35.9033C53.7106 37.1859 53.7947 38.3843 54.4675 39.5302C54.8564 40.1924 55.1508 40.9073 55.4872 41.6011C56.9169 44.6287 57.2638 47.7614 56.4964 51.0203C56.2651 52.019 55.8762 52.9546 55.4662 53.8797L53.185 58.9573C52.6068 60.2398 52.0391 61.5328 51.4504 62.8153C51.2717 63.1938 51.1876 63.5828 51.1876 64.0033C51.1981 65.7588 51.2086 67.5144 51.1876 69.27C51.1876 69.7641 51.2717 70.1741 51.6606 70.5H52.3019C52.7329 70.2056 52.817 69.7851 52.817 69.291C52.796 67.6091 52.817 65.927 52.817 64.245C52.817 63.9192 52.8696 63.6143 53.0168 63.3094C53.5003 62.2582 53.9734 61.1964 54.4359 60.1452L56.7907 54.8994C56.8959 54.6682 57.001 54.4369 57.1061 54.2056C58.7566 50.4526 58.9668 46.6366 57.6843 42.7365C57.1587 41.1491 56.3282 39.6984 55.6239 38.1951L55.6344 38.2266ZM35.1245 31.5827C33.7473 32.6234 32.4543 33.7903 31.0351 34.9782C31.0351 32.2345 31.0246 29.6169 31.0351 26.9992C31.0351 26.3054 31.2979 25.6642 31.6869 25.086C33.2427 22.7942 34.7986 20.492 36.386 18.2108C37.1849 17.0649 38.6777 16.8126 39.8131 17.559C40.9379 18.3054 41.2638 19.7982 40.5489 20.9756C40.4333 21.1648 40.3071 21.354 40.181 21.5327L37.1008 26.0006C36.365 27.0308 35.7657 28.1241 36.0286 29.5433C36.1862 30.4263 35.8498 31.0255 35.1245 31.5722V31.5827ZM44.7855 39.2673C43.6922 38.4684 42.8301 37.4907 41.6738 36.8179C43.0824 35.6405 44.4701 34.4842 45.9629 33.2227C45.5529 35.3146 45.1744 37.2595 44.775 39.2673H44.7855Z" fill="white"/>
<path d="M58.8727 20.8197C57.9581 21.3664 57.0435 21.934 56.1395 22.5017C55.6664 22.8066 55.5402 23.2271 55.7715 23.6371C56.0133 24.0576 56.4864 24.1627 56.9805 23.8788C57.895 23.3322 58.7991 22.754 59.7137 22.1968C59.987 22.0286 60.1552 21.7869 60.1657 21.482C60.1657 20.8092 59.4824 20.4623 58.8727 20.8197Z" fill="white"/>
<path d="M49.758 20.4937C50.1995 20.4727 50.5044 20.1468 50.5149 19.6317C50.5254 19.0955 50.5149 18.5594 50.5149 18.0232C50.5149 17.4871 50.5149 16.951 50.5149 16.4148C50.5044 15.8577 50.21 15.5213 49.737 15.5002C49.2744 15.4897 48.917 15.8156 48.917 16.3623C48.896 17.4556 48.896 18.5489 48.917 19.6422C48.917 20.1783 49.2849 20.5147 49.7475 20.5042L49.758 20.4937Z" fill="white"/>
<path d="M53.1539 21.2913C53.585 21.5436 54.037 21.3859 54.3419 20.8392C54.8465 19.9562 55.33 19.0626 55.8241 18.1796C55.9187 18.0114 56.0028 17.8326 56.0028 17.738C55.9818 17.2439 55.8031 16.9811 55.4352 16.876C55.0147 16.7499 54.6888 16.9181 54.489 17.286C53.9634 18.2111 53.4378 19.1467 52.9332 20.0928C52.6493 20.6185 52.7334 21.06 53.1539 21.3018V21.2913Z" fill="white"/>
</g>
<defs>
<clipPath id="clip0_10714_23517">
<rect width="55" height="55" fill="white" transform="translate(15 15.001)"/>
</clipPath>
</defs>
</svg>
