<svg width="37" height="36" viewBox="0 0 37 36" fill="none" xmlns="http://www.w3.org/2000/svg">
<g clip-path="url(#clip0_10845_85110)">
<path d="M29.5601 10.7126L31.7146 8.55806L29.5945 6.43725L27.2897 8.74211C25.1841 7.24995 22.7271 6.33032 20.1592 6.07329V2.99965H23.1579V0.000976562H14.1619V2.99965H17.1605V6.07329C14.5927 6.33032 12.1356 7.24995 10.0301 8.74211L7.72521 6.43725L5.60515 8.55806L7.7597 10.7126C5.74856 12.842 4.40515 15.5138 3.89536 18.398C3.38557 21.2823 3.73174 24.2527 4.89111 26.9424C6.05048 29.6322 7.97228 31.9234 10.4192 33.5333C12.8661 35.1431 15.7309 36.001 18.6599 36.001C21.5888 36.001 24.4537 35.1431 26.9006 33.5333C29.3475 31.9234 31.2693 29.6322 32.4286 26.9424C33.588 24.2527 33.9342 21.2823 33.4244 18.398C32.9146 15.5138 31.5712 12.842 29.5601 10.7126ZM18.6599 32.9864C16.2875 32.9864 13.9685 32.2829 11.996 30.9649C10.0235 29.6469 8.48608 27.7736 7.57823 25.5819C6.67038 23.3901 6.43284 20.9784 6.89566 18.6516C7.35848 16.3249 8.50086 14.1876 10.1783 12.5102C11.8558 10.8327 13.9931 9.69029 16.3198 9.22747C18.6466 8.76465 21.0583 9.00219 23.25 9.91004C25.4418 10.8179 27.3151 12.3553 28.6331 14.3278C29.9511 16.3003 30.6546 18.6194 30.6546 20.9917C30.651 24.1718 29.3861 27.2206 27.1375 29.4693C24.8888 31.7179 21.84 32.9828 18.6599 32.9864Z" fill="#2C0D4C"/>
<path d="M18.66 11.9956V20.9916H9.66394C9.66394 22.7709 10.1915 24.5102 11.18 25.9895C12.1685 27.4689 13.5735 28.622 15.2173 29.3029C16.8611 29.9837 18.6699 30.1619 20.415 29.8148C22.1601 29.4677 23.763 28.6109 25.0211 27.3528C26.2792 26.0947 27.136 24.4917 27.4831 22.7467C27.8302 21.0016 27.6521 19.1928 26.9712 17.549C26.2903 15.9052 25.1373 14.5002 23.6579 13.5117C22.1785 12.5232 20.4392 11.9956 18.66 11.9956Z" fill="#2C0D4C"/>
</g>
<defs>
<clipPath id="clip0_10845_85110">
<rect width="36" height="36" fill="white" transform="translate(0.666504 0.000976562)"/>
</clipPath>
</defs>
</svg>
