<svg width="48" height="48" viewBox="0 0 48 48" fill="none" xmlns="http://www.w3.org/2000/svg">
<path d="M39.5564 8.44363C35.4011 4.28841 29.8764 2 24 2C18.1236 2 12.5989 4.28841 8.44363 8.44363C4.28841 12.5989 2 18.1236 2 24C2 29.8764 4.28841 35.4011 8.44363 39.5563C12.5989 43.7116 18.1236 46 24 46C29.8764 46 35.4011 43.7116 39.5564 39.5563C43.7117 35.4011 46 29.8764 46 24C46 18.1236 43.7117 12.5989 39.5564 8.44363ZM24 44.7655C12.5499 44.7655 3.23447 35.4502 3.23447 24C3.23447 18.2712 5.56645 13.0768 9.33091 9.31614L15.9822 15.9675C16.1027 16.088 16.2607 16.1483 16.4187 16.1483C16.5767 16.1483 16.7346 16.088 16.8551 15.9675C17.0962 15.7264 17.0962 15.3356 16.8551 15.0946L10.2309 8.47038C13.8985 5.21494 18.722 3.23447 24 3.23447C35.4502 3.23447 44.7656 12.5499 44.7656 24C44.7656 29.2781 42.7851 34.1015 39.5297 37.7691L35.1078 33.3472C34.8668 33.1062 34.476 33.1062 34.235 33.3471C33.9938 33.5882 33.9938 33.979 34.2349 34.2201L38.6839 38.6691C34.9232 42.4336 29.7289 44.7655 24 44.7655Z" fill="#2C0D4C"/>
<path d="M29.4591 15.0962C26.9916 11.3725 24.4872 8.53227 24.4622 8.50403C24.3451 8.37168 24.1768 8.2959 24 8.2959C23.8233 8.2959 23.655 8.37168 23.5379 8.50403C23.5128 8.53227 21.0085 11.3725 18.5409 15.0962C15.1917 20.1502 13.4936 24.3528 13.4936 27.5872C13.4936 31.171 14.6783 34.1228 16.9197 36.1234C18.7753 37.7797 21.356 38.7297 24 38.7297C26.644 38.7297 29.2247 37.7797 31.0803 36.1234C33.3218 34.1228 34.5065 31.171 34.5065 27.5872C34.5065 24.3528 32.8083 20.1502 29.4591 15.0962ZM24 37.4952C19.3849 37.4952 14.728 34.4316 14.728 27.5872C14.728 21.322 22.0652 12.1677 24 9.86314C25.9348 12.1677 33.272 21.322 33.272 27.5872C33.272 34.4316 28.6152 37.4952 24 37.4952Z" fill="#2C0D4C"/>
<path d="M24.3998 33.6553C21.2908 33.6553 18.1537 31.5874 18.1537 26.9678C18.1537 26.6269 17.8774 26.3506 17.5365 26.3506C17.1955 26.3506 16.9192 26.6269 16.9192 26.9678C16.9192 29.5104 17.7633 31.6077 19.3601 33.033C20.6821 34.213 22.519 34.8897 24.3998 34.8897C24.7407 34.8897 25.0171 34.6134 25.0171 34.2725C25.0171 33.9316 24.7407 33.6553 24.3998 33.6553Z" fill="#2C0D4C"/>
</svg>
