<svg width="56" height="56" viewBox="0 0 56 56" fill="none" xmlns="http://www.w3.org/2000/svg">
<rect y="0.000976562" width="56" height="56" rx="28" fill="#2C0D4C"/>
<g clip-path="url(#clip0_10714_23923)">
<path d="M43.35 26.85H43.0695C41.3321 26.85 39.8388 25.7462 39.1804 24.1374L39.1458 24.0566C38.4726 22.4445 38.7349 20.5965 39.9708 19.3607L40.1671 19.1643C40.3203 19.0111 40.4419 18.8292 40.5247 18.6291C40.6077 18.4289 40.6503 18.2144 40.6503 17.9978C40.6503 17.7811 40.6077 17.5666 40.5247 17.3664C40.4419 17.1663 40.3203 16.9844 40.1671 16.8312C40.014 16.678 39.832 16.5565 39.6319 16.4736C39.4317 16.3907 39.2172 16.348 39.0006 16.348C38.784 16.348 38.5695 16.3907 38.3693 16.4736C38.1692 16.5565 37.9872 16.678 37.834 16.8312L37.6377 17.0275C36.4018 18.2634 34.5539 18.5257 32.9418 17.8526L32.8609 17.8179C31.2538 17.1612 30.15 15.6597 30.15 13.9222V13.7886C30.15 12.7376 29.4124 12 28.5 12C27.5876 12 26.85 12.7376 26.85 13.65V13.7094C26.85 15.5178 25.761 17.148 24.0895 17.8393L24.0796 17.8443C23.2626 18.1825 22.3636 18.2708 21.4963 18.0982C20.629 17.9255 19.8324 17.4995 19.2072 16.8741L19.1659 16.8328C19.0128 16.6797 18.8309 16.5581 18.6307 16.4752C18.4306 16.3923 18.216 16.3496 17.9994 16.3496C17.7828 16.3496 17.5682 16.3923 17.3681 16.4752C17.1679 16.5581 16.986 16.6797 16.8328 16.8328C16.6797 16.986 16.5581 17.1679 16.4752 17.3681C16.3923 17.5682 16.3496 17.7828 16.3496 17.9994C16.3496 18.216 16.3923 18.4306 16.4752 18.6307C16.5581 18.8309 16.6797 19.0128 16.8328 19.1659L16.8923 19.2254C17.5121 19.8458 17.9343 20.6359 18.1055 21.496C18.2767 22.3562 18.1893 23.2477 17.8542 24.0582L17.8096 24.1638C17.4802 24.9587 16.9226 25.6381 16.2072 26.1162C15.4918 26.5942 14.6507 26.8497 13.7903 26.85C12.7392 26.85 12 27.5876 12 28.5C12 29.4124 12.7376 30.15 13.65 30.15H13.7622C14.631 30.1498 15.4804 30.4074 16.2027 30.8904C16.925 31.3731 17.4877 32.0597 17.8196 32.8626L17.8542 32.9434C18.1893 33.7539 18.2767 34.6454 18.1055 35.5056C17.9343 36.3657 17.5121 37.1559 16.8923 37.7763L16.8328 37.8357C16.5235 38.1451 16.3496 38.5647 16.3496 39.0022C16.3496 39.4398 16.5235 39.8594 16.8328 40.1688C17.1422 40.4782 17.5619 40.6519 17.9994 40.6519C18.4369 40.6519 18.8566 40.4782 19.1659 40.1688L19.2254 40.1094C19.8456 39.4893 20.6358 39.0671 21.4959 38.8958C22.3561 38.7246 23.2478 38.8122 24.0582 39.1474L24.2942 39.2465C25.0509 39.559 25.6978 40.0891 26.1529 40.7697C26.6079 41.4504 26.8505 42.2508 26.85 43.0695V43.2098C26.85 44.2625 27.5876 45 28.5 45C29.4124 45 30.15 44.2608 30.15 43.35V43.0695C30.15 41.3947 31.1581 39.885 32.7075 39.2448L33.1233 39.0732C33.8803 38.7592 34.7134 38.6772 35.5171 38.8372C36.3208 38.9973 37.0589 39.3925 37.6377 39.9724L37.834 40.1688C37.9872 40.3219 38.1692 40.4435 38.3693 40.5264C38.5695 40.6094 38.784 40.6519 39.0006 40.6519C39.2172 40.6519 39.4317 40.6094 39.6319 40.5264C39.832 40.4435 40.014 40.3219 40.1671 40.1688C40.3203 40.0157 40.4419 39.8337 40.5247 39.6335C40.6077 39.4334 40.6503 39.2189 40.6503 39.0022C40.6503 38.7856 40.6077 38.5711 40.5247 38.371C40.4419 38.1708 40.3203 37.9888 40.1671 37.8357L39.9708 37.6393C38.7349 36.4035 38.4726 34.5555 39.1458 32.9434L39.1804 32.8626C39.8388 31.2538 41.3403 30.15 43.0777 30.15H43.2098C44.2625 30.15 45 29.4124 45 28.5C45 27.5876 44.2625 26.85 43.35 26.85ZM21.9 30.15C21.4624 30.15 21.0427 29.9761 20.7333 29.6667C20.4238 29.3573 20.25 28.9376 20.25 28.5C20.25 28.0624 20.4238 27.6427 20.7333 27.3333C21.0427 27.0239 21.4624 26.85 21.9 26.85C22.3376 26.85 22.7573 27.0239 23.0667 27.3333C23.3762 27.6427 23.55 28.0624 23.55 28.5C23.55 28.9376 23.3762 29.3573 23.0667 29.6667C22.7573 29.9761 22.3376 30.15 21.9 30.15ZM30.15 35.925C29.7124 35.925 29.2927 35.7511 28.9833 35.4417C28.6739 35.1323 28.5 34.7126 28.5 34.275C28.5 33.8374 28.6739 33.4177 28.9833 33.1083C29.2927 32.7989 29.7124 32.625 30.15 32.625C30.5876 32.625 31.0073 32.7989 31.3167 33.1083C31.6261 33.4177 31.8 33.8374 31.8 34.275C31.8 34.7126 31.6261 35.1323 31.3167 35.4417C31.0073 35.7511 30.5876 35.925 30.15 35.925ZM31.8 28.5C31.3665 28.4998 30.9374 28.4144 30.5369 28.2484C30.1365 28.0824 29.7726 27.8392 29.4662 27.5326C29.1598 27.226 28.9168 26.862 28.751 26.4616C28.5851 26.0611 28.4998 25.6318 28.5 25.1983C28.5002 24.7649 28.5856 24.3357 28.7516 23.9352C28.9176 23.5348 29.1608 23.171 29.4674 22.8646C29.774 22.5581 30.138 22.3151 30.5384 22.1493C30.9389 21.9835 31.3682 21.8982 31.8017 21.8983C32.6771 21.8986 33.5165 22.2465 34.1354 22.8657C34.7543 23.4849 35.1018 24.3246 35.1016 25.2C35.1015 26.0755 34.7535 26.9148 34.1343 27.5338C33.5152 28.1527 32.6755 28.5002 31.8 28.5Z" fill="white"/>
</g>
<defs>
<clipPath id="clip0_10714_23923">
<rect width="33" height="33" fill="white" transform="translate(12 12)"/>
</clipPath>
</defs>
</svg>
