<svg width="24" height="24" viewBox="0 0 24 24" fill="none" xmlns="http://www.w3.org/2000/svg">
<g clip-path="url(#clip0_10714_23160)">
<path d="M22.44 17.5133C22.428 17.8173 22.272 18.0173 22.016 18.1613C20.92 18.7733 19.824 19.3893 18.732 20.0013C16.648 21.1693 14.56 22.3373 12.48 23.5133C12.148 23.7013 11.86 23.7013 11.524 23.5133C8.364 21.7293 5.196 19.9533 2.028 18.1813C1.756 18.0293 1.56 17.8373 1.564 17.5133C1.564 17.1893 1.764 16.9973 2.036 16.8493C2.74 16.4653 3.44 16.0733 4.132 15.6693C4.28 15.5813 4.388 15.5813 4.544 15.6693C6.66 16.8613 8.78 18.0453 10.892 19.2373C11.636 19.6573 12.368 19.6573 13.112 19.2373C15.236 18.0413 17.36 16.8533 19.48 15.6573C19.616 15.5813 19.712 15.5733 19.852 15.6533C20.58 16.0733 21.312 16.4813 22.048 16.8893C22.296 17.0253 22.428 17.2253 22.444 17.5053L22.44 17.5133Z" fill="#2C0D4C"/>
<path d="M22.028 5.94073C21.772 5.79273 21.516 5.64873 21.256 5.50473C20.4 5.02473 19.544 4.54473 18.688 4.06073C16.604 2.89273 14.556 1.66073 12.476 0.484727C12.308 0.388727 12.152 0.344727 12 0.344727C11.996 0.344727 11.992 0.344727 11.988 0.344727C11.836 0.344727 11.688 0.392727 11.524 0.484727C10.012 1.33673 8.54 2.24873 7.028 3.10073C5.348 4.04473 3.668 4.98473 1.988 5.92873C1.804 6.03273 1.652 6.16073 1.592 6.37273C1.492 6.71673 1.628 7.00473 1.996 7.21273C5.176 8.99673 8.356 10.7807 11.532 12.5687C11.86 12.7527 12.144 12.7567 12.468 12.5687C13.452 12.0047 14.444 11.4567 15.436 10.9007C17.628 9.67273 19.816 8.44473 22.008 7.21273C22.588 6.88873 22.596 6.26873 22.036 5.94073H22.028Z" fill="#2C0D4C"/>
<path d="M22.44 12.049C22.424 12.341 22.276 12.537 22.024 12.681C20.824 13.353 19.624 14.029 18.424 14.701C16.44 15.817 14.452 16.925 12.468 18.045C12.144 18.229 11.856 18.225 11.532 18.045C8.368 16.261 5.2 14.485 2.032 12.713C1.764 12.561 1.56 12.373 1.56 12.049C1.56 11.725 1.756 11.533 2.028 11.381C2.744 10.989 3.456 10.589 4.164 10.181C4.292 10.105 4.388 10.113 4.512 10.181C6.64 11.381 8.772 12.573 10.9 13.773C11.64 14.189 12.36 14.189 13.1 13.773C15.224 12.577 17.348 11.389 19.468 10.193C19.608 10.113 19.712 10.105 19.856 10.189C20.576 10.605 21.304 11.009 22.032 11.413C22.284 11.553 22.428 11.757 22.44 12.049ZM9.548 14.541C9.548 14.165 9.252 13.865 8.876 13.861C8.508 13.861 8.196 14.161 8.188 14.529C8.18 14.901 8.504 15.225 8.876 15.221C9.248 15.221 9.548 14.913 9.548 14.541ZM15.132 13.861C14.76 13.857 14.452 14.153 14.444 14.525C14.436 14.901 14.728 15.209 15.1 15.221C15.472 15.233 15.8 14.921 15.804 14.545C15.804 14.181 15.5 13.865 15.132 13.861ZM12.68 16.125C12.68 15.753 12.38 15.449 12.008 15.445C11.632 15.445 11.328 15.737 11.32 16.109C11.312 16.481 11.632 16.809 12.004 16.805C12.368 16.805 12.68 16.489 12.68 16.125ZM5.968 13.537C6.34 13.537 6.644 13.229 6.644 12.853C6.644 12.477 6.344 12.173 5.968 12.177C5.596 12.177 5.288 12.485 5.288 12.853C5.288 13.221 5.604 13.537 5.968 13.537ZM18.044 12.177C17.664 12.169 17.356 12.461 17.348 12.837C17.34 13.213 17.632 13.525 18.004 13.537C18.368 13.549 18.692 13.245 18.704 12.873C18.716 12.505 18.412 12.185 18.04 12.177H18.044Z" fill="#2C0D4C"/>
</g>
<defs>
<clipPath id="clip0_10714_23160">
<rect width="24" height="24" fill="white" transform="translate(0 0.000976562)"/>
</clipPath>
</defs>
</svg>
