<svg width="41" height="40" viewBox="0 0 41 40" fill="none" xmlns="http://www.w3.org/2000/svg">
<g clip-path="url(#clip0_9019_2364)">
<path d="M37.8999 29.1875C37.8799 29.6941 37.6199 30.0275 37.1932 30.2675C35.3665 31.2875 33.5399 32.3141 31.7199 33.3341C28.2465 35.2808 24.7665 37.2275 21.2999 39.1875C20.7465 39.5008 20.2665 39.5008 19.7065 39.1875C14.4399 36.2141 9.15988 33.2541 3.87988 30.3008C3.42655 30.0475 3.09988 29.7275 3.10655 29.1875C3.10655 28.6475 3.43988 28.3275 3.89321 28.0808C5.06655 27.4408 6.23321 26.7875 7.38655 26.1141C7.63321 25.9675 7.81321 25.9675 8.07321 26.1141C11.5999 28.1008 15.1332 30.0741 18.6532 32.0608C19.8932 32.7608 21.1132 32.7608 22.3532 32.0608C25.8932 30.0675 29.4332 28.0875 32.9665 26.0941C33.1932 25.9675 33.3532 25.9541 33.5865 26.0875C34.7999 26.7875 36.0199 27.4675 37.2465 28.1475C37.6599 28.3741 37.8799 28.7075 37.9065 29.1741L37.8999 29.1875Z" fill="#400F98"/>
<path d="M37.2131 9.90089C36.7865 9.65422 36.3598 9.41422 35.9265 9.17422C34.4998 8.37422 33.0731 7.57422 31.6465 6.76755C28.1731 4.82089 24.7598 2.76755 21.2931 0.807552C21.0131 0.647552 20.7531 0.574219 20.4998 0.574219C20.4931 0.574219 20.4865 0.574219 20.4798 0.574219C20.2265 0.574219 19.9798 0.654219 19.7065 0.807552C17.1865 2.22755 14.7331 3.74755 12.2131 5.16755C9.41313 6.74089 6.61313 8.30755 3.81313 9.88089C3.50646 10.0542 3.25313 10.2676 3.15313 10.6209C2.98646 11.1942 3.21313 11.6742 3.82646 12.0209C9.12646 14.9942 14.4265 17.9676 19.7198 20.9476C20.2665 21.2542 20.7398 21.2609 21.2798 20.9476C22.9198 20.0076 24.5731 19.0942 26.2265 18.1676C29.8798 16.1209 33.5265 14.0742 37.1798 12.0209C38.1465 11.4809 38.1598 10.4476 37.2265 9.90089H37.2131Z" fill="#400F98"/>
<path d="M37.9001 20.0808C37.8734 20.5675 37.6268 20.8942 37.2068 21.1342C35.2068 22.2542 33.2068 23.3808 31.2068 24.5008C27.9001 26.3608 24.5868 28.2075 21.2801 30.0742C20.7401 30.3808 20.2601 30.3742 19.7201 30.0742C14.4468 27.1008 9.16676 24.1408 3.88676 21.1875C3.4401 20.9342 3.1001 20.6208 3.1001 20.0808C3.1001 19.5408 3.42676 19.2208 3.8801 18.9675C5.07343 18.3142 6.2601 17.6475 7.4401 16.9675C7.65343 16.8408 7.81343 16.8542 8.0201 16.9675C11.5668 18.9675 15.1201 20.9542 18.6668 22.9542C19.9001 23.6475 21.1001 23.6475 22.3334 22.9542C25.8734 20.9608 29.4134 18.9808 32.9468 16.9875C33.1801 16.8542 33.3534 16.8408 33.5934 16.9808C34.7934 17.6742 36.0068 18.3475 37.2201 19.0208C37.6401 19.2542 37.8801 19.5942 37.9001 20.0808ZM16.4134 24.2342C16.4134 23.6075 15.9201 23.1075 15.2934 23.1008C14.6801 23.1008 14.1601 23.6008 14.1468 24.2142C14.1334 24.8342 14.6734 25.3742 15.2934 25.3675C15.9134 25.3675 16.4134 24.8542 16.4134 24.2342ZM25.7201 23.1008C25.1001 23.0942 24.5868 23.5875 24.5734 24.2075C24.5601 24.8342 25.0468 25.3475 25.6668 25.3675C26.2868 25.3875 26.8334 24.8675 26.8401 24.2408C26.8401 23.6342 26.3334 23.1075 25.7201 23.1008ZM21.6334 26.8742C21.6334 26.2542 21.1334 25.7475 20.5134 25.7408C19.8868 25.7408 19.3801 26.2275 19.3668 26.8475C19.3534 27.4675 19.8868 28.0142 20.5068 28.0075C21.1134 28.0075 21.6334 27.4808 21.6334 26.8742ZM10.4468 22.5608C11.0668 22.5608 11.5734 22.0475 11.5734 21.4208C11.5734 20.7942 11.0734 20.2875 10.4468 20.2942C9.82677 20.2942 9.31343 20.8075 9.31343 21.4208C9.31343 22.0342 9.8401 22.5608 10.4468 22.5608ZM30.5734 20.2942C29.9401 20.2808 29.4268 20.7675 29.4134 21.3942C29.4001 22.0208 29.8868 22.5408 30.5068 22.5608C31.1134 22.5808 31.6534 22.0742 31.6734 21.4542C31.6934 20.8408 31.1868 20.3075 30.5668 20.2942H30.5734Z" fill="#400F98"/>
</g>
<defs>
<clipPath id="clip0_9019_2364">
<rect width="40" height="40" fill="white" transform="translate(0.5 0.000976562)"/>
</clipPath>
</defs>
</svg>
