<svg width="41" height="40" viewBox="0 0 41 40" fill="none" xmlns="http://www.w3.org/2000/svg">
<g clip-path="url(#clip0_8801_3983)">
<path d="M33.8143 8.6165C30.9289 5.63182 27.1945 3.73393 23.1417 3.15658L24.2969 2.00143C24.7545 1.54377 24.7545 0.801816 24.2969 0.34416C23.8393 -0.113418 23.0973 -0.113418 22.6396 0.34416L19.6719 3.31182C19.2142 3.76939 19.2142 4.51143 19.6719 4.96908L22.6395 7.93674C22.8684 8.16557 23.1683 8.28002 23.4681 8.28002C23.768 8.28002 24.068 8.16557 24.2967 7.93674C24.7544 7.47916 24.7544 6.73713 24.2967 6.27947L23.633 5.6158C26.8528 6.24588 29.8059 7.84229 32.1291 10.2454C35.0591 13.2763 36.6728 17.2679 36.6728 21.4847C36.673 30.4022 29.418 37.6571 20.5005 37.6571C11.5831 37.6571 4.32813 30.4022 4.32813 21.4848C4.32813 18.0821 5.37242 14.8271 7.3482 12.0717C9.28297 9.37354 11.9502 7.36018 15.0616 6.24939C15.6712 6.03174 15.9888 5.36127 15.7713 4.75166C15.5537 4.14213 14.883 3.82447 14.2735 4.04205C10.7108 5.314 7.65742 7.61838 5.44344 10.706C3.18047 13.8619 1.98438 17.5892 1.98438 21.4849C1.98438 26.4307 3.91039 31.0805 7.40766 34.5778C10.9049 38.0748 15.5547 40.0009 20.5005 40.0009C25.4464 40.0009 30.0962 38.0749 33.5934 34.5777C37.0907 31.0804 39.0167 26.4306 39.0167 21.4848C39.0167 16.6568 37.1691 12.0867 33.8143 8.6165Z" fill="#400F98"/>
<path d="M7.16602 21.6679C7.16602 29.0198 13.1473 35.0011 20.4994 35.0011C27.8514 35.0011 33.8327 29.0198 33.8327 21.6679C33.8327 14.3159 27.8514 8.33447 20.4994 8.33447C13.1472 8.33447 7.16602 14.3159 7.16602 21.6679ZM21.296 22.823C19.428 22.1626 18.3457 21.6421 17.5605 21.0262C16.5941 20.2683 16.1517 18.9592 16.4059 17.61C16.6817 16.1463 17.7024 14.9812 19.0698 14.5693C19.0888 14.5635 19.1074 14.559 19.1262 14.5534V14.0309C19.1262 13.3142 19.7073 12.7332 20.424 12.7332C21.1406 12.7332 21.7217 13.3142 21.7217 14.0309V14.4708C22.6278 14.683 23.2602 15.0972 23.5158 15.2883C24.0899 15.7175 24.2073 16.5306 23.7782 17.1047C23.349 17.6789 22.536 17.7962 21.9618 17.3672C21.687 17.1618 20.9286 16.7198 19.8184 17.0543C19.1626 17.2519 18.9929 17.8974 18.9565 18.0906C18.8846 18.4721 18.9672 18.8312 19.1621 18.984C19.841 19.5164 21.059 19.9864 22.1609 20.3759C24.1767 21.0884 25.2976 22.9558 24.9502 25.0226C24.7796 26.0373 24.2691 26.9789 23.5126 27.6739C22.9924 28.1518 22.3862 28.4917 21.7217 28.6834V29.3047C21.7217 30.0214 21.1406 30.6025 20.424 30.6025C19.7073 30.6025 19.1262 30.0214 19.1262 29.3047V28.811C18.2629 28.7095 17.5425 28.4437 16.5736 27.8098C15.9738 27.4175 15.8057 26.6132 16.198 26.0134C16.5904 25.4135 17.3948 25.2455 17.9945 25.6378C18.8928 26.2255 19.2325 26.2795 20.4153 26.2713C21.5799 26.2635 22.2556 25.3955 22.3906 24.5923C22.4567 24.2 22.4821 23.2422 21.296 22.823Z" fill="#400F98"/>
</g>
<defs>
<clipPath id="clip0_8801_3983">
<rect width="40" height="40" fill="white" transform="translate(0.5 0.000976562)"/>
</clipPath>
</defs>
</svg>
