<svg width="24" height="24" viewBox="0 0 24 24" fill="none" xmlns="http://www.w3.org/2000/svg">
<g clip-path="url(#clip0_10714_23166)">
<path d="M19.9886 5.17029C18.2573 3.37948 16.0167 2.24075 13.585 1.89434L14.2781 1.20125C14.5527 0.926652 14.5527 0.48148 14.2781 0.206887C14.0036 -0.0676602 13.5584 -0.0676602 13.2838 0.206887L11.5031 1.98748C11.2285 2.26203 11.2285 2.70725 11.5031 2.98184L13.2837 4.76243C13.421 4.89973 13.601 4.9684 13.7809 4.9684C13.9608 4.9684 14.1408 4.89973 14.278 4.76243C14.5526 4.48789 14.5526 4.04267 14.278 3.76807L13.8798 3.36987C15.8117 3.74792 17.5835 4.70576 18.9774 6.14764C20.7355 7.9662 21.7037 10.3611 21.7037 12.8912C21.7038 18.2417 17.3508 22.5947 12.0003 22.5947C6.64988 22.5947 2.29688 18.2417 2.29688 12.8913C2.29688 10.8496 2.92345 8.89662 4.10892 7.24343C5.26978 5.62451 6.87009 4.4165 8.73699 3.75003C9.1027 3.61943 9.2933 3.21715 9.16275 2.85139C9.0322 2.48567 8.62983 2.29507 8.26411 2.42562C6.12647 3.18879 4.29445 4.57142 2.96606 6.42396C1.60828 8.31753 0.890625 10.5539 0.890625 12.8913C0.890625 15.8588 2.04623 18.6487 4.14459 20.747C6.24295 22.8453 9.03281 24.0009 12.0003 24.0009C14.9678 24.0009 17.7577 22.8453 19.8561 20.747C21.9544 18.6486 23.11 15.8588 23.11 12.8913C23.11 9.99448 22.0014 7.25243 19.9886 5.17029Z" fill="#2C0D4C"/>
<path d="M4 13.001C4 17.4122 7.58879 21.001 12 21.001C16.4112 21.001 20 17.4122 20 13.001C20 8.58986 16.4112 5.00098 12 5.00098C7.58874 5.00098 4 8.5898 4 13.001ZM12.478 13.6941C11.3572 13.2978 10.7078 12.9856 10.2367 12.616C9.65685 12.1612 9.39144 11.3758 9.54395 10.5663C9.70943 9.6881 10.3219 8.98899 11.1423 8.74185C11.1536 8.73842 11.1648 8.73567 11.1761 8.73235V8.41882C11.1761 7.9888 11.5247 7.64018 11.9548 7.64018C12.3848 7.64018 12.7334 7.9888 12.7334 8.41882V8.68277C13.277 8.81011 13.6565 9.0586 13.8099 9.17326C14.1543 9.43078 14.2248 9.91867 13.9673 10.2631C13.7098 10.6076 13.222 10.678 12.8774 10.4206C12.7126 10.2974 12.2575 10.0322 11.5914 10.2329C11.1979 10.3514 11.0961 10.7387 11.0743 10.8546C11.0311 11.0836 11.0807 11.299 11.1977 11.3907C11.605 11.7101 12.3358 11.9921 12.9969 12.2258C14.2064 12.6533 14.879 13.7738 14.6705 15.0138C14.5681 15.6227 14.2619 16.1876 13.808 16.6047C13.4958 16.8914 13.1321 17.0953 12.7334 17.2103V17.5831C12.7334 18.0131 12.3848 18.3618 11.9548 18.3618C11.5247 18.3618 11.1761 18.0131 11.1761 17.5831V17.2869C10.6581 17.226 10.2259 17.0665 9.64455 16.6862C9.28466 16.4508 9.1838 15.9682 9.41921 15.6083C9.65462 15.2484 10.1373 15.1476 10.4971 15.383C11.0361 15.7356 11.2399 15.768 11.9496 15.7631C12.6483 15.7584 13.0537 15.2376 13.1348 14.7557C13.1744 14.5203 13.1896 13.9456 12.478 13.6941Z" fill="#2C0D4C"/>
</g>
<defs>
<clipPath id="clip0_10714_23166">
<rect width="24" height="24" fill="white" transform="translate(0 0.000976562)"/>
</clipPath>
</defs>
</svg>
