<svg width="52" height="52" viewBox="0 0 52 52" fill="none" xmlns="http://www.w3.org/2000/svg">
<rect y="0.000976562" width="52" height="52" rx="26" fill="#2C0D4C"/>
<g clip-path="url(#clip0_10714_23469)">
<path d="M32.9824 23.3961C32.8907 23.1954 32.8276 23.0005 32.8505 22.7768C32.9939 21.1025 33.1315 19.4281 33.2691 17.7538C33.3494 16.7904 32.7072 15.9303 31.7668 15.7354C31.159 15.6092 30.6085 15.7927 30.0695 16.0335C29.9548 16.0851 29.8688 16.131 29.7713 15.9991C29.0431 15.0817 27.5408 14.8752 26.4513 15.85C25.488 16.7102 24.4787 17.5129 23.4868 18.3386C23.4007 18.4074 23.3319 18.5107 23.2058 18.5279C23.1198 18.0233 23.1427 17.9315 23.4065 17.5359C23.4982 17.404 23.59 17.2721 23.6817 17.1345L25.3733 14.6573H25.3675C25.4249 14.5599 25.4937 14.4739 25.551 14.3821C25.8435 13.9004 25.9295 13.3729 25.8091 12.8282C25.6026 11.8763 25.012 11.257 24.0659 11.0621C23.1312 10.8671 22.3342 11.1768 21.778 11.9623C20.9408 13.1493 20.1323 14.3649 19.3066 15.5633C18.8823 16.1769 18.6758 16.8478 18.6758 17.5989C18.6873 19.0955 18.6758 20.5921 18.6816 22.0887C18.6816 22.2837 18.6242 22.4156 18.4752 22.536C18.0852 22.8456 17.7011 23.1667 17.3283 23.4936C16.4338 24.2792 15.9522 25.2769 16.0038 26.4696C16.0382 27.3756 16.1184 28.2816 16.1987 29.1875C16.1987 29.1875 16.2675 31.3034 16.5256 32.6165H16.537C16.7033 33.4422 16.99 34.2163 17.4488 34.9274C18.068 35.8907 18.8421 36.7336 19.5417 37.6339C19.6621 37.7887 19.7195 37.9435 19.7137 38.1385C19.7022 38.9126 19.708 39.6809 19.7137 40.455C19.7137 40.7876 19.8743 40.9711 20.138 40.9768C20.4133 40.9826 20.5796 40.7933 20.5853 40.4493C20.591 40.0078 20.5853 39.572 20.5853 39.1305C20.5853 38.7004 20.5853 38.2703 20.5853 37.8403C20.5853 37.6339 20.528 37.4676 20.3961 37.307C19.8571 36.6361 19.3353 35.9538 18.7848 35.2943C18.1483 34.526 17.6838 33.6773 17.4488 32.7312C17.2939 31.6933 17.185 30.5064 17.1334 29.8183C17.0646 28.8664 17.013 27.9088 16.8983 26.9627C16.7492 25.7012 17.1792 24.7264 18.154 23.9294C19.9373 22.4672 21.6977 20.9763 23.4638 19.4912C24.668 18.482 25.8779 17.4728 27.082 16.4579C27.4777 16.1253 27.9135 15.9877 28.4123 16.1253C28.9399 16.2686 29.2725 16.6299 29.3814 17.1574C29.4961 17.7136 29.3126 18.1896 28.8653 18.5336C27.0304 19.9499 25.4191 21.6357 23.4294 22.8743C22.512 23.4477 21.7551 24.2792 20.9351 25.0017C20.7287 25.1794 20.7287 25.4489 20.8892 25.6267C21.0498 25.7987 21.2849 25.8159 21.497 25.6611C21.5429 25.6267 21.5888 25.5865 21.6289 25.5464C22.3514 24.9156 23.0739 24.2849 23.7964 23.6599C24.2781 23.2413 24.8228 23.2356 25.3102 23.6369C25.3847 23.7 25.4593 23.7631 25.5338 23.8262C26.6233 24.7494 27.7128 25.6725 28.7965 26.6015C29.5592 27.2609 29.4502 28.4077 28.5958 28.8722C28.4181 28.9696 28.2977 28.9639 28.1371 28.8206C27.3917 28.1726 26.6405 27.5361 25.8836 26.8996C25.1095 26.2517 24.106 26.2001 23.3549 26.8194C22.5406 27.4902 21.7551 28.2013 20.958 28.8894C20.8663 28.9696 20.7917 29.0557 20.7803 29.1818C20.7573 29.3768 20.8204 29.5316 20.9924 29.6291C21.1988 29.7437 21.3823 29.6864 21.5544 29.5373C22.3055 28.8836 23.0567 28.2242 23.8136 27.5763C24.2723 27.1806 24.8228 27.1577 25.2815 27.5419C26.4799 28.5511 27.6726 29.5603 28.8539 30.5809C29.2839 30.9536 29.4101 31.4468 29.2552 31.9915C28.9743 32.9491 27.8389 33.2759 27.0591 32.6337C26.3767 32.0661 25.7001 31.4812 25.0235 30.9078C24.6336 30.5752 24.4845 30.5809 24.129 30.9307C24.0086 31.0454 23.8939 31.1658 23.7792 31.2805C23.4581 31.6016 23.4065 31.8424 23.6129 32.0546C23.8308 32.2782 24.0774 32.2438 24.4042 31.8883C24.5648 31.7163 24.6622 31.7392 24.8228 31.8826C25.3905 32.3757 25.9524 32.8746 26.543 33.3448C27.2885 33.9354 28.1199 34.0271 28.9628 33.5971C29.7943 33.1727 30.2071 32.4674 30.1899 31.5271C30.1784 30.7931 29.8344 30.2254 29.2725 29.7724C29.175 29.6979 29.0546 29.652 29.238 29.5029C30.511 28.4995 30.5282 26.9054 29.2897 25.856C28.8653 25.4948 28.4467 25.1278 28.011 24.778C27.8733 24.6691 27.8275 24.5659 27.8676 24.3824C28.1142 23.1782 28.3779 21.9741 28.5729 20.7584C28.6818 20.0818 28.894 19.5428 29.4846 19.1299C30.058 18.7286 30.2989 18.0978 30.2931 17.3868C30.2931 16.8076 30.2931 16.8076 30.8551 16.6413C30.9468 16.6127 31.0443 16.5897 31.1418 16.5725C31.8471 16.4349 32.4434 16.951 32.3861 17.662C32.2656 19.1529 32.151 20.6437 32.0019 22.1289C31.9331 22.8284 31.9789 23.4821 32.3459 24.1071C32.5581 24.4684 32.7186 24.8583 32.9021 25.2368C33.682 26.8882 33.8712 28.5969 33.4526 30.3745C33.3265 30.9192 33.1143 31.4296 32.8907 31.9342L31.6464 34.7037C31.331 35.4033 31.0213 36.1086 30.7002 36.8082C30.6028 37.0146 30.5569 37.2267 30.5569 37.4561C30.5626 38.4137 30.5684 39.3713 30.5569 40.3289C30.5569 40.5984 30.6028 40.822 30.8149 40.9998H31.1647C31.3998 40.8392 31.4457 40.6099 31.4457 40.3404C31.4342 39.4229 31.4457 38.5054 31.4457 37.588C31.4457 37.4102 31.4743 37.2439 31.5546 37.0777C31.8184 36.5042 32.0764 35.9251 32.3287 35.3517L33.6132 32.4904C33.6705 32.3642 33.7278 32.2381 33.7852 32.1119C34.6854 30.0649 34.8001 27.9834 34.1006 25.856C33.8139 24.9902 33.3609 24.1989 32.9767 23.3789L32.9824 23.3961ZM21.7952 19.7722C21.044 20.3398 20.3387 20.9763 19.5646 21.6243C19.5646 20.1277 19.5589 18.6999 19.5646 17.2721C19.5646 16.8936 19.708 16.5439 19.9201 16.2285C20.7688 14.9785 21.6174 13.7227 22.4833 12.4784C22.9191 11.8534 23.7333 11.7158 24.3526 12.1229C24.9661 12.53 25.1439 13.3442 24.754 13.9865C24.6909 14.0897 24.6221 14.1929 24.5533 14.2904L22.8732 16.7274C22.4718 17.2893 22.145 17.8856 22.2883 18.6597C22.3743 19.1414 22.1908 19.4683 21.7952 19.7664V19.7722ZM27.0648 23.9638C26.4685 23.528 25.9983 22.9947 25.3675 22.6277C26.1359 21.9855 26.8928 21.3548 27.707 20.6667C27.4834 21.8078 27.277 22.8686 27.0591 23.9638H27.0648Z" fill="white"/>
<path d="M34.7488 13.9017C34.2499 14.1999 33.751 14.5095 33.2579 14.8192C32.9999 14.9854 32.9311 15.2148 33.0572 15.4384C33.1891 15.6678 33.4471 15.7251 33.7166 15.5703C34.2155 15.2722 34.7086 14.9568 35.2075 14.6529C35.3566 14.5611 35.4483 14.4292 35.4541 14.263C35.4541 13.896 35.0813 13.7067 34.7488 13.9017Z" fill="white"/>
<path d="M29.7771 13.7238C30.0179 13.7124 30.1842 13.5346 30.19 13.2536C30.1957 12.9612 30.19 12.6688 30.19 12.3763C30.19 12.0839 30.19 11.7914 30.19 11.499C30.1842 11.1951 30.0237 11.0116 29.7656 11.0001C29.5133 10.9944 29.3184 11.1722 29.3184 11.4703C29.3069 12.0667 29.3069 12.663 29.3184 13.2594C29.3184 13.5518 29.5191 13.7353 29.7714 13.7296L29.7771 13.7238Z" fill="white"/>
<path d="M31.6295 14.159C31.8646 14.2966 32.1112 14.2106 32.2774 13.9124C32.5527 13.4308 32.8164 12.9434 33.086 12.4617C33.1376 12.37 33.1834 12.2725 33.1834 12.2209C33.172 11.9514 33.0745 11.808 32.8738 11.7507C32.6444 11.6819 32.4667 11.7736 32.3577 11.9743C32.071 12.4789 31.7843 12.9892 31.5091 13.5053C31.3543 13.792 31.4001 14.0328 31.6295 14.1647V14.159Z" fill="white"/>
</g>
<defs>
<clipPath id="clip0_10714_23469">
<rect width="30" height="30" fill="white" transform="translate(11 11.001)"/>
</clipPath>
</defs>
</svg>
