<svg width="56" height="56" viewBox="0 0 56 56" fill="none" xmlns="http://www.w3.org/2000/svg">
<rect y="0.000976562" width="56" height="56" rx="28" fill="#2C0D4C"/>
<g clip-path="url(#clip0_10714_23935)">
<path d="M38.7088 14.8827L28.9086 12.6986C28.3085 12.5725 27.6887 12.5725 27.0885 12.6986L17.2883 14.8827C16.3549 15.0898 15.5201 15.6093 14.9219 16.3551C14.3237 17.101 13.9978 18.0286 13.9982 18.9848V24.6829C13.9806 28.6566 15.1652 32.5428 17.3965 35.831C19.6278 39.1192 22.8014 41.6557 26.5005 43.1073C26.9758 43.3026 27.4848 43.4024 27.9986 43.4013C28.5108 43.4001 29.0185 43.3052 29.4966 43.1213C33.1946 41.6639 36.3665 39.1241 38.5972 35.8342C40.828 32.5444 42.0136 28.6577 41.9989 24.6829V18.9848C41.9993 18.0286 41.6735 17.101 41.0753 16.3551C40.477 15.6093 39.6422 15.0898 38.7088 14.8827ZM34.6487 24.8649L27.9146 31.4871C27.6523 31.7478 27.2974 31.8942 26.9275 31.8942C26.5577 31.8942 26.2028 31.7478 25.9405 31.4871L22.7484 28.351C22.6172 28.2208 22.5131 28.066 22.442 27.8954C22.3709 27.7248 22.3343 27.5418 22.3343 27.357C22.3343 27.1721 22.3709 26.9891 22.442 26.8185C22.5131 26.6479 22.6172 26.4931 22.7484 26.3629C23.0108 26.1022 23.3656 25.9558 23.7355 25.9558C24.1053 25.9558 24.4602 26.1022 24.7225 26.3629L26.9345 28.533L32.6887 22.9329C32.8201 22.8032 32.9758 22.7008 33.1469 22.6313C33.3179 22.5619 33.501 22.5268 33.6856 22.5281C33.8702 22.5294 34.0528 22.5671 34.2228 22.6389C34.3929 22.7108 34.5471 22.8154 34.6767 22.9469C34.8063 23.0783 34.9088 23.234 34.9782 23.4051C35.0477 23.5761 35.0828 23.7592 35.0815 23.9438C35.0802 24.1284 35.0425 24.3109 34.9707 24.481C34.8988 24.651 34.7942 24.8053 34.6627 24.9349L34.6487 24.8649Z" fill="white"/>
</g>
<defs>
<clipPath id="clip0_10714_23935">
<rect width="32" height="32" fill="white" transform="translate(12 12.001)"/>
</clipPath>
</defs>
</svg>
