<svg width="85" height="85" viewBox="0 0 85 85" fill="none" xmlns="http://www.w3.org/2000/svg">
<path d="M0 42.501C0 19.0289 19.0279 0.000976562 42.5 0.000976562C65.9721 0.000976562 85 19.0289 85 42.501C85 65.9731 65.9721 85.001 42.5 85.001C19.0279 85.001 0 65.9731 0 42.501Z" fill="#2C0D4C"/>
<path d="M26.1964 62.9764C26.0178 63.5968 26.1306 64.2267 26.1212 64.8471C26.1118 65.4581 25.999 65.9846 25.266 66.041C24.6927 66.0786 24.3732 65.6743 24.3638 64.9035C24.3544 63.6156 24.3544 62.3277 24.3638 61.0304C24.3638 60.1562 24.6363 59.9024 25.5103 59.893C26.826 59.8836 28.1417 59.893 29.4574 59.893C30.0777 59.893 30.5288 60.1186 30.5194 60.7954C30.5194 61.4253 30.0683 61.6509 29.4856 61.6509C28.9123 61.6509 28.3391 61.6509 27.6906 61.6509C27.8786 62.0363 28.1605 62.1773 28.3861 62.3559C42.7648 73.364 64.1075 64.8283 66.9268 46.9295C67.8196 41.2798 66.8423 35.959 64.0417 30.9673C63.9759 30.8545 63.9195 30.7417 63.8537 30.6383C63.553 30.1024 63.5342 29.5854 64.1263 29.2658C64.6807 28.965 65.0848 29.2658 65.3762 29.7546C66.5791 31.7946 67.5095 33.9473 68.111 36.2316C72.1991 51.7708 61.7486 67.0844 45.7816 68.833C38.8365 69.5944 32.5587 67.7425 26.9952 63.484C26.7602 63.3054 26.5629 63.0516 26.2152 62.9764H26.1964Z" fill="white"/>
<path d="M59.8784 23.1937C59.8784 22.31 59.8784 21.6614 59.8784 21.0128C59.8784 20.4393 60.0757 19.9881 60.7148 19.9693C61.3914 19.9505 61.6264 20.4017 61.6264 21.0128C61.6264 22.357 61.6358 23.6919 61.6264 25.0362C61.617 25.8165 61.3444 26.0985 60.5738 26.1079C59.2111 26.1267 57.839 26.1079 56.4763 26.1079C55.8842 26.1079 55.4707 25.8541 55.4801 25.2242C55.4801 24.5944 55.9124 24.3594 56.4951 24.3594C57.059 24.3594 57.6323 24.3594 58.2619 24.3594C58.0928 23.9269 57.8014 23.8047 57.5665 23.6261C42.8776 12.7496 22.174 21.0128 19.0821 39.0713C18.1235 44.6835 19.1479 49.9948 21.9109 54.9678C21.9954 55.1182 22.0894 55.278 22.174 55.4284C22.4465 55.9454 22.4371 56.4342 21.8921 56.7351C21.3282 57.0547 20.9335 56.7539 20.6421 56.265C19.4392 54.2251 18.5088 52.0724 17.898 49.788C13.7629 34.2394 24.3637 18.7942 40.3589 17.1491C47.2852 16.4347 53.5348 18.296 59.0513 22.5545C59.2675 22.7237 59.4836 22.8929 59.8784 23.1937Z" fill="white"/>
<path d="M43.0187 59.5272C35.3218 59.546 28.6775 54.3005 26.9013 46.8082C26.8543 46.6108 26.8073 46.4134 26.7885 46.2159C26.7416 45.6989 26.9295 45.3041 27.4746 45.2007C28.0103 45.1067 28.358 45.3793 28.4802 45.8963C28.7057 46.8552 28.9783 47.8046 29.3636 48.7165C31.8634 54.6107 37.8311 58.2675 44.1559 57.7505C50.4994 57.2429 55.8186 52.7212 57.3693 46.5262C57.4351 46.2535 57.4821 45.9715 57.576 45.7177C57.7452 45.2853 58.1023 45.1067 58.5534 45.2007C58.9763 45.2853 59.2019 45.5955 59.2113 46.0185C59.2113 46.2629 59.1549 46.5168 59.0985 46.7612C57.3787 54.2347 50.7344 59.5084 43.0281 59.5178L43.0187 59.5272Z" fill="white"/>
<path d="M42.9997 26.4653C50.6966 26.4653 57.3221 31.7109 59.0889 39.2126C59.1265 39.3818 59.1735 39.5604 59.1923 39.7296C59.2581 40.2466 59.0983 40.6603 58.5627 40.7825C57.9988 40.9141 57.6229 40.6226 57.5007 40.068C57.2658 39.0245 56.9556 38.0187 56.5233 37.041C53.9765 31.2784 48.0088 27.7062 41.8062 28.242C35.425 28.7873 30.1434 33.2902 28.6116 39.4852C28.5834 39.5792 28.5646 39.6826 28.5364 39.7766C28.3296 40.6132 27.9725 40.9235 27.3992 40.7825C26.8542 40.6509 26.6756 40.1714 26.8542 39.3442C28.4518 31.8801 35.2277 26.4747 42.9904 26.4653H42.9997Z" fill="white"/>
<path d="M41.5902 49.1482C40.7256 49.1482 40.1242 48.9038 39.6449 48.4243C38.4231 47.2117 37.192 46.0084 36.0079 44.7675C34.9271 43.6488 34.9553 42.0601 36.0079 41.0261C37.0605 39.992 38.6205 40.0014 39.7482 41.0731C40.1712 41.4679 40.6035 41.8627 40.9794 42.3045C41.3271 42.7088 41.5526 42.6242 41.8816 42.2857C43.404 40.7346 44.9453 39.2023 46.4865 37.67C47.2948 36.871 48.2721 36.6266 49.3435 37.0214C50.3303 37.388 50.8942 38.1307 51.0163 39.1835C51.1197 40.0108 50.8566 40.7346 50.2645 41.3269C47.9056 43.6864 45.5467 46.046 43.1785 48.4055C42.6898 48.8944 42.0883 49.1294 41.5714 49.1388L41.5902 49.1482ZM36.9853 42.8874C36.9947 43.2822 37.2202 43.5172 37.4552 43.7522C38.4889 44.7863 39.5227 45.8298 40.5659 46.8638C41.2895 47.5877 41.5432 47.5877 42.2575 46.8732C44.0337 45.1059 45.8005 43.3292 47.5673 41.5619C48.0466 41.0825 48.5353 40.603 49.0052 40.1048C49.3999 39.6912 49.4093 39.2211 48.9958 38.8263C48.6011 38.4503 48.1688 38.5255 47.774 38.8733C47.6049 39.0237 47.4451 39.1929 47.2854 39.3528C45.6219 41.0167 43.9585 42.6806 42.2951 44.3445C41.6184 45.0213 41.2519 45.0213 40.5659 44.3539C39.8798 43.6864 39.2032 43.0002 38.5171 42.3234C38.2258 42.0319 37.8687 41.9285 37.474 42.1165C37.145 42.2763 36.9947 42.549 36.9853 42.878V42.8874Z" fill="white"/>
</svg>
