<svg width="37" height="36" viewBox="0 0 37 36" fill="none" xmlns="http://www.w3.org/2000/svg">
<g clip-path="url(#clip0_10714_23679)">
<mask id="mask0_10714_23679" style="mask-type:luminance" maskUnits="userSpaceOnUse" x="0" y="0" width="37" height="37">
<path d="M36.3334 0.000976562H0.333374V36.001H36.3334V0.000976562Z" fill="white"/>
</mask>
<g mask="url(#mask0_10714_23679)">
<path d="M35.2787 24.8683C33.1386 24.8683 31.1286 24.0428 29.6185 22.5434C28.1091 21.0449 27.2779 19.0489 27.2779 16.9233C27.2779 16.3408 26.8055 15.8687 26.2232 15.8687C25.6407 15.8687 25.1685 16.3408 25.1685 16.9233C25.1685 19.0489 24.3372 21.0449 22.8276 22.5434C21.3175 24.0428 19.3076 24.8683 17.1674 24.8683C16.5849 24.8683 16.1127 25.3405 16.1127 25.923C16.1127 26.5056 16.5849 26.9777 17.1674 26.9777C21.579 26.9777 25.1685 30.5524 25.1685 34.9462C25.1685 35.5287 25.6407 36.0009 26.2232 36.0009C26.8055 36.0009 27.2779 35.5287 27.2779 34.9462C27.2779 30.5524 30.8671 26.9777 35.2787 26.9777C35.8612 26.9777 36.3334 26.5056 36.3334 25.923C36.3334 25.3405 35.8612 24.8683 35.2787 24.8683Z" fill="#2C0D4C"/>
<path d="M14.7639 16.6223C11.6578 16.6223 9.13067 14.1139 9.13067 11.0303C9.13067 10.448 8.65854 9.97559 8.07598 9.97559C7.49344 9.97559 7.0213 10.448 7.0213 11.0303C7.0213 14.1139 4.49417 16.6223 1.38806 16.6223C0.805512 16.6223 0.333374 17.0947 0.333374 17.677C0.333374 18.2595 0.805512 18.7317 1.38806 18.7317C4.49417 18.7317 7.0213 21.2481 7.0213 24.341C7.0213 24.9233 7.49344 25.3957 8.07598 25.3957C8.65854 25.3957 9.13067 24.9233 9.13067 24.341C9.13067 21.2481 11.6578 18.7317 14.7639 18.7317C15.3465 18.7317 15.8185 18.2595 15.8185 17.677C15.8185 17.0947 15.3465 16.6223 14.7639 16.6223Z" fill="#2C0D4C"/>
<path d="M16.4797 7.28931C18.764 7.28931 20.6227 9.13364 20.6227 11.4004C20.6227 11.9827 21.0948 12.4551 21.6774 12.4551C22.2599 12.4551 22.732 11.9827 22.732 11.4004C22.732 9.12622 24.5906 7.27613 26.875 7.27613C27.4576 7.27613 27.9297 6.80372 27.9297 6.22144C27.9297 5.63888 27.4576 5.16675 26.875 5.16675C24.5906 5.16675 22.732 3.32242 22.732 1.05566C22.732 0.473114 22.2599 0.000976562 21.6774 0.000976562C21.0948 0.000976562 20.6227 0.473114 20.6227 1.05566C20.6227 3.32983 18.764 5.17994 16.4797 5.17994C15.8972 5.17994 15.425 5.65207 15.425 6.23462C15.425 6.81717 15.8972 7.28931 16.4797 7.28931Z" fill="#2C0D4C"/>
</g>
</g>
<defs>
<clipPath id="clip0_10714_23679">
<rect width="36" height="36" fill="white" transform="translate(0.333374 0.000976562)"/>
</clipPath>
</defs>
</svg>
