<svg width="48" height="48" viewBox="0 0 48 48" fill="none" xmlns="http://www.w3.org/2000/svg">
<path d="M47.9173 40.6625C47.81 40.8421 47.6217 40.9494 47.4139 40.9494H0.585948C0.378149 40.9494 0.189861 40.843 0.0835228 40.6635C-0.0237913 40.483 -0.0276937 40.2665 0.0718158 40.084L9.43741 22.9138C9.53985 22.7255 9.73692 22.6084 9.95155 22.6084H23.9999C24.3229 22.6084 24.5853 22.8708 24.5853 23.1937C24.5853 23.5167 24.3229 23.7791 23.9999 23.7791H10.2989L1.57226 39.7787H46.4276L37.7001 23.7791H33.3655C33.0426 23.7791 32.7802 23.5167 32.7802 23.1937C32.7802 22.8708 33.0426 22.6084 33.3655 22.6084H38.0483C38.263 22.6084 38.46 22.7255 38.5625 22.9138L47.9281 40.084C48.0276 40.2665 48.0237 40.483 47.9173 40.6625Z" fill="#2C0D4C"/>
<path d="M13.4871 27.5097L10.3652 30.6316C10.0842 30.9135 9.74863 30.8306 9.5418 30.6228C9.33693 30.4179 9.25596 30.0853 9.5379 29.8043L12.6598 26.6824C12.8003 26.542 12.9417 26.5 13.0598 26.5C13.1105 26.5 13.1573 26.5078 13.1973 26.5185C13.4119 26.5761 13.5944 26.7585 13.6519 26.9722C13.6871 27.1068 13.688 27.3088 13.4871 27.5097Z" fill="#2C0D4C"/>
<path d="M16.6089 29.8515L15.048 31.4125C14.767 31.6944 14.4217 31.6046 14.2187 31.4027C14.1095 31.2925 14.0441 31.1559 14.0363 31.0173C14.0266 30.8622 14.089 30.7169 14.2207 30.5852L15.7816 29.0242C15.9221 28.8837 16.0636 28.8418 16.1816 28.8418C16.2324 28.8418 16.2792 28.8496 16.3192 28.8603C16.5338 28.9179 16.7162 29.1003 16.7738 29.314C16.8089 29.4486 16.8099 29.6506 16.6089 29.8515Z" fill="#2C0D4C"/>
<path d="M12.8783 33.3402C12.8783 33.4963 12.8178 33.6436 12.7066 33.7539L10.3652 36.0953C10.2384 36.2231 10.0881 36.2845 9.93204 36.2738C9.79058 36.2641 9.64717 36.1958 9.53596 36.0855C9.33303 35.8826 9.25499 35.5509 9.53791 35.268L11.8793 32.9266C11.9934 32.8124 12.1427 32.7559 12.293 32.7559C12.4432 32.7559 12.5925 32.8124 12.7066 32.9266C12.8178 33.0378 12.8783 33.1841 12.8783 33.3402Z" fill="#2C0D4C"/>
<path d="M36.705 17.1884L32.4631 15.4919C31.7656 15.2138 31.2056 14.6538 30.9256 13.9563L29.2261 9.71057C29.1178 9.43936 28.874 9.34375 28.6827 9.34375C28.4915 9.34375 28.2476 9.43936 28.1393 9.71057L26.4409 13.9563C26.1609 14.6538 25.5999 15.2138 24.9024 15.4929L20.6605 17.1884C20.3903 17.2967 20.2937 17.5396 20.2937 17.7308C20.2937 17.9221 20.3903 18.1659 20.6605 18.2752L24.9024 19.9708C25.5999 20.2498 26.1609 20.8098 26.4409 21.5073L28.1393 25.754C28.194 25.8887 28.2818 25.9804 28.3803 26.0379C28.4788 26.0955 28.5871 26.1199 28.6827 26.1199C28.8749 26.1199 29.1178 26.0243 29.2261 25.754L30.9256 21.5073C31.2056 20.8098 31.7656 20.2498 32.4631 19.9708L36.705 18.2752C36.9762 18.1669 37.0728 17.923 37.0728 17.7318C37.0728 17.5406 36.9762 17.2957 36.705 17.1884ZM32.028 18.884C31.0339 19.281 30.2359 20.0791 29.8388 21.0722L28.6827 23.9609L27.5267 21.0722C27.1286 20.0781 26.3306 19.2801 25.3375 18.883L22.4546 17.7308L25.3375 16.5777C26.3306 16.1806 27.1286 15.3826 27.5267 14.3895L28.6827 11.5017L29.8398 14.3904C30.2368 15.3846 31.0358 16.1816 32.029 16.5787L34.9109 17.7308L32.028 18.884Z" fill="#2C0D4C"/>
<path d="M20.3152 11.7248L17.7699 10.7062C17.4099 10.5628 17.1211 10.2741 16.9767 9.91504L15.9582 7.3678C15.9036 7.23317 15.8158 7.14146 15.7172 7.08293C15.6187 7.02537 15.5104 7.00098 15.4148 7.00098C15.2226 7.00098 14.9797 7.09756 14.8714 7.3678L13.8519 9.91504C13.7085 10.275 13.4197 10.5638 13.0598 10.7062L10.5145 11.7248C10.2442 11.8321 10.1476 12.076 10.1476 12.2672C10.1476 12.3628 10.172 12.472 10.2296 12.5706C10.2881 12.6691 10.3798 12.7569 10.5145 12.8116L13.0598 13.8291C13.4197 13.9735 13.7085 14.2613 13.8519 14.6203L14.8714 17.1685C14.9797 17.4387 15.2236 17.5343 15.4148 17.5343C15.606 17.5343 15.8499 17.4387 15.9582 17.1685L16.9767 14.6203C17.1211 14.2613 17.4099 13.9725 17.7699 13.8291L20.3142 12.8116C20.5854 12.7033 20.682 12.4594 20.682 12.2672C20.682 12.075 20.5854 11.8321 20.3152 11.7248ZM17.3357 12.7413C16.6801 13.0037 16.1533 13.5296 15.8909 14.1852L15.4148 15.3744L14.9387 14.1852C14.6763 13.5296 14.1495 13.0028 13.4939 12.7413L12.3086 12.2672L13.4939 11.793C14.1495 11.5316 14.6753 11.0057 14.9387 10.3502L15.4148 9.16092L15.8909 10.3502C16.1533 11.0057 16.6801 11.5316 17.3357 11.793L18.5211 12.2672L17.3357 12.7413Z" fill="#2C0D4C"/>
</svg>
