<svg width="41" height="40" viewBox="0 0 41 40" fill="none" xmlns="http://www.w3.org/2000/svg">
<g clip-path="url(#clip0_9019_2368)">
<path d="M40.0803 15.6746C40.0803 15.3413 39.9736 15.2079 39.6269 15.1613C35.8869 14.6813 32.3869 13.5613 29.2736 11.3813C29.0069 11.2013 28.8469 11.3146 28.6469 11.4479C27.2203 12.3946 25.7269 13.1946 24.1203 13.8013C22.2469 14.5013 20.3003 14.8946 18.3269 15.1813C18.0603 15.2213 17.9269 15.2879 17.9269 15.5746C17.8803 19.1746 17.6136 22.7679 18.0269 26.3613C18.2803 28.6213 19.0269 30.6946 20.4803 32.4813C22.4536 34.9146 24.8403 36.9479 27.1936 39.0013C28.2869 39.9413 29.9136 39.8279 31.0136 38.8479C32.7536 37.3213 34.4669 35.7679 36.0936 34.1146C37.9069 32.2746 39.3003 30.1946 39.7869 27.6079C40.2336 25.2413 40.0736 17.2613 40.0803 15.6813V15.6746ZM37.0869 27.0679C36.7269 29.0146 35.6803 30.5746 34.3136 31.9546C33.0936 33.1946 31.8069 34.3613 30.5003 35.5079C29.6736 36.2413 28.4536 36.3279 27.6336 35.6213C25.8669 34.0813 24.0736 32.5546 22.5936 30.7279C21.5003 29.3879 20.9403 27.8346 20.7469 26.1346C20.4336 23.4346 20.6403 20.7413 20.6736 18.0346C20.6736 17.8213 20.7736 17.7679 20.9736 17.7413C22.4536 17.5279 23.9136 17.2346 25.3269 16.7079C26.5336 16.2546 27.6603 15.6546 28.7269 14.9413C28.8736 14.8413 29.0003 14.7546 29.1936 14.8879C31.5269 16.5279 34.1603 17.3679 36.9669 17.7279C37.2269 17.7613 37.3069 17.8613 37.3069 18.1146C37.3069 19.3013 37.4203 25.2946 37.0869 27.0679Z" fill="#400F98"/>
<path d="M17.9068 30.9011C17.1401 30.9477 16.5335 30.6477 15.9668 30.2277C15.4601 29.8544 15.0601 29.3677 14.6135 28.9344C13.0868 27.4411 10.8068 27.6011 9.48014 29.2944C9.07348 29.8144 8.78681 30.4077 8.47348 30.9877C8.00681 31.8611 7.44014 32.6477 6.61348 33.2277C5.60014 33.9411 4.49348 33.9077 3.52681 33.1344C1.60681 31.5811 1.52014 28.9611 3.30681 27.0011C3.90681 26.3411 4.64681 25.8744 5.40681 25.4277C6.72014 24.6677 8.04681 23.9211 9.18681 22.8944C10.2068 21.9811 10.6135 20.8811 10.3201 19.5277C10.0935 18.4944 9.46681 17.9544 8.40681 17.9277C7.47347 17.9011 6.60681 18.1677 5.74681 18.4944C4.88014 18.8211 4.00681 18.8877 3.11348 18.6211C1.53348 18.1477 0.606809 16.6544 0.960142 15.1477C1.24681 13.9344 2.38681 13.1077 3.86014 13.0611C5.02014 13.0211 6.13348 13.3211 7.24681 13.6077C7.92014 13.7811 8.58014 13.9811 9.26014 14.1144C10.0401 14.2677 10.7735 14.0944 11.4335 13.6477C12.9268 12.6411 12.9601 10.7611 11.5068 9.69441C10.8068 9.18108 9.99347 8.96108 9.16681 8.78774C8.06681 8.56108 7.15348 8.10108 6.80014 6.92108C6.24014 5.05441 7.24014 3.33441 9.06014 3.06774C10.0001 2.92774 10.9535 3.42108 11.3735 4.27441C11.5535 4.63441 11.6735 5.02774 11.8401 5.39441C12.5468 6.96774 13.7735 7.93441 15.4401 8.30774C16.4535 8.53441 17.2001 7.92774 17.2868 6.88774C17.3268 6.38108 17.3001 5.87441 17.2401 5.36774C17.1135 4.28108 17.1535 3.20774 17.6135 2.18774C18.2068 0.874412 19.2735 0.247745 20.6935 0.374412C22.0601 0.494412 23.1135 1.32775 23.4135 2.51441C23.7135 3.70108 23.1135 4.92774 21.9001 5.59441C21.4735 5.82774 21.0135 6.01441 20.5935 6.26108C19.7335 6.76108 19.3935 7.61441 19.6535 8.50108C19.9201 9.40108 20.8201 10.0544 21.7535 10.0211C22.2668 10.0011 22.6468 9.75441 22.9668 9.38108C23.3535 8.93441 23.7401 8.48108 24.2601 8.18108C25.0668 7.71441 25.7535 7.84774 26.2935 8.60108C26.7201 9.18774 26.8935 9.87441 27.0268 10.5744C27.0868 10.8811 26.9068 10.9877 26.6935 11.1144C24.4468 12.4211 22.0268 13.2277 19.4735 13.6544C18.7935 13.7677 18.1068 13.8677 17.4201 13.9744C16.8268 14.0677 16.6468 14.2344 16.6335 14.8277C16.5535 18.3611 16.3335 21.8877 16.5935 25.4211C16.7201 27.1811 17.0335 28.9011 17.7601 30.5277C17.8068 30.6344 17.8335 30.7477 17.8868 30.9011H17.9068Z" fill="#400F98"/>
<path d="M28.6733 29.7142C28.3266 29.7142 27.9933 29.5809 27.7466 29.3342L23.4533 25.1009C22.9333 24.5876 22.9266 23.7542 23.44 23.2342C23.9533 22.7142 24.7866 22.7076 25.3066 23.2209L28.62 26.4809L33.4 21.1542C33.8866 20.6142 34.72 20.5676 35.26 21.0542C35.8 21.5409 35.8466 22.3742 35.36 22.9142L29.66 29.2676C29.42 29.5342 29.08 29.6942 28.72 29.7076C28.7066 29.7076 28.6933 29.7076 28.68 29.7076L28.6733 29.7142Z" fill="#400F98"/>
</g>
<defs>
<clipPath id="clip0_9019_2368">
<rect width="40" height="40" fill="white" transform="translate(0.5 0.000976562)"/>
</clipPath>
</defs>
</svg>
