<svg width="24" height="24" viewBox="0 0 24 24" fill="none" xmlns="http://www.w3.org/2000/svg">
<g clip-path="url(#clip0_10714_23172)">
<path d="M23.748 9.40534C23.748 9.20534 23.684 9.12534 23.476 9.09734C21.232 8.80934 19.132 8.13734 17.264 6.82934C17.104 6.72134 17.008 6.78934 16.888 6.86934C16.032 7.43734 15.136 7.91734 14.172 8.28134C13.048 8.70134 11.88 8.93734 10.696 9.10934C10.536 9.13334 10.456 9.17334 10.456 9.34534C10.428 11.5053 10.268 13.6613 10.516 15.8173C10.668 17.1733 11.116 18.4173 11.988 19.4893C13.172 20.9493 14.604 22.1693 16.016 23.4013C16.672 23.9653 17.648 23.8973 18.308 23.3093C19.352 22.3933 20.38 21.4613 21.356 20.4693C22.444 19.3653 23.28 18.1173 23.572 16.5653C23.84 15.1453 23.744 10.3573 23.748 9.40934V9.40534ZM21.952 16.2413C21.736 17.4093 21.108 18.3453 20.288 19.1733C19.556 19.9173 18.784 20.6173 18 21.3053C17.504 21.7453 16.772 21.7973 16.28 21.3733C15.22 20.4493 14.144 19.5333 13.256 18.4373C12.6 17.6333 12.264 16.7013 12.148 15.6813C11.96 14.0613 12.084 12.4453 12.104 10.8213C12.104 10.6933 12.164 10.6613 12.284 10.6453C13.172 10.5173 14.048 10.3413 14.896 10.0253C15.62 9.75334 16.296 9.39334 16.936 8.96534C17.024 8.90534 17.1 8.85334 17.216 8.93334C18.616 9.91734 20.196 10.4213 21.88 10.6373C22.036 10.6573 22.084 10.7173 22.084 10.8693C22.084 11.5813 22.152 15.1773 21.952 16.2413Z" fill="#2C0D4C"/>
<path d="M10.444 18.5414C9.984 18.5694 9.62 18.3894 9.28 18.1374C8.976 17.9134 8.736 17.6214 8.468 17.3614C7.552 16.4654 6.184 16.5614 5.388 17.5774C5.144 17.8894 4.972 18.2454 4.784 18.5934C4.504 19.1174 4.164 19.5894 3.668 19.9374C3.06 20.3654 2.396 20.3454 1.816 19.8814C0.663997 18.9494 0.611997 17.3774 1.684 16.2014C2.044 15.8054 2.488 15.5254 2.944 15.2574C3.732 14.8014 4.528 14.3534 5.212 13.7374C5.824 13.1894 6.068 12.5294 5.892 11.7174C5.756 11.0974 5.38 10.7734 4.744 10.7574C4.184 10.7414 3.664 10.9014 3.148 11.0974C2.628 11.2934 2.104 11.3334 1.568 11.1734C0.619997 10.8894 0.0639969 9.99343 0.275997 9.08943C0.447997 8.36143 1.132 7.86543 2.016 7.83743C2.712 7.81343 3.38 7.99343 4.048 8.16543C4.452 8.26943 4.848 8.38943 5.256 8.46943C5.724 8.56143 6.164 8.45743 6.56 8.18943C7.456 7.58543 7.476 6.45743 6.604 5.81743C6.184 5.50943 5.696 5.37743 5.2 5.27343C4.54 5.13743 3.992 4.86143 3.78 4.15343C3.444 3.03343 4.044 2.00143 5.136 1.84143C5.7 1.75743 6.272 2.05343 6.524 2.56543C6.632 2.78143 6.704 3.01743 6.804 3.23743C7.228 4.18143 7.964 4.76143 8.964 4.98543C9.572 5.12143 10.02 4.75743 10.072 4.13343C10.096 3.82943 10.08 3.52543 10.044 3.22143C9.968 2.56943 9.992 1.92543 10.268 1.31343C10.624 0.525428 11.264 0.149428 12.116 0.225428C12.936 0.297428 13.568 0.797428 13.748 1.50943C13.928 2.22143 13.568 2.95743 12.84 3.35743C12.584 3.49743 12.308 3.60943 12.056 3.75743C11.54 4.05743 11.336 4.56943 11.492 5.10143C11.652 5.64143 12.192 6.03343 12.752 6.01343C13.06 6.00143 13.288 5.85343 13.48 5.62943C13.712 5.36143 13.944 5.08943 14.256 4.90943C14.74 4.62943 15.152 4.70943 15.476 5.16143C15.732 5.51343 15.836 5.92543 15.916 6.34543C15.952 6.52943 15.844 6.59343 15.716 6.66943C14.368 7.45343 12.916 7.93743 11.384 8.19343C10.976 8.26143 10.564 8.32143 10.152 8.38543C9.796 8.44143 9.688 8.54143 9.68 8.89743C9.632 11.0174 9.5 13.1334 9.656 15.2534C9.732 16.3094 9.92 17.3414 10.356 18.3174C10.384 18.3814 10.4 18.4494 10.432 18.5414H10.444Z" fill="#2C0D4C"/>
<path d="M16.904 17.8288C16.696 17.8288 16.496 17.7488 16.348 17.6008L13.772 15.0608C13.46 14.7528 13.456 14.2528 13.764 13.9408C14.072 13.6288 14.572 13.6248 14.884 13.9328L16.872 15.8888L19.74 12.6928C20.032 12.3688 20.532 12.3408 20.856 12.6328C21.18 12.9248 21.208 13.4248 20.916 13.7488L17.496 17.5608C17.352 17.7208 17.148 17.8168 16.932 17.8248C16.924 17.8248 16.916 17.8248 16.908 17.8248L16.904 17.8288Z" fill="#2C0D4C"/>
</g>
<defs>
<clipPath id="clip0_10714_23172">
<rect width="24" height="24" fill="white" transform="translate(0 0.000976562)"/>
</clipPath>
</defs>
</svg>
