<svg width="48" height="48" viewBox="0 0 48 48" fill="none" xmlns="http://www.w3.org/2000/svg">
<path d="M33.6932 20.3525C33.5652 20.0725 33.4772 19.8005 33.5092 19.4885C33.7092 17.1525 33.9012 14.8165 34.0932 12.4805C34.2052 11.1365 33.3092 9.93654 31.9972 9.66454C31.1492 9.48854 30.3812 9.74454 29.6292 10.0805C29.4692 10.1525 29.3492 10.2165 29.2132 10.0325C28.1972 8.75254 26.1012 8.46454 24.5812 9.82454C23.2372 11.0245 21.8292 12.1445 20.4452 13.2965C20.3252 13.3925 20.2292 13.5365 20.0532 13.5605C19.9332 12.8565 19.9652 12.7285 20.3332 12.1765C20.4612 11.9925 20.5892 11.8085 20.7172 11.6165L23.0772 8.16054H23.0692C23.1492 8.02454 23.2452 7.90454 23.3252 7.77654C23.7332 7.10454 23.8532 6.36854 23.6852 5.60854C23.3972 4.28054 22.5732 3.41654 21.2532 3.14454C19.9492 2.87254 18.8372 3.30454 18.0612 4.40054C16.8932 6.05654 15.7652 7.75254 14.6132 9.42454C14.0212 10.2805 13.7332 11.2165 13.7332 12.2645C13.7492 14.3525 13.7332 16.4405 13.7412 18.5285C13.7412 18.8005 13.6612 18.9845 13.4532 19.1525C12.9092 19.5845 12.3732 20.0325 11.8532 20.4885C10.6052 21.5845 9.93324 22.9765 10.0052 24.6405C10.0532 25.9045 10.1652 27.1685 10.2772 28.4325C10.2772 28.4325 10.3732 31.3845 10.7332 33.2165H10.7492C10.9812 34.3685 11.3812 35.4485 12.0212 36.4405C12.8852 37.7845 13.9652 38.9605 14.9412 40.2165C15.1092 40.4325 15.1892 40.6485 15.1812 40.9205C15.1652 42.0005 15.1732 43.0725 15.1812 44.1525C15.1812 44.6165 15.4052 44.8725 15.7732 44.8805C16.1572 44.8885 16.3892 44.6245 16.3972 44.1445C16.4052 43.5285 16.3972 42.9205 16.3972 42.3045C16.3972 41.7045 16.3972 41.1045 16.3972 40.5045C16.3972 40.2165 16.3172 39.9845 16.1332 39.7605C15.3812 38.8245 14.6532 37.8725 13.8852 36.9525C12.9972 35.8805 12.3492 34.6965 12.0212 33.3765C11.8052 31.9285 11.6532 30.2725 11.5812 29.3125C11.4852 27.9845 11.4132 26.6485 11.2532 25.3285C11.0452 23.5685 11.6452 22.2085 13.0052 21.0965C15.4932 19.0565 17.9492 16.9765 20.4132 14.9045C22.0932 13.4965 23.7812 12.0885 25.4612 10.6725C26.0132 10.2085 26.6212 10.0165 27.3172 10.2085C28.0532 10.4085 28.5172 10.9125 28.6692 11.6485C28.8292 12.4245 28.5732 13.0885 27.9492 13.5685C25.3892 15.5445 23.1412 17.8965 20.3652 19.6245C19.0852 20.4245 18.0292 21.5845 16.8852 22.5925C16.5972 22.8405 16.5972 23.2165 16.8212 23.4645C17.0452 23.7045 17.3732 23.7285 17.6692 23.5125C17.7332 23.4645 17.7972 23.4085 17.8532 23.3525C18.8612 22.4725 19.8692 21.5925 20.8772 20.7205C21.5492 20.1365 22.3092 20.1285 22.9892 20.6885C23.0932 20.7765 23.1972 20.8645 23.3012 20.9525C24.8212 22.2405 26.3412 23.5285 27.8532 24.8245C28.9172 25.7445 28.7652 27.3445 27.5732 27.9925C27.3252 28.1285 27.1572 28.1205 26.9332 27.9205C25.8932 27.0165 24.8452 26.1285 23.7892 25.2405C22.7092 24.3365 21.3092 24.2645 20.2612 25.1285C19.1252 26.0645 18.0292 27.0565 16.9172 28.0165C16.7892 28.1285 16.6852 28.2485 16.6692 28.4245C16.6372 28.6965 16.7252 28.9125 16.9652 29.0485C17.2532 29.2085 17.5092 29.1285 17.7492 28.9205C18.7972 28.0085 19.8452 27.0885 20.9012 26.1845C21.5412 25.6325 22.3092 25.6005 22.9492 26.1365C24.6212 27.5445 26.2852 28.9525 27.9332 30.3765C28.5332 30.8965 28.7092 31.5845 28.4932 32.3445C28.1012 33.6805 26.5172 34.1365 25.4292 33.2405C24.4772 32.4485 23.5332 31.6325 22.5892 30.8325C22.0452 30.3685 21.8372 30.3765 21.3412 30.8645C21.1732 31.0245 21.0132 31.1925 20.8532 31.3525C20.4052 31.8005 20.3332 32.1365 20.6212 32.4325C20.9252 32.7445 21.2692 32.6965 21.7252 32.2005C21.9492 31.9605 22.0852 31.9925 22.3092 32.1925C23.1012 32.8805 23.8852 33.5765 24.7092 34.2325C25.7492 35.0565 26.9092 35.1845 28.0852 34.5845C29.2452 33.9925 29.8212 33.0085 29.7972 31.6965C29.7812 30.6725 29.3012 29.8805 28.5172 29.2485C28.3812 29.1445 28.2132 29.0805 28.4692 28.8725C30.2452 27.4725 30.2692 25.2485 28.5412 23.7845C27.9492 23.2805 27.3652 22.7685 26.7572 22.2805C26.5652 22.1285 26.5012 21.9845 26.5572 21.7285C26.9012 20.0485 27.2692 18.3685 27.5412 16.6725C27.6932 15.7285 27.9892 14.9765 28.8132 14.4005C29.6132 13.8405 29.9492 12.9605 29.9412 11.9685C29.9412 11.1605 29.9412 11.1605 30.7252 10.9285C30.8532 10.8885 30.9892 10.8565 31.1252 10.8325C32.1092 10.6405 32.9412 11.3605 32.8612 12.3525C32.6932 14.4325 32.5332 16.5125 32.3252 18.5845C32.2292 19.5605 32.2932 20.4725 32.8052 21.3445C33.1012 21.8485 33.3252 22.3925 33.5812 22.9205C34.6692 25.2245 34.9332 27.6085 34.3492 30.0885C34.1732 30.8485 33.8772 31.5605 33.5652 32.2645L31.8292 36.1285C31.3892 37.1045 30.9572 38.0885 30.5092 39.0645C30.3732 39.3525 30.3092 39.6485 30.3092 39.9685C30.3172 41.3045 30.3252 42.6405 30.3092 43.9765C30.3092 44.3525 30.3732 44.6645 30.6692 44.9125H31.1572C31.4852 44.6885 31.5492 44.3685 31.5492 43.9925C31.5332 42.7125 31.5492 41.4325 31.5492 40.1525C31.5492 39.9045 31.5892 39.6725 31.7012 39.4405C32.0692 38.6405 32.4292 37.8325 32.7812 37.0325L34.5732 33.0405C34.6532 32.8645 34.7332 32.6885 34.8132 32.5125C36.0692 29.6565 36.2292 26.7525 35.2532 23.7845C34.8532 22.5765 34.2212 21.4725 33.6852 20.3285L33.6932 20.3525ZM18.0852 15.2965C17.0372 16.0885 16.0532 16.9765 14.9732 17.8805C14.9732 15.7925 14.9652 13.8005 14.9732 11.8085C14.9732 11.2805 15.1732 10.7925 15.4692 10.3525C16.6532 8.60854 17.8372 6.85654 19.0452 5.12054C19.6532 4.24854 20.7892 4.05654 21.6532 4.62454C22.5092 5.19254 22.7572 6.32854 22.2132 7.22454C22.1252 7.36854 22.0292 7.51254 21.9332 7.64854L19.5892 11.0485C19.0292 11.8325 18.5732 12.6645 18.7732 13.7445C18.8932 14.4165 18.6372 14.8725 18.0852 15.2885V15.2965ZM25.4372 21.1445C24.6052 20.5365 23.9492 19.7925 23.0692 19.2805C24.1412 18.3845 25.1972 17.5045 26.3332 16.5445C26.0212 18.1365 25.7332 19.6165 25.4292 21.1445H25.4372Z" fill="#2C0D4C"/>
<path d="M36.1576 7.10586C35.4616 7.52186 34.7656 7.95386 34.0776 8.38586C33.7176 8.61786 33.6216 8.93786 33.7976 9.24986C33.9816 9.56986 34.3416 9.64986 34.7176 9.43386C35.4136 9.01786 36.1016 8.57786 36.7976 8.15386C37.0056 8.02586 37.1336 7.84186 37.1416 7.60986C37.1416 7.09786 36.6216 6.83386 36.1576 7.10586Z" fill="#2C0D4C"/>
<path d="M29.2213 6.8578C29.5573 6.8418 29.7893 6.5938 29.7973 6.2018C29.8053 5.7938 29.7973 5.3858 29.7973 4.9778C29.7973 4.5698 29.7973 4.16181 29.7973 3.75381C29.7893 3.32981 29.5653 3.07381 29.2053 3.05781C28.8533 3.04981 28.5813 3.2978 28.5813 3.7138C28.5653 4.5458 28.5653 5.37781 28.5813 6.20981C28.5813 6.61781 28.8613 6.8738 29.2133 6.8658L29.2213 6.8578Z" fill="#2C0D4C"/>
<path d="M31.8056 7.46485C32.1336 7.65685 32.4776 7.53685 32.7096 7.12085C33.0936 6.44885 33.4616 5.76885 33.8376 5.09685C33.9096 4.96885 33.9736 4.83285 33.9736 4.76085C33.9576 4.38485 33.8216 4.18485 33.5416 4.10485C33.2216 4.00885 32.9736 4.13685 32.8216 4.41685C32.4216 5.12085 32.0216 5.83285 31.6376 6.55285C31.4216 6.95285 31.4856 7.28885 31.8056 7.47285V7.46485Z" fill="#2C0D4C"/>
</svg>
