<svg width="56" height="56" viewBox="0 0 56 56" fill="none" xmlns="http://www.w3.org/2000/svg">
<rect y="0.000976562" width="56" height="56" rx="28" fill="#2C0D4C"/>
<path d="M29.62 15.565V13.75H30.5C31.2562 13.75 31.875 13.1312 31.875 12.375C31.875 11.6188 31.2562 11 30.5 11H26.0038C25.2475 11 24.6288 11.6188 24.6288 12.375C24.6288 13.1312 25.2475 13.75 26.0038 13.75H26.87V15.565C24.67 15.7713 22.6075 16.4862 20.8063 17.6L19.5551 15.9637C19.0875 15.3587 18.2213 15.2488 17.6163 15.7025C17.025 16.17 16.9012 17.0363 17.3688 17.6413L18.6063 19.2638C15.7738 21.8763 14 25.6025 14 29.7413C14 37.6063 20.3938 44 28.245 44C36.11 44 42.5038 37.6063 42.5038 29.7413C42.5038 22.3575 36.8387 16.2525 29.62 15.565ZM28.245 39.5725C22.8138 39.5725 18.4275 35.1725 18.4275 29.755C18.4275 24.7913 22.0988 20.6801 26.8837 20.0338V29.755C26.8837 30.5113 27.5025 31.13 28.2587 31.13H37.9662C37.3063 35.9012 33.2088 39.5725 28.245 39.5725Z" fill="white"/>
</svg>
