<svg width="85" height="85" viewBox="0 0 85 85" fill="none" xmlns="http://www.w3.org/2000/svg">
<path d="M0 42.501C0 19.0289 19.0279 0.000976562 42.5 0.000976562C65.9721 0.000976562 85 19.0289 85 42.501C85 65.9731 65.9721 85.001 42.5 85.001C19.0279 85.001 0 65.9731 0 42.501Z" fill="#2C0D4C"/>
<path d="M68.6976 45.3978C68.5669 45.1364 68.2401 45.0057 67.9786 44.9403C66.4753 44.9403 53.5334 44.4174 53.5334 29.3839C53.5334 28.9264 53.1412 28.5342 52.6837 28.5342C52.2262 28.5342 51.834 28.9264 51.834 29.3839C51.834 44.4174 38.8921 44.9403 37.4541 44.9403C37.258 44.9403 37.0619 45.0057 36.9312 45.1364C36.8005 45.2017 36.7351 45.3325 36.6698 45.3978C36.539 45.6593 36.539 45.9861 36.6698 46.2476C36.8005 46.509 37.1273 46.7051 37.4541 46.7051C37.4541 46.7051 37.4541 46.7051 37.5195 46.7051C39.0228 46.7051 51.8993 47.228 51.8993 62.2615C51.8993 62.719 52.2915 63.1112 52.7491 63.1112C53.2066 63.1112 53.5988 62.719 53.5988 62.2615C53.5988 47.2934 66.4753 46.7051 67.9786 46.7051C68.3055 46.7051 68.5669 46.509 68.763 46.2476C68.8937 45.9861 68.8937 45.6593 68.6976 45.3978ZM52.6837 55.8559C50.7882 49.6464 46.1474 46.9665 42.4871 45.79C46.1474 44.6135 50.7882 41.9336 52.6837 35.7241C54.5792 41.9336 59.22 44.6135 62.8803 45.79C59.22 46.9665 54.5792 49.6464 52.6837 55.8559Z" fill="white"/>
<path d="M41.8988 28.4032C42.3564 28.4032 42.7485 28.011 42.7485 27.4881C42.7485 27.0306 42.3564 26.6384 41.8988 26.6384C41.1145 26.6384 34.0553 26.377 34.0553 18.1412C34.0553 17.6837 33.6631 17.2915 33.2055 17.2915C32.748 17.2915 32.3558 17.6837 32.3558 18.1412C32.3558 26.377 25.2966 26.6384 24.5123 26.6384C24.4469 26.6384 24.4469 26.6384 24.4469 26.6384C23.9894 26.7038 23.6625 27.0306 23.6625 27.4881C23.6625 27.9457 24.0547 28.3379 24.5123 28.3379C25.362 28.3379 32.3558 28.5993 32.3558 36.835C32.3558 37.2926 32.748 37.6848 33.2055 37.6848C33.5977 37.7501 33.9899 37.3579 33.9899 36.9004C33.9899 28.6647 41.0491 28.4032 41.8335 28.4032H41.8988ZM33.1402 32.1289C32.0944 29.6451 30.1988 28.2725 28.434 27.4881C30.3296 26.7038 32.0944 25.2004 33.1402 22.8474C34.186 25.3312 36.0815 26.7038 37.8463 27.4881C35.9508 28.2725 34.186 29.7758 33.1402 32.1289Z" fill="white"/>
<path d="M34.3821 56.1174C33.5977 56.1174 26.5385 55.856 26.5385 47.6202C26.5385 47.1627 26.1464 46.7705 25.6888 46.7705C25.2313 46.7705 24.8391 47.1627 24.8391 47.6202C24.8391 55.856 17.7799 56.1174 16.9955 56.1174C16.9302 56.1174 16.9302 56.1174 16.9302 56.1174C16.4726 56.1828 16.1458 56.5096 16.1458 56.9671C16.1458 57.4247 16.538 57.8169 16.9955 57.8169C17.8453 57.8169 24.8391 58.0783 24.8391 66.314C24.8391 66.7716 25.2313 67.1638 25.6888 67.1638C26.081 67.2945 26.4732 66.9023 26.4732 66.3794C26.4732 58.1437 33.5324 57.8822 34.3167 57.8822H34.3821C34.8396 57.8822 35.2318 57.49 35.2318 56.9671C35.2318 56.5096 34.8396 56.1174 34.3821 56.1174ZM25.6234 61.6733C24.5123 59.1895 22.6821 57.8169 20.9173 57.0325C22.8128 56.2481 24.5776 54.7448 25.6234 52.3917C26.6693 54.8755 28.5648 56.2481 30.3296 57.0325C28.4341 57.8169 26.6693 59.3202 25.6234 61.6733Z" fill="white"/>
</svg>
