<svg width="56" height="56" viewBox="0 0 56 56" fill="none" xmlns="http://www.w3.org/2000/svg">
<rect y="0.000976562" width="56" height="56" rx="28" fill="#2C0D4C"/>
<g clip-path="url(#clip0_10714_23954)">
<path d="M43.2863 36.2693L40.4007 34.3477C40.659 33.3396 40.7976 32.2875 40.7976 31.2038C40.7976 25.4263 32.2542 15.6354 29.1292 12.4725C28.5054 11.8425 27.491 11.8425 26.8673 12.4725C25.3237 14.0287 22.4696 17.2168 19.9683 20.7261L14.4869 17.0719C13.7498 16.5804 12.7606 16.782 12.2692 17.5129C11.7777 18.25 11.9793 19.2392 12.7102 19.7307L41.5159 38.9344C42.4861 39.533 43.4249 38.9533 43.7336 38.4934C44.2188 37.75 44.0234 36.7545 43.2863 36.2693Z" fill="white"/>
<path d="M15.1926 31.1974C15.1926 38.2665 20.926 44 27.9951 44C31.6745 44 34.976 42.4437 37.3135 39.9551L16.6291 26.1697C15.7533 27.9905 15.1926 29.7231 15.1926 31.1974Z" fill="white"/>
</g>
<defs>
<clipPath id="clip0_10714_23954">
<rect width="32" height="32" fill="white" transform="translate(12 12)"/>
</clipPath>
</defs>
</svg>
