<svg width="48" height="48" viewBox="0 0 48 48" fill="none" xmlns="http://www.w3.org/2000/svg">
<path d="M46.8635 26.5289C46.7494 26.3007 46.4642 26.1866 46.236 26.1296C44.924 26.1296 33.6292 25.6732 33.6292 12.5531C33.6292 12.1538 33.287 11.8115 32.8877 11.8115C32.4884 11.8115 32.1461 12.1538 32.1461 12.5531C32.1461 25.6732 20.8514 26.1296 19.5964 26.1296C19.4253 26.1296 19.2541 26.1866 19.14 26.3007C19.0259 26.3578 18.9689 26.4719 18.9119 26.5289C18.7978 26.7571 18.7978 27.0423 18.9119 27.2705C19.0259 27.4986 19.3112 27.6698 19.5964 27.6698C19.5964 27.6698 19.5964 27.6698 19.6534 27.6698C20.9654 27.6698 32.2031 28.1261 32.2031 41.2463C32.2031 41.6456 32.5454 41.9878 32.9447 41.9878C33.344 41.9878 33.6863 41.6456 33.6863 41.2463C33.6863 28.1832 44.924 27.6698 46.236 27.6698C46.5212 27.6698 46.7494 27.4986 46.9205 27.2705C47.0346 27.0423 47.0346 26.7571 46.8635 26.5289ZM32.8877 35.6559C31.2334 30.2368 27.1833 27.898 23.9888 26.8712C27.1833 25.8444 31.2334 23.5056 32.8877 18.0864C34.5419 23.5056 38.5921 25.8444 41.7865 26.8712C38.5921 27.898 34.5419 30.2368 32.8877 35.6559Z" fill="#2C0D4C"/>
<path d="M23.4754 11.6975C23.8747 11.6975 24.2169 11.3552 24.2169 10.8989C24.2169 10.4996 23.8747 10.1573 23.4754 10.1573C22.7908 10.1573 16.6301 9.92913 16.6301 2.74157C16.6301 2.34226 16.2878 2 15.8885 2C15.4892 2 15.1469 2.34226 15.1469 2.74157C15.1469 9.92913 8.98616 10.1573 8.30163 10.1573C8.24459 10.1573 8.24459 10.1573 8.24459 10.1573C7.84528 10.2143 7.56006 10.4996 7.56006 10.8989C7.56006 11.2982 7.90232 11.6404 8.30163 11.6404C9.0432 11.6404 15.1469 11.8686 15.1469 19.0562C15.1469 19.4555 15.4892 19.7978 15.8885 19.7978C16.2308 19.8548 16.573 19.5125 16.573 19.1132C16.573 11.9257 22.7338 11.6975 23.4183 11.6975H23.4754ZM15.8315 14.949C14.9187 12.7813 13.2645 11.5834 11.7243 10.8989C13.3786 10.2143 14.9187 8.90233 15.8315 6.84875C16.7442 9.01642 18.3984 10.2143 19.9386 10.8989C18.2843 11.5834 16.7442 12.8954 15.8315 14.949Z" fill="#2C0D4C"/>
<path d="M16.9153 35.8848C16.2308 35.8848 10.07 35.6567 10.07 28.4691C10.07 28.0698 9.72775 27.7275 9.32844 27.7275C8.92913 27.7275 8.58686 28.0698 8.58686 28.4691C8.58686 35.6567 2.4261 35.8848 1.74157 35.8848C1.68453 35.8848 1.68453 35.8848 1.68453 35.8848C1.28522 35.9419 1 36.2271 1 36.6264C1 37.0257 1.34226 37.368 1.74157 37.368C2.48315 37.368 8.58686 37.5962 8.58686 44.7837C8.58686 45.183 8.92913 45.5253 9.32844 45.5253C9.6707 45.6394 10.013 45.2971 10.013 44.8408C10.013 37.6532 16.1737 37.425 16.8583 37.425H16.9153C17.3146 37.425 17.6569 37.0828 17.6569 36.6264C17.6569 36.2271 17.3146 35.8848 16.9153 35.8848ZM9.27139 40.7336C8.30164 38.5659 6.70441 37.368 5.16422 36.6835C6.8185 35.9989 8.35869 34.6869 9.27139 32.6333C10.1841 34.801 11.8384 35.9989 13.3786 36.6835C11.7243 37.368 10.1841 38.68 9.27139 40.7336Z" fill="#2C0D4C"/>
</svg>
