<svg width="48" height="48" viewBox="0 0 48 48" fill="none" xmlns="http://www.w3.org/2000/svg">
<path d="M10.43 40.1355C10.2857 40.6366 10.3768 41.1453 10.3692 41.6464C10.3616 42.14 10.2705 42.5652 9.67827 42.6107C9.21511 42.6411 8.95695 42.3146 8.94936 41.692C8.94177 40.6518 8.94177 39.6116 8.94936 38.5638C8.94936 37.8576 9.16955 37.6526 9.87568 37.645C10.9387 37.6374 12.0017 37.645 13.0647 37.645C13.5658 37.645 13.9302 37.8273 13.9226 38.3739C13.9226 38.8827 13.5582 39.0649 13.0874 39.0649C12.6243 39.0649 12.1611 39.0649 11.6372 39.0649C11.7891 39.3762 12.0169 39.4901 12.1991 39.6344C23.8161 48.5255 41.0593 41.6313 43.3372 27.1746C44.0585 22.6113 43.2688 18.3138 41.0062 14.282C40.953 14.1909 40.9075 14.0998 40.8543 14.0162C40.6113 13.5835 40.5961 13.1659 41.0745 12.9077C41.5225 12.6647 41.849 12.9077 42.0843 13.3025C43.0562 14.9502 43.8079 16.6889 44.2938 18.534C47.5967 31.0849 39.1535 43.4535 26.2533 44.8658C20.6423 45.4808 15.5703 43.985 11.0753 40.5455C10.8855 40.4012 10.7261 40.1962 10.4451 40.1355H10.43Z" fill="#2C0D4C"/>
<path d="M37.6425 8.00358C37.6425 7.28986 37.6425 6.76595 37.6425 6.24205C37.6425 5.77889 37.802 5.41443 38.3183 5.39925C38.865 5.38406 39.0548 5.74852 39.0548 6.24205C39.0548 7.32782 39.0624 8.406 39.0548 9.49177C39.0472 10.122 38.827 10.3498 38.2044 10.3573C37.1034 10.3725 35.9949 10.3573 34.8939 10.3573C34.4156 10.3573 34.0815 10.1523 34.0891 9.64362C34.0891 9.13491 34.4384 8.94509 34.9091 8.94509C35.3647 8.94509 35.8278 8.94509 36.3366 8.94509C36.1999 8.59582 35.9645 8.49711 35.7747 8.35285C23.9071 -0.432022 7.18021 6.24205 4.68218 20.8278C3.90771 25.3607 4.73533 29.6506 6.96761 33.6672C7.03594 33.7887 7.11187 33.9178 7.18021 34.0393C7.4004 34.4569 7.39281 34.8517 6.95242 35.0947C6.49686 35.3528 6.17796 35.1099 5.94258 34.715C4.9707 33.0674 4.21902 31.3287 3.72548 29.4836C0.384652 16.9251 8.94933 4.45015 21.8723 3.12141C27.4682 2.54436 32.5174 4.04773 36.9743 7.48727C37.149 7.62394 37.3236 7.76061 37.6425 8.00358Z" fill="#2C0D4C"/>
<path d="M24.0212 37.3499C17.8027 37.3651 12.4346 33.1283 10.9995 27.0769C10.9616 26.9174 10.9236 26.758 10.9084 26.5985C10.8705 26.1809 11.0223 25.862 11.4627 25.7785C11.8955 25.7026 12.1764 25.9228 12.2751 26.3404C12.4574 27.1148 12.6776 27.8817 12.9889 28.6182C15.0085 33.3789 19.83 36.3325 24.9399 35.9149C30.0651 35.5049 34.3626 31.8527 35.6154 26.8491C35.6685 26.6289 35.7065 26.4011 35.7824 26.1961C35.9191 25.8468 36.2076 25.7026 36.5721 25.7785C36.9138 25.8468 37.096 26.0974 37.1036 26.4391C37.1036 26.6365 37.058 26.8415 37.0125 27.0389C35.623 33.0752 30.2549 37.3347 24.0288 37.3423L24.0212 37.3499Z" fill="#2C0D4C"/>
<path d="M24.0059 10.6455C30.2244 10.6455 35.5773 14.8823 37.0048 20.9413C37.0351 21.078 37.0731 21.2223 37.0883 21.3589C37.1414 21.7766 37.0123 22.1106 36.5796 22.2093C36.124 22.3156 35.8203 22.0803 35.7216 21.6323C35.5317 20.7895 35.2812 19.9771 34.9319 19.1874C32.8743 14.533 28.0528 11.6478 23.0416 12.0805C17.8861 12.5209 13.6189 16.1579 12.3813 21.1615C12.3585 21.2375 12.3433 21.321 12.3206 21.3969C12.1535 22.0727 11.865 22.3232 11.4018 22.2093C10.9615 22.103 10.8172 21.7158 10.9615 21.0476C12.2522 15.019 17.7266 10.6531 23.9983 10.6455H24.0059Z" fill="#2C0D4C"/>
<path d="M22.8671 28.967C22.1685 28.967 21.6826 28.7696 21.2954 28.3823C20.3083 27.4029 19.3136 26.431 18.3569 25.4287C17.4838 24.5252 17.5065 23.242 18.3569 22.4068C19.2073 21.5716 20.4677 21.5792 21.3789 22.4448C21.7205 22.7637 22.0698 23.0826 22.3735 23.4394C22.6545 23.7659 22.8367 23.6976 23.1024 23.4242C24.3325 22.1714 25.5777 20.9338 26.8229 19.6962C27.4759 19.0508 28.2655 18.8534 29.1311 19.1723C29.9284 19.4684 30.3839 20.0682 30.4826 20.9186C30.5662 21.5868 30.3536 22.1714 29.8752 22.6498C27.9694 24.5556 26.0636 26.4614 24.1502 28.3671C23.7554 28.762 23.2695 28.9518 22.8519 28.9594L22.8671 28.967ZM19.1466 23.9102C19.1542 24.2291 19.3364 24.4189 19.5262 24.6087C20.3614 25.4439 21.1966 26.2867 22.0394 27.1219C22.6241 27.7066 22.8291 27.7066 23.4061 27.1295C24.8412 25.7021 26.2686 24.267 27.6961 22.8396C28.0833 22.4524 28.4781 22.0651 28.8578 21.6627C29.1767 21.3286 29.1843 20.949 28.8502 20.6301C28.5313 20.3264 28.182 20.3871 27.8631 20.668C27.7264 20.7895 27.5974 20.9262 27.4683 21.0553C26.1244 22.3992 24.7804 23.7431 23.4365 25.0871C22.8898 25.6337 22.5937 25.6337 22.0394 25.0946C21.4852 24.5556 20.9385 24.0013 20.3842 23.4546C20.1488 23.2192 19.8603 23.1357 19.5414 23.2876C19.2757 23.4166 19.1542 23.6368 19.1466 23.9026V23.9102Z" fill="#2C0D4C"/>
</svg>
