<svg width="56" height="56" viewBox="0 0 56 56" fill="none" xmlns="http://www.w3.org/2000/svg">
<rect y="0.000976562" width="56" height="56" rx="28" fill="#2C0D4C"/>
<path d="M32.7267 27.31C34.045 27.3217 34.9725 27.8758 35.13 28.9083C35.2175 29.48 35.445 29.5908 35.9292 29.69C37.0492 29.9233 37.7083 30.775 37.72 31.9183C37.72 32.14 37.7958 32.2042 37.9942 32.245C39.3183 32.5075 40.6017 34.555 39.6917 36.0717C38.8167 37.53 38.0642 39.0583 37.3117 40.5808C35.0483 45.1483 29.2267 46.8342 24.6942 44.4017C21.585 42.7333 19.4558 40.26 18.3242 36.9058C17.3908 34.1408 16.4925 31.3642 15.6058 28.5817C15.0925 26.9717 15.4775 25.5775 16.6383 24.6733C17.9042 23.6875 19.4033 23.7167 20.64 24.7492C21.0833 25.1225 21.4333 25.5717 21.69 26.0908C22.2733 27.2925 22.8567 28.4942 23.4458 29.6958C23.4633 29.7308 23.4808 29.7658 23.5042 29.8008C23.6033 29.97 23.6908 30.18 23.9067 30.1917C24.14 30.2033 24.2042 29.97 24.2917 29.8008C25.3358 27.8117 26.38 25.8225 27.4242 23.8333C28.2058 22.34 28.9875 20.8408 29.775 19.3533C29.9208 19.0792 30.0725 18.805 30.2533 18.5542C31.6125 16.6817 34.2142 16.81 35.375 18.8167C35.9933 19.8842 36.11 20.9517 35.4625 22.1008C34.57 23.6817 33.7592 25.315 32.9192 26.925C32.8608 27.0358 32.8083 27.1525 32.7267 27.3158V27.31Z" fill="white"/>
<path d="M29.5534 13.3566C29.5534 13.6541 29.5825 13.9575 29.5475 14.2491C29.4834 14.8208 29.0517 15.1941 28.4975 15.2C27.9317 15.2 27.4709 14.8091 27.4359 14.22C27.4009 13.6366 27.4009 13.0533 27.4359 12.47C27.4709 11.8808 27.9259 11.4841 28.4917 11.4841C29.0575 11.4841 29.495 11.8691 29.5534 12.4641C29.5825 12.7616 29.5534 13.0591 29.5534 13.3566Z" fill="white"/>
<path d="M22.0925 16.9032C21.6958 16.9032 21.3983 16.7049 21.1942 16.3724C20.92 15.9174 20.6458 15.4566 20.4008 14.9899C20.1092 14.4416 20.29 13.8291 20.7975 13.5374C21.3167 13.2399 21.9117 13.3916 22.25 13.9282C22.5417 14.4007 22.8333 14.8791 23.0783 15.3807C23.4342 16.1157 22.9033 16.9149 22.0983 16.8974L22.0925 16.9032Z" fill="white"/>
<path d="M17.4375 21.5701C17.2858 21.5817 17.1166 21.5409 16.9708 21.4534C16.4866 21.1792 15.9908 20.9109 15.5241 20.6134C14.9933 20.2809 14.8591 19.6626 15.1683 19.1551C15.4658 18.6651 16.0666 18.4959 16.5975 18.7817C17.0875 19.0442 17.5716 19.3242 18.0441 19.6217C18.4583 19.8842 18.6158 20.3684 18.4816 20.8117C18.3416 21.2667 17.9333 21.5642 17.4375 21.5642V21.5701Z" fill="white"/>
</svg>
