<svg width="48" height="48" viewBox="0 0 48 48" fill="none" xmlns="http://www.w3.org/2000/svg">
<path d="M25.877 47C23.7438 45.6269 21.9047 43.9349 20.4335 41.8589C19.6162 40.7064 18.9541 39.4722 18.48 38.1399C18.2839 37.576 18.3983 37.1918 18.8152 37.0529C19.2157 36.9221 19.5508 37.1346 19.7388 37.6659C20.3436 39.366 21.2835 40.8617 22.436 42.243C22.5096 42.3329 22.575 42.431 22.7221 42.4719C22.5177 41.8344 22.2807 41.2132 22.1091 40.5675C21.0874 36.8567 21.4552 33.2195 22.673 29.6313C23.376 27.5553 24.3486 25.6018 25.4929 23.7383C26.5473 22.0137 27.2911 20.1664 27.5853 18.1476C27.9858 15.4422 27.5363 12.843 26.5228 10.3337C25.9506 8.91155 25.2068 7.57928 24.3568 6.31239C24.275 6.18978 24.1851 6.07535 24.0707 5.9691C24.3404 6.96626 24.6183 7.95526 24.8063 8.96877C25.7871 14.3469 24.8472 19.3818 22.0519 24.0652C20.8994 26.0023 19.9022 27.9966 19.3873 30.2117C19.0849 31.5194 18.9459 32.8353 19.0358 34.1758C19.0522 34.372 19.0604 34.5681 19.0685 34.7561C19.0685 35.1893 18.8315 35.4754 18.4637 35.4999C18.0877 35.5244 17.7771 35.2792 17.7444 34.8542C17.6954 34.3147 17.6627 33.7753 17.6709 33.244C17.7199 29.8847 18.8315 26.8524 20.5316 24.0162C21.8312 21.8584 22.8774 19.6106 23.3923 17.1341C24.4712 11.903 23.5476 7.00713 20.9566 2.38094C20.8994 2.27468 20.8258 2.1766 20.7686 2.07035C20.5888 1.74341 20.5888 1.43281 20.883 1.17944C21.1936 0.909711 21.5206 0.958752 21.8148 1.22848C22.4115 1.76793 22.9673 2.36459 23.4986 2.9776C25.9016 5.76476 27.757 8.86251 28.6397 12.4752C29.6369 16.5865 29.0075 20.4689 26.8579 24.0897C25.452 26.4519 24.2178 28.8794 23.5231 31.5521C22.4932 35.4917 22.624 39.3414 24.5529 43.0195C25.0597 43.9922 25.6727 44.8912 26.441 45.6841C26.9641 46.2153 26.9396 46.5423 26.3511 47H25.9016H25.877Z" fill="#2C0D4C"/>
<path d="M20.0412 15.5161C20.0085 17.5186 19.2729 19.3331 18.1776 21.0086C16.9516 22.8885 15.7419 24.7766 14.8673 26.8527C14.1644 28.5201 13.6332 30.2202 13.7394 32.0674C13.8048 33.2198 14.1808 34.2579 14.9491 35.1324C15.3005 35.5329 15.3251 35.8762 15.0553 36.1705C14.7856 36.4565 14.4668 36.4647 14.05 36.1705C12.4889 35.0997 11.1321 33.8328 10.1758 32.1736C8.5002 29.2557 8.7454 26.3132 10.094 23.3626C10.6335 22.1775 11.3691 21.0986 12.1047 20.0278C13.3798 18.1806 14.5322 16.2599 15.3251 14.1429C15.8563 12.7126 16.1833 11.2495 15.9217 9.70472C15.8727 9.39412 16.0035 9.14892 16.2895 9.0018C16.5593 8.86285 16.829 8.89554 17.0333 9.10805C18.7498 10.8899 20.0003 12.8924 20.0248 15.5079L20.0412 15.5161ZM12.4807 33.0155C12.448 32.7049 12.4235 32.4842 12.4071 32.2635C12.2845 30.5144 12.6687 28.847 13.2735 27.2205C14.1808 24.793 15.5049 22.5943 16.9352 20.4529C17.8016 19.1614 18.4719 17.7801 18.6517 16.2108C18.8478 14.5271 18.3574 13.0313 17.3521 11.5846C17.205 12.59 16.9925 13.489 16.6819 14.3636C15.8073 16.8075 14.475 18.998 13.0038 21.1149C12.2764 22.1611 11.598 23.2318 11.1157 24.417C10.2657 26.5012 10.0286 28.6018 10.9686 30.7269C11.3282 31.5443 11.8105 32.2962 12.4889 32.9992L12.4807 33.0155Z" fill="#2C0D4C"/>
<path d="M29.6123 39.7589C29.6286 38.9906 29.6368 38.2386 29.7757 37.4948C30.1681 35.3861 31.0753 33.498 32.1624 31.6753C32.9716 30.3267 33.887 29.0516 34.8515 27.8092C35.8323 26.5424 36.6415 25.1937 36.9602 23.5999C37.2954 21.9162 36.903 20.3877 36.0039 18.8511C35.8813 19.3088 35.7996 19.6848 35.6852 20.0444C35.5462 20.494 35.2438 20.682 34.8515 20.5921C34.4755 20.5022 34.2793 20.1589 34.3938 19.7093C34.6471 18.7612 34.8188 17.8131 34.7125 16.8323C34.6798 16.5217 34.8515 16.2846 35.1539 16.1784C35.4808 16.0558 35.7342 16.1866 35.9467 16.4399C38.7911 19.881 39.2979 23.3629 36.854 27.2943C36.1102 28.4876 35.1702 29.5502 34.3856 30.7108C33.1024 32.6153 31.9254 34.5687 31.3042 36.8083C31.0099 37.8545 30.8792 38.917 31.059 40.0041C31.1898 40.8051 31.5003 41.5162 31.9908 42.1619C32.3095 42.5869 32.3177 42.9302 32.0153 43.1999C31.7292 43.4615 31.4104 43.4451 31.0099 43.1264C29.5387 41.9657 28.28 40.6089 27.4463 38.9088C26.0732 36.1299 26.3347 33.3836 27.6588 30.6618C28.2882 29.3786 29.1219 28.2261 30.0128 27.1227C31.1734 25.6923 32.236 24.1884 33.135 22.5782C33.2577 22.3657 33.3884 22.1695 33.65 22.1123C33.9197 22.0551 34.1567 22.1287 34.3284 22.3494C34.5409 22.6273 34.4918 22.897 34.3284 23.1831C33.5846 24.5235 32.7264 25.7822 31.8028 27.0001C30.9037 28.1771 29.9229 29.2886 29.1954 30.5964C28.28 32.2556 27.6997 33.9884 27.9204 35.9173C28.0838 37.3641 28.6723 38.6228 29.5959 39.7507L29.6123 39.7589Z" fill="#2C0D4C"/>
</svg>
