<svg width="48" height="48" viewBox="0 0 48 48" fill="none" xmlns="http://www.w3.org/2000/svg">
<path d="M28.7538 17.7229C28.9378 19.5009 27.7582 21.1167 26.0093 21.4825L25.8372 21.5182V22.5063C25.8372 22.8634 25.5472 23.1545 25.1901 23.1545C24.8329 23.1545 24.5418 22.8634 24.5418 22.5063V21.4771L24.3827 21.4338C22.8774 21.0204 21.8244 19.6416 21.8222 18.0811C21.8222 17.7239 22.1133 17.4328 22.4705 17.4328C22.8276 17.4328 23.1187 17.7239 23.1187 18.0811C23.1198 19.1871 23.9498 20.1167 25.0483 20.2444L25.0764 20.2488L25.1057 20.2444C25.1771 20.2336 25.2507 20.2358 25.3232 20.252L25.3502 20.2574H25.3773C26.5558 20.213 27.4974 19.2196 27.4757 18.04C27.4541 16.8614 26.4768 15.9015 25.2972 15.9015C24.4304 15.9015 23.6263 15.5779 23.0116 15.039C22.3958 14.5 21.9683 13.7468 21.8536 12.8886C21.6231 11.1711 22.7096 9.53155 24.3817 9.07485L24.5418 9.03156V8.02618C24.5418 7.66905 24.8319 7.37793 25.1901 7.37793C25.5483 7.37793 25.8372 7.66905 25.8372 8.02618V8.98827L26.0093 9.02507C27.6088 9.36164 28.7711 10.7923 28.7733 12.4265C28.7733 12.7836 28.4822 13.0747 28.125 13.0747C27.7679 13.0747 27.4768 12.7836 27.4768 12.4265C27.4768 11.2252 26.4996 10.2469 25.2972 10.2469C24.0949 10.2469 23.1187 11.2252 23.1187 12.4265C23.1187 13.6277 24.0959 14.6061 25.2972 14.6061C27.084 14.6061 28.5698 15.9469 28.7538 17.7229Z" fill="#2C0D4C"/>
<path d="M25.2972 3C18.5128 3.00758 12.987 8.53555 12.9783 15.32C12.9783 22.1131 18.5041 27.64 25.2972 27.64C32.0903 27.64 37.6172 22.1131 37.6172 15.32C37.6172 8.52689 32.0903 3 25.2972 3ZM25.2972 26.3435C19.2195 26.3435 14.2737 21.3988 14.2737 15.32C14.2781 12.2844 15.5161 9.53011 17.5117 7.5345C19.5074 5.5378 22.2616 4.29974 25.2972 4.2965C31.3761 4.2965 36.3207 9.24116 36.3207 15.32C36.3207 21.3988 31.3761 26.3435 25.2972 26.3435Z" fill="#2C0D4C"/>
<path d="M46.9167 32.5001C45.8258 30.5651 43.4179 29.8325 41.4353 30.8303L41.4299 30.8324L34.4723 34.1202L34.3749 33.9384C33.4799 32.2729 31.7483 31.2047 29.8577 31.1506L23.6057 30.9796C22.5895 30.9504 21.5744 30.6885 20.6707 30.2221L20.0344 29.892C16.8418 28.2276 13.0313 28.2308 9.84205 29.9017L9.51522 30.0738L9.565 28.2633C9.57474 27.9061 9.29228 27.6074 8.93515 27.5977L2.0793 27.4094C1.90614 27.4051 1.74164 27.4667 1.61611 27.5858C1.49057 27.7048 1.41914 27.8661 1.41373 28.0392L1.00032 43.0821C0.994912 43.2552 1.05768 43.4197 1.17672 43.5464C1.29577 43.6719 1.45702 43.7433 1.63017 43.7487L8.48495 43.937H8.50335C8.85723 43.937 9.14186 43.66 9.1516 43.3072L9.17432 42.4609L11.066 41.4479C11.5487 41.1893 12.0779 41.0562 12.6125 41.0562C12.9123 41.0562 13.2121 41.0984 13.5075 41.1817L24.1414 44.1665C24.1576 44.1708 24.1717 44.174 24.1858 44.1773C24.9336 44.3331 25.7031 44.4132 26.4703 44.4132H26.4822C28.124 44.4132 29.7127 44.0658 31.2051 43.3808C31.2321 43.3689 31.2581 43.3537 31.2841 43.3375L46.7046 33.3638C46.9914 33.1776 47.0844 32.7978 46.9167 32.5001ZM7.87241 42.6243L2.31305 42.4706L2.69183 28.7221L8.25119 28.8758L7.87241 42.6243ZM30.6055 42.2315C29.2982 42.8213 27.9043 43.12 26.4963 43.12C25.8253 43.12 25.15 43.0518 24.4791 42.9154L24.4639 42.9111L13.8571 39.9339C12.711 39.6103 11.5033 39.7424 10.4546 40.3062L9.21545 40.9696L9.47193 31.6322L9.56608 31.5694C12.5151 29.6085 16.2986 29.4061 19.4392 31.0424L20.0755 31.3725C21.1512 31.9277 22.3601 32.2404 23.5711 32.275L29.822 32.4471C31.6877 32.5012 33.2537 33.814 33.6325 35.6407L33.6877 35.9091L24.1014 35.644C23.7453 35.6397 23.4466 35.9167 23.4358 36.2738C23.4261 36.631 23.7085 36.9297 24.0657 36.9405L34.3435 37.223H34.3608C34.7147 37.2219 34.9982 36.9459 35.008 36.592C35.0188 36.2316 34.9917 35.8691 34.9279 35.5152L34.8987 35.3518L42.011 31.9915C43.0705 31.4547 44.3692 31.6376 45.2414 32.445L45.446 32.6333L30.6055 42.2315Z" fill="#2C0D4C"/>
</svg>
