<svg width="137" height="50" viewBox="0 0 137 50" fill="none" xmlns="http://www.w3.org/2000/svg">
<g clip-path="url(#clip0_8966_2534)">
<path d="M136.363 4.2152C135.055 3.5204 134.096 4.18923 133.294 4.87105C130.424 7.29962 127.951 10.2866 125.718 13.9879C125.184 14.8775 124.78 15.1827 123.704 14.7347C122.101 14.0788 120.355 14.2931 118.669 14.5074L118.512 14.5269C117.875 14.6048 117.245 14.7022 116.525 14.8061C116.293 14.8386 116.046 14.8775 115.792 14.9165C116.128 14.4425 116.45 13.9814 116.765 13.5269C117.615 12.3256 118.402 11.1957 119.183 10.0529C120.608 7.96845 121.663 6.18274 122.499 4.44897C122.896 3.62429 123.327 2.5204 123.156 1.26715L123.143 1.22819C122.999 0.903514 122.773 0.793125 122.608 0.767151C122.238 0.695722 121.827 0.935982 121.553 1.19572C121.252 1.55936 120.944 1.92299 120.635 2.28014C119.978 3.05286 119.3 3.84507 118.683 4.66325C116.19 7.95546 113.943 11.384 111.47 15.2022C111.059 15.8386 110.655 16.2801 109.929 16.5009C104.778 18.0659 100.853 20.0009 97.6126 22.5788C97.4276 22.0594 97.1536 21.7347 96.7974 21.6113C96.3796 21.462 95.8727 21.5853 95.263 21.9879C94.4136 22.5464 93.5642 23.1308 92.7422 23.6892C92.5504 23.8256 92.3518 23.9555 92.16 24.0918C92.7148 22.9425 93.3861 21.8646 94.0369 20.8256L94.2355 20.5074C94.2698 20.4555 94.304 20.4035 94.3451 20.3451C94.5164 20.0853 94.715 19.7996 94.6465 19.5009C94.6054 19.3386 94.489 19.2022 94.304 19.0918C94.0437 18.9425 93.7766 18.9165 93.5231 19.0139C93.1532 19.1568 92.9066 19.5269 92.8244 19.8386C92.5573 20.8451 91.9682 21.7087 91.3996 22.5464C91.0023 23.1243 90.5982 23.7282 90.2899 24.371C90.1872 24.5853 90.0228 24.8126 89.8515 25.0529C89.42 25.6503 88.8857 26.397 89.557 26.936C90.2694 27.5139 90.9886 26.8646 91.564 26.3386C91.7627 26.1568 91.9545 25.9814 92.1394 25.8581C92.6806 25.4879 93.1875 25.0594 93.6738 24.6438C94.4273 24.0074 95.2082 23.3451 96.1398 22.884C96.3042 23.4165 96.3179 23.8646 95.996 24.2542C94.3451 26.2282 93.6875 28.4749 93.0025 31.2087C92.4066 33.5788 90.9612 35.3581 88.5843 36.6308C86.3375 37.8386 83.9537 38.5659 81.0561 39.2931L80.7273 39.3775C79.3573 39.7217 77.9394 40.0788 76.3502 40.2347C78.9463 36.9749 81.0904 33.5464 83.1659 30.2217C83.9194 29.0204 84.6935 27.7801 85.4744 26.5723C85.9265 25.871 86.3854 25.1697 86.8444 24.4749C87.6527 23.2477 88.4884 21.9749 89.2761 20.7087L89.3241 20.6308C89.5775 20.2347 89.9611 19.6308 89.3515 19.1178C88.8377 18.6827 88.1596 18.6827 87.4951 19.1178C86.3991 19.8386 85.2346 20.6243 84.0975 21.4749C83.2481 22.1113 82.4124 22.7996 81.6041 23.4555C80.2478 24.5659 78.8436 25.7152 77.3297 26.6827C77.2749 26.7217 77.2133 26.7607 77.1585 26.7996C76.7338 27.0918 76.4255 27.2672 76.0693 27.0334C75.6378 26.7542 75.7063 26.2087 75.8364 25.7996C76.5214 23.6633 77.2338 21.4555 79.3847 20.1178C79.7683 19.884 79.9875 19.6178 80.0355 19.3451C80.0766 19.1113 79.9944 18.871 79.7957 18.6308C79.6039 18.397 79.3847 18.2736 79.145 18.2607C78.7614 18.2347 78.4257 18.5204 78.1791 18.7672C76.9393 19.9944 75.9186 21.4035 75.1446 22.9555C75.0966 23.0464 75.0624 23.1373 75.0213 23.2282C74.8569 23.5918 74.7199 23.91 74.3294 24.0918L74.0486 24.2217C72.432 24.9749 70.7674 25.7542 68.9864 26.1438C68.9042 26.1633 68.8152 26.1827 68.7261 26.2087C68.3425 26.3061 67.863 26.4295 67.6233 26.2607C67.5 26.1762 67.4315 26.0074 67.4178 25.7607C67.3767 24.9684 67.726 24.0983 68.8152 24.0334C70.055 23.962 71.1305 23.449 72.3087 22.371L72.4525 22.2412C72.9046 21.8451 73.5828 21.2412 72.9937 20.4879C72.5553 19.9295 71.836 19.871 70.8428 20.3191C68.7604 21.2672 67.1849 22.7607 66.1642 24.7607C65.6094 25.8516 65.7943 26.4944 66.0478 26.8451C66.4245 27.3581 67.1986 27.5788 68.2809 27.4879C69.8016 27.3516 71.1647 26.7282 72.4868 26.1178L72.7402 26.0009C73.1375 25.8191 73.528 25.6438 73.9458 25.4555L74.35 25.2736C74.35 25.41 74.3431 25.5464 74.3363 25.6762C74.2952 26.5918 74.2472 27.5399 75.2747 28.0853C76.3844 28.6697 77.3023 28.1048 78.1106 27.6113C78.2613 27.5204 78.4052 27.4295 78.549 27.3451C79.0422 27.0659 79.5012 26.7282 79.8779 26.4295C80.5629 25.897 81.2411 25.3581 81.9261 24.8191C83.207 23.8061 84.5359 22.7542 85.8648 21.7477C85.9744 21.6633 86.0772 21.5723 86.1868 21.4814C86.5909 21.1373 87.0019 20.7801 87.7623 20.7282C86.8581 21.9425 86.0772 23.2022 85.3168 24.4165C83.892 26.7087 82.5426 28.8775 80.5081 30.6633C77.7407 33.0918 74.7404 36.1373 73.5006 40.3191C73.343 40.8646 73.0074 40.91 72.5005 40.9879L71.1442 41.1892C70.0482 41.3516 68.9111 41.5204 67.7945 41.6697C56.081 43.1827 44.1141 44.1048 32.5376 44.9879C27.9686 45.3386 23.249 45.7022 18.6115 46.0918L16.8374 46.2412C12.1794 46.6308 7.35697 47.0334 2.66472 47.8321C2.56882 47.8516 2.47292 47.8581 2.37017 47.871C1.76737 47.9425 1.01387 48.0334 0.657668 49.0074L0.561768 49.2736L0.849468 49.2217C1.30157 49.1373 1.73312 49.0529 2.15782 48.9685C3.00722 48.7996 3.81552 48.6438 4.62382 48.5399C13.4672 47.423 22.516 46.7477 31.2566 46.1048C35.7434 45.7736 40.3877 45.4295 44.9498 45.0269L46.7308 44.871C56.5742 44.0074 66.7465 43.1178 76.6379 41.3061C80.1245 40.6697 84.2003 39.7866 87.9883 38.1113C91.4887 36.5659 93.5437 34.1762 94.2629 30.8061C94.489 29.7412 94.8246 28.6697 95.263 27.6113L95.3315 27.4425C95.8932 26.0594 96.4275 24.7477 98.4003 25.2542C98.4072 25.397 98.4072 25.5529 98.414 25.7022C98.414 26.5139 98.4277 27.5269 99.7703 27.8451C101.339 28.2217 102.284 27.2412 103.058 26.2996L103.113 26.2412C103.168 26.1827 103.23 26.1113 103.271 26.0269C103.442 25.6957 103.675 25.3126 103.99 25.2347C104.168 25.1892 104.374 25.2412 104.613 25.397C104.805 25.5204 104.908 25.6438 104.922 25.7477C104.935 25.9165 104.73 26.1113 104.545 26.2801C104.421 26.3905 104.312 26.4944 104.243 26.6048C102.997 28.6048 101.695 30.6113 100.435 32.5594C99.6333 33.7931 98.8319 35.0334 98.0373 36.2736C97.9962 36.3321 97.9551 36.397 97.9071 36.462C97.7085 36.7412 97.4619 37.0853 97.5372 37.41C97.5715 37.5723 97.6811 37.7152 97.866 37.8256C98.051 37.936 98.2359 37.9749 98.4072 37.9295C98.7565 37.8516 98.9757 37.4944 99.1675 37.1762L99.2634 37.0204C101.921 32.884 104.593 28.7477 107.264 24.6178L107.333 24.5139C107.525 24.2087 107.73 23.897 107.997 23.6957C109.874 22.3061 111.566 20.5009 113.169 18.1827C114.251 16.6243 115.635 15.8516 117.669 15.6762C117.957 15.6503 118.238 15.6243 118.526 15.5983C120.135 15.4425 121.793 15.2866 123.403 15.6892C123.464 15.7022 123.526 15.7152 123.588 15.7282C123.821 15.7801 124.088 15.8321 124.177 15.9814C124.232 16.0788 124.218 16.2282 124.136 16.4295C123.677 17.5529 122.108 18.436 120.841 18.2736C119.505 18.1048 118.382 18.6243 117.656 19.0334C115.203 20.397 113.162 22.2866 111.408 24.8191C111.134 25.2152 110.826 25.6827 110.621 26.2087C110.436 26.6697 110.189 27.2996 110.717 27.8061C111.237 28.3061 111.833 28.0659 112.313 27.8775L112.402 27.8386C113.539 27.3905 114.635 26.7282 115.847 25.7607C117.094 24.7671 118.348 23.7347 119.676 22.6438C120.046 22.3386 120.43 22.0269 120.82 21.7022L113.854 33.2736L114.635 33.7022L125.28 17.5139C126.41 20.1762 126.314 22.7736 126.061 24.9749C125.937 26.0399 125.061 26.6957 124.341 27.0529C122.293 28.0788 120.772 29.0918 119.553 30.2477C119.505 30.2931 119.444 30.3451 119.389 30.397C119.074 30.6697 118.642 31.0464 118.923 31.5659C119.204 32.0853 119.82 32.0009 120.272 31.936L120.43 31.9165C123.006 31.5983 124.554 29.9814 125.622 28.6048C125.677 28.5269 125.739 28.423 125.8 28.3191C125.869 28.2022 125.992 27.9879 126.02 27.9555C126.506 28.397 126.821 28.5399 127.061 28.436C127.335 28.3126 127.348 27.923 127.335 27.6373C127.321 27.3905 127.472 27.1697 127.622 26.962C127.821 26.6827 128.068 26.3321 127.753 25.9555C127.026 25.0788 127.472 24.5009 127.979 23.8386C128.102 23.6827 128.225 23.5204 128.328 23.3581C128.451 23.1697 128.677 22.9814 128.903 22.7931C129.266 22.4944 129.636 22.1827 129.65 21.8191C129.65 21.6373 129.575 21.4555 129.397 21.2931C129.225 21.1308 129.047 21.0529 128.869 21.0659C128.527 21.0788 128.259 21.3775 127.972 21.6892C127.787 21.897 127.595 22.1113 127.383 22.2477C127.355 21.8905 127.335 21.5334 127.321 21.1827C127.259 19.936 127.198 18.6503 126.705 17.462C126.403 16.7347 126.506 16.3321 127.109 15.7996C130.869 12.4749 134.013 8.86455 136.452 5.06585L136.479 5.02689V4.27364L136.39 4.22819L136.363 4.2152ZM133.959 5.97494C132.986 7.91001 130.219 11.1243 128.136 12.7412C129.821 10.0918 131.698 7.91001 133.959 5.97494ZM104.922 24.4425C104.558 24.3581 104.394 24.1568 104.319 23.6827C104.271 23.4165 104.202 23.0723 104.045 22.7672C103.695 22.0788 103.134 21.7996 102.545 22.0139C102.305 22.1048 102.14 22.2412 102.058 22.4165C101.914 22.7282 102.058 23.0918 102.195 23.4035L102.243 23.5204C102.736 24.7542 102.339 25.884 101.154 26.6178C100.681 26.91 100.318 26.9555 99.9827 26.7542C99.6196 26.5464 99.4826 26.1633 99.5991 25.7152L99.6265 25.6178C99.6607 25.4944 99.6881 25.3646 99.7292 25.2412C99.832 24.8646 99.9553 24.4944 100.147 24.1697C101.723 21.5139 105.38 18.4295 109.751 17.7801L109.1 18.8451C108.031 20.5853 106.997 22.2866 105.956 23.9814C105.702 24.3905 105.374 24.5399 104.935 24.436L104.922 24.4425ZM99.6539 22.462L99.5991 22.5723C99.1744 23.41 98.7702 24.2087 97.503 24.3126C98.1263 23.5139 98.7976 22.936 99.6539 22.462ZM120.93 4.15027C119.17 7.63079 116.93 10.9749 114.128 14.3126C116.423 10.1633 118.58 6.94248 120.93 4.15027ZM75.0624 39.2736C76.1173 37.4425 77.4393 35.7217 78.7203 34.0594L79.008 33.6827L79.0628 33.7152L75.1788 39.3386L75.0555 39.2672L75.0624 39.2736ZM69.1577 22.7477C69.9865 21.9749 71.0072 21.2152 71.5483 21.2152C71.6374 21.2152 71.7196 21.2347 71.7812 21.2866C71.836 21.3321 71.8292 21.3516 71.8292 21.371C71.7675 21.6892 70.514 22.2801 69.1577 22.7477ZM120.868 19.6178C117.937 22.2217 115.149 24.6892 111.71 26.7672C113.169 23.4295 118.026 19.6113 120.752 19.6113C120.793 19.6113 120.827 19.6113 120.868 19.6113V19.6178ZM120.724 30.6048C121.526 29.936 122.307 29.3451 123.163 28.8126C123.451 28.6373 123.738 28.462 124.047 28.2931C123.732 28.7282 123.389 29.0983 123.006 29.4165C122.368 29.949 121.629 30.3321 120.724 30.6048Z" fill="#2C0D4C"/>
<path d="M9.63099 36.3258C9.99404 36.3452 10.3502 36.3582 10.7133 36.3582C13.6177 36.3582 16.5426 35.6894 19.4265 34.3582C26.1943 31.2413 31.6263 26.2349 36.5172 18.5985C36.5857 18.4946 36.6474 18.3842 36.709 18.2738C36.8803 17.9751 37.0447 17.6894 37.2776 17.5141C37.579 17.2868 37.7091 17.2933 37.7571 17.3128C37.7982 17.3323 37.9009 17.4102 37.9352 17.7673C38.0516 18.9427 38.6407 19.8972 39.5929 20.4556C40.5656 21.0336 41.8191 21.1115 43.0316 20.6699L43.1069 20.6439C43.4083 20.5336 43.7919 20.4037 43.9221 20.0985C43.9974 19.9297 43.9837 19.7284 43.8741 19.5141C43.6344 19.0206 43.0384 18.7868 42.4219 18.9491C42.2575 18.9946 42.1342 19.105 42.0178 19.2089C41.9287 19.2868 41.8465 19.3647 41.7643 19.3907C40.9971 19.6375 40.271 19.4426 39.3942 18.7738C38.9969 18.4686 38.9832 18.0206 39.3531 17.4491C40.4902 15.6959 41.6068 14.5206 42.9836 13.6375C48.7582 9.91018 55.3068 7.22187 62.9925 5.3972C65.1297 4.8907 67.0956 4.86473 68.9999 5.32577C70.2603 5.63096 71.1371 6.16992 71.6029 6.92966C72.0687 7.6894 72.1372 8.66992 71.7947 9.84525C71.37 11.3323 70.5754 12.7673 69.3698 14.2349C65.7256 18.6894 60.9375 22.0985 54.7177 24.6569C53.8546 25.0076 53.1148 25.1439 52.2859 24.6569C51.1488 23.9816 50.409 24.3258 49.9912 24.7284C49.5254 25.1764 49.4295 25.6894 49.724 26.1764C50.3405 27.2024 51.5256 26.9297 51.9229 26.8388C52.9983 26.592 53.7381 27.0141 54.5875 27.592C56.9371 29.1894 59.451 30.8842 62.0266 32.5011C63.7734 33.592 65.89 34.7738 68.356 35.2803L68.4862 35.3063C69.0479 35.4232 69.6781 35.5595 70.5001 35.0595L70.8563 34.8388L70.4384 34.7608C65.7051 33.8842 62.2732 31.3647 58.6427 28.6959C57.4371 27.8128 56.1973 26.8972 54.9026 26.053L55.204 25.9102C55.4917 25.7738 55.7041 25.6764 55.9233 25.579C60.958 23.4362 65.3009 20.5206 68.8287 16.9102C71.3426 14.3388 72.7606 11.8712 73.3017 9.15044C73.8223 6.52057 72.4866 4.56603 69.726 3.93616C68.0957 3.55953 66.3969 3.50109 64.6776 3.74135C60.7662 4.29979 56.7384 5.48161 52.0051 7.47512C46.5936 9.74785 42.1822 11.7998 38.8599 15.7219C38.764 15.8388 38.5037 16.092 38.2434 15.9297C38.079 15.8258 38.0996 15.7089 38.2434 15.3907L38.2845 15.3063C39.1065 13.4427 39.997 11.2673 40.1272 8.94914C40.2368 6.94914 39.7162 5.44914 38.6133 4.60499C37.5379 3.78031 35.9213 3.60499 33.9485 4.11148C28.5849 5.48161 23.7762 8.05953 19.6662 11.7608C18.7757 12.566 18.214 13.3388 17.8989 14.2024C17.3304 15.7543 17.8852 17.0336 19.4196 17.7024L19.5772 17.7738C19.906 17.9297 20.2827 18.105 20.6184 17.9816C20.7965 17.9167 20.9335 17.7738 21.0294 17.5595C21.1527 17.2673 21.139 16.9686 20.9814 16.7089C20.7965 16.4037 20.4471 16.1959 20.0224 16.131C19.5635 16.066 19.2689 15.9232 19.1319 15.7089C18.9264 15.3842 19.0703 14.8777 19.2415 14.4232C19.3991 14.0011 19.7005 13.5595 20.0704 13.2154C24.1941 9.33226 29.1329 6.70888 34.7431 5.41018C36.072 5.10499 37.1474 5.26083 37.853 5.85824C38.6133 6.50759 38.9147 7.67642 38.7092 9.15044C38.4352 11.0595 37.7982 13.0336 36.709 15.3712C36.3939 16.0465 35.9761 16.3452 35.1678 16.4881C29.222 17.5401 24.0365 19.131 19.3237 21.3582C14.7685 23.5076 10.0831 26.053 6.64439 30.0336C5.77444 31.0401 4.71954 32.5985 5.62374 34.4362C6.39779 36.0011 8.02809 36.2284 9.63784 36.3193L9.63099 36.3258ZM7.05539 31.7414C7.97329 30.1375 9.43234 28.9621 10.8503 27.8972C17.6318 22.7803 25.4956 19.4426 34.8869 17.7024C34.9623 17.6894 35.0513 17.6894 35.2294 17.6959C35.2979 17.6959 35.3733 17.6959 35.4623 17.6959C29.4069 26.2543 23.3926 32.4102 13.8917 34.6569C12.1381 35.0725 10.3845 35.131 8.65829 34.8388C7.68559 34.6699 7.03484 34.2998 6.76084 33.7673C6.49369 33.2413 6.59644 32.5401 7.05539 31.7478V31.7414Z" fill="#2C0D4C"/>
<path d="M51.2517 16.0787C50.2584 17.7216 49.1898 19.358 48.1555 20.9424L47.9157 21.306C47.3883 22.1177 46.854 22.9294 46.3128 23.7411C44.2304 26.8969 42.0795 30.1567 40.2643 33.5333C40.2163 33.6242 40.1615 33.7151 40.1136 33.806C39.7231 34.4943 39.2847 35.2736 39.6546 36.4813L39.7779 36.871L39.9697 36.5073C40.1821 36.1047 40.3739 35.7346 40.5588 35.3839C40.9287 34.6762 41.2438 34.0593 41.6 33.4619C43.9564 29.5203 46.5594 25.6307 49.0802 21.871C49.9159 20.6242 50.7516 19.3774 51.5805 18.1242C52.3751 16.9229 53.1628 15.6826 53.9232 14.4813C54.2314 13.9943 54.5397 13.5138 54.8479 13.0268C55.0603 12.6956 55.2452 12.2995 55.0329 11.8645C54.8342 11.4554 54.3479 11.4943 54.1698 11.5073C53.5122 11.5593 52.2312 12.6761 51.8271 13.4229C51.6764 13.6956 51.649 13.9099 51.7449 14.0658C52.1764 14.7671 51.8613 15.1956 51.4983 15.6956C51.4092 15.819 51.3202 15.9424 51.2448 16.0723L51.2517 16.0787Z" fill="#2C0D4C"/>
</g>
<defs>
<clipPath id="clip0_8966_2534">
<rect width="137" height="50" fill="white" transform="translate(0 0.000976562)"/>
</clipPath>
</defs>
</svg>
