<svg width="20" height="20" viewBox="0 0 20 20" fill="none" xmlns="http://www.w3.org/2000/svg">
<path fill-rule="evenodd" clip-rule="evenodd" d="M5.44794 4.95776H4.17192C3.29018 4.95776 2.55828 5.63924 2.49537 6.51906L1.67223 18.045C1.63909 18.5104 1.80045 18.9685 2.11837 19.31C2.43678 19.6515 2.88197 19.8455 3.34877 19.8455H16.6536C17.1204 19.8455 17.5656 19.6515 17.884 19.31C18.2019 18.9685 18.3633 18.5104 18.3301 18.045L17.507 6.51906C17.4441 5.63924 16.7122 4.95776 15.8304 4.95776H14.5635V4.71764C14.5635 2.19777 12.521 0.155273 10.0012 0.155273C7.57352 0.155273 5.3298 2.08876 5.43881 4.71764C5.44218 4.79736 5.44506 4.87756 5.44794 4.95776ZM14.5635 6.39851V10.0004C14.5635 10.398 14.2408 10.7207 13.8432 10.7207C13.4455 10.7207 13.1228 10.398 13.1228 10.0004V6.39851H6.87956V10.0004C6.87956 10.398 6.55683 10.7207 6.15919 10.7207C5.76154 10.7207 5.43881 10.398 5.43881 10.0004C5.43881 10.0004 5.50125 8.3171 5.4806 6.39851H4.17192C4.04609 6.39851 3.9414 6.496 3.93276 6.62134L3.10912 18.1473C3.10432 18.2141 3.12738 18.2794 3.173 18.3284C3.21863 18.3769 3.28202 18.4047 3.34877 18.4047H16.6536C16.7203 18.4047 16.7837 18.3769 16.8294 18.3284C16.875 18.2794 16.898 18.2141 16.8932 18.1473L16.0696 6.62134C16.061 6.496 15.9563 6.39851 15.8304 6.39851H14.5635ZM13.1228 4.95776V4.71764C13.1228 2.99354 11.7253 1.59602 10.0012 1.59602C8.27709 1.59602 6.87956 2.99354 6.87956 4.71764V4.95776H13.1228Z" fill="black"/>
</svg>
