<svg width="93" height="24" viewBox="0 0 93 24" fill="none" xmlns="http://www.w3.org/2000/svg">
<g clip-path="url(#clip0_11192_13462)">
<path d="M6.8721 24.0012V20.4435H3.31699V16.8254H6.8721V13.358C6.8721 13.3513 6.95585 13.2676 6.96255 13.2676H10.8493V16.7349C10.8493 16.7416 10.9331 16.8254 10.9398 16.8254H14.4051V20.4435H10.85V24.0012H6.87277H6.8721Z" fill="white"/>
<path d="M8.31868 0.000976562C8.74012 0.0961189 9.16759 0.15039 9.58367 0.272333C10.6456 0.584561 11.6708 1.28339 12.2959 2.1993L11.12 2.94369C9.91332 1.0864 6.91968 0.880709 5.12404 1.89846C2.46608 3.40466 2.84062 7.75173 5.84765 8.65424C7.72035 9.21639 9.74514 8.80299 10.9994 7.25324C11.1589 7.38724 12.113 7.82141 12.1719 7.90516C12.3046 8.09612 11.0644 9.0864 10.8688 9.21505C8.36022 10.8573 4.13576 10.4914 2.54581 7.73766C2.2175 7.16949 2.07613 6.60466 1.93141 5.97083C1.97161 5.44955 1.87647 4.85324 1.93141 4.34269C2.20008 1.8261 4.47412 0.195951 6.87211 0.000976562H8.31868Z" fill="white"/>
<path d="M46.3435 0.121261C46.3502 0.125281 46.3528 0.221764 46.4018 0.271345C46.9311 0.810038 47.3827 1.42444 47.8791 1.99195C49.5629 3.91289 51.2882 5.79965 52.9719 7.71992V0.121261H54.4185V10.071H53.1227C50.8868 7.55443 48.7254 4.95945 46.4641 2.47302V10.071H45.0175V0.121261C45.2259 0.165482 46.2517 0.0622997 46.3435 0.121261Z" fill="white"/>
<path d="M31.0972 0.121094V1.38743H24.2879V4.2216H30.314V5.54823H24.2879V8.74421H31.1575V10.0708H22.8413V0.121094H31.0972Z" fill="white"/>
<path d="M38.8105 13.6895V14.9558H32.0312C32.0245 14.9558 31.9408 15.0395 31.9408 15.0462V17.79H38.0272V19.1166H31.9408V22.3126H38.8708V23.6392H30.5545V13.6895H38.8105Z" fill="white"/>
<path d="M20.4312 13.6895V17.79H26.9994V13.6895H28.446V23.6392H26.9994V19.1166H20.4312V23.6392H18.9847V13.6895H20.4312Z" fill="white"/>
<path d="M71.593 13.6895V17.79H78.1612V13.6895H79.6078V23.6392H78.1612V19.1166H71.593V23.6392H70.1465V13.6895H71.593Z" fill="white"/>
<path d="M32.3629 10.0716L37.392 0.117188L38.4996 0.131258L43.2701 10.071H41.7337L40.2296 7.17179L35.386 7.18586L33.9904 10.0703H32.3636L32.3629 10.0716ZM39.6547 5.85052L37.8476 2.29273L36.0996 5.85052H39.6547Z" fill="white"/>
<path d="M40.0761 23.6393L45.0269 13.6996L46.1344 13.6855L50.9833 23.64H49.447L48.0245 20.7817L47.8235 20.6819L43.1897 20.6953L41.6734 23.6407H40.0768L40.0761 23.6393ZM43.8121 19.4182H47.3672L45.5904 15.8598L43.8121 19.4182Z" fill="white"/>
<path d="M92.3227 13.6895L87.2004 18.9658V23.6392H85.7538V18.9055L80.6316 13.6895H82.5297C83.4135 14.5933 84.3301 15.4663 85.2131 16.3715C85.3786 16.541 86.3548 17.6908 86.4989 17.6653L90.4239 13.6901H92.322L92.3227 13.6895Z" fill="white"/>
<path d="M68.58 13.6895V14.9558H64.7837V23.6392H63.3371V14.9558H59.5408V13.6895H68.58Z" fill="white"/>
<path d="M54.2376 13.6895V22.3126H60.5049V23.6392H52.791V13.6895H54.2376Z" fill="white"/>
<path d="M15.1884 0.121094V8.74421H21.3652C21.3719 8.74421 21.4557 8.82796 21.4557 8.83466V10.0708H13.7425V0.121094H15.189H15.1884Z" fill="white"/>
</g>
<defs>
<clipPath id="clip0_11192_13462">
<rect width="91.41" height="24" fill="white" transform="translate(0.913834 0.000976562)"/>
</clipPath>
</defs>
</svg>
