<svg width="137" height="24" viewBox="0 0 137 24" fill="none" xmlns="http://www.w3.org/2000/svg">
<g clip-path="url(#clip0_10714_23230)">
<path d="M91.2119 0.000976562H86.8195V8.26513C86.1855 2.084 83.8987 0.000976562 80.5478 0.000976562C78.0346 0.000976562 76.1553 1.24626 75.0006 4.50664C74.1629 1.2689 71.7629 0.000976562 67.778 0.000976562H63.3855V8.26513H63.2723C62.6384 2.084 60.3516 0.000976562 57.0006 0.000976562C53.7629 0.000976562 51.4535 2.084 50.7289 8.26513H50.6157V0.000976562H44.9553L42.8723 12.3406H42.7591L40.9704 0.000976562H35.1063V4.71041C34.5855 1.88022 32.9101 0.000976562 29.7629 0.000976562C26.2987 0.000976562 24.4195 2.40098 24.1025 5.43494C23.1516 1.35947 21.0685 0.000976562 18.3516 0.000976562C15.3176 0.000976562 13.1214 1.78966 12.2836 6.90664C12.0799 3.23871 11.0384 0.000976562 6.62326 0.000976562C3.15911 0.000976562 0.351562 3.14815 0.351562 12.0463C0.351562 19.6764 1.91383 24.0915 6.62326 24.0915C10.8119 24.0915 11.9667 20.7406 12.2836 17.3897C13.1214 22.4161 15.3176 24.0915 18.3516 24.0915C21.2723 24.0915 23.378 22.4161 24.3063 17.7066C24.5101 20.7406 25.6648 24.0915 29.9667 24.0915C32.3667 24.0915 34.1553 23.05 35.1063 21.2614V23.9783H38.344V6.38588H38.4572L41.378 23.9783H43.778L46.6987 6.38588H46.8119V23.9783H50.6836V15.7142H50.7969C51.4308 21.8953 53.7176 23.9783 57.0686 23.9783C60.3063 23.9783 62.6157 21.8953 63.3402 15.7142H63.4535V23.9783H67.8459V14.3557H69.6346C71.8308 14.3557 73.3025 13.518 74.2308 12.1595C74.2308 21.1708 76.744 23.9783 80.6157 23.9783C83.8535 23.9783 86.1629 21.8953 86.8874 15.7142V23.9783H96.827V20.3104H91.2799V0.000976562H91.2119ZM8.75156 14.8764C8.63836 18.2274 8.34402 20.3104 6.87232 20.3104C5.51383 20.3104 5.08364 19.4727 5.08364 11.8425C5.08364 4.09909 6.03458 3.57834 6.96288 3.57834C8.00439 3.57834 8.52515 5.05003 8.52515 8.80852L12.1931 8.69532C12.0799 9.73683 12.0799 10.7783 12.0799 12.0463C12.0799 13.201 12.0799 14.2425 12.1931 15.1934L8.75156 14.8764ZM20.0497 14.4463C20.0497 19.4727 19.4157 20.401 18.4874 20.401C17.4459 20.401 16.9251 19.3595 16.9251 14.4463V9.53305C16.9251 4.50664 17.5591 3.57834 18.4874 3.57834C19.5289 3.57834 20.0497 4.61984 20.0497 9.53305V14.4463ZM30.1931 20.4236C28.3138 20.4236 28.3138 18.1142 28.3138 16.8689H24.5553C24.7591 15.5104 24.8723 13.8349 24.8723 11.9557C24.8723 11.0048 24.8723 10.0764 24.7591 9.23871C26.6384 13.5406 32.095 14.7859 32.095 18.25C32.095 19.0425 31.6648 20.4236 30.1931 20.4236ZM28.1101 5.66135C28.1101 4.41607 28.744 3.57834 29.7855 3.57834C31.5742 3.57834 31.5742 5.77456 31.5742 7.04249H35.2421V14.0614C33.1365 10.2576 28.1101 8.78588 28.1101 5.66135ZM58.6761 14.4463C58.6761 19.4727 58.0421 20.5142 57.1138 20.5142C56.0723 20.5142 55.5516 19.4727 55.5516 14.4463V9.53305C55.5516 4.50664 56.1855 3.46513 57.1138 3.46513C58.1553 3.46513 58.6761 4.50664 58.6761 9.53305V14.4463ZM68.1855 10.8915H67.778V3.6689H68.095C69.5667 3.6689 70.9252 3.78211 70.9252 7.22362C70.9252 10.167 69.9742 10.8915 68.1855 10.8915ZM82.1101 14.4463C82.1101 19.4727 81.4761 20.5142 80.5478 20.5142C79.5063 20.5142 78.9855 19.4727 78.9855 14.4463V9.53305C78.9855 4.50664 79.6195 3.46513 80.5478 3.46513C81.5893 3.46513 82.1101 4.50664 82.1101 9.53305V14.4463ZM97.5063 0.000976562H101.899V23.9783H97.5063V0.000976562ZM114.465 0.000976562H102.533V3.6689H106.291V23.9783H110.684V3.6689H114.442V0.000976562M132.555 0.000976562V12.6576H132.442L128.457 0.000976562H124.155V20.9444L121.529 0.0236181H115.144L111.793 24.001H115.461L116.095 18.6576H119.695L120.329 24.001H127.959V9.44249H128.072L132.782 24.001H136.223V0.000976562H132.555ZM116.661 15.1708L118.02 3.6689H118.133L119.378 15.1708H116.661Z" fill="white"/>
</g>
<defs>
<clipPath id="clip0_10714_23230">
<rect width="135.849" height="24" fill="white" transform="translate(0.351562 0.000976562)"/>
</clipPath>
</defs>
</svg>
