<?xml version="1.0" encoding="UTF-8"?><svg id="Layer_2" xmlns="http://www.w3.org/2000/svg" viewBox="0 0 26 26"><defs><style>.cls-1{fill:#fff;stroke:#ffcb13;}</style></defs><g id="Layer_1-2"><path class="cls-1" d="m24.44,9.08h0s-7.11-1.09-7.11-1.09l-3.19-6.81h0c-.23-.48-.71-.68-1.13-.68s-.91.2-1.13.68h0s-3.19,6.81-3.19,6.81l-7.11,1.09h0c-1.01.16-1.41,1.39-.71,2.11,0,0,0,0,0,0l5.18,5.32-1.23,7.53s0,0,0,0c-.17,1.03.93,1.8,1.84,1.3,0,0,0,0,0,0l6.35-3.51,6.35,3.51s0,0,0,0c.9.5,2.01-.25,1.84-1.3l-1.23-7.53,5.18-5.32h0c.71-.73.31-1.96-.71-2.11Z"/></g></svg>