<svg width="95" height="24" viewBox="0 0 95 24" fill="none" xmlns="http://www.w3.org/2000/svg">
<g clip-path="url(#clip0_10714_23233)">
<path d="M46.4113 6.52148C45.6219 6.52148 45.189 6.59586 44.5523 6.89339C43.3809 7.41405 42.5151 8.25702 41.7511 9.62066L41.4965 10.0421L41.5219 9.27355C41.5474 8.85206 41.5729 8.08347 41.5983 7.53801L41.6238 6.57107H41.4455C41.2418 6.57107 34.5189 7.88512 34.3152 7.9595C34.1879 8.00909 34.1624 8.05867 34.1624 8.38099C34.1624 8.7033 34.1879 8.75289 34.3152 8.77768C34.3916 8.80248 34.6972 8.85206 35.0028 8.90165C35.5885 9.00082 35.7667 9.1 36.0214 9.42231C36.4798 9.99256 36.5562 11.0339 36.5562 15.3727C36.5562 18.9182 36.4798 20.7033 36.3015 21.2488C36.0978 21.9182 35.7158 22.2653 35.0537 22.3893C34.85 22.4388 34.5699 22.4884 34.4425 22.5132L34.2133 22.5628L34.1879 23.0091C34.1624 23.3314 34.1879 23.4802 34.2643 23.5298C34.3152 23.5545 36.6071 23.5793 39.3574 23.5793L44.3741 23.5545L44.3995 23.0339C44.3995 22.7612 44.3995 22.5132 44.3741 22.5132C43.9921 22.5132 42.7952 22.3645 42.5915 22.2653C42.0312 22.0421 41.7511 21.5463 41.6238 20.5297C41.4965 19.3645 41.3946 16.414 41.4455 14.0339C41.4965 11.6041 41.4965 11.6041 41.6493 11.4306C42.0058 11.0587 42.9225 10.7612 43.7629 10.7612C44.425 10.7612 45.1126 10.9347 45.8256 11.257C46.1821 11.4306 46.4877 11.5297 46.5386 11.5297C46.6405 11.505 48.2703 7.26529 48.2703 7.06694C48.2703 6.81901 47.3281 6.52148 46.4113 6.52148Z" fill="white"/>
<path d="M34.1886 13.8853C33.8321 10.9597 32.5588 8.82747 30.4452 7.61259C28.1023 6.27375 24.5626 6.19937 22.0416 7.43904C20.2081 8.3316 18.7311 10.0423 18.069 12.0258C17.3814 14.0589 17.3814 16.7366 18.069 18.7944C18.5019 20.1333 19.0876 21.1002 20.0043 21.968C21.0993 23.0341 22.5254 23.7035 24.1807 23.9266C24.7664 24.001 26.6254 24.001 27.2365 23.9266C27.5166 23.8771 28.026 23.7779 28.3315 23.7035C31.311 22.8605 33.3482 20.6291 34.0358 17.4556C34.2141 16.6622 34.2905 14.7779 34.1886 13.8853ZM26.6508 22.6622C24.7918 23.2076 23.4676 21.4721 22.9583 17.8771C22.7801 16.7118 22.8055 13.5382 22.9583 12.2242C23.3148 9.32334 24.2316 7.86053 25.6831 7.86053C26.3452 7.86053 26.7017 8.00929 27.2111 8.50516C28.4334 9.69524 28.9936 11.9762 28.9936 15.5465C28.9936 18.3977 28.6881 20.1828 28.0514 21.3977C27.7204 21.968 27.1347 22.5134 26.6508 22.6622Z" fill="white"/>
<path d="M9.74154 2.23179H11.8806C14.3253 2.23179 14.7328 2.28138 15.5986 2.70287C16.8464 3.29791 17.7632 4.48799 18.5781 6.57063C18.9091 7.41361 18.9091 7.41361 19.6221 7.19047L20.106 7.04171L20.0551 3.99212C20.0296 2.30617 20.0041 0.818569 19.9787 0.694602L19.9277 0.421875H10.5819C5.43788 0.421875 1.13422 0.421875 1.00689 0.446668L0.777702 0.471462L0.803167 1.01692L0.828632 1.56237L1.54167 1.63675C2.45842 1.73592 2.9932 1.98386 3.32425 2.45493C4.06275 3.49625 4.19007 4.93427 4.19007 11.7029C4.19007 18.9177 4.03728 20.6781 3.32425 21.5706C2.96773 22.0417 2.66215 22.1905 1.82179 22.3392C0.752236 22.5624 0.777702 22.5376 0.777702 23.083C0.777702 23.3806 0.803167 23.5541 0.854098 23.5789C0.981425 23.6285 12.9247 23.6285 13.0521 23.5789C13.2048 23.5293 13.2048 22.6615 13.0521 22.5872C12.9757 22.5624 12.5937 22.488 12.1608 22.4136C11.7279 22.3392 11.2695 22.2401 11.1167 22.1905C10.3273 21.8682 9.89434 20.9508 9.74154 19.2896C9.61422 18.0996 9.53782 15.8929 9.53782 14.2814V12.7938L10.2763 12.8186C11.8297 12.8682 12.6191 12.9425 12.9502 13.0913C13.6632 13.3888 14.2235 14.2318 14.5036 15.4219L14.6564 16.0417L15.2166 16.0665L15.7769 16.0913V8.15741L15.2166 8.1822L14.6564 8.207L14.5036 8.82683C14.198 10.0417 13.6887 10.7855 12.9247 11.1326C12.6191 11.2814 12.39 11.3062 11.6769 11.3558C11.1931 11.3806 10.5055 11.4053 10.1745 11.4053H9.53782V9.44667C9.53782 7.48799 9.63968 3.29791 9.71608 2.65328L9.74154 2.23179Z" fill="white"/>
<path d="M94.5661 16.2149C94.0059 15.0992 92.9363 14.3554 90.7463 13.4629C88.9637 12.7439 88.047 12.2232 87.5122 11.6529C87.0538 11.1819 86.9265 10.7852 86.9774 10.091C87.0283 9.44634 87.1811 9.04964 87.6141 8.60336C88.1488 8.03311 88.9128 7.83477 89.8041 8.03311C91.2556 8.33063 92.1978 9.32237 93.0127 11.405C93.2929 12.1488 93.3438 12.1736 93.8531 11.9753L94.1841 11.8513V10.9835C94.1841 10.5125 94.1587 9.52072 94.1332 8.77692L94.0823 7.43807L93.8276 7.3389C92.478 6.79344 89.9314 6.44634 88.2762 6.5951C86.3917 6.76865 84.9911 7.3389 83.9216 8.42981C82.852 9.49592 82.3682 10.7604 82.47 12.248C82.5464 13.4877 82.9029 14.3554 83.6924 15.1488C84.4054 15.8678 85.0166 16.2149 86.7737 16.8844C89.5749 17.9505 90.3389 18.5951 90.3134 19.9091C90.3134 21.0248 89.7022 21.843 88.6072 22.2149C88.1998 22.3389 87.2066 22.3389 86.6718 22.2149C85.2712 21.8678 84.2017 20.6777 83.2849 18.4959L83.0557 17.9257L82.7756 17.9505C82.6228 17.9505 82.4191 18.0001 82.3172 18.0496L82.139 18.1488L82.1644 19.1158C82.1644 19.6364 82.1899 20.7521 82.2154 21.5703L82.2663 23.0827L82.5719 23.2067C83.2085 23.4794 85.1439 23.8761 86.3408 24.0001C86.4936 24.0248 87.3085 24.0248 88.1743 24.0001C89.6513 23.9753 89.7786 23.9753 90.5171 23.7769C92.7326 23.2067 94.1587 22.0166 94.7953 20.2067C94.999 19.6364 95.0245 19.4877 95.05 18.6447C95.0245 17.5042 94.9226 16.9339 94.5661 16.2149Z" fill="white"/>
<path d="M77.4801 7.19085C75.6211 6.27349 72.7435 6.34787 70.6553 7.33961C68.669 8.28176 67.2939 9.86853 66.5299 12.0999C66.1225 13.2652 65.9952 14.1826 66.0461 15.695C66.0716 16.6371 66.1225 17.133 66.2244 17.5793C67.0138 21.0008 69.4075 23.3066 72.769 23.9016C73.5075 24.0256 75.1882 24.0256 75.9267 23.9016C76.9963 23.728 78.2186 23.257 79.008 22.7363C79.9503 22.1165 80.9179 21.1743 80.9179 20.8768C80.9179 20.7032 80.5869 20.2818 80.4596 20.2818C80.4086 20.2818 80.1285 20.4057 79.8739 20.5793C78.9571 21.1743 78.0658 21.3975 76.818 21.3975C75.1118 21.3975 74.0423 20.976 72.9472 19.9099C72.4634 19.4388 72.2597 19.1908 72.0305 18.7198C71.4957 17.7032 71.1901 16.5132 71.1392 15.1743L71.1137 14.6041L76.1304 14.5793L81.1471 14.5545L81.1726 14.2322C81.1726 14.0586 81.1726 13.5875 81.1217 13.1661C80.8161 10.2652 79.5683 8.23217 77.4801 7.19085ZM72.4379 13.2156L71.1647 13.2404V12.9677C71.1647 12.8189 71.2156 12.4223 71.2665 12.0999C71.6994 9.44705 72.7181 7.86027 73.9913 7.86027C75.1627 7.86027 75.8758 9.42225 76.0286 12.2983L76.0795 13.1165L74.8826 13.1413C74.246 13.1661 73.1255 13.1908 72.4379 13.2156Z" fill="white"/>
<path d="M59.3235 6.89316C58.916 6.81878 58.5595 6.79398 57.7956 6.81878C56.6241 6.86837 55.8347 7.01713 54.9434 7.41382C54.6633 7.53779 54.4087 7.66175 54.3832 7.66175C54.3577 7.66175 54.3577 5.95101 54.3832 3.84357C54.4087 0.868366 54.4087 0.0253906 54.3323 0.0253906C54.1031 0.0253906 47.2019 1.31465 47.1255 1.36423C47.0746 1.41382 47.0491 1.56258 47.0491 1.76093C47.0746 2.13283 47.0237 2.10803 47.864 2.28159C48.1187 2.33118 48.4243 2.45514 48.5261 2.52952C48.8063 2.72787 49.0354 3.14936 49.2137 3.7444C49.341 4.21547 49.3665 4.56258 49.4174 7.78572C49.4684 11.0832 49.4684 14.4799 49.3665 20.6783L49.3156 23.2568L49.7994 23.356C50.5124 23.5047 52.5751 23.8518 53.2372 23.9262C54.2304 24.0254 56.5223 24.0006 57.2608 23.9014C60.444 23.4303 62.8377 21.6452 63.9582 18.8932C64.2638 18.1741 64.5439 17.0337 64.6458 16.2155C64.7731 15.2485 64.6967 13.2899 64.5184 12.4965C63.8563 9.49646 61.921 7.41382 59.3235 6.89316ZM54.485 22.4386C54.4087 22.2155 54.3068 14.4799 54.3323 11.4056L54.3577 9.0006L54.8161 8.87663C55.1217 8.80225 55.4782 8.75266 55.8856 8.75266C56.4714 8.75266 56.5223 8.77746 57.0061 9.0006C58.1775 9.57084 58.967 10.9593 59.349 13.0667C59.4763 13.8601 59.5017 15.9923 59.3744 16.9345C59.0688 19.2403 58.3049 21.0998 57.2608 21.9923C56.8533 22.3394 56.4714 22.5378 55.9875 22.637C55.631 22.7113 55.5291 22.7113 54.867 22.6618C54.6124 22.6122 54.5614 22.5874 54.485 22.4386Z" fill="white"/>
</g>
<defs>
<clipPath id="clip0_10714_23233">
<rect width="94.2222" height="24" fill="white" transform="translate(0.77771 0.000976562)"/>
</clipPath>
</defs>
</svg>
