<svg width="60" height="60" viewBox="0 0 60 60" fill="none" xmlns="http://www.w3.org/2000/svg">
<rect y="0.000976562" width="60" height="60" rx="30" fill="#2C0D4C"/>
<path d="M21.5977 38.001H18.0352L18.0586 36.1611H21.5977C22.8164 36.1611 23.832 35.9072 24.6445 35.3994C25.457 34.8838 26.0664 34.165 26.4727 33.2432C26.8867 32.3135 27.0938 31.2275 27.0938 29.9854V28.9424C27.0938 27.9658 26.9766 27.0986 26.7422 26.3408C26.5078 25.5752 26.1641 24.9307 25.7109 24.4072C25.2578 23.876 24.7031 23.4736 24.0469 23.2002C23.3984 22.9268 22.6523 22.79 21.8086 22.79H17.9648V20.9385H21.8086C22.9258 20.9385 23.9453 21.126 24.8672 21.501C25.7891 21.8682 26.582 22.4033 27.2461 23.1064C27.918 23.8018 28.4336 24.6455 28.793 25.6377C29.1523 26.6221 29.332 27.7314 29.332 28.9658V29.9854C29.332 31.2197 29.1523 32.333 28.793 33.3252C28.4336 34.3096 27.9141 35.1494 27.2344 35.8447C26.5625 36.54 25.75 37.0752 24.7969 37.4502C23.8516 37.8174 22.7852 38.001 21.5977 38.001ZM19.2422 20.9385V38.001H16.9805V20.9385H19.2422ZM41.8242 33.6885C41.8242 33.29 41.7617 32.9385 41.6367 32.6338C41.5195 32.3213 41.3086 32.04 41.0039 31.79C40.707 31.54 40.293 31.3018 39.7617 31.0752C39.2383 30.8486 38.5742 30.6182 37.7695 30.3838C36.9258 30.1338 36.1641 29.8564 35.4844 29.5518C34.8047 29.2393 34.2227 28.8838 33.7383 28.4854C33.2539 28.0869 32.8828 27.6299 32.625 27.1143C32.3672 26.5986 32.2383 26.0088 32.2383 25.3447C32.2383 24.6807 32.375 24.0674 32.6484 23.5049C32.9219 22.9424 33.3125 22.4541 33.8203 22.04C34.3359 21.6182 34.9492 21.29 35.6602 21.0557C36.3711 20.8213 37.1641 20.7041 38.0391 20.7041C39.3203 20.7041 40.4062 20.9502 41.2969 21.4424C42.1953 21.9268 42.8789 22.5635 43.3477 23.3525C43.8164 24.1338 44.0508 24.9697 44.0508 25.8604H41.8008C41.8008 25.2197 41.6641 24.6533 41.3906 24.1611C41.1172 23.6611 40.7031 23.2705 40.1484 22.9893C39.5938 22.7002 38.8906 22.5557 38.0391 22.5557C37.2344 22.5557 36.5703 22.6768 36.0469 22.9189C35.5234 23.1611 35.1328 23.4893 34.875 23.9033C34.625 24.3174 34.5 24.79 34.5 25.3213C34.5 25.6807 34.5742 26.0088 34.7227 26.3057C34.8789 26.5947 35.1172 26.8643 35.4375 27.1143C35.7656 27.3643 36.1797 27.5947 36.6797 27.8057C37.1875 28.0166 37.793 28.2197 38.4961 28.415C39.4648 28.6885 40.3008 28.9932 41.0039 29.3291C41.707 29.665 42.2852 30.0439 42.7383 30.4658C43.1992 30.8799 43.5391 31.3525 43.7578 31.8838C43.9844 32.4072 44.0977 33.001 44.0977 33.665C44.0977 34.3604 43.957 34.9893 43.6758 35.5518C43.3945 36.1143 42.9922 36.5947 42.4688 36.9932C41.9453 37.3916 41.3164 37.7002 40.582 37.9189C39.8555 38.1299 39.043 38.2354 38.1445 38.2354C37.3555 38.2354 36.5781 38.126 35.8125 37.9072C35.0547 37.6885 34.3633 37.3604 33.7383 36.9229C33.1211 36.4854 32.625 35.9463 32.25 35.3057C31.8828 34.6572 31.6992 33.9072 31.6992 33.0557H33.9492C33.9492 33.6416 34.0625 34.1455 34.2891 34.5674C34.5156 34.9814 34.8242 35.3252 35.2148 35.5986C35.6133 35.8721 36.0625 36.0752 36.5625 36.208C37.0703 36.333 37.5977 36.3955 38.1445 36.3955C38.9336 36.3955 39.6016 36.2861 40.1484 36.0674C40.6953 35.8486 41.1094 35.5361 41.3906 35.1299C41.6797 34.7236 41.8242 34.2432 41.8242 33.6885Z" fill="white"/>
</svg>
