<svg width="60" height="60" viewBox="0 0 60 60" fill="none" xmlns="http://www.w3.org/2000/svg">
<rect y="0.000976562" width="60" height="60" rx="30" fill="#2C0D4C"/>
<path d="M23.2969 22.4502L17.6484 38.001H15.3398L21.8438 20.9385H23.332L23.2969 22.4502ZM28.0312 38.001L22.3711 22.4502L22.3359 20.9385H23.8242L30.3516 38.001H28.0312ZM27.7383 31.6846V33.5361H18.1523V31.6846H27.7383ZM34.8984 20.9385V38.001H32.6367V20.9385H34.8984ZM45.1992 20.9385L38.1094 28.8955L34.125 33.0322L33.75 30.6182L36.75 27.3135L42.4805 20.9385H45.1992ZM43.0195 38.001L36.7031 29.6807L38.0508 27.8877L45.7148 38.001H43.0195Z" fill="white"/>
</svg>
