<svg width="115" height="24" viewBox="0 0 115 24" fill="none" xmlns="http://www.w3.org/2000/svg">
<g clip-path="url(#clip0_10714_23195)">
<path d="M94.572 16.8614V17.2034C94.572 19.2374 94.572 21.2654 94.572 23.2994C94.572 23.3774 94.572 23.4554 94.572 23.5334C94.572 23.6474 94.524 23.6894 94.41 23.6894C93.708 23.6894 93.006 23.6894 92.31 23.6894C92.178 23.6894 92.136 23.6294 92.142 23.5094C92.142 23.4494 92.142 23.3894 92.142 23.3294C92.142 19.8734 92.142 16.4234 92.142 12.9674C92.142 12.5954 92.094 12.6134 92.49 12.6134C93.144 12.6134 93.792 12.6254 94.446 12.6134C94.68 12.6134 94.812 12.6794 94.944 12.8834C96.216 14.9174 97.5 16.9394 98.778 18.9674C98.826 19.0454 98.868 19.1414 98.97 19.2134C99.012 19.1114 98.994 19.0094 98.994 18.9194C98.994 16.9754 98.994 15.0314 98.994 13.0874C98.994 13.0274 98.994 12.9674 98.994 12.9074C98.994 12.5834 98.994 12.6194 99.282 12.6194C99.906 12.6194 100.524 12.6194 101.148 12.6194C101.418 12.6194 101.418 12.6194 101.418 12.9014C101.418 15.0734 101.418 17.2454 101.418 19.4114C101.418 20.7014 101.418 21.9974 101.418 23.2874C101.418 23.3594 101.418 23.4254 101.418 23.4974C101.43 23.6354 101.376 23.6954 101.232 23.6894C100.524 23.6894 99.81 23.6834 99.102 23.6894C98.934 23.6894 98.88 23.5874 98.814 23.4794C98.358 22.7534 97.902 22.0274 97.44 21.3014C96.558 19.8974 95.67 18.4994 94.788 17.0954C94.74 17.0174 94.704 16.9214 94.572 16.8494V16.8614Z" fill="white"/>
<path d="M42.624 7.30927C42.378 7.30927 42.168 7.30927 41.964 7.30927C41.172 7.30927 40.386 7.30927 39.594 7.30927C39.366 7.30927 39.366 7.30927 39.36 7.08127C39.36 6.45127 39.36 5.82127 39.36 5.18527C39.36 4.97527 39.366 4.96927 39.576 4.96327C39.624 4.96327 39.672 4.96327 39.726 4.96327C41.46 4.96327 43.2 4.96327 44.934 4.96327C45.012 4.96327 45.09 4.96327 45.168 4.96327C45.252 4.96327 45.288 5.01127 45.294 5.09527C45.348 6.44527 45.24 7.75927 44.508 8.94727C43.548 10.5013 42.144 11.3533 40.338 11.4973C38.85 11.6173 37.476 11.2453 36.288 10.3213C35.088 9.38527 34.404 8.13727 34.212 6.63127C34.032 5.23327 34.272 3.91327 35.034 2.71927C35.976 1.23727 37.35 0.409271 39.084 0.205271C40.578 0.0252714 41.964 0.349271 43.212 1.20727C43.872 1.66327 44.394 2.25127 44.796 2.94127C44.922 3.15727 44.922 3.15727 44.7 3.29527C44.13 3.64327 43.554 3.99127 42.984 4.33927C42.804 4.44727 42.798 4.44727 42.696 4.26127C42.462 3.83527 42.168 3.45127 41.784 3.14527C40.716 2.29927 38.748 2.21527 37.494 3.52327C36.03 5.05327 36.342 7.64527 38.172 8.67727C39.33 9.33127 40.53 9.34327 41.67 8.59327C42.126 8.29327 42.432 7.86127 42.63 7.29727L42.624 7.30927Z" fill="white"/>
<path d="M111.414 19.6272C110.448 19.6272 109.518 19.6272 108.594 19.6272C108.504 19.6272 108.414 19.6272 108.33 19.6272C108.216 19.6332 108.174 19.5912 108.174 19.4712C108.174 18.7992 108.174 18.1272 108.174 17.4612C108.174 17.3352 108.222 17.2812 108.348 17.2872C108.414 17.2872 108.486 17.2872 108.558 17.2872C110.286 17.2872 112.014 17.2872 113.742 17.2872C113.82 17.2872 113.898 17.2872 113.976 17.2872C114.078 17.2872 114.114 17.3352 114.114 17.4372C114.12 18.2592 114.144 19.0812 113.904 19.8732C113.232 22.0992 111.762 23.4672 109.446 23.7732C107.322 24.0552 105.504 23.3772 104.142 21.6852C103.242 20.5692 102.9 19.2552 102.972 17.8392C103.062 16.1532 103.728 14.7492 105.048 13.6872C105.942 12.9672 106.974 12.5892 108.12 12.5052C109.548 12.3972 110.862 12.7272 112.038 13.5492C112.692 14.0112 113.214 14.5992 113.616 15.2892C113.724 15.4812 113.724 15.4812 113.556 15.5892C112.968 15.9492 112.374 16.3092 111.786 16.6632C111.606 16.7712 111.6 16.7712 111.498 16.5912C111.282 16.2012 111.018 15.8472 110.676 15.5532C109.626 14.6412 107.622 14.5332 106.356 15.7992C104.658 17.4912 105.24 20.4312 107.454 21.2532C108.438 21.6192 109.41 21.5772 110.334 21.0372C110.814 20.7552 111.15 20.3292 111.378 19.8192C111.396 19.7772 111.408 19.7292 111.432 19.6392L111.414 19.6272Z" fill="white"/>
<path d="M52.032 11.5154C48.912 11.5154 46.398 8.96541 46.398 5.81541C46.398 2.68941 48.948 0.139409 52.068 0.151409C55.176 0.163409 57.714 2.72541 57.708 5.85141C57.708 8.97741 55.152 11.5154 52.032 11.5154ZM48.816 5.82741C48.816 7.63941 50.25 9.10941 52.038 9.11541C53.838 9.11541 55.296 7.65141 55.296 5.83341C55.296 4.03341 53.85 2.56941 52.056 2.56341C50.268 2.55741 48.822 4.01541 48.816 5.82741Z" fill="white"/>
<path d="M70.116 5.83337C70.116 8.97137 67.584 11.5154 64.464 11.5154C61.332 11.5154 58.8 8.96537 58.806 5.80937C58.806 2.70137 61.362 0.151367 64.458 0.151367C67.578 0.151367 70.116 2.70137 70.116 5.83337ZM64.392 9.11537C66.15 9.17537 67.632 7.74137 67.704 5.91137C67.776 4.18337 66.342 2.64737 64.632 2.55737C62.868 2.46737 61.29 3.83537 61.224 5.71337C61.158 7.54937 62.568 9.04937 64.392 9.10937V9.11537Z" fill="white"/>
<path d="M22.164 18.193C22.116 21.511 19.368 23.953 16.29 23.839C13.242 23.725 10.806 21.157 10.848 18.067C10.89 15.097 13.314 12.439 16.566 12.481C19.71 12.517 22.164 15.079 22.164 18.193ZM16.5 14.881C14.712 14.881 13.266 16.339 13.26 18.151C13.248 19.945 14.706 21.427 16.488 21.439C18.276 21.451 19.746 19.963 19.746 18.151C19.746 16.357 18.282 14.887 16.5 14.887V14.881Z" fill="white"/>
<path d="M9.39599 18.1754C9.39599 19.8794 9.39599 21.5894 9.39599 23.2934C9.39599 23.3654 9.39599 23.4314 9.39599 23.5034C9.40799 23.6354 9.35999 23.7014 9.20999 23.6954C8.51999 23.6954 7.82999 23.6954 7.13999 23.6954C7.01399 23.6954 6.96599 23.6474 6.96599 23.5214C6.96599 23.2874 6.96599 23.0474 6.96599 22.8134C6.96599 21.7694 6.96599 20.7194 6.96599 19.6754C6.96599 19.6034 6.96599 19.5374 6.96599 19.4654C6.96599 19.3694 6.92999 19.3214 6.82799 19.3214C6.76799 19.3214 6.70799 19.3214 6.64799 19.3214C5.65199 19.3214 4.65599 19.3214 3.65999 19.3214C3.32999 19.3214 3.35399 19.2974 3.35399 19.6214C3.35399 20.8454 3.35399 22.0694 3.35399 23.2934C3.35399 23.3654 3.35399 23.4314 3.35399 23.5034C3.36599 23.6354 3.31799 23.7014 3.16799 23.7014C2.35199 23.7014 1.52999 23.7014 0.713994 23.7014C0.563994 23.7014 0.491994 23.6534 0.497994 23.4974C0.497994 23.4314 0.497994 23.3594 0.497994 23.2874C0.497994 19.8734 0.497994 16.4594 0.497994 13.0454C0.497994 12.5774 0.467994 12.6254 0.905994 12.6254C1.62599 12.6254 2.34599 12.6254 3.06599 12.6254C3.34799 12.6254 3.35399 12.6254 3.35399 12.9194C3.35399 14.1614 3.35399 15.4034 3.35399 16.6514C3.35399 16.9934 3.32399 16.9754 3.67199 16.9754C4.66799 16.9754 5.66399 16.9754 6.65999 16.9754C6.70799 16.9754 6.75599 16.9754 6.80999 16.9754C6.91799 16.9754 6.97799 16.9394 6.97199 16.8254C6.97199 16.7594 6.97199 16.6874 6.97199 16.6154C6.97199 15.4214 6.97199 14.2274 6.97199 13.0334C6.97199 12.9614 6.97799 12.8954 6.97199 12.8234C6.95399 12.6614 7.03199 12.6194 7.18199 12.6254C7.83599 12.6254 8.48399 12.6254 9.13799 12.6254C9.40199 12.6254 9.40799 12.6254 9.40799 12.9074C9.40799 14.6654 9.40799 16.4174 9.40799 18.1754H9.39599Z" fill="white"/>
<path d="M71.634 5.84503C71.634 4.12903 71.634 2.41303 71.634 0.697031C71.634 0.619031 71.634 0.541031 71.634 0.463031C71.634 0.349031 71.682 0.301031 71.79 0.307031C71.808 0.307031 71.832 0.307031 71.85 0.307031C73.014 0.319031 74.178 0.259031 75.342 0.331031C76.71 0.415031 77.946 0.865031 78.96 1.81903C79.794 2.60503 80.28 3.57703 80.478 4.69903C80.67 5.77903 80.616 6.84703 80.22 7.87303C79.518 9.69103 78.162 10.759 76.296 11.215C75.786 11.341 75.264 11.377 74.742 11.377C73.806 11.377 72.87 11.377 71.928 11.377C71.88 11.377 71.832 11.377 71.778 11.377C71.676 11.377 71.634 11.329 71.64 11.233C71.64 11.155 71.64 11.077 71.64 10.999C71.64 9.28303 71.64 7.56703 71.64 5.85103L71.634 5.84503ZM74.064 5.83903C74.064 6.14503 74.064 6.45103 74.064 6.75703C74.064 7.45903 74.064 8.15503 74.064 8.85703C74.064 9.07903 74.064 9.07903 74.298 9.08503C74.76 9.09703 75.228 9.08503 75.678 8.95903C76.926 8.62903 77.766 7.88503 78.066 6.60103C78.186 6.08503 78.18 5.56303 78.078 5.04103C77.874 4.01503 77.298 3.29503 76.32 2.89903C75.648 2.62303 74.946 2.56903 74.232 2.57503C74.1 2.57503 74.058 2.63503 74.064 2.75503C74.064 2.82103 74.064 2.89303 74.064 2.96503C74.064 3.91903 74.064 4.87903 74.064 5.83303V5.83903Z" fill="white"/>
<path d="M59.784 12.6674C59.556 12.9494 59.352 13.2134 59.142 13.4714C58.248 14.5754 57.354 15.6794 56.46 16.7834C56.344 16.9234 56.332 17.0754 56.424 17.2394C57.564 19.2794 58.71 21.3194 59.85 23.3534C59.904 23.4494 59.952 23.5454 60 23.6354C59.934 23.7374 59.85 23.6954 59.778 23.7014C59.04 23.7014 58.296 23.6954 57.558 23.7074C57.336 23.7074 57.228 23.6234 57.126 23.4374C56.346 21.9914 55.548 20.5454 54.762 19.0994C54.708 18.9974 54.666 18.8834 54.552 18.7814C54.324 19.0634 54.114 19.3394 53.88 19.6034C53.73 19.7714 53.688 19.9514 53.688 20.1674C53.694 21.2234 53.688 22.2794 53.688 23.3354C53.688 23.4074 53.688 23.4734 53.688 23.5454C53.688 23.6594 53.634 23.7014 53.526 23.7014C52.824 23.7014 52.122 23.7014 51.426 23.7014C51.294 23.7014 51.252 23.6354 51.258 23.5214C51.258 23.4614 51.258 23.4014 51.258 23.3414C51.258 19.8854 51.258 16.4354 51.258 12.9794C51.258 12.6014 51.21 12.6314 51.606 12.6254C52.218 12.6254 52.83 12.6254 53.442 12.6254C53.682 12.6254 53.688 12.6254 53.688 12.8714C53.688 13.9694 53.688 15.0614 53.688 16.1594C53.688 16.2554 53.67 16.3514 53.718 16.4654C53.82 16.4174 53.862 16.3274 53.922 16.2554C54.828 15.1274 55.74 13.9994 56.64 12.8594C56.778 12.6854 56.916 12.6194 57.138 12.6254C57.906 12.6374 58.68 12.6254 59.448 12.6314C59.544 12.6314 59.646 12.6134 59.778 12.6734L59.784 12.6674Z" fill="white"/>
<path d="M42.63 18.157C42.63 16.423 42.63 14.683 42.63 12.949C42.63 12.625 42.588 12.625 42.948 12.625C44.982 12.625 47.01 12.625 49.044 12.625C49.062 12.625 49.086 12.625 49.104 12.625C49.362 12.625 49.362 12.625 49.362 12.889C49.362 13.483 49.362 14.071 49.362 14.665C49.362 14.959 49.362 14.959 49.074 14.959C47.952 14.959 46.824 14.959 45.702 14.959C45.546 14.959 45.384 14.959 45.228 14.959C45.096 14.959 45.054 15.013 45.054 15.139C45.054 15.691 45.054 16.243 45.054 16.795C45.054 16.957 45.138 16.969 45.258 16.969C45.702 16.969 46.146 16.969 46.59 16.969C47.43 16.969 48.27 16.969 49.104 16.969C49.356 16.969 49.362 16.969 49.362 17.233C49.362 17.833 49.362 18.439 49.362 19.039C49.362 19.315 49.362 19.315 49.086 19.315C47.88 19.315 46.68 19.315 45.474 19.315C44.994 19.315 45.06 19.273 45.054 19.717C45.054 20.179 45.054 20.647 45.054 21.109C45.054 21.349 45.054 21.349 45.3 21.349C46.524 21.349 47.748 21.349 48.972 21.349C49.41 21.349 49.356 21.295 49.356 21.751C49.356 22.303 49.356 22.855 49.356 23.407C49.356 23.695 49.356 23.701 49.062 23.701C47.13 23.701 45.192 23.701 43.26 23.701C43.134 23.701 43.002 23.701 42.876 23.701C42.63 23.701 42.624 23.701 42.624 23.461C42.624 23.401 42.624 23.341 42.624 23.281C42.624 21.577 42.624 19.867 42.624 18.163L42.63 18.157Z" fill="white"/>
<path d="M69.69 18.1571C69.69 16.4471 69.69 14.7431 69.69 13.0331C69.69 12.9911 69.69 12.9551 69.69 12.9131C69.69 12.6251 69.69 12.6191 69.978 12.6191C72.03 12.6191 74.082 12.6191 76.134 12.6191C76.182 12.6191 76.23 12.6191 76.284 12.6191C76.386 12.6191 76.422 12.6731 76.422 12.7691C76.422 12.8291 76.422 12.8891 76.422 12.9491C76.422 13.5311 76.422 14.1131 76.422 14.6951C76.422 14.9471 76.422 14.9531 76.158 14.9531C74.946 14.9531 73.728 14.9531 72.516 14.9531C72.438 14.9531 72.36 14.9531 72.282 14.9531C72.168 14.9531 72.12 15.0011 72.12 15.1091C72.12 15.6731 72.12 16.2311 72.12 16.7951C72.12 16.9091 72.162 16.9631 72.276 16.9511C72.342 16.9511 72.414 16.9511 72.486 16.9511C73.68 16.9511 74.874 16.9511 76.068 16.9511C76.14 16.9511 76.206 16.9511 76.278 16.9511C76.392 16.9451 76.434 17.0051 76.428 17.1131C76.428 17.7851 76.428 18.4571 76.428 19.1231C76.428 19.2491 76.374 19.2971 76.254 19.2971C76.098 19.2971 75.936 19.2971 75.78 19.2971C74.694 19.2971 73.608 19.2971 72.522 19.2971C72.45 19.2971 72.384 19.2971 72.312 19.2971C72.174 19.2911 72.12 19.3391 72.12 19.4831C72.126 20.0471 72.12 20.6051 72.12 21.1691C72.12 21.2771 72.156 21.3371 72.27 21.3311C72.336 21.3311 72.408 21.3311 72.48 21.3311C73.674 21.3311 74.868 21.3311 76.062 21.3311C76.134 21.3311 76.2 21.3311 76.272 21.3311C76.386 21.3311 76.428 21.3791 76.428 21.4931C76.428 22.1651 76.428 22.8371 76.428 23.5031C76.428 23.6291 76.386 23.6891 76.254 23.6771C76.194 23.6771 76.134 23.6771 76.074 23.6771C74.058 23.6771 72.048 23.6771 70.032 23.6771C70.002 23.6771 69.972 23.6771 69.942 23.6771C69.69 23.6771 69.684 23.6771 69.684 23.4071C69.684 21.6491 69.684 19.8971 69.684 18.1391L69.69 18.1571Z" fill="white"/>
<path d="M61.068 18.1448C61.068 16.4468 61.068 14.7488 61.068 13.0508C61.068 12.9728 61.068 12.8948 61.068 12.8168C61.056 12.6788 61.11 12.6128 61.254 12.6248C61.314 12.6248 61.374 12.6248 61.434 12.6248C63.438 12.6248 65.442 12.6248 67.446 12.6248C67.494 12.6248 67.548 12.6248 67.596 12.6248C67.752 12.6068 67.8 12.6788 67.794 12.8288C67.794 13.4528 67.794 14.0708 67.794 14.6948C67.794 14.9528 67.794 14.9528 67.536 14.9588C66.33 14.9588 65.13 14.9588 63.924 14.9588C63.474 14.9588 63.51 14.8928 63.51 15.3668C63.51 15.7988 63.51 16.2368 63.51 16.6688C63.51 17.0048 63.51 16.9628 63.822 16.9628C65.016 16.9628 66.21 16.9628 67.404 16.9628C67.848 16.9628 67.794 16.9028 67.794 17.3588C67.794 17.9108 67.794 18.4628 67.794 19.0148C67.794 19.3088 67.794 19.3088 67.506 19.3088C66.294 19.3088 65.076 19.3088 63.864 19.3088C63.48 19.3088 63.51 19.2728 63.51 19.6568C63.51 20.1428 63.51 20.6228 63.51 21.1088C63.51 21.3428 63.51 21.3488 63.762 21.3488C64.986 21.3488 66.21 21.3488 67.434 21.3488C67.506 21.3488 67.572 21.3488 67.644 21.3488C67.758 21.3428 67.806 21.3908 67.806 21.5048C67.806 22.1828 67.806 22.8668 67.806 23.5448C67.806 23.6648 67.746 23.7008 67.638 23.6948C67.578 23.6948 67.518 23.6948 67.458 23.6948C65.442 23.6948 63.432 23.6948 61.416 23.6948C61.356 23.6948 61.296 23.6948 61.236 23.6948C61.122 23.6948 61.074 23.6408 61.08 23.5328C61.08 23.4548 61.08 23.3768 61.08 23.2988C61.08 21.5828 61.08 19.8668 61.08 18.1448H61.068Z" fill="white"/>
<path d="M23.64 16.5731C23.64 15.3971 23.64 14.2271 23.64 13.0511C23.64 12.9731 23.64 12.8951 23.64 12.8171C23.628 12.6791 23.682 12.6251 23.826 12.6251C24.516 12.6251 25.206 12.6251 25.896 12.6251C26.022 12.6251 26.076 12.6731 26.07 12.7991C26.07 12.8771 26.07 12.9551 26.07 13.0331C26.07 15.2651 26.07 17.4911 26.07 19.7231C26.07 19.9691 26.07 20.2151 26.148 20.4551C26.382 21.1871 27.066 21.6251 27.846 21.5351C28.632 21.4451 29.232 20.8451 29.292 20.0891C29.304 19.9631 29.298 19.8311 29.298 19.7051C29.298 17.4851 29.298 15.2651 29.298 13.0451C29.298 12.9731 29.298 12.9071 29.298 12.8351C29.304 12.6251 29.304 12.6191 29.514 12.6191C30.186 12.6191 30.858 12.6191 31.524 12.6191C31.542 12.6191 31.566 12.6191 31.584 12.6191C31.686 12.6191 31.728 12.6611 31.728 12.7571C31.728 12.8171 31.728 12.8771 31.728 12.9371C31.728 15.1931 31.728 17.4551 31.728 19.7111C31.728 20.1791 31.698 20.6411 31.572 21.0851C31.146 22.6091 30.114 23.4791 28.578 23.7491C27.822 23.8811 27.066 23.8571 26.322 23.6471C24.846 23.2211 24.006 22.2191 23.718 20.7311C23.646 20.3531 23.64 19.9691 23.634 19.5791C23.634 18.5711 23.634 17.5691 23.634 16.5611L23.64 16.5731Z" fill="white"/>
<path d="M78.33 18.1506C78.33 16.4526 78.33 14.7546 78.33 13.0566C78.33 12.9966 78.33 12.9366 78.33 12.8766C78.33 12.6186 78.33 12.6186 78.594 12.6186C79.818 12.6186 81.042 12.6066 82.266 12.6186C84.048 12.6426 85.548 13.7406 86.046 15.4026C86.856 18.0966 84.942 20.5686 82.32 20.6346C81.876 20.6466 81.432 20.6346 80.988 20.6346C80.766 20.6346 80.76 20.6346 80.76 20.8686C80.76 21.6846 80.76 22.5066 80.76 23.3226C80.76 23.3946 80.76 23.4606 80.76 23.5326C80.76 23.6466 80.7 23.6886 80.598 23.6886C79.896 23.6886 79.194 23.6886 78.498 23.6886C78.39 23.6886 78.33 23.6466 78.336 23.5326C78.336 23.4546 78.336 23.3766 78.336 23.2986C78.336 21.5826 78.336 19.8666 78.336 18.1506H78.33ZM80.754 16.6326C80.754 16.7286 80.754 16.8306 80.754 16.9266C80.754 17.3406 80.754 17.7546 80.754 18.1686C80.754 18.2706 80.754 18.3726 80.898 18.3666C81.378 18.3546 81.864 18.4086 82.344 18.3306C83.22 18.1986 83.784 17.5206 83.778 16.6206C83.778 15.7386 83.202 15.0666 82.344 14.9346C81.894 14.8626 81.438 14.9106 80.988 14.8986C80.754 14.8986 80.748 14.8986 80.748 15.1506C80.748 15.6426 80.748 16.1346 80.748 16.6326H80.754Z" fill="white"/>
<path d="M34.95 19.9691C35.058 20.1371 35.142 20.2811 35.238 20.4131C35.814 21.1811 36.552 21.5951 37.536 21.4571C38.148 21.3731 38.58 20.8991 38.598 20.3291C38.604 20.0831 38.514 19.8911 38.34 19.7291C38.16 19.5671 37.95 19.4651 37.728 19.3751C37.218 19.1651 36.684 19.0271 36.156 18.8591C35.772 18.7331 35.394 18.5891 35.028 18.4151C32.868 17.3831 32.982 14.6771 34.392 13.4531C35.226 12.7271 36.21 12.4511 37.29 12.4751C38.79 12.5111 40.02 13.0991 40.968 14.2211C40.956 14.3231 40.866 14.3531 40.8 14.4071C40.272 14.8091 39.744 15.2051 39.216 15.6011C38.988 15.7751 38.982 15.7751 38.826 15.5471C38.532 15.1271 38.142 14.8391 37.632 14.7371C37.278 14.6651 36.924 14.6591 36.576 14.7611C36.444 14.8031 36.318 14.8631 36.21 14.9471C35.742 15.3131 35.754 15.9371 36.234 16.2791C36.48 16.4531 36.756 16.5611 37.032 16.6571C37.542 16.8371 38.058 17.0051 38.568 17.1851C38.91 17.3051 39.24 17.4611 39.558 17.6411C40.872 18.3971 41.31 19.6571 41.034 21.0191C40.776 22.2671 39.984 23.0891 38.82 23.5151C37.146 24.1271 35.562 23.8511 34.074 22.9031C33.612 22.6091 33.228 22.2311 32.862 21.8231C32.784 21.7391 32.748 21.6791 32.862 21.5891C33.546 21.0551 34.23 20.5211 34.932 19.9631L34.95 19.9691Z" fill="white"/>
<path d="M87.684 18.1394C87.684 16.4354 87.684 14.7254 87.684 13.0214C87.684 12.9494 87.684 12.8834 87.684 12.8174C87.672 12.6854 87.72 12.6194 87.864 12.6254C88.554 12.6254 89.244 12.6254 89.934 12.6254C90.054 12.6254 90.12 12.6614 90.114 12.7934C90.114 12.8594 90.114 12.9314 90.114 13.0034C90.114 16.4474 90.114 19.8854 90.114 23.3294C90.114 23.7254 90.162 23.7014 89.754 23.7014C89.16 23.7014 88.572 23.7014 87.978 23.7014C87.684 23.7014 87.684 23.7014 87.684 23.4134C87.684 21.6554 87.684 19.9034 87.684 18.1454V18.1394Z" fill="white"/>
</g>
<defs>
<clipPath id="clip0_10714_23195">
<rect width="114.6" height="24" fill="white" transform="translate(0 0.000976562)"/>
</clipPath>
</defs>
</svg>
