<svg width="1100" height="24" viewBox="0 0 1100 24" fill="none" xmlns="http://www.w3.org/2000/svg">
<g clip-path="url(#clip0_11192_13386)">
<g clip-path="url(#clip1_11192_13386)">
<path d="M217.958 24.0003V20.4425H214.403V16.8244H217.958V13.3571C217.958 13.3504 218.042 13.2666 218.049 13.2666H221.936V16.7339C221.936 16.7406 222.019 16.8244 222.026 16.8244H225.491V20.4425H221.936V24.0003H217.959H217.958Z" fill="white"/>
<path d="M219.405 0C219.826 0.0951424 220.254 0.149414 220.67 0.271357C221.732 0.583585 222.757 1.28241 223.382 2.19832L222.206 2.94271C220.999 1.08543 218.006 0.879732 216.21 1.89749C213.552 3.40368 213.927 7.75075 216.934 8.65327C218.807 9.21541 220.831 8.80201 222.086 7.25226C222.245 7.38626 223.199 7.82044 223.258 7.90419C223.391 8.09514 222.151 9.08543 221.955 9.21407C219.446 10.8563 215.222 10.4905 213.632 7.73668C213.304 7.16851 213.162 6.60368 213.018 5.96985C213.058 5.44858 212.963 4.85226 213.018 4.34171C213.286 1.82513 215.56 0.194975 217.958 0H219.405Z" fill="white"/>
<path d="M257.43 0.120285C257.436 0.124305 257.439 0.220787 257.488 0.270368C258.017 0.809062 258.469 1.42347 258.965 1.99097C260.649 3.91191 262.374 5.79868 264.058 7.71894V0.120285H265.505V10.07H264.209C261.973 7.55345 259.812 4.95848 257.55 2.47204V10.07H256.104V0.120285C256.312 0.164506 257.338 0.0613231 257.43 0.120285Z" fill="white"/>
<path d="M242.183 0.120117V1.38645H235.374V4.22062H241.4V5.54725H235.374V8.74323H242.244V10.0699H233.927V0.120117H242.183Z" fill="white"/>
<path d="M249.897 13.6885V14.9548H243.117C243.111 14.9548 243.027 15.0386 243.027 15.0453V17.789H249.113V19.1156H243.027V22.3116H249.957V23.6382H241.641V13.6885H249.897Z" fill="white"/>
<path d="M231.517 13.6885V17.789H238.086V13.6885H239.532V23.6382H238.086V19.1156H231.517V23.6382H230.071V13.6885H231.517Z" fill="white"/>
<path d="M282.679 13.6885V17.789H289.247V13.6885H290.694V23.6382H289.247V19.1156H282.679V23.6382H281.233V13.6885H282.679Z" fill="white"/>
<path d="M243.449 10.0706L248.478 0.116211L249.586 0.130281L254.356 10.07H252.82L251.316 7.17082L246.472 7.18489L245.077 10.0693H243.45L243.449 10.0706ZM250.741 5.84954L248.934 2.29176L247.186 5.84954H250.741Z" fill="white"/>
<path d="M251.162 23.6383L256.113 13.6986L257.221 13.6846L262.07 23.639H260.533L259.111 20.7807L258.91 20.6809L254.276 20.6943L252.76 23.6397H251.163L251.162 23.6383ZM254.898 19.4172H258.453L256.677 15.8588L254.898 19.4172Z" fill="white"/>
<path d="M303.409 13.6885L298.287 18.9649V23.6382H296.84V18.9046L291.718 13.6885H293.616C294.5 14.5923 295.416 15.4654 296.299 16.3706C296.465 16.5401 297.441 17.6898 297.585 17.6644L301.51 13.6891H303.408L303.409 13.6885Z" fill="white"/>
<path d="M279.666 13.6885V14.9548H275.87V23.6382H274.423V14.9548H270.627V13.6885H279.666Z" fill="white"/>
<path d="M265.324 13.6885V22.3116H271.591V23.6382H263.877V13.6885H265.324Z" fill="white"/>
<path d="M226.275 0.120117V8.74323H232.451C232.458 8.74323 232.542 8.82698 232.542 8.83368V10.0699H224.829V0.120117H226.275H226.275Z" fill="white"/>
</g>
<path d="M411.472 14.7721C411.844 10.9861 412.216 7.20012 412.582 3.41412C412.612 3.07212 412.618 2.73012 412.612 2.38812C412.612 2.10012 412.516 1.77612 412.222 1.73412C411.496 1.62012 411.772 1.08012 411.802 0.726117C411.838 0.270117 412.276 0.504117 412.522 0.498117C413.23 0.462117 413.938 0.480117 414.646 0.492117C414.832 0.492117 415.114 0.414117 415.114 0.726117C415.114 1.03212 415.306 1.50012 414.994 1.60812C414.316 1.83612 414.334 2.38212 414.28 2.87412C414.022 5.27412 413.794 7.68012 413.554 10.0861C413.122 14.3701 412.684 18.6541 412.27 22.9441C412.216 23.4841 412.054 23.7001 411.484 23.6461C410.92 23.5921 410.338 23.5861 409.774 23.6521C409.204 23.7241 409.096 23.4661 409.042 22.9801C408.724 20.0581 408.382 17.1361 408.046 14.2201C408.022 13.9981 407.956 13.7821 407.83 13.5721C407.5 16.5061 407.152 19.4341 406.846 22.3681C406.708 23.6521 406.744 23.6521 405.454 23.6521C403.582 23.6521 403.612 23.6521 403.426 21.7801C402.856 16.1101 402.268 10.4461 401.68 4.77612C401.596 3.96012 401.512 3.14412 401.416 2.32812C401.386 2.08812 401.38 1.77612 401.062 1.73412C400.402 1.64412 400.606 1.15212 400.624 0.786117C400.654 0.294117 401.074 0.522117 401.32 0.516117C402.484 0.492117 403.648 0.498117 404.812 0.516117C405.01 0.516117 405.334 0.372117 405.376 0.708117C405.412 1.02612 405.586 1.48812 405.232 1.64412C404.668 1.89012 404.746 2.30412 404.788 2.72412C405.028 5.35812 405.28 7.98612 405.526 10.6201C405.652 11.9341 405.772 13.2541 405.898 14.5681C405.928 14.8561 405.898 15.1561 406.12 15.4921C406.462 12.3721 406.846 9.34212 407.098 6.30612C407.212 4.90212 406.834 3.49812 406.708 2.09412C406.696 1.92612 406.642 1.75212 406.462 1.72812C405.736 1.63212 406.018 1.06812 406.054 0.726117C406.096 0.282117 406.534 0.510117 406.78 0.504117C407.92 0.480117 409.06 0.486117 410.206 0.498117C410.41 0.498117 410.728 0.390117 410.734 0.744117C410.734 1.06212 410.95 1.51812 410.554 1.66812C409.948 1.89012 409.99 2.34012 410.038 2.78412C410.266 4.96212 410.518 7.13412 410.764 9.30612C410.968 11.1361 411.172 12.9661 411.376 14.8021C411.412 14.8021 411.442 14.7901 411.478 14.7841L411.472 14.7721Z" fill="white"/>
<path d="M427.42 7.46367C428.944 5.32767 431.44 5.38167 432.532 7.51167C433.222 6.02967 434.47 5.84367 435.862 5.98167C436.822 6.07767 437.332 6.54567 437.554 7.48767C437.668 7.96167 437.68 8.43567 437.68 8.91567C437.68 13.1157 437.68 17.3097 437.68 21.5097C437.68 21.8817 437.524 22.3017 438.154 22.4757C438.472 22.5657 438.286 23.0877 438.268 23.4057C438.25 23.7117 437.962 23.6157 437.776 23.6217C436.54 23.6277 435.31 23.6277 434.074 23.6217C433.888 23.6217 433.594 23.7177 433.57 23.4297C433.546 23.0937 433.342 22.6497 433.714 22.4397C434.05 22.2477 434.086 22.0077 434.086 21.7137C434.086 17.4957 434.086 13.2717 434.086 9.05367C434.086 8.57967 434.086 8.03967 433.336 8.11167C432.916 8.15367 432.646 8.33367 432.604 8.77167C432.574 9.11367 432.544 9.45567 432.544 9.79767C432.544 13.6077 432.532 17.4177 432.55 21.2277C432.55 21.6777 432.328 22.2237 433.012 22.5117C433.216 22.5957 433.114 23.1117 433.06 23.4237C433 23.7597 432.694 23.6217 432.49 23.6277C431.302 23.6397 430.114 23.6397 428.926 23.6277C428.716 23.6277 428.386 23.7177 428.398 23.3757C428.41 23.0577 428.122 22.6137 428.614 22.4277C428.944 22.3017 428.92 22.0737 428.92 21.8277C428.92 17.4957 428.92 13.1577 428.92 8.82567C428.92 8.46567 428.878 8.12367 428.386 8.11767C427.936 8.11767 427.552 8.20767 427.492 8.74167C427.456 9.03567 427.42 9.32967 427.42 9.62367C427.42 13.6137 427.42 17.6097 427.42 21.5997C427.42 21.9477 427.348 22.2837 427.804 22.5177C428.074 22.6497 427.936 23.1117 427.888 23.4177C427.84 23.7417 427.528 23.6217 427.318 23.6277C426.178 23.6397 425.032 23.6397 423.892 23.6277C423.688 23.6277 423.364 23.7297 423.364 23.3817C423.364 23.0697 423.142 22.6137 423.55 22.4697C424.018 22.3077 423.982 22.0017 423.982 21.6657C423.982 17.2377 423.982 12.8157 423.982 8.38767C423.982 8.02167 424.042 7.64367 423.532 7.43967C423.16 7.28967 423.382 6.82767 423.364 6.50967C423.346 6.19167 423.634 6.26367 423.82 6.24567C424.822 6.15567 425.824 6.09567 426.82 5.98167C427.312 5.92767 427.486 6.08967 427.426 6.56967C427.396 6.80967 427.426 7.06167 427.426 7.46967L427.42 7.46367Z" fill="white"/>
<path d="M470.452 17.1838C470.452 18.5758 470.452 19.9678 470.452 21.3598C470.452 21.8998 470.452 22.4158 471.232 22.4518C471.694 22.4758 471.454 22.9138 471.496 23.1718C471.538 23.4178 471.478 23.6218 471.148 23.6218C469.456 23.6218 467.77 23.6218 466.078 23.6218C465.61 23.6218 465.79 23.2438 465.778 23.0098C465.766 22.7698 465.646 22.3918 466.114 22.4398C466.846 22.5178 466.93 22.0798 466.93 21.5158C466.93 15.3538 466.93 9.19177 466.93 3.02977C466.93 2.84977 466.888 2.66377 466.894 2.48377C466.906 1.96777 466.738 1.64977 466.15 1.66777C465.532 1.68577 465.826 1.19977 465.772 0.923773C465.712 0.617773 465.832 0.473773 466.174 0.479773C467.794 0.491773 469.42 0.491773 471.04 0.479773C471.334 0.479773 471.562 0.533773 471.49 0.887773C471.436 1.16977 471.736 1.65577 471.142 1.66177C470.566 1.67377 470.458 2.05177 470.452 2.48377C470.44 5.12977 470.452 7.77577 470.44 10.4218C470.44 10.7818 470.566 10.9018 470.92 10.8898C471.604 10.8718 472.288 10.8718 472.978 10.8898C473.314 10.9018 473.47 10.8118 473.47 10.4338C473.452 7.76377 473.452 5.09377 473.44 2.42377C473.44 1.99777 473.308 1.64977 472.78 1.66177C472.174 1.67977 472.42 1.21777 472.372 0.929773C472.312 0.557773 472.51 0.467773 472.846 0.467773C474.424 0.479773 475.996 0.479773 477.574 0.467773C477.94 0.467773 478.078 0.599773 478.036 0.947773C478 1.24777 478.204 1.69177 477.61 1.66777C477.16 1.64977 477.016 1.91977 477.01 2.32177C477.01 2.59777 476.992 2.86777 476.992 3.14377C476.992 9.05377 476.992 14.9638 476.992 20.8738C476.992 21.1918 477.004 21.5098 477.016 21.8338C477.034 22.1998 477.184 22.4578 477.598 22.4278C478.198 22.3858 478 22.8298 478.036 23.1298C478.084 23.5258 477.898 23.6338 477.52 23.6278C475.966 23.6098 474.412 23.6158 472.858 23.6278C472.528 23.6278 472.312 23.5498 472.372 23.1718C472.42 22.8838 472.168 22.4158 472.774 22.4338C473.296 22.4458 473.44 22.1218 473.44 21.6838C473.452 18.6958 473.452 15.7078 473.47 12.7198C473.47 12.3298 473.308 12.2698 472.978 12.2818C472.342 12.2998 471.7 12.3118 471.058 12.2818C470.59 12.2518 470.428 12.3958 470.44 12.8818C470.47 14.3158 470.452 15.7558 470.452 17.1958V17.1838Z" fill="white"/>
<path d="M513.01 7.42824C513.616 6.01224 514.786 5.89824 516.046 5.96424C517.294 6.03024 517.978 6.64824 518.11 7.89624C518.152 8.30424 518.14 8.71824 518.14 9.12624C518.14 13.2302 518.14 17.3402 518.146 21.4442C518.146 21.8342 517.99 22.2902 518.638 22.4762C518.962 22.5662 518.77 23.0882 518.752 23.4062C518.734 23.6942 518.452 23.6222 518.26 23.6222C517.006 23.6222 515.746 23.6282 514.492 23.6222C514.306 23.6222 514.018 23.7062 514 23.4062C513.982 23.0822 513.796 22.6142 514.114 22.4642C514.51 22.2722 514.516 21.9902 514.516 21.6962C514.516 17.4062 514.492 13.1222 514.474 8.83224C514.474 8.46624 514.408 8.13624 513.934 8.11824C513.49 8.10024 513.076 8.18424 512.98 8.68824C512.902 9.08424 512.89 9.50424 512.89 9.91224C512.884 13.8362 512.89 17.7602 512.89 21.6842C512.89 21.9842 512.83 22.2662 513.214 22.4882C513.502 22.6562 513.37 23.1302 513.304 23.4542C513.238 23.7602 512.92 23.6222 512.716 23.6282C511.618 23.6402 510.526 23.6402 509.428 23.6282C509.224 23.6282 508.9 23.7422 508.888 23.4002C508.876 23.0882 508.672 22.6322 509.05 22.4762C509.536 22.2842 509.476 21.9362 509.476 21.5882C509.476 18.7142 509.476 15.8402 509.476 12.9662C509.476 9.54624 509.476 6.12024 509.476 2.70024C509.476 2.19024 509.53 1.68624 508.756 1.64424C508.36 1.62624 508.582 1.20024 508.546 0.96024C508.51 0.73224 508.516 0.49824 508.852 0.46824C510.1 0.36624 511.348 0.24624 512.602 0.16224C513.016 0.13824 512.872 0.51024 512.872 0.72024C512.884 2.70624 512.872 4.69224 512.884 6.67224C512.884 6.88824 512.818 7.11624 513.004 7.42824H513.01Z" fill="white"/>
<path d="M451.264 7.4277C452.368 6.0117 453.538 5.6337 455.062 6.0597C455.974 6.3177 456.34 6.9597 456.436 7.8117C456.502 8.3757 456.514 8.9457 456.514 9.5157C456.52 13.5297 456.514 17.5437 456.52 21.5577C456.52 21.9177 456.412 22.2897 456.976 22.4757C457.288 22.5777 457.114 23.0937 457.084 23.4117C457.06 23.6997 456.772 23.6157 456.58 23.6157C455.326 23.6217 454.072 23.6217 452.812 23.6157C452.626 23.6157 452.326 23.6997 452.35 23.3817C452.374 23.0577 452.098 22.6077 452.542 22.4277C452.896 22.2777 452.884 22.0497 452.884 21.7737C452.884 17.5077 452.884 13.2477 452.884 8.9817C452.884 8.5557 452.866 8.1417 452.278 8.1057C451.702 8.0757 451.36 8.3097 451.306 8.9037C451.288 9.1317 451.264 9.3597 451.264 9.5817C451.264 13.6197 451.264 17.6517 451.264 21.6897C451.264 21.9777 451.15 22.2717 451.576 22.4877C451.888 22.6437 451.732 23.1117 451.678 23.4357C451.63 23.7177 451.348 23.6097 451.162 23.6097C450.022 23.6217 448.882 23.6217 447.736 23.6097C447.532 23.6097 447.202 23.7117 447.214 23.3577C447.226 23.0397 446.932 22.5897 447.46 22.4277C447.82 22.3197 447.826 22.0677 447.826 21.7917C447.826 17.2557 447.826 12.7137 447.826 8.1777C447.826 7.7757 447.76 7.4637 447.238 7.4457C446.704 7.4277 446.968 6.9777 446.914 6.7137C446.866 6.4377 446.938 6.2457 447.292 6.2277C448.384 6.1617 449.476 6.0837 450.562 5.9697C451.09 5.9097 451.336 6.0417 451.252 6.6117C451.222 6.8337 451.252 7.0617 451.252 7.4277H451.264Z" fill="white"/>
<path d="M491.578 22.2359C491.158 23.1419 490.564 23.6579 489.67 23.7779C488.164 23.9819 487.234 23.4419 486.838 21.9599C486.25 19.7639 486.298 17.5379 486.82 15.3359C487.096 14.1779 487.924 13.4759 488.962 13.0139C489.544 12.7559 490.144 12.5279 490.744 12.3239C491.056 12.2219 491.182 12.0659 491.182 11.7359C491.17 10.6199 491.206 9.49792 491.164 8.38192C491.128 7.31392 490.138 6.82192 489.202 7.36792C488.89 7.54792 489.148 7.66792 489.25 7.77592C489.718 8.30392 490.036 8.89192 490.048 9.61192C490.06 10.3619 489.658 10.8419 488.902 11.0099C488.218 11.1599 487.612 10.8779 487.3 10.2599C486.442 8.57992 487.156 6.82792 488.95 6.25792C490.102 5.89192 491.278 5.85592 492.466 6.08992C493.66 6.32392 494.344 7.06192 494.53 8.24992C494.602 8.71792 494.644 9.20392 494.644 9.67792C494.656 13.5299 494.644 17.3819 494.656 21.2399C494.656 21.5159 494.47 22.0019 494.932 22.0139C495.4 22.0319 495.184 21.5219 495.262 21.2519C495.316 21.0599 495.298 20.8439 495.28 20.6399C495.238 20.2259 495.448 20.1539 495.808 20.1479C496.21 20.1419 496.33 20.3099 496.294 20.6759C496.24 21.1739 496.24 21.6839 496.15 22.1699C495.946 23.2439 495.352 23.7359 494.266 23.7959C494.062 23.8079 493.858 23.8079 493.648 23.8019C492.316 23.7779 492.04 23.5799 491.56 22.2359H491.578ZM491.254 13.1519C490.252 13.5239 489.97 14.2919 489.91 15.1559C489.784 17.0639 489.76 18.9719 489.886 20.8799C489.916 21.2999 489.988 21.7319 490.552 21.7319C491.176 21.7379 491.218 21.2579 491.224 20.8259C491.254 19.3259 491.248 17.8259 491.254 16.3259C491.254 15.2879 491.254 14.2499 491.254 13.1519Z" fill="white"/>
<path d="M414.262 14.3703C414.298 12.5463 414.304 10.7223 414.784 8.94633C415.492 6.34833 417.97 5.19033 420.424 6.32433C421.51 6.82833 422.02 7.77633 422.332 8.85633C422.734 10.2483 422.842 11.6823 422.854 13.1163C422.878 15.5763 422.992 18.0423 422.452 20.4723C421.846 23.1903 419.95 24.3543 417.262 23.6523C416.158 23.3643 415.462 22.6323 415.042 21.6003C414.364 19.9383 414.346 18.1743 414.262 16.4223C414.232 15.7383 414.262 15.0543 414.262 14.3703ZM419.314 14.9523C419.314 14.9523 419.356 14.9523 419.38 14.9523C419.38 13.3323 419.404 11.7183 419.368 10.0983C419.356 9.37233 419.38 8.64033 419.194 7.92633C419.104 7.59633 418.924 7.41633 418.57 7.42233C418.216 7.42233 418.012 7.60833 417.952 7.93833C417.886 8.31633 417.82 8.70633 417.808 9.09033C417.7 12.9603 417.706 16.8363 417.808 20.7063C417.82 21.0663 417.88 21.4323 417.952 21.7863C418.012 22.1163 418.222 22.2963 418.576 22.2903C418.9 22.2903 419.104 22.1343 419.17 21.8343C419.242 21.5283 419.302 21.2043 419.302 20.8923C419.314 18.9123 419.308 16.9323 419.308 14.9523H419.314Z" fill="white"/>
<path d="M486.172 12.0416C486.196 13.6176 485.632 14.4056 484.48 14.4056C483.634 14.4056 482.788 14.4116 481.948 14.4056C481.642 14.4056 481.492 14.4896 481.498 14.8316C481.54 16.8116 481.414 18.7976 481.648 20.7776C481.822 22.2176 482.482 22.3436 483.766 22.1516C484.18 22.0916 484.324 21.7436 484.408 21.3596C484.606 20.4776 484.564 19.5896 484.546 18.7016C484.534 18.2096 484.708 18.0896 485.17 18.0896C485.626 18.0896 485.818 18.1976 485.8 18.6956C485.764 19.6976 485.812 20.6996 485.608 21.6956C485.38 22.8056 484.792 23.5616 483.61 23.7296C482.818 23.8436 482.02 23.8676 481.228 23.7296C480.1 23.5376 479.344 22.8776 478.9 21.8336C478.27 20.3336 478.132 18.7436 478.096 17.1476C478.036 14.6216 477.952 12.0896 478.504 9.59355C478.57 9.28155 478.672 8.98155 478.762 8.67555C479.536 6.07755 481.666 5.55555 483.928 6.21555C484.774 6.46155 485.26 7.13955 485.548 7.94955C486.088 9.47955 486.136 11.0756 486.172 12.0536V12.0416ZM483.034 10.5056C483.034 10.5056 483.01 10.5056 482.998 10.5056C482.998 9.68955 483.016 8.86755 482.992 8.05155C482.98 7.69755 482.86 7.37355 482.398 7.37355C481.96 7.37355 481.81 7.64955 481.732 8.00955C481.708 8.11755 481.684 8.23155 481.672 8.34555C481.528 9.79155 481.54 11.2496 481.498 12.7016C481.48 13.3976 481.99 13.1336 482.314 13.1576C482.638 13.1816 483.076 13.3196 483.04 12.6836C483.004 11.9576 483.028 11.2316 483.028 10.5056H483.034Z" fill="white"/>
<path d="M446.74 12.3239C446.74 12.8699 446.68 13.2899 446.752 13.6859C446.872 14.3459 446.578 14.4359 446.014 14.4179C444.922 14.3819 443.824 14.4179 442.726 14.4059C442.384 14.4059 442.174 14.4419 442.186 14.8799C442.234 16.8179 442.108 18.7559 442.324 20.6879C442.474 22.0559 443.32 22.5899 444.634 22.1339C445.102 21.9719 445.21 21.5699 445.282 21.1679C445.426 20.3579 445.444 19.5359 445.402 18.7139C445.378 18.2339 445.54 18.0839 446.02 18.0899C446.47 18.0959 446.68 18.1859 446.656 18.6899C446.602 19.8059 446.632 20.9219 446.314 22.0139C446.056 22.9019 445.51 23.4839 444.592 23.6759C443.572 23.8919 442.546 23.9099 441.544 23.6339C440.554 23.3579 439.936 22.6439 439.552 21.7079C439.096 20.5919 438.928 19.4219 438.85 18.2399C438.67 15.4139 438.616 12.5879 439.15 9.79193C439.222 9.41393 439.336 9.04193 439.45 8.66993C440.272 5.97594 442.444 5.61593 444.562 6.19193C445.42 6.42593 445.876 7.12793 446.158 7.94393C446.662 9.41393 446.68 10.9439 446.74 12.3359V12.3239ZM442.198 10.8899C442.198 11.3579 442.21 12.0419 442.198 12.7259C442.192 13.0379 442.282 13.1939 442.618 13.1699C442.87 13.1519 443.122 13.1579 443.368 13.1699C443.674 13.1819 443.83 13.0739 443.824 12.7379C443.782 11.2139 443.908 9.68993 443.734 8.16593C443.692 7.79993 443.686 7.40994 443.176 7.37994C442.672 7.34994 442.522 7.67393 442.438 8.09393C442.27 8.94593 442.33 9.81593 442.204 10.8899H442.198Z" fill="white"/>
<path d="M500.872 11.1904C500.872 14.5444 500.866 17.8924 500.878 21.2464C500.878 21.7384 500.662 22.3624 501.538 22.4944C501.82 22.5364 501.634 23.0644 501.658 23.3704C501.676 23.6404 501.46 23.6284 501.274 23.6284C499.972 23.6284 498.67 23.6284 497.374 23.6284C497.194 23.6284 496.96 23.6584 496.96 23.4004C496.966 23.0824 496.75 22.6564 497.122 22.4704C497.434 22.3144 497.416 22.1044 497.416 21.8644C497.416 15.3424 497.416 8.82037 497.422 2.29837C497.422 1.87237 497.29 1.65037 496.834 1.67437C496.384 1.69837 496.486 1.35637 496.48 1.09837C496.48 0.816371 496.384 0.498371 496.858 0.462371C498.088 0.378371 499.312 0.258371 500.536 0.156371C501.046 0.114371 500.848 0.516371 500.854 0.726371C500.866 3.16837 500.866 5.60437 500.866 8.04637C500.866 9.09637 500.866 10.1464 500.866 11.1904H500.872Z" fill="white"/>
<path d="M502.558 14.4056C502.558 12.2876 502.558 10.1636 502.558 8.04555C502.558 7.69755 502.66 7.30755 502.048 7.33755C501.592 7.35555 501.82 6.92355 501.802 6.70155C501.778 6.46755 501.658 6.09555 502.102 6.08355C503.248 6.05955 503.692 5.26155 504.058 4.36155C504.358 3.61755 504.58 2.85555 504.73 2.07555C504.85 1.43355 505.324 1.66155 505.69 1.63755C506.134 1.61355 506.044 1.96155 506.044 2.21355C506.05 3.32955 506.062 4.45155 506.044 5.56755C506.038 5.98155 506.164 6.15555 506.584 6.10755C506.83 6.08355 507.088 6.10755 507.334 6.10755C508.126 6.10755 508.336 6.40755 508.144 7.18155C508.066 7.48155 507.856 7.41555 507.67 7.43355C507.154 7.48155 506.482 7.20555 506.158 7.55955C505.816 7.93155 506.05 8.60355 506.05 9.14355C506.038 13.0856 506.05 17.0336 506.05 20.9756C506.05 21.1556 506.038 21.3416 506.05 21.5216C506.074 21.8036 506.014 22.1516 506.464 22.1636C506.956 22.1816 506.932 21.8096 506.944 21.5036C506.968 20.9336 506.95 20.3636 506.956 19.7936C506.956 19.4276 506.956 19.0616 506.956 18.7016C506.956 17.9816 507.148 17.8376 507.856 17.9696C508.042 18.0056 508.15 18.0716 508.144 18.2696C508.096 19.6556 508.3 21.0536 507.994 22.4276C507.808 23.2616 507.328 23.6636 506.488 23.7776C506.35 23.7956 506.218 23.8076 506.08 23.8136C503.458 23.9336 502.588 23.1176 502.576 20.5016C502.564 18.4736 502.576 16.4396 502.576 14.4116L502.558 14.4056Z" fill="white"/>
<path d="M458.23 20.8915C458.23 20.1415 458.242 19.3855 458.23 18.6355C458.224 18.3295 458.314 18.1135 458.644 18.2035C458.98 18.2935 459.526 17.8675 459.622 18.5635C459.742 19.3975 459.796 20.2435 459.952 21.0715C460.156 22.1455 460.624 22.4335 461.704 22.2775C462.172 22.2115 462.43 21.9715 462.526 21.5035C462.766 20.3455 462.46 19.2895 461.974 18.2695C461.182 16.5955 460.03 15.1315 459.196 13.4815C458.476 12.0595 457.954 10.5775 458.158 8.95154C458.494 6.26954 461.374 5.00354 463.618 6.53354C463.948 6.76154 464.17 6.97154 464.272 6.35954C464.35 5.90954 464.752 6.14954 465.01 6.11354C465.292 6.07154 465.34 6.27554 465.34 6.50354C465.34 7.94354 465.328 9.37754 465.34 10.8175C465.34 11.2435 465.076 11.2495 464.8 11.2075C464.494 11.1655 464.032 11.4415 463.978 10.8055C463.912 10.0375 463.81 9.26354 463.684 8.50154C463.582 7.88354 463.258 7.46354 462.562 7.42754C461.626 7.37354 461.278 7.67954 461.218 8.62754C461.134 9.99554 461.71 11.1595 462.37 12.2875C463.39 14.0335 464.644 15.6535 465.274 17.6155C465.658 18.8035 465.844 20.0095 465.628 21.2455C465.43 22.3855 464.824 23.2795 463.702 23.6095C462.478 23.9635 461.206 24.0415 460.162 23.0755C459.814 22.7515 459.61 22.7575 459.526 23.2135C459.4 23.8855 458.902 23.5975 458.554 23.6215C458.08 23.6515 458.254 23.2555 458.248 23.0275C458.224 22.3195 458.242 21.6115 458.242 20.9035L458.23 20.8915Z" fill="white"/>
<path d="M458.422 0.504106C459.622 0.522106 460.672 1.81211 460.504 3.06611C460.396 3.89411 459.964 4.56611 459.412 5.14811C458.956 5.62811 458.428 6.03011 457.96 6.49211C457.63 6.81611 457.42 6.71411 457.132 6.42611C456.85 6.14411 456.778 5.97011 457.114 5.67611C457.546 5.30411 457.918 4.87211 458.332 4.47611C458.584 4.23611 458.572 4.10411 458.254 3.93611C457.72 3.65411 457.27 3.28211 457.006 2.71811C456.526 1.68611 457.294 0.486106 458.428 0.504106H458.422Z" fill="white"/>
<g clip-path="url(#clip2_11192_13386)">
<path d="M706.86 0H702.468V8.26415C701.834 2.08302 699.547 0 696.196 0C693.683 0 691.804 1.24528 690.649 4.50566C689.811 1.26792 687.411 0 683.426 0H679.034V8.26415H678.921C678.287 2.08302 676 0 672.649 0C669.411 0 667.102 2.08302 666.377 8.26415H666.264V0H660.604L658.521 12.3396H658.408L656.619 0H650.755V4.70943C650.234 1.87925 648.558 0 645.411 0C641.947 0 640.068 2.4 639.751 5.43396C638.8 1.35849 636.717 0 634 0C630.966 0 628.77 1.78868 627.932 6.90566C627.728 3.23774 626.687 0 622.272 0C618.808 0 616 3.14717 616 12.0453C616 19.6755 617.562 24.0906 622.272 24.0906C626.46 24.0906 627.615 20.7396 627.932 17.3887C628.77 22.4151 630.966 24.0906 634 24.0906C636.921 24.0906 639.026 22.4151 639.955 17.7057C640.158 20.7396 641.313 24.0906 645.615 24.0906C648.015 24.0906 649.804 23.0491 650.755 21.2604V23.9774H653.992V6.38491H654.106L657.026 23.9774H659.426L662.347 6.38491H662.46V23.9774H666.332V15.7132H666.445C667.079 21.8943 669.366 23.9774 672.717 23.9774C675.955 23.9774 678.264 21.8943 678.989 15.7132H679.102V23.9774H683.494V14.3547H685.283C687.479 14.3547 688.951 13.517 689.879 12.1585C689.879 21.1698 692.392 23.9774 696.264 23.9774C699.502 23.9774 701.811 21.8943 702.536 15.7132V23.9774H712.475V20.3094H706.928V0H706.86ZM624.4 14.8755C624.287 18.2264 623.992 20.3094 622.521 20.3094C621.162 20.3094 620.732 19.4717 620.732 11.8415C620.732 4.09811 621.683 3.57736 622.611 3.57736C623.653 3.57736 624.174 5.04906 624.174 8.80755L627.842 8.69434C627.728 9.73585 627.728 10.7774 627.728 12.0453C627.728 13.2 627.728 14.2415 627.842 15.1925L624.4 14.8755ZM635.698 14.4453C635.698 19.4717 635.064 20.4 634.136 20.4C633.094 20.4 632.574 19.3585 632.574 14.4453V9.53208C632.574 4.50566 633.208 3.57736 634.136 3.57736C635.177 3.57736 635.698 4.61887 635.698 9.53208V14.4453ZM645.842 20.4226C643.962 20.4226 643.962 18.1132 643.962 16.8679H640.204C640.408 15.5094 640.521 13.834 640.521 11.9547C640.521 11.0038 640.521 10.0755 640.408 9.23774C642.287 13.5396 647.743 14.7849 647.743 18.2491C647.743 19.0415 647.313 20.4226 645.842 20.4226ZM643.758 5.66038C643.758 4.41509 644.392 3.57736 645.434 3.57736C647.223 3.57736 647.223 5.77359 647.223 7.04151H650.891V14.0604C648.785 10.2566 643.758 8.78491 643.758 5.66038ZM674.325 14.4453C674.325 19.4717 673.691 20.5132 672.762 20.5132C671.721 20.5132 671.2 19.4717 671.2 14.4453V9.53208C671.2 4.50566 671.834 3.46415 672.762 3.46415C673.804 3.46415 674.325 4.50566 674.325 9.53208V14.4453ZM683.834 10.8906H683.426V3.66792H683.743C685.215 3.66792 686.574 3.78113 686.574 7.22264C686.574 10.166 685.623 10.8906 683.834 10.8906ZM697.758 14.4453C697.758 19.4717 697.125 20.5132 696.196 20.5132C695.155 20.5132 694.634 19.4717 694.634 14.4453V9.53208C694.634 4.50566 695.268 3.46415 696.196 3.46415C697.238 3.46415 697.758 4.50566 697.758 9.53208V14.4453ZM713.155 0H717.547V23.9774H713.155V0ZM730.113 0H718.181V3.66792H721.94V23.9774H726.332V3.66792H730.091V0M748.204 0V12.6566H748.091L744.106 0H739.804V20.9434L737.177 0.0226415H730.792L727.442 24H731.109L731.743 18.6566H735.343L735.977 24H743.608V9.44151H743.721L748.43 24H751.872V0H748.204ZM732.309 15.1698L733.668 3.66792H733.781L735.026 15.1698H732.309Z" fill="white"/>
</g>
<g clip-path="url(#clip3_11192_13386)">
<path fill-rule="evenodd" clip-rule="evenodd" d="M903.344 16.462C904.099 16.462 904.493 15.7521 904.651 14.8507H908.775C908.256 21.1268 899.58 21.1718 898.825 16.2028V19.4366H892.842V16.1577C892.324 19.3577 890.487 19.7972 889.687 19.7972C889.011 19.7972 887.366 19.2451 886.758 17.5549L886.814 19.3915C886.825 20.5296 887.558 21.2507 888.324 21.3521V24H881.349V21.3408C881.935 21.3296 882.87 20.7437 882.882 19.4704V14.6592C882.668 15.8648 881.777 19.7746 877.485 19.7746C873.237 19.7746 872.268 15.6507 872.087 15.0423C871.287 19.538 868.301 19.7859 866.994 19.7634C864.639 19.7296 863.22 18.107 863.186 18.0732C861.766 16.631 861.496 14.4563 861.552 12.1014C861.552 11.6282 861.676 10.7042 861.721 10.2535C860.2 11.8873 858.78 11.6845 857.101 11.7521H855.693V14.4451C855.693 15.5268 856.087 16.169 857.293 16.1803V19.4141H849V16.2479C850.206 16.2366 850.623 15.538 850.623 14.4563V4.86761C850.623 4.64225 850.566 3.15493 849.011 3.14366V0H857.958C859.648 0 860.842 0.51831 861.654 1.1493C863.141 2.32113 863.445 4.3493 863.569 5.83662C865.845 3.85352 871.242 3.41408 872.155 9.34084C873.135 4.82253 876.459 4.48451 877.237 4.47324C878.634 4.47324 881.023 5.31831 881.8 7.60563V4.78873H886.701V6.60282C887.062 5.23944 888.268 4.49577 889.496 4.48451C890.679 4.47324 893.101 5.79155 893.721 10.7831V4.13521C893.721 3.17746 893.124 2.68169 892.166 2.68169V0.0338032H897.868V10.7944C898.386 6.02817 901.045 4.50704 903.287 4.50704C905.563 4.50704 907.175 5.76901 907.997 7.39155C909.056 9.46479 908.977 11.662 908.921 13.0817H901.98C901.958 13.3521 901.98 13.8141 902.003 14.231C902.037 15.4028 902.42 16.4732 903.344 16.462ZM867.107 16.462C867.862 16.462 868.256 15.7634 868.414 14.862H872.031C871.851 13.9606 871.828 13.769 871.806 13.0704H865.721C865.699 13.3408 865.721 13.8028 865.744 14.2197C865.8 15.4028 866.183 16.4732 867.107 16.462ZM875.963 12.169C875.963 14.5577 876.392 16.4845 877.473 16.4958C878.577 16.507 878.983 14.5577 878.983 12.169C878.983 9.78028 878.555 7.85352 877.473 7.84225C876.425 7.81972 875.963 9.78028 875.963 12.169ZM867.085 7.75211C866.161 7.75211 865.744 8.87887 865.687 10.062C865.665 10.4676 865.665 10.4789 865.687 10.7831H868.425C868.448 10.4789 868.448 10.4676 868.425 10.062C868.369 8.87887 868.008 7.75211 867.085 7.75211ZM903.321 7.84225C902.397 7.84225 902.014 8.87887 901.946 10.062C901.924 10.4676 901.924 10.4789 901.946 10.7831H904.685C904.707 10.4789 904.707 10.4676 904.685 10.062C904.628 8.87887 904.245 7.84225 903.321 7.84225ZM886.938 14.3437C886.938 15.5493 887.231 16.462 888.076 16.462C889.023 16.462 889.586 15.1887 889.586 12.1803C889.586 8.87887 889.079 7.75211 888.189 7.71831C887.332 7.68451 886.893 8.40563 886.938 9.91549V14.3437ZM855.693 8.16901H856.854C857.901 8.13521 858.273 7.50423 858.273 5.89296C858.273 4.42817 857.755 3.67324 856.854 3.67324H855.693V8.16901Z" fill="white"/>
</g>
<g clip-path="url(#clip4_11192_13386)">
<path d="M1051.63 6.52051C1050.84 6.52051 1050.41 6.59489 1049.77 6.89241C1048.6 7.41307 1047.74 8.25604 1046.97 9.61968L1046.72 10.0412L1046.74 9.27257C1046.77 8.85109 1046.8 8.08249 1046.82 7.53704L1046.85 6.57009H1046.67C1046.46 6.57009 1039.74 7.88414 1039.54 7.95852C1039.41 8.00811 1039.38 8.0577 1039.38 8.38001C1039.38 8.70233 1039.41 8.75191 1039.54 8.77671C1039.61 8.8015 1039.92 8.85109 1040.23 8.90067C1040.81 8.99985 1040.99 9.09902 1041.24 9.42133C1041.7 9.99158 1041.78 11.0329 1041.78 15.3717C1041.78 18.9172 1041.7 20.7023 1041.52 21.2478C1041.32 21.9172 1040.94 22.2643 1040.28 22.3883C1040.07 22.4379 1039.79 22.4874 1039.66 22.5122L1039.44 22.5618L1039.41 23.0081C1039.38 23.3304 1039.41 23.4792 1039.49 23.5288C1039.54 23.5536 1041.83 23.5784 1044.58 23.5784L1049.6 23.5536L1049.62 23.0329C1049.62 22.7602 1049.62 22.5122 1049.6 22.5122C1049.21 22.5122 1048.02 22.3635 1047.81 22.2643C1047.25 22.0412 1046.97 21.5453 1046.85 20.5288C1046.72 19.3635 1046.62 16.4131 1046.67 14.0329C1046.72 11.6032 1046.72 11.6032 1046.87 11.4296C1047.23 11.0577 1048.14 10.7602 1048.99 10.7602C1049.65 10.7602 1050.33 10.9337 1051.05 11.256C1051.4 11.4296 1051.71 11.5288 1051.76 11.5288C1051.86 11.504 1053.49 7.26431 1053.49 7.06596C1053.49 6.81803 1052.55 6.52051 1051.63 6.52051Z" fill="white"/>
<path d="M1039.41 13.8843C1039.05 10.9587 1037.78 8.82649 1035.67 7.61162C1033.32 6.27277 1029.79 6.19839 1027.26 7.43806C1025.43 8.33063 1023.95 10.0414 1023.29 12.0248C1022.6 14.0579 1022.6 16.7356 1023.29 18.7934C1023.72 20.1323 1024.31 21.0992 1025.23 21.967C1026.32 23.0331 1027.75 23.7025 1029.4 23.9257C1029.99 24 1031.85 24 1032.46 23.9257C1032.74 23.8761 1033.25 23.7769 1033.55 23.7025C1036.53 22.8596 1038.57 20.6281 1039.26 17.4546C1039.44 16.6612 1039.51 14.7769 1039.41 13.8843ZM1031.87 22.6612C1030.01 23.2067 1028.69 21.4711 1028.18 17.8761C1028 16.7108 1028.03 13.5372 1028.18 12.2232C1028.54 9.32236 1029.45 7.85955 1030.91 7.85955C1031.57 7.85955 1031.92 8.00831 1032.43 8.50418C1033.66 9.69426 1034.22 11.9753 1034.22 15.5455C1034.22 18.3967 1033.91 20.1819 1033.27 21.3967C1032.94 21.967 1032.36 22.5124 1031.87 22.6612Z" fill="white"/>
<path d="M1014.96 2.23082H1017.1C1019.55 2.23082 1019.96 2.2804 1020.82 2.70189C1022.07 3.29693 1022.99 4.48701 1023.8 6.56966C1024.13 7.41263 1024.13 7.41263 1024.84 7.18949L1025.33 7.04073L1025.28 3.99115C1025.25 2.3052 1025.23 0.817593 1025.2 0.693626L1025.15 0.420898H1015.8C1010.66 0.420898 1006.36 0.420898 1006.23 0.445692L1006 0.470485L1006.03 1.01594L1006.05 1.56139L1006.76 1.63577C1007.68 1.73495 1008.22 1.98288 1008.55 2.45396C1009.29 3.49528 1009.41 4.93329 1009.41 11.7019C1009.41 18.9168 1009.26 20.6771 1008.55 21.5697C1008.19 22.0407 1007.88 22.1895 1007.04 22.3383C1005.97 22.5614 1006 22.5366 1006 23.0821C1006 23.3796 1006.03 23.5531 1006.08 23.5779C1006.2 23.6275 1018.15 23.6275 1018.27 23.5779C1018.43 23.5283 1018.43 22.6606 1018.27 22.5862C1018.2 22.5614 1017.82 22.487 1017.38 22.4126C1016.95 22.3383 1016.49 22.2391 1016.34 22.1895C1015.55 21.8672 1015.12 20.9498 1014.96 19.2887C1014.84 18.0986 1014.76 15.892 1014.76 14.2804V12.7928L1015.5 12.8176C1017.05 12.8672 1017.84 12.9416 1018.17 13.0903C1018.89 13.3878 1019.45 14.2308 1019.73 15.4209L1019.88 16.0407L1020.44 16.0655L1021 16.0903V8.15644L1020.44 8.18123L1019.88 8.20602L1019.73 8.82586C1019.42 10.0407 1018.91 10.7845 1018.15 11.1316C1017.84 11.2804 1017.61 11.3052 1016.9 11.3548C1016.42 11.3796 1015.73 11.4044 1015.4 11.4044H1014.76V9.44569C1014.76 7.48701 1014.86 3.29693 1014.94 2.6523L1014.96 2.23082Z" fill="white"/>
<path d="M1099.79 16.2149C1099.23 15.0992 1098.16 14.3554 1095.97 13.4629C1094.19 12.7439 1093.27 12.2232 1092.73 11.6529C1092.28 11.1819 1092.15 10.7852 1092.2 10.091C1092.25 9.44634 1092.4 9.04964 1092.84 8.60336C1093.37 8.03311 1094.14 7.83477 1095.03 8.03311C1096.48 8.33063 1097.42 9.32237 1098.24 11.405C1098.52 12.1488 1098.57 12.1736 1099.08 11.9753L1099.41 11.8513V10.9835C1099.41 10.5125 1099.38 9.52072 1099.36 8.77692L1099.3 7.43807L1099.05 7.3389C1097.7 6.79344 1095.15 6.44634 1093.5 6.5951C1091.61 6.76865 1090.21 7.3389 1089.14 8.42981C1088.07 9.49592 1087.59 10.7604 1087.69 12.248C1087.77 13.4877 1088.13 14.3554 1088.91 15.1488C1089.63 15.8678 1090.24 16.2149 1092 16.8844C1094.8 17.9505 1095.56 18.5951 1095.54 19.9091C1095.54 21.0248 1094.92 21.843 1093.83 22.2149C1093.42 22.3389 1092.43 22.3389 1091.89 22.2149C1090.49 21.8678 1089.42 20.6777 1088.51 18.4959L1088.28 17.9257L1088 17.9505C1087.85 17.9505 1087.64 18.0001 1087.54 18.0496L1087.36 18.1488L1087.39 19.1158C1087.39 19.6364 1087.41 20.7521 1087.44 21.5703L1087.49 23.0827L1087.79 23.2067C1088.43 23.4794 1090.37 23.8761 1091.56 24.0001C1091.72 24.0248 1092.53 24.0248 1093.4 24.0001C1094.87 23.9753 1095 23.9753 1095.74 23.7769C1097.95 23.2067 1099.38 22.0166 1100.02 20.2067C1100.22 19.6364 1100.25 19.4877 1100.27 18.6447C1100.25 17.5042 1100.14 16.9339 1099.79 16.2149Z" fill="white"/>
<path d="M1082.7 7.18987C1080.84 6.27252 1077.97 6.3469 1075.88 7.33863C1073.89 8.28078 1072.52 9.86756 1071.75 12.099C1071.34 13.2643 1071.22 14.1816 1071.27 15.694C1071.29 16.6362 1071.34 17.132 1071.45 17.5783C1072.24 20.9998 1074.63 23.3056 1077.99 23.9006C1078.73 24.0246 1080.41 24.0246 1081.15 23.9006C1082.22 23.7271 1083.44 23.256 1084.23 22.7353C1085.17 22.1155 1086.14 21.1733 1086.14 20.8758C1086.14 20.7023 1085.81 20.2808 1085.68 20.2808C1085.63 20.2808 1085.35 20.4047 1085.1 20.5783C1084.18 21.1733 1083.29 21.3965 1082.04 21.3965C1080.33 21.3965 1079.26 20.975 1078.17 19.9089C1077.69 19.4378 1077.48 19.1899 1077.25 18.7188C1076.72 17.7023 1076.41 16.5122 1076.36 15.1733L1076.34 14.6031L1081.35 14.5783L1086.37 14.5535L1086.39 14.2312C1086.39 14.0576 1086.39 13.5866 1086.34 13.1651C1086.04 10.2643 1084.79 8.23119 1082.7 7.18987ZM1077.66 13.2147L1076.39 13.2395V12.9667C1076.39 12.818 1076.44 12.4213 1076.49 12.099C1076.92 9.44607 1077.94 7.85929 1079.21 7.85929C1080.39 7.85929 1081.1 9.42128 1081.25 12.2973L1081.3 13.1155L1080.1 13.1403C1079.47 13.1651 1078.35 13.1899 1077.66 13.2147Z" fill="white"/>
<path d="M1064.55 6.89218C1064.14 6.8178 1063.78 6.79301 1063.02 6.8178C1061.85 6.86739 1061.06 7.01615 1060.17 7.41284C1059.89 7.53681 1059.63 7.66078 1059.61 7.66078C1059.58 7.66078 1059.58 5.95003 1059.61 3.8426C1059.63 0.867389 1059.63 0.0244141 1059.55 0.0244141C1059.33 0.0244141 1052.42 1.31367 1052.35 1.36326C1052.3 1.41284 1052.27 1.5616 1052.27 1.75995C1052.3 2.13185 1052.25 2.10706 1053.09 2.28061C1053.34 2.3302 1053.65 2.45417 1053.75 2.52855C1054.03 2.72689 1054.26 3.14838 1054.44 3.74342C1054.56 4.2145 1054.59 4.5616 1054.64 7.78474C1054.69 11.0823 1054.69 14.479 1054.59 20.6773L1054.54 23.2558L1055.02 23.355C1055.73 23.5038 1057.8 23.8509 1058.46 23.9252C1059.45 24.0244 1061.74 23.9996 1062.48 23.9004C1065.67 23.4294 1068.06 21.6442 1069.18 18.8922C1069.49 18.1732 1069.77 17.0327 1069.87 16.2145C1070 15.2476 1069.92 13.2889 1069.74 12.4955C1069.08 9.49549 1067.14 7.41284 1064.55 6.89218ZM1059.71 22.4376C1059.63 22.2145 1059.53 14.479 1059.55 11.4046L1059.58 8.99962L1060.04 8.87565C1060.34 8.80127 1060.7 8.75169 1061.11 8.75169C1061.69 8.75169 1061.74 8.77648 1062.23 8.99962C1063.4 9.56987 1064.19 10.9583 1064.57 13.0657C1064.7 13.8591 1064.72 15.9914 1064.6 16.9335C1064.29 19.2393 1063.53 21.0988 1062.48 21.9914C1062.08 22.3385 1061.69 22.5368 1061.21 22.636C1060.85 22.7104 1060.75 22.7104 1060.09 22.6608C1059.83 22.6112 1059.78 22.5864 1059.71 22.4376Z" fill="white"/>
</g>
<g clip-path="url(#clip5_11192_13386)">
<path d="M94.572 16.8604V17.2024C94.572 19.2364 94.572 21.2644 94.572 23.2984C94.572 23.3764 94.572 23.4544 94.572 23.5324C94.572 23.6464 94.524 23.6884 94.41 23.6884C93.708 23.6884 93.006 23.6884 92.31 23.6884C92.178 23.6884 92.136 23.6284 92.142 23.5084C92.142 23.4484 92.142 23.3884 92.142 23.3284C92.142 19.8724 92.142 16.4224 92.142 12.9664C92.142 12.5944 92.094 12.6124 92.49 12.6124C93.144 12.6124 93.792 12.6244 94.446 12.6124C94.68 12.6124 94.812 12.6784 94.944 12.8824C96.216 14.9164 97.5 16.9384 98.778 18.9664C98.826 19.0444 98.868 19.1404 98.97 19.2124C99.012 19.1104 98.994 19.0084 98.994 18.9184C98.994 16.9744 98.994 15.0304 98.994 13.0864C98.994 13.0264 98.994 12.9664 98.994 12.9064C98.994 12.5824 98.994 12.6184 99.282 12.6184C99.906 12.6184 100.524 12.6184 101.148 12.6184C101.418 12.6184 101.418 12.6184 101.418 12.9004C101.418 15.0724 101.418 17.2444 101.418 19.4104C101.418 20.7004 101.418 21.9964 101.418 23.2864C101.418 23.3584 101.418 23.4244 101.418 23.4964C101.43 23.6344 101.376 23.6944 101.232 23.6884C100.524 23.6884 99.81 23.6824 99.102 23.6884C98.934 23.6884 98.88 23.5864 98.814 23.4784C98.358 22.7524 97.902 22.0264 97.44 21.3004C96.558 19.8964 95.67 18.4984 94.788 17.0944C94.74 17.0164 94.704 16.9204 94.572 16.8484V16.8604Z" fill="white"/>
<path d="M42.6239 7.3083C42.3779 7.3083 42.1679 7.3083 41.9639 7.3083C41.1719 7.3083 40.3859 7.3083 39.5939 7.3083C39.3659 7.3083 39.3659 7.3083 39.3599 7.0803C39.3599 6.4503 39.3599 5.8203 39.3599 5.1843C39.3599 4.9743 39.3659 4.9683 39.5759 4.9623C39.6239 4.9623 39.6719 4.9623 39.7259 4.9623C41.4599 4.9623 43.1999 4.9623 44.9339 4.9623C45.0119 4.9623 45.0899 4.9623 45.1679 4.9623C45.2519 4.9623 45.2879 5.0103 45.2939 5.0943C45.3479 6.4443 45.2399 7.7583 44.5079 8.9463C43.5479 10.5003 42.1439 11.3523 40.3379 11.4963C38.8499 11.6163 37.4759 11.2443 36.2879 10.3203C35.0879 9.3843 34.4039 8.1363 34.2119 6.6303C34.0319 5.2323 34.2719 3.9123 35.0339 2.7183C35.9759 1.23629 37.3499 0.408295 39.0839 0.204295C40.5779 0.0242948 41.9639 0.348295 43.2119 1.20629C43.8719 1.66229 44.3939 2.25029 44.7959 2.94029C44.9219 3.15629 44.9219 3.15629 44.6999 3.29429C44.1299 3.64229 43.5539 3.99029 42.9839 4.33829C42.8039 4.44629 42.7979 4.44629 42.6959 4.26029C42.4619 3.83429 42.1679 3.45029 41.7839 3.14429C40.7159 2.29829 38.7479 2.21429 37.4939 3.52229C36.0299 5.05229 36.3419 7.6443 38.1719 8.6763C39.3299 9.3303 40.5299 9.3423 41.6699 8.5923C42.1259 8.2923 42.4319 7.8603 42.6299 7.2963L42.6239 7.3083Z" fill="white"/>
<path d="M111.414 19.6262C110.448 19.6262 109.518 19.6262 108.594 19.6262C108.504 19.6262 108.414 19.6262 108.33 19.6262C108.216 19.6322 108.174 19.5902 108.174 19.4702C108.174 18.7982 108.174 18.1262 108.174 17.4602C108.174 17.3342 108.222 17.2802 108.348 17.2862C108.414 17.2862 108.486 17.2862 108.558 17.2862C110.286 17.2862 112.014 17.2862 113.742 17.2862C113.82 17.2862 113.898 17.2862 113.976 17.2862C114.078 17.2862 114.114 17.3342 114.114 17.4362C114.12 18.2582 114.144 19.0802 113.904 19.8722C113.232 22.0982 111.762 23.4662 109.446 23.7722C107.322 24.0542 105.504 23.3762 104.142 21.6842C103.242 20.5682 102.9 19.2542 102.972 17.8382C103.062 16.1522 103.728 14.7482 105.048 13.6862C105.942 12.9662 106.974 12.5882 108.12 12.5042C109.548 12.3962 110.862 12.7262 112.038 13.5482C112.692 14.0102 113.214 14.5982 113.616 15.2882C113.724 15.4802 113.724 15.4802 113.556 15.5882C112.968 15.9482 112.374 16.3082 111.786 16.6622C111.606 16.7702 111.6 16.7702 111.498 16.5902C111.282 16.2002 111.018 15.8462 110.676 15.5522C109.626 14.6402 107.622 14.5322 106.356 15.7982C104.658 17.4902 105.24 20.4302 107.454 21.2522C108.438 21.6182 109.41 21.5762 110.334 21.0362C110.814 20.7542 111.15 20.3282 111.378 19.8182C111.396 19.7762 111.408 19.7282 111.432 19.6382L111.414 19.6262Z" fill="white"/>
<path d="M52.0319 11.5144C48.9119 11.5144 46.3979 8.96443 46.3979 5.81443C46.3979 2.68843 48.9479 0.138433 52.0679 0.150433C55.1759 0.162433 57.7139 2.72443 57.7079 5.85043C57.7079 8.97643 55.1519 11.5144 52.0319 11.5144ZM48.8159 5.82643C48.8159 7.63843 50.2499 9.10843 52.0379 9.11443C53.8379 9.11443 55.2959 7.65043 55.2959 5.83243C55.2959 4.03243 53.8499 2.56843 52.0559 2.56243C50.2679 2.55643 48.8219 4.01443 48.8159 5.82643Z" fill="white"/>
<path d="M70.1159 5.83239C70.1159 8.97039 67.5839 11.5144 64.4639 11.5144C61.3319 11.5144 58.7999 8.96439 58.8059 5.80839C58.8059 2.70039 61.3619 0.150391 64.4579 0.150391C67.5779 0.150391 70.1159 2.70039 70.1159 5.83239ZM64.3919 9.11439C66.1499 9.17439 67.6319 7.74039 67.7039 5.91039C67.7759 4.18239 66.3419 2.64639 64.6319 2.55639C62.8679 2.46639 61.2899 3.83439 61.2239 5.71239C61.1579 7.54839 62.5679 9.04839 64.3919 9.10839V9.11439Z" fill="white"/>
<path d="M22.1639 18.192C22.1159 21.51 19.3679 23.952 16.2899 23.838C13.2419 23.724 10.8059 21.156 10.8479 18.066C10.8899 15.096 13.3139 12.438 16.5659 12.48C19.7099 12.516 22.1639 15.078 22.1639 18.192ZM16.4999 14.88C14.7119 14.88 13.2659 16.338 13.2599 18.15C13.2479 19.944 14.7059 21.426 16.4879 21.438C18.2759 21.45 19.7459 19.962 19.7459 18.15C19.7459 16.356 18.2819 14.886 16.4999 14.886V14.88Z" fill="white"/>
<path d="M9.39599 18.1744C9.39599 19.8784 9.39599 21.5884 9.39599 23.2924C9.39599 23.3644 9.39599 23.4304 9.39599 23.5024C9.40799 23.6344 9.35999 23.7004 9.20999 23.6944C8.51999 23.6944 7.82999 23.6944 7.13999 23.6944C7.01399 23.6944 6.96599 23.6464 6.96599 23.5204C6.96599 23.2864 6.96599 23.0464 6.96599 22.8124C6.96599 21.7684 6.96599 20.7184 6.96599 19.6744C6.96599 19.6024 6.96599 19.5364 6.96599 19.4644C6.96599 19.3684 6.92999 19.3204 6.82799 19.3204C6.76799 19.3204 6.70799 19.3204 6.64799 19.3204C5.65199 19.3204 4.65599 19.3204 3.65999 19.3204C3.32999 19.3204 3.35399 19.2964 3.35399 19.6204C3.35399 20.8444 3.35399 22.0684 3.35399 23.2924C3.35399 23.3644 3.35399 23.4304 3.35399 23.5024C3.36599 23.6344 3.31799 23.7004 3.16799 23.7004C2.35199 23.7004 1.52999 23.7004 0.713994 23.7004C0.563994 23.7004 0.491994 23.6524 0.497994 23.4964C0.497994 23.4304 0.497994 23.3584 0.497994 23.2864C0.497994 19.8724 0.497994 16.4584 0.497994 13.0444C0.497994 12.5764 0.467994 12.6244 0.905994 12.6244C1.62599 12.6244 2.34599 12.6244 3.06599 12.6244C3.34799 12.6244 3.35399 12.6244 3.35399 12.9184C3.35399 14.1604 3.35399 15.4024 3.35399 16.6504C3.35399 16.9924 3.32399 16.9744 3.67199 16.9744C4.66799 16.9744 5.66399 16.9744 6.65999 16.9744C6.70799 16.9744 6.75599 16.9744 6.80999 16.9744C6.91799 16.9744 6.97799 16.9384 6.97199 16.8244C6.97199 16.7584 6.97199 16.6864 6.97199 16.6144C6.97199 15.4204 6.97199 14.2264 6.97199 13.0324C6.97199 12.9604 6.97799 12.8944 6.97199 12.8224C6.95399 12.6604 7.03199 12.6184 7.18199 12.6244C7.83599 12.6244 8.48399 12.6244 9.13799 12.6244C9.40199 12.6244 9.40799 12.6244 9.40799 12.9064C9.40799 14.6644 9.40799 16.4164 9.40799 18.1744H9.39599Z" fill="white"/>
<path d="M71.634 5.84405C71.634 4.12805 71.634 2.41205 71.634 0.696055C71.634 0.618055 71.634 0.540055 71.634 0.462055C71.634 0.348055 71.682 0.300055 71.79 0.306055C71.808 0.306055 71.832 0.306055 71.85 0.306055C73.014 0.318055 74.178 0.258055 75.342 0.330055C76.71 0.414055 77.946 0.864055 78.96 1.81805C79.794 2.60405 80.28 3.57605 80.478 4.69805C80.67 5.77805 80.616 6.84605 80.22 7.87205C79.518 9.69006 78.162 10.7581 76.296 11.2141C75.786 11.3401 75.264 11.3761 74.742 11.3761C73.806 11.3761 72.87 11.3761 71.928 11.3761C71.88 11.3761 71.832 11.3761 71.778 11.3761C71.676 11.3761 71.634 11.3281 71.64 11.2321C71.64 11.1541 71.64 11.0761 71.64 10.9981C71.64 9.28206 71.64 7.56605 71.64 5.85005L71.634 5.84405ZM74.064 5.83805C74.064 6.14405 74.064 6.45006 74.064 6.75606C74.064 7.45806 74.064 8.15406 74.064 8.85606C74.064 9.07806 74.064 9.07806 74.298 9.08406C74.76 9.09606 75.228 9.08406 75.678 8.95806C76.926 8.62806 77.766 7.88406 78.066 6.60005C78.186 6.08405 78.18 5.56205 78.078 5.04005C77.874 4.01405 77.298 3.29405 76.32 2.89805C75.648 2.62205 74.946 2.56805 74.232 2.57405C74.1 2.57405 74.058 2.63405 74.064 2.75405C74.064 2.82005 74.064 2.89205 74.064 2.96405C74.064 3.91805 74.064 4.87806 74.064 5.83206V5.83805Z" fill="white"/>
<path d="M59.7839 12.6664C59.5559 12.9484 59.3519 13.2124 59.1419 13.4704C58.2479 14.5744 57.3539 15.6784 56.4599 16.7824C56.3439 16.9224 56.3319 17.0744 56.4239 17.2384C57.5639 19.2784 58.7099 21.3184 59.8499 23.3524C59.9039 23.4484 59.9519 23.5444 59.9999 23.6344C59.9339 23.7364 59.8499 23.6944 59.7779 23.7004C59.0399 23.7004 58.2959 23.6944 57.5579 23.7064C57.3359 23.7064 57.2279 23.6224 57.1259 23.4364C56.3459 21.9904 55.5479 20.5444 54.7619 19.0984C54.7079 18.9964 54.6659 18.8824 54.5519 18.7804C54.3239 19.0624 54.1139 19.3384 53.8799 19.6024C53.7299 19.7704 53.6879 19.9504 53.6879 20.1664C53.6939 21.2224 53.6879 22.2784 53.6879 23.3344C53.6879 23.4064 53.6879 23.4724 53.6879 23.5444C53.6879 23.6584 53.6339 23.7004 53.5259 23.7004C52.8239 23.7004 52.1219 23.7004 51.4259 23.7004C51.2939 23.7004 51.2519 23.6344 51.2579 23.5204C51.2579 23.4604 51.2579 23.4004 51.2579 23.3404C51.2579 19.8844 51.2579 16.4344 51.2579 12.9784C51.2579 12.6004 51.2099 12.6304 51.6059 12.6244C52.2179 12.6244 52.8299 12.6244 53.4419 12.6244C53.6819 12.6244 53.6879 12.6244 53.6879 12.8704C53.6879 13.9684 53.6879 15.0604 53.6879 16.1584C53.6879 16.2544 53.6699 16.3504 53.7179 16.4644C53.8199 16.4164 53.8619 16.3264 53.9219 16.2544C54.8279 15.1264 55.7399 13.9984 56.6399 12.8584C56.7779 12.6844 56.9159 12.6184 57.1379 12.6244C57.9059 12.6364 58.6799 12.6244 59.4479 12.6304C59.5439 12.6304 59.6459 12.6124 59.7779 12.6724L59.7839 12.6664Z" fill="white"/>
<path d="M42.63 18.156C42.63 16.422 42.63 14.682 42.63 12.948C42.63 12.624 42.588 12.624 42.948 12.624C44.982 12.624 47.01 12.624 49.044 12.624C49.062 12.624 49.086 12.624 49.104 12.624C49.362 12.624 49.362 12.624 49.362 12.888C49.362 13.482 49.362 14.07 49.362 14.664C49.362 14.958 49.362 14.958 49.074 14.958C47.952 14.958 46.824 14.958 45.702 14.958C45.546 14.958 45.384 14.958 45.228 14.958C45.096 14.958 45.054 15.012 45.054 15.138C45.054 15.69 45.054 16.242 45.054 16.794C45.054 16.956 45.138 16.968 45.258 16.968C45.702 16.968 46.146 16.968 46.59 16.968C47.43 16.968 48.27 16.968 49.104 16.968C49.356 16.968 49.362 16.968 49.362 17.232C49.362 17.832 49.362 18.438 49.362 19.038C49.362 19.314 49.362 19.314 49.086 19.314C47.88 19.314 46.68 19.314 45.474 19.314C44.994 19.314 45.06 19.272 45.054 19.716C45.054 20.178 45.054 20.646 45.054 21.108C45.054 21.348 45.054 21.348 45.3 21.348C46.524 21.348 47.748 21.348 48.972 21.348C49.41 21.348 49.356 21.294 49.356 21.75C49.356 22.302 49.356 22.854 49.356 23.406C49.356 23.694 49.356 23.7 49.062 23.7C47.13 23.7 45.192 23.7 43.26 23.7C43.134 23.7 43.002 23.7 42.876 23.7C42.63 23.7 42.624 23.7 42.624 23.46C42.624 23.4 42.624 23.34 42.624 23.28C42.624 21.576 42.624 19.866 42.624 18.162L42.63 18.156Z" fill="white"/>
<path d="M69.6901 18.1562C69.6901 16.4462 69.6901 14.7422 69.6901 13.0322C69.6901 12.9902 69.6901 12.9542 69.6901 12.9122C69.6901 12.6242 69.6901 12.6182 69.9781 12.6182C72.0301 12.6182 74.0821 12.6182 76.1341 12.6182C76.1821 12.6182 76.2301 12.6182 76.2841 12.6182C76.3861 12.6182 76.4221 12.6722 76.4221 12.7682C76.4221 12.8282 76.4221 12.8882 76.4221 12.9482C76.4221 13.5302 76.4221 14.1122 76.4221 14.6942C76.4221 14.9462 76.4221 14.9522 76.1581 14.9522C74.9461 14.9522 73.7281 14.9522 72.5161 14.9522C72.4381 14.9522 72.3601 14.9522 72.2821 14.9522C72.1681 14.9522 72.1201 15.0002 72.1201 15.1082C72.1201 15.6722 72.1201 16.2302 72.1201 16.7942C72.1201 16.9082 72.1621 16.9622 72.2761 16.9502C72.3421 16.9502 72.4141 16.9502 72.4861 16.9502C73.6801 16.9502 74.8741 16.9502 76.0681 16.9502C76.1401 16.9502 76.2061 16.9502 76.2781 16.9502C76.3921 16.9442 76.4341 17.0042 76.4281 17.1122C76.4281 17.7842 76.4281 18.4562 76.4281 19.1222C76.4281 19.2482 76.3741 19.2962 76.2541 19.2962C76.0981 19.2962 75.9361 19.2962 75.7801 19.2962C74.6941 19.2962 73.6081 19.2962 72.5221 19.2962C72.4501 19.2962 72.3841 19.2962 72.3121 19.2962C72.1741 19.2902 72.1201 19.3382 72.1201 19.4822C72.1261 20.0462 72.1201 20.6042 72.1201 21.1682C72.1201 21.2762 72.1561 21.3362 72.2701 21.3302C72.3361 21.3302 72.4081 21.3302 72.4801 21.3302C73.6741 21.3302 74.8681 21.3302 76.0621 21.3302C76.1341 21.3302 76.2001 21.3302 76.2721 21.3302C76.3861 21.3302 76.4281 21.3782 76.4281 21.4922C76.4281 22.1642 76.4281 22.8362 76.4281 23.5022C76.4281 23.6282 76.3861 23.6882 76.2541 23.6762C76.1941 23.6762 76.1341 23.6762 76.0741 23.6762C74.0581 23.6762 72.0481 23.6762 70.0321 23.6762C70.0021 23.6762 69.9721 23.6762 69.9421 23.6762C69.6901 23.6762 69.6841 23.6762 69.6841 23.4062C69.6841 21.6482 69.6841 19.8962 69.6841 18.1382L69.6901 18.1562Z" fill="white"/>
<path d="M61.068 18.1438C61.068 16.4458 61.068 14.7478 61.068 13.0498C61.068 12.9718 61.068 12.8938 61.068 12.8158C61.056 12.6778 61.11 12.6118 61.254 12.6238C61.314 12.6238 61.374 12.6238 61.434 12.6238C63.438 12.6238 65.442 12.6238 67.446 12.6238C67.494 12.6238 67.548 12.6238 67.596 12.6238C67.752 12.6058 67.8 12.6778 67.794 12.8278C67.794 13.4518 67.794 14.0698 67.794 14.6938C67.794 14.9518 67.794 14.9518 67.536 14.9578C66.33 14.9578 65.13 14.9578 63.924 14.9578C63.474 14.9578 63.51 14.8918 63.51 15.3658C63.51 15.7978 63.51 16.2358 63.51 16.6678C63.51 17.0038 63.51 16.9618 63.822 16.9618C65.016 16.9618 66.21 16.9618 67.404 16.9618C67.848 16.9618 67.794 16.9018 67.794 17.3578C67.794 17.9098 67.794 18.4618 67.794 19.0138C67.794 19.3078 67.794 19.3078 67.506 19.3078C66.294 19.3078 65.076 19.3078 63.864 19.3078C63.48 19.3078 63.51 19.2718 63.51 19.6558C63.51 20.1418 63.51 20.6218 63.51 21.1078C63.51 21.3418 63.51 21.3478 63.762 21.3478C64.986 21.3478 66.21 21.3478 67.434 21.3478C67.506 21.3478 67.572 21.3478 67.644 21.3478C67.758 21.3418 67.806 21.3898 67.806 21.5038C67.806 22.1818 67.806 22.8658 67.806 23.5438C67.806 23.6638 67.746 23.6998 67.638 23.6938C67.578 23.6938 67.518 23.6938 67.458 23.6938C65.442 23.6938 63.432 23.6938 61.416 23.6938C61.356 23.6938 61.296 23.6938 61.236 23.6938C61.122 23.6938 61.074 23.6398 61.08 23.5318C61.08 23.4538 61.08 23.3758 61.08 23.2978C61.08 21.5818 61.08 19.8658 61.08 18.1438H61.068Z" fill="white"/>
<path d="M23.64 16.5722C23.64 15.3962 23.64 14.2262 23.64 13.0502C23.64 12.9722 23.64 12.8942 23.64 12.8162C23.628 12.6782 23.682 12.6242 23.826 12.6242C24.516 12.6242 25.206 12.6242 25.896 12.6242C26.022 12.6242 26.076 12.6722 26.07 12.7982C26.07 12.8762 26.07 12.9542 26.07 13.0322C26.07 15.2642 26.07 17.4902 26.07 19.7222C26.07 19.9682 26.07 20.2142 26.148 20.4542C26.382 21.1862 27.066 21.6242 27.846 21.5342C28.632 21.4442 29.232 20.8442 29.292 20.0882C29.304 19.9622 29.298 19.8302 29.298 19.7042C29.298 17.4842 29.298 15.2642 29.298 13.0442C29.298 12.9722 29.298 12.9062 29.298 12.8342C29.304 12.6242 29.304 12.6182 29.514 12.6182C30.186 12.6182 30.858 12.6182 31.524 12.6182C31.542 12.6182 31.566 12.6182 31.584 12.6182C31.686 12.6182 31.728 12.6602 31.728 12.7562C31.728 12.8162 31.728 12.8762 31.728 12.9362C31.728 15.1922 31.728 17.4542 31.728 19.7102C31.728 20.1782 31.698 20.6402 31.572 21.0842C31.146 22.6082 30.114 23.4782 28.578 23.7482C27.822 23.8802 27.066 23.8562 26.322 23.6462C24.846 23.2202 24.006 22.2182 23.718 20.7302C23.646 20.3522 23.64 19.9682 23.634 19.5782C23.634 18.5702 23.634 17.5682 23.634 16.5602L23.64 16.5722Z" fill="white"/>
<path d="M78.3301 18.1496C78.3301 16.4516 78.3301 14.7536 78.3301 13.0556C78.3301 12.9956 78.3301 12.9356 78.3301 12.8756C78.3301 12.6176 78.3301 12.6176 78.5941 12.6176C79.8181 12.6176 81.0421 12.6056 82.2661 12.6176C84.0481 12.6416 85.5481 13.7396 86.0461 15.4016C86.8561 18.0956 84.9421 20.5676 82.3201 20.6336C81.8761 20.6456 81.4321 20.6336 80.9881 20.6336C80.7661 20.6336 80.7601 20.6336 80.7601 20.8676C80.7601 21.6836 80.7601 22.5056 80.7601 23.3216C80.7601 23.3936 80.7601 23.4596 80.7601 23.5316C80.7601 23.6456 80.7001 23.6876 80.5981 23.6876C79.8961 23.6876 79.1941 23.6876 78.4981 23.6876C78.3901 23.6876 78.3301 23.6456 78.3361 23.5316C78.3361 23.4536 78.3361 23.3756 78.3361 23.2976C78.3361 21.5816 78.3361 19.8656 78.3361 18.1496H78.3301ZM80.7541 16.6316C80.7541 16.7276 80.7541 16.8296 80.7541 16.9256C80.7541 17.3396 80.7541 17.7536 80.7541 18.1676C80.7541 18.2696 80.7541 18.3716 80.8981 18.3656C81.3781 18.3536 81.8641 18.4076 82.3441 18.3296C83.2201 18.1976 83.7841 17.5196 83.7781 16.6196C83.7781 15.7376 83.2021 15.0656 82.3441 14.9336C81.8941 14.8616 81.4381 14.9096 80.9881 14.8976C80.7541 14.8976 80.7481 14.8976 80.7481 15.1496C80.7481 15.6416 80.7481 16.1336 80.7481 16.6316H80.7541Z" fill="white"/>
<path d="M34.9499 19.9681C35.0579 20.1361 35.1419 20.2801 35.2379 20.4121C35.8139 21.1801 36.5519 21.5941 37.5359 21.4561C38.1479 21.3721 38.5799 20.8981 38.5979 20.3281C38.6039 20.0821 38.5139 19.8901 38.3399 19.7281C38.1599 19.5661 37.9499 19.4641 37.7279 19.3741C37.2179 19.1641 36.6839 19.0261 36.1559 18.8581C35.7719 18.7321 35.3939 18.5881 35.0279 18.4141C32.8679 17.3821 32.9819 14.6761 34.3919 13.4521C35.2259 12.7261 36.2099 12.4501 37.2899 12.4741C38.7899 12.5101 40.0199 13.0981 40.9679 14.2201C40.9559 14.3221 40.8659 14.3521 40.7999 14.4061C40.2719 14.8081 39.7439 15.2041 39.2159 15.6001C38.9879 15.7741 38.9819 15.7741 38.8259 15.5461C38.5319 15.1261 38.1419 14.8381 37.6319 14.7361C37.2779 14.6641 36.9239 14.6581 36.5759 14.7601C36.4439 14.8021 36.3179 14.8621 36.2099 14.9461C35.7419 15.3121 35.7539 15.9361 36.2339 16.2781C36.4799 16.4521 36.7559 16.5601 37.0319 16.6561C37.5419 16.8361 38.0579 17.0041 38.5679 17.1841C38.9099 17.3041 39.2399 17.4601 39.5579 17.6401C40.8719 18.3961 41.3099 19.6561 41.0339 21.0181C40.7759 22.2661 39.9839 23.0881 38.8199 23.5141C37.1459 24.1261 35.5619 23.8501 34.0739 22.9021C33.6119 22.6081 33.2279 22.2301 32.8619 21.8221C32.7839 21.7381 32.7479 21.6781 32.8619 21.5881C33.5459 21.0541 34.2299 20.5201 34.9319 19.9621L34.9499 19.9681Z" fill="white"/>
<path d="M87.6839 18.1384C87.6839 16.4344 87.6839 14.7244 87.6839 13.0204C87.6839 12.9484 87.6839 12.8824 87.6839 12.8164C87.6719 12.6844 87.7199 12.6184 87.8639 12.6244C88.5539 12.6244 89.2439 12.6244 89.9339 12.6244C90.0539 12.6244 90.1199 12.6604 90.1139 12.7924C90.1139 12.8584 90.1139 12.9304 90.1139 13.0024C90.1139 16.4464 90.1139 19.8844 90.1139 23.3284C90.1139 23.7244 90.1619 23.7004 89.7539 23.7004C89.1599 23.7004 88.5719 23.7004 87.9779 23.7004C87.6839 23.7004 87.6839 23.7004 87.6839 23.4124C87.6839 21.6544 87.6839 19.9024 87.6839 18.1444V18.1384Z" fill="white"/>
</g>
</g>
<defs>
<clipPath id="clip0_11192_13386">
<rect width="1100" height="24" fill="white"/>
</clipPath>
<clipPath id="clip1_11192_13386">
<rect width="91.41" height="24" fill="white" transform="translate(212)"/>
</clipPath>
<clipPath id="clip2_11192_13386">
<rect width="135.849" height="24" fill="white" transform="translate(616)"/>
</clipPath>
<clipPath id="clip3_11192_13386">
<rect width="59.95" height="24" fill="white" transform="translate(849)"/>
</clipPath>
<clipPath id="clip4_11192_13386">
<rect width="94.2222" height="24" fill="white" transform="translate(1006)"/>
</clipPath>
<clipPath id="clip5_11192_13386">
<rect width="114.6" height="24" fill="white"/>
</clipPath>
</defs>
</svg>
