<?xml version="1.0" encoding="UTF-8"?>
<svg id="Layer_1" data-name="Layer 1" xmlns="http://www.w3.org/2000/svg" xmlns:xlink="http://www.w3.org/1999/xlink" viewBox="0 0 128 128">
  <defs>
    <style>
      .cls-1 {
        fill: none;
      }

      .cls-2 {
        font-size: 14px;
      }

      .cls-2, .cls-3 {
        font-family: Agan75, Aganè;
      }

      .cls-2, .cls-3, .cls-4 {
        fill: #fff;
      }

      .cls-3 {
        font-size: 15px;
      }

      .cls-5 {
        clip-path: url(#clippath);
      }

      .cls-6 {
        fill: #2c0d4c;
      }
    </style>
    <clipPath id="clippath">
      <rect class="cls-1" x="0" y="0" width="128" height="128"/>
    </clipPath>
  </defs>
  <g class="cls-5">
    <g>
      <path class="cls-6" d="M127.61,65.39l-2.38-2.56c-.5-.53-.53-1.35-.07-1.92l2.19-2.73c.51-.63.41-1.56-.23-2.07l-2.72-2.19c-.57-.46-.72-1.26-.35-1.89l1.77-3.02c.41-.7.18-1.6-.53-2.01l-3.01-1.77c-.63-.37-.89-1.14-.62-1.82l1.31-3.24c.3-.75-.06-1.61-.81-1.92l-3.24-1.31c-.68-.27-1.05-1-.88-1.71l.82-3.4c.19-.79-.29-1.59-1.08-1.78l-3.39-.82c-.71-.17-1.19-.84-1.12-1.56l.32-3.48c.07-.81-.52-1.53-1.33-1.6l-3.48-.32c-.73-.07-1.29-.66-1.33-1.39l-.19-3.49c-.04-.81-.74-1.43-1.55-1.39l-3.49.19c-.73.04-1.38-.46-1.52-1.18l-.7-3.43c-.16-.8-.94-1.31-1.74-1.15l-3.42.7c-.72.15-1.43-.25-1.68-.94l-1.19-3.29c-.28-.76-1.12-1.16-1.88-.88l-3.28,1.19c-.69.25-1.45-.04-1.8-.69l-1.66-3.08c-.38-.72-1.28-.98-1.99-.6l-3.08,1.65c-.64.35-1.44.17-1.88-.42l-2.09-2.81c-.48-.65-1.41-.79-2.06-.3l-2.8,2.08c-.59.44-1.4.38-1.92-.14l-2.47-2.47c-.57-.57-1.51-.57-2.08,0l-2.47,2.47c-.52.52-1.33.58-1.92.14l-2.81-2.09c-.65-.48-1.57-.35-2.06.3l-2.08,2.8c-.44.59-1.23.76-1.88.42l-3.08-1.66c-.72-.38-1.61-.12-1.99.6l-1.65,3.08c-.35.64-1.11.94-1.8.69l-3.29-1.19c-.76-.28-1.61.12-1.88.88l-1.19,3.29c-.25.69-.96,1.09-1.68.94l-3.43-.7c-.8-.16-1.57.35-1.74,1.15l-.7,3.42c-.15.72-.79,1.22-1.52,1.18l-3.49-.19c-.81-.04-1.5.58-1.55,1.39l-.19,3.49c-.04.73-.61,1.32-1.33,1.39l-3.48.32c-.81.07-1.4.79-1.33,1.6l.32,3.48c.07.73-.41,1.39-1.12,1.56l-3.4.82c-.79.19-1.27.99-1.08,1.78l.82,3.4c.17.71-.2,1.44-.88,1.71l-3.24,1.31c-.75.3-1.12,1.16-.81,1.92l1.31,3.24c.27.68,0,1.45-.62,1.82l-3.02,1.77c-.7.41-.94,1.31-.53,2.01l1.76,3.02c.37.63.22,1.44-.35,1.89l-2.73,2.19c-.63.51-.74,1.43-.23,2.07l2.18,2.73c.46.57.43,1.39-.07,1.92l-2.38,2.56c-.55.6-.52,1.53.08,2.08l2.56,2.38c.53.5.62,1.31.21,1.91l-1.98,2.88c-.46.67-.29,1.59.38,2.05l2.88,1.98c.6.41.81,1.21.49,1.86l-1.54,3.14c-.36.73-.06,1.61.67,1.97l3.13,1.54c.65.32.98,1.08.75,1.77l-1.07,3.33c-.25.77.18,1.6.95,1.85l3.33,1.07c.69.22,1.12.92,1,1.64l-.57,3.45c-.13.8.41,1.56,1.21,1.69l3.45.57c.72.12,1.24.75,1.23,1.48l-.06,3.5c-.02.81.63,1.48,1.44,1.5l3.49.06c.73.01,1.34.56,1.43,1.28l.45,3.47c.1.81.84,1.38,1.65,1.27l3.46-.45c.72-.09,1.41.36,1.6,1.06l.95,3.37c.22.78,1.03,1.24,1.81,1.02l3.36-.95c.7-.2,1.44.15,1.74.82l1.43,3.19c.33.74,1.2,1.08,1.94.74l3.19-1.43c.67-.3,1.45-.06,1.84.56l1.88,2.95c.44.69,1.34.89,2.03.45l2.95-1.88c.62-.39,1.43-.27,1.9.28l2.29,2.65c.53.61,1.46.68,2.07.15l2.64-2.28c.55-.48,1.37-.48,1.92,0l2.65,2.29c.61.53,1.54.46,2.07-.15l2.28-2.64c.48-.55,1.29-.67,1.9-.28l2.95,1.88c.69.44,1.59.23,2.03-.45l1.87-2.95c.39-.62,1.18-.85,1.84-.56l3.19,1.43c.74.33,1.61,0,1.94-.74l1.42-3.19c.3-.67,1.04-1.01,1.74-.82l3.37.95c.78.22,1.59-.24,1.81-1.02l.94-3.36c.2-.7.88-1.15,1.6-1.06l3.47.45c.81.1,1.54-.47,1.65-1.27l.45-3.47c.09-.72.7-1.27,1.43-1.28l3.5-.06c.81-.01,1.46-.69,1.44-1.5l-.06-3.49c-.01-.73.51-1.36,1.23-1.48l3.45-.57c.8-.13,1.34-.89,1.21-1.69l-.57-3.45c-.12-.72.31-1.42,1-1.64l3.33-1.07c.77-.25,1.2-1.08.95-1.85l-1.07-3.33c-.22-.7.1-1.45.75-1.77l3.14-1.54c.73-.36,1.03-1.24.67-1.97l-1.54-3.14c-.32-.66-.12-1.45.49-1.86l2.88-1.98c.67-.46.84-1.38.38-2.05l-1.98-2.88c-.41-.6-.32-1.42.21-1.91l2.56-2.38c.6-.55.63-1.48.08-2.08h0Z"/>
      <path class="cls-4" d="M108.41,58.2l1.46,4.5h4.73l-3.82,2.78,1.46,4.49-3.82-2.78-3.82,2.78,1.46-4.49-3.82-2.78h4.73l1.46-4.5Z"/>
      <path class="cls-4" d="M19.6,58.2l1.46,4.49h4.73l-3.82,2.78,1.46,4.49-3.82-2.78-3.82,2.78,1.46-4.49-3.82-2.78h4.73l1.46-4.49Z"/>
      <path class="cls-4" d="M64,98.67c19.09,0,34.56-15.49,34.56-34.59s-15.47-34.59-34.56-34.59-34.56,15.48-34.56,34.59,15.47,34.59,34.56,34.59Z"/>
      <path class="cls-4" d="M64,9.8c3.68,0,7.36.37,10.93,1.1,3.48.71,6.91,1.78,10.18,3.16,3.21,1.36,6.31,3.04,9.21,5,2.87,1.94,5.57,4.17,8.03,6.63,2.46,2.46,4.68,5.16,6.63,8.04,1.96,2.9,3.64,6,5,9.22,1.38,3.27,2.45,6.7,3.16,10.19.73,3.58,1.1,7.26,1.1,10.94s-.37,7.37-1.1,10.94c-.71,3.48-1.78,6.91-3.16,10.19-1.36,3.22-3.04,6.32-5,9.22-1.94,2.87-4.17,5.58-6.63,8.04-2.46,2.46-5.16,4.69-8.03,6.63-2.9,1.96-6,3.64-9.21,5-3.27,1.39-6.7,2.45-10.18,3.16-3.57.73-7.25,1.1-10.93,1.1s-7.36-.37-10.93-1.1c-3.48-.71-6.91-1.78-10.18-3.16-3.21-1.36-6.31-3.04-9.21-5-2.87-1.94-5.57-4.17-8.03-6.63s-4.68-5.16-6.63-8.04c-1.96-2.9-3.64-6-5-9.22-1.38-3.28-2.45-6.7-3.16-10.19-.73-3.58-1.1-7.26-1.1-10.94s.37-7.37,1.1-10.94c.71-3.48,1.78-6.91,3.16-10.19,1.36-3.22,3.04-6.32,5-9.22,1.94-2.87,4.17-5.58,6.63-8.04,2.46-2.46,5.16-4.69,8.03-6.63,2.9-1.96,6-3.64,9.21-5,3.27-1.39,6.7-2.45,10.18-3.16,3.57-.73,7.25-1.1,10.93-1.1ZM64,7.67c-31.14,0-56.38,25.26-56.38,56.42s25.24,56.42,56.38,56.42,56.38-25.26,56.38-56.42S95.14,7.67,64,7.67Z"/>
      <path class="cls-6" d="M43.03,74.66h-3.67v-17.4h-3.72v-2.99l7.39-.76v21.15h0Z"/>
      <path class="cls-6" d="M58.49,66.42c0,2.8-.56,4.92-1.67,6.37-1.11,1.45-2.61,2.17-4.51,2.17s-3.42-.72-4.54-2.17c-1.11-1.45-1.67-3.57-1.67-6.37v-4.66c0-2.79.56-4.91,1.67-6.37,1.11-1.46,2.62-2.19,4.52-2.19s3.4.73,4.52,2.19c1.12,1.46,1.68,3.58,1.68,6.37v4.66h0ZM54.83,61.32c0-1.67-.22-2.9-.65-3.68-.44-.78-1.06-1.17-1.89-1.17s-1.46.39-1.89,1.16c-.43.77-.64,2-.64,3.69v5.5c0,1.7.22,2.94.65,3.72.43.77,1.07,1.16,1.9,1.16s1.45-.39,1.87-1.16c.43-.77.64-2.01.64-3.72v-5.5h0Z"/>
      <path class="cls-6" d="M73.26,66.42c0,2.8-.56,4.92-1.67,6.37-1.11,1.45-2.61,2.17-4.51,2.17s-3.42-.72-4.54-2.17c-1.11-1.45-1.67-3.57-1.67-6.37v-4.66c0-2.79.56-4.91,1.67-6.37,1.11-1.46,2.62-2.19,4.52-2.19s3.4.73,4.52,2.19c1.12,1.46,1.68,3.58,1.68,6.37v4.66h0ZM69.6,61.32c0-1.67-.22-2.9-.65-3.68-.44-.78-1.06-1.17-1.89-1.17s-1.46.39-1.89,1.16c-.43.77-.64,2-.64,3.69v5.5c0,1.7.22,2.94.65,3.72.43.77,1.07,1.16,1.9,1.16s1.45-.39,1.87-1.16c.43-.77.64-2.01.64-3.72v-5.5h0Z"/>
      <path class="cls-6" d="M75.65,57.58c0-1.25.35-2.29,1.05-3.12.7-.83,1.67-1.25,2.92-1.25s2.25.41,2.94,1.24c.7.83,1.04,1.87,1.04,3.13v1.12c0,1.25-.35,2.29-1.04,3.11-.7.82-1.67,1.23-2.92,1.23s-2.24-.41-2.94-1.23c-.7-.82-1.06-1.86-1.06-3.11v-1.12ZM78.08,58.69c0,.56.13,1.03.4,1.42.27.38.65.57,1.16.57s.86-.19,1.12-.57c.26-.38.4-.85.4-1.42v-1.12c0-.56-.13-1.04-.4-1.43-.27-.39-.65-.59-1.14-.59s-.87.2-1.14.59c-.26.39-.4.87-.4,1.43v1.12h0ZM80.25,73.08l-1.78-1.09,8.94-16.53,1.78,1.09-8.94,16.53ZM84.39,69.47c0-1.24.35-2.28,1.06-3.11.7-.83,1.68-1.25,2.93-1.25s2.23.41,2.93,1.24c.7.83,1.05,1.87,1.05,3.12v1.12c0,1.26-.35,2.3-1.04,3.12-.7.82-1.67,1.23-2.92,1.23s-2.24-.41-2.95-1.24-1.06-1.87-1.06-3.12v-1.12ZM86.83,70.59c0,.55.14,1.02.43,1.42.29.39.67.59,1.14.59.54,0,.93-.18,1.17-.54.23-.36.35-.85.35-1.46v-1.12c0-.55-.13-1.02-.4-1.42-.27-.39-.65-.59-1.14-.59s-.89.2-1.15.59c-.26.39-.4.86-.4,1.42v1.12h0Z"/>
    </g>
  </g>
  <text class="cls-3" transform="translate(22.34 91.93) rotate(52.16)"><tspan x="0" y="0">G</tspan></text>
  <text class="cls-3" transform="translate(31.97 103.2) rotate(31.69)"><tspan x="0" y="0">A</tspan></text>
  <text class="cls-3" transform="translate(44.29 110.24) rotate(16.36)"><tspan x="0" y="0">R</tspan></text>
  <text class="cls-3" transform="translate(56.26 113.54) rotate(2.19)"><tspan x="0" y="0">A</tspan></text>
  <text class="cls-3" transform="translate(70.42 113.76) rotate(-12.79)"><tspan x="0" y="0">N</tspan></text>
  <text class="cls-3" transform="translate(83.88 110.24) rotate(-26.7)"><tspan x="0" y="0">T</tspan></text>
  <text class="cls-3" transform="translate(93.09 105.24) rotate(-37.57)"><tspan x="0" y="0">I</tspan></text>
  <text class="cls-3" transform="translate(98.98 100.7) rotate(-51.31)"><tspan x="0" y="0">E</tspan></text>
  <text class="cls-2" transform="translate(26.5 53.77) rotate(-68.17) scale(1.03 1)"><tspan x="0" y="0">G</tspan></text>
  <text class="cls-2" transform="translate(30.56 43.87) rotate(-53.11) scale(1.03 1)"><tspan x="0" y="0">E</tspan></text>
  <text class="cls-2" transform="translate(35.63 37.13) rotate(-40.69) scale(1.03 1)"><tspan x="0" y="0">L</tspan></text>
  <text class="cls-2" transform="translate(41.15 32.06) rotate(-26.88) scale(1.03 1)"><tspan x="0" y="0">D</tspan></text>
  <text class="cls-2" transform="translate(50.9 27.42) rotate(-15.52) scale(1.03 1)"><tspan x="0" y="0">-</tspan></text>
  <text class="cls-2" transform="translate(55.21 26.04) rotate(-5.96) scale(1.03 1)"><tspan x="0" y="0">Z</tspan></text>
  <text class="cls-2" transform="translate(63.38 25.03) rotate(7.37) scale(1.03 1)"><tspan x="0" y="0">U</tspan></text>
  <text class="cls-2" transform="translate(73.28 26.31) rotate(21.13) scale(1.03 1)"><tspan x="0" y="0">R</tspan></text>
  <text class="cls-2" transform="translate(81.86 29.51) rotate(35.17) scale(1.03 1)"><tspan x="0" y="0">Ü</tspan></text>
  <text class="cls-2" transform="translate(89.99 35.22) rotate(49.3) scale(1.03 1)"><tspan x="0" y="0">C</tspan></text>
  <text class="cls-2" transform="translate(96.05 42.06) rotate(63.86) scale(1.03 1)"><tspan x="0" y="0">K</tspan></text>
</svg>