<?xml version="1.0" encoding="UTF-8"?>
<svg id="Layer_1" xmlns="http://www.w3.org/2000/svg" version="1.1" viewBox="0 0 1215.9 200">
  <!-- Generator: Adobe Illustrator 29.0.0, SVG Export Plug-In . SVG Version: 2.1.0 Build 186)  -->
  <defs>
    <style>
      .st0 {
        fill: #2c0d4c;
      }
    </style>
  </defs>
  <g>
    <path class="st0" d="M44.9,112.2c-.9,0-1-.6-1.1-1.4-.4-3.3-.8-6.5-1.2-9.8-.8-5.5-1.9-11-3.5-16.4-3-10.2-9.6-16.7-19.7-19.9-5.4-1.7-10.8-2.8-16.3-3.8-.2,0-.3,0-.5,0-.7-.1-1.3-.4-1.2-1.2,0-.8.6-1,1.2-1.1,2.7-.5,5.5-1,8.2-1.5,3.3-.7,6.6-1.6,9.8-2.6,9.2-3.1,15.3-9.3,18.3-18.6,2-6.2,3.1-12.5,4-19,.4-2.7.7-5.4,1-8.2,0-.7.3-1.3,1.1-1.3.8,0,1,.6,1.1,1.3.6,5,1.2,10,2.1,15,.8,4.6,1.9,9.1,3.4,13.5,3.1,8.5,8.9,14.1,17.4,17.1,5.8,2.1,11.8,3.2,17.8,4.3.2,0,.4,0,.6,0,.6.1,1.2.3,1.1,1.1,0,.7-.5,1-1.2,1.1-2.3.4-4.5.8-6.8,1.2-4.8,1-9.6,2.2-14.1,4.2-7.2,3.1-11.9,8.5-14.6,15.8-2.2,5.9-3.4,12.1-4.3,18.4-.5,3.5-.9,6.9-1.3,10.4,0,.7-.2,1.3-1.1,1.3Z"/>
    <path class="st0" d="M88.8,1.2c.9,0,1.1.6,1.2,1.2.3,2.2.8,4.4,1.4,6.5,1.3,4.5,4.2,7.6,8.7,9,1.2.4,2.4.7,3.7,1,.7.2,1.4.3,1.4,1.2,0,.9-.7,1-1.4,1.2-1.2.3-2.4.6-3.6.9-4.6,1.3-7.5,4.4-8.8,9-.6,2-1,4.1-1.3,6.2-.1.7-.2,1.5-1.2,1.5-.9,0-1-.8-1.2-1.5-.3-2.2-.8-4.3-1.4-6.4-1.3-4.4-4.2-7.4-8.6-8.8-1.3-.4-2.7-.8-4-1.1-.6-.2-1.1-.4-1.1-1.1,0-.7.5-1,1.1-1.2.9-.2,1.7-.4,2.5-.6,5.8-1.3,9.2-5,10.5-10.7.4-1.7.7-3.3,1-5,.1-.7.3-1.2,1-1.3Z"/>
  </g>
  <g>
    <path class="st0" d="M102,193.3c0-1.8,1.6-3.4,4.3-5.7,3.9-3.2,5.5-8.2,5.5-24.4V58.8c0-5.9-2.5-8.4-4.6-10.3-1.8-1.6-2.7-2.5-2.7-4.1s1.6-3.2,3.4-3.2h35.2c4.3,0,7.5,1.6,9.8,5.3l77,118.1v-82.2c0-20.6-3.9-26.5-12.1-31.7-4.8-3-6.4-4.1-6.4-6.2s1.4-3.2,3.4-3.2h26c1.8,0,3.2,1.1,3.2,3.2s-1.6,3.4-4.3,5.7c-3.7,3-5,8.2-5,24.4v113.7c0,5.3-3,8.2-8.4,8.2h-13.2c-4.3,0-7.5-1.6-9.8-5.3L116.6,59.7v95.7c0,20.6,3.9,26.5,12.3,31.7,4.6,3,6.2,4.1,6.2,6.2s-1.4,3.2-3.2,3.2h-26.5c-2.1,0-3.4-1.1-3.4-3.2Z"/>
    <path class="st0" d="M263,164.1v-69.7c0-3.4-1.6-5.3-3.2-7.1-1.4-1.6-2.3-2.7-2.3-4.3s1.4-3,3.4-3h31.1c5.5,0,8.9,3.4,8.9,8.9v77.2c0,9.8,6.4,16.4,15.5,16.4s14.8-4.6,19.2-12.1v-76c0-3.4-1.6-5.3-3.2-7.1-1.4-1.6-2.3-2.7-2.3-4.3s1.6-3,3.4-3h31.3c5.5,0,8.7,3.4,8.7,8.9v92.7c0,4.3,1.4,5.7,3.4,6.9,1.4.7,2.1,1.4,2.1,2.7,0,3.9-6.6,7.5-16.9,7.5-15.3,0-25.1-8-26.3-23.1-8.7,14.2-22.6,23.1-38.1,23.1s-34.7-12.6-34.7-34.7Z"/>
    <path class="st0" d="M395,193.7c0-1.4.9-2.5,2.1-3.4,1.6-1.8,3.2-3.7,3.2-7.5v-88.4c0-3.4-1.6-5.3-3.2-7.1-1.4-1.6-2.3-2.7-2.3-4.3s1.6-3,3.4-3h31.3c5.3,0,8.7,3.4,8.7,8.9v14.8c5.9-16.2,16.2-26,29.7-26s21.2,6.6,21.2,19.9-7.1,19.4-18.5,19.4-12.3-3.9-15.1-9.4c-2.3-3.9-4.6-7.3-8-7.3s-6.6,2.7-9.4,9.4v73.1c0,3.7,1.4,5.5,3.4,6.9,2.3,1.6,3.4,2.5,3.4,4.1s-.9,2.7-3,2.7h-44.1c-1.8,0-3-.9-3-2.7Z"/>
    <path class="st0" d="M492,138.2c0-36.5,24.4-60.5,61.7-60.5s61.4,24,61.4,60.5-24.4,60.5-61.4,60.5-61.7-24-61.7-60.5ZM577.4,154.2c0-29.5-9.8-73.5-28.8-73.5s-19.2,18.5-19.2,41.8,9.8,73.3,29.2,73.3,18.7-14.6,18.7-41.6Z"/>
    <path class="st0" d="M626.7,118.6c0-48,31.7-79.7,79.9-79.7s59.6,18.7,59.6,39.3-6.2,17.4-18.7,17.4-22.2-10.3-25.3-21.7c-4.8-17.8-10-30.8-25.3-30.8s-31.7,24-31.7,53.9,16.4,78.1,58,78.1,34.3-13.9,38.8-20.1c1.4-1.6,2.5-2.7,3.7-2.7s2.1,1.8,2.1,4.6c0,20.1-24.7,42-62.1,42s-78.8-31.7-78.8-80.2Z"/>
    <path class="st0" d="M782.3,193.7c0-1.4.9-2.5,2.1-3.4,1.6-1.8,3.2-3.7,3.2-7.5V51c0-3.4-1.6-5.3-3.2-7.1-1.4-1.6-2.3-2.7-2.3-4.3s1.6-3,3.4-3h31.3c5.3,0,8.7,3.4,8.7,8.9v137.2c0,3.9,1.6,5.7,3.4,7.5,1.1.9,2.1,2.1,2.1,3.4s-1.1,2.7-3,2.7h-42.7c-1.8,0-3-.9-3-2.7Z"/>
    <path class="st0" d="M843.2,138.2c0-36.3,24.4-60.5,61.2-60.5s46.6,13,46.6,32-29,32.9-67.1,34c5,18,15.8,34.3,35.6,34.3s24.9-8.9,28.5-13.2c1.6-1.8,2.3-2.5,3.2-2.5s1.6.9,1.6,3.9c0,14.4-17.8,32.7-49.6,32.7s-60.1-24-60.1-60.5ZM883.2,141.2c25.3-1.8,34-13.9,34-31.3s-6.2-29.5-16.2-29.5-20.3,19-20.3,39.5.9,13.9,2.5,21.2Z"/>
    <path class="st0" d="M963.1,168.2c0-29.2,35.6-38.4,70.1-39v-22.2c0-19.6-8-26.5-17.8-26.5s-13.2,10.3-15.3,24c-1.1,8.7-3.7,17.4-16.9,17.4s-16-6.2-16-14.6c0-15.8,19.2-29.5,50.5-29.5s53.4,12.8,53.4,42.7v61.2c0,4.3,1.4,5.7,3.4,6.9,1.4.7,2.1,1.4,2.1,2.7,0,3.9-6.6,7.5-16.9,7.5s-21.7-5.7-24.9-16.2c-8.4,10.3-21,16.2-35.6,16.2-21.5,0-36.1-11.6-36.1-30.6ZM1021.6,183.9c4.6,0,9.1-1.6,12.3-4.3-.5-2.1-.7-4.6-.7-7.1v-37c-3-1.8-6.4-3-10.7-3-13.5,0-22.8,8.7-22.8,23.8s9.8,27.6,21.9,27.6Z"/>
    <path class="st0" d="M1091,193.7c0-1.4.9-2.5,2.1-3.4,1.6-1.8,3.2-3.7,3.2-7.5v-88.4c0-3.4-1.6-5.3-3.2-7.1-1.4-1.6-2.3-2.7-2.3-4.3s1.6-3,3.4-3h31.3c5.3,0,8.7,3.4,8.7,8.9v13c9.1-14.8,23.3-24.2,39.3-24.2s35.9,12.6,35.9,34.7v70.3c0,3.9,1.6,5.7,3.2,7.5,1.1.9,2.1,2.1,2.1,3.4s-1.1,2.7-3,2.7h-42.7c-1.8,0-3-.9-3-2.7s.9-2.5,2.1-3.4c1.8-1.8,3.4-3.7,3.4-7.5v-72.6c0-9.6-6.9-16.2-16.4-16.2s-16,5-20.8,13v75.8c0,3.9,1.6,5.7,3.4,7.5,1.1.9,2.1,2.1,2.1,3.4s-1.1,2.7-3,2.7h-42.7c-1.8,0-3-.9-3-2.7Z"/>
  </g>
</svg>