<svg width="51" height="50" viewBox="0 0 51 50" fill="none" xmlns="http://www.w3.org/2000/svg">
<path d="M49.0251 23.883C48.5667 22.433 47.2667 21.433 45.7501 21.3997C45.2584 21.3913 44.7584 21.3913 44.2667 21.3997C44.0667 21.3997 43.9667 21.3413 43.9084 21.1413C43.2167 18.8913 41.7084 17.4247 39.5167 16.5997C37.5834 15.8663 36.3917 14.0497 36.4167 11.9913C36.4167 11.9163 36.4251 11.8497 36.4417 11.708C37.1834 12.2913 37.9417 12.6997 38.8334 12.8247C39.0584 12.858 39.2917 12.883 39.5251 12.883C40.0751 12.883 40.4584 12.533 40.4917 12.033C40.5251 11.508 40.1667 11.0747 39.6084 11.0497C38.9751 11.0163 38.3917 10.858 37.8834 10.4747C37.3001 10.0413 36.9501 9.45799 36.8001 8.74965C36.7417 8.49132 36.8251 8.31632 37.0167 8.09965C37.5751 7.48299 38.2251 7.26632 39.0667 7.31632C40.1584 7.39132 41.2584 7.34132 42.3501 7.33299C43.4917 7.33299 44.1917 6.62465 44.2001 5.48299C44.2001 4.69965 44.2001 3.90799 44.2001 3.12465C44.1917 2.04132 43.4834 1.30799 42.4084 1.30799C38.2917 1.30799 34.1667 1.28299 30.0501 1.30799C26.3584 1.33299 23.3251 4.38299 23.2751 8.07465C23.2751 8.45799 23.2751 8.84965 23.2751 9.23299C23.2917 10.1247 24.0084 10.5413 24.7667 10.0747C25.6501 9.53299 26.5917 9.19965 27.6334 9.14965C27.9417 9.13299 28.0751 9.19965 28.0667 9.54132C28.0417 10.2497 28.0584 10.958 28.0667 11.6663C28.0667 11.908 27.9917 12.1163 27.9084 12.333C26.8501 15.133 26.1584 18.0163 25.8667 20.9913C25.8334 21.2997 25.7417 21.4163 25.4167 21.3997C24.7084 21.3747 24.0001 21.3747 23.2917 21.3997C22.9917 21.408 22.9001 21.3163 22.9084 21.0163C22.9251 19.383 22.9167 17.7413 22.9084 16.108C22.9084 14.083 21.7834 12.6163 19.8251 12.083C19.2334 11.9247 18.7501 11.6247 18.4251 11.0997C18.3167 10.933 18.2417 10.7997 18.4834 10.658C18.7501 10.4997 18.8584 10.2163 18.8584 9.90799C18.8584 8.58299 18.8584 7.25799 18.8584 5.92465C18.8584 5.69965 18.8167 5.46632 18.6334 5.34132C18.3251 5.12465 18.3334 4.84132 18.3334 4.52465C18.3417 4.05799 18.3501 3.59965 18.3334 3.13299C18.3001 1.99965 17.5751 1.30799 16.4501 1.29965C15.2001 1.29965 13.9501 1.29965 12.7001 1.29965C11.5667 1.29965 10.8501 2.00799 10.8167 3.13299C10.8084 3.51632 10.8167 3.90799 10.8167 4.29132C10.8167 4.69965 10.9001 5.11632 10.4667 5.40799C10.3084 5.51632 10.3001 5.75799 10.3001 5.96632C10.3001 7.26632 10.3001 8.55799 10.3001 9.85799C10.3001 10.1913 10.3917 10.483 10.6751 10.658C10.8751 10.783 10.8584 10.8997 10.7501 11.0663C10.4417 11.558 10.0167 11.883 9.4584 12.0497C7.27507 12.6747 6.25007 14.0413 6.25007 16.308C6.25007 17.8497 6.2334 19.3913 6.2584 20.933C6.2584 21.333 6.14174 21.433 5.76674 21.3997C5.01674 21.3413 4.2834 21.4497 3.62507 21.833C2.46674 22.508 1.8334 23.5163 1.81674 24.858C1.80007 26.2163 2.41674 27.2663 3.59174 27.9497C3.87507 28.1163 4.00007 28.2913 4.05007 28.6163C4.76674 33.2913 5.5084 37.9663 6.21674 42.6413C6.4084 43.8913 6.66674 45.0997 7.44174 46.133C8.46674 47.508 9.81674 48.3497 11.5167 48.6163C11.5917 48.6247 11.6584 48.6663 11.7251 48.6913H39.3167C39.6417 48.608 39.9751 48.5497 40.2917 48.4496C42.7501 47.6663 44.2584 46.008 44.6751 43.4663C45.4917 38.483 46.2334 33.4913 47.0084 28.4997C47.0334 28.333 47.0334 28.158 47.2251 28.0663C48.3334 27.533 48.9167 26.5997 49.2251 25.4497C49.3001 25.0497 49.2667 24.708 49.2251 24.3413C49.1584 24.058 49.1167 24.0247 49.0667 23.8663L49.0251 23.883ZM40.8251 3.14965C41.2084 3.16632 41.5917 3.17465 41.9751 3.14965C42.2751 3.13299 42.3501 3.24965 42.3251 3.51632C42.3084 3.77465 42.3251 4.04132 42.3251 4.36632C42.2834 4.67465 42.5001 5.16632 42.2417 5.40799C41.9917 5.64132 41.5084 5.47465 41.1251 5.47465C40.4084 5.47465 40.5001 5.56632 40.4917 4.83299C40.4917 4.38299 40.5001 3.94132 40.4917 3.49132C40.4834 3.24132 40.5501 3.12465 40.8251 3.14132V3.14965ZM25.1417 7.80799C25.2251 5.61632 27.0417 3.60799 29.2084 3.24132C29.5584 3.18299 29.9084 3.14965 30.2667 3.14965C32.9084 3.14965 35.5417 3.14965 38.1834 3.14965C38.5334 3.14965 38.6751 3.21632 38.6501 3.59965C38.6167 4.12465 38.6334 4.64965 38.6501 5.17465C38.6501 5.37465 38.6167 5.53299 38.3751 5.48299C37.3751 5.28299 36.6834 5.80799 36.0834 6.47465C35.4917 7.13299 34.8001 7.34132 33.9167 7.29965C32.2417 7.23299 30.5501 7.28299 28.8751 7.27465C27.6251 7.27465 26.3751 7.28299 25.1501 7.80799H25.1417ZM34.5667 10.8497C34.5751 11.133 34.4501 11.183 34.2084 11.183C33.5501 11.1747 32.8834 11.183 32.2251 11.183C31.5667 11.183 30.9001 11.1747 30.2417 11.183C29.9834 11.183 29.8834 11.108 29.8917 10.8413C29.9084 10.383 29.9084 9.91632 29.8917 9.45799C29.8917 9.22465 29.9667 9.13299 30.2084 9.13299C31.5667 9.13299 32.9167 9.13299 34.2751 9.13299C34.4917 9.13299 34.5751 9.19965 34.5751 9.42465C34.5667 9.89965 34.5584 10.383 34.5751 10.858L34.5667 10.8497ZM27.6834 20.8913C28.0001 18.2913 28.5917 15.7663 29.4751 13.308C29.5501 13.108 29.6584 13.0247 29.8751 13.0247C31.3584 13.033 32.8334 13.033 34.3167 13.0247C34.5501 13.0247 34.6251 13.108 34.6751 13.3247C35.2251 15.8913 36.7667 17.5747 39.2167 18.483C40.5751 18.9913 41.4834 19.9663 42.0417 21.383H41.5001C37.0584 21.383 32.6167 21.383 28.1751 21.383C27.7751 21.383 27.6167 21.333 27.6751 20.8747L27.6834 20.8913ZM23.7334 23.2413C26.3251 23.2413 28.9167 23.2413 31.5084 23.2413C31.8251 23.2413 31.9917 23.3163 32.0417 23.6413C32.0751 23.8497 32.1501 24.058 32.2251 24.258C32.7834 25.7247 32.9751 27.233 32.8834 28.7913C32.8334 29.5747 32.8834 30.3663 32.8751 31.1497C32.8667 31.9747 32.3251 32.5413 31.5834 32.5413C30.8251 32.5413 30.3001 31.983 30.2917 31.158C30.2917 30.0663 30.2917 28.9663 30.2917 27.8747C30.2917 27.308 30.0084 26.933 29.5417 26.8497C28.9167 26.7413 28.4501 27.1497 28.4417 27.833C28.4417 29.408 28.4417 30.983 28.4417 32.558C28.4417 34.7997 28.4417 37.033 28.4417 39.2747C28.4417 39.4913 28.4417 39.708 28.3584 39.908C28.1917 40.2913 27.7834 40.5163 27.3834 40.458C26.9751 40.3997 26.6501 40.0746 26.6001 39.658C26.5834 39.508 26.5917 39.3497 26.5917 39.1997C26.5917 36.683 26.5917 34.1663 26.5917 31.6497C26.5917 30.9497 26.2584 30.5497 25.6834 30.5413C25.1834 30.533 24.7917 30.8663 24.7501 31.3747C24.7334 31.5247 24.7501 31.683 24.7501 31.8413C24.7501 34.9247 24.7501 38.0163 24.7501 41.0997C24.7501 41.333 24.7667 41.5663 24.6667 41.783C24.4751 42.1996 24.1501 42.383 23.7001 42.3413C23.2834 42.2997 22.9584 41.983 22.9084 41.558C22.8917 41.3913 22.8917 41.2163 22.8917 41.0496C22.8917 37.9747 22.8917 34.908 22.8917 31.833C22.8917 31.6663 22.8917 31.4913 22.8667 31.3247C22.7751 30.8163 22.3834 30.508 21.8834 30.5413C21.4084 30.5747 21.0667 30.9163 21.0501 31.4247C21.0334 31.9663 21.0501 32.508 21.0501 33.0413C21.0501 35.0747 21.0501 37.1163 21.0501 39.1497C21.0501 39.2997 21.0501 39.458 21.0334 39.608C20.9584 40.133 20.5417 40.4913 20.0501 40.458C19.5667 40.4247 19.2001 40.058 19.2001 39.533C19.1917 38.3163 19.2001 37.0913 19.2001 35.8746C19.2001 34.4413 19.2001 33.008 19.2001 31.5663C19.2001 30.908 18.8084 30.4747 18.2584 30.483C17.7251 30.483 17.3417 30.9247 17.3417 31.5497C17.3417 32.5247 17.3417 33.4913 17.3417 34.4663C17.3417 35.0997 16.9751 35.5247 16.4334 35.5247C15.8917 35.5247 15.5084 35.0997 15.5084 34.4747C15.5084 30.8497 15.5084 27.2247 15.5001 23.5913C15.5001 23.2663 15.6251 23.2163 15.9001 23.2247C18.5251 23.233 21.1501 23.2247 23.7667 23.2247L23.7334 23.2413ZM12.7334 3.22465C12.9917 2.95799 13.6167 3.15799 14.0751 3.14965C14.7417 3.14132 15.4001 3.15799 16.0667 3.14132C16.3584 3.13299 16.4917 3.20799 16.4667 3.52465C16.4417 3.87465 16.4417 4.23299 16.4667 4.59132C16.4917 4.90799 16.4001 5.03299 16.0584 5.01632C15.5501 4.99132 15.0417 5.01632 14.5334 5.01632C14.0251 5.01632 13.5167 4.99965 13.0084 5.01632C12.7334 5.02465 12.6084 4.95799 12.6334 4.65799C12.6751 4.17465 12.4334 3.54965 12.7334 3.23299V3.22465ZM12.4917 6.84965C13.1834 6.87465 13.8751 6.84965 14.5667 6.84965C15.2584 6.84965 15.9251 6.86632 16.6001 6.84965C16.9167 6.84132 16.9917 6.94965 16.9834 7.24132C16.9584 7.71632 16.9667 8.19965 16.9834 8.67465C16.9834 8.90799 16.9167 8.99965 16.6751 8.99965C15.2584 8.99132 13.8417 8.99132 12.4251 8.99965C12.1751 8.99965 12.1084 8.90799 12.1167 8.67465C12.1251 8.19965 12.1334 7.71632 12.1167 7.24132C12.1001 6.94132 12.1917 6.84132 12.5001 6.84965H12.4917ZM8.06674 15.9913C8.06674 14.9413 8.67507 14.1413 9.6834 13.8913C11.2001 13.5163 12.2167 12.608 12.6917 11.1163C12.7667 10.8913 12.8751 10.833 13.0834 10.8413C14.0584 10.8497 15.0251 10.8497 16.0001 10.8413C16.2501 10.8413 16.3334 10.933 16.4084 11.158C16.8751 12.5913 17.8584 13.483 19.3084 13.8747C20.4417 14.1747 21.0251 14.9163 21.0251 16.083C21.0251 17.6997 21.0084 19.3247 21.0334 20.9413C21.0334 21.3497 20.9001 21.408 20.5417 21.408C18.5334 21.3913 16.5334 21.408 14.5251 21.408C12.5167 21.408 10.4834 21.408 8.46674 21.408C8.14174 21.408 8.0584 21.3247 8.0584 20.9997C8.07507 19.333 8.0584 17.6663 8.06674 15.9997V15.9913ZM3.62507 24.8913C3.6334 23.933 4.37507 23.2497 5.42507 23.2497C8.00007 23.2497 10.5751 23.258 13.1584 23.2413C13.5584 23.2413 13.6417 23.358 13.6334 23.733C13.6084 24.5497 13.6084 25.3663 13.6334 26.183C13.6417 26.5163 13.5251 26.5913 13.2167 26.5913C11.8917 26.5747 10.5667 26.5913 9.2334 26.5913C7.90007 26.5913 6.70007 26.5913 5.44174 26.5913C4.37507 26.5913 3.62507 25.883 3.6334 24.908L3.62507 24.8913ZM45.0584 28.758C44.3001 33.583 43.5584 38.4163 42.7917 43.2413C42.4501 45.3746 40.7251 46.8413 38.5667 46.8497C35.6334 46.8663 32.7001 46.8497 29.7667 46.8497C29.7501 46.8497 29.7334 46.8497 29.7084 46.8497H21.2167C21.2167 46.8497 21.1834 46.8497 21.1584 46.8497C18.3167 46.8497 15.4751 46.8497 12.6417 46.8497C12.3667 46.8497 12.0834 46.8497 11.8084 46.808C9.75007 46.4996 8.41674 45.1163 8.07507 42.9163C7.34174 38.208 6.62507 33.4996 5.8834 28.7913C5.8334 28.4497 5.92507 28.4163 6.21674 28.4163C8.55007 28.4247 10.8751 28.4247 13.2084 28.4163C13.5417 28.4163 13.6167 28.5247 13.6084 28.833C13.5917 30.6996 13.6001 32.5663 13.6084 34.433C13.6084 36.3663 15.0417 37.5997 16.9417 37.308C17.2334 37.258 17.3167 37.3163 17.3084 37.6163C17.2917 38.2663 17.2917 38.9163 17.3084 39.558C17.3501 41.383 18.9584 42.633 20.7251 42.2163C21.0001 42.1497 21.1084 42.1913 21.2251 42.458C21.7084 43.5663 22.5667 44.1746 23.7834 44.1746C25.0001 44.1746 25.8584 43.5663 26.3417 42.458C26.4501 42.2163 26.5167 42.1413 26.8001 42.208C28.6501 42.633 30.2501 41.358 30.2751 39.458C30.2917 37.8663 30.2751 36.283 30.2751 34.6913C30.2751 34.5247 30.2751 34.358 30.2751 34.1413C30.9584 34.383 31.6084 34.4663 32.2667 34.3163C33.6834 33.9913 34.6834 32.758 34.7084 31.2747C34.7251 30.458 34.7251 29.6413 34.7084 28.8247C34.7084 28.5497 34.7501 28.4163 35.0751 28.4247C38.3001 28.4413 41.5251 28.433 44.7501 28.4247C45.0001 28.4247 45.0917 28.458 45.0417 28.758H45.0584ZM45.5084 26.5747C42.0501 26.5747 38.6001 26.5747 35.1417 26.5747C34.8501 26.5747 34.7584 26.5163 34.6917 26.1913C34.5084 25.333 34.2417 24.4997 33.9667 23.658C33.8501 23.308 33.9001 23.2163 34.2834 23.2163C36.1834 23.233 38.0751 23.2163 39.9751 23.2163C41.8751 23.2163 43.6417 23.2163 45.4834 23.2163C46.5667 23.2163 47.3167 23.8997 47.3167 24.8747C47.3167 25.8497 46.5751 26.5497 45.5001 26.5497L45.5084 26.5747Z" fill="#2C0D4C"/>
</svg>
