<svg width="61" height="24" viewBox="0 0 61 24" fill="none" xmlns="http://www.w3.org/2000/svg">
<path fill-rule="evenodd" clip-rule="evenodd" d="M54.8581 16.4629C55.6131 16.4629 56.0074 15.7531 56.1652 14.8517H60.2891C59.7708 21.1277 51.0947 21.1728 50.3398 16.2038V19.4376H44.3567V16.1587C43.8384 19.3587 42.0018 19.7982 41.2018 19.7982C40.5257 19.7982 38.8807 19.246 38.2722 17.5559L38.3286 19.3925C38.3398 20.5306 39.0722 21.2517 39.8384 21.3531V24.001H32.8638V21.3418C33.4497 21.3306 34.3849 20.7446 34.3962 19.4714V14.6601C34.1821 15.8658 33.2919 19.7756 28.999 19.7756C24.7511 19.7756 23.7821 15.6517 23.6018 15.0432C22.8018 19.539 19.8159 19.7869 18.5088 19.7644C16.1539 19.7306 14.7342 18.108 14.7004 18.0742C13.2807 16.632 13.0102 14.4573 13.0666 12.1024C13.0666 11.6291 13.1905 10.7052 13.2356 10.2545C11.7145 11.8883 10.2947 11.6855 8.61588 11.7531H7.20742V14.446C7.20742 15.5277 7.60179 16.17 8.80742 16.1813V19.4151H0.514465V16.2489C1.7201 16.2376 2.137 15.539 2.137 14.4573V4.86858C2.137 4.64323 2.08066 3.15591 0.525734 3.14464V0.000976562H9.47221C11.1624 0.000976562 12.3567 0.519286 13.168 1.15027C14.6553 2.3221 14.9595 4.35027 15.0835 5.8376C17.3595 3.8545 22.7567 3.41506 23.6694 9.34182C24.6497 4.82351 27.9736 4.48548 28.7511 4.47422C30.1483 4.47422 32.537 5.31929 33.3145 7.60661V4.78971H38.2159V6.60379C38.5764 5.24041 39.7821 4.49675 41.0102 4.48548C42.1933 4.47422 44.6159 5.79253 45.2356 10.7841V4.13619C45.2356 3.17844 44.6384 2.68267 43.6807 2.68267V0.0347797H49.3821V10.7953C49.9004 6.02914 52.5595 4.50802 54.8018 4.50802C57.0779 4.50802 58.6891 5.76999 59.5117 7.39253C60.5708 9.46577 60.4919 11.6629 60.4356 13.0827H53.4947C53.4722 13.3531 53.4947 13.8151 53.5173 14.232C53.5511 15.4038 53.9342 16.4742 54.8581 16.4629ZM18.6215 16.4629C19.3764 16.4629 19.7708 15.7644 19.9286 14.8629H23.5455C23.3652 13.9615 23.3426 13.77 23.3201 13.0714H17.2356C17.2131 13.3418 17.2356 13.8038 17.2581 14.2207C17.3145 15.4038 17.6976 16.4742 18.6215 16.4629ZM27.4778 12.17C27.4778 14.5587 27.906 16.4855 28.9877 16.4967C30.0919 16.508 30.4976 14.5587 30.4976 12.17C30.4976 9.78126 30.0694 7.8545 28.9877 7.84323C27.9398 7.8207 27.4778 9.78126 27.4778 12.17ZM18.599 7.75309C17.675 7.75309 17.2581 8.87985 17.2018 10.0629C17.1793 10.4686 17.1793 10.4799 17.2018 10.7841H19.9398C19.9624 10.4799 19.9624 10.4686 19.9398 10.0629C19.8835 8.87985 19.5229 7.75309 18.599 7.75309ZM54.8356 7.84323C53.9117 7.84323 53.5286 8.87985 53.4609 10.0629C53.4384 10.4686 53.4384 10.4799 53.4609 10.7841H56.199C56.2215 10.4799 56.2215 10.4686 56.199 10.0629C56.1426 8.87985 55.7595 7.84323 54.8356 7.84323ZM38.4525 14.3446C38.4525 15.5503 38.7455 16.4629 39.5905 16.4629C40.537 16.4629 41.1004 15.1897 41.1004 12.1813C41.1004 8.87985 40.5933 7.75309 39.7032 7.71929C38.8469 7.68548 38.4074 8.40661 38.4525 9.91647V14.3446ZM7.20742 8.16999H8.36799C9.41588 8.13619 9.78771 7.5052 9.78771 5.89393C9.78771 4.42915 9.2694 3.67422 8.36799 3.67422H7.20742V8.16999Z" fill="white"/>
</svg>
