<svg width="12" height="12" viewBox="0 0 12 12" fill="none" xmlns="http://www.w3.org/2000/svg">
<g clip-path="url(#clip0_661_27356)">
<path d="M11.1702 4.82418C11.0161 4.72076 10.877 4.59671 10.7567 4.45546C10.7657 4.25879 10.8052 4.06473 10.8739 3.88026C11.0031 3.44302 11.1639 2.89885 10.8539 2.47304C10.5417 2.04385 9.97123 2.02944 9.51296 2.01773C9.32017 2.02542 9.12733 2.00469 8.94058 1.95619C8.83791 1.79514 8.75951 1.61985 8.70792 1.43594C8.55501 1.00047 8.36452 0.458462 7.85439 0.292681C7.35939 0.131802 6.91516 0.437459 6.52346 0.706246C6.36605 0.83193 6.18932 0.931276 6.00014 1.00045C5.81085 0.931355 5.63403 0.831989 5.4766 0.706246C5.08488 0.437222 4.64053 0.132531 4.14565 0.292681C3.63565 0.458462 3.44523 1.00019 3.29214 1.43576C3.24065 1.61875 3.16311 1.79339 3.06192 1.9543C2.87458 2.00428 2.68077 2.0256 2.48706 2.01755C2.02881 2.02924 1.45838 2.04367 1.14613 2.47284C0.836126 2.89889 0.996965 3.44306 1.12613 3.88034C1.19404 4.06384 1.23392 4.25651 1.24442 4.45189C1.12466 4.59514 0.985017 4.72052 0.829748 4.8242C0.46 5.10618 0 5.45722 0 6.00045C0 6.54367 0.46 6.89472 0.829827 7.17672C0.983856 7.28014 1.12298 7.40419 1.24327 7.54544C1.23434 7.74211 1.19481 7.93615 1.12609 8.12063C0.996946 8.55788 0.836086 9.10209 1.14609 9.52786C1.45834 9.95705 2.02877 9.97146 2.48704 9.98319C2.67983 9.9755 2.87267 9.99622 3.05942 10.0447C3.16209 10.2058 3.24049 10.3811 3.29208 10.565C3.44517 11.0005 3.63559 11.5425 4.14571 11.7083C4.23608 11.7379 4.3306 11.753 4.42572 11.753C4.80964 11.753 5.16021 11.512 5.47664 11.2947C5.63405 11.169 5.81078 11.0696 5.99998 11.0005C6.18926 11.0695 6.36609 11.1689 6.52356 11.2947C6.91526 11.5637 7.35949 11.8681 7.85449 11.7082C8.36449 11.5424 8.55491 11.0007 8.70799 10.5651C8.75949 10.3822 8.83702 10.2075 8.93822 10.0466C9.12556 9.99662 9.31937 9.9753 9.51308 9.98335C9.97133 9.97166 10.5418 9.95723 10.854 9.52806C11.164 9.10203 11.0032 8.55782 10.874 8.12056C10.8061 7.93706 10.7662 7.74439 10.7557 7.54901C10.8755 7.40576 11.0151 7.28038 11.1704 7.1767C11.54 6.89472 12 6.54367 12 6.00045C12 5.45722 11.54 5.10618 11.1702 4.82418ZM8.22853 5.10397L5.72852 7.60396C5.53333 7.79921 5.21682 7.79927 5.02158 7.60408C5.02154 7.60404 5.0215 7.604 5.02146 7.60396L3.77145 6.35396C3.57373 6.16119 3.56971 5.84463 3.76248 5.6469C3.95524 5.44917 4.27181 5.44516 4.46953 5.63793C4.47257 5.64088 4.47556 5.64387 4.47851 5.6469L5.37499 6.5434L7.52147 4.3969C7.71424 4.19917 8.0308 4.19517 8.22853 4.38794C8.42625 4.58071 8.43025 4.89727 8.23748 5.095C8.23453 5.09805 8.23154 5.10102 8.22853 5.10397Z" fill="#53A179"/>
</g>
<defs>
<clipPath id="clip0_661_27356">
<rect width="12" height="12" fill="white"/>
</clipPath>
</defs>
</svg>
