<svg width="121" height="24" viewBox="0 0 121 24" fill="none" xmlns="http://www.w3.org/2000/svg">
<g clip-path="url(#clip0_10714_23216)">
<path d="M12.1097 14.7731C12.4817 10.9871 12.8537 7.20109 13.2197 3.41509C13.2497 3.07309 13.2557 2.73109 13.2497 2.38909C13.2497 2.10109 13.1537 1.77709 12.8597 1.73509C12.1337 1.62109 12.4097 1.08109 12.4397 0.727093C12.4757 0.271093 12.9137 0.505093 13.1597 0.499093C13.8677 0.463093 14.5757 0.481093 15.2837 0.493093C15.4697 0.493093 15.7517 0.415093 15.7517 0.727093C15.7517 1.03309 15.9437 1.50109 15.6317 1.60909C14.9537 1.83709 14.9717 2.38309 14.9177 2.87509C14.6597 5.27509 14.4317 7.68109 14.1917 10.0871C13.7597 14.3711 13.3217 18.6551 12.9077 22.9451C12.8537 23.4851 12.6917 23.7011 12.1217 23.6471C11.5577 23.5931 10.9757 23.5871 10.4117 23.6531C9.8417 23.7251 9.7337 23.4671 9.6797 22.9811C9.3617 20.0591 9.0197 17.1371 8.6837 14.2211C8.6597 13.9991 8.5937 13.7831 8.4677 13.5731C8.1377 16.5071 7.7897 19.4351 7.4837 22.3691C7.3457 23.6531 7.3817 23.6531 6.0917 23.6531C4.2197 23.6531 4.2497 23.6531 4.0637 21.7811C3.4937 16.1111 2.9057 10.4471 2.3177 4.77709C2.2337 3.96109 2.1497 3.14509 2.0537 2.32909C2.0237 2.08909 2.0177 1.77709 1.6997 1.73509C1.0397 1.64509 1.2437 1.15309 1.2617 0.787093C1.2917 0.295093 1.7117 0.523093 1.9577 0.517093C3.1217 0.493093 4.2857 0.499093 5.4497 0.517093C5.6477 0.517093 5.9717 0.373093 6.0137 0.709093C6.0497 1.02709 6.2237 1.48909 5.8697 1.64509C5.3057 1.89109 5.3837 2.30509 5.4257 2.72509C5.6657 5.35909 5.9177 7.98709 6.1637 10.6211C6.2897 11.9351 6.4097 13.2551 6.5357 14.5691C6.5657 14.8571 6.5357 15.1571 6.7577 15.4931C7.0997 12.3731 7.4837 9.34309 7.7357 6.30709C7.8497 4.90309 7.4717 3.49909 7.3457 2.09509C7.3337 1.92709 7.2797 1.75309 7.0997 1.72909C6.3737 1.63309 6.6557 1.06909 6.6917 0.727093C6.7337 0.283093 7.1717 0.511093 7.4177 0.505093C8.5577 0.481093 9.6977 0.487093 10.8437 0.499093C11.0477 0.499093 11.3657 0.391093 11.3717 0.745093C11.3717 1.06309 11.5877 1.51909 11.1917 1.66909C10.5857 1.89109 10.6277 2.34109 10.6757 2.78509C10.9037 4.96309 11.1557 7.13509 11.4017 9.30709C11.6057 11.1371 11.8097 12.9671 12.0137 14.8031C12.0497 14.8031 12.0797 14.7911 12.1157 14.7851L12.1097 14.7731Z" fill="white"/>
<path d="M28.0577 7.46465C29.5817 5.32865 32.0777 5.38265 33.1697 7.51265C33.8597 6.03065 35.1077 5.84465 36.4997 5.98265C37.4597 6.07865 37.9697 6.54665 38.1917 7.48865C38.3057 7.96265 38.3177 8.43665 38.3177 8.91665C38.3177 13.1167 38.3177 17.3106 38.3177 21.5106C38.3177 21.8826 38.1617 22.3027 38.7917 22.4767C39.1097 22.5667 38.9237 23.0886 38.9057 23.4067C38.8877 23.7127 38.5997 23.6166 38.4137 23.6227C37.1777 23.6287 35.9477 23.6287 34.7117 23.6227C34.5257 23.6227 34.2317 23.7187 34.2077 23.4307C34.1837 23.0947 33.9797 22.6507 34.3517 22.4407C34.6877 22.2487 34.7237 22.0086 34.7237 21.7147C34.7237 17.4966 34.7237 13.2727 34.7237 9.05465C34.7237 8.58065 34.7237 8.04065 33.9737 8.11265C33.5537 8.15465 33.2837 8.33465 33.2417 8.77265C33.2117 9.11465 33.1817 9.45665 33.1817 9.79865C33.1817 13.6087 33.1697 17.4187 33.1877 21.2287C33.1877 21.6787 32.9657 22.2247 33.6497 22.5127C33.8537 22.5967 33.7517 23.1127 33.6977 23.4247C33.6377 23.7607 33.3317 23.6227 33.1277 23.6287C31.9397 23.6407 30.7517 23.6407 29.5637 23.6287C29.3537 23.6287 29.0237 23.7187 29.0357 23.3766C29.0477 23.0587 28.7597 22.6147 29.2517 22.4287C29.5817 22.3027 29.5577 22.0747 29.5577 21.8287C29.5577 17.4967 29.5577 13.1587 29.5577 8.82665C29.5577 8.46665 29.5157 8.12465 29.0237 8.11865C28.5737 8.11865 28.1897 8.20865 28.1297 8.74265C28.0937 9.03665 28.0577 9.33065 28.0577 9.62465C28.0577 13.6147 28.0577 17.6107 28.0577 21.6007C28.0577 21.9487 27.9857 22.2847 28.4417 22.5187C28.7117 22.6507 28.5737 23.1126 28.5257 23.4186C28.4777 23.7426 28.1657 23.6227 27.9557 23.6287C26.8157 23.6407 25.6697 23.6407 24.5297 23.6287C24.3257 23.6287 24.0017 23.7307 24.0017 23.3827C24.0017 23.0707 23.7797 22.6147 24.1877 22.4707C24.6557 22.3087 24.6197 22.0027 24.6197 21.6667C24.6197 17.2387 24.6197 12.8167 24.6197 8.38865C24.6197 8.02265 24.6797 7.64465 24.1697 7.44065C23.7977 7.29065 24.0197 6.82865 24.0017 6.51065C23.9837 6.19265 24.2717 6.26465 24.4577 6.24665C25.4597 6.15665 26.4617 6.09665 27.4577 5.98265C27.9497 5.92865 28.1237 6.09065 28.0637 6.57065C28.0337 6.81065 28.0637 7.06265 28.0637 7.47065L28.0577 7.46465Z" fill="white"/>
<path d="M71.0897 17.1847C71.0897 18.5767 71.0897 19.9687 71.0897 21.3607C71.0897 21.9007 71.0897 22.4167 71.8697 22.4527C72.3317 22.4767 72.0917 22.9147 72.1337 23.1727C72.1757 23.4187 72.1157 23.6227 71.7857 23.6227C70.0937 23.6227 68.4077 23.6227 66.7157 23.6227C66.2477 23.6227 66.4277 23.2447 66.4157 23.0107C66.4037 22.7707 66.2837 22.3927 66.7517 22.4408C67.4837 22.5188 67.5677 22.0807 67.5677 21.5168C67.5677 15.3547 67.5677 9.19275 67.5677 3.03075C67.5677 2.85075 67.5257 2.66475 67.5317 2.48475C67.5437 1.96875 67.3757 1.65075 66.7877 1.66875C66.1697 1.68675 66.4637 1.20075 66.4097 0.92475C66.3497 0.61875 66.4697 0.47475 66.8117 0.48075C68.4317 0.49275 70.0577 0.49275 71.6777 0.48075C71.9717 0.48075 72.1997 0.53475 72.1277 0.88875C72.0737 1.17075 72.3737 1.65675 71.7797 1.66275C71.2037 1.67475 71.0957 2.05275 71.0897 2.48475C71.0777 5.13075 71.0897 7.77675 71.0777 10.4227C71.0777 10.7827 71.2037 10.9027 71.5577 10.8907C72.2417 10.8727 72.9257 10.8727 73.6157 10.8907C73.9517 10.9027 74.1077 10.8127 74.1077 10.4347C74.0897 7.76475 74.0897 5.09475 74.0777 2.42475C74.0777 1.99875 73.9457 1.65075 73.4177 1.66275C72.8117 1.68075 73.0577 1.21875 73.0097 0.93075C72.9497 0.55875 73.1477 0.46875 73.4837 0.46875C75.0617 0.48075 76.6337 0.48075 78.2117 0.46875C78.5777 0.46875 78.7157 0.60075 78.6737 0.94875C78.6377 1.24875 78.8417 1.69275 78.2477 1.66875C77.7977 1.65075 77.6537 1.92075 77.6477 2.32275C77.6477 2.59875 77.6297 2.86875 77.6297 3.14475C77.6297 9.05475 77.6297 14.9648 77.6297 20.8748C77.6297 21.1928 77.6417 21.5107 77.6537 21.8347C77.6717 22.2007 77.8217 22.4587 78.2357 22.4288C78.8357 22.3867 78.6377 22.8307 78.6737 23.1307C78.7217 23.5267 78.5357 23.6348 78.1577 23.6287C76.6037 23.6108 75.0497 23.6168 73.4957 23.6287C73.1657 23.6287 72.9497 23.5507 73.0097 23.1727C73.0577 22.8847 72.8057 22.4167 73.4117 22.4347C73.9337 22.4467 74.0777 22.1227 74.0777 21.6847C74.0897 18.6967 74.0897 15.7087 74.1077 12.7207C74.1077 12.3307 73.9457 12.2707 73.6157 12.2827C72.9797 12.3007 72.3377 12.3127 71.6957 12.2827C71.2277 12.2527 71.0657 12.3967 71.0777 12.8827C71.1077 14.3167 71.0897 15.7567 71.0897 17.1967V17.1847Z" fill="white"/>
<path d="M113.648 7.42922C114.254 6.01322 115.424 5.89922 116.684 5.96522C117.932 6.03122 118.616 6.64922 118.748 7.89722C118.79 8.30522 118.778 8.71922 118.778 9.12722C118.778 13.2312 118.778 17.3412 118.784 21.4452C118.784 21.8352 118.628 22.2912 119.276 22.4772C119.6 22.5672 119.408 23.0892 119.39 23.4072C119.372 23.6952 119.09 23.6232 118.898 23.6232C117.644 23.6232 116.384 23.6292 115.13 23.6232C114.944 23.6232 114.656 23.7072 114.638 23.4072C114.62 23.0832 114.434 22.6152 114.752 22.4652C115.148 22.2732 115.154 21.9912 115.154 21.6972C115.154 17.4072 115.13 13.1232 115.112 8.83322C115.112 8.46722 115.046 8.13722 114.572 8.11922C114.128 8.10122 113.714 8.18522 113.618 8.68922C113.54 9.08522 113.528 9.50522 113.528 9.91322C113.522 13.8372 113.528 17.7612 113.528 21.6852C113.528 21.9852 113.468 22.2672 113.852 22.4892C114.14 22.6572 114.008 23.1312 113.942 23.4552C113.876 23.7612 113.558 23.6232 113.354 23.6292C112.256 23.6412 111.164 23.6412 110.066 23.6292C109.862 23.6292 109.538 23.7432 109.526 23.4012C109.514 23.0892 109.31 22.6332 109.688 22.4772C110.174 22.2852 110.114 21.9372 110.114 21.5892C110.114 18.7152 110.114 15.8412 110.114 12.9672C110.114 9.54722 110.114 6.12122 110.114 2.70122C110.114 2.19122 110.168 1.68722 109.394 1.64522C108.998 1.62722 109.22 1.20122 109.184 0.961216C109.148 0.733216 109.154 0.499216 109.49 0.469216C110.738 0.367216 111.986 0.247216 113.24 0.163216C113.654 0.139216 113.51 0.511216 113.51 0.721216C113.522 2.70722 113.51 4.69322 113.522 6.67322C113.522 6.88922 113.456 7.11722 113.642 7.42922H113.648Z" fill="white"/>
<path d="M51.9017 7.42868C53.0057 6.01268 54.1757 5.63468 55.6997 6.06068C56.6117 6.31868 56.9777 6.96068 57.0737 7.81268C57.1397 8.37668 57.1517 8.94668 57.1517 9.51668C57.1577 13.5307 57.1517 17.5447 57.1577 21.5587C57.1577 21.9187 57.0497 22.2907 57.6137 22.4767C57.9257 22.5787 57.7517 23.0947 57.7217 23.4127C57.6977 23.7007 57.4097 23.6167 57.2177 23.6167C55.9637 23.6227 54.7097 23.6227 53.4497 23.6167C53.2637 23.6167 52.9637 23.7007 52.9877 23.3827C53.0117 23.0587 52.7357 22.6087 53.1797 22.4287C53.5337 22.2787 53.5217 22.0507 53.5217 21.7747C53.5217 17.5087 53.5217 13.2487 53.5217 8.98268C53.5217 8.55668 53.5037 8.14268 52.9157 8.10668C52.3397 8.07668 51.9977 8.31068 51.9437 8.90468C51.9257 9.13268 51.9017 9.36068 51.9017 9.58268C51.9017 13.6207 51.9017 17.6527 51.9017 21.6907C51.9017 21.9787 51.7877 22.2727 52.2137 22.4887C52.5257 22.6447 52.3697 23.1127 52.3157 23.4367C52.2677 23.7187 51.9857 23.6107 51.7997 23.6107C50.6597 23.6227 49.5197 23.6227 48.3737 23.6107C48.1697 23.6107 47.8397 23.7127 47.8517 23.3587C47.8637 23.0407 47.5697 22.5907 48.0977 22.4287C48.4577 22.3207 48.4637 22.0687 48.4637 21.7927C48.4637 17.2567 48.4637 12.7147 48.4637 8.17868C48.4637 7.77668 48.3977 7.46468 47.8757 7.44668C47.3417 7.42868 47.6057 6.97868 47.5517 6.71468C47.5037 6.43868 47.5757 6.24668 47.9297 6.22868C49.0217 6.16268 50.1137 6.08468 51.1997 5.97068C51.7277 5.91068 51.9737 6.04268 51.8897 6.61268C51.8597 6.83468 51.8897 7.06268 51.8897 7.42868H51.9017Z" fill="white"/>
<path d="M92.2157 22.2369C91.7957 23.1429 91.2017 23.6589 90.3077 23.7789C88.8017 23.9829 87.8717 23.4429 87.4757 21.9609C86.8877 19.7649 86.9357 17.5389 87.4577 15.3369C87.7337 14.1789 88.5617 13.4769 89.5997 13.0149C90.1817 12.7569 90.7817 12.5289 91.3817 12.3249C91.6937 12.2229 91.8197 12.0669 91.8197 11.7369C91.8077 10.6209 91.8437 9.4989 91.8017 8.3829C91.7657 7.3149 90.7757 6.8229 89.8397 7.3689C89.5277 7.5489 89.7857 7.6689 89.8877 7.7769C90.3557 8.3049 90.6737 8.8929 90.6857 9.6129C90.6977 10.3629 90.2957 10.8429 89.5397 11.0109C88.8557 11.1609 88.2497 10.8789 87.9377 10.2609C87.0797 8.5809 87.7937 6.8289 89.5877 6.2589C90.7397 5.8929 91.9157 5.8569 93.1037 6.0909C94.2977 6.3249 94.9817 7.0629 95.1677 8.2509C95.2397 8.7189 95.2817 9.2049 95.2817 9.6789C95.2937 13.5309 95.2817 17.3829 95.2937 21.2409C95.2937 21.5169 95.1077 22.0029 95.5697 22.0149C96.0377 22.0329 95.8217 21.5229 95.8997 21.2529C95.9537 21.0609 95.9357 20.8449 95.9177 20.6409C95.8757 20.2269 96.0857 20.1549 96.4457 20.1489C96.8477 20.1429 96.9677 20.3109 96.9317 20.6769C96.8777 21.1749 96.8777 21.6849 96.7877 22.1709C96.5837 23.2449 95.9897 23.7369 94.9037 23.7969C94.6997 23.8089 94.4957 23.8089 94.2857 23.8029C92.9537 23.7789 92.6777 23.5809 92.1977 22.2369H92.2157ZM91.8917 13.1529C90.8897 13.5249 90.6077 14.2929 90.5477 15.1569C90.4217 17.0649 90.3977 18.9729 90.5237 20.8809C90.5537 21.3009 90.6257 21.7329 91.1897 21.7329C91.8137 21.7389 91.8557 21.2589 91.8617 20.8269C91.8917 19.3269 91.8857 17.8269 91.8917 16.3269C91.8917 15.2889 91.8917 14.2509 91.8917 13.1529Z" fill="white"/>
<path d="M14.8997 14.3713C14.9357 12.5473 14.9417 10.7233 15.4217 8.9473C16.1297 6.3493 18.6077 5.1913 21.0617 6.3253C22.1477 6.8293 22.6577 7.7773 22.9697 8.8573C23.3717 10.2493 23.4797 11.6833 23.4917 13.1173C23.5157 15.5773 23.6297 18.0433 23.0897 20.4733C22.4837 23.1913 20.5877 24.3553 17.8997 23.6533C16.7957 23.3653 16.0997 22.6333 15.6797 21.6013C15.0017 19.9393 14.9837 18.1753 14.8997 16.4233C14.8697 15.7393 14.8997 15.0553 14.8997 14.3713ZM19.9517 14.9533C19.9517 14.9533 19.9937 14.9533 20.0177 14.9533C20.0177 13.3333 20.0417 11.7193 20.0057 10.0993C19.9937 9.3733 20.0177 8.6413 19.8317 7.9273C19.7417 7.5973 19.5617 7.4173 19.2077 7.4233C18.8537 7.4233 18.6497 7.6093 18.5897 7.9393C18.5237 8.3173 18.4577 8.7073 18.4457 9.0913C18.3377 12.9613 18.3437 16.8373 18.4457 20.7073C18.4577 21.0673 18.5177 21.4333 18.5897 21.7873C18.6497 22.1173 18.8597 22.2973 19.2137 22.2913C19.5377 22.2913 19.7417 22.1353 19.8077 21.8353C19.8797 21.5293 19.9397 21.2053 19.9397 20.8933C19.9517 18.9133 19.9457 16.9333 19.9457 14.9533H19.9517Z" fill="white"/>
<path d="M86.8097 12.0425C86.8337 13.6185 86.2697 14.4065 85.1177 14.4065C84.2717 14.4065 83.4257 14.4125 82.5857 14.4065C82.2797 14.4065 82.1297 14.4905 82.1357 14.8325C82.1777 16.8125 82.0517 18.7985 82.2857 20.7785C82.4597 22.2185 83.1197 22.3445 84.4037 22.1525C84.8177 22.0925 84.9617 21.7445 85.0457 21.3605C85.2437 20.4785 85.2017 19.5905 85.1837 18.7025C85.1717 18.2105 85.3457 18.0905 85.8077 18.0905C86.2637 18.0905 86.4557 18.1985 86.4377 18.6965C86.4017 19.6985 86.4497 20.7005 86.2457 21.6965C86.0177 22.8065 85.4297 23.5625 84.2477 23.7305C83.4557 23.8445 82.6577 23.8685 81.8657 23.7305C80.7377 23.5385 79.9817 22.8785 79.5377 21.8345C78.9077 20.3345 78.7697 18.7445 78.7337 17.1485C78.6737 14.6225 78.5897 12.0905 79.1417 9.59453C79.2077 9.28253 79.3097 8.98253 79.3997 8.67653C80.1737 6.07853 82.3037 5.55653 84.5657 6.21653C85.4117 6.46253 85.8977 7.14053 86.1857 7.95053C86.7257 9.48053 86.7737 11.0765 86.8097 12.0545V12.0425ZM83.6717 10.5065C83.6717 10.5065 83.6477 10.5065 83.6357 10.5065C83.6357 9.69053 83.6537 8.86853 83.6297 8.05253C83.6177 7.69853 83.4977 7.37453 83.0357 7.37453C82.5977 7.37453 82.4477 7.65053 82.3697 8.01053C82.3457 8.11853 82.3217 8.23253 82.3097 8.34653C82.1657 9.79253 82.1777 11.2505 82.1357 12.7025C82.1177 13.3985 82.6277 13.1345 82.9517 13.1585C83.2757 13.1825 83.7137 13.3205 83.6777 12.6845C83.6417 11.9585 83.6657 11.2325 83.6657 10.5065H83.6717Z" fill="white"/>
<path d="M47.3777 12.3249C47.3777 12.8709 47.3177 13.2909 47.3897 13.6869C47.5097 14.3469 47.2157 14.4369 46.6517 14.4189C45.5597 14.3829 44.4617 14.4189 43.3637 14.4069C43.0217 14.4069 42.8117 14.4429 42.8237 14.8809C42.8717 16.8189 42.7457 18.7569 42.9617 20.6889C43.1117 22.0569 43.9577 22.5909 45.2717 22.1349C45.7397 21.9729 45.8477 21.5709 45.9197 21.1689C46.0637 20.3589 46.0817 19.5369 46.0397 18.7149C46.0157 18.2349 46.1777 18.0849 46.6577 18.0909C47.1077 18.0969 47.3177 18.1869 47.2937 18.6909C47.2397 19.8069 47.2697 20.9229 46.9517 22.0149C46.6937 22.9029 46.1477 23.4849 45.2297 23.6769C44.2097 23.8929 43.1837 23.9109 42.1817 23.6349C41.1917 23.3589 40.5737 22.6449 40.1897 21.7089C39.7337 20.5929 39.5657 19.4229 39.4877 18.2409C39.3077 15.4149 39.2537 12.5889 39.7877 9.79291C39.8597 9.41491 39.9737 9.04291 40.0877 8.67091C40.9097 5.97691 43.0817 5.61691 45.1997 6.19291C46.0577 6.42691 46.5137 7.12891 46.7957 7.94491C47.2997 9.41491 47.3177 10.9449 47.3777 12.3369V12.3249ZM42.8357 10.8909C42.8357 11.3589 42.8477 12.0429 42.8357 12.7269C42.8297 13.0389 42.9197 13.1949 43.2557 13.1709C43.5077 13.1529 43.7597 13.1589 44.0057 13.1709C44.3117 13.1829 44.4677 13.0749 44.4617 12.7389C44.4197 11.2149 44.5457 9.69091 44.3717 8.16691C44.3297 7.80091 44.3237 7.41091 43.8137 7.38091C43.3097 7.35091 43.1597 7.67491 43.0757 8.09491C42.9077 8.94691 42.9677 9.81691 42.8417 10.8909H42.8357Z" fill="white"/>
<path d="M101.51 11.1913C101.51 14.5453 101.504 17.8933 101.516 21.2473C101.516 21.7393 101.3 22.3633 102.176 22.4953C102.458 22.5373 102.272 23.0653 102.296 23.3713C102.314 23.6413 102.098 23.6293 101.912 23.6293C100.61 23.6293 99.3077 23.6293 98.0117 23.6293C97.8317 23.6293 97.5977 23.6593 97.5977 23.4013C97.6037 23.0833 97.3877 22.6573 97.7597 22.4713C98.0717 22.3153 98.0537 22.1053 98.0537 21.8653C98.0537 15.3433 98.0537 8.82135 98.0597 2.29935C98.0597 1.87335 97.9277 1.65135 97.4717 1.67535C97.0217 1.69935 97.1237 1.35735 97.1177 1.09935C97.1177 0.817348 97.0217 0.499348 97.4957 0.463348C98.7257 0.379348 99.9497 0.259348 101.174 0.157348C101.684 0.115348 101.486 0.517348 101.492 0.727348C101.504 3.16935 101.504 5.60535 101.504 8.04735C101.504 9.09735 101.504 10.1473 101.504 11.1913H101.51Z" fill="white"/>
<path d="M103.196 14.4065C103.196 12.2885 103.196 10.1645 103.196 8.04653C103.196 7.69853 103.298 7.30853 102.686 7.33853C102.23 7.35653 102.458 6.92453 102.44 6.70253C102.416 6.46853 102.296 6.09653 102.74 6.08453C103.886 6.06053 104.33 5.26253 104.696 4.36253C104.996 3.61853 105.218 2.85653 105.368 2.07653C105.488 1.43453 105.962 1.66253 106.328 1.63853C106.772 1.61453 106.682 1.96253 106.682 2.21453C106.688 3.33053 106.7 4.45253 106.682 5.56853C106.676 5.98253 106.802 6.15653 107.222 6.10853C107.468 6.08453 107.726 6.10853 107.972 6.10853C108.764 6.10853 108.974 6.40853 108.782 7.18253C108.704 7.48253 108.494 7.41653 108.308 7.43453C107.792 7.48253 107.12 7.20653 106.796 7.56053C106.454 7.93253 106.688 8.60453 106.688 9.14453C106.676 13.0865 106.688 17.0345 106.688 20.9765C106.688 21.1565 106.676 21.3425 106.688 21.5225C106.712 21.8045 106.652 22.1525 107.102 22.1645C107.594 22.1825 107.57 21.8105 107.582 21.5045C107.606 20.9345 107.588 20.3645 107.594 19.7945C107.594 19.4285 107.594 19.0625 107.594 18.7025C107.594 17.9825 107.786 17.8385 108.494 17.9705C108.68 18.0065 108.788 18.0725 108.782 18.2705C108.734 19.6565 108.938 21.0545 108.632 22.4285C108.446 23.2625 107.966 23.6645 107.126 23.7785C106.988 23.7965 106.856 23.8085 106.718 23.8145C104.096 23.9345 103.226 23.1185 103.214 20.5025C103.202 18.4745 103.214 16.4405 103.214 14.4125L103.196 14.4065Z" fill="white"/>
<path d="M58.8677 20.8925C58.8677 20.1425 58.8797 19.3865 58.8677 18.6365C58.8617 18.3305 58.9517 18.1145 59.2817 18.2045C59.6177 18.2945 60.1637 17.8685 60.2597 18.5645C60.3797 19.3985 60.4337 20.2445 60.5897 21.0725C60.7937 22.1465 61.2617 22.4345 62.3417 22.2785C62.8097 22.2125 63.0677 21.9725 63.1637 21.5045C63.4037 20.3465 63.0977 19.2905 62.6117 18.2705C61.8197 16.5965 60.6677 15.1325 59.8337 13.4825C59.1137 12.0605 58.5917 10.5785 58.7957 8.95251C59.1317 6.27051 62.0117 5.00451 64.2557 6.53451C64.5857 6.76251 64.8077 6.97251 64.9097 6.36051C64.9877 5.91051 65.3897 6.15051 65.6477 6.11451C65.9297 6.07251 65.9777 6.27651 65.9777 6.50451C65.9777 7.94451 65.9657 9.37851 65.9777 10.8185C65.9777 11.2445 65.7137 11.2505 65.4377 11.2085C65.1317 11.1665 64.6697 11.4425 64.6157 10.8065C64.5497 10.0385 64.4477 9.26451 64.3217 8.50251C64.2197 7.88451 63.8957 7.46451 63.1997 7.42851C62.2637 7.37451 61.9157 7.68051 61.8557 8.62851C61.7717 9.99651 62.3477 11.1605 63.0077 12.2885C64.0277 14.0345 65.2817 15.6545 65.9117 17.6165C66.2957 18.8045 66.4817 20.0105 66.2657 21.2465C66.0677 22.3865 65.4617 23.2805 64.3397 23.6105C63.1157 23.9645 61.8437 24.0425 60.7997 23.0765C60.4517 22.7525 60.2477 22.7585 60.1637 23.2145C60.0377 23.8865 59.5397 23.5985 59.1917 23.6225C58.7177 23.6525 58.8917 23.2565 58.8857 23.0285C58.8617 22.3205 58.8797 21.6125 58.8797 20.9045L58.8677 20.8925Z" fill="white"/>
<path d="M59.0597 0.505083C60.2597 0.523083 61.3097 1.81308 61.1417 3.06708C61.0337 3.89508 60.6017 4.56708 60.0497 5.14908C59.5937 5.62908 59.0657 6.03108 58.5977 6.49308C58.2677 6.81708 58.0577 6.71508 57.7697 6.42708C57.4877 6.14508 57.4157 5.97108 57.7517 5.67708C58.1837 5.30508 58.5557 4.87308 58.9697 4.47708C59.2217 4.23708 59.2097 4.10508 58.8917 3.93708C58.3577 3.65508 57.9077 3.28308 57.6437 2.71908C57.1637 1.68708 57.9317 0.487083 59.0657 0.505083H59.0597Z" fill="white"/>
</g>
<defs>
<clipPath id="clip0_10714_23216">
<rect width="119.4" height="24" fill="white" transform="translate(0.637695 0.000976562)"/>
</clipPath>
</defs>
</svg>
