<svg width="72" height="73" viewBox="0 0 72 73" fill="none" xmlns="http://www.w3.org/2000/svg">
<rect x="0.5" y="0.71875" width="71" height="71" rx="23.5" fill="url(#paint0_radial_524_3902)"/>
<rect x="0.5" y="0.71875" width="71" height="71" rx="23.5" stroke="#E0E0E0"/>
<g clip-path="url(#clip0_524_3902)">
<path d="M50.3661 46.0583C51.1273 47.0971 51.3101 48.1936 50.8218 49.3576C50.0482 51.195 47.8023 51.8659 46.1248 50.767C45.912 50.6268 45.7717 50.6218 45.5614 50.7595C43.7162 51.9811 41.7106 52.8222 39.5399 53.2602C39.2845 53.3128 39.1794 53.4179 39.1218 53.6908C38.8088 55.1878 37.4743 56.2366 35.9545 56.2216C34.4623 56.2066 33.1653 55.1377 32.8649 53.6457C32.8148 53.4029 32.7172 53.3103 32.4918 53.2652C30.2935 52.8247 28.263 51.9761 26.3977 50.7369C26.2074 50.6093 26.0872 50.6318 25.9019 50.7519C24.5674 51.6206 22.935 51.4529 21.8433 50.3489C20.7542 49.25 20.604 47.6303 21.4828 46.2861C21.6005 46.1083 21.593 45.9957 21.4828 45.8255C20.2434 43.958 19.3922 41.9279 18.9515 39.73C18.9014 39.4822 18.7888 39.397 18.5384 39.3445C17.0436 39.0366 15.9896 37.7073 15.9996 36.1878C16.0096 34.6934 17.0762 33.3892 18.5609 33.0863C18.7938 33.0387 18.9014 32.9636 18.949 32.7258C19.3922 30.5154 20.246 28.4702 21.4978 26.5952C21.6405 26.3825 21.5529 26.2673 21.4478 26.1021C20.7542 25.0057 20.7041 23.8667 21.3501 22.7452C21.9861 21.6412 22.9901 21.1105 24.267 21.1431C24.9555 21.1606 25.5739 21.4159 26.1398 21.8415C26.5654 21.5837 26.9811 21.3158 27.4117 21.073C28.964 20.1943 30.6065 19.551 32.3591 19.2005C32.6646 19.1405 32.8173 19.0403 32.8924 18.6899C33.2179 17.2129 34.5524 16.1966 36.0597 16.2191C37.5344 16.2391 38.8113 17.303 39.1443 18.7675C39.1743 18.9026 39.2995 19.1004 39.4097 19.1254C41.7207 19.6186 43.8614 20.5123 45.7517 21.7964C46.29 21.5862 46.7557 21.3258 47.2565 21.2257C48.616 20.9503 49.7377 21.4159 50.5164 22.5524C51.295 23.6914 51.295 24.898 50.5639 26.0721C50.4087 26.3199 50.4162 26.4701 50.5689 26.7029C51.7682 28.5278 52.5995 30.5104 53.0326 32.6532C53.0852 32.916 53.1854 33.0412 53.4808 33.1013C54.9555 33.4067 56.0046 34.7334 55.9996 36.2354C55.9946 37.7324 54.933 39.0391 53.4558 39.3545C53.263 39.3945 53.1153 39.4096 53.0652 39.6599C52.6045 41.9654 51.7006 44.0882 50.3686 46.0608L50.3661 46.0583ZM28.5184 37.4945C28.4382 37.7299 28.3681 37.9326 28.298 38.1354C27.5294 40.4384 26.7607 42.7414 26.0021 45.047C25.9595 45.1721 25.957 45.3849 26.0346 45.465C26.3226 45.7604 26.6481 46.0182 27.0136 46.3336C27.9325 45.9281 28.959 45.475 29.9881 45.0219C32.1238 44.0832 34.262 43.1445 36.3952 42.1982C36.5129 42.1456 36.6781 42.033 36.6856 41.9354C36.7282 41.3571 36.7332 40.7738 36.7507 40.1305C34.9555 38.969 33.0852 37.7599 31.2049 36.5433C30.4538 37.2517 29.5724 37.5797 28.5159 37.492L28.5184 37.4945ZM32.8999 52.0386C32.94 51.9735 32.9725 51.931 32.9926 51.8834C33.581 50.4841 34.6275 49.7631 36.1523 49.7832C36.4002 49.7857 36.4352 49.6555 36.4903 49.4853C37.0011 47.9458 37.5144 46.4062 38.0276 44.8667C38.1052 44.6289 38.1854 44.3936 38.2455 44.2109C37.8699 43.8729 37.5444 43.5775 37.1989 43.2646C33.9215 44.7065 30.6265 46.1584 27.4593 47.5527C27.3191 48.3087 27.2039 48.9446 27.0762 49.643C28.8038 50.807 30.7667 51.6206 32.9024 52.0411L32.8999 52.0386ZM42.5719 39.6048C44.9155 38.6661 47.2515 37.7324 49.585 36.7986V35.4794C48.9415 35.1865 48.2605 34.8761 47.5795 34.5657C45.5539 33.6445 43.5259 32.7258 41.5053 31.7946C41.27 31.6869 41.1523 31.732 40.962 31.9047C40.6165 32.2151 40.2059 32.4454 39.8353 32.7308C39.7327 32.8084 39.605 32.9586 39.615 33.0637C39.7752 34.6808 39.9505 36.293 40.1408 37.9076C40.1533 38.0202 40.2785 38.193 40.3736 38.208C41.2975 38.3657 42.0136 38.8413 42.5744 39.6048H42.5719ZM35.7342 28.0471C36.1773 27.6641 36.5429 27.3112 36.951 27.0158C37.1463 26.8756 37.1713 26.7579 37.1188 26.5577C36.956 25.9344 36.8008 25.3085 36.6456 24.6852C36.4753 24.0143 36.3075 23.3435 36.1373 22.6776C35.3736 22.6776 34.7152 22.4823 34.1293 22.0618C33.5459 21.6437 33.1728 21.0655 32.92 20.3971C30.7492 20.8277 28.7888 21.6412 27.0236 22.8378C27.1338 23.2208 27.2665 23.5512 27.3141 23.8917C27.3616 24.2447 27.3241 24.6076 27.3241 24.9881C30.1558 26.0195 32.975 27.0458 35.7367 28.0496L35.7342 28.0471ZM51.7958 33.0011C51.3952 30.9785 50.5815 29.0184 49.3621 27.206C47.9125 27.8794 46.6305 27.6241 45.4813 26.5652C44.1969 27.3012 42.92 28.0321 41.7132 28.723C41.7457 29.3438 41.7732 29.8996 41.8058 30.5204C42.3792 30.7832 43.0226 31.0761 43.6661 31.369C45.7267 32.3077 47.7873 33.249 49.8529 34.1752C49.9756 34.2303 50.1909 34.2253 50.2935 34.1527C50.7793 33.8097 51.2399 33.4317 51.7933 32.9986L51.7958 33.0011ZM45.7142 45.48C46.4127 45.2572 46.9836 44.9694 47.5744 44.9143C48.1628 44.8592 48.7763 45.0369 49.4422 45.1195C50.5865 43.3973 51.4102 41.4397 51.7958 39.4221C51.1548 38.9439 50.5815 38.5159 49.9505 38.0453C47.7898 38.9114 45.5239 39.8176 43.263 40.7338C43.1779 40.7688 43.0702 40.9015 43.0777 40.9766C43.1653 41.6675 42.9976 42.3059 42.6971 42.9292C43.7462 43.8178 44.7803 44.694 45.7142 45.4825V45.48ZM20.1733 39.3044C20.609 41.4723 21.4177 43.4348 22.5719 45.1346C23.3181 45.0119 23.9816 44.9043 24.7227 44.7841C25.5564 42.2808 26.4252 39.6799 27.2465 37.2167C26.7933 36.666 26.4102 36.1903 26.0121 35.7322C25.942 35.6521 25.7918 35.5745 25.6966 35.592C24.62 35.7948 23.5459 36.0176 22.4668 36.2354C22.3541 37.7474 21.593 38.7562 20.1733 39.3044ZM41.8609 43.913C41.2149 44.3736 40.5489 44.6414 39.7953 44.5964C39.5399 44.5813 39.4498 44.669 39.3771 44.8968C38.8263 46.579 38.2605 48.2587 37.7021 49.9384C37.6696 50.0335 37.6546 50.1361 37.6345 50.2313C38.3556 50.6643 38.8038 51.2826 39.0842 52.0486C41.2475 51.6081 43.2129 50.8045 44.938 49.6355C44.8303 49.0747 44.6551 48.5791 44.6576 48.0834C44.6601 47.5753 44.8353 47.0696 44.943 46.5189C43.9515 45.6803 42.9175 44.8066 41.8609 43.913ZM39.0742 20.3921C38.7788 21.2132 38.288 21.8265 37.5694 22.262C37.4893 22.3121 37.4417 22.5074 37.4643 22.6175C37.5644 23.1032 37.6971 23.5813 37.8198 24.0619C38.0276 24.888 38.2354 25.7141 38.4382 26.5251C39.5674 26.6052 40.0431 26.8055 40.8243 27.4589C40.912 27.5315 41.1248 27.5565 41.2224 27.5039C42.3591 26.8731 43.4883 26.2273 44.6125 25.5714C44.6976 25.5213 44.7928 25.3511 44.7702 25.271C44.5199 24.4424 44.63 23.6539 45.0181 22.8628C43.2129 21.6412 41.25 20.8327 39.0767 20.3946L39.0742 20.3921ZM20.1733 33.1413C20.9245 33.4217 21.5604 33.8147 21.921 34.4906C22.1463 34.9137 22.3867 34.9537 22.8073 34.8536C23.7537 34.6283 24.7127 34.4581 25.6641 34.2678C25.7292 33.2715 26.0947 32.4654 26.8183 31.8246C26.8934 31.7595 26.9009 31.5367 26.8509 31.4266C26.4503 30.5329 26.0296 29.6517 25.614 28.7656C25.4112 28.3325 25.2059 27.8994 24.9931 27.4439C24.1618 27.7142 23.4007 27.559 22.6395 27.201C21.4177 29.0134 20.604 30.9735 20.1758 33.1413H20.1733ZM37.5043 39.0816C37.9225 38.8388 38.298 38.636 38.6561 38.4032C38.7512 38.3432 38.8514 38.1854 38.8413 38.0853C38.6786 36.4682 38.5033 34.8536 38.3156 33.239C38.303 33.1313 38.1979 32.9611 38.1178 32.9486C37.2389 32.8109 36.5479 32.3628 35.9871 31.6919C34.7202 32.2827 33.4808 32.8585 32.2465 33.4442C32.1638 33.4843 32.0737 33.6119 32.0687 33.7021C32.0436 34.2828 32.0436 34.8636 32.0311 35.537C33.7938 36.6785 35.6641 37.8876 37.5068 39.0816H37.5043ZM35.3361 29.2813C35.2159 29.2337 35.0657 29.1761 34.9155 29.1211C32.5219 28.2499 30.1133 27.4113 27.7397 26.4876C27.0512 26.2197 26.5754 26.2172 26.1673 26.9006C26.7933 28.2424 27.4242 29.6042 28.0752 30.956C28.1153 31.0411 28.3055 31.1137 28.4132 31.0986C29.5374 30.9434 30.4738 31.2989 31.2575 32.1C31.3401 32.1851 31.4202 32.2702 31.5028 32.3553C32.7547 31.7745 33.9841 31.2063 35.2059 30.6255C35.301 30.5805 35.4112 30.4428 35.4112 30.3477C35.4112 30.0022 35.3661 29.6568 35.3361 29.2813Z" fill="white"/>
</g>
<defs>
<radialGradient id="paint0_radial_524_3902" cx="0" cy="0" r="1" gradientUnits="userSpaceOnUse" gradientTransform="translate(36.096 29.6674) rotate(0.156628) scale(35.9041 255.296)">
<stop stop-color="#505050"/>
<stop offset="1" stop-color="#111111"/>
</radialGradient>
<clipPath id="clip0_524_3902">
<rect width="40" height="40" fill="white" transform="translate(16 16.2188)"/>
</clipPath>
</defs>
</svg>
