<svg width="57" height="56" viewBox="0 0 57 56" fill="none" xmlns="http://www.w3.org/2000/svg">
<rect x="0.333984" y="0.000488281" width="56" height="56" rx="10" fill="white"/>
<g clip-path="url(#clip0_5050_6743)">
<path d="M42.8591 26.6787C42.3205 26.1174 41.9372 25.4161 41.7486 24.6467L41.3751 23.1194C41.0177 21.659 40.2609 20.3385 39.1959 19.3186L34.6379 14.9501C34.4801 14.7985 34.2681 14.7061 34.0364 14.7061C33.6284 14.7061 33.2845 14.9925 33.1798 15.383L36.5114 18.5749C36.6297 18.688 36.7024 18.8498 36.7024 19.0296C36.7024 19.37 36.4374 19.6475 36.1096 19.6475C35.953 19.6475 35.8113 19.5845 35.7065 19.4818L31.6785 15.5731C31.5195 15.4189 31.3075 15.3252 31.0733 15.3252C30.6518 15.3252 30.298 15.6322 30.2068 16.0432L34.1412 19.8119C34.2595 19.9249 34.3322 20.0868 34.3322 20.2666C34.3322 20.6083 34.0672 20.8844 33.7393 20.8844C33.5828 20.8844 33.4398 20.8202 33.3338 20.7174L28.7191 16.1961C28.5601 16.0406 28.3456 15.9443 28.1102 15.9443C27.6196 15.9443 27.2215 16.3592 27.2215 16.8704C27.2215 17.1363 27.3288 17.3765 27.5013 17.5448L27.7749 17.8132C28.2014 17.8685 28.6008 18.0598 28.9212 18.3668L32.3638 21.6654C32.4821 21.7784 32.5548 21.9403 32.5548 22.1201C32.5548 22.4618 32.2898 22.7379 31.962 22.7379C31.8079 22.7379 31.6662 22.6763 31.5614 22.5748L28.1201 19.2762C27.9623 19.1247 27.7503 19.0322 27.5186 19.0322C27.028 19.0322 26.6299 19.4471 26.6299 19.9583C26.6299 20.2255 26.7383 20.4657 26.9121 20.6352L31.7759 25.3737C31.8917 25.4867 31.9644 25.6473 31.9644 25.8245C31.9644 26.1662 31.6994 26.4424 31.3716 26.4424C31.2274 26.4424 31.0955 26.3884 30.992 26.2985L29.275 24.8034C29.1209 24.6698 28.9225 24.5889 28.7055 24.5889C28.215 24.5889 27.8168 25.0038 27.8168 25.515C27.8168 25.8001 27.9413 26.0558 28.1361 26.2253L31.3568 29.0268C32.6461 30.1494 34.2731 30.7634 35.953 30.7634H37.1055C37.993 30.7634 38.8471 31.1076 39.5029 31.7293L45.0013 36.9392V28.9112L42.8616 26.6813L42.8591 26.6787Z" fill="url(#paint0_radial_5050_6743)"/>
<path d="M30.5941 29.9736L27.3734 27.1721C26.9001 26.7585 26.629 26.1548 26.629 25.5139C26.629 24.5518 27.2366 23.7336 28.0711 23.4548L26.1002 21.5345C25.6823 21.1261 25.4432 20.5519 25.4432 19.9559C25.4432 19.1839 25.8339 18.5044 26.4206 18.1217C26.1729 17.7582 26.0361 17.3189 26.0361 16.868C26.0361 15.676 26.9667 14.7062 28.1105 14.7062C28.5456 14.7062 28.9634 14.8462 29.3123 15.1057C29.682 14.484 30.3365 14.0884 31.0736 14.0884C31.5087 14.0884 31.9278 14.2284 32.2766 14.4891C32.6488 13.8687 33.3107 13.4706 34.0367 13.4706C34.5568 13.4706 35.0548 13.6722 35.4394 14.0396L39.9986 18.4094C40.5151 18.9039 40.9625 19.4601 41.3458 20.06C40.7123 14.9439 36.6954 11.0005 30.1849 11.0005C25.4395 11.0005 23.0742 13.4706 23.0742 23.3508C23.0742 28.711 24.5989 31.0192 32.7869 31.339C31.9993 31.0025 31.256 30.5491 30.5954 29.9736H30.5941Z" fill="url(#paint1_radial_5050_6743)"/>
<path d="M21.9263 24.5863H20.7036V23.0423C20.7036 22.5311 20.3054 22.1162 19.8149 22.1162C19.3243 22.1162 18.9262 22.5311 18.9262 23.0423V24.5863H14.7774V23.0423C14.7774 22.5311 14.3792 22.1162 13.8887 22.1162C13.3981 22.1162 13 22.5311 13 23.0423V45.2742C13 45.7854 13.3981 46.2003 13.8887 46.2003C14.3792 46.2003 14.7774 45.7854 14.7774 45.2742V43.7302H18.925V45.2742C18.925 45.7854 19.3231 46.2003 19.8137 46.2003C20.3042 46.2003 20.7023 45.7854 20.7023 45.2742V43.7302H24.8499V45.2742C24.8499 45.7854 25.2481 46.2003 25.7386 46.2003C26.2292 46.2003 26.6273 45.7854 26.6273 45.2742V43.7302H30.7749V45.2742C30.7749 45.7854 31.173 46.2003 31.6636 46.2003C32.1541 46.2003 32.5523 45.7854 32.5523 45.2742V32.5629C25.1125 32.2392 22.2652 30.1763 21.9226 24.5863H21.9263Z" fill="url(#paint2_radial_5050_6743)"/>
</g>
<defs>
<radialGradient id="paint0_radial_5050_6743" cx="0" cy="0" r="1" gradientUnits="userSpaceOnUse" gradientTransform="translate(35.8401 23.7996) rotate(0.18955) scale(9.16129 78.8337)">
<stop stop-color="#505050"/>
<stop offset="1" stop-color="#111111"/>
</radialGradient>
<radialGradient id="paint1_radial_5050_6743" cx="0" cy="0" r="1" gradientUnits="userSpaceOnUse" gradientTransform="translate(32.2344 19.3191) rotate(0.174345) scale(9.11149 72.1159)">
<stop stop-color="#505050"/>
<stop offset="1" stop-color="#111111"/>
</radialGradient>
<radialGradient id="paint2_radial_5050_6743" cx="0" cy="0" r="1" gradientUnits="userSpaceOnUse" gradientTransform="translate(22.8022 31.9668) rotate(0.19293) scale(9.75012 85.3967)">
<stop stop-color="#505050"/>
<stop offset="1" stop-color="#111111"/>
</radialGradient>
<clipPath id="clip0_5050_6743">
<rect width="32" height="35.2" fill="white" transform="translate(13 11.0005)"/>
</clipPath>
</defs>
</svg>
