<svg width="20" height="20" viewBox="0 0 20 20" fill="none" xmlns="http://www.w3.org/2000/svg">
<g clip-path="url(#clip0_5023_3090)">
<path d="M2.05988 18.5527C1.69321 18.5527 1.46655 18.166 1.65322 17.846C1.78655 17.626 1.93988 17.4193 2.08655 17.206C6.40655 11.1793 11.5865 6.01933 17.6665 1.77267C17.7199 1.73267 17.7732 1.69267 17.8332 1.666C18.0332 1.55267 18.2465 1.57267 18.3999 1.726C18.5665 1.886 18.5932 2.09933 18.4732 2.31267C18.4399 2.37933 18.3932 2.43267 18.3532 2.49933C15.9065 6.05933 13.0599 9.27267 9.94655 12.2527C7.60655 14.4993 5.11321 16.5593 2.43322 18.3993C2.31988 18.4793 2.20655 18.5593 2.05321 18.5593L2.05988 18.5527Z" fill="#BA0001"/>
<path d="M0.593447 13.5732C0.446781 13.5666 0.320114 13.5066 0.233447 13.3599C0.140114 13.1999 0.153447 13.0399 0.253447 12.8866C0.553447 12.4399 0.840114 11.9799 1.15345 11.5399C4.33345 7.09991 8.17345 3.34657 12.7468 0.346573C13.0668 0.13324 13.2601 0.119907 13.4401 0.29324C13.6201 0.466573 13.6068 0.67324 13.3934 0.999907C11.2934 4.26657 8.71345 7.11991 5.83345 9.70657C4.30011 11.0799 2.67345 12.3199 0.940114 13.4332C0.840114 13.4999 0.733447 13.5666 0.593447 13.5666V13.5732Z" fill="#BA0001"/>
<path d="M19.8333 6.84762C19.8333 6.99428 19.7533 7.10095 19.6866 7.21428C18.0133 9.82095 16.02 12.1743 13.82 14.3476C11.8 16.341 9.61997 18.1343 7.22663 19.6743C7.18663 19.701 7.14663 19.7276 7.10663 19.7476C6.90663 19.861 6.7133 19.841 6.56663 19.6943C6.41997 19.5476 6.3933 19.3343 6.51997 19.1409C6.8133 18.6876 7.10663 18.2343 7.41997 17.7943C10.6066 13.3343 14.46 9.56762 19.06 6.56095C19.2066 6.46762 19.3466 6.38095 19.5266 6.43428C19.7066 6.49428 19.8333 6.64762 19.84 6.84095L19.8333 6.84762Z" fill="#BA0001"/>
</g>
<defs>
<clipPath id="clip0_5023_3090">
<rect width="20" height="20" fill="white"/>
</clipPath>
</defs>
</svg>
