<svg width="32" height="32" viewBox="0 0 32 32" fill="none" xmlns="http://www.w3.org/2000/svg">
<g clip-path="url(#clip0_4930_3704)">
<mask id="mask0_4930_3704" style="mask-type:luminance" maskUnits="userSpaceOnUse" x="0" y="0" width="32" height="32">
<path d="M32 0H0V32H32V0Z" fill="white"/>
</mask>
<g mask="url(#mask0_4930_3704)">
<path d="M31.0623 22.1042C29.16 22.1042 27.3733 21.3704 26.031 20.0376C24.6893 18.7056 23.9505 16.9314 23.9505 15.042C23.9505 14.5242 23.5306 14.1045 23.013 14.1045C22.4952 14.1045 22.0755 14.5242 22.0755 15.042C22.0755 16.9314 21.3365 18.7056 19.9947 20.0376C18.6524 21.3704 16.8658 22.1042 14.9634 22.1042C14.4456 22.1042 14.0259 22.5239 14.0259 23.0417C14.0259 23.5596 14.4456 23.9792 14.9634 23.9792C18.8848 23.9792 22.0755 27.1567 22.0755 31.0623C22.0755 31.5801 22.4952 31.9998 23.013 31.9998C23.5306 31.9998 23.9505 31.5801 23.9505 31.0623C23.9505 27.1567 27.1409 23.9792 31.0623 23.9792C31.5801 23.9792 31.9998 23.5596 31.9998 23.0417C31.9998 22.5239 31.5801 22.1042 31.0623 22.1042Z" fill="url(#paint0_radial_4930_3704)"/>
<path d="M12.8271 14.7744C10.0662 14.7744 7.81982 12.5447 7.81982 9.80371C7.81982 9.28613 7.40015 8.86621 6.88232 8.86621C6.3645 8.86621 5.94482 9.28613 5.94482 9.80371C5.94482 12.5447 3.69849 14.7744 0.9375 14.7744C0.419678 14.7744 0 15.1943 0 15.7119C0 16.2297 0.419678 16.6494 0.9375 16.6494C3.69849 16.6494 5.94482 18.8862 5.94482 21.6355C5.94482 22.1531 6.3645 22.573 6.88232 22.573C7.40015 22.573 7.81982 22.1531 7.81982 21.6355C7.81982 18.8862 10.0662 16.6494 12.8271 16.6494C13.345 16.6494 13.7646 16.2297 13.7646 15.7119C13.7646 15.1943 13.345 14.7744 12.8271 14.7744Z" fill="url(#paint1_radial_4930_3704)"/>
<path d="M14.3525 6.47852C16.383 6.47852 18.0351 8.11792 18.0351 10.1328C18.0351 10.6504 18.4548 11.0703 18.9726 11.0703C19.4904 11.0703 19.9101 10.6504 19.9101 10.1328C19.9101 8.11133 21.5622 6.4668 23.5927 6.4668C24.1106 6.4668 24.5302 6.04688 24.5302 5.5293C24.5302 5.01147 24.1106 4.5918 23.5927 4.5918C21.5622 4.5918 19.9101 2.95239 19.9101 0.9375C19.9101 0.419678 19.4904 0 18.9726 0C18.4548 0 18.0351 0.419678 18.0351 0.9375C18.0351 2.95898 16.383 4.60352 14.3525 4.60352C13.8347 4.60352 13.415 5.02319 13.415 5.54102C13.415 6.05884 13.8347 6.47852 14.3525 6.47852Z" fill="url(#paint2_radial_4930_3704)"/>
</g>
</g>
<defs>
<radialGradient id="paint0_radial_4930_3704" cx="0" cy="0" r="1" gradientUnits="userSpaceOnUse" gradientTransform="translate(23.0368 21.4238) rotate(0.155943) scale(8.96302 63.4528)">
<stop stop-color="#505050"/>
<stop offset="1" stop-color="#111111"/>
</radialGradient>
<radialGradient id="paint1_radial_4930_3704" cx="0" cy="0" r="1" gradientUnits="userSpaceOnUse" gradientTransform="translate(6.90065 14.4724) rotate(0.15597) scale(6.86397 48.6013)">
<stop stop-color="#505050"/>
<stop offset="1" stop-color="#111111"/>
</radialGradient>
<radialGradient id="paint2_radial_4930_3704" cx="0" cy="0" r="1" gradientUnits="userSpaceOnUse" gradientTransform="translate(18.9875 4.52785) rotate(0.155995) scale(5.5428 39.2529)">
<stop stop-color="#505050"/>
<stop offset="1" stop-color="#111111"/>
</radialGradient>
<clipPath id="clip0_4930_3704">
<rect width="32" height="32" fill="white"/>
</clipPath>
</defs>
</svg>
