<svg width="72" height="72" viewBox="0 0 72 72" fill="none" xmlns="http://www.w3.org/2000/svg">
<rect x="0.5" y="0.5" width="71" height="71" rx="23.5" fill="url(#paint0_radial_524_3915)"/>
<rect x="0.5" y="0.5" width="71" height="71" rx="23.5" stroke="#E0E0E0"/>
<g clip-path="url(#clip0_524_3915)">
<path d="M27.4331 30.2742C27.4331 34.6743 31.0036 38.2412 35.4079 38.2412C39.8122 38.2412 43.2233 34.4776 43.2233 30.0776C43.2233 25.6776 37.9137 18.5846 36.0474 16.2889C35.7247 15.892 35.114 15.9063 34.8101 16.3177C32.9569 18.8267 27.4331 26.6124 27.4331 30.2742ZM39.5628 27.5C39.5628 26.4856 41.0752 26.4441 41.127 27.4572C41.1343 27.5997 41.1381 30.3854 41.1381 30.5324C41.1381 30.6795 41.1344 30.8245 41.127 30.967C41.0752 31.9801 39.5628 31.9387 39.5628 30.9242V27.5Z" fill="white"/>
<path d="M54.5543 50.6738H17.4457C16.6473 50.6738 16 51.3205 16 52.1181C16 52.9158 16.6473 53.5624 17.4457 53.5624H54.5543C55.3527 53.5624 56 52.9158 56 52.1181C56 51.3205 55.3527 50.6738 54.5543 50.6738Z" fill="white"/>
<path d="M36.4763 50.7478L23.7 41.4946C23.2362 41.1587 23.1328 40.5107 23.469 40.0473C23.8053 39.5839 24.4538 39.4805 24.9178 39.8165L36.4588 48.1751C36.8262 48.4412 37.3241 48.4378 37.6879 48.1668L46.1654 41.8501C46.6246 41.5078 47.2746 41.6024 47.6171 42.0612C47.9597 42.5199 47.865 43.1693 47.4058 43.5115L37.7053 50.7394C37.3416 51.0105 36.8437 51.0138 36.4763 50.7477V50.7478Z" fill="white"/>
<path d="M48.9354 44.646L51.0071 39.8353C51.0918 39.6386 50.9317 39.4242 50.719 39.4493L45.5127 40.0616C45.2999 40.0866 45.1941 40.3323 45.3222 40.504L48.4567 44.7024C48.5848 44.874 48.8508 44.8426 48.9354 44.6461V44.646Z" fill="white"/>
</g>
<defs>
<radialGradient id="paint0_radial_524_3915" cx="0" cy="0" r="1" gradientUnits="userSpaceOnUse" gradientTransform="translate(36.096 29.4486) rotate(0.156628) scale(35.9041 255.296)">
<stop stop-color="#505050"/>
<stop offset="1" stop-color="#111111"/>
</radialGradient>
<clipPath id="clip0_524_3915">
<rect width="40" height="37.5621" fill="white" transform="translate(16 16)"/>
</clipPath>
</defs>
</svg>
