<svg width="20" height="20" viewBox="0 0 20 20" fill="none" xmlns="http://www.w3.org/2000/svg">
<g clip-path="url(#clip0_5023_3110)">
<path d="M11.7466 13.6459C11.7466 13.4325 11.7466 13.2192 11.7466 13.0059C11.7466 12.7992 11.8332 12.6659 12.0132 12.5659C13.1732 11.9259 14.3332 11.2859 15.4866 10.6459C15.6666 10.5459 15.8266 10.5392 15.9999 10.6459C17.1599 11.2925 18.3266 11.9392 19.4932 12.5792C19.6332 12.6592 19.7332 12.7659 19.7399 12.9325C19.8066 14.4125 19.5999 15.8325 18.8199 17.1259C18.1866 18.1725 17.3666 19.0125 16.2066 19.4859C15.8799 19.6192 15.5866 19.6125 15.2666 19.4859C14.0066 18.9659 13.1466 18.0325 12.5199 16.8592C11.9866 15.8592 11.7532 14.7792 11.7466 13.6525V13.6459ZM12.5332 13.7125C12.5532 14.8325 12.8066 15.8192 13.3399 16.7192C13.8732 17.6125 14.5599 18.3459 15.5532 18.7459C15.6999 18.8059 15.8266 18.7992 15.9666 18.7459C16.6466 18.4725 17.1932 18.0192 17.6532 17.4525C18.6466 16.2392 19.0199 14.8259 18.9666 13.2859C18.9666 13.1659 18.8866 13.1325 18.8132 13.0925C17.8466 12.5592 16.8799 12.0259 15.9199 11.4859C15.7999 11.4192 15.7066 11.4192 15.5866 11.4859C14.7399 11.9592 13.8932 12.4525 13.0266 12.8925C12.6266 13.0925 12.4066 13.3259 12.5332 13.7192V13.7125Z" fill="#BA0001"/>
<path d="M17.6932 13.9785C17.6932 14.0918 17.6465 14.1851 17.5665 14.2651C16.8398 14.9918 16.1132 15.7185 15.3865 16.4451C15.1865 16.6451 14.9865 16.6385 14.7865 16.4451C14.4998 16.1651 14.2132 15.8785 13.9332 15.5918C13.7532 15.4051 13.7465 15.1851 13.9132 15.0251C14.0732 14.8651 14.2932 14.8651 14.4798 15.0451C14.6265 15.1785 14.7732 15.3118 14.8998 15.4651C15.0332 15.6318 15.1198 15.6385 15.2798 15.4718C15.8132 14.9118 16.3732 14.3718 16.9198 13.8185C16.9798 13.7585 17.0398 13.6985 17.1065 13.6518C17.2332 13.5718 17.3665 13.5718 17.4932 13.6518C17.6265 13.7251 17.6865 13.8451 17.6865 13.9918L17.6932 13.9785Z" fill="#BA0001"/>
<path d="M8.33325 9.51268C8.21325 9.51935 8.12658 9.47935 8.03992 9.42601C5.53325 8.06602 3.02658 6.69935 0.519915 5.33935C0.359915 5.25268 0.246582 5.14602 0.246582 4.95268C0.246582 4.75935 0.366582 4.65268 0.519915 4.56602C3.01992 3.21935 5.50658 1.86602 7.99992 0.506016C8.21992 0.386016 8.39992 0.386016 8.61992 0.506016C11.0932 1.85935 13.5732 3.20602 16.0532 4.55268C16.2199 4.64602 16.3666 4.74602 16.3666 4.95935C16.3666 5.17268 16.2199 5.27268 16.0532 5.36602C13.5799 6.70602 11.1066 8.05268 8.63992 9.39935C8.53992 9.45268 8.44658 9.51935 8.33992 9.51268H8.33325Z" fill="#BA0001"/>
<path d="M8.30009 13.239C8.20675 13.2323 8.12675 13.1923 8.04675 13.1457C5.54008 11.7857 3.03342 10.419 0.533418 9.059C0.380085 8.97233 0.260085 8.87233 0.253418 8.679C0.253418 8.48567 0.366751 8.379 0.526751 8.29233C1.11342 7.97233 1.70675 7.659 2.28675 7.32567C2.42675 7.24567 2.51342 7.30567 2.62008 7.36567C4.30675 8.279 5.98675 9.19233 7.67342 10.1123C8.11342 10.3523 8.53342 10.3523 8.97342 10.1123C10.6468 9.199 12.3268 8.29233 14.0001 7.37233C14.1534 7.29233 14.2601 7.28567 14.4134 7.37233C14.9534 7.679 15.5068 7.97233 16.0534 8.26567C16.2201 8.359 16.3668 8.459 16.3734 8.67233C16.3734 8.89233 16.2268 8.99233 16.0601 9.08567C13.5734 10.439 11.0868 11.7857 8.60008 13.139C8.50675 13.1923 8.41342 13.239 8.30009 13.239Z" fill="#BA0001"/>
<path d="M10.9734 12.7662C10.9601 13.4262 10.9534 14.0928 11.0468 14.7462C11.0734 14.9328 11.1001 15.1262 11.1468 15.3062C11.1734 15.4128 11.1468 15.4728 11.0468 15.5262C10.2068 15.9728 9.37342 16.4262 8.54008 16.8862C8.37342 16.9728 8.22675 16.9662 8.06675 16.8795C5.54675 15.5062 3.02675 14.1395 0.506751 12.7728C0.353418 12.6928 0.253418 12.5795 0.253418 12.3995C0.253418 12.2128 0.360085 12.1128 0.506751 12.0262C1.09342 11.7062 1.68675 11.3928 2.26675 11.0595C2.39342 10.9862 2.48675 11.0195 2.60008 11.0795C4.24675 11.9728 5.89342 12.8595 7.52675 13.7662C8.06008 14.0662 8.54008 14.0928 9.07342 13.7728C9.62008 13.4462 10.1934 13.1528 10.7534 12.8528C10.8201 12.8195 10.8734 12.7595 10.9668 12.7662H10.9734Z" fill="#BA0001"/>
</g>
<defs>
<clipPath id="clip0_5023_3110">
<rect width="20" height="20" fill="white"/>
</clipPath>
</defs>
</svg>
