<svg width="33" height="32" viewBox="0 0 33 32" fill="none" xmlns="http://www.w3.org/2000/svg">
<g clip-path="url(#clip0_5139_7602)">
<path d="M25.2768 0C24.6396 0.33746 24.3867 0.744946 24.4908 1.26647C24.5875 1.74999 25.0072 2.11279 25.4936 2.1328C26.0034 2.15414 26.4431 1.82802 26.5779 1.32983C26.7047 0.859656 26.4825 0.360802 26.0401 0.122046C25.9634 0.0806969 25.8873 0.0406819 25.8106 0C25.6324 0 25.4549 0 25.2768 0Z" fill="url(#paint0_radial_5139_7602)"/>
<path d="M19.1406 22.9166C19.1406 20.3176 19.1406 17.7193 19.1406 15.1203C19.1406 14.274 18.7396 13.8672 17.9042 13.8672C14.4598 13.8672 11.0148 13.8672 7.57045 13.8672C6.75106 13.8672 6.33469 14.278 6.33403 15.087C6.33403 20.3176 6.33403 25.5489 6.33403 30.7795C6.33403 31.5892 6.75039 31.9993 7.57045 31.9993C11.0148 31.9993 14.4598 31.9993 17.9042 31.9993C18.7389 31.9993 19.14 31.5918 19.1406 30.7462C19.1406 28.1365 19.1406 25.5262 19.1406 22.9166ZM14.8715 22.9686C14.8715 21.0592 14.8709 19.1498 14.8729 17.2405C14.8729 17.0971 14.8729 16.949 14.9069 16.8116C15.041 16.2741 15.5528 15.9313 16.0866 16.0073C16.6318 16.0854 17.0054 16.5369 17.0054 17.1357C17.0074 20.9985 17.0067 24.862 17.0054 28.7248C17.0054 28.8348 17.0001 28.9482 16.9727 29.0542C16.8386 29.5791 16.3515 29.9179 15.825 29.8612C15.2766 29.8025 14.8749 29.3483 14.8735 28.7628C14.8695 26.8314 14.8722 24.9 14.8722 22.9686H14.8715Z" fill="url(#paint1_radial_5139_7602)"/>
<path d="M12.7371 12.8001C14.0709 12.8001 15.4047 12.7948 16.7386 12.8055C16.9588 12.8075 17.0202 12.7468 17.0108 12.5307C16.9935 12.1312 17.0075 11.7311 17.0055 11.3309C17.0035 10.8534 16.8173 10.6453 16.3402 10.6753C16.0026 10.6967 15.8865 10.6 15.9332 10.2645C15.9606 10.0684 15.9999 9.83301 15.9185 9.67428C15.8298 9.50155 15.5629 9.58225 15.3774 9.53156C14.4125 9.2688 13.7479 8.34312 13.8073 7.3234C13.8654 6.32636 14.6327 5.48471 15.6616 5.36C15.9873 5.32065 15.9559 5.20461 15.8785 4.98919C15.727 4.5637 15.354 4.27292 14.8956 4.27092C13.4617 4.26359 12.0278 4.26159 10.5938 4.27092C9.96796 4.27492 9.53758 4.7451 9.53624 5.39935C9.53291 7.05463 9.52957 8.70992 9.54158 10.3652C9.54358 10.6133 9.48553 10.6813 9.23398 10.674C8.61744 10.6567 8.46797 10.8187 8.46797 11.4309C8.46797 11.7977 8.48065 12.1645 8.4633 12.5307C8.45262 12.7468 8.51535 12.8075 8.73554 12.8055C10.0694 12.7948 11.4032 12.8001 12.7371 12.8001Z" fill="url(#paint2_radial_5139_7602)"/>
<path d="M22.359 4.26736C22.9535 4.25936 23.4259 3.76517 23.4092 3.16761C23.3932 2.5874 22.9095 2.12589 22.3256 2.13389C21.7311 2.14189 21.2587 2.63608 21.2754 3.23364C21.2914 3.81385 21.7751 4.27536 22.359 4.26736Z" fill="url(#paint3_radial_5139_7602)"/>
<path d="M24.477 5.33854C24.4796 5.93409 24.9687 6.41094 25.5659 6.3996C26.1471 6.38893 26.6135 5.91075 26.6108 5.32786C26.6082 4.73231 26.1191 4.25546 25.5219 4.2668C24.9407 4.27747 24.4743 4.75565 24.477 5.33854Z" fill="url(#paint4_radial_5139_7602)"/>
<path d="M18.0729 5.34461C18.0783 5.94017 18.57 6.41368 19.1679 6.40034C19.7484 6.38701 20.2128 5.90549 20.2075 5.32261C20.2021 4.72705 19.7104 4.25354 19.1125 4.26688C18.532 4.28021 18.0676 4.76173 18.0729 5.34461Z" fill="url(#paint5_radial_5139_7602)"/>
<path d="M21.2748 7.47232C21.2775 8.06788 21.7666 8.54473 22.3638 8.53339C22.9449 8.52272 23.4113 8.04454 23.4087 7.46165C23.406 6.8661 22.9169 6.38925 22.3197 6.40059C21.7385 6.41126 21.2721 6.88944 21.2748 7.47232Z" fill="url(#paint6_radial_5139_7602)"/>
<path d="M15.9558 8.53331C16.5503 8.52464 17.0227 8.02979 17.0054 7.4329C16.9887 6.85268 16.505 6.39184 15.9211 6.40051C15.3266 6.40918 14.8548 6.90403 14.8715 7.50092C14.8882 8.08114 15.372 8.54198 15.9558 8.53331Z" fill="url(#paint7_radial_5139_7602)"/>
<path d="M25.5218 8.5332C24.9406 8.54387 24.4742 9.02205 24.4769 9.60561C24.4795 10.2012 24.9686 10.678 25.5658 10.6667C26.1604 10.656 26.6301 10.1591 26.6108 9.56159C26.5921 8.98204 26.1056 8.5232 25.5218 8.53387V8.5332Z" fill="url(#paint8_radial_5139_7602)"/>
<path d="M18.0733 9.61737C18.082 10.2123 18.5765 10.6831 19.175 10.6664C19.7548 10.6498 20.2166 10.1656 20.2079 9.58269C20.1992 8.9878 19.7048 8.51696 19.1063 8.53363C18.5257 8.55031 18.0647 9.03382 18.0733 9.61737Z" fill="url(#paint9_radial_5139_7602)"/>
<path d="M21.2746 11.744C21.2799 12.3396 21.7717 12.8131 22.3696 12.7998C22.9501 12.7864 23.4145 12.3049 23.4091 11.722C23.4038 11.1265 22.912 10.653 22.3142 10.6663C21.7337 10.6796 21.2693 11.1605 21.2746 11.744Z" fill="url(#paint10_radial_5139_7602)"/>
<path d="M25.5608 14.9334C26.1553 14.9247 26.6277 14.4305 26.6104 13.833C26.5937 13.2527 26.1099 12.7919 25.5261 12.7999C24.9316 12.8086 24.4592 13.3028 24.4765 13.9003C24.4932 14.4805 24.9769 14.9414 25.5608 14.9334Z" fill="url(#paint11_radial_5139_7602)"/>
</g>
<defs>
<radialGradient id="paint0_radial_5139_7602" cx="0" cy="0" r="1" gradientUnits="userSpaceOnUse" gradientTransform="translate(25.5378 0.872738) rotate(179.844) scale(1.06975 7.56594)">
<stop stop-color="#505050"/>
<stop offset="1" stop-color="#111111"/>
</radialGradient>
<radialGradient id="paint1_radial_5139_7602" cx="0" cy="0" r="1" gradientUnits="userSpaceOnUse" gradientTransform="translate(12.7203 21.2834) rotate(179.778) scale(6.38627 64.2923)">
<stop stop-color="#505050"/>
<stop offset="1" stop-color="#111111"/>
</radialGradient>
<radialGradient id="paint2_radial_5139_7602" cx="0" cy="0" r="1" gradientUnits="userSpaceOnUse" gradientTransform="translate(12.7255 7.75793) rotate(179.844) scale(4.26339 30.284)">
<stop stop-color="#505050"/>
<stop offset="1" stop-color="#111111"/>
</radialGradient>
<radialGradient id="paint3_radial_5139_7602" cx="0" cy="0" r="1" gradientUnits="userSpaceOnUse" gradientTransform="translate(22.3395 3.00648) rotate(179.843) scale(1.06452 7.56553)">
<stop stop-color="#505050"/>
<stop offset="1" stop-color="#111111"/>
</radialGradient>
<radialGradient id="paint4_radial_5139_7602" cx="0" cy="0" r="1" gradientUnits="userSpaceOnUse" gradientTransform="translate(25.541 5.1391) rotate(179.843) scale(1.06411 7.56385)">
<stop stop-color="#505050"/>
<stop offset="1" stop-color="#111111"/>
</radialGradient>
<radialGradient id="paint5_radial_5139_7602" cx="0" cy="0" r="1" gradientUnits="userSpaceOnUse" gradientTransform="translate(19.1374 5.13943) rotate(179.843) scale(1.06448 7.56676)">
<stop stop-color="#505050"/>
<stop offset="1" stop-color="#111111"/>
</radialGradient>
<radialGradient id="paint6_radial_5139_7602" cx="0" cy="0" r="1" gradientUnits="userSpaceOnUse" gradientTransform="translate(22.3389 7.27289) rotate(179.843) scale(1.06411 7.56384)">
<stop stop-color="#505050"/>
<stop offset="1" stop-color="#111111"/>
</radialGradient>
<radialGradient id="paint7_radial_5139_7602" cx="0" cy="0" r="1" gradientUnits="userSpaceOnUse" gradientTransform="translate(15.9356 7.27282) rotate(179.843) scale(1.06454 7.56329)">
<stop stop-color="#505050"/>
<stop offset="1" stop-color="#111111"/>
</radialGradient>
<radialGradient id="paint8_radial_5139_7602" cx="0" cy="0" r="1" gradientUnits="userSpaceOnUse" gradientTransform="translate(25.5412 9.40589) rotate(179.843) scale(1.06439 7.56551)">
<stop stop-color="#505050"/>
<stop offset="1" stop-color="#111111"/>
</radialGradient>
<radialGradient id="paint9_radial_5139_7602" cx="0" cy="0" r="1" gradientUnits="userSpaceOnUse" gradientTransform="translate(19.1378 9.40589) rotate(179.843) scale(1.06455 7.56549)">
<stop stop-color="#505050"/>
<stop offset="1" stop-color="#111111"/>
</radialGradient>
<radialGradient id="paint10_radial_5139_7602" cx="0" cy="0" r="1" gradientUnits="userSpaceOnUse" gradientTransform="translate(22.339 11.5388) rotate(179.843) scale(1.06448 7.56675)">
<stop stop-color="#505050"/>
<stop offset="1" stop-color="#111111"/>
</radialGradient>
<radialGradient id="paint11_radial_5139_7602" cx="0" cy="0" r="1" gradientUnits="userSpaceOnUse" gradientTransform="translate(25.5406 13.6725) rotate(179.843) scale(1.06456 7.56553)">
<stop stop-color="#505050"/>
<stop offset="1" stop-color="#111111"/>
</radialGradient>
<clipPath id="clip0_5139_7602">
<rect width="20.2798" height="32" fill="white" transform="matrix(-1 0 0 1 26.6133 0)"/>
</clipPath>
</defs>
</svg>
