<svg width="74" height="72" viewBox="0 0 74 72" fill="none" xmlns="http://www.w3.org/2000/svg">
<rect x="0.5" width="73" height="72" rx="24" fill="url(#paint0_radial_524_3924)"/>
<g clip-path="url(#clip0_524_3924)">
<path d="M41.687 25.265C41.3072 21.3442 37.2775 16 37.2775 16C37.2775 16 33.2478 21.3442 32.8672 25.265C32.5946 28.0741 34.3802 30.9692 37.2775 30.9692C40.1749 30.9692 41.9595 28.0741 41.687 25.265ZM36.2317 23.3577C35.8254 24.2788 35.594 25.0771 35.5425 25.7286C35.486 26.4531 35.678 27.1995 36.068 27.7737C36.2214 27.9994 36.1674 28.3094 35.9471 28.4657C35.8623 28.5263 35.7663 28.5553 35.6703 28.5553C35.5168 28.5553 35.3659 28.4806 35.2717 28.3419C34.7548 27.5814 34.501 26.5997 34.5756 25.6496C34.6356 24.883 34.8945 23.9741 35.3462 22.9485C35.4568 22.6982 35.744 22.5876 35.9883 22.7C36.2326 22.8133 36.3414 23.1074 36.2317 23.3577Z" fill="white"/>
<path d="M42.2024 42.0629C42.0121 42.0629 41.8209 41.9979 41.6641 41.868L31.2302 33.2493C30.8616 32.9446 30.8042 32.3922 31.1008 32.0146C31.3982 31.6371 31.9374 31.5782 32.306 31.8821L42.2118 40.0652L54.2007 30.5473C54.5753 30.2505 55.1136 30.3199 55.4033 30.7036C55.6931 31.0874 55.6253 31.6388 55.2507 31.9356L42.7262 41.8785C42.5719 42.0014 42.3858 42.0629 42.2015 42.0629H42.2024Z" fill="white"/>
<path d="M53.5031 35.533C53.4045 35.533 53.3051 35.5154 53.2074 35.4785C52.7633 35.3108 52.5353 34.8068 52.6982 34.351L53.474 32.1874L51.2264 32.3059C50.7532 32.3323 50.3503 31.9582 50.3263 31.4743C50.3023 30.9896 50.6658 30.5769 51.1381 30.5523L54.6818 30.3644C54.9689 30.3495 55.2449 30.483 55.4164 30.72C55.587 30.9571 55.6307 31.2671 55.5313 31.5437L54.3072 34.9561C54.1794 35.3117 53.852 35.5312 53.5023 35.5312L53.5031 35.533Z" fill="white"/>
<path d="M32.229 42.0648C32.0438 42.0648 31.8587 42.0034 31.7044 41.8804L19.1789 31.9376C18.8043 31.6408 18.7366 31.0893 19.0263 30.7056C19.3161 30.3218 19.8552 30.2525 20.229 30.5493L32.2178 40.0671L33.6091 38.9177C33.9777 38.613 34.5177 38.6727 34.8143 39.0503C35.1117 39.4279 35.0534 39.9802 34.6849 40.2849L32.7656 41.8699C32.6087 41.9999 32.4184 42.0648 32.2273 42.0648H32.229Z" fill="white"/>
<path d="M40.1356 35.5336C39.8853 35.5336 39.6376 35.4221 39.4678 35.2069C39.1704 34.8293 39.2287 34.277 39.5973 33.9723L42.1243 31.8842C42.4929 31.5794 43.0321 31.6392 43.3295 32.0159C43.627 32.3935 43.5687 32.9458 43.2001 33.2505L40.6731 35.3386C40.5145 35.4695 40.3242 35.5336 40.1356 35.5336Z" fill="white"/>
<path d="M20.9284 35.5332C20.5795 35.5332 20.2512 35.3128 20.1235 34.958L18.8994 31.5457C18.8 31.2691 18.8428 30.9591 19.0143 30.722C19.1848 30.4849 19.4609 30.3514 19.7489 30.3664L23.2926 30.5543C23.7657 30.5797 24.1292 30.9925 24.1043 31.4763C24.0795 31.9601 23.6774 32.3351 23.2043 32.3079L20.9567 32.1893L21.7324 34.353C21.8953 34.8079 21.6682 35.3128 21.2233 35.4805C21.1255 35.5174 21.0261 35.5349 20.9275 35.5349L20.9284 35.5332Z" fill="white"/>
<path d="M56.6428 44.9769H17.3572C16.884 44.9769 16.5 44.5835 16.5 44.0988C16.5 43.6141 16.884 43.2207 17.3572 43.2207H56.6428C57.116 43.2207 57.5 43.6141 57.5 44.0988C57.5 44.5835 57.116 44.9769 56.6428 44.9769Z" fill="white"/>
<path d="M56.6428 48.3168H17.3572C16.884 48.3168 16.5 47.9234 16.5 47.4387C16.5 46.9539 16.884 46.5605 17.3572 46.5605H56.6428C57.116 46.5605 57.5 46.9539 57.5 47.4387C57.5 47.9234 57.116 48.3168 56.6428 48.3168Z" fill="white"/>
<path d="M56.6428 52.0004H17.3572C16.884 52.0004 16.5 51.607 16.5 51.1223C16.5 50.6375 16.884 50.2441 17.3572 50.2441H56.6428C57.116 50.2441 57.5 50.6375 57.5 51.1223C57.5 51.607 57.116 52.0004 56.6428 52.0004Z" fill="white"/>
<path d="M27.305 52.0009C26.8318 52.0009 26.4478 51.6075 26.4478 51.1228V50.0734C26.4478 49.5887 26.8318 49.1953 27.305 49.1953C27.7781 49.1953 28.1622 49.5887 28.1622 50.0734V51.1228C28.1622 51.6075 27.7781 52.0009 27.305 52.0009Z" fill="white"/>
<path d="M33.7683 52.0009C33.2952 52.0009 32.9111 51.6075 32.9111 51.1228V50.0734C32.9111 49.5887 33.2952 49.1953 33.7683 49.1953C34.2415 49.1953 34.6255 49.5887 34.6255 50.0734V51.1228C34.6255 51.6075 34.2415 52.0009 33.7683 52.0009Z" fill="white"/>
<path d="M40.2317 52.0009C39.7585 52.0009 39.3745 51.6075 39.3745 51.1228V50.0734C39.3745 49.5887 39.7585 49.1953 40.2317 49.1953C40.7049 49.1953 41.0889 49.5887 41.0889 50.0734V51.1228C41.0889 51.6075 40.7049 52.0009 40.2317 52.0009Z" fill="white"/>
<path d="M46.6946 52.0009C46.2214 52.0009 45.8374 51.6075 45.8374 51.1228V50.0734C45.8374 49.5887 46.2214 49.1953 46.6946 49.1953C47.1678 49.1953 47.5518 49.5887 47.5518 50.0734V51.1228C47.5518 51.6075 47.1678 52.0009 46.6946 52.0009Z" fill="white"/>
<path d="M53.158 52.0009C52.6848 52.0009 52.3008 51.6075 52.3008 51.1228V50.0734C52.3008 49.5887 52.6848 49.1953 53.158 49.1953C53.6312 49.1953 54.0152 49.5887 54.0152 50.0734V51.1228C54.0152 51.6075 53.6312 52.0009 53.158 52.0009Z" fill="white"/>
<path d="M20.8416 52.0009C20.3684 52.0009 19.9844 51.6075 19.9844 51.1228V50.0734C19.9844 49.5887 20.3684 49.1953 20.8416 49.1953C21.3148 49.1953 21.6988 49.5887 21.6988 50.0734V51.1228C21.6988 51.6075 21.3148 52.0009 20.8416 52.0009Z" fill="white"/>
<path d="M24.0735 49.3661C23.6003 49.3661 23.2163 48.9727 23.2163 48.488V47.4387C23.2163 46.9539 23.6003 46.5605 24.0735 46.5605C24.5467 46.5605 24.9307 46.9539 24.9307 47.4387V48.488C24.9307 48.9727 24.5467 49.3661 24.0735 49.3661Z" fill="white"/>
<path d="M30.5369 49.3661C30.0637 49.3661 29.6797 48.9727 29.6797 48.488V47.4387C29.6797 46.9539 30.0637 46.5605 30.5369 46.5605C31.0101 46.5605 31.3941 46.9539 31.3941 47.4387V48.488C31.3941 48.9727 31.0101 49.3661 30.5369 49.3661Z" fill="white"/>
<path d="M37.0003 49.3661C36.5271 49.3661 36.1431 48.9727 36.1431 48.488V47.4387C36.1431 46.9539 36.5271 46.5605 37.0003 46.5605C37.4734 46.5605 37.8575 46.9539 37.8575 47.4387V48.488C37.8575 48.9727 37.4734 49.3661 37.0003 49.3661Z" fill="white"/>
<path d="M43.4636 49.3661C42.9905 49.3661 42.6064 48.9727 42.6064 48.488V47.4387C42.6064 46.9539 42.9905 46.5605 43.4636 46.5605C43.9368 46.5605 44.3209 46.9539 44.3209 47.4387V48.488C44.3209 48.9727 43.9368 49.3661 43.4636 49.3661Z" fill="white"/>
<path d="M49.9265 49.3661C49.4534 49.3661 49.0693 48.9727 49.0693 48.488V47.4387C49.0693 46.9539 49.4534 46.5605 49.9265 46.5605C50.3997 46.5605 50.7837 46.9539 50.7837 47.4387V48.488C50.7837 48.9727 50.3997 49.3661 49.9265 49.3661Z" fill="white"/>
</g>
<defs>
<radialGradient id="paint0_radial_524_3924" cx="0" cy="0" r="1" gradientUnits="userSpaceOnUse" gradientTransform="translate(37.0973 29.4486) rotate(0.154482) scale(36.4028 255.296)">
<stop stop-color="#505050"/>
<stop offset="1" stop-color="#111111"/>
</radialGradient>
<clipPath id="clip0_524_3924">
<rect width="41" height="36" fill="white" transform="translate(16.5 16)"/>
</clipPath>
</defs>
</svg>
