<svg width="20" height="20" viewBox="0 0 20 20" fill="none" xmlns="http://www.w3.org/2000/svg">
<path d="M19.8732 9.76603C19.8532 9.82603 19.8332 9.88603 19.8132 9.94603C19.6532 10.4594 19.2199 10.8127 18.6799 10.8527C18.3732 10.8727 18.0666 10.866 17.7532 10.866C16.7732 10.866 15.7866 10.866 14.8066 10.866C14.7399 10.866 14.6666 10.846 14.5866 10.8927C14.6732 10.926 14.7466 10.9594 14.8199 10.9927C15.3532 11.2527 15.6466 11.8394 15.5199 12.4194C15.3932 13.0127 14.8999 13.4394 14.2932 13.4594C14.1199 13.4594 13.9399 13.4594 13.7199 13.4594C14.4799 13.766 14.8266 14.2394 14.7732 14.866C14.7332 15.286 14.5332 15.6194 14.1799 15.8527C13.8399 16.086 13.4399 16.0594 13.0532 16.0994C13.1199 16.126 13.1932 16.1594 13.2599 16.186C13.8066 16.446 14.0999 17.0327 13.9799 17.6194C13.8532 18.2127 13.3532 18.6527 12.7532 18.6527C11.0066 18.6594 9.25989 18.6727 7.51322 18.6527C6.60656 18.6394 5.86656 18.2194 5.33322 17.486C5.13322 17.206 4.92656 17.066 4.57989 17.1194C4.41989 17.146 4.25989 17.1194 4.09989 17.1194C4.01989 17.1194 3.97989 17.0994 3.98656 17.0127C3.98656 16.9727 3.98656 16.9327 3.98656 16.8994C3.98656 14.0927 3.98656 11.286 3.98656 8.47936C3.98656 8.28603 4.03989 8.2527 4.21989 8.2527C4.83989 8.2527 5.46656 8.29936 6.08656 8.22603C7.59322 8.04603 8.78656 6.99936 9.19322 5.52603C9.29989 5.13936 9.39322 4.75936 9.50656 4.3727C9.70656 3.64603 10.3932 3.23936 11.0999 3.42603C11.8066 3.6127 12.2066 4.29936 12.0199 5.02603C11.8132 5.82603 11.5932 6.62603 11.3799 7.42603C11.2466 7.92603 11.4866 8.2527 12.0066 8.2527C14.0932 8.2527 16.1799 8.2527 18.2732 8.2527C19.2332 8.2527 19.5399 8.45936 19.8799 9.3327V9.75936L19.8732 9.76603Z" fill="#BA0001"/>
<path d="M0.133301 12.6741C0.133301 11.0474 0.133301 9.42742 0.133301 7.80076C0.133301 7.32076 0.346634 7.10742 0.826634 7.10742C1.27997 7.10742 1.73997 7.10742 2.1933 7.10742C2.5933 7.10742 2.8333 7.34076 2.8333 7.74076C2.8333 11.0474 2.8333 14.3541 2.8333 17.6608C2.8333 18.0474 2.5933 18.2874 2.2133 18.2874C1.7333 18.2874 1.2533 18.2874 0.766634 18.2874C0.373301 18.2874 0.139967 18.0474 0.133301 17.6474C0.133301 15.9874 0.133301 14.3341 0.133301 12.6741Z" fill="#BA0001"/>
<path d="M17.7068 3.20709C17.7001 3.38042 17.6401 3.52709 17.5201 3.64042C17.0735 4.08709 16.6335 4.53375 16.1801 4.97375C15.9335 5.21375 15.5735 5.20709 15.3468 4.98042C15.1201 4.75375 15.1268 4.39375 15.3668 4.14709C15.8068 3.70042 16.2534 3.25375 16.7001 2.81375C16.8934 2.62709 17.1268 2.58042 17.3535 2.68709C17.5735 2.78709 17.6735 2.96709 17.6935 3.20042L17.7068 3.20709Z" fill="#BA0001"/>
<path d="M13.8534 4.33359C13.4934 4.33359 13.2068 4.00025 13.2934 3.64692C13.4534 3.00692 13.6268 2.36692 13.8068 1.73359C13.8934 1.42692 14.2068 1.26025 14.5001 1.34025C14.8068 1.42692 14.9934 1.72692 14.9134 2.04025C14.7534 2.66025 14.5868 3.28025 14.4201 3.89359C14.3401 4.17359 14.1268 4.32692 13.8534 4.32692V4.33359Z" fill="#BA0001"/>
<path d="M18.4401 5.41406C18.7201 5.41406 18.9601 5.62073 19.0134 5.89406C19.0601 6.15406 18.9134 6.4474 18.6534 6.5274C17.9934 6.72073 17.3334 6.90073 16.6668 7.06073C16.3934 7.1274 16.1068 6.9274 16.0268 6.66073C15.9468 6.3874 16.0668 6.06073 16.3468 5.97406C17.0268 5.7674 17.7201 5.60073 18.4068 5.41406C18.4201 5.41406 18.4334 5.41406 18.4468 5.41406H18.4401Z" fill="#BA0001"/>
</svg>
