<svg width="33" height="32" viewBox="0 0 33 32" fill="none" xmlns="http://www.w3.org/2000/svg">
<g clip-path="url(#clip0_4930_3712)">
<path d="M22.4925 17.9043H6.5812C4.73546 17.9043 3.2334 19.4063 3.2334 21.2526V24.7439C3.2334 26.3903 4.43093 27.7554 5.99904 28.0328C5.93521 27.8802 5.89886 27.7133 5.89886 27.5378C5.89886 26.8279 6.47659 26.2506 7.18662 26.2506C7.89665 26.2506 8.47388 26.8279 8.47388 27.5378C8.47388 27.7384 8.41885 27.9222 8.33678 28.0917H22.4925C24.3388 28.0917 25.8408 26.5897 25.8408 24.7439V21.2526C25.8408 19.4064 24.3388 17.9043 22.4925 17.9043ZM6.08361 23.0993C5.34317 23.0993 4.74054 22.4967 4.74054 21.7562C4.74054 21.0157 5.3431 20.4136 6.08361 20.4136C6.82413 20.4136 7.42668 21.0158 7.42668 21.7562C7.42668 22.4966 6.82406 23.0993 6.08361 23.0993ZM9.85208 25.7193H9.83612C9.55613 25.7193 9.2926 25.6124 9.09146 25.4168C8.88653 25.218 8.77161 24.9512 8.76739 24.6651C8.76317 24.3799 8.87057 24.1098 9.06985 23.9049C9.2687 23.7 9.53553 23.5851 9.8211 23.5808C10.1114 23.5804 10.3764 23.684 10.5813 23.8833C10.7862 24.0821 10.9011 24.349 10.9054 24.6345C10.9138 25.2235 10.4411 25.7103 9.85208 25.7192V25.7193Z" fill="url(#paint0_radial_4930_3712)"/>
<path d="M30.0995 3.9073L27.5769 6.84302C26.0584 8.34551 24.3177 9.49911 22.3749 10.3001C20.1825 11.2042 17.9616 12.0103 15.7749 12.6964C13.1793 13.5104 10.164 14.0727 7.74143 14.5243C5.88911 14.8695 3.8023 15.2586 3.32861 15.5536C3.33892 15.7393 3.40503 15.977 3.6222 16.2087C3.95185 16.5609 4.70124 16.9802 6.40115 16.9802C7.23261 16.9802 8.05841 16.9853 8.99491 16.9905C10.2151 16.9975 11.5943 17.0056 13.3875 17.0058C12.9253 16.6229 12.6419 16.1746 12.6208 15.7412C12.5954 15.2272 12.9214 14.6453 13.9118 14.552C15.7285 14.3813 19.4046 13.4724 19.4412 13.4631C19.6973 13.3993 15.8894 15.3308 14.0018 15.5082C13.984 15.51 13.5727 15.5504 13.5798 15.6943C13.5987 16.0834 14.5578 16.9488 16.291 17.0001C17.2973 16.996 18.4069 16.9898 19.6532 16.9802C26.7755 16.9244 28.1585 12.0745 28.1716 12.0258C28.1973 11.9301 28.2518 11.8447 28.3277 11.781L30.0997 10.2748V3.90723L30.0995 3.9073Z" fill="url(#paint1_radial_4930_3712)"/>
</g>
<defs>
<radialGradient id="paint0_radial_4930_3712" cx="0" cy="0" r="1" gradientUnits="userSpaceOnUse" gradientTransform="translate(14.5672 22.071) rotate(0.0705799) scale(11.2736 36.1223)">
<stop stop-color="#505050"/>
<stop offset="1" stop-color="#111111"/>
</radialGradient>
<radialGradient id="paint1_radial_4930_3712" cx="0" cy="0" r="1" gradientUnits="userSpaceOnUse" gradientTransform="translate(16.7498 9.26468) rotate(0.0766354) scale(13.3498 46.445)">
<stop stop-color="#505050"/>
<stop offset="1" stop-color="#111111"/>
</radialGradient>
<clipPath id="clip0_4930_3712">
<rect width="32" height="32" fill="white" transform="translate(0.666504)"/>
</clipPath>
</defs>
</svg>
