<svg width="57" height="56" viewBox="0 0 57 56" fill="none" xmlns="http://www.w3.org/2000/svg">
<rect x="0.666016" y="0.000488281" width="56" height="56" rx="10" fill="white"/>
<g clip-path="url(#clip0_5050_6760)">
<path d="M12.999 43.5286V41.7192H44.999V43.5286H12.999Z" fill="url(#paint0_radial_5050_6760)"/>
<path d="M40.5967 26.1093C39.2757 27.0897 37.4777 26.8664 36.3346 25.5794C35.1498 24.247 34.794 22.6875 35.3164 20.9728C35.9864 18.7736 37.1295 16.794 38.2802 14.8181C38.424 14.5721 38.5792 14.3298 38.7836 14.0005C40.222 16.5139 41.8155 18.872 42.3644 21.6806C42.7126 23.4521 42.0805 25.0078 40.5967 26.1093Z" fill="url(#paint1_radial_5050_6760)"/>
<path d="M20.9401 39.3424C19.9408 38.9336 18.9453 38.4566 17.9082 38.1311C17.435 37.9835 16.8521 38.0554 16.3525 38.1614C15.5311 38.3393 14.7967 38.0365 14.4069 37.2378C14.0397 36.4845 14.2365 35.6783 14.9406 35.2014C15.8112 34.6184 16.7083 34.6639 17.5902 35.1786C18.722 35.8411 19.4677 36.8668 20.149 37.9456C20.448 38.415 20.7016 38.9146 20.9401 39.3424Z" fill="url(#paint2_radial_5050_6760)"/>
<path d="M39.7752 35.8184C39.5216 35.9849 39.1204 36.1136 38.8554 36.0341C37.9243 35.7616 37.0878 35.9811 36.2664 36.3596C35.8197 36.564 35.3958 36.8177 34.8545 37.1091C35.4904 35.8524 36.1452 34.7699 37.137 33.9371C37.7615 33.411 38.4656 33.0779 39.3059 33.3466C39.8547 33.5208 40.2787 33.8463 40.3847 34.4519C40.4869 35.0348 40.237 35.5118 39.7752 35.8184Z" fill="url(#paint3_radial_5050_6760)"/>
<path d="M16.8298 33.0779C16.2696 32.4231 15.5466 32.0975 14.7403 31.8969C14.2445 31.772 14.006 31.1058 14.1574 30.5305C14.3013 29.9703 14.8425 29.6182 15.4444 29.7167C16.156 29.834 16.6519 30.2428 16.9055 30.9241C17.1364 31.5411 17.1061 32.4041 16.8298 33.0779Z" fill="url(#paint4_radial_5050_6760)"/>
<path d="M33.5485 36.5642C32.8445 38.1388 31.7733 39.3804 30.1835 40.0995C27.954 41.1102 25.3877 40.5235 23.6995 38.5325C21.7728 36.2576 21.2202 33.642 22.0718 30.7653C22.897 27.9794 24.2332 25.4206 25.6223 22.8883C26.2772 21.696 26.985 20.5301 27.6701 19.3567C27.761 19.2053 27.8594 19.0577 27.9956 18.8457C28.4991 19.6822 28.9722 20.4506 29.4227 21.2304C31.0011 23.986 32.4887 26.787 33.6053 29.7735C34.4532 32.0522 34.5592 34.312 33.5485 36.5642Z" fill="url(#paint5_radial_5050_6760)"/>
</g>
<defs>
<radialGradient id="paint0_radial_5050_6760" cx="0" cy="0" r="1" gradientUnits="userSpaceOnUse" gradientTransform="translate(29.0417 42.4593) scale(15.9573 6.41548)">
<stop stop-color="#505050"/>
<stop offset="1" stop-color="#111111"/>
</radialGradient>
<radialGradient id="paint1_radial_5050_6760" cx="0" cy="0" r="1" gradientUnits="userSpaceOnUse" gradientTransform="translate(38.7798 19.2021) rotate(0.270056) scale(3.67815 45.0931)">
<stop stop-color="#505050"/>
<stop offset="1" stop-color="#111111"/>
</radialGradient>
<radialGradient id="paint2_radial_5050_6760" cx="0" cy="0" r="1" gradientUnits="userSpaceOnUse" gradientTransform="translate(17.5918 36.6451) rotate(0.106464) scale(3.34831 16.1831)">
<stop stop-color="#505050"/>
<stop offset="1" stop-color="#111111"/>
</radialGradient>
<radialGradient id="paint3_radial_5050_6760" cx="0" cy="0" r="1" gradientUnits="userSpaceOnUse" gradientTransform="translate(37.6383 34.8293) rotate(0.108811) scale(2.76903 13.6784)">
<stop stop-color="#505050"/>
<stop offset="1" stop-color="#111111"/>
</radialGradient>
<radialGradient id="paint4_radial_5050_6760" cx="0" cy="0" r="1" gradientUnits="userSpaceOnUse" gradientTransform="translate(15.59 31.0817) rotate(0.179482) scale(1.46988 11.9766)">
<stop stop-color="#505050"/>
<stop offset="1" stop-color="#111111"/>
</radialGradient>
<radialGradient id="paint5_radial_5050_6760" cx="0" cy="0" r="1" gradientUnits="userSpaceOnUse" gradientTransform="translate(27.9956 27.7374) rotate(0.270446) scale(6.27848 77.0837)">
<stop stop-color="#505050"/>
<stop offset="1" stop-color="#111111"/>
</radialGradient>
<clipPath id="clip0_5050_6760">
<rect width="32" height="29.5283" fill="white" transform="translate(12.999 14.0005)"/>
</clipPath>
</defs>
</svg>
