<svg width="57" height="56" viewBox="0 0 57 56" fill="none" xmlns="http://www.w3.org/2000/svg">
<rect x="0.333984" y="0.000488281" width="56" height="56" rx="10" fill="white"/>
<g clip-path="url(#clip0_5050_6770)">
<path d="M34.6857 28.946C34.2316 28.6195 33.9604 28.3039 33.8689 27.689C33.5926 25.8405 33.3059 23.9848 32.8621 22.1763C32.3716 20.1719 31.9623 18.0695 31.0522 16.2718C29.5083 13.2243 25.7142 13.2769 24.0028 16.2283C23.502 17.0899 23.1186 18.0767 22.9027 19.0617C22.2637 21.9713 21.7491 24.9136 21.1464 27.8341C21.0721 28.1896 20.8217 28.5923 20.5385 28.7991C19.542 29.5301 18.7563 30.4081 18.3504 31.6325C17.1882 35.139 19.0067 37.4735 22.4761 37.0019C22.9994 36.9312 23.6021 37.1597 24.1081 37.3937C24.6262 37.6332 25.0683 38.0504 25.5484 38.3823C26.8626 39.2948 28.1993 39.3329 29.4997 38.3932C30.7949 37.4554 32.0331 36.3888 33.4821 37.1325C35.494 37.1543 36.5958 36.2165 36.8997 34.4279C37.2952 32.1005 36.5232 30.2666 34.6857 28.946ZM24.9889 22.6897L24.0252 30.5532C23.9838 30.8979 23.6833 31.1428 23.3552 31.0974C23.027 31.0539 22.7956 30.7383 22.8371 30.3936L23.8007 22.5282C23.8422 22.1836 24.1427 21.9405 24.4708 21.9858C24.773 22.0257 24.9941 22.2978 24.9941 22.6098C24.9941 22.6352 24.9941 22.6624 24.9889 22.6897Z" fill="url(#paint0_radial_5050_6770)"/>
<path d="M23.838 39.2517C23.9192 38.9147 23.725 38.5724 23.4042 38.487C23.0833 38.4017 22.7574 38.6057 22.6761 38.9427L21.9839 41.8143C21.9026 42.1513 22.0968 42.4937 22.4177 42.579C22.7385 42.6643 23.0645 42.4603 23.1457 42.1233L23.838 39.2517Z" fill="url(#paint1_radial_5050_6770)"/>
<path d="M21.6328 38.6116C21.7983 38.3105 21.7001 37.9256 21.4135 37.7517C21.1269 37.5779 20.7604 37.6811 20.5949 37.9821L19.1848 40.5475C19.0194 40.8485 19.1176 41.2335 19.4042 41.4073C19.6908 41.5811 20.0573 41.478 20.2228 41.1769L21.6328 38.6116Z" fill="url(#paint2_radial_5050_6770)"/>
<path d="M30.6618 42.5245C30.743 42.8615 31.069 43.0655 31.3898 42.9802C31.7106 42.8949 31.9048 42.5525 31.8236 42.2155L31.1313 39.3439C31.0501 39.0069 30.7241 38.8029 30.4033 38.8882C30.0825 38.9736 29.8882 39.3159 29.9695 39.6529L30.6618 42.5245Z" fill="url(#paint3_radial_5050_6770)"/>
<path d="M33.5853 41.576C33.7508 41.8771 34.1173 41.9802 34.4039 41.8064C34.6905 41.6326 34.7887 41.2476 34.6232 40.9466L33.2132 38.3812C33.0477 38.0802 32.6812 37.977 32.3946 38.1508C32.1079 38.3246 32.0097 38.7096 32.1752 39.0107L33.5853 41.576Z" fill="url(#paint4_radial_5050_6770)"/>
</g>
<defs>
<radialGradient id="paint0_radial_5050_6770" cx="0" cy="0" r="1" gradientUnits="userSpaceOnUse" gradientTransform="translate(27.5257 24.2592) rotate(0.206756) scale(9.47507 88.9348)">
<stop stop-color="#505050"/>
<stop offset="1" stop-color="#111111"/>
</radialGradient>
<radialGradient id="paint1_radial_5050_6770" cx="0" cy="0" r="1" gradientUnits="userSpaceOnUse" gradientTransform="translate(23.0022 40.1611) rotate(15.443) scale(0.599676 14.9168)">
<stop stop-color="#505050"/>
<stop offset="1" stop-color="#111111"/>
</radialGradient>
<radialGradient id="paint2_radial_5050_6770" cx="0" cy="0" r="1" gradientUnits="userSpaceOnUse" gradientTransform="translate(20.5931 39.2477) rotate(31.7719) scale(0.605594 14.771)">
<stop stop-color="#505050"/>
<stop offset="1" stop-color="#111111"/>
</radialGradient>
<radialGradient id="paint3_radial_5050_6770" cx="0" cy="0" r="1" gradientUnits="userSpaceOnUse" gradientTransform="translate(30.9848 41.307) rotate(165.653) scale(0.599408 14.9235)">
<stop stop-color="#505050"/>
<stop offset="1" stop-color="#111111"/>
</radialGradient>
<radialGradient id="paint4_radial_5050_6770" cx="0" cy="0" r="1" gradientUnits="userSpaceOnUse" gradientTransform="translate(33.5807 40.3121) rotate(149.304) scale(0.60511 14.7829)">
<stop stop-color="#505050"/>
<stop offset="1" stop-color="#111111"/>
</radialGradient>
<clipPath id="clip0_5050_6770">
<rect width="19" height="29" fill="white" transform="translate(18 14.0005)"/>
</clipPath>
</defs>
</svg>
