<svg width="72" height="72" viewBox="0 0 72 72" fill="none" xmlns="http://www.w3.org/2000/svg">
<rect x="0.597168" y="0.5" width="70.8053" height="71" rx="23.5" fill="url(#paint0_radial_4926_3463)"/>
<rect x="0.597168" y="0.5" width="70.8053" height="71" rx="23.5" stroke="#E0E0E0"/>
<g clip-path="url(#clip0_4926_3463)">
<path d="M45.9608 53.3873C46.3881 54.1932 46.8209 55.01 47.3185 55.962C44.5599 55.3021 41.9202 54.6692 39.1995 54.0147C40.5139 52.0026 41.7742 50.0769 43.0886 48.0593C43.5105 48.8328 43.8837 49.5252 44.3056 50.2933C49.282 47.1074 52.2029 42.6827 52.4192 36.7977C52.6735 29.9606 49.7201 24.6597 43.6728 21.463C37.0683 17.9742 30.7776 19.0668 24.9412 23.6699C24.2218 22.8693 23.4753 22.0364 22.6748 21.1385C28.0785 16.6002 34.1907 14.891 40.9628 16.7247C48.9358 18.8829 54.0095 24.2 55.5024 32.319C57.163 41.3413 53.5497 48.2919 45.9554 53.3873H45.9608Z" fill="white"/>
<path d="M45.1384 35.3267V37.5011C44.9058 37.5173 44.6786 37.539 44.4514 37.539C42.2013 37.539 39.9511 37.5282 37.7063 37.5552C37.4197 37.5552 37.0843 37.6904 36.8625 37.8743C35.8943 38.6641 34.5366 38.5721 33.7956 37.6309C33.0762 36.7168 33.3034 35.5376 34.304 34.7317C34.4933 34.5802 34.6232 34.2394 34.6232 33.9798C34.6448 30.4964 34.634 27.0184 34.634 23.5349C34.634 23.2807 34.634 23.0265 34.634 22.7344H36.1161V23.4321C36.1161 26.8939 36.1161 30.3503 36.1161 33.8121C36.1161 34.5478 36.8517 35.2834 37.609 35.2834C39.989 35.2834 42.3689 35.2834 44.7435 35.2834C44.8517 35.2834 44.9599 35.2996 45.1384 35.3158V35.3267Z" fill="white"/>
<path d="M19.7484 24.4863C20.7112 25.1679 21.6037 25.8007 22.5395 26.466C21.2522 28.3484 20.3488 30.3606 19.862 32.6053C18.7532 32.3078 17.7038 32.0211 16.5625 31.7128C17.1196 29.057 18.2014 26.6878 19.743 24.4863H19.7484Z" fill="white"/>
<path d="M23.2803 46.7132C22.5123 47.3839 21.6739 48.1088 20.803 48.8714C19.6346 47.5192 18.7259 46.0641 17.9957 44.5009C17.9416 44.3819 18.0119 44.1061 18.1201 44.0303C18.9531 43.4191 19.8077 42.8403 20.6191 42.2832C21.5116 43.7653 22.3824 45.2095 23.2858 46.7186L23.2803 46.7132Z" fill="white"/>
<path d="M19.8945 39.9667C18.9154 40.4373 17.9148 40.9187 16.8492 41.4271C16.2596 39.4258 16.0324 37.4353 16.1135 35.3906H19.4077C19.5699 36.9322 19.7268 38.3981 19.8945 39.9667Z" fill="white"/>
<path d="M28.7813 54.7446C27.1477 53.8358 25.5953 52.965 23.978 52.0671C24.7245 51.0285 25.379 50.1198 25.9956 49.2598C27.3641 50.0279 28.7001 50.7743 30.074 51.5424C29.6846 52.5106 29.2735 53.5275 28.7813 54.7446Z" fill="white"/>
<path d="M32.5137 55.7783C32.7409 54.5343 32.941 53.4579 33.1411 52.3652C34.2824 52.4247 35.3967 52.4734 36.5056 52.5437C36.5921 52.5491 36.7165 52.6898 36.749 52.7925C37.0789 53.7878 37.3926 54.7885 37.7821 56.0001C35.9701 55.9244 34.2933 55.8541 32.5191 55.7783H32.5137Z" fill="white"/>
</g>
<defs>
<radialGradient id="paint0_radial_4926_3463" cx="0" cy="0" r="1" gradientUnits="userSpaceOnUse" gradientTransform="translate(36.0955 29.4486) rotate(0.157052) scale(35.807 255.296)">
<stop stop-color="#505050"/>
<stop offset="1" stop-color="#111111"/>
</radialGradient>
<clipPath id="clip0_4926_3463">
<rect width="39.8053" height="40" fill="white" transform="translate(16.0972 16)"/>
</clipPath>
</defs>
</svg>
