<svg width="56" height="56" viewBox="0 0 56 56" fill="none" xmlns="http://www.w3.org/2000/svg">
<rect x="-0.000976562" y="0.000488281" width="56" height="56" rx="10" fill="white"/>
<g clip-path="url(#clip0_5050_6779)">
<path d="M16.5332 15.0005C16.0917 15.0005 15.7334 15.3588 15.7334 15.8003V17.4C15.7334 17.8415 16.0917 18.1998 16.5332 18.1998C16.9747 18.1998 17.3331 17.8415 17.3331 17.4V15.8003C17.3331 15.3588 16.9747 15.0005 16.5332 15.0005Z" fill="url(#paint0_radial_5050_6779)"/>
<path d="M16.5332 20.8667C16.0917 20.8667 15.7334 21.225 15.7334 21.6665V23.2662C15.7334 23.7077 16.0917 24.066 16.5332 24.066C16.9747 24.066 17.3331 23.7077 17.3331 23.2662V21.6665C17.3331 21.225 16.9747 20.8667 16.5332 20.8667Z" fill="url(#paint1_radial_5050_6779)"/>
<path d="M20.5323 19.5342C20.5323 19.0927 20.174 18.7344 19.7325 18.7344H18.1328C17.6913 18.7344 17.333 19.0927 17.333 19.5342C17.333 19.9757 17.6913 20.334 18.1328 20.334H19.7325C20.174 20.334 20.5323 19.9757 20.5323 19.5342Z" fill="url(#paint2_radial_5050_6779)"/>
<path d="M15.7316 19.5342C15.7316 19.0927 15.3732 18.7344 14.9317 18.7344H13.3321C12.8905 18.7344 12.5322 19.0927 12.5322 19.5342C12.5322 19.9757 12.8905 20.334 13.3321 20.334H14.9317C15.3732 20.334 15.7316 19.9757 15.7316 19.5342Z" fill="url(#paint3_radial_5050_6779)"/>
<path d="M43.1992 26.2005C43.6407 26.2005 43.999 25.8422 43.999 25.4007C43.999 24.9592 43.6407 24.6009 43.1992 24.6009H41.8658V19.2671H43.1992C43.6407 19.2671 43.999 18.9088 43.999 18.4673C43.999 18.0258 43.6407 17.6675 43.1992 17.6675H26.9618C26.7998 18.5317 26.6467 19.428 26.4981 20.3343H37.5981C38.4823 20.3343 39.1978 21.051 39.1978 21.934V35.8007C39.1978 36.6849 38.4812 37.4004 37.5981 37.4004H17.7143C17.2096 37.4004 16.7991 36.9911 16.7991 36.4852C16.7991 36.3854 16.8136 36.2866 16.8446 36.1912C17.1563 35.2461 17.6899 34.261 18.3633 33.2681C16.108 34.3131 14.1323 35.9461 14.1323 38.4676H12.7989C12.3573 38.4676 11.999 38.8259 11.999 39.2674C11.999 39.7089 12.3573 40.0673 12.7989 40.0673H43.1992C43.6407 40.0673 43.999 39.7089 43.999 39.2674C43.999 38.8259 43.6407 38.4676 43.1992 38.4676H41.8658V33.1339H43.1992C43.6407 33.1339 43.999 32.7756 43.999 32.3341C43.999 31.8925 43.6407 31.5342 43.1992 31.5342H41.8658V26.2005H43.1992Z" fill="url(#paint4_radial_5050_6779)"/>
<path d="M14.8125 34.3649C15.9939 33.169 17.6247 32.3315 19.2243 31.7446C19.3475 32.5855 19.4662 33.1857 19.4762 33.2378C19.5272 33.4919 19.7491 33.666 19.9987 33.666C20.2982 33.666 20.5334 33.422 20.5323 33.1324C20.5323 33.098 20.5289 33.0625 20.5223 33.0281C20.5201 33.0148 20.3847 32.3337 20.2527 31.3974C21.3765 31.0524 22.4303 30.8261 23.2368 30.6852C23.2368 30.6697 23.2379 30.6553 23.239 30.6397C23.2135 31.2976 23.2002 31.9543 23.2002 32.5999C23.2002 32.895 23.4387 33.1335 23.7338 33.1335C24.0289 33.1335 24.2674 32.895 24.2674 32.5999C24.2674 25.8008 25.8515 17.7459 25.8671 17.666C25.8671 17.666 17.3141 26.2201 14.8136 34.3649H14.8125Z" fill="url(#paint5_radial_5050_6779)"/>
</g>
<defs>
<radialGradient id="paint0_radial_5050_6779" cx="0" cy="0" r="1" gradientUnits="userSpaceOnUse" gradientTransform="translate(16.5354 16.309) rotate(0.313253) scale(0.797713 11.344)">
<stop stop-color="#505050"/>
<stop offset="1" stop-color="#111111"/>
</radialGradient>
<radialGradient id="paint1_radial_5050_6779" cx="0" cy="0" r="1" gradientUnits="userSpaceOnUse" gradientTransform="translate(16.5354 22.1753) rotate(0.313253) scale(0.797713 11.344)">
<stop stop-color="#505050"/>
<stop offset="1" stop-color="#111111"/>
</radialGradient>
<radialGradient id="paint2_radial_5050_6779" cx="0" cy="0" r="1" gradientUnits="userSpaceOnUse" gradientTransform="translate(18.9369 19.3887) rotate(0.0783139) scale(1.5954 5.67209)">
<stop stop-color="#505050"/>
<stop offset="1" stop-color="#111111"/>
</radialGradient>
<radialGradient id="paint3_radial_5050_6779" cx="0" cy="0" r="1" gradientUnits="userSpaceOnUse" gradientTransform="translate(14.1362 19.3887) rotate(0.0783139) scale(1.5954 5.67209)">
<stop stop-color="#505050"/>
<stop offset="1" stop-color="#111111"/>
</radialGradient>
<radialGradient id="paint4_radial_5050_6779" cx="0" cy="0" r="1" gradientUnits="userSpaceOnUse" gradientTransform="translate(28.0417 26.8292) rotate(0.109638) scale(15.9574 79.4249)">
<stop stop-color="#505050"/>
<stop offset="1" stop-color="#111111"/>
</radialGradient>
<radialGradient id="paint5_radial_5050_6779" cx="0" cy="0" r="1" gradientUnits="userSpaceOnUse" gradientTransform="translate(20.3545 24.496) rotate(0.236599) scale(5.51259 59.2103)">
<stop stop-color="#505050"/>
<stop offset="1" stop-color="#111111"/>
</radialGradient>
<clipPath id="clip0_5050_6779">
<rect width="32" height="25.0666" fill="white" transform="translate(11.999 15.0005)"/>
</clipPath>
</defs>
</svg>
