<svg width="57" height="56" viewBox="0 0 57 56" fill="none" xmlns="http://www.w3.org/2000/svg">
<rect x="0.666016" y="0.000488281" width="56" height="56" rx="10" fill="white"/>
<g clip-path="url(#clip0_5050_6789)">
<path d="M22.8507 21.1771C22.9416 21.1553 23.0348 21.1371 23.1318 21.1226C24.7801 20.8818 26.5451 21.0803 28.2106 21.0621L33.9313 21.0028C34.9058 20.9919 35.9417 20.998 36.7664 21.5098C37.6072 22.0301 38.0674 22.9836 38.3362 23.9262C38.605 24.8688 38.7278 25.8549 39.1107 26.7588C38.8345 26.1066 41.0708 25.7303 41.4316 26.6596C41.5126 26.8677 41.3027 27.2864 41.0965 27.4812C40.6756 27.8769 40.1699 28.183 39.69 28.5327C39.7219 28.5908 39.7563 28.6621 39.8005 28.7287C39.879 28.8473 39.9465 28.9755 40.0459 29.0748C41.2549 30.2896 41.5494 31.7997 41.4979 33.4211C41.4513 34.8707 41.3752 36.3203 41.3592 37.771C41.3543 38.2659 41.2438 38.6701 40.8756 39.0016H36.8254C36.5909 38.5515 36.3565 38.1014 36.0939 37.598H21.9867C21.6958 38.1425 21.4675 38.5721 21.238 39.0016H17.3105C16.8944 38.7693 16.7545 38.4184 16.7569 37.9501C16.7606 37.0644 16.7164 36.1799 16.687 35.2942C16.6551 34.3492 16.5483 33.4005 16.5961 32.4591C16.6796 30.8172 17.2282 29.3627 18.7477 28.402C18.4445 28.2072 18.2162 28.0753 18.0064 27.9204C17.7953 27.7631 17.578 27.6034 17.4086 27.4074C16.9202 26.8411 17.0687 26.3571 17.7818 26.1284C18.6385 25.8525 18.9637 25.9675 19.4178 26.7032C19.4583 26.7685 19.5209 26.8205 19.6081 26.9185C19.9935 25.7509 20.3592 24.6232 20.736 23.4991C21.114 22.3726 21.6897 21.4614 22.8532 21.1795L22.8507 21.1771ZM37.9189 27.7232C37.5164 26.2845 37.1899 24.8797 36.7174 23.5233C36.4437 22.738 35.733 22.4125 34.8567 22.4161C31.2385 22.4331 27.6202 22.4415 24.0032 22.4113C23.0017 22.4028 22.3598 22.8445 22.0002 23.6975C21.7203 24.363 21.5301 25.066 21.3116 25.7557C21.1079 26.397 20.9189 27.0432 20.7139 27.722H37.9214L37.9189 27.7232ZM22.2444 34.1423C22.2444 34.1423 22.2444 34.1459 22.2444 34.1471C22.6323 34.1471 23.0238 34.1834 23.4043 34.1362C23.7074 34.0987 24.1959 34.0188 24.2475 33.8506C24.3383 33.5578 24.2315 33.1404 24.0634 32.8572C23.9148 32.6068 23.5908 32.349 23.3085 32.3018C22.1671 32.1119 21.0122 31.9848 19.8597 31.8723C19.4141 31.8287 19.2067 32.0961 19.3589 32.5269C19.8192 33.8313 20.0106 34.1955 21.4491 34.1435C21.7142 34.1338 21.9793 34.1423 22.2444 34.1423ZM35.8018 34.1447C35.8018 34.1447 35.8018 34.141 35.8018 34.1398C36.0669 34.1398 36.3332 34.1398 36.5983 34.1398C37.9214 34.1362 38.1816 33.9608 38.632 32.7653C38.8922 32.0731 38.7118 31.8057 37.957 31.8759C36.9223 31.9715 35.8877 32.0961 34.8616 32.2571C34.324 32.3418 33.9546 32.6975 33.7742 33.2154C33.5692 33.8035 33.7656 34.1108 34.3927 34.1398C34.8616 34.1616 35.3317 34.1447 35.8018 34.1447Z" fill="url(#paint0_radial_5050_6789)"/>
<path d="M8.10491 26.7796C8.78732 25.912 9.82811 25.9386 10.4614 26.9454C10.7106 25.9834 10.9327 25.1037 11.1659 24.2265C11.2641 23.8587 11.3525 23.4836 11.4985 23.1326C12.0214 21.8742 12.7087 21.4302 14.076 21.4302C15.6887 21.4302 17.3015 21.4302 19.0013 21.4302C18.8197 21.8706 18.6626 22.2493 18.4883 22.6728C17.153 22.6728 15.8078 22.6765 14.4614 22.6716C13.6943 22.6692 13.0217 22.9632 12.7774 23.6566C12.3061 24.9924 11.9735 26.3755 11.5587 27.8263C12.6105 27.8263 13.5065 27.8238 14.4025 27.8263C15.0959 27.8299 15.3267 28.2582 15.0849 28.8777C14.6884 29.8978 14.3705 30.9481 13.9815 32.0951C13.3236 32.0189 12.4817 31.9282 11.6421 31.8229C10.837 31.7212 10.6259 31.9814 10.9168 32.7389C11.3378 33.8388 11.528 33.9743 12.7075 33.9924C13.1751 33.9997 13.644 33.9936 14.1877 33.9936C14.2589 35.1056 14.3264 36.1595 14.3975 37.2824H13.1714C13.1555 37.4966 13.1395 37.6491 13.1334 37.8015C13.115 38.363 12.829 38.6558 12.2534 38.657C11.2322 38.6582 10.2098 38.6667 9.18744 38.6546C8.09632 38.6413 8.22396 37.1977 8.17119 36.4366C8.05336 34.7366 7.74775 32.6312 8.4277 31.0315C8.52712 30.798 9.77288 28.6442 9.82934 28.6999C9.21076 28.0973 8.65722 27.5601 8.10491 27.0216C8.10491 26.9405 8.10491 26.8607 8.10491 26.7796Z" fill="url(#paint1_radial_5050_6789)"/>
<path d="M49.9995 34.2815C49.9983 35.3476 49.889 36.416 49.7454 37.4445C49.63 38.2733 49.2189 38.6521 48.3659 38.6521C47.589 38.6521 46.8108 38.6545 46.0339 38.6521C45.1662 38.6484 44.9735 38.4597 44.9281 37.5897C44.9244 37.5135 44.9072 37.4384 44.89 37.3211H43.697C43.751 36.2188 43.8026 35.1649 43.8578 34.0202C44.4506 34.0202 45.0164 34.0287 45.581 34.0178C46.5126 34.0008 47.3226 33.132 47.2613 32.2306C47.2306 31.7829 46.8857 31.795 46.5862 31.8204C45.894 31.8797 45.2067 31.9777 44.5157 32.0576C44.3168 32.0806 44.1168 32.0963 44.0554 32.1023C43.6982 32.1362 43.13 29.5625 43.1202 29.2334C43.0625 27.4281 45.268 27.825 46.4549 27.825C46.1947 26.7553 45.9639 25.7631 45.7087 24.7758C45.6141 24.4079 45.5025 24.0352 45.3319 23.6977C44.9956 23.0297 44.431 22.674 43.6602 22.6728C42.8428 22.6728 42.0229 22.6425 41.2067 22.6825C40.4961 22.7176 40.0616 22.0908 40.0469 21.4507C40.0469 21.4422 43.4037 21.4071 43.6344 21.3999C44.3942 21.3745 45.2103 21.4652 45.7909 21.948C46.3751 22.4344 46.5997 23.2112 46.7949 23.9409C47.0612 24.9367 47.3275 25.9325 47.5926 26.9284C47.492 26.5533 48.3254 26.2036 48.5782 26.1709C49.0765 26.108 49.6779 26.3657 49.9565 26.7795V27.0215C49.3919 27.56 48.8261 28.0996 48.2198 28.678C48.507 29.0531 48.9575 29.4706 49.1894 29.9836C49.7957 31.3304 50.0007 32.8017 49.9983 34.2803L49.9995 34.2815Z" fill="url(#paint2_radial_5050_6789)"/>
</g>
<defs>
<radialGradient id="paint0_radial_5050_6789" cx="0" cy="0" r="1" gradientUnits="userSpaceOnUse" gradientTransform="translate(29.0769 28.3631) rotate(0.113144) scale(12.4265 63.8282)">
<stop stop-color="#505050"/>
<stop offset="1" stop-color="#111111"/>
</radialGradient>
<radialGradient id="paint1_radial_5050_6789" cx="0" cy="0" r="1" gradientUnits="userSpaceOnUse" gradientTransform="translate(13.5153 28.4777) rotate(0.245316) scale(5.48605 61.0964)">
<stop stop-color="#505050"/>
<stop offset="1" stop-color="#111111"/>
</radialGradient>
<radialGradient id="paint2_radial_5050_6789" cx="0" cy="0" r="1" gradientUnits="userSpaceOnUse" gradientTransform="translate(45.0364 28.4543) rotate(0.27158) scale(4.96309 61.1897)">
<stop stop-color="#505050"/>
<stop offset="1" stop-color="#111111"/>
</radialGradient>
<clipPath id="clip0_5050_6789">
<rect width="42" height="18" fill="white" transform="translate(7.99902 21.0005)"/>
</clipPath>
</defs>
</svg>
