<svg width="100" height="45" viewBox="0 0 100 45" fill="none" xmlns="http://www.w3.org/2000/svg">
<g clip-path="url(#clip0_5616_3956)">
<path d="M56.7112 9.10711C56.469 8.09943 56.8254 7.66567 57.6913 7.36981C58.0477 7.24747 58.3858 7.06951 58.7468 6.95384C64.6549 5.04972 70.7572 4.43799 76.9417 4.39795C77.3804 4.39573 77.8419 4.31342 77.8259 5.04972C77.819 5.44344 78.2394 5.38116 78.5113 5.15649C78.7557 4.95407 78.8768 4.67601 78.8448 4.36681C78.7946 3.92637 78.4244 3.71282 78.0612 3.65944C77.2387 3.53709 76.4003 3.43032 75.5709 3.45034C71.4608 3.55489 67.3782 3.96864 63.3366 4.70048C61.0269 5.11867 58.6988 5.51018 56.5969 6.6402C55.731 7.10733 55.3221 7.71015 55.562 8.72228C55.9389 10.3172 55.6831 11.881 55.1462 13.4159C52.9255 19.7711 49.101 25.1587 44.5363 30.1014C44.2827 30.3773 44.0725 30.8044 43.5173 30.7176C43.5036 30.5686 43.4762 30.4262 43.4808 30.2838C43.5858 27.4899 44.2461 24.7872 45.0115 22.1157C45.8385 19.2328 46.7752 16.3788 47.6662 13.5115C47.7508 13.2357 47.9609 12.9332 47.6228 12.7107C47.2778 12.486 46.9488 12.6618 46.7021 12.9087C46.1469 13.4648 45.5689 14.0076 45.0869 14.6215C43.001 17.2775 41.3675 20.2093 39.6494 23.09C37.15 27.2808 34.9476 31.6408 32.0963 35.6314C31.7491 36.1186 31.4064 36.6413 30.7164 36.8081C30.657 36.321 30.7758 35.9317 30.8901 35.5402C32.1763 31.0869 33.8167 26.7492 35.4159 22.3982C36.8119 18.6055 38.2535 14.8284 39.6654 11.0402C39.8824 10.4573 40.2594 9.71661 39.6243 9.31176C38.9983 8.91358 39.277 8.6511 39.4872 8.29074C40.4947 6.55122 41.4931 4.80725 42.5326 3.08553C42.7702 2.6918 42.857 2.37148 42.5623 2H42.3339C40.2617 4.18441 38.6487 6.70248 36.9375 9.1427C34.1731 13.0866 31.4658 17.0684 28.7151 21.019C28.4318 21.4239 28.2467 22.0178 27.6116 22.0534C25.1693 22.1891 22.727 22.2981 20.255 22.4182C20.2847 22.1913 20.271 22.1045 20.3076 22.0534C21.7994 20.0002 23.3142 17.9604 24.79 15.8961C26.2408 13.8608 27.7647 11.8565 28.6557 9.50528C29.2862 7.84585 28.7151 6.9227 26.9308 6.68691C25.7999 6.53787 24.6621 6.49561 23.5152 6.54232C18.0046 6.76476 12.5078 7.20743 7.00634 7.57446C6.6705 7.59671 6.22728 7.67901 6.01252 7.51218C5.37739 7.02725 4.78338 7.33422 4.17795 7.46324C3.8421 7.53442 3.47656 7.70348 3.51997 8.11278C3.56794 8.56212 4.00888 8.49761 4.32873 8.54655C4.51379 8.57546 4.70798 8.56212 4.89761 8.54655C8.61702 8.3152 12.3364 8.06829 16.0558 7.85474C19.5102 7.65677 22.9623 7.35424 26.4304 7.5411C28 7.62563 28.2993 8.11723 27.6733 9.53198C27.5842 9.7344 27.4745 9.93015 27.3717 10.1281C25.5897 13.5471 23.1565 16.5479 20.8924 19.6577C18.7928 22.5405 18.7723 22.4671 15.1283 22.6896C10.9953 22.9409 6.85098 23.15 2.78203 23.9998C2.10349 24.1421 1.4615 24.3379 1 24.8851V25.1076C2.37764 25.984 4.01117 26.0329 5.53731 26.4133C7.37645 26.8693 9.24073 27.2541 10.8331 28.3308C12.4621 29.4319 12.7248 30.702 11.6899 32.3125C10.8811 33.5649 10.0541 34.8061 9.23844 36.0541C9.07852 36.2987 8.83863 36.5568 9.20874 36.8148C9.50803 37.0217 9.79818 36.9461 10.0152 36.6902C10.4699 36.1475 10.9634 35.6225 11.3357 35.0264C13.1932 32.0612 15.1168 29.1383 17.0634 26.2264C18.4844 24.1043 20.0585 22.9454 22.7407 23.2212C24.1069 23.3614 25.5143 23.0611 27.029 23.15C27.0541 23.15 27.0793 23.1523 27.1044 23.1545C27.0907 23.1767 27.077 23.1968 27.0656 23.2168C26.8508 23.5571 26.7069 23.7907 26.5561 24.022C24.3263 27.4188 22.0759 30.8021 19.8712 34.2167C18.4753 36.3766 17.1136 38.5588 16.0124 40.8811C15.8548 41.2125 15.5029 41.6952 16.049 41.9377C16.5767 42.1735 16.6864 41.673 16.8783 41.2926C18.5392 37.9671 20.4903 34.8061 22.6265 31.7498C22.7133 31.5985 22.8001 31.4494 22.8869 31.3004C24.4953 28.5577 26.3482 25.9729 28.1805 23.3747C28.4615 22.9743 28.8247 22.912 29.2588 22.9165C29.5284 22.9187 29.798 22.9209 30.0676 22.9231C30.7987 22.9254 31.5275 22.9254 32.2586 22.932C32.5122 22.932 32.7635 22.9343 33.0171 22.9387C33.4534 22.9454 33.9172 22.9854 33.9286 22.4026C33.9401 21.8421 33.426 21.9221 33.0879 21.9132C31.8496 21.8843 30.6136 21.9021 29.22 21.9021C29.7089 21.2036 30.1521 20.5764 30.5885 19.9468C32.4596 17.2508 34.3353 14.557 36.1973 11.8543C36.4806 11.4406 36.741 11.0335 37.3396 11.1113C38.1941 11.2248 38.0616 9.97687 38.9046 10.0636C39.1536 10.3617 38.8932 10.6131 38.7812 10.8533C36.8507 14.9641 35.3817 19.2417 33.8692 23.506C33.8373 23.5905 33.7756 23.6639 33.7207 23.7417C33.7162 23.7328 33.7116 23.7217 33.7047 23.7128C33.7002 23.7373 33.6956 23.7595 33.691 23.784C33.5791 24.1711 33.4808 24.5626 33.3506 24.9452C32.19 28.3486 30.9906 31.7386 30.0287 35.1999C29.8711 35.7693 29.75 36.3544 29.6952 36.9394C29.6586 37.3531 29.83 37.758 30.2641 37.9448C30.6867 38.1295 31.0774 38.0116 31.4201 37.7179C32.1078 37.1262 32.6629 36.4211 33.177 35.6892C35.1943 32.8175 36.9489 29.7922 38.7515 26.7937C40.9745 23.0967 42.9781 19.2728 45.505 15.7515C45.5072 15.7293 45.5118 15.707 45.5187 15.6848C45.5849 15.3734 45.7974 15.1821 46.1264 15.0508C46.1995 15.4179 46.0944 15.7204 45.9139 15.9984C45.907 15.974 45.8979 15.9517 45.8865 15.9295C45.8865 15.9829 45.8751 16.0385 45.8499 16.0896C45.8454 16.0963 45.8408 16.103 45.8385 16.1074C45.8111 16.143 45.7837 16.1786 45.7563 16.2142C44.1639 20.7454 43.1175 25.4034 42.4481 30.1415C42.3704 30.6954 42.1419 31.3916 42.8708 31.7208C43.5356 32.0189 44.0176 31.5429 44.4906 31.1692C44.6368 31.0513 44.7716 30.9178 44.9041 30.7866C49.4414 26.2709 53.0786 21.1547 55.6465 15.3467C56.5215 13.3691 57.2389 11.2937 56.7112 9.10488V9.10711ZM13.0241 29.463C12.0646 27.5611 10.2231 26.8537 8.34286 26.2176C6.73447 25.6748 5.0621 25.3611 3.39203 24.9251C8.12353 23.8952 12.9556 23.784 17.8607 23.4325C17.63 24.2623 17.0405 24.7895 16.611 25.399C15.6652 26.7403 14.6919 28.0616 13.7186 29.3829C13.5382 29.6276 13.3302 30.0725 13.0241 29.463Z" fill="#333333"/>
<path d="M98.9453 39.2795C98.7968 38.9903 98.5592 39.1816 98.3627 39.2661C97.8943 39.4641 97.3986 39.4418 96.9028 39.4552C94.1909 39.5331 91.5247 39.1504 88.87 38.6811C81.5957 37.3909 74.4973 35.5491 67.8878 32.2213C65.6808 31.1113 63.6178 29.7989 62.0596 27.8525C61.7261 27.4365 61.5821 27.1073 62.2516 26.9093C63.339 26.807 64.2323 26.2353 65.169 25.7704C65.562 25.3856 66.0235 25.0964 66.5353 24.8828C66.5992 24.845 66.6586 24.8005 66.7249 24.7716C66.9739 24.6649 67.1338 24.3134 67.4788 24.4847C67.5519 24.5203 67.6136 24.6782 67.5976 24.7672C67.5131 25.221 67.1041 25.0986 66.8026 25.1654C66.2246 25.3789 65.7105 25.677 65.3815 26.2108C65.2513 26.9494 65.7356 27.2385 66.3411 27.3142C67.1727 27.4187 67.9312 27.2207 68.3995 26.4533C68.5846 26.1486 68.6394 25.7771 69.1443 25.7326C70.5791 25.6036 71.9544 25.2098 73.2933 24.6181C73.4692 27.1918 74.6983 27.8725 77.0881 26.787C77.6364 26.5378 78.1481 26.2153 78.685 25.9417C78.8884 25.8394 79.1374 25.5324 79.3293 25.9417C80.1129 27.6033 81.5043 27.1963 82.8454 26.9271C84.3372 26.6268 85.5778 25.7682 87.0583 25.0007C86.9098 25.3433 86.8367 25.5035 86.7681 25.6681C86.6379 25.9862 86.2609 26.3132 86.7178 26.6379C87.088 26.9004 87.4375 26.7314 87.7596 26.4956C88.1823 26.1841 88.621 25.8905 89.0276 25.5591C89.8227 24.9184 90.652 24.5559 91.7418 24.7961C92.8361 25.0386 93.9305 24.845 94.9654 24.4113C95.2167 24.3067 95.5389 24.0064 95.5412 24.6026C95.5412 24.9006 95.66 25.1364 95.9935 25.1031C96.3956 25.063 96.3933 24.7294 96.4048 24.4291C96.4207 23.9464 96.439 23.4614 96.0027 23.1077C95.4086 20.9211 93.67 19.8156 91.7509 18.9302C89.1738 17.7424 86.3934 17.3397 83.5856 17.0928C83.1789 17.0572 82.6123 17.2219 82.4136 16.886C82.1805 16.49 82.7586 16.232 82.955 15.8961C83.2543 15.3822 83.6336 14.9062 83.8895 14.3746C84.271 13.576 84.833 12.6395 83.942 11.9321C83.0784 11.2492 82.2948 12.0189 81.6185 12.5105C80.1106 13.6071 78.9295 15.0174 77.8374 16.49C77.513 16.926 77.1726 17.0973 76.6288 17.1418C74.3213 17.3331 72.0253 17.6645 69.7932 18.2718C67.0379 19.0237 64.2506 19.8511 62.2264 21.9332C60.3827 23.8262 58.0661 24.716 55.6375 25.4634C55.1143 25.6236 54.3238 25.9484 54.0108 25.2543C53.6933 24.5536 54.2918 24.1132 54.9224 23.8218C55.0572 23.7595 55.1806 23.6616 55.2879 23.5593C55.4547 23.4014 55.5895 23.219 55.4844 22.972C55.3565 22.6762 55.0892 22.654 54.815 22.6806C53.9377 22.7607 52.8228 24.3668 52.9667 25.3366C53.097 26.2375 53.8166 26.5823 55.1006 26.3821C56.3709 26.1819 57.5497 25.697 58.852 25.1654C58.7035 26.5 59.4232 27.0139 60.5586 27.1407C60.8031 27.1696 60.9744 27.2697 61.0978 27.4854C62.6628 30.2059 65.2719 31.7408 67.9883 33.0999C74.2208 36.2231 80.9103 38.0026 87.7551 39.2728C90.8119 39.8422 93.8871 40.3339 97.0239 40.2404C97.5951 40.2249 98.1685 40.216 98.6826 39.9312C98.9384 39.7911 99.0846 39.5486 98.9453 39.2795ZM60.3964 26.1508C60.1451 26.1508 59.8824 26.0129 59.9189 25.6859C59.9441 25.4523 60.1177 25.2855 60.3439 25.2454C60.7345 25.1765 60.5655 25.5057 60.6272 25.6614C60.5906 25.8527 60.7163 26.153 60.3964 26.1508ZM66.6015 26.4199C66.5238 26.4044 66.3959 26.2398 66.4142 26.2019C66.6198 25.7704 67.031 25.7793 67.6182 25.7682C67.4308 26.3688 67.0813 26.5111 66.6015 26.4199ZM82.5986 17.7958C85.9114 18.0249 89.1647 18.4675 92.1713 19.9579C93.3068 20.5185 94.28 21.2659 95.0111 22.2936C95.4658 22.932 95.6691 23.4859 94.7118 23.735C94.6753 23.7439 94.6364 23.7528 94.5953 23.7617C93.4256 23.8996 92.2558 24.0153 91.0815 23.7995C90.0443 23.6105 89.3064 24.3 88.4747 24.6582C88.2737 24.498 88.4336 24.3823 88.4725 24.26C88.5821 23.9286 88.9934 23.566 88.5981 23.2612C88.1709 22.9276 87.9561 23.4837 87.6705 23.6572C86.1238 24.5914 84.6228 25.6036 82.8225 26.0551C82.2651 26.1953 81.703 26.2842 81.1319 26.193C80.8463 26.1486 80.4693 26.1174 80.4602 25.7304C80.4533 25.3833 80.7709 25.241 81.0633 25.1565C81.7145 24.9629 82.3839 24.825 83.0259 24.607C83.4896 24.4491 83.9146 24.1888 84.2024 23.7706C84.4012 23.4748 84.4995 23.1567 84.3258 22.8297C84.1476 22.496 83.8186 22.4137 83.4531 22.4337C82.3359 22.4982 81.454 23.0766 80.5859 23.6772C79.2882 24.5759 78.0408 25.5546 76.4986 26.0529C75.7744 26.2865 74.9565 26.5957 74.5247 25.6725C74.1363 24.8384 74.4242 24.1688 75.2169 23.5771C77.2206 22.0845 79.0529 20.4006 80.6658 18.5031C80.6795 18.4876 80.6909 18.4742 80.7047 18.4586C81.1821 17.8202 81.8264 17.7424 82.5986 17.7958ZM81.2598 24.2311C81.9247 23.6683 82.5118 23.3858 83.2566 23.437C82.7745 23.9486 82.16 24.1799 81.2598 24.2311ZM77.4696 18.2073C77.481 18.1917 77.4902 18.1739 77.4993 18.1583C78.372 17.6601 79.2722 17.5711 80.2066 17.9871C80.1335 18.0493 80.0604 18.1116 79.9873 18.1761C78.3812 19.5642 77.0401 21.2637 74.9679 22.6428C75.7424 20.8811 76.6631 19.5731 77.4696 18.2073ZM82.3999 12.8553C82.6535 12.6818 82.9642 12.5327 83.2452 12.724C83.597 12.9598 83.4668 13.3224 83.3389 13.6316C82.8454 14.8194 82.0846 15.8627 81.1319 16.7036C80.4922 17.2663 79.5578 16.8971 78.5525 16.9193C79.7405 15.3244 80.8646 13.9119 82.3999 12.8553ZM62.8181 23.4325C62.5234 23.8774 62.0848 23.9886 61.5799 24.0353C61.8251 23.6364 62.2378 23.4355 62.8181 23.4325ZM61.0818 25.6347C61.011 24.9629 61.4976 24.9941 61.918 24.8495C62.3772 24.6915 62.8273 24.4802 63.2431 24.2311C63.6772 23.9686 63.997 23.5726 63.9193 23.041C63.8371 22.4782 63.323 22.4515 62.7862 22.367C64.4768 20.8166 66.5261 20.0736 68.6006 19.4174C70.9424 18.6766 73.3572 18.2229 75.8132 18.0026C76.1102 17.9782 76.654 17.6979 76.526 18.4186C76.51 18.4364 76.4963 18.4542 76.4803 18.472C75.5185 19.6065 74.7943 20.8944 74.2802 22.2536C73.8941 23.2701 73.2179 23.8062 72.2606 24.1643C71.333 24.5091 70.3963 24.805 69.4025 24.8873C69.0849 24.914 68.6943 25.0208 68.6074 24.5136C68.5435 24.1488 68.3927 23.7817 68.8359 23.5326C68.9684 23.4592 69.1032 23.3836 69.2152 23.2857C69.5967 22.9543 70.2204 22.6584 69.7795 22.0467C69.4048 21.5284 68.8199 21.7286 68.3264 21.9332C68.0911 22.0311 67.7941 22.1935 67.7119 22.3981C66.7363 24.8117 64.3329 25.2121 62.2744 26.0996C62.2424 26.113 62.2196 26.1419 62.1921 26.1641C62.1921 26.1641 62.1899 26.1575 62.1876 26.1552C62.1876 26.1597 62.1853 26.1664 62.1853 26.1708C61.7581 26.1152 61.1686 26.4377 61.0818 25.6347Z" fill="#333333"/>
<path d="M95.9703 19.7643C96.2947 19.7754 96.2947 19.5084 96.297 19.3038C96.3084 18.1626 96.3267 17.0237 96.2993 15.8826C96.281 15.2175 96.4569 14.5212 96.1462 13.8828C96.0114 13.8873 95.8767 13.8917 95.7441 13.8962C95.7441 15.7447 95.7441 17.5954 95.7464 19.4439C95.7464 19.5841 95.7853 19.7598 95.9703 19.7643Z" fill="#333333"/>
<path d="M56.8231 20.6191C56.5946 20.6057 56.3593 20.628 56.3296 20.9372C56.4027 21.2464 56.5832 21.4799 56.9122 21.5311C57.1863 21.5733 57.3394 21.3954 57.312 21.1374C57.2846 20.866 57.1384 20.6391 56.8231 20.6191Z" fill="#333333"/>
</g>
<defs>
<clipPath id="clip0_5616_3956">
<rect width="98" height="40" fill="white" transform="translate(1 2)"/>
</clipPath>
</defs>
</svg>
