<svg width="24" height="24" viewBox="0 0 24 24" fill="none" xmlns="http://www.w3.org/2000/svg">
<path fill-rule="evenodd" clip-rule="evenodd" d="M17.1094 3.16919C19.1902 3.74713 19.9861 5.20346 20.9841 7.20792H17.1094V3.16919ZM4.94897 7.37624C5.35638 7.37624 5.6521 7.61162 5.6521 8.16172C5.6521 8.62568 5.33844 9.00199 4.95099 9.0033H0.703125C0.314758 9.0033 0 9.38026 0 9.84488C0 10.3097 0.314758 10.6865 0.703125 10.6865H7.03125C7.42328 10.6865 7.73712 11.063 7.73712 11.5281C7.73712 11.9929 7.42236 12.3696 7.034 12.3696H0.703125C0.314758 12.3696 0 12.7464 0 13.2112C0 13.6761 0.314758 14.0528 0.703125 14.0528H2.25V16.5776C2.25 17.0424 2.56476 17.4191 2.95312 17.4191H4.36652C4.61847 18.9046 5.71509 20 7.00781 20C8.30054 20 9.39716 18.9046 9.64911 17.4191H16.7884C17.0403 18.9046 18.137 20 19.4297 20C20.7224 20 21.819 18.9046 22.071 17.4191H23.2969C23.6852 17.4191 24 17.0424 24 16.5776V11.5281C24 9.05875 21.824 8.89481 21.822 8.89109H16.4062C16.0179 8.89109 15.7031 8.51435 15.7031 8.0495V3H2.95312C2.56476 3 2.25 3.37674 2.25 3.84158V5.69307H1.40625C1.01788 5.69307 0.703125 6.06981 0.703125 6.53465C0.703125 6.9995 1.01788 7.37624 1.40625 7.37624H4.94897ZM20.3412 15.6829C20.8445 16.2854 20.8445 17.2627 20.3412 17.8651C19.5315 18.8343 18.1406 18.1448 18.1406 16.7739C18.1406 15.4033 19.5315 14.7138 20.3412 15.6829ZM7.91931 15.6829C8.42267 16.2854 8.42267 17.2627 7.91931 17.8651C7.10962 18.8343 5.71875 18.1448 5.71875 16.7739C5.71875 15.4033 7.10962 14.7138 7.91931 15.6829Z" fill="white"/>
</svg>
