<svg width="56" height="40" viewBox="0 0 56 40" fill="none" xmlns="http://www.w3.org/2000/svg">
<g id="fox-logo-w">
<path id="Vector" d="M7.03662 10.8594V28.3594H12.3634V22.7114H17.2065V17.923H12.3634V15.6326H18.3021L17.9796 10.8594H7.03662Z" fill="white"/>
<path id="Vector_2" d="M26.8477 10.8594C21.9726 10.8594 18.0479 14.762 18.0479 19.6095C18.0479 24.457 21.9726 28.3594 26.8477 28.3594C31.7228 28.3594 35.6474 24.457 35.6474 19.6095C35.6474 14.762 31.7228 10.8594 26.8477 10.8594ZM26.8477 14.4634C27.6709 14.4634 28.3334 15.1222 28.3334 15.9407V23.278C28.3334 24.0965 27.6709 24.7555 26.8477 24.7555C26.0245 24.7555 25.3619 24.0965 25.3619 23.278V15.9407C25.3619 15.1222 26.0245 14.4634 26.8477 14.4634Z" fill="white"/>
<path id="Vector_3" d="M33.0083 10.8594L38.0015 19.6094L33.0083 28.3594H38.717L40.8558 24.6112L42.9947 28.3594H48.7034L43.7102 19.6094L48.7034 10.8594H42.9947L40.8558 14.6075L38.717 10.8594H33.0083Z" fill="white"/>
</g>
</svg>
