<svg width="137" height="40" viewBox="0 0 137 40" fill="none" xmlns="http://www.w3.org/2000/svg">
<g id="gizmodo-logo-w">
<g id="Mask group">
<mask id="mask0_524_3870" style="mask-type:luminance" maskUnits="userSpaceOnUse" x="6" y="10" width="125" height="19">
<g id="Group">
<path id="Vector" d="M130.245 10.459H6.70312V28.1078H130.245V10.459Z" fill="white"/>
</g>
</mask>
<g mask="url(#mask0_524_3870)">
<g id="Group_2">
<path id="Vector_2" d="M26.9497 26.0004V12.5545C26.9497 11.8562 27.1097 11.332 27.4296 10.983C27.7492 10.6339 28.1632 10.459 28.67 10.459C29.193 10.459 29.616 10.6321 29.94 10.9773C30.2636 11.3227 30.426 11.8481 30.426 12.5545V26.0004C30.426 26.7065 30.2636 27.2343 29.94 27.5835C29.616 27.933 29.193 28.1077 28.67 28.1077C28.1706 28.1077 27.7591 27.931 27.4352 27.5778C27.1115 27.2246 26.9497 26.6985 26.9497 26.0004Z" fill="white"/>
<path id="Vector_3" d="M121.387 14.0407C118.479 14.0407 116.114 16.3956 116.114 19.2899C116.114 22.1838 118.479 24.5385 121.387 24.5385C124.293 24.5385 126.658 22.1838 126.658 19.2899C126.658 16.3956 124.293 14.0407 121.387 14.0407ZM121.387 28.1085C116.502 28.1085 112.528 24.1523 112.528 19.2899C112.528 14.4268 116.502 10.4707 121.387 10.4707C126.271 10.4707 130.244 14.4268 130.244 19.2899C130.244 24.1523 126.271 28.1085 121.387 28.1085Z" fill="white"/>
<path id="Vector_4" d="M81.6218 14.0407C78.7151 14.0407 76.35 16.3956 76.35 19.2899C76.35 22.1838 78.7151 24.5385 81.6218 24.5385C84.5298 24.5385 86.894 22.1838 86.894 19.2899C86.894 16.3956 84.5298 14.0407 81.6218 14.0407ZM81.6218 28.1085C76.7377 28.1085 72.7642 24.1523 72.7642 19.2899C72.7642 14.4268 76.7377 10.4707 81.6218 10.4707C86.5065 10.4707 90.4807 14.4268 90.4807 19.2899C90.4807 24.1523 86.5065 28.1085 81.6218 28.1085Z" fill="white"/>
<path id="Vector_5" d="M101.46 24.4946C101.032 24.5224 100.57 24.5272 100.074 24.5272H97.7491V14.0396H100.074C100.57 14.0396 101.032 14.045 101.46 14.0722C102.997 14.2552 104.333 15.0977 105.172 16.3094C105.757 17.153 106.102 18.1728 106.104 19.2728C106.104 19.2757 106.104 19.2785 106.104 19.2815V19.2854C106.104 19.2882 106.104 19.2911 106.104 19.2939C106.102 20.3938 105.757 21.4137 105.172 22.2576C104.333 23.4692 102.997 24.3114 101.46 24.4946ZM109.69 19.2833V19.281C109.689 17.3347 109.052 15.5348 107.976 14.0744C106.412 11.9505 103.917 10.5486 101.095 10.4659C101.007 10.4632 100.921 10.459 100.832 10.459C100.827 10.459 96.3841 10.4647 96.3841 10.4647C95.6241 10.4647 95.0741 10.6369 94.735 10.9812C94.3941 11.3255 94.2241 11.8819 94.2241 12.651V25.9157C94.2241 26.6847 94.3941 27.241 94.735 27.5857C95.0741 27.9302 95.6241 28.1022 96.3841 28.1022C96.3841 28.1022 100.827 28.1077 100.832 28.1077C100.921 28.1077 101.007 28.1035 101.095 28.1011C103.917 28.0182 106.412 26.6163 107.976 24.4923C109.052 23.0319 109.689 21.232 109.69 19.2858V19.2833Z" fill="white"/>
<path id="Vector_6" d="M67.7475 10.5385C67.1001 10.3383 66.4009 10.5916 66.0238 11.1634L60.683 19.2632L55.3423 11.1634C54.9657 10.5916 54.266 10.3383 53.6187 10.5385C52.9716 10.7389 52.5298 11.3463 52.5298 12.0347V26.4303C52.5298 27.2942 53.2179 27.9943 54.0661 27.9943C54.9149 27.9943 55.6029 27.2942 55.6029 26.4303V17.1723L59.3949 22.9226C59.3975 22.9266 59.4 22.9303 59.4025 22.9343L59.4072 22.9412C59.4117 22.9483 59.4171 22.9546 59.4218 22.9617C59.4455 22.9961 59.4698 23.0303 59.4967 23.0632C59.5085 23.0778 59.5207 23.0908 59.5329 23.1045C59.5541 23.1287 59.5747 23.1529 59.5973 23.1758C59.6175 23.1965 59.6392 23.2158 59.6607 23.2356C59.6762 23.2497 59.6917 23.2646 59.708 23.2783C59.7383 23.3037 59.769 23.3264 59.8008 23.3488C59.8098 23.355 59.8178 23.3625 59.827 23.3686C59.827 23.3686 59.8293 23.37 59.831 23.371C59.8647 23.3938 59.8997 23.4146 59.9355 23.4348C59.9452 23.4405 59.955 23.4472 59.9649 23.4523C59.9915 23.4668 60.0189 23.4788 60.0467 23.4918C60.2021 23.5641 60.365 23.6093 60.529 23.6262L60.5322 23.6268C60.5649 23.6295 60.5974 23.6302 60.6295 23.6316C60.6475 23.6322 60.6655 23.6338 60.683 23.6338C60.7012 23.6338 60.7187 23.6322 60.7366 23.6316C60.7693 23.6302 60.8016 23.6295 60.8341 23.6268L60.8372 23.6262C61.0015 23.6093 61.1642 23.5641 61.3198 23.4918C61.3473 23.4788 61.375 23.4668 61.4015 23.4523C61.4117 23.4472 61.421 23.4405 61.4312 23.4348C61.4668 23.4146 61.5016 23.3938 61.5354 23.371C61.537 23.37 61.5397 23.3686 61.5397 23.3686C61.5488 23.3625 61.5567 23.355 61.5655 23.3488C61.5973 23.3264 61.6285 23.3037 61.6585 23.2783C61.675 23.2646 61.6901 23.2497 61.7064 23.235C61.7273 23.2158 61.7488 23.1965 61.769 23.1763C61.792 23.1529 61.8125 23.1284 61.8337 23.1043C61.846 23.0908 61.8584 23.0774 61.8698 23.0632C61.8965 23.0303 61.9209 22.9961 61.9447 22.9617C61.9494 22.9546 61.9548 22.9483 61.9595 22.9412L61.9639 22.9343C61.9665 22.9303 61.9689 22.9266 61.9718 22.9226L65.7633 17.1723V26.4303C65.7633 27.2942 66.4509 27.9943 67.3005 27.9943C68.1485 27.9943 68.837 27.2942 68.837 26.4303V12.0347C68.837 11.3463 68.3947 10.7389 67.7475 10.5385Z" fill="white"/>
<path id="Vector_7" d="M47.3003 27.5714H35.8139C35.2098 27.5714 34.5384 27.1951 34.2898 26.6095C34.041 26.0245 33.9901 25.2278 34.5251 24.593L43.921 13.7391H36.1586C35.31 13.7391 34.6217 13.0074 34.6217 12.1046C34.6217 11.2017 35.31 10.6504 36.1586 10.6504H46.6262C47.2301 10.6504 47.8558 10.7461 48.4023 11.3422C48.9017 11.887 48.8797 13.0627 48.3202 13.7638L39.2418 24.3027H47.3003C48.1491 24.3027 48.767 25.0345 48.767 25.9369C48.767 26.8395 48.1491 27.5714 47.3003 27.5714Z" fill="white"/>
<path id="Vector_8" d="M15.497 28.1076C12.9482 28.1076 10.6366 27.1014 8.98808 25.2744C7.53573 23.6647 6.70312 21.5439 6.70312 19.4554C6.70312 12.9015 12.1753 10.459 15.625 10.459C19.0165 10.459 21.5063 12.1148 21.6105 12.185C22.3743 12.7011 22.5787 13.7439 22.067 14.5142C21.5565 15.2817 20.5273 15.4892 19.7642 14.979C19.7198 14.9506 17.9536 13.8164 15.625 13.8164C13.4627 13.8164 10.481 15.2372 10.481 19.4554C10.481 21.8552 12.274 24.6855 15.5612 24.6855C17.4108 24.6855 18.7113 24.1949 19.4672 23.716V21.2201H16.9058C15.9863 21.2201 15.2408 20.4686 15.2408 19.5414C15.2408 18.6143 15.9863 17.8627 16.9058 17.8627H21.1322C22.0515 17.8627 22.7969 18.6143 22.7969 19.5414V24.5345C22.7969 24.9887 22.6145 25.4229 22.2917 25.7392C21.1754 26.8316 18.7263 28.1076 15.497 28.1076Z" fill="white"/>
</g>
</g>
</g>
</g>
</svg>
