<?xml version="1.0" encoding="utf-8"?>
<!-- Generator: Adobe Illustrator 27.0.0, SVG Export Plug-In . SVG Version: 6.00 Build 0)  -->
<svg version="1.1" id="Layer_1" xmlns="http://www.w3.org/2000/svg" xmlns:xlink="http://www.w3.org/1999/xlink" x="0px" y="0px"
	 viewBox="0 0 663.7 130.1" style="enable-background:new 0 0 663.7 130.1;" xml:space="preserve">
<style type="text/css">
	.st0{fill:#FFFFFF;}
	.st1{fill:url(#SVGID_1_);}
	.st2{fill:url(#SVGID_00000152228124313515957000000002230528875915968185_);}
	.st3{fill:url(#SVGID_00000031187396845110060710000002239621522125126566_);}
</style>
<path class="st0" d="M5.9,118.6L26.2,10.8h32.5l9.8,32.5c4.2,14.4,7.2,26.7,9.9,39.8h0.5C79.4,71.4,81,58.3,84,42.3l5.9-31.5h25.4
	L94.8,118.6H66.3L55.5,83.4C51,68.2,47.8,57.5,44.8,43h-0.6c-1.1,10.7-4,28-7.4,45.9l-5.6,29.7C31.2,118.6,5.9,118.6,5.9,118.6z"/>
<path class="st0" d="M161.8,10.8l-11.5,61.1c-0.8,3.5-1.3,7.7-1.3,12.5c0.2,6.6,4.3,13.3,13.9,13.3c10.9,0,17.6-7.2,21.1-25.4
	l11.5-61.4h27.3l-11.4,59.8c-6.2,32.9-19.8,49.7-52,49.7c-24.1,0-37.7-12.2-37.7-35.5c0-4.6,0.6-10.1,1.6-15.2l11.2-58.8L161.8,10.8
	L161.8,10.8z"/>
<path class="st0" d="M242.2,13.1c7.4-1.9,19.2-3,31-3c10.1,0,21.3,1.1,29.6,5.6c7.7,4.2,13.6,11.2,13.6,22.4
	c0,16.1-10.1,25.3-23.8,30.2l-0.2,0.5c5.9,3,8.5,9.8,9.6,18.9c1.4,10.9,2.2,26.5,4.3,31h-28c-1-3.2-2.1-11.5-3.2-25.3
	C274,81.2,270,78,261.6,78h-5l-7.7,40.6h-27L242.2,13.1z M260.6,57.9h8.5c10.6,0,19-6.1,19-15.7c0-7.4-6.7-10.7-14.7-10.7
	c-3.8,0-6.2,0.3-8,0.6L260.6,57.9z"/>
<linearGradient id="SVGID_1_" gradientUnits="userSpaceOnUse" x1="473.8282" y1="103.2141" x2="456.1355" y2="17.733" gradientTransform="matrix(1 0 0 -1 0 132)">
	<stop  offset="0" style="stop-color:#F90000"/>
	<stop  offset="1" style="stop-color:#731110"/>
</linearGradient>
<path class="st1" d="M444,10.8h67L506.3,34H467l-4,20.6h37.2l-4.5,22.9h-37.1l-7.8,41.1h-27.2L444,10.8z"/>
<linearGradient id="SVGID_00000167373867724150201990000018081024332531306398_" gradientUnits="userSpaceOnUse" x1="535.4152" y1="97.8217" x2="526.3877" y2="25.6016" gradientTransform="matrix(1 0 0 -1 0 132)">
	<stop  offset="0" style="stop-color:#F90000"/>
	<stop  offset="1" style="stop-color:#731110"/>
</linearGradient>
<path style="fill:url(#SVGID_00000167373867724150201990000018081024332531306398_);" d="M555.4,10.8L535,118.6h-27.2l20.3-107.8
	C528.1,10.8,555.4,10.8,555.4,10.8z"/>
<linearGradient id="SVGID_00000127730820118243767300000013118529992028127924_" gradientUnits="userSpaceOnUse" x1="612.022" y1="115.7041" x2="591.3243" y2="5.886" gradientTransform="matrix(1 0 0 -1 0 132)">
	<stop  offset="0" style="stop-color:#F90000"/>
	<stop  offset="1" style="stop-color:#731110"/>
</linearGradient>
<path style="fill:url(#SVGID_00000127730820118243767300000013118529992028127924_);" d="M610.4,118.6l-5.9-19.5
	c-1.8-6.4-3.2-11.2-5.3-18.4h-0.3c-3.7,6.7-6.1,11.8-10.2,19.5l-9.9,18.4H546l39.6-55.2l-18.4-52.6H596l5,17.6
	c1.8,6.7,3,11.5,4.8,18.5h0.5c4.3-8.2,6.7-13.1,9.9-19l9.1-17.1h32.5l-38.4,52.9l20.1,54.8L610.4,118.6L610.4,118.6z"/>
<path class="st0" d="M412.2,67.2c-0.4,0.1-0.7,0.2-1.1,0.2c-2.1,0.5-3.7,0.9-4.1,1.1c-4.6,1.3-6.8,2.7-12.7,5.1
	c-2.1,0.8-3.4,2.4-5.5,2.1c-0.8-0.1-1.5-0.4-2.8-0.5c-1.5-0.1-2.6,0.2-3.2,0.4c-22.2,6.4-30.6,10-30.6,10
	c-17.5,7.4-18.6,6.9-26.1,10.3l-10.6,20.8l-0.8,1.7h30.2l9.3-20.4h33.3l0.8,20.4h28.3L412.2,67.2z M407.4,9.8H370l-16.8,33
	c11.2-2.4,20.4-4.4,27-5.9c-11.8,5.4-22.3,10.1-31.1,14l-13.9,27.3c2.1-1.2,3.6-1.7,5.1-2.1c7.1-2.1,11.1-1.5,20.7-5.5
	c2.7-1.1,5.1-2.2,7.3-3.3L381,39.6c1.8-4,3.3-8.1,4.5-12.3c-0.2,2.8-0.3,6-0.3,9.7l0.1,6.4l0.8,19.3c0.3-0.1,0.5-0.1,0.8-0.2
	c4.9-1.1,7.5-3.1,14.7-4.5c0.5-0.1,1-0.2,1.5-0.3c1.2-0.2,2.2-0.3,2.7-0.4c1.9-0.2,3.8-0.4,5.5-0.6L407.4,9.8z"/>
</svg>
