<svg width="120" height="40" viewBox="0 0 120 40" fill="none" xmlns="http://www.w3.org/2000/svg">
<g id="logo-The-Verge-w 1">
<g id="Mask group">
<mask id="mask0_524_3884" style="mask-type:luminance" maskUnits="userSpaceOnUse" x="7" y="10" width="107" height="20">
<g id="Group">
<path id="Vector" d="M113.154 10.834H7.32129V29.1673H113.154V10.834Z" fill="white"/>
</g>
</mask>
<g mask="url(#mask0_524_3884)">
<g id="Group_2">
<path id="Vector_2" d="M7.32129 10.8933V15.7973H10.6037V28.7286H16.1517V10.8933M25.5197 17.6712H22.9234V15.7888H24.2298V10.8933H17.3837V28.7286H22.9234V21.9844H25.5197V28.7286H31.0759V10.8933H25.5197M32.2913 28.7286H42.5687V23.816H37.5912V21.7396H40.758V17.6712H37.5912V15.7973H42.5687V10.8933H32.2913M86.2662 16.9283C86.2662 13.0794 83.4803 10.8933 79.5277 10.8933H73.3513V28.7201H78.8993V24.1537L82.0743 28.7201H88.3337L83.8353 21.8831C85.4561 20.9799 86.2662 19.334 86.2662 16.9283ZM78.8828 18.9035V15.5863C79.6517 15.5863 80.5943 15.8227 80.8755 16.6836C80.9002 16.7596 80.9168 16.844 80.9416 16.9283C80.9416 16.9368 80.9416 16.9537 80.9499 16.9622C80.9582 17.0466 80.9746 17.1478 80.9746 17.2491C80.9746 18.5743 79.7923 18.9035 78.8828 18.9035ZM53.5572 21.7565H53.5076L53.1107 20.2878L51.8705 15.8058H54.0533L55.492 10.8933H44.4126L50.7626 28.7201H56.4511L57.1374 26.8125C57.1374 26.8125 60.1801 18.3887 61.842 13.7968V28.7201H72.1194V23.8076H67.1419V21.7312H70.3004V17.6712H67.1419V15.7973H72.1194V10.8848H56.7653L53.5572 21.7565ZM113.154 15.8058V10.9017H102.877V28.7286H113.154V23.816H108.169V21.7396H111.335V17.6881H108.169V15.8058" fill="white"/>
<path id="Vector_3" d="M101.812 24.9898V17.7223H93.9727V21.7738H96.8911V23.2172C96.6686 23.4198 96.1886 23.5295 95.6927 23.5295C93.6586 23.5295 92.1536 21.892 92.1536 19.8915C92.1536 17.8911 93.6169 16.1185 95.6511 16.1185C96.8827 16.1185 99.8019 16.1269 99.8019 16.1269V10.843H98.4702C95.9902 10.843 93.5177 10.6404 91.2444 11.8391C89.4502 12.7844 88.0277 14.3882 87.2752 16.2958C86.8369 17.4184 86.6152 18.6338 86.6152 19.8409C86.6152 24.8969 90.5002 29.1595 95.5352 29.1595C98.0327 29.1595 100.472 28.2057 101.803 27.0155C101.811 25.7832 101.812 25.5975 101.812 24.9898Z" fill="white"/>
</g>
</g>
</g>
</g>
</svg>
