<?xml version="1.0" encoding="UTF-8"?>
<svg id="Layer_1" data-name="Layer 1" xmlns="http://www.w3.org/2000/svg" xmlns:xlink="http://www.w3.org/1999/xlink" version="1.1" viewBox="0 0 2200 48">
  <defs>
    <style>
      .cls-1 {
        clip-path: url(#clippath);
      }

      .cls-2 {
        fill: none;
      }

      .cls-2, .cls-3 {
        stroke-width: 0px;
      }

      .cls-4 {
        mask: url(#mask);
      }

      .cls-3 {
        fill: #fff;
      }

      .cls-5 {
        mask: url(#mask-2);
      }

      .cls-6 {
        mask: url(#mask-1);
      }
    </style>
    <mask id="mask" x="9.6" y="3.6" width="241.3" height="39" maskUnits="userSpaceOnUse">
      <g id="mask0_5318_3017" data-name="mask0 5318 3017">
        <path class="cls-3" d="M250.9,3.6H9.6v39h241.3V3.6Z"/>
      </g>
    </mask>
    <mask id="mask-1" x="940.5" y="2.9" width="273.1" height="39" maskUnits="userSpaceOnUse">
      <g id="mask1_5318_3017" data-name="mask1 5318 3017">
        <path class="cls-3" d="M1213.6,2.9h-273.1v39h273.1V2.9Z"/>
      </g>
    </mask>
    <clipPath id="clippath">
      <rect class="cls-2" x="1307" y="-3.6" width="256.4" height="55.3"/>
    </clipPath>
    <mask id="mask-2" x="1956.5" y="3.7" width="233.9" height="40.5" maskUnits="userSpaceOnUse">
      <g id="mask2_5318_3017" data-name="mask2 5318 3017">
        <path class="cls-3" d="M2190.4,3.7h-233.9v40.5h233.9V3.7Z"/>
      </g>
    </mask>
  </defs>
  <g class="cls-4">
    <g>
      <path class="cls-3" d="M29.9,18.7h-5.8v13.3c0,2.3,1.3,2.8,3.4,2.8s1.6-.2,2.4-.2v7c-1.8,0-3.6.3-5.2.3-8.1,0-10.2-2.4-10.2-10.4v-12.8h-4.9v-6.3h4.9V3.6h9.6v8.8h5.8v6.3ZM38.3,29.5c.2,4.1,2.4,6.7,6.5,6.7s4.5-1.1,5.5-3.3h8.9c-1.6,6.8-7.9,9.8-14.4,9.8-9.6,0-16-5.7-16-15.6s7.1-15.4,15.7-15.4,15.7,8,15.2,17.9h-21.4ZM50.1,24.1c-.2-3.3-2.4-6-5.7-6s-5.7,2.4-6.2,6h11.8ZM80.7,23.1c0-2.4-2.3-4.2-4.7-4.2-5.3,0-6.2,4.6-6.2,8.6s1.6,7.6,5.7,7.6,5-2,5.5-5h9.2c-.8,8-6.8,12.5-14.6,12.5s-15.4-6-15.4-15,5.8-15.9,15.4-15.9,13.8,3.9,14.4,11.5h-9.4v-.2ZM90.6,3.6h9.6v12.8h.2c1.5-2.9,5.3-4.9,8.9-4.9,9.7,0,10.5,7.2,10.5,11.4v18.9h-9.6v-14.1c0-4.1.5-8.1-4.9-8.1s-5.2,3.1-5.2,6.3v15.9h-9.6V3.6ZM120.5,12.4h9.2v5.2h.2c1.5-3.7,4.7-5.7,8.7-5.7s1.5,0,2.3.2v8.8c-1.3-.3-2.4-.5-3.7-.5-4.7,0-7.1,3.3-7.1,7v14.5h-9.6V12.4ZM141,21.5c.2-3.9,1.9-6.3,4.5-7.8,2.6-1.5,6-2.1,9.2-2.1,7,0,13.6,1.5,13.6,9.8v12.8c0,2.4,0,5.2,1.1,7.5h-9.6c-.3-1-.5-1.8-.5-2.8-2.6,2.8-6.2,3.7-9.7,3.7-5.5,0-10-2.8-10-8.9,0-9.6,10.4-8.8,17-10.2,1.6-.3,2.6-1,2.6-2.8s-2.6-3.1-4.7-3.1-4.4,1.1-4.9,3.7h-8.7v.2ZM153.3,36.8c4.5,0,6.2-2.6,5.8-8.6-1.3.8-3.9,1-5.8,1.6-2.1.5-3.9,1.5-3.9,3.7s1.8,3.3,3.9,3.3ZM199.2,41.8h-9.1v-3.4h-.2c-.9,1.3-2,2.4-3.4,3.1-1.4.7-2.9,1.1-4.5,1.1-9.2,0-13.1-8-13.1-16.1s4-14.8,12.3-14.8,6.3,1.3,8.3,4.1h.2V3.6h9.6v38.2ZM178.5,26.9c0,4.1,1.5,8.5,5.8,8.5s5.7-4.4,5.7-8.1-1.5-8.1-5.7-8.1c-4.4-.2-5.8,4.1-5.8,7.8ZM200.7,21.5c.2-3.9,1.9-6.3,4.5-7.8,2.6-1.5,6-2.1,9.2-2.1,7,0,13.6,1.5,13.6,9.8v12.8c0,2.4,0,5.2,1.1,7.5h-9.6c-.3-1-.5-1.8-.5-2.8-2.6,2.8-6.3,3.7-9.7,3.7-5.5,0-10-2.8-10-8.9,0-9.6,10.4-8.8,17-10.2,1.6-.3,2.6-1,2.6-2.8s-2.6-3.1-4.7-3.1-4.4,1.1-4.9,3.7h-8.7v.2ZM213,36.8c4.5,0,6.2-2.6,5.8-8.6-1.3.8-3.9,1-5.8,1.6-2.1.5-3.9,1.5-3.9,3.7-.2,2.3,1.8,3.3,3.9,3.3ZM229.5,12.4h9.2v5.2h.2c1.5-3.7,4.7-5.7,8.7-5.7s2.4,0,3.2.2v8.8c-1.3-.3-3.2-.5-4.5-.5-4.7,0-7.1,3.3-7.1,7v14.5h-9.6V12.4h-.2Z"/>
      <path class="cls-3" d="M241.4,32.2h9.6v9.6h-9.6v-9.6Z"/>
    </g>
  </g>
  <path class="cls-3" d="M410.3,16.6h25.5V3.6h-25.5v13Z"/>
  <path class="cls-3" d="M359.2,3.6v13h12.7v26h12.7v-26h12.8V3.6h-38.3Z"/>
  <path class="cls-3" d="M397.5,42.7h38.3v-13h-25.5v-13h-12.7v26Z"/>
  <path class="cls-3" d="M468.4,13.4h-18.8v5.4h6.3v17h6.2v-17h6.3v-5.4Z"/>
  <path class="cls-3" d="M475.4,18.7c-4.4,0-7.7,3-7.7,8.8s2.8,8.7,7.8,8.7,4.8-.7,6.8-1.9l-2.2-3.7c-1.7.9-2.9,1.2-4.4,1.2s-2.6-.8-2.9-2.7h9.9c0-.3,0-.6,0-1.1,0-6.2-2.8-9.3-7.5-9.3ZM473.1,25.5c.2-1.7.9-2.5,2.2-2.5s2.3.9,2.5,2.5h-4.8Z"/>
  <path class="cls-3" d="M493.9,31.5c-1.5,0-2.4-1.4-2.4-4.1s.7-4.1,2.2-4.1,1.8.7,2.6,2.2l4-3c-1.5-2.4-3.3-3.8-6.5-3.8-5.4,0-8,3.6-8,8.7s3,8.8,7.9,8.8,4.8-1.1,6.7-4l-3.6-2.9c-1.1,1.6-1.8,2.2-2.9,2.2Z"/>
  <path class="cls-3" d="M513.7,18.7c-2,0-3.2.7-4.2,1.5v-7.6l-5.8,2.3v21h5.8v-9.6c0-2.1.7-2.7,2-2.7s1.9.6,1.9,2.7v9.6h5.8v-10.3c0-4.4-1.8-6.9-5.4-6.9Z"/>
  <path class="cls-3" d="M533,30.8c-2.7,0-3.8-2.7-3.8-6.1s1.1-6.1,3.7-6.1,2.8,1.3,3.6,3.4l5.6-2.2c-1.5-4.2-3.7-6.6-9.2-6.6s-10.2,4.4-10.2,11.6,3.6,11.6,10.2,11.6,7.8-2.9,9.3-5.8l-5.2-2.8c-1.2,2.1-2.1,3.1-4,3.1Z"/>
  <path class="cls-3" d="M551.6,20.3v-1.2h-5.8v16.8h5.8v-9.2c0-2,.9-2.7,2.3-2.7s2,.6,2.7,1.4l1.4-6c-.7-.4-1.5-.7-2.7-.7s-2.6.6-3.6,1.6Z"/>
  <path class="cls-3" d="M570.2,28.6c0,2.1-.7,2.7-1.9,2.7s-1.9-.6-1.9-2.7v-9.6h-5.8v10.3c0,4.4,1.8,6.9,5.5,6.9s3.2-.7,4.2-1.5v1.1h5.8v-16.8h-5.8v9.6"/>
  <path class="cls-3" d="M590.2,18.7c-2,0-3.2.7-4.2,1.5v-1.1h-5.8v16.8h5.8v-9.6c0-2.1.7-2.7,2-2.7s1.9.6,1.9,2.7v9.6h5.8v-10.3c0-4.3-1.7-6.8-5.4-6.8Z"/>
  <path class="cls-3" d="M607.1,31.5c-1.5,0-2.4-1.4-2.4-4.1s.7-4.1,2.2-4.1,1.8.7,2.6,2.2l4-3c-1.5-2.4-3.3-3.8-6.5-3.8-5.4,0-8,3.6-8,8.7s3,8.8,7.9,8.8,4.8-1.1,6.7-4l-3.6-2.9c-1,1.6-1.8,2.2-2.9,2.2Z"/>
  <path class="cls-3" d="M627,18.7c-2,0-3.2.7-4.2,1.5v-7.6l-5.8,2.3v21h5.8v-9.6c0-2.1.7-2.7,2-2.7s1.9.6,1.9,2.7v9.6h5.8v-10.3c0-4.4-1.7-6.9-5.4-6.9Z"/>
  <path class="cls-3" d="M740.1,3.8v38.7h11.8v-12.5h10.7v-10.6h-10.7v-5.1h13.1l-.7-10.6h-24.2Z"/>
  <path class="cls-3" d="M783.9,3.8c-10.8,0-19.5,8.6-19.5,19.3s8.7,19.3,19.5,19.3,19.4-8.6,19.4-19.3-8.7-19.3-19.4-19.3ZM783.9,11.8c1.8,0,3.3,1.5,3.3,3.3v16.2c0,1.8-1.5,3.3-3.3,3.3s-3.3-1.5-3.3-3.3V15c0-1.8,1.5-3.3,3.3-3.3Z"/>
  <path class="cls-3" d="M797.5,3.8l11,19.3-11,19.3h12.6l4.7-8.3,4.7,8.3h12.6l-11-19.3,11-19.3h-12.6l-4.7,8.3-4.7-8.3h-12.6Z"/>
  <g class="cls-6">
    <g>
      <path class="cls-3" d="M985.3,37.3V7.5c0-1.5.4-2.7,1.1-3.5.7-.8,1.6-1.2,2.7-1.2s2.1.4,2.8,1.1c.7.8,1.1,1.9,1.1,3.5v29.7c0,1.6-.4,2.7-1.1,3.5-.7.8-1.7,1.2-2.8,1.2s-2-.4-2.7-1.2c-.7-.8-1.1-1.9-1.1-3.5Z"/>
      <path class="cls-3" d="M1194,10.8c-6.4,0-11.7,5.2-11.7,11.6s5.2,11.6,11.7,11.6,11.7-5.2,11.7-11.6-5.2-11.6-11.7-11.6ZM1194,41.9c-10.8,0-19.6-8.7-19.6-19.5s8.8-19.5,19.6-19.5,19.6,8.7,19.6,19.5-8.8,19.5-19.6,19.5Z"/>
      <path class="cls-3" d="M1106.1,10.8c-6.4,0-11.7,5.2-11.7,11.6s5.2,11.6,11.7,11.6,11.7-5.2,11.7-11.6-5.2-11.6-11.7-11.6ZM1106.1,41.9c-10.8,0-19.6-8.7-19.6-19.5s8.8-19.5,19.6-19.5,19.6,8.7,19.6,19.5-8.8,19.5-19.6,19.5Z"/>
      <path class="cls-3" d="M1150,33.9c-.9,0-2,0-3.1,0h-5.1V10.8h5.1c1.1,0,2.1,0,3.1,0,3.4.4,6.4,2.3,8.2,4.9,1.3,1.9,2.1,4.1,2.1,6.6h0c0,2.5-.8,4.7-2.1,6.6-1.9,2.7-4.8,4.5-8.2,4.9ZM1168.2,22.4h0c0-4.3-1.4-8.3-3.8-11.5-3.5-4.7-9-7.8-15.2-8-.2,0-.4,0-.6,0s-9.8,0-9.8,0c-1.7,0-2.9.4-3.6,1.1-.8.8-1.1,2-1.1,3.7v29.3c0,1.7.4,2.9,1.1,3.7.7.8,2,1.1,3.6,1.1,0,0,9.8,0,9.8,0,.2,0,.4,0,.6,0,6.2-.2,11.8-3.3,15.2-8,2.4-3.2,3.8-7.2,3.8-11.5h0Z"/>
      <path class="cls-3" d="M1075.5,3.1c-1.4-.4-3,.1-3.8,1.4l-11.8,17.9-11.8-17.9c-.8-1.3-2.4-1.8-3.8-1.4-1.4.4-2.4,1.8-2.4,3.3v31.8c0,1.9,1.5,3.5,3.4,3.5s3.4-1.5,3.4-3.5v-20.5l8.4,12.7s0,0,0,0h0s0,0,0,0c0,0,.1.2.2.2,0,0,0,0,0,0,0,0,0,.1.1.2,0,0,0,0,.1.1,0,0,0,0,.1,0,0,0,.1.1.2.2,0,0,0,0,0,0,0,0,0,0,0,0,0,0,.2,0,.2.1,0,0,0,0,0,0,0,0,.1,0,.2,0,.3.2.7.3,1.1.3h0c0,0,.1,0,.2,0,0,0,0,0,.1,0s0,0,.1,0c0,0,.1,0,.2,0h0c.4,0,.7-.1,1.1-.3,0,0,.1,0,.2,0,0,0,0,0,0,0,0,0,.2,0,.2-.1,0,0,0,0,0,0,0,0,0,0,0,0,0,0,.1,0,.2-.2,0,0,0,0,.1,0,0,0,0,0,.1-.1,0,0,0-.1.1-.2,0,0,0,0,0,0,0,0,.1-.1.2-.2,0,0,0,0,0,0h0s0,0,0,0l8.4-12.7v20.5c0,1.9,1.5,3.5,3.4,3.5s3.4-1.5,3.4-3.5V6.4c0-1.5-1-2.9-2.4-3.3Z"/>
      <path class="cls-3" d="M1030.3,40.7h-25.4c-1.3,0-2.8-.8-3.4-2.1-.6-1.3-.7-3.1.5-4.5l20.8-24h-17.2c-1.9,0-3.4-1.6-3.4-3.6s1.5-3.2,3.4-3.2h23.1c1.3,0,2.7.2,3.9,1.5,1.1,1.2,1.1,3.8-.2,5.4l-20.1,23.3h17.8c1.9,0,3.2,1.6,3.2,3.6s-1.4,3.6-3.2,3.6Z"/>
      <path class="cls-3" d="M960,41.9c-5.6,0-10.7-2.2-14.4-6.3-3.2-3.6-5.1-8.2-5.1-12.9,0-14.5,12.1-19.9,19.7-19.9s13,3.7,13.2,3.8c1.7,1.1,2.1,3.4,1,5.1-1.1,1.7-3.4,2.2-5.1,1,0,0-4-2.6-9.1-2.6s-11.4,3.1-11.4,12.5,4,11.6,11.2,11.6,7-1.1,8.6-2.1v-5.5h-5.7c-2,0-3.7-1.7-3.7-3.7s1.6-3.7,3.7-3.7h9.3c2,0,3.7,1.7,3.7,3.7v11c0,1-.4,2-1.1,2.7-2.5,2.4-7.9,5.2-15,5.2Z"/>
    </g>
  </g>
  <g class="cls-1">
    <g>
      <path class="cls-3" d="M1313.8-3.6l-4,10.3h11l-13.7,34.2h16.1l13.7-34.2h11l4-10.3h-38.1Z"/>
      <path class="cls-3" d="M1346.5,34c3.2,0,4.3-2,7.4-9.7,3-7.7,3.3-9.7.5-9.7s-4.4,2-7.4,9.7c-3.1,7.7-3.4,9.7-.5,9.7ZM1357.3,7c17.8,0,14.3,9.4,11.1,17.4-5.3,13.1-7.7,17.3-24.9,17.3s-15.7-8.5-12.2-17.4c5.7-14.3,8.7-17.4,26-17.4Z"/>
      <path class="cls-3" d="M1392.5,15.8c-3.1,0-4.4,2.4-6.9,8.6-2.4,6.1-2.9,8.6.2,8.6s4.5-2.4,6.9-8.6c2.5-6.2,2.9-8.6-.2-8.6ZM1376.7,7.8h15.4l-1.4,3.8h.2c1.1-1.6,4-4.2,10.8-4.2,12.7,0,10.6,7.3,6.5,17.4-5.4,13.6-8.4,16.9-19.3,16.9s-7.6-1.7-7.8-4.7h-.2l-5.7,14.6h-15.6l17.3-43.8Z"/>
      <path class="cls-3" d="M1433.4,17.1h19.7l-9.4,23.8h-11.2l1-3.6h-.2c-4.2,3.9-6.2,4.4-13.6,4.4-16.4,0-12.9-10.1-7.9-22.6,7.9-19.8,9.9-22.7,29.6-22.7s17,6.1,13.5,14.8h-15.2l.6-1.8c1.4-3.2,1-4.9-2.1-4.9s-5.3,2.8-6.3,5.4l-7.1,18c-1,2.7-2,5.8,1.9,5.8s5.5-2.2,6.7-5.5l1.2-3h-4.6l3.2-8.1Z"/>
      <path class="cls-3" d="M1477,18.1c1.3-3.3.7-4.2-1.8-4.2s-3.7.9-5,4.2l-.8,1.9h6.8l.8-1.9ZM1465.3,30.6c-.7,1.8-1.5,4.2,1.7,4.2s4.3-2.1,5.6-5.5h14.2c-1.8,4.5-3.8,8.4-7.8,10.2-3.8,1.7-6.4,2.2-14.6,2.2-16.5,0-16.2-7.2-12.2-17.4,6.7-16.5,8.7-17.3,26-17.3s14.9,9,10.6,18.7l-.3.6h-21.5l-1.7,4.4Z"/>
      <path class="cls-3" d="M1512.2,24.8c-1.2.5-2.5.8-4.4,1.3-2.8.7-3.9,2.2-4.6,4.2-.8,1.9-.4,3.3,1.8,3.3,3.1,0,4.6-2.1,5.3-4l1.9-4.7ZM1522,36c-.6,1.7-.9,3.3-.5,4.9h-14.7c0-1.2.2-2.4.6-3.5h-.2c-3.1,3.2-3.6,4.3-11.9,4.3s-10.5-3.5-8-9.7c2.9-7.3,8.2-9.3,14.5-10.4l7.8-1.3c3.5-.6,4.9-1.3,5.7-3.4.6-1.7-.3-2.6-2-2.6-3.3,0-4.5,1.9-5.3,3.8h-13.7c4.1-10.6,9.1-11.1,22-11.1s15.3,4.4,13.3,9.5l-7.7,19.5Z"/>
      <path class="cls-3" d="M1535.9,7.8h15.2l-1.9,4.9h.2c2.8-3.2,7.3-5.3,11.6-5.3s2.1.1,2.5.2l-4.2,10.4c-.6,0-1.2-.1-1.9-.2-.6,0-1.3,0-2.9,0-5.4,0-7.6,2.2-9.1,6.1l-6.7,17h-15.7l13.1-33.1Z"/>
    </g>
  </g>
  <path class="cls-3" d="M1816,10.6v27h12.8c3.6,0,5.6-.6,7.2-2,1.9-1.8,2.8-4.9,2.8-11.5s-.9-9.8-2.8-11.5c-1.5-1.4-3.6-2-7.2-2h-12.8ZM1833.6,24c0,5.9-.4,7.2-1.5,8-.8.6-1.7.8-3.6.8h-7.2V15.1h7.2c1.9,0,2.8,0,3.6.8,1.1,1,1.5,2.3,1.5,8.2ZM1845.4,43.5h-37.5V4.5h37.5v39ZM1777.2,15.1v-4.5h22.2v8.6h-4.7v-4.1h-9v6.5h7.2v4.3h-7.2v7.2h9.2v-4.7h4.7v9.2h-22.4v-4.5h3.6V15.1h-3.6ZM1757,30.5c0,2.9.2,5.1.6,6.8h5.1c-.2-1.4-.4-3.9-.4-7.2-.2-3.9-1.3-4.5-4-5.1,3-.6,4.3-2,4.3-6.8s-.6-5.5-1.7-6.5c-.8-.8-2.1-1.2-4.1-1.2h-15.8v27h5.3v-10.6h7.3c1.5,0,2.1.2,2.6.6s.8,1,.8,2.9ZM1746.3,22.7v-7.4h8.5c1.1,0,1.5.2,1.7.4.4.4.8,1,.8,3.3s-.4,3.1-.8,3.5c-.2.2-.6.4-1.7.4l-8.5-.2ZM1770.2,43.5h-37.6V4.5h37.5v39h0ZM1722.8,33v4.5h-17.9v-4.5h6.4V15.1h-6.4v-4.5h17.9v4.5h-6.4v18h6.4ZM1692.6,10.6h-4.9l-3.6,21.3-4.1-19.7c-.2-1.4-.8-1.6-1.9-1.6h-2.6c-1.1,0-1.7.4-1.9,1.6l-4.1,19.7-3.6-21.3h-5.3l5.1,25.6c.2,1.2.6,1.4,1.9,1.4h3.6c1.1,0,1.5-.2,1.9-1.4l4-18.6,4,18.6c.2,1.2.6,1.4,1.9,1.4h3.4c1.1,0,1.7-.2,1.9-1.4l4.5-25.6ZM1695.2,43.5h-37.6V4.5h37.5v39h0Z"/>
  <g class="cls-5">
    <g>
      <path class="cls-3" d="M1956.5,3.9v10.8h7.3v28.6h12.3V3.9M1996.7,18.9h-5.7v-4.2h2.9V3.9h-15.1v39.4h12.2v-14.9h5.7v14.9h12.3V3.9h-12.3M2011.6,43.3h22.7v-10.9h-11v-4.6h7v-9h-7v-4.1h11V3.9h-22.7M2130.9,17.2c0-8.5-6.2-13.3-14.9-13.3h-13.7v39.4h12.3v-10.1l7,10.1h13.8l-9.9-15.1c3.6-2,5.4-5.6,5.4-11ZM2114.6,21.6v-7.3c1.7,0,3.8.5,4.4,2.4,0,.2,0,.4.1.5,0,0,0,0,0,0,0,.2,0,.4,0,.6,0,2.9-2.6,3.7-4.6,3.7ZM2058.6,27.9h-.1l-.9-3.2-2.7-9.9h4.8l3.2-10.9h-24.5l14,39.4h12.6l1.5-4.2s6.7-18.6,10.4-28.8v33h22.7v-10.9h-11v-4.6h7v-9h-7v-4.1h11V3.9h-33.9l-7.1,24ZM2190.4,14.7V3.9h-22.7v39.4h22.7v-10.9h-11v-4.6h7v-9h-7v-4.2"/>
      <path class="cls-3" d="M2165.3,35v-16.1h-17.3v9h6.4v3.2c-.5.4-1.6.7-2.6.7-4.5,0-7.8-3.6-7.8-8s3.2-8.3,7.7-8.3,9.2,0,9.2,0V3.8h-2.9c-5.5,0-10.9-.4-16,2.2-4,2.1-7.1,5.6-8.8,9.9-1,2.5-1.5,5.2-1.5,7.8,0,11.2,8.6,20.6,19.7,20.6s10.9-2.1,13.9-4.7c0-2.7,0-3.1,0-4.5Z"/>
    </g>
  </g>
</svg>