<svg width="100" height="40" viewBox="0 0 100 40" fill="none" xmlns="http://www.w3.org/2000/svg">
<g id="logo-Wired-w">
<path id="Vector" d="M78.7995 13.9182V26.1262H84.5897C86.2072 26.1262 87.1438 25.8608 87.8247 25.2415C88.6763 24.4454 89.1022 23.0299 89.1022 20.0222C89.1022 17.0144 88.6763 15.599 87.8247 14.8029C87.1438 14.1836 86.2072 13.9182 84.5897 13.9182H78.7995ZM86.718 20.0222C86.718 22.6761 86.548 23.2954 86.0372 23.6492C85.6963 23.9145 85.2705 24.003 84.4188 24.003H81.1836V15.9529H84.4188C85.2705 15.9529 85.6963 15.9529 86.0372 16.3067C86.548 16.749 86.718 17.3683 86.718 20.0222ZM92.0822 28.8246H75.0953V11.1758H92.0822V28.8246ZM61.2172 15.9529V13.9182H71.2644V17.8106H69.1351V15.9529H65.0481V18.8721H68.2836V20.8184H65.0481V24.0915H69.2209V21.9684H71.3488V26.1262H61.2178V24.0915H62.8349V15.9529H61.2172ZM52.1065 22.9414C52.1065 24.2684 52.191 25.2415 52.3613 26.0377H54.6609C54.5751 25.4184 54.4906 24.2684 54.4906 22.7645C54.4048 20.9953 53.8939 20.7299 52.7018 20.4645C54.0642 20.1991 54.6609 19.5799 54.6609 17.3683C54.6609 15.599 54.4048 14.8913 53.8939 14.4489C53.5533 14.0951 52.958 13.9182 52.0207 13.9182H44.8684V26.1262H47.2525V21.3491H50.5739C51.2551 21.3491 51.5098 21.4376 51.7659 21.6145C52.0221 21.7914 52.1065 22.0569 52.1065 22.9414ZM47.2525 19.4029V16.0413H51.0848C51.5957 16.0413 51.7659 16.1298 51.8504 16.2183C52.0207 16.3952 52.191 16.6605 52.191 17.7221C52.191 18.7837 52.0207 19.1375 51.8504 19.3144C51.7659 19.4029 51.5957 19.4914 51.0848 19.4914L47.2525 19.4029ZM58.0668 28.8246H41.0375V11.1758H58.0238V28.8246H58.0668ZM36.6099 24.0915V26.1262H28.5203V24.0915H31.4153V15.9529H28.5203V13.9182H36.6093V15.9529H33.7143V24.0915H36.6099ZM22.9436 13.9182H20.7298L19.1121 23.5607L17.2388 14.6259C17.1537 14.0066 16.8983 13.9182 16.3873 13.9182H15.1953C14.6844 13.9182 14.429 14.0951 14.3438 14.6259L12.4707 23.5607L10.8528 13.9182H8.46879L10.7678 25.5069C10.8528 26.0377 11.0232 26.1262 11.6192 26.1262H13.237C13.7478 26.1262 13.9182 26.0377 14.0884 25.5069L15.8765 17.1029L17.6646 25.5069C17.7497 26.0377 17.92 26.1262 18.516 26.1262H20.0487C20.5595 26.1262 20.815 26.0377 20.9001 25.5069L22.9436 13.9182ZM24.1357 28.8246H7.10645V11.1758H24.0934V28.8246H24.1357Z" fill="white"/>
</g>
</svg>
