<?xml version="1.0" encoding="utf-8"?>
<!-- Generator: Adobe Illustrator 27.0.0, SVG Export Plug-In . SVG Version: 6.00 Build 0)  -->
<svg version="1.1" id="Layer_1" xmlns="http://www.w3.org/2000/svg" xmlns:xlink="http://www.w3.org/1999/xlink" x="0px" y="0px"
	 viewBox="0 0 663.7 130.1" style="enable-background:new 0 0 663.7 130.1;" xml:space="preserve">
<style type="text/css">
	.st0{fill:url(#SVGID_1_);}
	.st1{fill:url(#SVGID_00000159458187807067958280000012163290390729906087_);}
	.st2{fill:url(#SVGID_00000101086595863427908850000015840980602743303337_);}
</style>
<g>
	<g>
		<path d="M5.9,118.6L26.2,10.8h32.5l9.8,32.5c4.2,14.4,7.2,26.7,9.9,39.8h0.5c0.5-11.7,2.1-24.8,5.1-40.8l5.9-31.5h25.4L94.8,118.6
			H66.3L55.5,83.4C51,68.2,47.8,57.5,44.8,43h-0.6c-1.1,10.7-4,28-7.4,45.9l-5.6,29.7H5.9z"/>
		<path d="M161.8,10.8l-11.5,61.1c-0.8,3.5-1.3,7.7-1.3,12.5c0.2,6.6,4.3,13.3,13.9,13.3c10.9,0,17.6-7.2,21.1-25.4l11.5-61.4h27.3
			l-11.4,59.8c-6.2,32.9-19.8,49.7-52,49.7c-24.1,0-37.7-12.2-37.7-35.5c0-4.6,0.6-10.1,1.6-15.2l11.2-58.8H161.8z"/>
		<path d="M242.2,13.1c7.4-1.9,19.2-3,31-3c10.1,0,21.3,1.1,29.6,5.6c7.7,4.2,13.6,11.2,13.6,22.4c0,16.1-10.1,25.3-23.8,30.2
			l-0.2,0.5c5.9,3,8.5,9.8,9.6,18.9c1.4,10.9,2.2,26.5,4.3,31h-28c-1-3.2-2.1-11.5-3.2-25.3C274,81.2,270,78,261.6,78h-5l-7.7,40.6
			h-27L242.2,13.1z M260.6,57.9h8.5c10.6,0,19-6.1,19-15.7c0-7.4-6.7-10.7-14.7-10.7c-3.8,0-6.2,0.3-8,0.6L260.6,57.9z"/>
		<linearGradient id="SVGID_1_" gradientUnits="userSpaceOnUse" x1="473.8495" y1="28.7903" x2="456.1567" y2="114.2714">
			<stop  offset="0" style="stop-color:#F90000"/>
			<stop  offset="1" style="stop-color:#731110"/>
		</linearGradient>
		<path class="st0" d="M444,10.8h67L506.3,34H467l-4,20.6h37.2l-4.5,22.9h-37.1l-7.8,41.1h-27.2L444,10.8z"/>
		
			<linearGradient id="SVGID_00000161606393119487140530000008311277062550177678_" gradientUnits="userSpaceOnUse" x1="535.4237" y1="34.1794" x2="526.3962" y2="106.3995">
			<stop  offset="0" style="stop-color:#F90000"/>
			<stop  offset="1" style="stop-color:#731110"/>
		</linearGradient>
		<path style="fill:url(#SVGID_00000161606393119487140530000008311277062550177678_);" d="M555.4,10.8L535,118.6h-27.2l20.3-107.8
			H555.4z"/>
		
			<linearGradient id="SVGID_00000010282345892100677090000012788981255738717090_" gradientUnits="userSpaceOnUse" x1="612.0389" y1="16.2991" x2="591.3412" y2="126.1172">
			<stop  offset="0" style="stop-color:#F90000"/>
			<stop  offset="1" style="stop-color:#731110"/>
		</linearGradient>
		<path style="fill:url(#SVGID_00000010282345892100677090000012788981255738717090_);" d="M610.4,118.6l-5.9-19.5
			c-1.8-6.4-3.2-11.2-5.3-18.4h-0.3c-3.7,6.7-6.1,11.8-10.2,19.5l-9.9,18.4H546l39.6-55.2l-18.4-52.6H596l5,17.6
			c1.8,6.7,3,11.5,4.8,18.5h0.5c4.3-8.2,6.7-13.1,9.9-19l9.1-17.1h32.5l-38.4,52.9l20.1,54.8H610.4z"/>
	</g>
	<path d="M412.2,67.2c-0.4,0.1-0.7,0.2-1.1,0.2c-2.1,0.5-3.7,0.9-4.1,1.1c-4.6,1.3-6.8,2.7-12.7,5.1c-2.1,0.8-3.4,2.4-5.5,2.1
		c-0.8-0.1-1.5-0.4-2.8-0.5c-1.5-0.1-2.6,0.2-3.2,0.4c-22.2,6.4-30.6,10-30.6,10c-17.5,7.4-18.6,6.9-26.1,10.3l-10.6,20.8l-0.8,1.7
		h30.2l9.3-20.4h33.3l0.8,20.4h28.3L412.2,67.2z M407.4,9.8H370l-16.8,33c11.2-2.4,20.4-4.4,27-5.9c-11.8,5.4-22.3,10.1-31.1,14
		l-13.9,27.3c2.1-1.2,3.6-1.7,5.1-2.1c7.1-2.1,11.1-1.5,20.7-5.5c2.7-1.1,5.1-2.2,7.3-3.3l12.7-27.7c1.8-4,3.3-8.1,4.5-12.3
		c-0.2,2.8-0.3,6-0.3,9.7l0.1,6.4l0.8,19.3c0.3-0.1,0.5-0.1,0.8-0.2c4.9-1.1,7.5-3.1,14.7-4.5c0.5-0.1,1-0.2,1.5-0.3
		c1.2-0.2,2.2-0.3,2.7-0.4c1.9-0.2,3.8-0.4,5.5-0.6L407.4,9.8z"/>
</g>
</svg>
