<svg width="156" height="52" viewBox="0 0 156 52" fill="none" xmlns="http://www.w3.org/2000/svg">
<path d="M9.66943 23.6538C9.66943 23.3993 9.632 23.1709 9.55713 22.9688C9.48226 22.7591 9.34375 22.5645 9.1416 22.3848C8.93945 22.2051 8.64746 22.0254 8.26562 21.8457C7.89128 21.6585 7.39714 21.4639 6.7832 21.2617C6.06445 21.0221 5.37191 20.7526 4.70557 20.4531C4.03923 20.1462 3.44401 19.7905 2.91992 19.3862C2.39583 18.9744 1.98031 18.4953 1.67334 17.9487C1.36637 17.3947 1.21289 16.7508 1.21289 16.0171C1.21289 15.3133 1.37012 14.6807 1.68457 14.1191C1.99902 13.5501 2.43701 13.0672 2.99854 12.6704C3.56755 12.2661 4.23389 11.9591 4.99756 11.7495C5.76123 11.5324 6.59603 11.4238 7.50195 11.4238C8.69987 11.4238 9.75553 11.6335 10.6689 12.0527C11.5898 12.4645 12.3086 13.0522 12.8252 13.8159C13.3493 14.5721 13.6113 15.4668 13.6113 16.5H9.69189C9.69189 16.0882 9.60579 15.7251 9.43359 15.4106C9.26888 15.0962 9.01807 14.8491 8.68115 14.6694C8.34424 14.4897 7.92122 14.3999 7.41211 14.3999C6.91797 14.3999 6.50244 14.4748 6.16553 14.6245C5.82861 14.7743 5.57406 14.9764 5.40186 15.231C5.22965 15.478 5.14355 15.7513 5.14355 16.0508C5.14355 16.2979 5.21094 16.5225 5.3457 16.7246C5.48796 16.9193 5.68636 17.1027 5.94092 17.2749C6.20296 17.4471 6.51742 17.6118 6.88428 17.769C7.25863 17.9263 7.6779 18.0798 8.14209 18.2295C9.01058 18.5065 9.78174 18.8172 10.4556 19.1616C11.1369 19.4985 11.7096 19.8841 12.1738 20.3184C12.6455 20.7451 13.0011 21.2318 13.2407 21.7783C13.4878 22.3249 13.6113 22.9425 13.6113 23.6313C13.6113 24.3651 13.4691 25.0164 13.1846 25.5854C12.9001 26.1545 12.492 26.6374 11.9604 27.0342C11.4289 27.4235 10.7925 27.7192 10.0513 27.9214C9.31006 28.1235 8.48275 28.2246 7.56934 28.2246C6.73079 28.2246 5.90348 28.1198 5.0874 27.9102C4.27881 27.693 3.54508 27.3636 2.88623 26.9219C2.22738 26.4727 1.69954 25.8999 1.30273 25.2036C0.913411 24.4998 0.71875 23.665 0.71875 22.6992H4.67188C4.67188 23.1784 4.73551 23.5827 4.86279 23.9121C4.99007 24.2415 5.17725 24.5073 5.42432 24.7095C5.67139 24.9041 5.97461 25.0464 6.33398 25.1362C6.69336 25.2186 7.10514 25.2598 7.56934 25.2598C8.07096 25.2598 8.47526 25.1886 8.78223 25.0464C9.08919 24.8966 9.3138 24.702 9.45605 24.4624C9.59831 24.2153 9.66943 23.9458 9.66943 23.6538ZM25.9429 22.4634H29.8735C29.8211 23.6014 29.5142 24.6047 28.9526 25.4731C28.3911 26.3416 27.6125 27.0192 26.6167 27.5059C25.6284 27.985 24.4604 28.2246 23.1128 28.2246C22.0197 28.2246 21.0426 28.0412 20.1816 27.6743C19.3281 27.3075 18.6019 26.7796 18.0029 26.0908C17.4115 25.402 16.9585 24.5672 16.644 23.5864C16.3371 22.6056 16.1836 21.5013 16.1836 20.2734V19.3862C16.1836 18.1584 16.3446 17.054 16.6665 16.0732C16.9959 15.085 17.4601 14.2464 18.0591 13.5576C18.6655 12.8613 19.3918 12.3298 20.2378 11.9629C21.0838 11.596 22.0234 11.4126 23.0566 11.4126C24.4792 11.4126 25.6808 11.6672 26.6616 12.1763C27.6424 12.6854 28.4023 13.3854 28.9414 14.2764C29.4805 15.1598 29.7987 16.1668 29.896 17.2974H25.9653C25.9504 16.6834 25.8455 16.1706 25.6509 15.7588C25.4562 15.3395 25.1493 15.0251 24.73 14.8154C24.3107 14.6058 23.7529 14.501 23.0566 14.501C22.57 14.501 22.147 14.5908 21.7876 14.7705C21.4282 14.9502 21.1287 15.2347 20.8892 15.624C20.6496 16.0133 20.4699 16.5187 20.3501 17.1401C20.2378 17.7541 20.1816 18.4953 20.1816 19.3638V20.2734C20.1816 21.1419 20.234 21.8831 20.3389 22.4971C20.4437 23.111 20.6121 23.6126 20.8442 24.002C21.0763 24.3913 21.3758 24.6795 21.7427 24.8667C22.117 25.0464 22.5737 25.1362 23.1128 25.1362C23.7118 25.1362 24.2171 25.0426 24.6289 24.8555C25.0407 24.6608 25.3589 24.3688 25.5835 23.9795C25.8081 23.5827 25.9279 23.0773 25.9429 22.4634ZM43.7549 18.1396V21.1719H35.3657V18.1396H43.7549ZM36.6797 11.6484V28H32.7378V11.6484H36.6797ZM46.4053 11.6484V28H42.4746V11.6484H46.4053ZM58.7817 11.6484H62.7236V22.3286C62.7236 23.6014 62.4578 24.6795 61.9263 25.563C61.3947 26.439 60.6497 27.1016 59.6914 27.5508C58.7331 28 57.6063 28.2246 56.311 28.2246C55.0308 28.2246 53.904 28 52.9307 27.5508C51.9648 27.1016 51.2087 26.439 50.6621 25.563C50.123 24.6795 49.8535 23.6014 49.8535 22.3286V11.6484H53.8066V22.3286C53.8066 23.0024 53.904 23.5527 54.0986 23.9795C54.2933 24.3988 54.5778 24.7057 54.9521 24.9004C55.3265 25.0951 55.7795 25.1924 56.311 25.1924C56.8501 25.1924 57.3031 25.0951 57.6699 24.9004C58.0368 24.7057 58.3138 24.3988 58.501 23.9795C58.6882 23.5527 58.7817 23.0024 58.7817 22.3286V11.6484ZM51.5942 9.18896C51.5942 8.76969 51.7627 8.41781 52.0996 8.1333C52.4365 7.84131 52.8333 7.69531 53.29 7.69531C53.7542 7.69531 54.151 7.84131 54.4805 8.1333C54.8174 8.41781 54.9858 8.76969 54.9858 9.18896C54.9858 9.60824 54.8174 9.96387 54.4805 10.2559C54.151 10.5404 53.7542 10.6826 53.29 10.6826C52.8333 10.6826 52.4365 10.5404 52.0996 10.2559C51.7627 9.96387 51.5942 9.60824 51.5942 9.18896ZM57.4229 9.18896C57.4229 8.76969 57.5913 8.41781 57.9282 8.1333C58.2651 7.84131 58.6619 7.69531 59.1187 7.69531C59.5828 7.69531 59.9797 7.84131 60.3091 8.1333C60.646 8.41781 60.8145 8.76969 60.8145 9.18896C60.8145 9.60824 60.646 9.96387 60.3091 10.2559C59.9797 10.5404 59.5828 10.6826 59.1187 10.6826C58.6619 10.6826 58.2651 10.5404 57.9282 10.2559C57.5913 9.96387 57.4229 9.60824 57.4229 9.18896ZM74.123 11.6484V28H70.1812V11.6484H74.123ZM79.042 11.6484V14.6919H65.3745V11.6484H79.042ZM93.9565 24.9678V28H82.1196V24.9678H93.9565ZM93.8779 13.6699L84.0737 28H81.2212V25.9224L91.1377 11.6484H93.8779V13.6699ZM92.6089 11.6484V14.6919H81.165V11.6484H92.6089ZM108.006 24.9678V28H99.2915V24.9678H108.006ZM100.695 11.6484V28H96.7534V11.6484H100.695ZM106.883 18.1396V21.0708H99.2915V18.1396H106.883ZM108.04 11.6484V14.6919H99.2915V11.6484H108.04ZM124.28 11.6484V28H120.349L114.565 17.8252V28H110.624V11.6484H114.565L120.349 21.8232V11.6484H124.28ZM133.085 28H129.458L129.48 24.9678H133.085C133.834 24.9678 134.466 24.7881 134.983 24.4287C135.507 24.0693 135.904 23.534 136.173 22.8228C136.45 22.104 136.589 21.2205 136.589 20.1724V19.4648C136.589 18.6787 136.51 17.9899 136.353 17.3984C136.203 16.7995 135.979 16.3016 135.679 15.9048C135.38 15.5005 135.005 15.1973 134.556 14.9951C134.114 14.793 133.605 14.6919 133.029 14.6919H129.39V11.6484H133.029C134.137 11.6484 135.151 11.8394 136.072 12.2212C137.001 12.5955 137.802 13.1346 138.476 13.8384C139.157 14.5347 139.681 15.362 140.048 16.3203C140.422 17.2712 140.609 18.3268 140.609 19.4873V20.1724C140.609 21.3254 140.422 22.381 140.048 23.3394C139.681 24.2977 139.161 25.125 138.487 25.8213C137.813 26.5176 137.016 27.0566 136.095 27.4385C135.181 27.8128 134.178 28 133.085 28ZM131.715 11.6484V28H127.773V11.6484H131.715ZM154.917 24.9678V28H146.203V24.9678H154.917ZM147.606 11.6484V28H143.665V11.6484H147.606ZM153.794 18.1396V21.0708H146.203V18.1396H153.794ZM154.951 11.6484V14.6919H146.203V11.6484H154.951Z" fill="black"/>
<path d="M6.26562 43.2617L4.18555 50H1.97656L5.11133 41.4688H6.51172L6.26562 43.2617ZM7.98828 50L5.90234 43.2617L5.63281 41.4688H7.05078L10.2031 50H7.98828ZM7.90625 46.8184V48.4062H3.5293V46.8184H7.90625ZM22.3535 41.4688H24.4102V47.041C24.4102 47.7051 24.2715 48.2676 23.9941 48.7285C23.7168 49.1855 23.3281 49.5312 22.8281 49.7656C22.3281 50 21.7402 50.1172 21.0645 50.1172C20.3965 50.1172 19.8086 50 19.3008 49.7656C18.7969 49.5312 18.4023 49.1855 18.1172 48.7285C17.8359 48.2676 17.6953 47.7051 17.6953 47.041V41.4688H19.7578V47.041C19.7578 47.3926 19.8086 47.6797 19.9102 47.9023C20.0117 48.1211 20.1602 48.2812 20.3555 48.3828C20.5508 48.4844 20.7871 48.5352 21.0645 48.5352C21.3457 48.5352 21.582 48.4844 21.7734 48.3828C21.9648 48.2812 22.1094 48.1211 22.207 47.9023C22.3047 47.6797 22.3535 47.3926 22.3535 47.041V41.4688ZM36.8359 41.4688V50H34.7793V41.4688H36.8359ZM39.4023 41.4688V43.0566H32.2715V41.4688H39.4023ZM54.3301 45.5645V45.9102C54.3301 46.5625 54.2383 47.1484 54.0547 47.668C53.875 48.1836 53.6191 48.625 53.2871 48.9922C52.9551 49.3555 52.5625 49.6348 52.1094 49.8301C51.6562 50.0215 51.1562 50.1172 50.6094 50.1172C50.0586 50.1172 49.5547 50.0215 49.0977 49.8301C48.6445 49.6348 48.25 49.3555 47.9141 48.9922C47.582 48.625 47.3242 48.1836 47.1406 47.668C46.9609 47.1484 46.8711 46.5625 46.8711 45.9102V45.5645C46.8711 44.9121 46.9609 44.3262 47.1406 43.8066C47.3242 43.2871 47.5801 42.8457 47.9082 42.4824C48.2402 42.1152 48.6328 41.8359 49.0859 41.6445C49.543 41.4492 50.0469 41.3516 50.5977 41.3516C51.1445 41.3516 51.6445 41.4492 52.0977 41.6445C52.5547 41.8359 52.9492 42.1152 53.2812 42.4824C53.6133 42.8457 53.8711 43.2871 54.0547 43.8066C54.2383 44.3262 54.3301 44.9121 54.3301 45.5645ZM52.2441 45.9102V45.5527C52.2441 45.1309 52.207 44.7598 52.1328 44.4395C52.0625 44.1152 51.957 43.8438 51.8164 43.625C51.6758 43.4062 51.502 43.2422 51.2949 43.1328C51.0918 43.0195 50.8594 42.9629 50.5977 42.9629C50.3242 42.9629 50.0859 43.0195 49.8828 43.1328C49.6797 43.2422 49.5098 43.4062 49.373 43.625C49.2363 43.8438 49.1328 44.1152 49.0625 44.4395C48.9961 44.7598 48.9629 45.1309 48.9629 45.5527V45.9102C48.9629 46.3281 48.9961 46.6992 49.0625 47.0234C49.1328 47.3438 49.2363 47.6152 49.373 47.8379C49.5137 48.0605 49.6855 48.2285 49.8887 48.3418C50.0957 48.4551 50.3359 48.5117 50.6094 48.5117C50.8711 48.5117 51.1035 48.4551 51.3066 48.3418C51.5098 48.2285 51.6797 48.0605 51.8164 47.8379C51.957 47.6152 52.0625 47.3438 52.1328 47.0234C52.207 46.6992 52.2441 46.3281 52.2441 45.9102ZM68.0332 48.418V50H63.7207V48.418H68.0332ZM64.4531 41.4688V50H62.3965V41.4688H64.4531ZM79.6328 43.2617L77.5527 50H75.3438L78.4785 41.4688H79.8789L79.6328 43.2617ZM81.3555 50L79.2695 43.2617L79 41.4688H80.418L83.5703 50H81.3555ZM81.2734 46.8184V48.4062H76.8965V46.8184H81.2734ZM95.9199 47.1113H97.9707C97.9434 47.7051 97.7832 48.2285 97.4902 48.6816C97.1973 49.1348 96.791 49.4883 96.2715 49.7422C95.7559 49.9922 95.1465 50.1172 94.4434 50.1172C93.873 50.1172 93.3633 50.0215 92.9141 49.8301C92.4688 49.6387 92.0898 49.3633 91.7773 49.0039C91.4688 48.6445 91.2324 48.209 91.0684 47.6973C90.9082 47.1855 90.8281 46.6094 90.8281 45.9688V45.5059C90.8281 44.8652 90.9121 44.2891 91.0801 43.7773C91.252 43.2617 91.4941 42.8242 91.8066 42.4648C92.123 42.1016 92.502 41.8242 92.9434 41.6328C93.3848 41.4414 93.875 41.3457 94.4141 41.3457C95.1562 41.3457 95.7832 41.4785 96.2949 41.7441C96.8066 42.0098 97.2031 42.375 97.4844 42.8398C97.7656 43.3008 97.9316 43.8262 97.9824 44.416H95.9316C95.9238 44.0957 95.8691 43.8281 95.7676 43.6133C95.666 43.3945 95.5059 43.2305 95.2871 43.1211C95.0684 43.0117 94.7773 42.957 94.4141 42.957C94.1602 42.957 93.9395 43.0039 93.752 43.0977C93.5645 43.1914 93.4082 43.3398 93.2832 43.543C93.1582 43.7461 93.0645 44.0098 93.002 44.334C92.9434 44.6543 92.9141 45.041 92.9141 45.4941V45.9688C92.9141 46.4219 92.9414 46.8086 92.9961 47.1289C93.0508 47.4492 93.1387 47.7109 93.2598 47.9141C93.3809 48.1172 93.5371 48.2676 93.7285 48.3652C93.9238 48.459 94.1621 48.5059 94.4434 48.5059C94.7559 48.5059 95.0195 48.457 95.2344 48.3594C95.4492 48.2578 95.6152 48.1055 95.7324 47.9023C95.8496 47.6953 95.9121 47.4316 95.9199 47.1113ZM108 41.4688V50H105.943V41.4688H108ZM113.092 41.4688L109.787 45.793L107.854 47.9082L107.479 46.0215L108.715 44.1465L110.555 41.4688H113.092ZM110.66 50L108.457 46.1562L110.057 44.9785L113.092 50H110.66ZM126.49 48.418V50H121.943V48.418H126.49ZM122.676 41.4688V50H120.619V41.4688H122.676ZM125.904 44.8555V46.3848H121.943V44.8555H125.904ZM126.508 41.4688V43.0566H121.943V41.4688H126.508Z" fill="black"/>
</svg>
