<svg width="123" height="40" viewBox="0 0 123 40" fill="none" xmlns="http://www.w3.org/2000/svg">
<g id="techradar-logo-w">
<g id="Mask group">
<mask id="mask0_524_3845" style="mask-type:luminance" maskUnits="userSpaceOnUse" x="6" y="10" width="110" height="19">
<g id="Group">
<path id="Vector" d="M115.698 10.7852H6.53662V28.434H115.698V10.7852Z" fill="white"/>
</g>
</mask>
<g mask="url(#mask0_524_3845)">
<g id="Group_2">
<path id="Vector_2" d="M15.6944 17.6241H13.057V23.6541C13.057 24.6836 13.6431 24.9042 14.5955 24.9042C14.9618 24.9042 15.3282 24.8307 15.6944 24.8307V27.9927C14.8886 27.9927 14.0827 28.1398 13.3501 28.1398C9.68691 28.1398 8.7345 27.0367 8.7345 23.4335V17.6241H6.53662V14.7562H8.7345V10.7852H13.057V14.7562H15.6944V17.6241ZM19.5041 22.4775C19.5773 24.3159 20.6031 25.4925 22.4346 25.4925C23.4602 25.4925 24.486 24.9777 24.9255 24.0217H28.955C28.2223 27.1103 25.3651 28.434 22.4346 28.434C18.1121 28.434 15.1816 25.8602 15.1816 21.3744C15.1816 17.3299 18.4052 14.3884 22.2881 14.3884C27.0502 14.3884 29.3946 17.9917 29.1747 22.4775H19.5041ZM24.8522 20.0507C24.779 18.5801 23.7533 17.3299 22.2881 17.3299C20.7496 17.3299 19.7239 18.433 19.5041 20.0507H24.8522ZM38.6989 19.6096C38.6989 18.5065 37.6732 17.6976 36.5743 17.6976C34.1567 17.6976 33.7903 19.7567 33.7903 21.5951C33.7903 23.2864 34.5229 25.0512 36.3545 25.0512C37.893 25.0512 38.6257 24.1688 38.8454 22.7717H43.0214C42.6551 26.3749 39.9443 28.434 36.4277 28.434C32.4716 28.434 29.4678 25.7131 29.4678 21.6686C29.4678 17.477 32.1052 14.462 36.4277 14.462C39.7246 14.462 42.6551 16.2269 42.9482 19.6831H38.6989V19.6096ZM43.1679 10.7852H47.4904V16.5946H47.5637C48.2231 15.2709 49.9813 14.3884 51.5932 14.3884C55.9889 14.3884 56.3552 17.6241 56.3552 19.536V28.0663H52.0327V21.6686C52.0327 19.8302 52.2525 17.9917 49.8348 17.9917C48.2231 17.9917 47.4904 19.3889 47.4904 20.8597V28.0663H43.1679V10.7852ZM56.7215 14.7562H60.8975V17.1093H60.9708C61.6301 15.418 63.0953 14.5355 64.9269 14.5355C65.2933 14.5355 65.5862 14.5355 65.9526 14.6091V18.5801C65.3665 18.433 64.8537 18.3594 64.2676 18.3594C62.1429 18.3594 61.044 19.8302 61.044 21.5215V28.0663H56.7215V14.7562ZM65.9526 18.8742C66.0258 17.1093 66.8317 16.0062 68.0039 15.3444C69.1762 14.6826 70.7147 14.3884 72.1799 14.3884C75.3302 14.3884 78.334 15.0502 78.334 18.8007V24.6101C78.334 25.7131 78.334 26.9632 78.8468 27.9927H74.5243C74.3778 27.5515 74.3045 27.1838 74.3045 26.7427C73.1323 27.9927 71.5206 28.434 69.9087 28.434C67.4178 28.434 65.3665 27.1838 65.3665 24.3895C65.3665 20.0507 70.0553 20.4185 73.0591 19.7567C73.7917 19.6096 74.2312 19.3154 74.2312 18.5065C74.2312 17.477 73.0591 17.1093 72.1067 17.1093C70.9344 17.1093 70.1286 17.6241 69.9087 18.8007H65.9526V18.8742ZM71.5206 25.7867C73.5719 25.7867 74.3045 24.6101 74.158 21.8892C73.5719 22.2569 72.3997 22.3304 71.5206 22.6246C70.5682 22.8452 69.7622 23.2864 69.7622 24.3159C69.7622 25.3454 70.5682 25.7867 71.5206 25.7867ZM92.3268 28.0663H88.2243V26.522H88.151C87.7643 27.1212 87.2318 27.6113 86.6035 27.9459C85.9752 28.2805 85.2727 28.4485 84.561 28.434C80.3853 28.434 78.627 24.8307 78.627 21.1538C78.627 17.6976 80.4586 14.462 84.1952 14.462C85.8068 14.462 87.0518 15.0502 87.931 16.3004H88.0043V10.7852H92.3268V28.0663ZM82.9495 21.3009C82.9495 23.1393 83.6085 25.1248 85.5868 25.1248C87.7118 25.1248 88.151 23.1393 88.151 21.448C88.151 19.536 87.4918 17.7712 85.5868 17.7712C83.6085 17.6976 82.9495 19.6096 82.9495 21.3009ZM92.9868 18.8742C93.0602 17.1093 93.866 16.0062 95.0377 15.3444C96.2102 14.6826 97.7485 14.3884 99.2135 14.3884C102.364 14.3884 105.368 15.0502 105.368 18.8007V24.6101C105.368 25.7131 105.368 26.9632 105.881 27.9927H101.559C101.412 27.5515 101.339 27.1838 101.339 26.7427C100.166 27.9927 98.481 28.434 96.9427 28.434C94.4518 28.434 92.4002 27.1838 92.4002 24.3895C92.4002 20.0507 97.0893 20.4185 100.093 19.7567C100.826 19.6096 101.265 19.3154 101.265 18.5065C101.265 17.477 100.093 17.1093 99.1402 17.1093C97.9685 17.1093 97.1627 17.6241 96.9427 18.8007H92.9868V18.8742ZM98.5543 25.7867C100.606 25.7867 101.339 24.6101 101.192 21.8892C100.606 22.2569 99.4335 22.3304 98.5543 22.6246C97.6018 22.8452 96.796 23.2864 96.796 24.3159C96.7227 25.3454 97.6018 25.7867 98.5543 25.7867ZM106.027 14.7562H110.204V17.1093H110.277C110.936 15.418 112.401 14.5355 114.233 14.5355C114.599 14.5355 115.332 14.5355 115.698 14.6091V18.5801C115.112 18.433 114.233 18.3594 113.647 18.3594C111.522 18.3594 110.423 19.8302 110.423 21.5215V28.0663H106.1V14.7562H106.027Z" fill="white"/>
<path id="Vector_3" d="M111.375 23.7285H115.698V28.0672H111.375V23.7285Z" fill="white"/>
</g>
</g>
</g>
</g>
</svg>
