<svg width="137" height="40" viewBox="0 0 137 40" fill="none" xmlns="http://www.w3.org/2000/svg">
<g id="techcrunch-logo-w">
<path id="Vector" d="M29.7954 16.6631H41.3521V10.7715H29.7954V16.6631Z" fill="white"/>
<path id="Vector_2" d="M6.70312 10.7715V16.6631H12.4712V28.4463H18.2392V16.6631H24.0278V10.7715H6.70312Z" fill="white"/>
<path id="Vector_3" d="M24.0273 28.4473H41.352V22.5556H29.7953V16.6641H24.0273V28.4473Z" fill="white"/>
<path id="Vector_4" d="M56.0815 15.2227H47.5942V17.6741H50.4371V25.3579H53.2387V17.6741H56.0815V15.2227Z" fill="white"/>
<path id="Vector_5" d="M59.2744 17.5918C57.2761 17.5918 55.793 18.9308 55.793 21.5676C55.793 23.8954 57.0496 25.5228 59.3362 25.5228C60.531 25.5228 61.4992 25.2138 62.4262 24.6576L61.4374 22.989C60.6752 23.3804 60.1396 23.5246 59.4598 23.5246C58.7594 23.5246 58.265 23.1538 58.162 22.3092H62.6322C62.6528 22.1856 62.6528 22.0208 62.6528 21.7942C62.6734 18.972 61.3756 17.5918 59.2744 17.5918ZM58.2031 20.6818C58.2855 19.9195 58.6151 19.5282 59.2126 19.5282C59.9748 19.5282 60.2426 19.9195 60.3662 20.6818H58.2031Z" fill="white"/>
<path id="Vector_6" d="M67.6174 23.401C66.917 23.401 66.5462 22.783 66.5462 21.5676C66.5462 20.3728 66.8759 19.693 67.5556 19.693C68.1119 19.693 68.359 20.002 68.7299 20.6818L70.522 19.3222C69.8629 18.251 69.0389 17.5918 67.5969 17.5918C65.166 17.5918 63.9712 19.1985 63.9712 21.5264C63.9712 24.0808 65.3102 25.5022 67.535 25.5022C68.874 25.5022 69.698 24.9872 70.5839 23.6894L68.9359 22.3916C68.4414 23.1332 68.1119 23.401 67.6174 23.401Z" fill="white"/>
<path id="Vector_7" d="M76.599 17.5915C75.6926 17.5915 75.157 17.9005 74.6831 18.2507V14.8105L72.0669 15.8611V25.3784H74.6831V21.0318C74.6831 20.0841 75.0127 19.8164 75.569 19.8164C76.1046 19.8164 76.4342 20.0841 76.4342 21.0524V25.3784H79.0504V20.7228C79.0504 18.7245 78.247 17.5915 76.599 17.5915Z" fill="white"/>
<path id="Vector_8" d="M85.3333 23.0701C84.1183 23.0701 83.6233 21.8341 83.6233 20.2891C83.6233 18.6822 84.1392 17.508 85.3133 17.508C86.24 17.508 86.59 18.1054 86.94 19.0531L89.495 18.0436C88.7942 16.1278 87.8058 15.0566 85.3133 15.0566C82.5936 15.0566 80.6777 17.0342 80.6777 20.2891C80.6777 23.2966 82.2846 25.5215 85.2925 25.5215C87.7025 25.5215 88.8358 24.2236 89.515 22.9052L87.1467 21.6486C86.59 22.5962 86.2192 23.0701 85.3333 23.0701Z" fill="white"/>
<path id="Vector_9" d="M93.7182 18.3128V17.7565H91.1016V25.358H93.7182V21.2174C93.7182 20.2904 94.1091 19.9814 94.7482 19.9814C95.2632 19.9814 95.6341 20.2492 95.9632 20.62L96.5816 17.9214C96.2724 17.736 95.9016 17.5918 95.3449 17.5918C94.6657 17.5918 94.1507 17.8802 93.7182 18.3128Z" fill="white"/>
<path id="Vector_10" d="M102.163 22.1025C102.163 23.0501 101.834 23.3179 101.298 23.3179C100.762 23.3179 100.433 23.0501 100.433 22.0819V17.7559H97.8164V22.4115C97.8164 24.4097 98.6206 25.5221 100.289 25.5221C101.175 25.5221 101.731 25.2131 102.184 24.8629V25.3779H104.801V17.7765H102.184V22.1025" fill="white"/>
<path id="Vector_11" d="M111.207 17.5918C110.301 17.5918 109.765 17.9008 109.291 18.251V17.736H106.675V25.3374H109.291V20.9908C109.291 20.0432 109.621 19.7754 110.177 19.7754C110.712 19.7754 111.042 20.0432 111.042 21.0114V25.3374H113.658V20.6818C113.658 18.7248 112.876 17.5918 111.207 17.5918Z" fill="white"/>
<path id="Vector_12" d="M118.85 23.401C118.15 23.401 117.779 22.783 117.779 21.5676C117.779 20.3728 118.108 19.693 118.767 19.693C119.324 19.693 119.571 20.002 119.941 20.6818L121.734 19.3222C121.075 18.251 120.251 17.5918 118.809 17.5918C116.378 17.5918 115.183 19.1985 115.183 21.5264C115.183 24.0808 116.522 25.5022 118.747 25.5022C120.086 25.5022 120.91 24.9872 121.796 23.6894L120.148 22.3916C119.695 23.1332 119.344 23.401 118.85 23.401Z" fill="white"/>
<path id="Vector_13" d="M127.831 17.5915C126.925 17.5915 126.39 17.9005 125.916 18.2507V14.8105L123.3 15.8611V25.3784H125.916V21.0318C125.916 20.0841 126.246 19.8164 126.801 19.8164C127.337 19.8164 127.666 20.0841 127.666 21.0524V25.3784H130.283V20.7228C130.303 18.7245 129.5 17.5915 127.831 17.5915Z" fill="white"/>
</g>
</svg>
