<svg width="117" height="26" viewBox="0 0 117 26" fill="none" xmlns="http://www.w3.org/2000/svg">
<g clip-path="url(#clip0_5123_7024)">
<path d="M3.55981 0.5L1.72782 5.13957H6.69758L0.5 20.6304H7.78898L14.006 5.13957H18.9758L20.7883 0.5H3.55981Z" fill="white"/>
<path d="M18.3716 17.5246C19.8138 17.5246 20.34 16.6235 21.7237 13.1342C23.088 9.64496 23.2244 8.74389 21.9381 8.74389C20.4764 8.74389 19.9307 9.66413 18.5859 13.1342C17.2022 16.6235 17.0463 17.5246 18.3716 17.5246ZM23.2634 5.29297C31.3319 5.29297 29.7533 9.52993 28.2916 13.1726C25.9139 19.0775 24.8225 21.0138 17.0073 21.0138C9.19212 21.0138 9.89374 17.1795 11.4919 13.1534C14.0839 6.67334 15.4482 5.29297 23.2634 5.29297Z" fill="white"/>
<path d="M39.186 9.28111C37.7828 9.28111 37.1786 10.3547 36.0482 13.173C34.9568 15.9529 34.723 17.0457 36.1262 17.0457C37.5099 17.0457 38.1726 15.9529 39.264 13.173C40.3943 10.3547 40.5697 9.28111 39.186 9.28111ZM32.0335 5.67681H38.9911L38.348 7.40227H38.4259C38.9326 6.67374 40.2579 5.52344 43.3177 5.52344C49.0476 5.52344 48.0926 8.84015 46.2606 13.3839C43.8244 19.538 42.4407 21.0142 37.5099 21.0142C35.6195 21.0142 34.0798 20.2282 33.9629 18.8862H33.8849L31.2929 25.4813H24.2183L32.0335 5.67681Z" fill="white"/>
<path d="M57.7007 9.875H66.6268L62.3781 20.6304H57.2914L57.7397 19.0199H57.6617C55.7713 20.7646 54.8358 20.9946 51.5226 20.9946C44.1167 20.9946 45.6758 16.4126 47.9366 10.7761C51.5226 1.80368 52.4191 0.5 61.3452 0.5C68.5757 0.5 69.0434 3.24156 67.4648 7.19095H60.6046L60.8969 6.38574C61.5206 4.92868 61.3647 4.16181 59.942 4.16181C58.1879 4.16181 57.5643 5.40798 57.0965 6.59663L53.9003 14.7255C53.4326 15.9333 52.9843 17.3712 54.7383 17.3712C56.4924 17.3712 57.233 16.3551 57.7787 14.8788L58.3244 13.5368H56.239L57.7007 9.875Z" fill="white"/>
<path d="M77.4043 10.3351C77.989 8.85892 77.7356 8.45631 76.6053 8.45631C75.5918 8.45631 74.9097 8.85892 74.3445 10.3351L73.9742 11.217H77.034L77.4043 10.3351ZM72.1033 15.9908C71.7719 16.796 71.4211 17.8697 72.8633 17.8697C74.2471 17.8697 74.7928 16.9111 75.3969 15.3773H81.8089C81.0098 17.4095 80.0938 19.1925 78.2619 19.9786C76.5468 20.7263 75.3775 20.9947 71.655 20.9947C64.1711 20.9947 64.3076 17.7163 66.1395 13.1151C69.1604 5.63806 70.0959 5.29297 77.9111 5.29297C85.9796 5.29297 84.6348 9.35739 82.6859 13.7669L82.569 14.0161H72.8633L72.1033 15.9908Z" fill="white"/>
<path d="M93.3467 13.3838C92.801 13.5947 92.2163 13.7481 91.3393 13.959C90.0725 14.2849 89.5853 14.9751 89.2734 15.857C88.9031 16.7389 89.098 17.3524 90.0725 17.3524C91.4562 17.3524 92.1578 16.3938 92.4892 15.5311L93.3467 13.3838ZM97.7707 18.426C97.4784 19.1929 97.381 19.9406 97.5564 20.6308H90.9105C90.891 20.0939 90.9885 19.5571 91.2029 19.0587L91.1249 19.0395C89.7022 20.4965 89.4878 21.0142 85.7264 21.0142C82.3937 21.0142 80.971 19.4421 82.1014 16.6047C83.4072 13.288 85.8238 12.3869 88.6693 11.9076L92.1773 11.3324C93.756 11.0832 94.3796 10.7573 94.7694 9.77953C95.0617 9.03183 94.633 8.61005 93.8534 8.61005C92.3527 8.61005 91.807 9.47278 91.4757 10.3355H85.2781C87.1296 5.52339 89.3904 5.3125 95.2371 5.3125C101.708 5.3125 102.175 7.28719 101.259 9.60698L97.7707 18.426Z" fill="white"/>
<path d="M104.066 5.67609H110.926L110.049 7.90002H110.127C111.413 6.46214 113.44 5.48438 115.389 5.48438C116.149 5.48438 116.344 5.54189 116.519 5.58023L114.61 10.2773C114.356 10.2581 114.064 10.2198 113.733 10.2006C113.44 10.1815 113.148 10.1815 112.407 10.1815C109.952 10.1815 108.977 11.1592 108.276 12.923L105.235 20.6301H98.1411L104.066 5.67609Z" fill="white"/>
</g>
<defs>
<clipPath id="clip0_5123_7024">
<rect width="116" height="25" fill="white" transform="translate(0.5 0.5)"/>
</clipPath>
</defs>
</svg>
