<svg width="24" height="24" viewBox="0 0 24 24" fill="none" xmlns="http://www.w3.org/2000/svg">
<path d="M19.4766 6.00013H7.5C6.70312 6.00013 6.61875 5.03451 7.29375 4.87513H19.4766C19.65 4.87513 19.8281 4.88451 20.0016 4.90795C19.7625 3.21576 18.1922 2.0392 16.5047 2.28295C16.4578 2.28763 16.4156 2.29701 16.3688 2.30638L4.51406 4.3267C4.35469 4.35013 4.19062 4.37826 4.03125 4.41107H4.02188C3.96094 4.42045 3.90469 4.43451 3.84375 4.44857C2.02969 4.88451 1.5 6.51576 1.5 7.50013V8.63451C1.48594 8.75638 1.47656 8.87826 1.47656 9.00013V18.0001C1.47656 19.6548 2.82188 21.0001 4.47656 21.0001H19.4766C21.1313 21.0001 22.4766 19.6548 22.4766 18.0001V9.00013C22.4766 7.34545 21.1313 6.00013 19.4766 6.00013ZM17.25 15.0001C16.4203 15.0001 15.75 14.3298 15.75 13.5001C15.75 12.6704 16.4203 12.0001 17.25 12.0001C18.0797 12.0001 18.75 12.6704 18.75 13.5001C18.75 14.3298 18.0797 15.0001 17.25 15.0001Z" fill="white"/>
</svg>
