<svg width="57" height="56" viewBox="0 0 57 56" fill="none" xmlns="http://www.w3.org/2000/svg">
<rect x="0.333252" width="56" height="56" rx="10" fill="white"/>
<path d="M28.0001 14.667C25.363 14.667 22.7851 15.449 20.5925 16.9141C18.3998 18.3792 16.6909 20.4615 15.6817 22.8979C14.6725 25.3342 14.4085 28.0151 14.9229 30.6015C15.4374 33.1879 16.7073 35.5637 18.572 37.4284C20.4367 39.2931 22.8125 40.563 25.3989 41.0775C27.9853 41.5919 30.6662 41.3279 33.1025 40.3187C35.5389 39.3096 37.6213 37.6006 39.0863 35.4079C40.5514 33.2153 41.3334 30.6374 41.3334 28.0003C41.3334 26.2494 40.9885 24.5156 40.3185 22.8979C39.6484 21.2802 38.6663 19.8104 37.4282 18.5722C36.1901 17.3341 34.7202 16.352 33.1025 15.6819C31.4849 15.0119 29.751 14.667 28.0001 14.667ZM21.9467 31.4937C22.0807 31.7236 22.1181 31.9973 22.0506 32.2547C21.9831 32.5122 21.8163 32.7323 21.5867 32.867C21.3562 32.9985 21.0834 33.0345 20.8266 32.9672C20.5699 32.8999 20.3498 32.7347 20.2134 32.507C19.3378 30.9951 18.9213 29.261 19.0147 27.5164C19.1082 25.7717 19.7076 24.092 20.7397 22.6823C21.7719 21.2727 23.1922 20.194 24.8271 19.5781C26.4621 18.9621 28.241 18.8355 29.9468 19.2137C30.2049 19.2702 30.43 19.4271 30.5725 19.6496C30.715 19.8721 30.7633 20.1422 30.7068 20.4003C30.6502 20.6585 30.4934 20.8836 30.2708 21.0261C30.0483 21.1686 29.7782 21.2169 29.5201 21.1603C28.497 20.9408 27.4378 20.952 26.4196 21.1932C25.4013 21.4343 24.4496 21.8993 23.6337 22.5544C22.8177 23.2095 22.1579 24.0382 21.7024 24.9802C21.2468 25.9222 21.0069 26.9539 21.0001 28.0003C20.9909 29.2293 21.3183 30.4374 21.9467 31.4937ZM32.7201 23.827C31.7393 25.7585 30.6348 27.6246 29.4134 29.4137C29.0343 29.7669 28.5328 29.9593 28.0147 29.9501C27.4966 29.941 27.0022 29.7311 26.6358 29.3647C26.2693 28.9982 26.0594 28.5039 26.0503 27.9857C26.0411 27.4676 26.2335 26.9661 26.5868 26.587C28.3758 25.3656 30.2419 24.2611 32.1734 23.2803C32.2497 23.2361 32.3385 23.2183 32.4259 23.2298C32.5133 23.2412 32.5945 23.2812 32.6569 23.3435C32.7192 23.4059 32.7592 23.4871 32.7707 23.5745C32.7821 23.662 32.7643 23.7507 32.7201 23.827ZM35.7868 32.507C35.6504 32.7347 35.4303 32.8999 35.1735 32.9672C34.9168 33.0345 34.6439 32.9985 34.4134 32.867C34.1839 32.7323 34.0171 32.5122 33.9496 32.2547C33.8821 31.9973 33.9194 31.7236 34.0534 31.4937C34.6819 30.4374 35.0093 29.2293 35.0001 28.0003C34.9996 27.4895 34.946 26.9801 34.8401 26.4803C34.7835 26.2222 34.8318 25.9521 34.9743 25.7296C35.1168 25.507 35.3419 25.3502 35.6001 25.2937C35.8582 25.2371 36.1283 25.2854 36.3508 25.4279C36.5734 25.5704 36.7302 25.7955 36.7868 26.0537C36.9301 26.6926 37.0016 27.3455 37.0001 28.0003C37.0013 29.5834 36.5826 31.1385 35.7868 32.507Z" fill="black"/>
</svg>
