<svg width="32" height="32" viewBox="0 0 32 32" fill="none" xmlns="http://www.w3.org/2000/svg">
<path d="M22.5882 18.8195H21.1774V16.0006C21.1774 15.2213 20.5459 14.5889 19.7656 14.5889C18.9854 14.5889 18.3539 15.2213 18.3539 16.0006V18.8195H13.648V16.0006C13.648 15.2213 13.0165 14.5889 12.2362 14.5889C11.456 14.5889 10.8245 15.2213 10.8245 16.0006V18.8195H9.41176C8.63059 18.8195 8 19.4595 8 20.2312V21.1724C8 25.1046 10.848 28.5089 14.5892 29.1771V29.6477C14.5892 30.427 15.2207 31.0595 16.0009 31.0595C16.7812 31.0595 17.4127 30.427 17.4127 29.6477V29.1771C21.1529 28.5079 24 25.1037 24 21.1724V20.2312C24 19.4595 23.3694 18.8195 22.5882 18.8195Z" fill="black"/>
<path d="M17.4127 2.82376V2.35317C17.4127 1.57388 16.7812 0.941406 16.0009 0.941406C15.2207 0.941406 14.5892 1.57388 14.5892 2.35317V2.82376C10.848 3.49388 8 6.89529 8 10.8191V11.7602C8 12.5414 8.63059 13.172 9.41176 13.172H22.5882C23.3694 13.172 24 12.5414 24 11.7602V10.8191C24 6.89623 21.1529 3.49482 17.4127 2.82376Z" fill="black"/>
</svg>
