<svg width="72" height="72" viewBox="0 0 72 72" fill="none" xmlns="http://www.w3.org/2000/svg">
<rect x="0.5" y="0.5" width="71" height="71" rx="23.5" fill="black"/>
<rect x="0.5" y="0.5" width="71" height="71" rx="23.5" stroke="#E0E0E0"/>
<g clip-path="url(#clip0_204_3993)">
<mask id="mask0_204_3993" style="mask-type:luminance" maskUnits="userSpaceOnUse" x="16" y="16" width="40" height="40">
<path d="M56 16H16V56H56V16Z" fill="white"/>
</mask>
<g mask="url(#mask0_204_3993)">
<path d="M53.392 36.7867C53.2056 36.3595 52.7839 36.0833 52.3178 36.0833H47.2136V19.6823C47.2136 17.6519 45.5618 16 43.5314 16H28.4688C26.4385 16 24.7866 17.6519 24.7866 19.6823V36.0834H19.6824C19.2163 36.0834 18.7945 36.3595 18.6082 36.7868C18.4219 37.2141 18.5065 37.7111 18.8237 38.0527L35.1413 55.6256C35.3631 55.8644 35.6742 56 36.0001 56C36.326 56 36.6371 55.8644 36.8589 55.6255L53.1765 38.0526C53.4937 37.711 53.5783 37.214 53.392 36.7867ZM37.2553 37.1719H37.172V38.5105C37.172 39.1577 36.6473 39.6823 36.0001 39.6823C35.3529 39.6823 34.8282 39.1577 34.8282 38.5105V37.1719H33.4896C32.8424 37.1719 32.3178 36.6472 32.3178 36C32.3178 35.3528 32.8424 34.8281 33.4896 34.8281H37.2553C38.0056 34.8281 38.5939 34.2162 38.5939 33.4895C38.5939 32.7653 38.009 32.151 37.2553 32.151H34.7449C32.6832 32.151 31.0625 30.4724 31.0625 28.4687C31.0625 26.4309 32.7113 24.7864 34.7449 24.7864H34.8282V23.4479C34.8282 22.8007 35.3529 22.276 36.0001 22.276C36.6473 22.276 37.172 22.8007 37.172 23.4479V24.7865H38.5106C39.1578 24.7865 39.6824 25.3112 39.6824 25.9584C39.6824 26.6055 39.1578 27.1302 38.5106 27.1302H34.7449C34.0044 27.1302 33.4063 27.7291 33.4063 28.4688C33.4063 29.1969 33.9961 29.8073 34.7449 29.8073H37.2553C39.2931 29.8073 40.9377 31.4557 40.9377 33.4896C40.9376 35.4886 39.3214 37.1719 37.2553 37.1719Z" fill="white"/>
</g>
</g>
<defs>
<clipPath id="clip0_204_3993">
<rect width="40" height="40" fill="white" transform="translate(16 16)"/>
</clipPath>
</defs>
</svg>
