<svg width="20" height="20" viewBox="0 0 20 20" fill="none" xmlns="http://www.w3.org/2000/svg">
<path d="M6.46668 10.0708C9.24585 10.0708 11.5 7.81667 11.5 5.0375C11.5 2.25833 9.24585 0 6.46668 0C3.68752 0 1.43335 2.25417 1.43335 5.03333C1.43335 7.8125 3.68752 10.0708 6.46668 10.0708ZM4.70835 7.025C4.75418 6.85833 4.80002 6.69583 4.85002 6.52917C4.90835 6.3375 4.96252 6.31667 5.13752 6.40833C5.43752 6.5625 5.75418 6.65 6.08752 6.69167C6.30002 6.71667 6.51252 6.69583 6.70835 6.60833C7.07918 6.44583 7.13752 6.01667 6.82502 5.75833C6.71668 5.67083 6.59585 5.60417 6.47085 5.55C6.14585 5.40833 5.80835 5.3 5.50002 5.11667C5.00418 4.82083 4.68752 4.40833 4.72502 3.80417C4.76668 3.12083 5.15418 2.69167 5.77918 2.46667C6.03752 2.37083 6.03752 2.375 6.04168 2.10417C6.04168 2.0125 6.04168 1.92083 6.04168 1.82917C6.04585 1.625 6.08335 1.59167 6.28335 1.58333C6.34585 1.58333 6.40835 1.58333 6.47085 1.58333C6.90418 1.58333 6.90418 1.58333 6.90418 2.01667C6.90418 2.32083 6.90418 2.325 7.20835 2.37083C7.44168 2.40833 7.66252 2.475 7.87918 2.57083C8.00002 2.625 8.04168 2.70833 8.00835 2.83333C7.95418 3.02083 7.90418 3.20833 7.84168 3.39167C7.78335 3.56667 7.72918 3.59167 7.56252 3.5125C7.22502 3.35 6.87085 3.27917 6.49585 3.3C6.39585 3.30417 6.30418 3.31667 6.21252 3.35833C5.89168 3.5 5.83752 3.85417 6.11252 4.075C6.25002 4.1875 6.40835 4.26667 6.57502 4.33333C6.85835 4.45 7.14585 4.56667 7.42085 4.71667C8.28335 5.19583 8.51668 6.27917 7.90835 7.01667C7.68752 7.28333 7.40418 7.4625 7.06668 7.55417C6.92085 7.59583 6.85418 7.67083 6.86252 7.82083C6.87085 7.97083 6.86252 8.11667 6.86252 8.26667C6.86252 8.4 6.79585 8.47083 6.66252 8.475C6.50418 8.47917 6.34168 8.47917 6.18335 8.475C6.04168 8.47083 5.97502 8.39167 5.97502 8.25417C5.97502 8.14583 5.97502 8.0375 5.97085 7.92917C5.96668 7.69167 5.96252 7.67917 5.72918 7.64167C5.43335 7.59583 5.14585 7.52917 4.87502 7.39583C4.67085 7.3 4.65002 7.24583 4.70835 7.025Z" fill="#30BD51"/>
<path d="M17.7584 10.4915H17.1709C16.7834 9.30399 16.025 8.24983 15.0125 7.43316C15.0125 7.39566 15.0042 7.35399 14.9959 7.31649C14.7834 6.57066 15.0459 5.89149 15.35 5.40399C15.5625 5.06233 15.2875 4.62483 14.8875 4.67483C13.9917 4.78733 13.375 5.11649 12.95 5.48733C12.6584 5.74149 12.45 6.08316 12.3584 6.46233C11.7167 9.12066 9.32088 11.0998 6.46672 11.0998C5.07922 11.0998 3.80422 10.6332 2.78338 9.84983C2.42922 10.6165 2.23755 11.454 2.23755 12.3332C2.23755 12.8082 2.29588 13.2707 2.40422 13.7165C2.40422 13.7165 2.40422 13.7248 2.40838 13.7373C2.52088 14.1998 2.69172 14.6457 2.90838 15.0665C3.19588 15.6873 3.61255 16.4123 4.18755 16.9998C5.01672 17.854 5.15838 18.9123 5.17922 19.3707V19.5665C5.17922 19.5748 5.17922 19.5832 5.17922 19.5915C5.17922 19.5957 5.17922 19.5957 5.17922 19.5957C5.19588 19.8207 5.38338 19.9998 5.61255 19.9998H8.24588C8.48338 19.9998 8.67922 19.8082 8.67922 19.5665V18.9165C9.06255 18.9665 9.45422 18.9957 9.85005 18.9957C10.1625 18.9957 10.4667 18.979 10.7709 18.9457V19.5665C10.7709 19.804 10.9625 19.9998 11.2042 19.9998H13.8459C14.0834 19.9998 14.2792 19.8082 14.2792 19.5665V18.9165C14.2834 18.6998 14.3584 17.8373 15.175 17.0998C15.2042 17.0748 15.2334 17.0498 15.2625 17.0248C15.2709 17.0165 15.2792 17.0123 15.2875 17.004C16.1959 16.1957 16.8667 15.1873 17.2125 14.0623H17.7667C18.2084 14.0623 18.5667 13.704 18.5667 13.2623V11.2915C18.5584 10.8498 18.2 10.4915 17.7584 10.4915ZM14.4625 10.6332C14.1 10.6332 13.8084 10.3415 13.8084 9.97899C13.8084 9.61649 14.1 9.32483 14.4625 9.32483C14.825 9.32483 15.1167 9.61649 15.1167 9.97899C15.1167 10.3415 14.825 10.6332 14.4625 10.6332Z" fill="#30BD51"/>
</svg>
