<svg width="33" height="32" viewBox="0 0 33 32" fill="none" xmlns="http://www.w3.org/2000/svg">
<path d="M22.9994 6.66699C22.9994 5.87587 23.234 5.10251 23.6735 4.44471C24.113 3.78692 24.7377 3.27423 25.4687 2.97148C26.1996 2.66873 27.0038 2.58951 27.7797 2.74385C28.5557 2.89819 29.2684 3.27916 29.8278 3.83857C30.3872 4.39798 30.7682 5.11071 30.9225 5.88663C31.0769 6.66256 30.9977 7.46682 30.6949 8.19773C30.3922 8.92863 29.8795 9.55335 29.2217 9.99287C28.5639 10.4324 27.7905 10.667 26.9994 10.667C25.9385 10.667 24.9211 10.2456 24.171 9.49542C23.4208 8.74528 22.9994 7.72786 22.9994 6.66699ZM2.99936 8.00033H18.9994C19.353 8.00033 19.6921 7.85985 19.9422 7.6098C20.1922 7.35975 20.3327 7.02062 20.3327 6.66699C20.3327 6.31337 20.1922 5.97423 19.9422 5.72419C19.6921 5.47414 19.353 5.33366 18.9994 5.33366H2.99936C2.64573 5.33366 2.30659 5.47414 2.05655 5.72419C1.8065 5.97423 1.66602 6.31337 1.66602 6.66699C1.66602 7.02062 1.8065 7.35975 2.05655 7.6098C2.30659 7.85985 2.64573 8.00033 2.99936 8.00033ZM10.9994 12.0003C10.1741 12.0026 9.36975 12.2602 8.6966 12.7376C8.02345 13.215 7.51444 13.8889 7.23936 14.667H2.99936C2.64573 14.667 2.30659 14.8075 2.05655 15.0575C1.8065 15.3076 1.66602 15.6467 1.66602 16.0003C1.66602 16.3539 1.8065 16.6931 2.05655 16.9431C2.30659 17.1932 2.64573 17.3337 2.99936 17.3337H7.23936C7.48396 18.0255 7.91416 18.6367 8.48288 19.1004C9.0516 19.5641 9.73692 19.8625 10.4639 19.9628C11.1908 20.0631 11.9313 19.9615 12.6043 19.6691C13.2774 19.3767 13.857 18.9049 14.2798 18.3051C14.7027 17.7054 14.9524 17.0009 15.0016 16.2687C15.0508 15.5366 14.8977 14.805 14.559 14.154C14.2203 13.5031 13.7091 12.9578 13.0812 12.578C12.4534 12.1981 11.7332 11.9983 10.9994 12.0003ZM29.6661 14.667H18.9994C18.6458 14.667 18.3066 14.8075 18.0566 15.0575C17.8065 15.3076 17.6661 15.6467 17.6661 16.0003C17.6661 16.3539 17.8065 16.6931 18.0566 16.9431C18.3066 17.1932 18.6458 17.3337 18.9994 17.3337H29.6661C30.0197 17.3337 30.3588 17.1932 30.6089 16.9431C30.8589 16.6931 30.9994 16.3539 30.9994 16.0003C30.9994 15.6467 30.8589 15.3076 30.6089 15.0575C30.3588 14.8075 30.0197 14.667 29.6661 14.667ZM13.6661 24.0003H2.99936C2.64573 24.0003 2.30659 24.1408 2.05655 24.3909C1.8065 24.6409 1.66602 24.98 1.66602 25.3337C1.66602 25.6873 1.8065 26.0264 2.05655 26.2765C2.30659 26.5265 2.64573 26.667 2.99936 26.667H13.6661C14.0197 26.667 14.3588 26.5265 14.6089 26.2765C14.8589 26.0264 14.9994 25.6873 14.9994 25.3337C14.9994 24.98 14.8589 24.6409 14.6089 24.3909C14.3588 24.1408 14.0197 24.0003 13.6661 24.0003ZM29.6661 24.0003H25.4261C25.1115 23.1107 24.4926 22.3609 23.6787 21.8835C22.8649 21.406 21.9084 21.2317 20.9784 21.3913C20.0484 21.5508 19.2048 22.034 18.5966 22.7554C17.9884 23.4769 17.6548 24.3901 17.6548 25.3337C17.6548 26.2772 17.9884 27.1905 18.5966 27.9119C19.2048 28.6333 20.0484 29.1165 20.9784 29.2761C21.9084 29.4356 22.8649 29.2613 23.6787 28.7838C24.4926 28.3064 25.1115 27.5566 25.4261 26.667H29.6661C30.0197 26.667 30.3588 26.5265 30.6089 26.2765C30.8589 26.0264 30.9994 25.6873 30.9994 25.3337C30.9994 24.98 30.8589 24.6409 30.6089 24.3909C30.3588 24.1408 30.0197 24.0003 29.6661 24.0003Z" fill="black"/>
</svg>
