<svg width="72" height="72" viewBox="0 0 72 72" fill="none" xmlns="http://www.w3.org/2000/svg">
<rect x="0.5" y="0.5" width="71" height="71" rx="23.5" fill="black"/>
<rect x="0.5" y="0.5" width="71" height="71" rx="23.5" stroke="#E0E0E0"/>
<path d="M49.75 28.5H48.5C47.81 28.5 47.25 29.06 47.25 29.75V33.5H43.5V31C43.5 29.6187 42.3813 28.5 41 28.5H36V26H41C41.69 26 42.25 25.44 42.25 24.75V23.5C42.25 22.81 41.69 22.25 41 22.25H27.25C26.56 22.25 26 22.81 26 23.5V24.75C26 25.44 26.56 26 27.25 26H32.25V28.5H27.25C25.8688 28.5 24.75 29.6187 24.75 31V36H22.25V32.25C22.25 31.56 21.69 31 21 31H19.75C19.06 31 18.5 31.56 18.5 32.25V43.5C18.5 44.19 19.06 44.75 19.75 44.75H21C21.69 44.75 22.25 44.19 22.25 43.5V39.75H24.75V42.99C24.75 43.7112 25.0613 44.3963 25.6038 44.8713L29.0438 47.8812C29.4988 48.28 30.0838 48.5 30.6888 48.5H41C42.3813 48.5 43.5 47.3813 43.5 46V42.25H47.25V46C47.25 46.69 47.81 47.25 48.5 47.25H49.75C51.8212 47.25 53.5 45.5712 53.5 43.5V32.25C53.5 30.1788 51.8212 28.5 49.75 28.5ZM38.29 39.1938L35.79 42.9438C35.4062 43.5188 34.75 43.5 34.75 43.5V39.75H32.25C31.7888 39.75 31.365 39.4963 31.1475 39.09C30.93 38.6838 30.9538 38.19 31.21 37.8075L33.71 34.0575C34.0925 33.4813 34.75 33.5 34.75 33.5V37.25H37.25C37.7112 37.25 38.135 37.5037 38.3525 37.91C38.57 38.3162 38.5463 38.81 38.29 39.1938Z" fill="white"/>
</svg>
