<svg width="64" height="64" viewBox="0 0 64 64" fill="none" xmlns="http://www.w3.org/2000/svg">
<g filter="url(#filter0_d_204_4082)">
<rect x="3.99976" width="56" height="56" rx="10" fill="white"/>
<path d="M26.3465 28.1133C30.7932 28.1133 34.3999 24.5067 34.3999 20.06C34.3999 15.6133 30.7932 12 26.3465 12C21.8999 12 18.2932 15.6067 18.2932 20.0533C18.2932 24.5 21.8999 28.1133 26.3465 28.1133ZM23.5332 23.24C23.6066 22.9733 23.6799 22.7133 23.7599 22.4467C23.8532 22.14 23.9399 22.1067 24.2199 22.2533C24.6999 22.5 25.2066 22.64 25.7399 22.7067C26.0799 22.7467 26.4199 22.7133 26.7332 22.5733C27.3265 22.3133 27.4199 21.6267 26.9199 21.2133C26.7465 21.0733 26.5532 20.9667 26.3532 20.88C25.8332 20.6533 25.2932 20.48 24.7999 20.1867C24.0066 19.7133 23.4999 19.0533 23.5599 18.0867C23.6266 16.9933 24.2466 16.3067 25.2466 15.9467C25.6599 15.7933 25.6599 15.8 25.6666 15.3667C25.6666 15.22 25.6666 15.0733 25.6666 14.9267C25.6732 14.6 25.7332 14.5467 26.0532 14.5333C26.1532 14.5333 26.2532 14.5333 26.3532 14.5333C27.0465 14.5333 27.0465 14.5333 27.0465 15.2267C27.0465 15.7133 27.0465 15.72 27.5332 15.7933C27.9065 15.8533 28.2599 15.96 28.6065 16.1133C28.7999 16.2 28.8665 16.3333 28.8132 16.5333C28.7265 16.8333 28.6465 17.1333 28.5465 17.4267C28.4532 17.7067 28.3665 17.7467 28.0999 17.62C27.5599 17.36 26.9932 17.2467 26.3932 17.28C26.2332 17.2867 26.0865 17.3067 25.9399 17.3733C25.4266 17.6 25.3399 18.1667 25.7799 18.52C25.9999 18.7 26.2532 18.8267 26.5199 18.9333C26.9732 19.12 27.4332 19.3067 27.8732 19.5467C29.2532 20.3133 29.6265 22.0467 28.6532 23.2267C28.2999 23.6533 27.8465 23.94 27.3065 24.0867C27.0732 24.1533 26.9665 24.2733 26.9799 24.5133C26.9932 24.7533 26.9799 24.9867 26.9799 25.2267C26.9799 25.44 26.8732 25.5533 26.6599 25.56C26.4065 25.5667 26.1465 25.5667 25.8932 25.56C25.6666 25.5533 25.5599 25.4267 25.5599 25.2067C25.5599 25.0333 25.5599 24.86 25.5532 24.6867C25.5466 24.3067 25.5399 24.2867 25.1666 24.2267C24.6932 24.1533 24.2332 24.0467 23.7999 23.8333C23.4732 23.68 23.4399 23.5933 23.5332 23.24Z" fill="black"/>
<path d="M44.4132 28.7866H43.4732C42.8532 26.8866 41.6398 25.1999 40.0198 23.8933C40.0198 23.8333 40.0065 23.7666 39.9932 23.7066C39.6532 22.5133 40.0732 21.4266 40.5598 20.6466C40.8998 20.0999 40.4598 19.3999 39.8198 19.4799C38.3865 19.6599 37.3998 20.1866 36.7198 20.7799C36.2532 21.1866 35.9198 21.7332 35.7732 22.3399C34.7465 26.5933 30.9132 29.7599 26.3465 29.7599C24.1265 29.7599 22.0865 29.0133 20.4532 27.7599C19.8865 28.9866 19.5798 30.3266 19.5798 31.7333C19.5798 32.4933 19.6732 33.2333 19.8465 33.9466C19.8465 33.9466 19.8465 33.9599 19.8532 33.9799C20.0332 34.7199 20.3065 35.4333 20.6532 36.1066C21.1132 37.0999 21.7798 38.2599 22.6998 39.1999C24.0265 40.5666 24.2532 42.2599 24.2865 42.9933V43.3066C24.2865 43.3199 24.2865 43.3333 24.2865 43.3466C24.2865 43.3533 24.2865 43.3532 24.2865 43.3532C24.3132 43.7132 24.6132 43.9999 24.9798 43.9999H29.1932C29.5732 43.9999 29.8865 43.6933 29.8865 43.3066V42.2666C30.4998 42.3466 31.1265 42.3933 31.7598 42.3933C32.2598 42.3933 32.7465 42.3666 33.2332 42.3133V43.3066C33.2332 43.6866 33.5398 43.9999 33.9265 43.9999H38.1532C38.5332 43.9999 38.8465 43.6933 38.8465 43.3066V42.2666C38.8532 41.9199 38.9732 40.5399 40.2798 39.3599C40.3265 39.3199 40.3732 39.2799 40.4198 39.2399C40.4332 39.2266 40.4465 39.2199 40.4598 39.2066C41.9132 37.9133 42.9865 36.2999 43.5398 34.4999H44.4265C45.1332 34.4999 45.7065 33.9266 45.7065 33.2199V30.0666C45.6932 29.3599 45.1198 28.7866 44.4132 28.7866ZM39.1398 29.0133C38.5598 29.0133 38.0932 28.5466 38.0932 27.9666C38.0932 27.3866 38.5598 26.9199 39.1398 26.9199C39.7198 26.9199 40.1865 27.3866 40.1865 27.9666C40.1865 28.5466 39.7198 29.0133 39.1398 29.0133Z" fill="black"/>
</g>
<defs>
<filter id="filter0_d_204_4082" x="-0.000244141" y="0" width="64" height="64" filterUnits="userSpaceOnUse" color-interpolation-filters="sRGB">
<feFlood flood-opacity="0" result="BackgroundImageFix"/>
<feColorMatrix in="SourceAlpha" type="matrix" values="0 0 0 0 0 0 0 0 0 0 0 0 0 0 0 0 0 0 127 0" result="hardAlpha"/>
<feOffset dy="4"/>
<feGaussianBlur stdDeviation="2"/>
<feComposite in2="hardAlpha" operator="out"/>
<feColorMatrix type="matrix" values="0 0 0 0 0 0 0 0 0 0 0 0 0 0 0 0 0 0 0.25 0"/>
<feBlend mode="normal" in2="BackgroundImageFix" result="effect1_dropShadow_204_4082"/>
<feBlend mode="normal" in="SourceGraphic" in2="effect1_dropShadow_204_4082" result="shape"/>
</filter>
</defs>
</svg>
