<svg width="20" height="20" viewBox="0 0 20 20" fill="none" xmlns="http://www.w3.org/2000/svg">
<mask id="mask0_428_2516" style="mask-type:luminance" maskUnits="userSpaceOnUse" x="0" y="0" width="20" height="20">
<path d="M20 0H0V20H20V0Z" fill="white"/>
</mask>
<g mask="url(#mask0_428_2516)">
<path d="M7.64746 0H8.82393V2.35294H7.64746V0Z" fill="#30BD51"/>
<path d="M9.99756 2.41646L11.6611 0.75293L12.4929 1.58469L10.8293 3.24822L9.99756 2.41646Z" fill="#30BD51"/>
<path d="M3.97559 1.58274L4.80735 0.750977L6.47088 2.4145L5.63912 3.24627L3.97559 1.58274Z" fill="#30BD51"/>
<path d="M17.3026 11.2777C16.8432 10.8183 16.0986 10.8182 15.6391 11.2773L16.0548 10.8617C16.5142 10.4023 16.5142 9.65735 16.0548 9.1979C15.5954 8.73853 14.8507 8.73845 14.3913 9.19759L14.807 8.7819C15.2664 8.32249 15.2664 7.57759 14.807 7.11814C14.3476 6.65877 13.603 6.65869 13.1435 7.11779L16.4707 3.79061C16.9301 3.3312 16.9301 2.5863 16.4707 2.12684C16.0112 1.66735 15.2663 1.66735 14.8069 2.12684L7.34436 9.60163C7.34436 9.60163 4.90413 5.38673 2.76895 7.52194L2.35303 7.93786L3.7395 9.32434C5.04122 10.6261 5.04122 12.7366 3.7395 14.0384L3.18487 14.593L8.5922 20.0003L9.84005 18.7524L11.9797 17.8354C12.4897 17.6169 12.9532 17.3031 13.3455 16.9108L17.3026 12.9414C17.762 12.482 17.762 11.7371 17.3026 11.2777Z" fill="#30BD51"/>
</g>
</svg>
