<svg width="72" height="72" viewBox="0 0 72 72" fill="none" xmlns="http://www.w3.org/2000/svg">
<rect x="0.5" y="0.5" width="71" height="71" rx="23.5" fill="black"/>
<rect x="0.5" y="0.5" width="71" height="71" rx="23.5" stroke="#E0E0E0"/>
<path d="M36.3902 33.7902C35.6384 34.0577 34.8281 33.4999 34.8281 32.6848V25.4531H29.2457C28.2342 25.4531 27.6985 26.6524 28.3725 27.4066C28.757 27.8358 28.9688 28.3909 28.9688 28.9688C28.9688 30.2608 27.917 31.3125 26.625 31.3125C25.333 31.3125 24.2812 30.2608 24.2812 28.9688C24.2812 28.3909 24.493 27.8358 24.8775 27.4066C25.5515 26.6524 25.0158 25.4531 24.0043 25.4531H19.5156C17.577 25.4531 16 27.0302 16 28.9688V43.0312C16 44.9698 17.577 46.5469 19.5156 46.5469H21.9375C21.9375 49.1321 24.0398 51.2344 26.625 51.2344C29.2102 51.2344 31.3125 49.1321 31.3125 46.5469H34.8281V39.3154C34.8281 38.511 35.665 37.9584 36.3902 38.2099C37.8459 38.7284 39.5145 37.5588 39.5156 36.0001C39.5156 34.4391 37.8482 33.2706 36.3902 33.7902Z" fill="white"/>
<path d="M52.4844 25.4531H50.0625C50.0625 22.8679 47.9602 20.7656 45.375 20.7656C42.7898 20.7656 40.6875 22.8679 40.6875 25.4531H37.1719V31.3125C39.7571 31.3125 41.8594 33.4148 41.8594 36C41.8594 38.5852 39.7571 40.6875 37.1719 40.6875V46.5469H52.4844C54.423 46.5469 56 44.9698 56 43.0312V28.9688C56 27.0302 54.423 25.4531 52.4844 25.4531Z" fill="white"/>
</svg>
