<svg width="57" height="56" viewBox="0 0 57 56" fill="none" xmlns="http://www.w3.org/2000/svg">
<rect x="0.666992" width="56" height="56" rx="10" fill="white"/>
<g clip-path="url(#clip0_204_4090)">
<mask id="mask0_204_4090" style="mask-type:luminance" maskUnits="userSpaceOnUse" x="13" y="12" width="32" height="32">
<path d="M45 12H13V44H45V12Z" fill="white"/>
</mask>
<g mask="url(#mask0_204_4090)">
<path d="M44.9494 12.6865C44.8378 12.2933 44.4916 12 44.0625 12H40.3125C39.7943 12 39.375 12.4193 39.375 12.9375C39.375 13.4557 39.7943 13.875 40.3125 13.875H42.505L38.028 18.9299C31.9919 25.7579 23.1091 29.3669 14.018 28.5768C13.519 28.5246 13.0484 28.9138 13.0036 29.4301C12.9587 29.9455 13.3405 30.3996 13.8568 30.4444C14.7339 30.5204 15.474 30.5579 16.3483 30.5579C25.109 30.5579 33.5868 26.7832 39.4325 20.1713L43.125 16.0037V16.6875C43.125 17.2057 43.5443 17.625 44.0625 17.625C44.5806 17.625 45 17.2057 45 16.6875V13.8626L44.9494 12.6865Z" fill="black"/>
<path d="M44.0625 42.1245H43.0625V21.047C43.0625 20.6533 42.8162 20.3018 42.4464 20.1663C42.0774 20.0335 41.6627 20.1415 41.4082 20.4428L40.8323 21.1267C39.8802 22.2564 38.8429 23.3304 37.7479 24.3164C37.5501 24.494 37.4375 24.7475 37.4375 25.013V42.1245H35.5625V27.9382C35.5625 27.5922 35.3711 27.2735 35.0663 27.1106C34.7614 26.9495 34.3888 26.966 34.1022 27.16C32.9386 27.9419 31.7118 28.656 30.4557 29.284C30.138 29.4424 29.9375 29.7674 29.9375 30.1227V42.1245H28.0625V31.7212C28.0625 31.4163 27.9142 31.1307 27.6652 30.9549C27.4171 30.78 27.0966 30.7379 26.8101 30.8386C25.6208 31.2625 24.394 31.6223 23.1635 31.9061C22.7387 32.005 22.4375 32.3831 22.4375 32.8198V42.1245H20.5625V33.4662C20.5625 33.1989 20.4481 32.9443 20.2494 32.7667C20.0489 32.5891 19.7769 32.4985 19.5188 32.5351C18.3158 32.6724 17.0899 32.7429 15.8741 32.7447C15.3569 32.7457 14.9376 33.165 14.9376 33.6822V42.1245H13.9375C13.4193 42.1245 13 42.5439 13 43.062C13 43.5802 13.4193 43.9995 13.9375 43.9995H44.0625C44.5807 43.9995 45 43.5802 45 43.062C45 42.5439 44.5807 42.1245 44.0625 42.1245Z" fill="black"/>
</g>
</g>
<defs>
<clipPath id="clip0_204_4090">
<rect width="32" height="32" fill="white" transform="translate(13 12)"/>
</clipPath>
</defs>
</svg>
