<svg width="33" height="32" viewBox="0 0 33 32" fill="none" xmlns="http://www.w3.org/2000/svg">
<path d="M11.0128 16.1133C15.4595 16.1133 19.0662 12.5067 19.0662 8.06C19.0662 3.61333 15.4595 0 11.0128 0C6.56614 0 2.95947 3.60667 2.95947 8.05333C2.95947 12.5 6.56614 16.1133 11.0128 16.1133ZM8.19947 11.24C8.27281 10.9733 8.34614 10.7133 8.42614 10.4467C8.51947 10.14 8.60614 10.1067 8.88614 10.2533C9.36614 10.5 9.87281 10.64 10.4061 10.7067C10.7462 10.7467 11.0862 10.7133 11.3995 10.5733C11.9928 10.3133 12.0862 9.62667 11.5862 9.21333C11.4128 9.07333 11.2195 8.96667 11.0195 8.88C10.4995 8.65333 9.95947 8.48 9.46614 8.18667C8.67281 7.71333 8.16614 7.05333 8.22614 6.08667C8.29281 4.99333 8.91281 4.30667 9.91281 3.94667C10.3261 3.79333 10.3261 3.8 10.3328 3.36667C10.3328 3.22 10.3328 3.07333 10.3328 2.92667C10.3395 2.6 10.3995 2.54667 10.7195 2.53333C10.8195 2.53333 10.9195 2.53333 11.0195 2.53333C11.7128 2.53333 11.7128 2.53333 11.7128 3.22667C11.7128 3.71333 11.7128 3.72 12.1995 3.79333C12.5728 3.85333 12.9262 3.96 13.2728 4.11333C13.4662 4.2 13.5328 4.33333 13.4795 4.53333C13.3928 4.83333 13.3128 5.13333 13.2128 5.42667C13.1195 5.70667 13.0328 5.74667 12.7662 5.62C12.2262 5.36 11.6595 5.24667 11.0595 5.28C10.8995 5.28667 10.7528 5.30667 10.6061 5.37333C10.0928 5.6 10.0061 6.16667 10.4461 6.52C10.6661 6.7 10.9195 6.82667 11.1862 6.93333C11.6395 7.12 12.0995 7.30667 12.5395 7.54667C13.9195 8.31333 14.2928 10.0467 13.3195 11.2267C12.9662 11.6533 12.5128 11.94 11.9728 12.0867C11.7395 12.1533 11.6328 12.2733 11.6462 12.5133C11.6595 12.7533 11.6462 12.9867 11.6462 13.2267C11.6462 13.44 11.5395 13.5533 11.3262 13.56C11.0728 13.5667 10.8128 13.5667 10.5595 13.56C10.3328 13.5533 10.2261 13.4267 10.2261 13.2067C10.2261 13.0333 10.2261 12.86 10.2195 12.6867C10.2128 12.3067 10.2061 12.2867 9.83281 12.2267C9.35947 12.1533 8.89947 12.0467 8.46614 11.8333C8.13947 11.68 8.10614 11.5933 8.19947 11.24Z" fill="black"/>
<path d="M29.0795 16.7866H28.1395C27.5195 14.8866 26.3061 13.1999 24.6861 11.8933C24.6861 11.8333 24.6728 11.7666 24.6595 11.7066C24.3195 10.5133 24.7395 9.42659 25.2261 8.64659C25.5661 8.09992 25.1261 7.39992 24.4861 7.47992C23.0528 7.65992 22.0661 8.18659 21.3861 8.77992C20.9195 9.18659 20.5861 9.73325 20.4395 10.3399C19.4128 14.5933 15.5795 17.7599 11.0128 17.7599C8.79276 17.7599 6.75276 17.0133 5.11943 15.7599C4.55276 16.9866 4.24609 18.3266 4.24609 19.7333C4.24609 20.4933 4.33943 21.2333 4.51276 21.9466C4.51276 21.9466 4.51276 21.9599 4.51943 21.9799C4.69943 22.7199 4.97276 23.4333 5.31943 24.1066C5.77943 25.0999 6.44609 26.2599 7.36609 27.1999C8.69276 28.5666 8.91943 30.2599 8.95276 30.9933V31.3066C8.95276 31.3199 8.95276 31.3333 8.95276 31.3466C8.95276 31.3533 8.95276 31.3532 8.95276 31.3532C8.97943 31.7132 9.27943 31.9999 9.64609 31.9999H13.8595C14.2395 31.9999 14.5528 31.6933 14.5528 31.3066V30.2666C15.1661 30.3466 15.7928 30.3933 16.4261 30.3933C16.9261 30.3933 17.4128 30.3666 17.8995 30.3133V31.3066C17.8995 31.6866 18.2061 31.9999 18.5928 31.9999H22.8195C23.1995 31.9999 23.5128 31.6933 23.5128 31.3066V30.2666C23.5195 29.9199 23.6395 28.5399 24.9461 27.3599C24.9928 27.3199 25.0395 27.2799 25.0861 27.2399C25.0995 27.2266 25.1128 27.2199 25.1261 27.2066C26.5795 25.9133 27.6528 24.2999 28.2061 22.4999H29.0928C29.7995 22.4999 30.3728 21.9266 30.3728 21.2199V18.0666C30.3595 17.3599 29.7861 16.7866 29.0795 16.7866ZM23.8061 17.0133C23.2261 17.0133 22.7595 16.5466 22.7595 15.9666C22.7595 15.3866 23.2261 14.9199 23.8061 14.9199C24.3861 14.9199 24.8528 15.3866 24.8528 15.9666C24.8528 16.5466 24.3861 17.0133 23.8061 17.0133Z" fill="black"/>
</svg>
