<svg width="65" height="64" viewBox="0 0 65 64" fill="none" xmlns="http://www.w3.org/2000/svg">
<g filter="url(#filter0_d_204_4096)">
<rect x="4.3335" width="56" height="56" rx="10" fill="white"/>
<g clip-path="url(#clip0_204_4096)">
<path d="M47.7818 27.3289C45.8401 24.7834 43.5071 22.5619 40.8697 20.7471L36.7621 24.8546C38.5038 27.4804 37.7871 31.021 35.1613 32.7626C33.2497 34.0305 30.7648 34.0303 28.8535 32.7621L25.1631 36.4571C27.2605 37.6108 29.6065 38.2382 31.9998 38.2857C40.6857 38.2857 47.4961 29.065 47.7818 28.6718C48.0724 28.2714 48.0724 27.7293 47.7818 27.3289Z" fill="black"/>
<path d="M32 17.7139C23.3141 17.7139 16.5038 26.9357 16.218 27.3289C15.9273 27.7293 15.9273 28.2714 16.218 28.6717C18.1597 31.2172 20.4927 33.4387 23.1301 35.2536L27.2376 31.146C26.6167 30.2142 26.2855 29.1195 26.2856 27.9997C26.2805 24.8488 28.8307 22.2903 31.9816 22.2853C33.1073 22.2834 34.2084 22.6147 35.1462 23.2373L38.8366 19.5424C36.7393 18.3888 34.3933 17.7613 32 17.7139Z" fill="black"/>
<path d="M23.13 35.2568L18.6202 39.7632C18.1737 40.2095 18.1735 40.9332 18.6196 41.3798C19.0659 41.8264 19.7897 41.8266 20.2363 41.3804L25.1632 36.4569C24.4642 36.0941 23.7854 35.6935 23.13 35.2568Z" fill="black"/>
<path d="M45.3804 14.6202C44.9341 14.1737 44.2104 14.1735 43.7638 14.6196L38.8369 19.542C39.5359 19.9047 40.2146 20.3053 40.8701 20.742L45.3799 16.2368C45.8264 15.7906 45.8266 15.0668 45.3804 14.6202Z" fill="black"/>
<path d="M35.146 23.2373L27.2373 31.146C27.6623 31.7876 28.2118 32.3371 28.8534 32.7621L36.762 24.8545C36.3368 24.2129 35.7874 23.663 35.146 23.2373Z" fill="black"/>
</g>
</g>
<defs>
<filter id="filter0_d_204_4096" x="0.333496" y="0" width="64" height="64" filterUnits="userSpaceOnUse" color-interpolation-filters="sRGB">
<feFlood flood-opacity="0" result="BackgroundImageFix"/>
<feColorMatrix in="SourceAlpha" type="matrix" values="0 0 0 0 0 0 0 0 0 0 0 0 0 0 0 0 0 0 127 0" result="hardAlpha"/>
<feOffset dy="4"/>
<feGaussianBlur stdDeviation="2"/>
<feComposite in2="hardAlpha" operator="out"/>
<feColorMatrix type="matrix" values="0 0 0 0 0 0 0 0 0 0 0 0 0 0 0 0 0 0 0.25 0"/>
<feBlend mode="normal" in2="BackgroundImageFix" result="effect1_dropShadow_204_4096"/>
<feBlend mode="normal" in="SourceGraphic" in2="effect1_dropShadow_204_4096" result="shape"/>
</filter>
<clipPath id="clip0_204_4096">
<rect width="32" height="32" fill="white" transform="translate(16 12)"/>
</clipPath>
</defs>
</svg>
