<svg width="72" height="72" viewBox="0 0 72 72" fill="none" xmlns="http://www.w3.org/2000/svg">
<g clip-path="url(#clip0_716_5720)">
<path d="M48 0.5H24C11.0213 0.5 0.5 11.0213 0.5 24V48C0.5 60.9787 11.0213 71.5 24 71.5H48C60.9787 71.5 71.5 60.9787 71.5 48V24C71.5 11.0213 60.9787 0.5 48 0.5Z" fill="black"/>
<path d="M48 0.5H24C11.0213 0.5 0.5 11.0213 0.5 24V48C0.5 60.9787 11.0213 71.5 24 71.5H48C60.9787 71.5 71.5 60.9787 71.5 48V24C71.5 11.0213 60.9787 0.5 48 0.5Z" stroke="#E0E0E0"/>
<g clip-path="url(#clip1_716_5720)">
<mask id="mask0_716_5720" style="mask-type:luminance" maskUnits="userSpaceOnUse" x="20" y="15" width="32" height="40">
<path d="M52 15H20V55H52V15Z" fill="white"/>
</mask>
<g mask="url(#mask0_716_5720)">
<path d="M31.2944 15H33.6474V19.7059H31.2944V15Z" fill="white"/>
<path d="M35.9951 19.832L39.3222 16.5049L40.9858 18.1684L37.6586 21.4955L35.9951 19.832Z" fill="white"/>
<path d="M23.9512 18.1665L25.6147 16.5029L28.9418 19.83L27.2782 21.4935L23.9512 18.1665Z" fill="white"/>
<path d="M50.6052 37.5554C49.6864 36.6366 48.1972 36.6364 47.2782 37.5546L48.1096 36.7234C49.0284 35.8046 49.0284 34.3147 48.1096 33.3958C47.1908 32.4771 45.7014 32.4769 44.7826 33.3952L45.614 32.5638C46.5328 31.645 46.5328 30.1552 45.614 29.2363C44.6952 28.3175 43.206 28.3174 42.287 29.2356L48.9414 22.5812C49.8602 21.6624 49.8602 20.1726 48.9414 19.2537C48.0224 18.3347 46.5326 18.3347 45.6138 19.2537L30.6887 34.2033C30.6887 34.2033 25.8083 25.7735 21.5379 30.0439L20.7061 30.8757L23.479 33.6487C26.0824 36.2522 26.0824 40.4732 23.479 43.0768L22.3697 44.186L33.1844 55.0006L35.6801 52.5048L39.9595 50.6708C40.9794 50.2338 41.9064 49.6062 42.691 48.8216L50.6052 40.8828C51.524 39.964 51.524 38.4742 50.6052 37.5554Z" fill="white"/>
</g>
</g>
</g>
<defs>
<clipPath id="clip0_716_5720">
<rect width="72" height="72" fill="white"/>
</clipPath>
<clipPath id="clip1_716_5720">
<rect width="32" height="40" fill="white" transform="translate(20 15)"/>
</clipPath>
</defs>
</svg>
