<svg width="56" height="56" viewBox="0 0 56 56" fill="none" xmlns="http://www.w3.org/2000/svg">
<rect width="56" height="56" rx="10" fill="white"/>
<g clip-path="url(#clip0_204_4104)">
<mask id="mask0_204_4104" style="mask-type:luminance" maskUnits="userSpaceOnUse" x="12" y="12" width="32" height="32">
<path d="M44 12H12V44H44V12Z" fill="white"/>
</mask>
<g mask="url(#mask0_204_4104)">
<path d="M24.2354 12H26.1177V15.7647H24.2354V12Z" fill="black"/>
<path d="M27.9956 15.8648L30.6573 13.2031L31.9881 14.5339L29.3265 17.1956L27.9956 15.8648Z" fill="black"/>
<path d="M18.3608 14.533L19.6917 13.2021L22.3533 15.8638L21.0225 17.1946L18.3608 14.533Z" fill="black"/>
<path d="M39.6839 30.0443C38.949 29.3093 37.7576 29.3091 37.0224 30.0437L37.6874 29.3787C38.4225 28.6436 38.4225 27.4518 37.6874 26.7166C36.9525 25.9816 35.7609 25.9815 35.0258 26.7161L35.6909 26.051C36.426 25.316 36.426 24.1241 35.6909 23.389C34.956 22.654 33.7645 22.6539 33.0294 23.3885L38.3529 18.065C39.088 17.3299 39.088 16.1381 38.3529 15.4029C37.6178 14.6678 36.4259 14.6678 35.6909 15.4029L23.7508 27.3626C23.7508 27.3626 19.8464 20.6188 16.4301 24.0351L15.7646 24.7006L17.983 26.9189C20.0658 29.0017 20.0658 32.3786 17.983 34.4614L17.0956 35.3487L25.7473 44.0004L27.7439 42.0039L31.1674 40.5367C31.9833 40.187 32.7249 39.6849 33.3525 39.0572L39.6839 32.7063C40.419 31.9712 40.419 30.7794 39.6839 30.0443Z" fill="black"/>
</g>
</g>
<defs>
<clipPath id="clip0_204_4104">
<rect width="32" height="32" fill="white" transform="translate(12 12)"/>
</clipPath>
</defs>
</svg>
