<svg width="65" height="64" viewBox="0 0 65 64" fill="none" xmlns="http://www.w3.org/2000/svg">
<g filter="url(#filter0_d_204_4110)">
<rect x="4.66699" width="56" height="56" rx="10" fill="white"/>
<g clip-path="url(#clip0_204_4110)">
<mask id="mask0_204_4110" style="mask-type:luminance" maskUnits="userSpaceOnUse" x="17" y="12" width="32" height="32">
<path d="M49 12H17V44H49V12Z" fill="white"/>
</mask>
<g mask="url(#mask0_204_4110)">
<path d="M27.375 38.3125C28.9283 38.3125 30.1875 37.0533 30.1875 35.5C30.1875 33.9467 28.9283 32.6875 27.375 32.6875C25.8217 32.6875 24.5625 33.9467 24.5625 35.5C24.5625 37.0533 25.8217 38.3125 27.375 38.3125Z" fill="black"/>
<path d="M43.3125 26.4254C43.3125 24.7754 42.3375 23.2754 40.8937 22.5816C40.5562 20.5754 38.7938 19.0379 36.6938 19.0379C36.0375 19.0379 35.4187 19.1879 34.8375 19.4691C33.8437 18.5879 32.5875 18.1191 31.2563 18.1191C30.0853 18.1191 28.9983 18.4851 28.1016 19.119L39.6249 30.6424C41.7014 30.3628 43.3125 28.5763 43.3125 26.4254Z" fill="black"/>
<path d="M33 12C24.2544 12 17 19.1725 17 28C17 36.7881 24.2119 44 33 44C41.7437 44 49 36.8287 49 28C49 19.2119 41.7881 12 33 12ZM33 42.125C25.2456 42.125 18.875 35.7544 18.875 28C18.875 24.4613 20.2612 21.2325 22.4269 18.7581L25.7063 22.0375C23.925 22.6938 22.6875 24.4375 22.6875 26.3875C22.6875 28.975 24.7875 31.0562 27.3562 31.0562C27.9937 31.0562 28.6125 30.9437 29.175 30.6812C30.2813 31.6937 31.725 32.2563 33.225 32.2563C34.0125 32.2563 34.7625 32.1062 35.475 31.8062L42.2419 38.5731C39.7675 40.7388 36.5387 42.125 33 42.125ZM43.5731 37.2419L23.7581 17.4269C26.2325 15.2612 29.4613 13.875 33 13.875C40.7544 13.875 47.125 20.2456 47.125 28C47.125 31.5387 45.7388 34.7675 43.5731 37.2419Z" fill="black"/>
</g>
</g>
</g>
<defs>
<filter id="filter0_d_204_4110" x="0.666992" y="0" width="64" height="64" filterUnits="userSpaceOnUse" color-interpolation-filters="sRGB">
<feFlood flood-opacity="0" result="BackgroundImageFix"/>
<feColorMatrix in="SourceAlpha" type="matrix" values="0 0 0 0 0 0 0 0 0 0 0 0 0 0 0 0 0 0 127 0" result="hardAlpha"/>
<feOffset dy="4"/>
<feGaussianBlur stdDeviation="2"/>
<feComposite in2="hardAlpha" operator="out"/>
<feColorMatrix type="matrix" values="0 0 0 0 0 0 0 0 0 0 0 0 0 0 0 0 0 0 0.25 0"/>
<feBlend mode="normal" in2="BackgroundImageFix" result="effect1_dropShadow_204_4110"/>
<feBlend mode="normal" in="SourceGraphic" in2="effect1_dropShadow_204_4110" result="shape"/>
</filter>
<clipPath id="clip0_204_4110">
<rect width="32" height="32" fill="white" transform="translate(17 12)"/>
</clipPath>
</defs>
</svg>
