<svg width="21" height="21" viewBox="0 0 21 21" fill="none" xmlns="http://www.w3.org/2000/svg">
<path d="M17.3746 7.06348H16.7496V10.1885C16.7496 11.0173 16.4204 11.8121 15.8343 12.3982C15.2483 12.9842 14.4534 13.3135 13.6246 13.3135H7.52461L5.58086 15.2635C5.55908 15.2879 5.53381 15.309 5.50586 15.326C5.54057 15.798 5.75248 16.2394 6.09908 16.5616C6.44569 16.8839 6.90134 17.0632 7.37461 17.0635H13.9934L16.3059 19.3822C16.3643 19.4402 16.4335 19.486 16.5097 19.5171C16.5858 19.5482 16.6674 19.564 16.7496 19.5635C16.8316 19.5656 16.9129 19.5485 16.9871 19.5135C17.1012 19.4666 17.199 19.387 17.2679 19.2846C17.3369 19.1823 17.374 19.0619 17.3746 18.9385V17.0635C17.8719 17.0635 18.3488 16.8659 18.7004 16.5143C19.0521 16.1627 19.2496 15.6858 19.2496 15.1885V8.93848C19.2496 8.4412 19.0521 7.96428 18.7004 7.61265C18.3488 7.26102 17.8719 7.06348 17.3746 7.06348Z" fill="black"/>
<path d="M13.625 12.0635C14.1223 12.0635 14.5992 11.8659 14.9508 11.5143C15.3025 11.1627 15.5 10.6858 15.5 10.1885V3.93848C15.5 3.4412 15.3025 2.96428 14.9508 2.61265C14.5992 2.26102 14.1223 2.06348 13.625 2.06348H3.625C3.12772 2.06348 2.65081 2.26102 2.29917 2.61265C1.94754 2.96428 1.75 3.4412 1.75 3.93848V10.1885C1.75 10.6858 1.94754 11.1627 2.29917 11.5143C2.65081 11.8659 3.12772 12.0635 3.625 12.0635V13.9385C3.62562 14.0619 3.66274 14.1823 3.7317 14.2846C3.80066 14.387 3.89836 14.4666 4.0125 14.5135C4.08667 14.5485 4.16801 14.5656 4.25 14.5635C4.33225 14.564 4.41379 14.5482 4.48994 14.5171C4.56609 14.486 4.63535 14.4402 4.69375 14.3822L7.00625 12.0635H13.625ZM11.75 6.43848C11.8736 6.43848 11.9945 6.47513 12.0972 6.54381C12.2 6.61248 12.2801 6.7101 12.3274 6.8243C12.3747 6.9385 12.3871 7.06417 12.363 7.18541C12.3389 7.30665 12.2794 7.41801 12.1919 7.50542C12.1045 7.59283 11.9932 7.65235 11.8719 7.67647C11.7507 7.70058 11.625 7.68821 11.5108 7.6409C11.3966 7.5936 11.299 7.51349 11.2303 7.41071C11.1617 7.30793 11.125 7.18709 11.125 7.06348C11.125 6.89772 11.1908 6.73875 11.3081 6.62153C11.4253 6.50432 11.5842 6.43848 11.75 6.43848ZM8.625 6.43848C8.74861 6.43848 8.86945 6.47513 8.97223 6.54381C9.07501 6.61248 9.15512 6.7101 9.20243 6.8243C9.24973 6.9385 9.26211 7.06417 9.23799 7.18541C9.21388 7.30665 9.15435 7.41801 9.06694 7.50542C8.97953 7.59283 8.86817 7.65235 8.74693 7.67647C8.62569 7.70058 8.50003 7.68821 8.38582 7.6409C8.27162 7.5936 8.17401 7.51349 8.10533 7.41071C8.03666 7.30793 8 7.18709 8 7.06348C8 6.89772 8.06585 6.73875 8.18306 6.62153C8.30027 6.50432 8.45924 6.43848 8.625 6.43848ZM5.5 7.68848C5.37639 7.68848 5.25555 7.65182 5.15277 7.58315C5.04999 7.51447 4.96988 7.41686 4.92258 7.30265C4.87527 7.18845 4.86289 7.06278 4.88701 6.94155C4.91112 6.82031 4.97065 6.70894 5.05806 6.62153C5.14547 6.53413 5.25683 6.4746 5.37807 6.45049C5.49931 6.42637 5.62497 6.43875 5.73918 6.48605C5.85338 6.53336 5.95099 6.61346 6.01967 6.71624C6.08834 6.81903 6.125 6.93986 6.125 7.06348C6.125 7.22924 6.05915 7.38821 5.94194 7.50542C5.82473 7.62263 5.66576 7.68848 5.5 7.68848Z" fill="black"/>
</svg>
