<svg width="21" height="21" viewBox="0 0 21 21" fill="none" xmlns="http://www.w3.org/2000/svg">
<g clip-path="url(#clip0_190_23955)">
<path fill-rule="evenodd" clip-rule="evenodd" d="M14.7578 3.45447C16.4918 3.93608 17.1551 5.14969 17.9867 6.82008H14.7578V3.45447ZM4.62415 6.96034C4.96365 6.96034 5.21008 7.15649 5.21008 7.61491C5.21008 8.00155 4.9487 8.31513 4.62582 8.31623H1.08594C0.762299 8.31623 0.5 8.63036 0.5 9.01755C0.5 9.40492 0.762299 9.71887 1.08594 9.71887H6.35938C6.68607 9.71887 6.9476 10.0326 6.9476 10.4202C6.9476 10.8076 6.6853 11.1215 6.36166 11.1215H1.08594C0.762299 11.1215 0.5 11.4355 0.5 11.8228C0.5 12.2102 0.762299 12.5241 1.08594 12.5241H2.375V14.6281C2.375 15.0155 2.6373 15.3294 2.96094 15.3294H4.13876C4.34872 16.5673 5.26257 17.4801 6.33984 17.4801C7.41711 17.4801 8.33096 16.5673 8.54092 15.3294H14.4903C14.7003 16.5673 15.6141 17.4801 16.6914 17.4801C17.7687 17.4801 18.6825 16.5673 18.8925 15.3294H19.9141C20.2377 15.3294 20.5 15.0155 20.5 14.6281V10.4202C20.5 8.36243 18.6866 8.22582 18.685 8.22272H14.1719C13.8482 8.22272 13.5859 7.90877 13.5859 7.5214V3.31348H2.96094C2.6373 3.31348 2.375 3.62743 2.375 4.0148V5.5577H1.67188C1.34824 5.5577 1.08594 5.87165 1.08594 6.25902C1.08594 6.64639 1.34824 6.96034 1.67188 6.96034H4.62415ZM17.451 13.8826C17.8705 14.3847 17.8705 15.199 17.451 15.7011C16.7762 16.5087 15.6172 15.9341 15.6172 14.7917C15.6172 13.6495 16.7762 13.075 17.451 13.8826ZM7.09943 13.8826C7.51889 14.3847 7.51889 15.199 7.09943 15.7011C6.42468 16.5087 5.26562 15.9341 5.26562 14.7917C5.26562 13.6495 6.42468 13.075 7.09943 13.8826Z" fill="black"/>
</g>
<defs>
<clipPath id="clip0_190_23955">
<rect width="20" height="20" fill="white" transform="translate(0.5 0.813477)"/>
</clipPath>
</defs>
</svg>
