<svg width="66" height="48" viewBox="0 0 66 48" fill="none" xmlns="http://www.w3.org/2000/svg">
<path d="M7.84375 13.0322V34.0322H14.2359V27.2546H20.0476V21.5086H14.2359V18.7601H21.3623L20.9753 13.0322H7.84375Z" fill="#E0E0E0"/>
<path d="M31.6174 13.0322C25.7673 13.0322 21.0576 17.7153 21.0576 23.5323C21.0576 29.3493 25.7673 34.0322 31.6174 34.0322C37.4675 34.0322 42.1771 29.3493 42.1771 23.5323C42.1771 17.7153 37.4675 13.0322 31.6174 13.0322ZM31.6174 17.357C32.6052 17.357 33.4003 18.1476 33.4003 19.1298V27.9346C33.4003 28.9168 32.6052 29.7075 31.6174 29.7075C30.6296 29.7075 29.8344 28.9168 29.8344 27.9346V19.1298C29.8344 18.1476 30.6296 17.357 31.6174 17.357Z" fill="#E0E0E0"/>
<path d="M39.0098 13.0322L45.0016 23.5322L39.0098 34.0322H45.8602L48.4268 29.5344L50.9935 34.0322H57.8439L51.8521 23.5322L57.8439 13.0322H50.9935L48.4268 17.53L45.8603 13.0322H39.0098Z" fill="#E0E0E0"/>
</svg>
