<svg width="133" height="56" viewBox="0 0 133 56" fill="none" xmlns="http://www.w3.org/2000/svg">
<path d="M9.02344 5.5625V34H2.16797V5.5625H9.02344ZM20.0781 17.3984V22.6719H7.07031V17.3984H20.0781ZM21.1914 5.5625V10.8555H7.07031V5.5625H21.1914ZM42.4727 5.5625H49.3281V24.1367C49.3281 26.3503 48.8659 28.2253 47.9414 29.7617C47.0169 31.2852 45.7214 32.4375 44.0547 33.2188C42.388 34 40.4284 34.3906 38.1758 34.3906C35.9492 34.3906 33.9896 34 32.2969 33.2188C30.6172 32.4375 29.3021 31.2852 28.3516 29.7617C27.4141 28.2253 26.9453 26.3503 26.9453 24.1367V5.5625H33.8203V24.1367C33.8203 25.3086 33.9896 26.2656 34.3281 27.0078C34.6667 27.737 35.1615 28.2708 35.8125 28.6094C36.4635 28.9479 37.2513 29.1172 38.1758 29.1172C39.1133 29.1172 39.901 28.9479 40.5391 28.6094C41.1771 28.2708 41.6589 27.737 41.9844 27.0078C42.3099 26.2656 42.4727 25.3086 42.4727 24.1367V5.5625ZM76.2148 28.7266V34H61.0586V28.7266H76.2148ZM63.5 5.5625V34H56.6445V5.5625H63.5ZM74.2617 16.8516V21.9492H61.0586V16.8516H74.2617ZM76.2734 5.5625V10.8555H61.0586V5.5625H76.2734ZM100.816 28.7266V34H86.4414V28.7266H100.816ZM88.8828 5.5625V34H82.0273V5.5625H88.8828Z" fill="black"/>
<path d="M8.72656 49.9766C8.72656 49.7995 8.70052 49.6406 8.64844 49.5C8.59635 49.3542 8.5 49.2188 8.35938 49.0938C8.21875 48.9688 8.01562 48.8438 7.75 48.7188C7.48958 48.5885 7.14583 48.4531 6.71875 48.3125C6.21875 48.1458 5.73698 47.9583 5.27344 47.75C4.8099 47.5365 4.39583 47.2891 4.03125 47.0078C3.66667 46.7214 3.3776 46.388 3.16406 46.0078C2.95052 45.6224 2.84375 45.1745 2.84375 44.6641C2.84375 44.1745 2.95312 43.7344 3.17188 43.3438C3.39062 42.9479 3.69531 42.612 4.08594 42.3359C4.48177 42.0547 4.94531 41.8411 5.47656 41.6953C6.00781 41.5443 6.58854 41.4688 7.21875 41.4688C8.05208 41.4688 8.78646 41.6146 9.42188 41.9062C10.0625 42.1927 10.5625 42.6016 10.9219 43.1328C11.2865 43.6589 11.4688 44.2812 11.4688 45H8.74219C8.74219 44.7135 8.68229 44.4609 8.5625 44.2422C8.44792 44.0234 8.27344 43.8516 8.03906 43.7266C7.80469 43.6016 7.51042 43.5391 7.15625 43.5391C6.8125 43.5391 6.52344 43.5911 6.28906 43.6953C6.05469 43.7995 5.8776 43.9401 5.75781 44.1172C5.63802 44.2891 5.57812 44.4792 5.57812 44.6875C5.57812 44.8594 5.625 45.0156 5.71875 45.1562C5.81771 45.2917 5.95573 45.4193 6.13281 45.5391C6.3151 45.6589 6.53385 45.7734 6.78906 45.8828C7.04948 45.9922 7.34115 46.099 7.66406 46.2031C8.26823 46.3958 8.80469 46.612 9.27344 46.8516C9.7474 47.0859 10.1458 47.3542 10.4688 47.6562C10.7969 47.9531 11.0443 48.2917 11.2109 48.6719C11.3828 49.0521 11.4688 49.4818 11.4688 49.9609C11.4688 50.4714 11.3698 50.9245 11.1719 51.3203C10.974 51.7161 10.6901 52.0521 10.3203 52.3281C9.95052 52.599 9.50781 52.8047 8.99219 52.9453C8.47656 53.0859 7.90104 53.1562 7.26562 53.1562C6.68229 53.1562 6.10677 53.0833 5.53906 52.9375C4.97656 52.7865 4.46615 52.5573 4.00781 52.25C3.54948 51.9375 3.18229 51.5391 2.90625 51.0547C2.63542 50.5651 2.5 49.9844 2.5 49.3125H5.25C5.25 49.6458 5.29427 49.9271 5.38281 50.1562C5.47135 50.3854 5.60156 50.5703 5.77344 50.7109C5.94531 50.8464 6.15625 50.9453 6.40625 51.0078C6.65625 51.0651 6.94271 51.0938 7.26562 51.0938C7.61458 51.0938 7.89583 51.0443 8.10938 50.9453C8.32292 50.8411 8.47917 50.7057 8.57812 50.5391C8.67708 50.3672 8.72656 50.1797 8.72656 49.9766ZM31.7031 44.0156L28.9297 53H25.9844L30.1641 41.625H32.0312L31.7031 44.0156ZM34 53L31.2188 44.0156L30.8594 41.625H32.75L36.9531 53H34ZM33.8906 48.7578V50.875H28.0547V48.7578H33.8906ZM55.4844 50.3203L57.8516 41.625H60.9219L57.0859 53H55.1016L55.4844 50.3203ZM53.3359 41.625L55.7031 50.3203L56.1016 53H54.0938L50.2812 41.625H53.3359ZM83.5859 50.8906V53H77.5234V50.8906H83.5859ZM78.5 41.625V53H75.7578V41.625H78.5ZM82.8047 46.1406V48.1797H77.5234V46.1406H82.8047ZM83.6094 41.625V43.7422H77.5234V41.625H83.6094ZM98.7109 41.625H103.188C104.062 41.625 104.823 41.7552 105.469 42.0156C106.115 42.276 106.612 42.6615 106.961 43.1719C107.315 43.6823 107.492 44.3125 107.492 45.0625C107.492 45.7135 107.391 46.2578 107.188 46.6953C106.984 47.1328 106.701 47.4948 106.336 47.7812C105.977 48.0625 105.557 48.2943 105.078 48.4766L104.18 48.9844H100.422L100.406 46.8672H103.188C103.536 46.8672 103.826 46.8047 104.055 46.6797C104.284 46.5547 104.456 46.3776 104.57 46.1484C104.69 45.9141 104.75 45.6354 104.75 45.3125C104.75 44.9844 104.69 44.7031 104.57 44.4688C104.451 44.2344 104.273 44.0547 104.039 43.9297C103.81 43.8047 103.526 43.7422 103.188 43.7422H101.453V53H98.7109V41.625ZM104.938 53L102.422 47.9688L105.328 47.9531L107.875 52.8828V53H104.938ZM129.008 49.9766C129.008 49.7995 128.982 49.6406 128.93 49.5C128.878 49.3542 128.781 49.2188 128.641 49.0938C128.5 48.9688 128.297 48.8438 128.031 48.7188C127.771 48.5885 127.427 48.4531 127 48.3125C126.5 48.1458 126.018 47.9583 125.555 47.75C125.091 47.5365 124.677 47.2891 124.312 47.0078C123.948 46.7214 123.659 46.388 123.445 46.0078C123.232 45.6224 123.125 45.1745 123.125 44.6641C123.125 44.1745 123.234 43.7344 123.453 43.3438C123.672 42.9479 123.977 42.612 124.367 42.3359C124.763 42.0547 125.227 41.8411 125.758 41.6953C126.289 41.5443 126.87 41.4688 127.5 41.4688C128.333 41.4688 129.068 41.6146 129.703 41.9062C130.344 42.1927 130.844 42.6016 131.203 43.1328C131.568 43.6589 131.75 44.2812 131.75 45H129.023C129.023 44.7135 128.964 44.4609 128.844 44.2422C128.729 44.0234 128.555 43.8516 128.32 43.7266C128.086 43.6016 127.792 43.5391 127.438 43.5391C127.094 43.5391 126.805 43.5911 126.57 43.6953C126.336 43.7995 126.159 43.9401 126.039 44.1172C125.919 44.2891 125.859 44.4792 125.859 44.6875C125.859 44.8594 125.906 45.0156 126 45.1562C126.099 45.2917 126.237 45.4193 126.414 45.5391C126.596 45.6589 126.815 45.7734 127.07 45.8828C127.331 45.9922 127.622 46.099 127.945 46.2031C128.549 46.3958 129.086 46.612 129.555 46.8516C130.029 47.0859 130.427 47.3542 130.75 47.6562C131.078 47.9531 131.326 48.2917 131.492 48.6719C131.664 49.0521 131.75 49.4818 131.75 49.9609C131.75 50.4714 131.651 50.9245 131.453 51.3203C131.255 51.7161 130.971 52.0521 130.602 52.3281C130.232 52.599 129.789 52.8047 129.273 52.9453C128.758 53.0859 128.182 53.1562 127.547 53.1562C126.964 53.1562 126.388 53.0833 125.82 52.9375C125.258 52.7865 124.747 52.5573 124.289 52.25C123.831 51.9375 123.464 51.5391 123.188 51.0547C122.917 50.5651 122.781 49.9844 122.781 49.3125H125.531C125.531 49.6458 125.576 49.9271 125.664 50.1562C125.753 50.3854 125.883 50.5703 126.055 50.7109C126.227 50.8464 126.438 50.9453 126.688 51.0078C126.938 51.0651 127.224 51.0938 127.547 51.0938C127.896 51.0938 128.177 51.0443 128.391 50.9453C128.604 50.8411 128.76 50.7057 128.859 50.5391C128.958 50.3672 129.008 50.1797 129.008 49.9766Z" fill="black"/>
</svg>
