<svg width="164" height="48" viewBox="0 0 164 48" fill="none" xmlns="http://www.w3.org/2000/svg">
<mask id="mask0_308_15761" style="mask-type:luminance" maskUnits="userSpaceOnUse" x="7" y="12" width="150" height="22">
<path d="M156.094 12.5508H7.84375V33.7294H156.094V12.5508Z" fill="white"/>
</mask>
<g mask="url(#mask0_308_15761)">
<path d="M32.1396 31.2005V15.0654C32.1396 14.2275 32.3316 13.5984 32.7155 13.1796C33.099 12.7607 33.5958 12.5508 34.204 12.5508C34.8315 12.5508 35.3392 12.7585 35.7281 13.1728C36.1164 13.5872 36.3111 14.2177 36.3111 15.0654V31.2005C36.3111 32.0478 36.1164 32.6812 35.7281 33.1002C35.3392 33.5196 34.8315 33.7293 34.204 33.7293C33.6047 33.7293 33.1109 33.5172 32.7222 33.0934C32.3337 32.6695 32.1396 32.0382 32.1396 31.2005Z" fill="#E0E0E0"/>
<path d="M145.464 16.848C141.975 16.848 139.137 19.6739 139.137 23.147C139.137 26.6197 141.975 29.4454 145.464 29.4454C148.952 29.4454 151.79 26.6197 151.79 23.147C151.79 19.6739 148.952 16.848 145.464 16.848ZM145.464 33.7294C139.603 33.7294 134.834 28.9819 134.834 23.147C134.834 17.3113 139.603 12.564 145.464 12.564C151.325 12.564 156.093 17.3113 156.093 23.147C156.093 28.9819 151.325 33.7294 145.464 33.7294Z" fill="#E0E0E0"/>
<path d="M97.7464 16.848C94.2583 16.848 91.4202 19.6739 91.4202 23.147C91.4202 26.6197 94.2583 29.4454 97.7464 29.4454C101.236 29.4454 104.073 26.6197 104.073 23.147C104.073 19.6739 101.236 16.848 97.7464 16.848ZM97.7464 33.7294C91.8854 33.7294 87.1172 28.9819 87.1172 23.147C87.1172 17.3113 91.8854 12.564 97.7464 12.564C103.608 12.564 108.377 17.3113 108.377 23.147C108.377 28.9819 103.608 33.7294 97.7464 33.7294Z" fill="#E0E0E0"/>
<path d="M121.552 29.3935C121.038 29.4269 120.484 29.4327 119.889 29.4327H117.099V16.8475H119.889C120.484 16.8475 121.038 16.854 121.552 16.8866C123.397 17.1062 125 18.1173 126.007 19.5713C126.709 20.5836 127.122 21.8074 127.125 23.1274C127.125 23.1308 127.125 23.1342 127.125 23.1378V23.1425C127.125 23.1458 127.125 23.1493 127.125 23.1527C127.122 24.4726 126.709 25.6965 126.007 26.7091C125 28.163 123.397 29.1737 121.552 29.3935ZM131.428 23.14V23.1372C131.427 20.8017 130.662 18.6418 129.371 16.8893C127.494 14.3406 124.501 12.6583 121.114 12.5591C121.009 12.5559 120.905 12.5508 120.798 12.5508C120.793 12.5508 115.461 12.5576 115.461 12.5576C114.549 12.5576 113.889 12.7643 113.482 13.1774C113.073 13.5906 112.869 14.2583 112.869 15.1812V31.0989C112.869 32.0217 113.073 32.6892 113.482 33.1029C113.889 33.5163 114.549 33.7227 115.461 33.7227C115.461 33.7227 120.793 33.7293 120.798 33.7293C120.905 33.7293 121.009 33.7242 121.114 33.7213C124.501 33.6218 127.494 31.9396 129.371 29.3908C130.662 27.6383 131.427 25.4784 131.428 23.143V23.14Z" fill="#E0E0E0"/>
<path d="M81.0971 12.6458C80.3203 12.4056 79.4812 12.7095 79.0287 13.3957L72.6197 23.1154L66.2109 13.3957C65.759 12.7095 64.9194 12.4056 64.1426 12.6458C63.3661 12.8863 62.8359 13.6151 62.8359 14.4412V31.716C62.8359 32.7526 63.6616 33.5928 64.6795 33.5928C65.6981 33.5928 66.5236 32.7526 66.5236 31.716V20.6063L71.074 27.5067C71.0771 27.5115 71.0801 27.5159 71.0831 27.5207L71.0888 27.529C71.0942 27.5375 71.1007 27.5451 71.1063 27.5536C71.1347 27.5949 71.1639 27.636 71.1962 27.6754C71.2103 27.6929 71.225 27.7085 71.2396 27.725C71.2651 27.754 71.2898 27.7831 71.3169 27.8106C71.3412 27.8354 71.3672 27.8585 71.393 27.8823C71.4116 27.8992 71.4302 27.9171 71.4497 27.9336C71.4861 27.964 71.523 27.9913 71.5611 28.0181C71.5719 28.0256 71.5815 28.0346 71.5925 28.0419C71.5925 28.0419 71.5953 28.0436 71.5973 28.0448C71.6378 28.0722 71.6798 28.0971 71.7227 28.1214C71.7344 28.1282 71.7461 28.1362 71.758 28.1423C71.7899 28.1598 71.8228 28.1742 71.8562 28.1897C72.0427 28.2765 72.2382 28.3307 72.4349 28.351L72.4388 28.3517C72.478 28.355 72.517 28.3558 72.5556 28.3575C72.5771 28.3582 72.5987 28.3602 72.6197 28.3602C72.6416 28.3602 72.6626 28.3582 72.6841 28.3575C72.7233 28.3558 72.7621 28.355 72.8011 28.3517L72.8048 28.351C73.0019 28.3307 73.1972 28.2765 73.3839 28.1897C73.4169 28.1742 73.4502 28.1598 73.4819 28.1423C73.4942 28.1362 73.5053 28.1282 73.5176 28.1214C73.5603 28.0971 73.6021 28.0722 73.6426 28.0448C73.6446 28.0436 73.6478 28.0419 73.6478 28.0419C73.6587 28.0346 73.6682 28.0256 73.6788 28.0181C73.7169 27.9913 73.7544 27.964 73.7904 27.9336C73.8101 27.9171 73.8283 27.8992 73.8478 27.8816C73.8729 27.8585 73.8987 27.8354 73.923 27.8111C73.9505 27.7831 73.9752 27.7537 74.0006 27.7247C74.0153 27.7085 74.0302 27.6925 74.0439 27.6754C74.076 27.636 74.1052 27.5949 74.1338 27.5536C74.1394 27.5451 74.1459 27.5375 74.1516 27.529L74.1568 27.5207C74.16 27.5159 74.1628 27.5115 74.1663 27.5067L78.7161 20.6063V31.716C78.7161 32.7526 79.5412 33.5928 80.5608 33.5928C81.5783 33.5928 82.4046 32.7526 82.4046 31.716V14.4412C82.4046 13.6151 81.8738 12.8863 81.0971 12.6458Z" fill="#E0E0E0"/>
<path d="M56.5606 33.086H42.7769C42.0519 33.086 41.2463 32.6345 40.948 31.9317C40.6494 31.2297 40.5883 30.2737 41.2303 29.5119L52.5054 16.4873H43.1905C42.1722 16.4873 41.3462 15.6092 41.3462 14.5258C41.3462 13.4424 42.1722 12.7808 43.1905 12.7808H55.7516C56.4763 12.7808 57.2271 12.8956 57.8829 13.611C58.4822 14.2647 58.4558 15.6756 57.7845 16.5169L46.8903 29.1636H56.5606C57.5791 29.1636 58.3206 30.0417 58.3206 31.1246C58.3206 32.2077 57.5791 33.086 56.5606 33.086Z" fill="#E0E0E0"/>
<path d="M18.3964 33.7296C15.3378 33.7296 12.5639 32.5222 10.5857 30.3298C8.84287 28.3982 7.84375 25.8532 7.84375 23.347C7.84375 15.4823 14.4104 12.5513 18.55 12.5513C22.6198 12.5513 25.6075 14.5383 25.7326 14.6225C26.6492 15.2418 26.8944 16.4932 26.2804 17.4175C25.6678 18.3386 24.4328 18.5876 23.5171 17.9753C23.4637 17.9412 21.3443 16.5802 18.55 16.5802C15.9553 16.5802 12.3772 18.2851 12.3772 23.347C12.3772 26.2267 14.5288 29.6231 18.4735 29.6231C20.693 29.6231 22.2535 29.0344 23.1606 28.4597V25.4646H20.0869C18.9836 25.4646 18.089 24.5629 18.089 23.4502C18.089 22.3377 18.9836 21.4357 20.0869 21.4357H25.1586C26.2618 21.4357 27.1563 22.3377 27.1563 23.4502V29.4419C27.1563 29.9869 26.9374 30.508 26.55 30.8876C25.2105 32.1985 22.2715 33.7296 18.3964 33.7296Z" fill="#E0E0E0"/>
</g>
</svg>
