<svg width="1000" height="40" viewBox="0 0 1000 40" fill="none" xmlns="http://www.w3.org/2000/svg">
<mask id="mask0_204_3926" style="mask-type:luminance" maskUnits="userSpaceOnUse" x="6" y="10" width="110" height="19">
<path d="M115.698 10.7852H6.53638V28.434H115.698V10.7852Z" fill="white"/>
</mask>
<g mask="url(#mask0_204_3926)">
<path d="M15.6942 17.6241H13.0568V23.6541C13.0568 24.6836 13.6428 24.9042 14.5953 24.9042C14.9616 24.9042 15.3279 24.8307 15.6942 24.8307V27.9927C14.8883 27.9927 14.0824 28.1398 13.3498 28.1398C9.68667 28.1398 8.73425 27.0367 8.73425 23.4335V17.6241H6.53638V14.7562H8.73425V10.7852H13.0568V14.7562H15.6942V17.6241ZM19.5038 22.4775C19.5771 24.3159 20.6028 25.4925 22.4343 25.4925C23.46 25.4925 24.4858 24.9777 24.9253 24.0217H28.9548C28.2221 27.1103 25.3648 28.434 22.4343 28.434C18.1118 28.434 15.1813 25.8602 15.1813 21.3744C15.1813 17.3299 18.4049 14.3884 22.2878 14.3884C27.0499 14.3884 29.3943 17.9917 29.1745 22.4775H19.5038ZM24.852 20.0507C24.7788 18.5801 23.7531 17.3299 22.2878 17.3299C20.7493 17.3299 19.7237 18.433 19.5038 20.0507H24.852ZM38.6987 19.6096C38.6987 18.5065 37.673 17.6976 36.5741 17.6976C34.1564 17.6976 33.7901 19.7567 33.7901 21.5951C33.7901 23.2864 34.5227 25.0512 36.3543 25.0512C37.8928 25.0512 38.6254 24.1688 38.8452 22.7717H43.0212C42.6548 26.3749 39.9441 28.434 36.4275 28.434C32.4713 28.434 29.4676 25.7131 29.4676 21.6686C29.4676 17.477 32.105 14.462 36.4275 14.462C39.7243 14.462 42.6548 16.2269 42.9479 19.6831H38.6987V19.6096ZM43.1677 10.7852H47.4902V16.5946H47.5634C48.2228 15.2709 49.9811 14.3884 51.5929 14.3884C55.9887 14.3884 56.3549 17.6241 56.3549 19.536V28.0663H52.0324V21.6686C52.0324 19.8302 52.2523 17.9917 49.8346 17.9917C48.2228 17.9917 47.4902 19.3889 47.4902 20.8597V28.0663H43.1677V10.7852ZM56.7213 14.7562H60.8973V17.1093H60.9705C61.6298 15.418 63.0951 14.5355 64.9267 14.5355C65.293 14.5355 65.586 14.5355 65.9523 14.6091V18.5801C65.3663 18.433 64.8534 18.3594 64.2673 18.3594C62.1427 18.3594 61.0438 19.8302 61.0438 21.5215V28.0663H56.7213V14.7562ZM65.9523 18.8742C66.0256 17.1093 66.8315 16.0062 68.0037 15.3444C69.1759 14.6826 70.7144 14.3884 72.1797 14.3884C75.33 14.3884 78.3338 15.0502 78.3338 18.8007V24.6101C78.3338 25.7131 78.3338 26.9632 78.8466 27.9927H74.5241C74.3776 27.5515 74.3043 27.1838 74.3043 26.7427C73.1321 27.9927 71.5203 28.434 69.9085 28.434C67.4176 28.434 65.3663 27.1838 65.3663 24.3895C65.3663 20.0507 70.0551 20.4185 73.0588 19.7567C73.7914 19.6096 74.231 19.3154 74.231 18.5065C74.231 17.477 73.0588 17.1093 72.1064 17.1093C70.9342 17.1093 70.1283 17.6241 69.9085 18.8007H65.9523V18.8742ZM71.5203 25.7867C73.5717 25.7867 74.3043 24.6101 74.1578 21.8892C73.5717 22.2569 72.3994 22.3304 71.5203 22.6246C70.5679 22.8452 69.762 23.2864 69.762 24.3159C69.762 25.3454 70.5679 25.7867 71.5203 25.7867ZM92.3266 28.0663H88.2241V26.522H88.1508C87.7641 27.1212 87.2316 27.6113 86.6033 27.9459C85.9749 28.2805 85.2724 28.4485 84.5608 28.434C80.3851 28.434 78.6268 24.8307 78.6268 21.1538C78.6268 17.6976 80.4583 14.462 84.1949 14.462C85.8066 14.462 87.0516 15.0502 87.9308 16.3004H88.0041V10.7852H92.3266V28.0663ZM82.9493 21.3009C82.9493 23.1393 83.6083 25.1248 85.5866 25.1248C87.7116 25.1248 88.1508 23.1393 88.1508 21.448C88.1508 19.536 87.4916 17.7712 85.5866 17.7712C83.6083 17.6976 82.9493 19.6096 82.9493 21.3009ZM92.9866 18.8742C93.0599 17.1093 93.8658 16.0062 95.0374 15.3444C96.2099 14.6826 97.7483 14.3884 99.2133 14.3884C102.364 14.3884 105.367 15.0502 105.367 18.8007V24.6101C105.367 25.7131 105.367 26.9632 105.881 27.9927H101.558C101.412 27.5515 101.338 27.1838 101.338 26.7427C100.166 27.9927 98.4808 28.434 96.9424 28.434C94.4516 28.434 92.3999 27.1838 92.3999 24.3895C92.3999 20.0507 97.0891 20.4185 100.092 19.7567C100.826 19.6096 101.265 19.3154 101.265 18.5065C101.265 17.477 100.092 17.1093 99.1399 17.1093C97.9683 17.1093 97.1624 17.6241 96.9424 18.8007H92.9866V18.8742ZM98.5541 25.7867C100.606 25.7867 101.338 24.6101 101.192 21.8892C100.606 22.2569 99.4333 22.3304 98.5541 22.6246C97.6016 22.8452 96.7958 23.2864 96.7958 24.3159C96.7224 25.3454 97.6016 25.7867 98.5541 25.7867ZM106.027 14.7562H110.203V17.1093H110.277C110.936 15.418 112.401 14.5355 114.232 14.5355C114.599 14.5355 115.332 14.5355 115.697 14.6091V18.5801C115.112 18.433 114.232 18.3594 113.647 18.3594C111.522 18.3594 110.422 19.8302 110.422 21.5215V28.0663H106.1V14.7562H106.027Z" fill="#E0E0E0"/>
<path d="M111.375 23.7275H115.698V28.0662H111.375V23.7275Z" fill="#E0E0E0"/>
</g>
<path d="M218.129 16.664H229.686V10.7725H218.129V16.664Z" fill="#E0E0E0"/>
<path d="M195.036 10.7725V16.664H200.804V28.4473H206.572V16.664H212.361V10.7725H195.036Z" fill="#E0E0E0"/>
<path d="M212.361 28.4463H229.685V22.5547H218.129V16.6631H212.361V28.4463Z" fill="#E0E0E0"/>
<path d="M244.415 15.2217H235.927V17.6731H238.77V25.3569H241.572V17.6731H244.415V15.2217Z" fill="#E0E0E0"/>
<path d="M247.608 17.5908C245.61 17.5908 244.127 18.9298 244.127 21.5667C244.127 23.8944 245.383 25.5218 247.67 25.5218C248.865 25.5218 249.833 25.2128 250.76 24.6567L249.771 22.988C249.009 23.3794 248.473 23.5237 247.794 23.5237C247.093 23.5237 246.599 23.1528 246.496 22.3082H250.966C250.987 22.1847 250.987 22.0198 250.987 21.7932C251.007 18.971 249.709 17.5908 247.608 17.5908ZM246.537 20.6808C246.619 19.9186 246.949 19.5272 247.546 19.5272C248.309 19.5272 248.576 19.9186 248.7 20.6808H246.537Z" fill="#E0E0E0"/>
<path d="M255.951 23.4C255.25 23.4 254.879 22.782 254.879 21.5667C254.879 20.3718 255.209 19.692 255.889 19.692C256.445 19.692 256.692 20.001 257.063 20.6808L258.855 19.3212C258.196 18.25 257.372 17.5908 255.93 17.5908C253.499 17.5908 252.304 19.1976 252.304 21.5254C252.304 24.0798 253.643 25.5012 255.868 25.5012C257.207 25.5012 258.031 24.9862 258.917 23.6884L257.269 22.3907C256.775 23.1322 256.445 23.4 255.951 23.4Z" fill="#E0E0E0"/>
<path d="M264.932 17.5906C264.026 17.5906 263.49 17.8996 263.016 18.2497V14.8096L260.4 15.8602V25.3774H263.016V21.0308C263.016 20.0832 263.346 19.8154 263.902 19.8154C264.438 19.8154 264.767 20.0832 264.767 21.0514V25.3774H267.384V20.7218C267.384 18.7236 266.58 17.5906 264.932 17.5906Z" fill="#E0E0E0"/>
<path d="M273.667 23.0701C272.452 23.0701 271.957 21.8341 271.957 20.2891C271.957 18.6822 272.472 17.508 273.647 17.508C274.573 17.508 274.923 18.1054 275.273 19.0531L277.828 18.0436C277.127 16.1278 276.139 15.0566 273.647 15.0566C270.927 15.0566 269.011 17.0342 269.011 20.2891C269.011 23.2966 270.618 25.5215 273.626 25.5215C276.036 25.5215 277.169 24.2236 277.848 22.9052L275.48 21.6486C274.923 22.5962 274.552 23.0701 273.667 23.0701Z" fill="#E0E0E0"/>
<path d="M282.052 18.3118V17.7556H279.435V25.3571H282.052V21.2164C282.052 20.2894 282.443 19.9804 283.082 19.9804C283.597 19.9804 283.968 20.2482 284.297 20.619L284.915 17.9204C284.606 17.735 284.235 17.5908 283.678 17.5908C282.999 17.5908 282.484 17.8792 282.052 18.3118Z" fill="#E0E0E0"/>
<path d="M290.497 22.1025C290.497 23.0501 290.167 23.3179 289.632 23.3179C289.096 23.3179 288.767 23.0501 288.767 22.0819V17.7559H286.15V22.4115C286.15 24.4097 286.954 25.5221 288.622 25.5221C289.508 25.5221 290.064 25.2131 290.517 24.8629V25.3779H293.134V17.7765H290.517V22.1025" fill="#E0E0E0"/>
<path d="M299.541 17.5908C298.634 17.5908 298.098 17.8998 297.625 18.25V17.735H295.008V25.3364H297.625V20.9898C297.625 20.0422 297.954 19.7744 298.511 19.7744C299.046 19.7744 299.376 20.0422 299.376 21.0104V25.3364H301.992V20.6808C301.992 18.7238 301.209 17.5908 299.541 17.5908Z" fill="#E0E0E0"/>
<path d="M307.183 23.4C306.483 23.4 306.112 22.782 306.112 21.5667C306.112 20.3718 306.442 19.692 307.101 19.692C307.657 19.692 307.904 20.001 308.275 20.6808L310.067 19.3212C309.408 18.25 308.584 17.5908 307.142 17.5908C304.712 17.5908 303.517 19.1976 303.517 21.5254C303.517 24.0798 304.856 25.5012 307.081 25.5012C308.419 25.5012 309.243 24.9862 310.129 23.6884L308.482 22.3907C308.028 23.1322 307.677 23.4 307.183 23.4Z" fill="#E0E0E0"/>
<path d="M316.165 17.5906C315.258 17.5906 314.723 17.8996 314.249 18.2497V14.8096L311.633 15.8602V25.3774H314.249V21.0308C314.249 20.0832 314.579 19.8154 315.135 19.8154C315.671 19.8154 316 20.0832 316 21.0514V25.3774H318.617V20.7218C318.637 18.7236 317.833 17.5906 316.165 17.5906Z" fill="#E0E0E0"/>
<path d="M397.703 10.8604V28.3604H403.03V22.7124H407.873V17.924H403.03V15.6336H408.969L408.646 10.8604H397.703Z" fill="#E0E0E0"/>
<path d="M417.514 10.8604C412.639 10.8604 408.714 14.7629 408.714 19.6104C408.714 24.4579 412.639 28.3604 417.514 28.3604C422.389 28.3604 426.314 24.4579 426.314 19.6104C426.314 14.7629 422.389 10.8604 417.514 10.8604ZM417.514 14.4644C418.337 14.4644 419 15.1232 419 15.9417V23.279C419 24.0975 418.337 24.7564 417.514 24.7564C416.691 24.7564 416.028 24.0975 416.028 23.279V15.9417C416.028 15.1232 416.691 14.4644 417.514 14.4644Z" fill="#E0E0E0"/>
<path d="M423.675 10.8604L428.668 19.6104L423.675 28.3604H429.383L431.522 24.6122L433.661 28.3604H439.37L434.377 19.6104L439.37 10.8604H433.661L431.522 14.6085L429.384 10.8604H423.675Z" fill="#E0E0E0"/>
<mask id="mask1_204_3926" style="mask-type:luminance" maskUnits="userSpaceOnUse" x="518" y="10" width="125" height="19">
<path d="M642.245 10.459H518.703V28.1078H642.245V10.459Z" fill="white"/>
</mask>
<g mask="url(#mask1_204_3926)">
<path d="M538.95 26.0004V12.5545C538.95 11.8562 539.11 11.332 539.43 10.983C539.749 10.6339 540.163 10.459 540.67 10.459C541.193 10.459 541.616 10.6321 541.94 10.9773C542.264 11.3227 542.426 11.8481 542.426 12.5545V26.0004C542.426 26.7065 542.264 27.2343 541.94 27.5835C541.616 27.933 541.193 28.1077 540.67 28.1077C540.171 28.1077 539.759 27.931 539.435 27.5778C539.111 27.2246 538.95 26.6985 538.95 26.0004Z" fill="#E0E0E0"/>
<path d="M633.387 14.0397C630.479 14.0397 628.114 16.3946 628.114 19.2889C628.114 22.1828 630.479 24.5376 633.387 24.5376C636.293 24.5376 638.658 22.1828 638.658 19.2889C638.658 16.3946 636.293 14.0397 633.387 14.0397ZM633.387 28.1076C628.502 28.1076 624.528 24.1513 624.528 19.2889C624.528 14.4258 628.502 10.4697 633.387 10.4697C638.271 10.4697 642.244 14.4258 642.244 19.2889C642.244 24.1513 638.271 28.1076 633.387 28.1076Z" fill="#E0E0E0"/>
<path d="M593.622 14.0397C590.715 14.0397 588.35 16.3946 588.35 19.2889C588.35 22.1828 590.715 24.5376 593.622 24.5376C596.53 24.5376 598.894 22.1828 598.894 19.2889C598.894 16.3946 596.53 14.0397 593.622 14.0397ZM593.622 28.1076C588.738 28.1076 584.764 24.1513 584.764 19.2889C584.764 14.4258 588.738 10.4697 593.622 10.4697C598.506 10.4697 602.481 14.4258 602.481 19.2889C602.481 24.1513 598.506 28.1076 593.622 28.1076Z" fill="#E0E0E0"/>
<path d="M613.46 24.4946C613.032 24.5224 612.57 24.5272 612.074 24.5272H609.749V14.0396H612.074C612.57 14.0396 613.032 14.045 613.46 14.0722C614.997 14.2552 616.333 15.0977 617.172 16.3094C617.757 17.153 618.102 18.1728 618.104 19.2728C618.104 19.2757 618.104 19.2785 618.104 19.2815V19.2854C618.104 19.2882 618.104 19.2911 618.104 19.2939C618.102 20.3938 617.757 21.4137 617.172 22.2576C616.333 23.4692 614.997 24.3114 613.46 24.4946ZM621.69 19.2833V19.281C621.689 17.3347 621.052 15.5348 619.976 14.0744C618.412 11.9505 615.917 10.5486 613.095 10.4659C613.007 10.4632 612.921 10.459 612.832 10.459C612.827 10.459 608.384 10.4647 608.384 10.4647C607.624 10.4647 607.074 10.6369 606.735 10.9812C606.394 11.3255 606.224 11.8819 606.224 12.651V25.9157C606.224 26.6847 606.394 27.241 606.735 27.5857C607.074 27.9302 607.624 28.1022 608.384 28.1022C608.384 28.1022 612.827 28.1077 612.832 28.1077C612.921 28.1077 613.007 28.1035 613.095 28.1011C615.917 28.0182 618.412 26.6163 619.976 24.4923C621.052 23.0319 621.689 21.232 621.69 19.2858V19.2833Z" fill="#E0E0E0"/>
<path d="M579.747 10.5375C579.1 10.3374 578.401 10.5906 578.024 11.1624L572.683 19.2622L567.342 11.1624C566.966 10.5906 566.266 10.3374 565.619 10.5375C564.972 10.7379 564.53 11.3453 564.53 12.0337V26.4294C564.53 27.2932 565.218 27.9934 566.066 27.9934C566.915 27.9934 567.603 27.2932 567.603 26.4294V17.1713L571.395 22.9216C571.397 22.9256 571.4 22.9293 571.402 22.9333L571.407 22.9402C571.412 22.9473 571.417 22.9536 571.422 22.9607C571.445 22.9951 571.47 23.0294 571.497 23.0622C571.508 23.0768 571.521 23.0898 571.533 23.1035C571.554 23.1277 571.575 23.1519 571.597 23.1749C571.618 23.1955 571.639 23.2148 571.661 23.2346C571.676 23.2487 571.692 23.2636 571.708 23.2774C571.738 23.3027 571.769 23.3254 571.801 23.3478C571.81 23.354 571.818 23.3615 571.827 23.3676C571.827 23.3676 571.829 23.369 571.831 23.37C571.865 23.3929 571.9 23.4136 571.935 23.4339C571.945 23.4395 571.955 23.4462 571.965 23.4513C571.991 23.4659 572.019 23.4779 572.047 23.4908C572.202 23.5631 572.365 23.6083 572.529 23.6252L572.532 23.6258C572.565 23.6285 572.597 23.6292 572.63 23.6306C572.647 23.6312 572.665 23.6329 572.683 23.6329C572.701 23.6329 572.719 23.6312 572.737 23.6306C572.769 23.6292 572.802 23.6285 572.834 23.6258L572.837 23.6252C573.001 23.6083 573.164 23.5631 573.32 23.4908C573.347 23.4779 573.375 23.4659 573.401 23.4513C573.412 23.4462 573.421 23.4395 573.431 23.4339C573.467 23.4136 573.502 23.3929 573.535 23.37C573.537 23.369 573.54 23.3676 573.54 23.3676C573.549 23.3615 573.557 23.354 573.566 23.3478C573.597 23.3254 573.629 23.3027 573.659 23.2774C573.675 23.2636 573.69 23.2487 573.706 23.234C573.727 23.2148 573.749 23.1955 573.769 23.1753C573.792 23.1519 573.813 23.1274 573.834 23.1033C573.846 23.0898 573.858 23.0764 573.87 23.0622C573.897 23.0294 573.921 22.9951 573.945 22.9607C573.949 22.9536 573.955 22.9473 573.96 22.9402L573.964 22.9333C573.967 22.9293 573.969 22.9256 573.972 22.9216L577.763 17.1713V26.4294C577.763 27.2932 578.451 27.9934 579.301 27.9934C580.148 27.9934 580.837 27.2932 580.837 26.4294V12.0337C580.837 11.3453 580.395 10.7379 579.747 10.5375Z" fill="#E0E0E0"/>
<path d="M559.3 27.5714H547.814C547.21 27.5714 546.538 27.1951 546.29 26.6095C546.041 26.0245 545.99 25.2278 546.525 24.593L555.921 13.7391H548.159C547.31 13.7391 546.622 13.0074 546.622 12.1046C546.622 11.2017 547.31 10.6504 548.159 10.6504H558.626C559.23 10.6504 559.856 10.7461 560.402 11.3422C560.902 11.887 560.88 13.0627 560.32 13.7638L551.242 24.3027H559.3C560.149 24.3027 560.767 25.0345 560.767 25.9369C560.767 26.8395 560.149 27.5714 559.3 27.5714Z" fill="#E0E0E0"/>
<path d="M527.497 28.1076C524.948 28.1076 522.637 27.1014 520.988 25.2744C519.536 23.6647 518.703 21.5439 518.703 19.4554C518.703 12.9015 524.175 10.459 527.625 10.459C531.016 10.459 533.506 12.1148 533.611 12.185C534.374 12.7011 534.579 13.7439 534.067 14.5142C533.557 15.2817 532.527 15.4892 531.764 14.979C531.72 14.9506 529.954 13.8164 527.625 13.8164C525.463 13.8164 522.481 15.2372 522.481 19.4554C522.481 21.8552 524.274 24.6855 527.561 24.6855C529.411 24.6855 530.711 24.1949 531.467 23.716V21.2201H528.906C527.986 21.2201 527.241 20.4686 527.241 19.5414C527.241 18.6143 527.986 17.8627 528.906 17.8627H533.132C534.052 17.8627 534.797 18.6143 534.797 19.5414V24.5345C534.797 24.9887 534.615 25.4229 534.292 25.7392C533.175 26.8316 530.726 28.1076 527.497 28.1076Z" fill="#E0E0E0"/>
</g>
<path d="M793.467 13.9172V26.1252H799.257C800.874 26.1252 801.811 25.8598 802.492 25.2406C803.343 24.4444 803.769 23.029 803.769 20.0212C803.769 17.0135 803.343 15.5981 802.492 14.8019C801.811 14.1826 800.874 13.9172 799.257 13.9172H793.467ZM801.385 20.0212C801.385 22.6751 801.215 23.2944 800.704 23.6482C800.363 23.9136 799.938 24.0021 799.086 24.0021H795.851V15.9519H799.086C799.938 15.9519 800.363 15.9519 800.704 16.3057C801.215 16.7481 801.385 17.3673 801.385 20.0212ZM806.749 28.8236H789.762V11.1748H806.749V28.8236ZM775.884 15.9519V13.9172H785.931V17.8096H783.802V15.9519H779.715V18.8711H782.951V20.8174H779.715V24.0906H783.888V21.9674H786.016V26.1252H775.885V24.0906H777.502V15.9519H775.884ZM766.774 22.9405C766.774 24.2675 766.858 25.2406 767.028 26.0367H769.328C769.242 25.4175 769.158 24.2675 769.158 22.7636C769.072 20.9943 768.561 20.7289 767.369 20.4636C768.731 20.1981 769.328 19.5789 769.328 17.3673C769.328 15.5981 769.072 14.8903 768.561 14.448C768.22 14.0941 767.625 13.9172 766.688 13.9172H759.535V26.1252H761.92V21.3481H765.241C765.922 21.3481 766.177 21.4366 766.433 21.6136C766.689 21.7905 766.774 22.0559 766.774 22.9405ZM761.92 19.402V16.0403H765.752C766.263 16.0403 766.433 16.1288 766.517 16.2173C766.688 16.3942 766.858 16.6596 766.858 17.7211C766.858 18.7827 766.688 19.1366 766.517 19.3135C766.433 19.402 766.263 19.4904 765.752 19.4904L761.92 19.402ZM772.734 28.8236H755.705V11.1748H772.691V28.8236H772.734ZM751.277 24.0906V26.1252H743.187V24.0906H746.082V15.9519H743.187V13.9172H751.276V15.9519H748.381V24.0906H751.277ZM737.611 13.9172H735.397L733.779 23.5597L731.906 14.6249C731.821 14.0056 731.565 13.9172 731.054 13.9172H729.862C729.351 13.9172 729.096 14.0941 729.011 14.6249L727.138 23.5597L725.52 13.9172H723.136L725.435 25.506C725.52 26.0367 725.69 26.1252 726.286 26.1252H727.904C728.415 26.1252 728.585 26.0367 728.755 25.506L730.544 17.1019L732.332 25.506C732.417 26.0367 732.587 26.1252 733.183 26.1252H734.716C735.227 26.1252 735.482 26.0367 735.567 25.506L737.611 13.9172ZM738.803 28.8236H721.773V11.1748H738.76V28.8236H738.803Z" fill="#E0E0E0"/>
<mask id="mask2_204_3926" style="mask-type:luminance" maskUnits="userSpaceOnUse" x="887" y="10" width="107" height="20">
<path d="M993.154 10.834H887.321V29.1673H993.154V10.834Z" fill="white"/>
</mask>
<g mask="url(#mask2_204_3926)">
<path d="M887.321 10.8933V15.7973H890.604V28.7286H896.152V10.8933M905.52 17.6712H902.923V15.7888H904.23V10.8933H897.384V28.7286H902.923V21.9844H905.52V28.7286H911.076V10.8933H905.52M912.291 28.7286H922.569V23.816H917.591V21.7396H920.758V17.6712H917.591V15.7973H922.569V10.8933H912.291M966.266 16.9283C966.266 13.0794 963.48 10.8933 959.528 10.8933H953.351V28.7201H958.899V24.1537L962.074 28.7201H968.334L963.835 21.8831C965.456 20.9799 966.266 19.334 966.266 16.9283ZM958.883 18.9035V15.5863C959.652 15.5863 960.594 15.8227 960.875 16.6836C960.9 16.7596 960.917 16.844 960.942 16.9283C960.942 16.9368 960.942 16.9537 960.95 16.9622C960.958 17.0466 960.975 17.1478 960.975 17.2491C960.975 18.5743 959.792 18.9035 958.883 18.9035ZM933.557 21.7565H933.508L933.111 20.2878L931.87 15.8058H934.053L935.492 10.8933H924.413L930.763 28.7201H936.451L937.137 26.8125C937.137 26.8125 940.18 18.3887 941.842 13.7968V28.7201H952.119V23.8076H947.142V21.7312H950.3V17.6712H947.142V15.7973H952.119V10.8848H936.765L933.557 21.7565ZM993.154 15.8058V10.9017H982.877V28.7286H993.154V23.816H988.169V21.7396H991.335V17.6881H988.169V15.8058" fill="#E0E0E0"/>
<path d="M981.812 24.9888V17.7213H973.973V21.7729H976.891V23.2162C976.669 23.4188 976.189 23.5285 975.693 23.5285C973.659 23.5285 972.154 21.891 972.154 19.8905C972.154 17.8901 973.617 16.1175 975.651 16.1175C976.883 16.1175 979.802 16.1259 979.802 16.1259V10.842H978.47C975.99 10.842 973.518 10.6394 971.244 11.8381C969.45 12.7834 968.028 14.3872 967.275 16.2948C966.837 17.4174 966.615 18.6329 966.615 19.8399C966.615 24.8959 970.5 29.1585 975.535 29.1585C978.033 29.1585 980.472 28.2047 981.803 27.0145C981.811 25.7822 981.812 25.5965 981.812 24.9888Z" fill="#E0E0E0"/>
</g>
</svg>
