<svg width="120" height="48" viewBox="0 0 120 48" fill="none" xmlns="http://www.w3.org/2000/svg">
<path d="M95.1599 16.7011V31.3507H102.108C104.049 31.3507 105.173 31.0322 105.99 30.2891C107.012 29.3337 107.523 27.6352 107.523 24.0259C107.523 20.4166 107.012 18.7181 105.99 17.7627C105.173 17.0196 104.049 16.7011 102.108 16.7011H95.1599ZM104.662 24.0259C104.662 27.2106 104.458 27.9537 103.845 28.3783C103.436 28.6967 102.925 28.8029 101.903 28.8029H98.0208V19.1427H101.903C102.925 19.1427 103.436 19.1427 103.845 19.5673C104.458 20.0981 104.662 20.8412 104.662 24.0259ZM111.099 34.5888H90.7149V13.4102H111.099V34.5888ZM74.0611 19.1427V16.7011H86.1178V21.372H83.5626V19.1427H78.6582V22.6458H82.5408V24.9813H78.6582V28.9091H83.6656V26.3613H86.2191V31.3507H74.0619V28.9091H76.0024V19.1427H74.0611ZM63.1283 27.529C63.1283 29.1214 63.2297 30.2891 63.434 31.2445H66.1936C66.0906 30.5014 65.9892 29.1214 65.9892 27.3167C65.8862 25.1936 65.2732 24.8751 63.8427 24.5567C65.4775 24.2382 66.1936 23.4951 66.1936 20.8412C66.1936 18.7181 65.8862 17.8688 65.2732 17.338C64.8645 16.9134 64.1501 16.7011 63.0253 16.7011H54.4426V31.3507H57.3035V25.6182H61.2892C62.1066 25.6182 62.4123 25.7244 62.7196 25.9367C63.027 26.149 63.1283 26.4675 63.1283 27.529ZM57.3035 23.2828V19.2488H61.9022C62.5153 19.2488 62.7196 19.355 62.821 19.4612C63.0253 19.6735 63.2297 19.9919 63.2297 21.2658C63.2297 22.5397 63.0253 22.9643 62.821 23.1766C62.7196 23.2828 62.5153 23.3889 61.9022 23.3889L57.3035 23.2828ZM70.2806 34.5888H49.8455V13.4102H70.2291V34.5888H70.2806ZM44.5324 28.9091V31.3507H34.8249V28.9091H38.2989V19.1427H34.8249V16.7011H44.5316V19.1427H41.0576V28.9091H44.5324ZM28.1328 16.7011H25.4763L23.535 28.2721L21.2871 17.5503C21.1849 16.8072 20.8784 16.7011 20.2653 16.7011H18.8349C18.2218 16.7011 17.9153 16.9134 17.8131 17.5503L15.5653 28.2721L13.6239 16.7011H10.763L13.5218 30.6076C13.6239 31.2445 13.8283 31.3507 14.5435 31.3507H16.4849C17.0979 31.3507 17.3023 31.2445 17.5066 30.6076L19.6523 20.5227L21.798 30.6076C21.9001 31.2445 22.1045 31.3507 22.8197 31.3507H24.6589C25.2719 31.3507 25.5785 31.2445 25.6806 30.6076L28.1328 16.7011ZM29.5633 34.5888H9.12817V13.4102H29.5126V34.5888H29.5633Z" fill="#E0E0E0"/>
</svg>
