<svg width="307" height="32" viewBox="0 0 307 32" fill="none" xmlns="http://www.w3.org/2000/svg">
<g clip-path="url(#clip0_336_21039)">
<path d="M0.600098 4C0.600098 1.79086 2.39096 0 4.6001 0H44.6001C46.8092 0 48.6001 1.79086 48.6001 4V28C48.6001 30.2091 46.8092 32 44.6001 32H4.6001C2.39096 32 0.600098 30.2091 0.600098 28V4Z" fill="#F5F5F5"/>
<path d="M11.3709 11.5174C10.8696 11.1728 10.2153 11 9.4082 11H6.28349C6.03607 11 5.89937 11.1237 5.8734 11.371L4.60408 19.3388C4.59089 19.4171 4.61047 19.4887 4.66264 19.5537C4.71451 19.6189 4.77976 19.6513 4.8579 19.6513H6.34211C6.60244 19.6513 6.74552 19.5279 6.77179 19.2803L7.12326 17.1322C7.13609 17.0281 7.18188 16.9435 7.26002 16.8783C7.3381 16.8132 7.43575 16.7707 7.55293 16.7512C7.67011 16.7319 7.7806 16.7221 7.88495 16.7221C7.98899 16.7221 8.11262 16.7287 8.25606 16.7416C8.39915 16.7546 8.49036 16.761 8.52946 16.761C9.64906 16.761 10.5279 16.4455 11.1659 15.8138C11.8037 15.1825 12.1229 14.3071 12.1229 13.1871C12.1229 12.419 11.872 11.8624 11.3709 11.5172V11.5174ZM9.75986 13.9099C9.69455 14.3657 9.5255 14.665 9.2521 14.8082C8.97865 14.9517 8.58807 15.0231 8.08038 15.0231L7.43587 15.0425L7.76795 12.9529C7.79386 12.8098 7.87844 12.7381 8.02176 12.7381H8.39294C8.91346 12.7381 9.29126 12.8132 9.52562 12.9627C9.75986 13.1125 9.83799 13.4283 9.75986 13.9099Z" fill="#003087"/>
<path d="M44.3459 11H42.9009C42.7572 11 42.6727 11.0716 42.6469 11.215L41.3775 19.3392L41.3579 19.3782C41.3579 19.4437 41.3839 19.5052 41.4362 19.5638C41.4879 19.6223 41.5533 19.6516 41.6314 19.6516H42.9205C43.1675 19.6516 43.3042 19.5282 43.3307 19.2806L44.6 11.2931V11.2737C44.5999 11.0913 44.515 11.0002 44.3459 11.0002V11Z" fill="#009CDE"/>
<path d="M26.8874 14.1445C26.8874 14.0795 26.8612 14.0176 26.8095 13.9591C26.7572 13.9006 26.6986 13.8711 26.6337 13.8711H25.1299C24.9864 13.8711 24.8693 13.9365 24.7783 14.0663L22.7082 17.113L21.8489 14.1836C21.7835 13.9755 21.6405 13.8711 21.4193 13.8711H19.9544C19.8891 13.8711 19.8306 13.9005 19.7788 13.9591C19.7266 14.0176 19.7007 14.0797 19.7007 14.1445C19.7007 14.1707 19.8277 14.5546 20.0815 15.2967C20.3353 16.0391 20.6087 16.8398 20.9017 17.6992C21.1946 18.5583 21.3475 19.0143 21.3606 19.0659C20.2929 20.5243 19.7593 21.3055 19.7593 21.4094C19.7593 21.5789 19.8438 21.6634 20.0132 21.6634H21.5169C21.6601 21.6634 21.7772 21.5984 21.8685 21.4682L26.8486 14.2811C26.8744 14.2553 26.8874 14.21 26.8874 14.1444V14.1445Z" fill="#003087"/>
<path d="M40.8894 13.8713H39.4051C39.2226 13.8713 39.1124 14.0862 39.0733 14.5159C38.7343 13.9953 38.1163 13.7346 37.2178 13.7346C36.2804 13.7346 35.4829 14.0862 34.8255 14.7893C34.168 15.4924 33.8394 16.3193 33.8394 17.2697C33.8394 18.038 34.0639 18.6498 34.513 19.1054C34.9622 19.5614 35.5642 19.7889 36.3196 19.7889C36.6971 19.7889 37.0812 19.7106 37.4718 19.5546C37.8623 19.3983 38.168 19.1901 38.3898 18.9296C38.3898 18.9427 38.3765 19.0011 38.3507 19.1052C38.3244 19.2095 38.3116 19.2879 38.3116 19.3395C38.3116 19.5481 38.396 19.652 38.5655 19.652H39.9131C40.1602 19.652 40.3036 19.5285 40.3425 19.281L41.1433 14.1838C41.1562 14.1056 41.1367 14.0341 41.0847 13.9689C41.0324 13.904 40.9674 13.8713 40.8894 13.8713ZM38.3408 17.7188C38.0088 18.0443 37.6084 18.207 37.1398 18.207C36.762 18.207 36.4563 18.103 36.2219 17.8945C35.9874 17.6867 35.8702 17.4002 35.8702 17.0352C35.8702 16.5539 36.033 16.1467 36.3586 15.8147C36.6837 15.4827 37.0876 15.3167 37.5694 15.3167C37.9336 15.3167 38.2364 15.4241 38.4775 15.6388C38.7181 15.8537 38.8389 16.1499 38.8389 16.5276C38.8388 16.9963 38.6728 17.3935 38.3408 17.7188Z" fill="#009CDE"/>
<path d="M18.704 13.8713H17.2198C17.0372 13.8713 16.9268 14.0862 16.8877 14.5159C16.5362 13.9953 15.9177 13.7346 15.0324 13.7346C14.095 13.7346 13.2974 14.0862 12.64 14.7893C11.9824 15.4924 11.6538 16.3193 11.6538 17.2697C11.6538 18.038 11.8784 18.6498 12.3276 19.1054C12.7768 19.5614 13.3788 19.7889 14.1341 19.7889C14.4984 19.7889 14.8762 19.7106 15.2667 19.5546C15.6573 19.3983 15.9698 19.1901 16.2041 18.9296C16.1519 19.0857 16.126 19.2225 16.126 19.3395C16.126 19.5481 16.2106 19.652 16.3799 19.652H17.7274C17.9746 19.652 18.118 19.5285 18.1571 19.281L18.9577 14.1838C18.9706 14.1056 18.9511 14.0341 18.8992 13.9689C18.847 13.904 18.782 13.8713 18.704 13.8713ZM16.1554 17.7285C15.8234 18.0478 15.4163 18.207 14.9349 18.207C14.5571 18.207 14.2544 18.103 14.0267 17.8945C13.7988 17.6867 13.6849 17.4002 13.6849 17.0352C13.6849 16.5539 13.8476 16.1467 14.1732 15.8147C14.4985 15.4827 14.9021 15.3167 15.384 15.3167C15.7484 15.3167 16.0511 15.4241 16.2922 15.6388C16.5329 15.8537 16.6535 16.1499 16.6535 16.5276C16.6534 17.0093 16.4874 17.4098 16.1554 17.7285Z" fill="#003087"/>
<path d="M33.5566 11.5174C33.0553 11.1728 32.4012 11 31.5939 11H28.4887C28.2282 11 28.0849 11.1237 28.0591 11.371L26.7896 19.3388C26.7764 19.4171 26.796 19.4887 26.8482 19.5537C26.8999 19.6189 26.9653 19.6513 27.0434 19.6513H28.6448C28.801 19.6513 28.9051 19.5668 28.9573 19.3975L29.3089 17.1322C29.3218 17.0281 29.3674 16.9435 29.4456 16.8783C29.5238 16.8132 29.6213 16.7707 29.7386 16.7512C29.8556 16.7319 29.9661 16.7221 30.0705 16.7221C30.1746 16.7221 30.2982 16.7287 30.4415 16.7416C30.5847 16.7546 30.6761 16.761 30.7149 16.761C31.8348 16.761 32.7134 16.4455 33.3515 15.8138C33.9895 15.1825 34.3084 14.3071 34.3084 13.1871C34.3085 12.419 34.0577 11.8624 33.5566 11.5172V11.5174ZM31.5549 14.73C31.2684 14.9253 30.8387 15.0229 30.266 15.0229L29.6409 15.0425L29.9729 12.9527C29.9987 12.8097 30.0834 12.738 30.2268 12.738H30.5782C30.8646 12.738 31.0924 12.751 31.262 12.777C31.4309 12.8032 31.5939 12.8844 31.7501 13.021C31.9065 13.1578 31.9845 13.3564 31.9845 13.6167C31.9845 14.1637 31.8411 14.5346 31.5549 14.73Z" fill="#009CDE"/>
</g>
<g clip-path="url(#clip1_336_21039)">
<path d="M52.6001 4C52.6001 1.79086 54.391 0 56.6001 0H96.6001C98.8092 0 100.6 1.79086 100.6 4V28C100.6 30.2091 98.8092 32 96.6001 32H56.6001C54.391 32 52.6001 30.2091 52.6001 28V4Z" fill="#F5F5F5"/>
<path d="M93.9092 10.0349H91.3945C90.6343 10.0349 90.0495 10.2688 89.6986 11.0291L84.9033 21.9647H88.2951C88.2951 21.9647 88.8799 20.5027 88.9969 20.1519C89.3478 20.1519 92.6811 20.1519 93.1489 20.1519C93.2659 20.5612 93.5583 21.9063 93.5583 21.9063H96.5992L93.9092 10.0349ZM89.9326 17.6957C90.225 16.994 91.2191 14.3624 91.2191 14.3624C91.2191 14.4209 91.5115 13.6606 91.6285 13.2513L91.8624 14.3039C91.8624 14.3039 92.5057 17.1694 92.6226 17.7542H89.9326V17.6957Z" fill="#3362AB"/>
<path d="M85.1376 18.0463C85.1376 20.5024 82.9154 22.1398 79.4651 22.1398C78.0031 22.1398 76.5996 21.8474 75.8394 21.4966L76.3072 18.8065L76.7165 18.9819C77.7692 19.4498 78.4709 19.6252 79.7575 19.6252C80.6932 19.6252 81.6873 19.2743 81.6873 18.4556C81.6873 17.9293 81.278 17.5784 79.9914 16.9936C78.7633 16.4088 77.1259 15.4732 77.1259 13.7773C77.1259 11.4381 79.4066 9.85913 82.623 9.85913C83.8511 9.85913 84.9037 10.093 85.547 10.3854L85.0791 12.9585L84.8452 12.7246C84.2604 12.4907 83.5002 12.2568 82.3891 12.2568C81.161 12.3153 80.5762 12.8416 80.5762 13.3094C80.5762 13.8357 81.2779 14.2451 82.3891 14.7714C84.2604 15.6486 85.1376 16.6428 85.1376 18.0463Z" fill="#3362AB"/>
<path d="M56.5996 10.1509L56.6581 9.91699H61.6873C62.3891 9.91699 62.9154 10.1509 63.0908 10.9111L64.2019 16.1743C63.0908 13.3673 60.5177 11.0866 56.5996 10.1509Z" fill="#F9B50B"/>
<path d="M71.2784 10.0348L66.1907 21.9061H62.7404L59.8164 11.9646C61.9217 13.3097 63.6761 15.4149 64.3193 16.8769L64.6702 18.105L67.8281 9.97632H71.2784V10.0348Z" fill="#3362AB"/>
<path d="M72.623 9.97632H75.8393L73.7925 21.9061H70.5762L72.623 9.97632Z" fill="#3362AB"/>
</g>
<g clip-path="url(#clip2_336_21039)">
<path d="M104.6 4C104.6 1.79086 106.391 0 108.6 0H148.6C150.809 0 152.6 1.79086 152.6 4V28C152.6 30.2091 150.809 32 148.6 32H108.6C106.391 32 104.6 30.2091 104.6 28V4Z" fill="#F5F5F5"/>
<path d="M133.609 6.52698L123.28 6.5625L123.593 25.4723L133.922 25.4368L133.609 6.52698Z" fill="#FF5F00"/>
<path d="M123.96 16.0554C123.896 12.2093 125.619 8.79191 128.317 6.57521C126.28 4.97676 123.727 4.01556 120.958 4.02504C114.4 4.0475 109.184 9.45022 109.294 16.1057C109.405 22.7611 114.8 28.1275 121.359 28.105C124.127 28.0955 126.648 27.117 128.632 25.5047C125.86 23.3402 124.024 19.9015 123.96 16.0554Z" fill="#EB001B"/>
<path d="M147.908 15.8942C148.018 22.5497 142.802 27.9524 136.244 27.9748C133.475 27.9843 130.922 27.0231 128.885 25.4247C131.616 23.2079 133.306 19.7906 133.242 15.9444C133.178 12.0983 131.342 8.69311 128.57 6.49515C130.554 4.88293 133.075 3.90435 135.844 3.89486C142.402 3.8724 147.798 9.27223 147.908 15.8942Z" fill="#F79E1B"/>
</g>
<rect x="156.6" width="46.4" height="32" rx="3.2" fill="#F5F5F5"/>
<path fill-rule="evenodd" clip-rule="evenodd" d="M165.457 11.3335L161.24 20.9958H166.288L166.914 19.4552H168.345L168.971 20.9958H174.528V19.82L175.023 20.9958H177.898L178.393 19.7952V20.9958H189.95L191.355 19.4953L192.671 20.9958L198.607 21.0082L194.377 16.1916L198.607 11.3335H192.763L191.395 12.8063L190.121 11.3335H177.548L176.468 13.8274L175.364 11.3335H170.325V12.4693L169.765 11.3335H165.457ZM182.716 12.7055H189.352L191.382 14.9756L193.478 12.7055H195.508L192.423 16.1902L195.508 19.6347H193.386L191.356 17.3383L189.25 19.6347H182.716V12.7055ZM184.354 15.4067V14.1411V14.1398H188.496L190.302 16.164L188.415 18.1992H184.354V16.8174H187.975V15.4067H184.354ZM166.434 12.7055H168.895L171.692 19.2575V12.7055H174.388L176.549 17.4033L178.54 12.7055H181.222V19.6388H179.59L179.577 14.2059L177.197 19.6388H175.737L173.344 14.2059V19.6388H169.987L169.35 18.0845H165.911L165.276 19.6375H163.477L166.434 12.7055ZM166.498 16.6475L167.631 13.8785L168.763 16.6475H166.498Z" fill="#1F72CD"/>
<g clip-path="url(#clip3_336_21039)">
<path d="M207 4C207 1.79086 208.79 0 211 0H251C253.209 0 255 1.79086 255 4V28C255 30.2091 253.209 32 251 32H211C208.79 32 207 30.2091 207 28V4Z" fill="#F5F5F5"/>
<path d="M246.116 16.1043C246.116 8.94571 240.141 3.99784 233.594 4H227.961C221.336 3.99762 215.883 8.94723 215.883 16.1043C215.883 22.652 221.336 28.0315 227.961 27.9999H233.594C240.141 28.0313 246.116 22.6503 246.116 16.1043Z" fill="#0079BE"/>
<path d="M227.996 5.0127C221.942 5.01457 217.037 9.93133 217.035 15.9995C217.037 22.0666 221.942 26.9827 227.996 26.9848C234.051 26.983 238.958 22.0667 238.958 15.9995C238.958 9.93119 234.051 5.01486 227.996 5.0127Z" fill="white"/>
<path d="M221.068 15.9722C221.074 13.007 222.922 10.4784 225.528 9.47363V22.4694C222.922 21.4652 221.074 18.9379 221.068 15.9723V15.9722ZM230.501 22.4727V9.47399C233.108 10.4764 234.959 13.0064 234.964 15.973C234.959 18.9406 233.108 21.4687 230.501 22.473V22.4727Z" fill="#0079BE"/>
</g>
<g clip-path="url(#clip4_336_21039)">
<path d="M259 4C259 1.79086 260.791 0 263 0H303C305.209 0 307 1.79086 307 4V28C307 30.2091 305.209 32 303 32H263C260.791 32 259 30.2091 259 28V4Z" fill="#F5F5F5"/>
<path d="M287.581 15.9804C287.585 15.1206 287.263 14.2597 286.614 13.6109C285.964 12.9607 285.101 12.6386 284.239 12.6438C284.235 12.6438 284.231 12.6436 284.227 12.6436C282.356 12.6436 280.872 14.1271 280.872 15.9984C280.872 17.8512 282.374 19.3529 284.227 19.3529C286.098 19.3529 287.582 17.8691 287.582 15.9984C287.582 15.9922 287.581 15.9864 287.581 15.9804Z" fill="#F26E21"/>
<path d="M280.249 17.4176C279.747 17.9196 279.285 18.1157 278.786 18.1263C277.572 18.1154 276.679 17.2161 276.679 15.9339C276.679 15.2885 276.923 14.7595 277.31 14.3076C277.673 13.963 278.141 13.7403 278.679 13.7403C279.26 13.7403 279.711 13.9338 280.227 14.4499V12.9661C279.711 12.7082 279.259 12.5791 278.679 12.5791C277.859 12.6377 277.086 12.9691 276.493 13.4894C276.322 13.6432 276.158 13.813 276.019 14.0073C275.586 14.5689 275.324 15.2565 275.324 15.9987C275.324 17.8694 276.808 19.2887 278.679 19.2887C278.688 19.2887 278.697 19.2878 278.706 19.2878C278.718 19.2879 278.731 19.2887 278.743 19.2887C279.259 19.2887 279.711 19.1599 280.292 18.9018L280.249 17.4176C280.227 17.4394 280.27 17.4597 280.249 17.4803V17.4176Z" fill="#2B2B2B"/>
<path d="M291.817 13.5031L290.356 17.0953L288.678 12.8369H287.324L289.969 19.353H290.678L293.453 12.8369H292.098L291.817 13.5031Z" fill="#2B2B2B"/>
<path d="M293.969 15.6757V19.1598H297.453H297.517V18.1272H296.42H295.259V16.9662V16.3857H297.453V15.2886H295.259V13.9339H297.517V12.8369H293.969V15.6757Z" fill="#2B2B2B"/>
<path d="M264.808 12.8369H263.001V19.1598H264.808C265.775 19.1598 266.485 18.9015 267.065 18.4499C267.775 17.8692 268.227 16.9662 268.227 15.9987C268.227 14.1272 266.872 12.8369 264.808 12.8369ZM266.291 17.6114C265.904 17.9338 265.388 18.1272 264.614 18.1272H264.227V13.9338H264.549C265.324 13.9338 265.84 14.0628 266.227 14.4497C266.679 14.8366 266.937 15.4176 266.937 15.9984C267.001 16.579 266.743 17.2239 266.291 17.6114Z" fill="#2B2B2B"/>
<path d="M270.033 12.8369H268.808V19.1596H270.033V12.8369Z" fill="#2B2B2B"/>
<path d="M273.13 15.2873C272.356 15.0293 272.162 14.8356 272.162 14.5131C272.162 14.126 272.549 13.8035 273.065 13.8035C273.452 13.8035 273.775 13.9326 274.097 14.3197L274.743 13.481C274.226 13.0292 273.581 12.7715 272.872 12.7715C271.775 12.7715 270.871 13.5457 270.871 14.5776C270.871 15.4811 271.259 15.8681 272.42 16.3197C272.936 16.513 273.13 16.5778 273.259 16.7068C273.517 16.8356 273.646 17.0939 273.646 17.3516C273.646 17.8679 273.259 18.2551 272.678 18.2551C272.097 18.2551 271.581 17.9325 271.323 17.4163L270.549 18.1906C271.13 19.0292 271.839 19.4163 272.743 19.4163C274.033 19.4163 274.936 18.5776 274.936 17.3516C274.936 16.2551 274.549 15.8035 273.13 15.2873Z" fill="#2B2B2B"/>
<path d="M301.001 16.5143C301.968 16.321 302.485 15.6756 302.485 14.7081C302.485 13.547 301.646 12.8369 300.227 12.8369H298.355V19.1598H299.581V16.6434H299.775L301.517 19.1598H303.001L301.001 16.5143ZM299.968 15.74H299.581V13.8048H299.968C300.742 13.8048 301.194 14.1272 301.194 14.7728C301.194 15.4177 300.743 15.74 299.968 15.74Z" fill="#2B2B2B"/>
</g>
<defs>
<clipPath id="clip0_336_21039">
<rect width="48" height="32" fill="white" transform="translate(0.600098)"/>
</clipPath>
<clipPath id="clip1_336_21039">
<rect width="48" height="32" fill="white" transform="translate(52.6001)"/>
</clipPath>
<clipPath id="clip2_336_21039">
<rect width="48" height="32" fill="white" transform="translate(104.6)"/>
</clipPath>
<clipPath id="clip3_336_21039">
<rect width="48" height="32" fill="white" transform="translate(207)"/>
</clipPath>
<clipPath id="clip4_336_21039">
<rect width="48" height="32" fill="white" transform="translate(259)"/>
</clipPath>
</defs>
</svg>
