<svg width="164" height="48" viewBox="0 0 164 48" fill="none" xmlns="http://www.w3.org/2000/svg">
<path d="M35.5547 19.9967H49.4227V12.9268H35.5547V19.9967Z" fill="#E0E0E0"/>
<path d="M7.84375 12.9268V19.9967H14.7654V34.1366H21.687V19.9967H28.6333V12.9268H7.84375Z" fill="#E0E0E0"/>
<path d="M28.6328 34.136H49.4224V27.066H35.5544V19.9961H28.6328V34.136Z" fill="#E0E0E0"/>
<path d="M67.0978 18.2666H56.9131V21.2083H60.3245V30.4289H63.6864V21.2083H67.0978V18.2666Z" fill="#E0E0E0"/>
<path d="M70.9297 21.1094C68.5318 21.1094 66.752 22.7162 66.752 25.8804C66.752 28.6737 68.2599 30.6266 71.0039 30.6266C72.4376 30.6266 73.5995 30.2558 74.7119 29.5884L73.5253 27.586C72.6107 28.0557 71.9679 28.2288 71.1522 28.2288C70.3117 28.2288 69.7184 27.7838 69.5948 26.7703H74.9591C74.9838 26.622 74.9838 26.4242 74.9838 26.1523C75.0085 22.7656 73.4511 21.1094 70.9297 21.1094ZM69.6441 24.8174C69.743 23.9027 70.1386 23.4331 70.8555 23.4331C71.7702 23.4331 72.0915 23.9027 72.2399 24.8174H69.6441Z" fill="#E0E0E0"/>
<path d="M80.9409 28.0804C80.1004 28.0804 79.6554 27.3388 79.6554 25.8804C79.6554 24.4466 80.051 23.6308 80.8667 23.6308C81.5342 23.6308 81.8308 24.0016 82.2758 24.8174L84.4264 23.1859C83.6354 21.9004 82.6466 21.1094 80.9162 21.1094C77.9992 21.1094 76.5654 23.0375 76.5654 25.8309C76.5654 28.8962 78.1722 30.6019 80.842 30.6019C82.4488 30.6019 83.4376 29.9839 84.5006 28.4265L82.523 26.8692C81.9297 27.7591 81.5342 28.0804 80.9409 28.0804Z" fill="#E0E0E0"/>
<path d="M91.7188 21.1087C90.6311 21.1087 89.9884 21.4795 89.4198 21.8997V17.7715L86.2803 19.0322V30.4529H89.4198V25.237C89.4198 24.0998 89.8153 23.7785 90.4828 23.7785C91.1255 23.7785 91.521 24.0998 91.521 25.2617V30.4529H94.6605V24.8662C94.6605 22.4683 93.6964 21.1087 91.7188 21.1087Z" fill="#E0E0E0"/>
<path d="M102.2 27.6845C100.742 27.6845 100.148 26.2013 100.148 24.3473C100.148 22.4191 100.767 21.01 102.176 21.01C103.288 21.01 103.708 21.7269 104.128 22.8641L107.194 21.6528C106.353 19.3538 105.167 18.0684 102.176 18.0684C98.9123 18.0684 96.6133 20.4415 96.6133 24.3473C96.6133 27.9564 98.5415 30.6262 102.151 30.6262C105.043 30.6262 106.403 29.0688 107.218 27.4867L104.376 25.9788C103.708 27.1159 103.263 27.6845 102.2 27.6845Z" fill="#E0E0E0"/>
<path d="M112.262 21.9746V21.3071H109.122V30.4289H112.262V25.4601C112.262 24.3477 112.731 23.9769 113.498 23.9769C114.116 23.9769 114.561 24.2983 114.956 24.7432L115.698 21.5049C115.327 21.2824 114.882 21.1094 114.214 21.1094C113.399 21.1094 112.781 21.4555 112.262 21.9746Z" fill="#E0E0E0"/>
<path d="M122.396 26.5226C122.396 27.6597 122.001 27.9811 121.358 27.9811C120.715 27.9811 120.32 27.6597 120.32 26.4979V21.3066H117.18V26.8934C117.18 29.2912 118.145 30.6261 120.147 30.6261C121.21 30.6261 121.877 30.2553 122.421 29.8351V30.4531H125.561V21.3314H122.421V26.5226" fill="#E0E0E0"/>
<path d="M133.249 21.1094C132.161 21.1094 131.518 21.4802 130.95 21.9004V21.2824H127.81V30.4041H130.95V25.1882C130.95 24.0511 131.345 23.7297 132.013 23.7297C132.655 23.7297 133.051 24.0511 133.051 25.2129V30.4041H136.19V24.8174C136.19 22.469 135.251 21.1094 133.249 21.1094Z" fill="#E0E0E0"/>
<path d="M142.42 28.0804C141.58 28.0804 141.135 27.3388 141.135 25.8804C141.135 24.4466 141.53 23.6308 142.321 23.6308C142.989 23.6308 143.285 24.0016 143.73 24.8174L145.881 23.1859C145.09 21.9004 144.101 21.1094 142.371 21.1094C139.454 21.1094 138.02 23.0375 138.02 25.8309C138.02 28.8962 139.627 30.6019 142.297 30.6019C143.903 30.6019 144.892 29.9839 145.955 28.4265L143.978 26.8692C143.434 27.7591 143.013 28.0804 142.42 28.0804Z" fill="#E0E0E0"/>
<path d="M153.198 21.1087C152.11 21.1087 151.468 21.4795 150.899 21.8997V17.7715L147.76 19.0322V30.4529H150.899V25.237C150.899 24.0998 151.295 23.7785 151.962 23.7785C152.605 23.7785 153 24.0998 153 25.2617V30.4529H156.14V24.8662C156.164 22.4683 155.2 21.1087 153.198 21.1087Z" fill="#E0E0E0"/>
</svg>
