<svg width="147" height="48" viewBox="0 0 147 48" fill="none" xmlns="http://www.w3.org/2000/svg">
<mask id="mask0_308_15736" style="mask-type:luminance" maskUnits="userSpaceOnUse" x="7" y="12" width="132" height="23">
<path d="M138.838 12.9424H7.84375V34.121H138.838V12.9424Z" fill="white"/>
</mask>
<g mask="url(#mask0_308_15736)">
<path d="M18.8331 21.1491H15.6682V28.3851C15.6682 29.6205 16.3715 29.8853 17.5144 29.8853C17.954 29.8853 18.3936 29.797 18.8331 29.797V33.5915C17.8661 33.5915 16.899 33.768 16.0199 33.768C11.6241 33.768 10.4812 32.4443 10.4812 28.1204V21.1491H7.84375V17.7076H10.4812V12.9424H15.6682V17.7076H18.8331V21.1491ZM23.4047 26.9732C23.4926 29.1793 24.7235 30.5912 26.9213 30.5912C28.1521 30.5912 29.383 29.9735 29.9104 28.8263H34.7458C33.8666 32.5326 30.4379 34.121 26.9213 34.121C21.7343 34.121 18.2177 31.0324 18.2177 25.6495C18.2177 20.7961 22.086 17.2663 26.7455 17.2663C32.46 17.2663 35.2733 21.5903 35.0095 26.9732H23.4047ZM29.8225 24.0611C29.7346 22.2963 28.5038 20.7961 26.7455 20.7961C24.8993 20.7961 23.6685 22.1198 23.4047 24.0611H29.8225ZM46.4385 23.5317C46.4385 22.208 45.2077 21.2373 43.889 21.2373C40.9878 21.2373 40.5482 23.7082 40.5482 25.9143C40.5482 27.9439 41.4273 30.0617 43.6252 30.0617C45.4714 30.0617 46.3506 29.0028 46.6143 27.3262H51.6255C51.1859 31.6501 47.933 34.121 43.7131 34.121C38.9657 34.121 35.3612 30.8559 35.3612 26.0025C35.3612 20.9726 38.5261 17.3546 43.7131 17.3546C47.6693 17.3546 51.1859 19.4725 51.5376 23.6199H46.4385V23.5317ZM51.8013 12.9424H56.9883V19.9137H57.0762C57.8675 18.3253 59.9774 17.2663 61.9116 17.2663C67.1865 17.2663 67.626 21.1491 67.626 23.4434V33.6798H62.439V26.0025C62.439 23.7964 62.7028 21.5903 59.8016 21.5903C57.8675 21.5903 56.9883 23.2669 56.9883 25.0318V33.6798H51.8013V12.9424ZM68.0656 17.7076H73.0768V20.5314H73.1647C73.9559 18.5018 75.7142 17.4428 77.9121 17.4428C78.3517 17.4428 78.7033 17.4428 79.1429 17.5311V22.2963C78.4396 22.1198 77.8242 22.0315 77.1209 22.0315C74.5713 22.0315 73.2526 23.7964 73.2526 25.826V33.6798H68.0656V17.7076ZM79.1429 22.6492C79.2308 20.5314 80.1979 19.2077 81.6045 18.4135C83.0112 17.6193 84.8574 17.2663 86.6157 17.2663C90.3961 17.2663 94.0006 18.0605 94.0006 22.561V29.5323C94.0006 30.8559 94.0006 32.3561 94.616 33.5915H89.429C89.2532 33.062 89.1652 32.6208 89.1652 32.0914C87.7586 33.5915 85.8245 34.121 83.8903 34.121C80.9012 34.121 78.4396 32.6208 78.4396 29.2676C78.4396 24.0611 84.0662 24.5024 87.6707 23.7082C88.5498 23.5317 89.0773 23.1787 89.0773 22.208C89.0773 20.9726 87.6707 20.5314 86.5278 20.5314C85.1211 20.5314 84.1541 21.1491 83.8903 22.561H79.1429V22.6492ZM85.8245 30.9442C88.2861 30.9442 89.1652 29.5323 88.9894 26.2673C88.2861 26.7085 86.8794 26.7967 85.8245 27.1497C84.6816 27.4144 83.7145 27.9439 83.7145 29.1793C83.7145 30.4147 84.6816 30.9442 85.8245 30.9442ZM110.792 33.6798H105.869V31.8266H105.781C105.317 32.5456 104.678 33.1338 103.924 33.5353C103.17 33.9368 102.327 34.1384 101.473 34.121C96.4622 34.121 94.3522 29.797 94.3522 25.3848C94.3522 21.2373 96.5501 17.3546 101.034 17.3546C102.968 17.3546 104.462 18.0605 105.517 19.5607H105.605V12.9424H110.792V33.6798ZM99.5392 25.5613C99.5392 27.7674 100.33 30.15 102.704 30.15C105.254 30.15 105.781 27.7674 105.781 25.7378C105.781 23.4434 104.99 21.3256 102.704 21.3256C100.33 21.2373 99.5392 23.5317 99.5392 25.5613ZM111.584 22.6492C111.672 20.5314 112.639 19.2077 114.045 18.4135C115.452 17.6193 117.298 17.2663 119.056 17.2663C122.837 17.2663 126.441 18.0605 126.441 22.561V29.5323C126.441 30.8559 126.441 32.3561 127.057 33.5915H121.87C121.694 33.062 121.606 32.6208 121.606 32.0914C120.199 33.5915 118.177 34.121 116.331 34.121C113.342 34.121 110.88 32.6208 110.88 29.2676C110.88 24.0611 116.507 24.5024 120.111 23.7082C120.991 23.5317 121.518 23.1787 121.518 22.208C121.518 20.9726 120.111 20.5314 118.968 20.5314C117.562 20.5314 116.595 21.1491 116.331 22.561H111.584V22.6492ZM118.265 30.9442C120.727 30.9442 121.606 29.5323 121.43 26.2673C120.727 26.7085 119.32 26.7967 118.265 27.1497C117.122 27.4144 116.155 27.9439 116.155 29.1793C116.067 30.4147 117.122 30.9442 118.265 30.9442ZM127.232 17.7076H132.244V20.5314H132.332C133.123 18.5018 134.881 17.4428 137.079 17.4428C137.519 17.4428 138.398 17.4428 138.837 17.5311V22.2963C138.134 22.1198 137.079 22.0315 136.376 22.0315C133.826 22.0315 132.507 23.7964 132.507 25.826V33.6798H127.32V17.7076H127.232Z" fill="#E0E0E0"/>
<path d="M133.65 28.4736H138.837V33.68H133.65V28.4736Z" fill="#E0E0E0"/>
</g>
</svg>
