<svg width="16" height="12" viewBox="0 0 16 12" fill="none" xmlns="http://www.w3.org/2000/svg">
<mask id="mask0_336_21888" style="mask-type:luminance" maskUnits="userSpaceOnUse" x="0" y="0" width="16" height="12">
<rect width="16" height="12" fill="white"/>
</mask>
<g mask="url(#mask0_336_21888)">
<path fill-rule="evenodd" clip-rule="evenodd" d="M0 0H16V12H0V0Z" fill="#F7FCFF"/>
<path fill-rule="evenodd" clip-rule="evenodd" d="M0 7.33334V8.33334H16V7.33334H0Z" fill="#E31D1C"/>
<path fill-rule="evenodd" clip-rule="evenodd" d="M0 9.16667V10.1667H16V9.16667H0Z" fill="#E31D1C"/>
<path fill-rule="evenodd" clip-rule="evenodd" d="M0 3.66666V4.66666H16V3.66666H0Z" fill="#E31D1C"/>
<path fill-rule="evenodd" clip-rule="evenodd" d="M0 11V12H16V11H0Z" fill="#E31D1C"/>
<path fill-rule="evenodd" clip-rule="evenodd" d="M0 5.5V6.5H16V5.5H0Z" fill="#E31D1C"/>
<path fill-rule="evenodd" clip-rule="evenodd" d="M0 0V1H16V0H0Z" fill="#E31D1C"/>
<path fill-rule="evenodd" clip-rule="evenodd" d="M0 1.83334V2.83334H16V1.83334H0Z" fill="#E31D1C"/>
<rect width="10" height="6.5" fill="#2E42A5"/>
<path fill-rule="evenodd" clip-rule="evenodd" d="M0.861105 1.46934L0.498166 1.72378L0.620698 1.27098L0.29834 0.98402H0.719383L0.860598 0.614487L1.02618 0.98402H1.38511L1.10309 1.27098L1.21227 1.72378L0.861105 1.46934ZM2.86111 1.46934L2.49817 1.72378L2.6207 1.27098L2.29834 0.984021H2.71938L2.8606 0.614487L3.02618 0.984021H3.38511L3.10309 1.27098L3.21227 1.72378L2.86111 1.46934ZM4.49817 1.72378L4.86111 1.46934L5.21227 1.72378L5.10309 1.27098L5.38511 0.984021H5.02618L4.8606 0.614487L4.71938 0.984021H4.29834L4.6207 1.27098L4.49817 1.72378ZM6.86111 1.46934L6.49817 1.72378L6.6207 1.27098L6.29834 0.984021H6.71938L6.8606 0.614487L7.02618 0.984021H7.38511L7.10309 1.27098L7.21227 1.72378L6.86111 1.46934ZM0.498166 3.72378L0.861105 3.46934L1.21227 3.72378L1.10309 3.27098L1.38511 2.98402H1.02618L0.860598 2.61449L0.719383 2.98402H0.29834L0.620698 3.27098L0.498166 3.72378ZM2.86111 3.46934L2.49817 3.72378L2.6207 3.27098L2.29834 2.98402H2.71938L2.8606 2.61449L3.02618 2.98402H3.38511L3.10309 3.27098L3.21227 3.72378L2.86111 3.46934ZM4.49817 3.72378L4.86111 3.46934L5.21227 3.72378L5.10309 3.27098L5.38511 2.98402H5.02618L4.8606 2.61449L4.71938 2.98402H4.29834L4.6207 3.27098L4.49817 3.72378ZM6.86111 3.46934L6.49817 3.72378L6.6207 3.27098L6.29834 2.98402H6.71938L6.8606 2.61449L7.02618 2.98402H7.38511L7.10309 3.27098L7.21227 3.72378L6.86111 3.46934ZM0.498166 5.72378L0.861105 5.46934L1.21227 5.72378L1.10309 5.27098L1.38511 4.98402H1.02618L0.860598 4.61449L0.719383 4.98402H0.29834L0.620698 5.27098L0.498166 5.72378ZM2.86111 5.46934L2.49817 5.72378L2.6207 5.27098L2.29834 4.98402H2.71938L2.8606 4.61449L3.02618 4.98402H3.38511L3.10309 5.27098L3.21227 5.72378L2.86111 5.46934ZM4.49817 5.72378L4.86111 5.46934L5.21227 5.72378L5.10309 5.27098L5.38511 4.98402H5.02618L4.8606 4.61449L4.71938 4.98402H4.29834L4.6207 5.27098L4.49817 5.72378ZM6.86111 5.46934L6.49817 5.72378L6.6207 5.27098L6.29834 4.98402H6.71938L6.8606 4.61449L7.02618 4.98402H7.38511L7.10309 5.27098L7.21227 5.72378L6.86111 5.46934ZM8.49817 1.72378L8.8611 1.46934L9.21227 1.72378L9.10309 1.27098L9.38511 0.984021H9.02618L8.8606 0.614487L8.71938 0.984021H8.29834L8.6207 1.27098L8.49817 1.72378ZM8.8611 3.46934L8.49817 3.72378L8.6207 3.27098L8.29834 2.98402H8.71938L8.8606 2.61449L9.02618 2.98402H9.38511L9.10309 3.27098L9.21227 3.72378L8.8611 3.46934ZM8.49817 5.72378L8.8611 5.46934L9.21227 5.72378L9.10309 5.27098L9.38511 4.98402H9.02618L8.8606 4.61449L8.71938 4.98402H8.29834L8.6207 5.27098L8.49817 5.72378ZM1.86111 2.46934L1.49817 2.72378L1.6207 2.27098L1.29834 1.98402H1.71938L1.8606 1.61449L2.02618 1.98402H2.38511L2.10309 2.27098L2.21227 2.72378L1.86111 2.46934ZM3.49817 2.72378L3.86111 2.46934L4.21227 2.72378L4.10309 2.27098L4.38511 1.98402H4.02618L3.8606 1.61449L3.71938 1.98402H3.29834L3.6207 2.27098L3.49817 2.72378ZM5.86111 2.46934L5.49817 2.72378L5.6207 2.27098L5.29834 1.98402H5.71938L5.8606 1.61449L6.02618 1.98402H6.38511L6.10309 2.27098L6.21227 2.72378L5.86111 2.46934ZM1.49817 4.72378L1.86111 4.46934L2.21227 4.72378L2.10309 4.27098L2.38511 3.98402H2.02618L1.8606 3.61449L1.71938 3.98402H1.29834L1.6207 4.27098L1.49817 4.72378ZM3.86111 4.46934L3.49817 4.72378L3.6207 4.27098L3.29834 3.98402H3.71938L3.8606 3.61449L4.02618 3.98402H4.38511L4.10309 4.27098L4.21227 4.72378L3.86111 4.46934ZM5.49817 4.72378L5.86111 4.46934L6.21227 4.72378L6.10309 4.27098L6.38511 3.98402H6.02618L5.8606 3.61449L5.71938 3.98402H5.29834L5.6207 4.27098L5.49817 4.72378ZM7.86111 2.46934L7.49817 2.72378L7.6207 2.27098L7.29834 1.98402H7.71938L7.8606 1.61449L8.02618 1.98402H8.38511L8.10309 2.27098L8.21227 2.72378L7.86111 2.46934ZM7.49817 4.72378L7.86111 4.46934L8.21227 4.72378L8.10309 4.27098L8.38511 3.98402H8.02618L7.8606 3.61449L7.71938 3.98402H7.29834L7.6207 4.27098L7.49817 4.72378Z" fill="#F7FCFF"/>
</g>
</svg>
