<svg width="12" height="13" viewBox="0 0 12 13" fill="none" xmlns="http://www.w3.org/2000/svg">
<g clip-path="url(#clip0_274_17270)">
<path d="M11.1702 5.32174C11.0161 5.21832 10.877 5.09427 10.7567 4.95301C10.7657 4.75635 10.8052 4.56228 10.8739 4.37782C11.0031 3.94058 11.1639 3.39641 10.8539 2.9706C10.5417 2.54141 9.97123 2.527 9.51296 2.51528C9.32017 2.52298 9.12733 2.50225 8.94058 2.45375C8.83791 2.2927 8.75951 2.11741 8.70792 1.9335C8.55501 1.49802 8.36452 0.95602 7.85439 0.79024C7.35939 0.629361 6.91516 0.935017 6.52346 1.2038C6.36605 1.32949 6.18932 1.42883 6.00014 1.498C5.81085 1.42891 5.63403 1.32955 5.4766 1.2038C5.08488 0.934781 4.64053 0.630089 4.14565 0.79024C3.63565 0.95602 3.44523 1.49775 3.29214 1.93332C3.24065 2.11631 3.16311 2.29094 3.06192 2.45186C2.87458 2.50184 2.68077 2.52316 2.48706 2.51511C2.02881 2.5268 1.45838 2.54123 1.14613 2.9704C0.836126 3.39645 0.996965 3.94062 1.12613 4.3779C1.19404 4.5614 1.23392 4.75407 1.24442 4.94945C1.12466 5.09269 0.985017 5.21808 0.829748 5.32176C0.46 5.60374 0 5.95478 0 6.49801C0 7.04123 0.46 7.39228 0.829827 7.67428C0.983856 7.7777 1.12298 7.90175 1.24327 8.043C1.23434 8.23967 1.19481 8.43371 1.12609 8.61819C0.996946 9.05544 0.836086 9.59965 1.14609 10.0254C1.45834 10.4546 2.02877 10.469 2.48704 10.4808C2.67983 10.4731 2.87267 10.4938 3.05942 10.5423C3.16209 10.7033 3.24049 10.8786 3.29208 11.0625C3.44517 11.4981 3.63559 12.04 4.14571 12.2059C4.23608 12.2355 4.3306 12.2506 4.42572 12.2505C4.80964 12.2505 5.16021 12.0096 5.47664 11.7923C5.63405 11.6666 5.81078 11.5672 5.99998 11.498C6.18926 11.5671 6.36609 11.6665 6.52356 11.7922C6.91526 12.0612 7.35949 12.3657 7.85449 12.2058C8.36449 12.04 8.55491 11.4983 8.70799 11.0627C8.75949 10.8797 8.83702 10.7051 8.93822 10.5442C9.12556 10.4942 9.31937 10.4729 9.51308 10.4809C9.97133 10.4692 10.5418 10.4548 10.854 10.0256C11.164 9.59959 11.0032 9.05538 10.874 8.61811C10.8061 8.43462 10.7662 8.24195 10.7557 8.04656C10.8755 7.90332 11.0151 7.77793 11.1704 7.67426C11.54 7.39228 12 7.04123 12 6.49801C12 5.95478 11.54 5.60374 11.1702 5.32174ZM8.22853 5.60153L5.72852 8.10152C5.53333 8.29677 5.21682 8.29683 5.02158 8.10164C5.02154 8.1016 5.0215 8.10156 5.02146 8.10152L3.77145 6.85152C3.57373 6.65875 3.56971 6.34219 3.76248 6.14446C3.95524 5.94673 4.27181 5.94272 4.46953 6.13548C4.47257 6.13844 4.47556 6.14143 4.47851 6.14446L5.37499 7.04096L7.52147 4.89445C7.71424 4.69673 8.0308 4.69273 8.22853 4.8855C8.42625 5.07827 8.43025 5.39483 8.23748 5.59255C8.23453 5.59561 8.23154 5.59858 8.22853 5.60153Z" fill="#00B890"/>
</g>
<defs>
<clipPath id="clip0_274_17270">
<rect width="12" height="12" fill="white" transform="translate(0 0.497559)"/>
</clipPath>
</defs>
</svg>
