<svg width="21" height="21" viewBox="0 0 21 21" fill="none" xmlns="http://www.w3.org/2000/svg">
<path d="M16.7305 5.81351H6.75C6.08594 5.81351 6.01563 5.00882 6.57812 4.87601H16.7305C16.875 4.87601 17.0234 4.88382 17.168 4.90335C16.9688 3.49319 15.6602 2.51273 14.2539 2.71585C14.2148 2.71976 14.1797 2.72757 14.1406 2.73538L4.26172 4.41898C4.12891 4.43851 3.99219 4.46194 3.85938 4.48929H3.85156C3.80078 4.4971 3.75391 4.50882 3.70312 4.52054C2.19141 4.88382 1.75 6.24319 1.75 7.06351V8.00882C1.73828 8.11038 1.73047 8.21194 1.73047 8.31351V15.8135C1.73047 17.1924 2.85156 18.3135 4.23047 18.3135H16.7305C18.1094 18.3135 19.2305 17.1924 19.2305 15.8135V8.31351C19.2305 6.9346 18.1094 5.81351 16.7305 5.81351ZM14.875 13.3135C14.1836 13.3135 13.625 12.7549 13.625 12.0635C13.625 11.3721 14.1836 10.8135 14.875 10.8135C15.5664 10.8135 16.125 11.3721 16.125 12.0635C16.125 12.7549 15.5664 13.3135 14.875 13.3135Z" fill="black"/>
</svg>
