<svg width="36" height="36" viewBox="0 0 36 36" fill="none" xmlns="http://www.w3.org/2000/svg">
<g clip-path="url(#clip0_4523_12955)">
<path d="M32.0242 20.1996C31.4501 18.6596 30.7332 17.1894 29.9161 15.7679C27.6137 11.7523 24.8678 8.04353 21.9822 4.43194C21.7574 4.15249 21.6511 4.17375 21.4415 4.43802C19.2515 7.18695 17.1647 10.0088 15.2572 12.9612C13.8569 15.1239 12.572 17.3474 11.5848 19.7409C10.7677 21.7214 10.5794 23.7201 11.1687 25.7916C12.493 30.4694 16.7698 33.6648 21.721 33.6618C22.1705 33.6466 22.6201 33.6436 23.0696 33.5828C26.6478 33.109 29.4423 31.3898 31.2466 28.252C32.7076 25.7127 33.0782 23.0154 32.0272 20.1966L32.0242 20.1996ZM23.7804 28.8322C23.671 28.814 23.5374 28.8048 23.4949 28.7076C23.4463 28.5861 23.5921 28.5284 23.665 28.4555C24.1996 27.927 24.7676 27.4258 25.2748 26.873C27.067 24.9199 27.7048 22.5567 27.6623 19.9688C27.6623 19.8716 27.6502 19.7744 27.6441 19.6772C27.6441 19.6529 27.6502 19.6316 27.6593 19.58C28.1696 19.8047 28.4915 20.1844 28.7588 20.6036C28.7801 20.637 28.7983 20.6704 28.8196 20.7038C28.9958 21.0137 29.4909 22.0191 29.4453 23.5135C29.2631 27.3529 26.1284 28.6044 25.8368 28.7107C25.1959 28.902 24.5094 28.9506 23.7774 28.8291L23.7804 28.8322Z" fill="#1341AE"/>
<path d="M14.494 9.67773C14.0049 8.96695 13.5584 8.22884 13.0754 7.51503C12.1612 6.16334 11.2074 4.84203 10.1837 3.53894C10.1048 3.4387 9.94986 3.4387 9.87088 3.5359C9.81924 3.59969 9.76761 3.66044 9.71901 3.72423C9.03253 4.63852 8.33087 5.54065 7.66869 6.47013C6.01933 8.78774 4.45198 11.154 3.24913 13.7449C2.47761 15.4065 1.99464 17.0923 2.39256 18.9603C3.00917 21.8703 5.32982 24.2911 8.16684 24.9017C8.44326 24.9624 8.48882 24.9017 8.47059 24.5736C8.45541 24.2942 8.44326 24.0117 8.45844 23.7322C8.56476 21.7032 9.24212 19.8442 10.0562 18.0309C11.2681 15.3305 12.8021 12.8124 14.4757 10.3764C14.6519 10.1182 14.6823 9.94199 14.5 9.67773H14.494Z" fill="#1341AE"/>
</g>
<defs>
<clipPath id="clip0_4523_12955">
<rect width="30.375" height="30.375" fill="white" transform="translate(2.25 3.375)"/>
</clipPath>
</defs>
</svg>
