<svg width="52" height="52" viewBox="0 0 52 52" fill="none" xmlns="http://www.w3.org/2000/svg">
<rect width="52" height="52" rx="26" fill="#1341AE"/>
<g clip-path="url(#clip0_4505_10128)">
<g clip-path="url(#clip1_4505_10128)">
<path d="M29.9514 11.1175C29.7891 11.0006 29.5806 10.9685 29.3907 11.0321L22.2761 13.4035C22.0218 13.4884 21.8506 13.7263 21.8506 13.994V37.8279C21.8506 38.096 22.0222 38.3339 22.2761 38.4184L29.3907 40.7898C29.4552 40.8111 29.5214 40.8218 29.5877 40.8218C29.7167 40.8218 29.8443 40.7818 29.9519 40.7044C30.1142 40.5875 30.2102 40.3994 30.2102 40.1993V11.6226C30.2102 11.4225 30.1142 11.2344 29.9519 11.1175H29.9514ZM28.9647 39.3357L23.0952 37.3792V14.4427L28.9647 12.4862V39.3357Z" fill="white"/>
<path d="M40.8585 26.3058C40.8617 26.3018 40.8643 26.2978 40.8674 26.2938C40.8768 26.2818 40.8866 26.2693 40.895 26.2564C40.8972 26.2529 40.8994 26.2493 40.9017 26.2458C40.9106 26.232 40.919 26.2186 40.9266 26.2044C40.9279 26.2017 40.9288 26.1991 40.9301 26.1968C40.9381 26.1813 40.9457 26.1657 40.9524 26.1493C40.9533 26.1475 40.9537 26.1457 40.9541 26.1444C40.9613 26.1275 40.9675 26.1101 40.9728 26.0923C40.9733 26.0906 40.9737 26.0888 40.9742 26.0866C40.9795 26.0692 40.9839 26.0514 40.9875 26.0332C40.9884 26.0283 40.9888 26.023 40.9897 26.0181C40.9924 26.003 40.9951 25.9883 40.9964 25.9727C40.9986 25.9523 40.9995 25.9314 40.9995 25.9105C40.9995 25.8896 40.9986 25.8687 40.9964 25.8482C40.9951 25.8331 40.9924 25.818 40.9897 25.8029C40.9888 25.798 40.9884 25.7926 40.9875 25.7878C40.9839 25.7695 40.979 25.7522 40.9742 25.7344C40.9737 25.7326 40.9733 25.7308 40.9728 25.7286C40.9675 25.7108 40.9613 25.6935 40.9541 25.6766C40.9533 25.6748 40.9528 25.673 40.9524 25.6717C40.9457 25.6557 40.9381 25.6397 40.9301 25.6241C40.9288 25.6215 40.9279 25.6188 40.9266 25.6166C40.919 25.6023 40.9106 25.5885 40.9017 25.5752C40.8994 25.5716 40.8977 25.5681 40.895 25.5645C40.8866 25.5516 40.8768 25.5396 40.8674 25.5272C40.8643 25.5232 40.8617 25.5192 40.8585 25.5152C40.8456 25.4996 40.8319 25.4845 40.8176 25.4698L38.4462 23.0984C38.203 22.8552 37.809 22.8552 37.5658 23.0984C37.3226 23.3417 37.3226 23.7356 37.5658 23.9789L38.8745 25.2875H35.0415C34.6977 25.2875 34.4189 25.5663 34.4189 25.91C34.4189 26.2538 34.6977 26.5326 35.0415 26.5326H38.8745L37.5658 27.8412C37.3226 28.0844 37.3226 28.4784 37.5658 28.7216C37.6872 28.843 37.8468 28.9039 38.006 28.9039C38.1652 28.9039 38.3249 28.843 38.4462 28.7216L40.8176 26.3503C40.8319 26.336 40.8456 26.3209 40.8585 26.3049V26.3058Z" fill="white"/>
<path d="M33.2632 18.8264H37.0961L35.7875 20.1351C35.5443 20.3783 35.5443 20.7723 35.7875 21.0155C35.9089 21.1369 36.0685 21.1978 36.2277 21.1978C36.3869 21.1978 36.5465 21.1369 36.6679 21.0155L39.0393 18.6441C39.0535 18.6299 39.0673 18.6148 39.0802 18.5988C39.0833 18.5948 39.086 18.5907 39.0891 18.5867C39.0984 18.5747 39.1082 18.5623 39.1167 18.5494C39.1189 18.5458 39.1211 18.5423 39.1234 18.5387C39.1322 18.5249 39.1407 18.5116 39.1483 18.4974C39.1496 18.4947 39.1505 18.492 39.1518 18.4898C39.1598 18.4742 39.1674 18.4587 39.174 18.4422C39.1749 18.4405 39.1754 18.4387 39.1758 18.4373C39.1829 18.4204 39.1892 18.4031 39.1945 18.3853C39.1949 18.3835 39.1954 18.3818 39.1958 18.3795C39.2012 18.3622 39.2056 18.3444 39.2092 18.3262C39.2101 18.3213 39.2105 18.3159 39.2114 18.3111C39.2141 18.2959 39.2167 18.2813 39.2181 18.2657C39.2203 18.2452 39.2212 18.2243 39.2212 18.2034C39.2212 18.1825 39.2203 18.1617 39.2181 18.1412C39.2167 18.1261 39.2141 18.111 39.2114 18.0958C39.2105 18.0909 39.2101 18.0856 39.2092 18.0807C39.2056 18.0625 39.2007 18.0451 39.1958 18.0274C39.1954 18.0256 39.1949 18.0238 39.1945 18.0216C39.1892 18.0038 39.1829 17.9865 39.1758 17.9696C39.1749 17.9678 39.1745 17.966 39.174 17.9647C39.1674 17.9487 39.1598 17.9326 39.1518 17.9171C39.1505 17.9144 39.1496 17.9118 39.1483 17.9095C39.1407 17.8953 39.1322 17.8815 39.1234 17.8682C39.1211 17.8646 39.1193 17.8611 39.1167 17.8575C39.1082 17.8446 39.0984 17.8326 39.0891 17.8201C39.086 17.8161 39.0833 17.8121 39.0802 17.8081C39.0673 17.7926 39.0535 17.7775 39.0393 17.7628L36.6679 15.3914C36.4247 15.1482 36.0307 15.1482 35.7875 15.3914C35.5443 15.6346 35.5443 16.0286 35.7875 16.2718L37.0961 17.5805H33.2632C32.9194 17.5805 32.6406 17.8593 32.6406 18.203C32.6406 18.5467 32.9194 18.8255 33.2632 18.8255V18.8264Z" fill="white"/>
<path d="M39.1162 33.9645C39.1185 33.961 39.1207 33.9574 39.1229 33.9539C39.1318 33.9401 39.1402 33.9267 39.1478 33.9125C39.1491 33.9098 39.15 33.9072 39.1514 33.9049C39.1594 33.8894 39.1669 33.8738 39.1736 33.8574C39.1745 33.8556 39.1749 33.8538 39.1754 33.8525C39.1825 33.8356 39.1887 33.8182 39.194 33.8004C39.1945 33.7987 39.1949 33.7969 39.1954 33.7951C39.2007 33.7778 39.2052 33.76 39.2087 33.7417C39.2096 33.7369 39.2101 33.732 39.2109 33.7266C39.2136 33.7115 39.2163 33.6964 39.2176 33.6813C39.2198 33.6608 39.2207 33.6399 39.2207 33.619C39.2207 33.5981 39.2198 33.5772 39.2176 33.5568C39.2163 33.5412 39.2136 33.5265 39.2109 33.5114C39.2101 33.5065 39.2096 33.5016 39.2087 33.4963C39.2052 33.4781 39.2003 33.4603 39.1954 33.4429C39.1949 33.4412 39.1945 33.4394 39.194 33.4376C39.1887 33.4198 39.182 33.4025 39.1754 33.3851C39.1749 33.3833 39.174 33.3816 39.1736 33.3802C39.1669 33.3642 39.1594 33.3482 39.1514 33.3327C39.15 33.33 39.1491 33.3273 39.1478 33.3251C39.1402 33.3109 39.1318 33.2971 39.1229 33.2837C39.1207 33.2802 39.1189 33.2766 39.1162 33.2731C39.1078 33.2602 39.098 33.2477 39.0887 33.2357C39.0856 33.2317 39.0829 33.2277 39.0802 33.2242C39.0673 33.2086 39.0535 33.1935 39.0393 33.1788L36.6679 30.8074C36.4247 30.5642 36.0307 30.5642 35.7875 30.8074C35.5443 31.0507 35.5443 31.4446 35.7875 31.6879L37.0961 32.9965H33.2632C32.9194 32.9965 32.6406 33.2753 32.6406 33.619C32.6406 33.9627 32.9194 34.2415 33.2632 34.2415H37.0961L35.7875 35.5502C35.5443 35.7934 35.5443 36.1874 35.7875 36.4306C35.9089 36.552 36.0685 36.6129 36.2277 36.6129C36.3869 36.6129 36.5465 36.552 36.6679 36.4306L39.0393 34.0592C39.0535 34.045 39.0673 34.0299 39.0802 34.0139C39.0833 34.0103 39.086 34.0059 39.0887 34.0023C39.0984 33.9903 39.1078 33.9779 39.1162 33.965V33.9645Z" fill="white"/>
<path d="M11.8004 21.9689C12.2424 21.9689 12.6008 21.6106 12.6008 21.1686C12.6008 20.7265 12.2424 20.3682 11.8004 20.3682C11.3583 20.3682 11 20.7265 11 21.1686C11 21.6106 11.3583 21.9689 11.8004 21.9689Z" fill="white"/>
<path d="M16.2467 18.7072C16.6887 18.7072 17.0471 18.3489 17.0471 17.9068C17.0471 17.4648 16.6887 17.1064 16.2467 17.1064C15.8046 17.1064 15.4463 17.4648 15.4463 17.9068C15.4463 18.3489 15.8046 18.7072 16.2467 18.7072Z" fill="white"/>
<path d="M18.6188 24.0432C19.0608 24.0432 19.4191 23.6848 19.4191 23.2428C19.4191 22.8007 19.0608 22.4424 18.6188 22.4424C18.1767 22.4424 17.8184 22.8007 17.8184 23.2428C17.8184 23.6848 18.1767 24.0432 18.6188 24.0432Z" fill="white"/>
<path d="M11.8004 31.4543C12.2424 31.4543 12.6008 31.096 12.6008 30.6539C12.6008 30.2119 12.2424 29.8535 11.8004 29.8535C11.3583 29.8535 11 30.2119 11 30.6539C11 31.096 11.3583 31.4543 11.8004 31.4543Z" fill="white"/>
<path d="M16.2467 34.715C16.6887 34.715 17.0471 34.3567 17.0471 33.9147C17.0471 33.4726 16.6887 33.1143 16.2467 33.1143C15.8046 33.1143 15.4463 33.4726 15.4463 33.9147C15.4463 34.3567 15.8046 34.715 16.2467 34.715Z" fill="white"/>
<path d="M18.6188 29.3791C19.0608 29.3791 19.4191 29.0208 19.4191 28.5787C19.4191 28.1367 19.0608 27.7783 18.6188 27.7783C18.1767 27.7783 17.8184 28.1367 17.8184 28.5787C17.8184 29.0208 18.1767 29.3791 18.6188 29.3791Z" fill="white"/>
<path d="M13.8756 26.7111C14.3176 26.7111 14.676 26.3528 14.676 25.9107C14.676 25.4687 14.3176 25.1104 13.8756 25.1104C13.4335 25.1104 13.0752 25.4687 13.0752 25.9107C13.0752 26.3528 13.4335 26.7111 13.8756 26.7111Z" fill="white"/>
<path d="M26.0299 26.7111C26.4719 26.7111 26.8303 26.3528 26.8303 25.9107C26.8303 25.4687 26.4719 25.1104 26.0299 25.1104C25.5878 25.1104 25.2295 25.4687 25.2295 25.9107C25.2295 26.3528 25.5878 26.7111 26.0299 26.7111Z" fill="white"/>
<path d="M26.0299 18.7072C26.4719 18.7072 26.8303 18.3489 26.8303 17.9068C26.8303 17.4648 26.4719 17.1064 26.0299 17.1064C25.5878 17.1064 25.2295 17.4648 25.2295 17.9068C25.2295 18.3489 25.5878 18.7072 26.0299 18.7072Z" fill="white"/>
<path d="M26.0299 34.715C26.4719 34.715 26.8303 34.3567 26.8303 33.9147C26.8303 33.4726 26.4719 33.1143 26.0299 33.1143C25.5878 33.1143 25.2295 33.4726 25.2295 33.9147C25.2295 34.3567 25.5878 34.715 26.0299 34.715Z" fill="white"/>
</g>
</g>
<defs>
<clipPath id="clip0_4505_10128">
<rect width="30" height="30" fill="white" transform="translate(11 11)"/>
</clipPath>
<clipPath id="clip1_4505_10128">
<rect width="30" height="29.8221" fill="white" transform="translate(11 11)"/>
</clipPath>
</defs>
</svg>
