<svg width="48" height="48" viewBox="0 0 48 48" fill="none" xmlns="http://www.w3.org/2000/svg">
<g clip-path="url(#clip0_4523_13010)">
<path d="M42.8783 31.7148C42.4575 31.7148 42.1162 32.0562 42.1162 32.4769V32.8105C42.1162 33.2317 42.4575 33.573 42.8783 33.573C43.2994 33.573 43.6407 33.2317 43.6407 32.8105V32.4769C43.6407 32.0562 43.2994 31.7148 42.8783 31.7148Z" fill="#1341AE"/>
<path d="M42.8783 36.4062C42.4575 36.4062 42.1162 36.7476 42.1162 37.1683V37.502C42.1162 37.9231 42.4575 38.2644 42.8783 38.2644C43.2994 38.2644 43.6407 37.9231 43.6407 37.502V37.1683C43.6407 36.7476 43.2994 36.4062 42.8783 36.4062Z" fill="#1341AE"/>
<path d="M40.7002 34.2275H40.3666C39.9454 34.2275 39.6045 34.5688 39.6045 34.99C39.6045 35.4108 39.9454 35.7521 40.3666 35.7521H40.7002C41.1213 35.7521 41.4623 35.4108 41.4623 34.99C41.4623 34.5688 41.1213 34.2275 40.7002 34.2275Z" fill="#1341AE"/>
<path d="M45.3906 34.2275H45.057C44.6359 34.2275 44.2949 34.5688 44.2949 34.99C44.2949 35.4108 44.6359 35.7521 45.057 35.7521H45.3906C45.8118 35.7521 46.1527 35.4108 46.1527 34.99C46.1527 34.5688 45.8118 34.2275 45.3906 34.2275Z" fill="#1341AE"/>
<path d="M36.058 40.6436C35.6368 40.6436 35.2959 40.9849 35.2959 41.4056V41.7393C35.2959 42.1604 35.6368 42.5013 36.058 42.5013C36.4791 42.5013 36.8201 42.1604 36.8201 41.7393V41.4056C36.8201 40.9849 36.4791 40.6436 36.058 40.6436Z" fill="#1341AE"/>
<path d="M36.058 45.335C35.6368 45.335 35.2959 45.6763 35.2959 46.097V46.4307C35.2959 46.8514 35.6368 47.1927 36.058 47.1927C36.4791 47.1927 36.8201 46.8514 36.8201 46.4307V46.097C36.8201 45.6763 36.4791 45.335 36.058 45.335Z" fill="#1341AE"/>
<path d="M33.8789 43.1562H33.5453C33.1241 43.1562 32.7832 43.4972 32.7832 43.9183C32.7832 44.3391 33.1241 44.6804 33.5453 44.6804H33.8789C34.2997 44.6804 34.641 44.3391 34.641 43.9183C34.641 43.4972 34.2997 43.1562 33.8789 43.1562Z" fill="#1341AE"/>
<path d="M38.5707 43.1562H38.2371C37.8159 43.1562 37.4746 43.4972 37.4746 43.9183C37.4746 44.3391 37.8159 44.6804 38.2371 44.6804H38.5707C38.9915 44.6804 39.3328 44.3391 39.3328 43.9183C39.3328 43.4972 38.9915 43.1562 38.5707 43.1562Z" fill="#1341AE"/>
<path d="M11.723 38.7773C11.3019 38.7773 10.9609 39.1187 10.9609 39.5394V39.873C10.9609 40.2942 11.3019 40.6355 11.723 40.6355C12.1442 40.6355 12.4851 40.2942 12.4851 39.873V39.5394C12.4851 39.1187 12.1442 38.7773 11.723 38.7773Z" fill="#1341AE"/>
<path d="M11.723 43.4688C11.3019 43.4688 10.9609 43.8101 10.9609 44.2308V44.5645C10.9609 44.9856 11.3019 45.3265 11.723 45.3265C12.1442 45.3265 12.4851 44.9856 12.4851 44.5645V44.2308C12.4851 43.8101 12.1442 43.4688 11.723 43.4688Z" fill="#1341AE"/>
<path d="M9.54395 41.29H9.21033C8.78918 41.29 8.44824 41.6313 8.44824 42.0521C8.44824 42.4729 8.78918 42.8142 9.21033 42.8142H9.54395C9.96509 42.8142 10.306 42.4729 10.306 42.0521C10.306 41.6313 9.96472 41.29 9.54395 41.29Z" fill="#1341AE"/>
<path d="M14.2357 41.29H13.9021C13.481 41.29 13.1396 41.6313 13.1396 42.0521C13.1396 42.4729 13.481 42.8142 13.9021 42.8142H14.2357C14.6565 42.8142 14.9978 42.4729 14.9978 42.0521C14.9978 41.6313 14.6565 41.29 14.2357 41.29Z" fill="#1341AE"/>
<path d="M9.46228 7.98865C9.88342 7.98865 10.2247 7.64734 10.2247 7.22656V6.89294C10.2247 6.4718 9.88342 6.13086 9.46228 6.13086C9.0415 6.13086 8.7002 6.4718 8.7002 6.89294V7.22656C8.7002 7.64771 9.0415 7.98865 9.46228 7.98865Z" fill="#1341AE"/>
<path d="M9.46228 12.6801C9.88342 12.6801 10.2247 12.3387 10.2247 11.918V11.5844C10.2247 11.1636 9.88342 10.8223 9.46228 10.8223C9.0415 10.8223 8.7002 11.1636 8.7002 11.5844V11.918C8.7002 12.3387 9.0415 12.6801 9.46228 12.6801Z" fill="#1341AE"/>
<path d="M6.94995 10.1671H7.28357C7.70435 10.1671 8.04565 9.82581 8.04565 9.40466C8.04565 8.98389 7.70435 8.64258 7.28357 8.64258H6.94995C6.52881 8.64258 6.1875 8.98389 6.1875 9.40466C6.1875 9.82581 6.52881 10.1671 6.94995 10.1671Z" fill="#1341AE"/>
<path d="M11.641 10.1671H11.9746C12.3958 10.1671 12.7367 9.82581 12.7367 9.40466C12.7367 8.98389 12.3958 8.64258 11.9746 8.64258H11.641C11.2198 8.64258 10.8789 8.98389 10.8789 9.40466C10.8789 9.82581 11.2198 10.1671 11.641 10.1671Z" fill="#1341AE"/>
<path d="M39.0837 10.8708C39.5045 10.8708 39.8458 10.5295 39.8458 10.1084V9.77478C39.8458 9.354 39.5045 9.0127 39.0837 9.0127C38.6626 9.0127 38.3213 9.354 38.3213 9.77478V10.1084C38.3213 10.5295 38.6626 10.8708 39.0837 10.8708Z" fill="#1341AE"/>
<path d="M39.0837 15.5613C39.5045 15.5613 39.8458 15.22 39.8458 14.7988V14.4652C39.8458 14.0444 39.5045 13.7031 39.0837 13.7031C38.6626 13.7031 38.3213 14.0444 38.3213 14.4652V14.7988C38.3213 15.22 38.6626 15.5613 39.0837 15.5613Z" fill="#1341AE"/>
<path d="M36.5717 13.0496H36.9053C37.3264 13.0496 37.6674 12.7083 37.6674 12.2875C37.6674 11.8667 37.3264 11.5254 36.9053 11.5254H36.5717C36.1505 11.5254 35.8096 11.8667 35.8096 12.2875C35.8096 12.7083 36.1505 13.0496 36.5717 13.0496Z" fill="#1341AE"/>
<path d="M41.2631 13.0496H41.5967C42.0175 13.0496 42.3588 12.7083 42.3588 12.2875C42.3588 11.8667 42.0175 11.5254 41.5967 11.5254H41.2631C40.8419 11.5254 40.501 11.8667 40.501 12.2875C40.501 12.7083 40.8419 13.0496 41.2631 13.0496Z" fill="#1341AE"/>
<path d="M29.5287 2.7019C29.9498 2.7019 30.2908 2.3606 30.2908 1.93945V1.60583C30.2908 1.18506 29.9498 0.84375 29.5287 0.84375C29.1075 0.84375 28.7666 1.18506 28.7666 1.60583V1.93945C28.7666 2.3606 29.1079 2.7019 29.5287 2.7019Z" fill="#1341AE"/>
<path d="M29.5287 7.39294C29.9498 7.39294 30.2908 7.05164 30.2908 6.63086V6.29724C30.2908 5.8761 29.9498 5.53516 29.5287 5.53516C29.1075 5.53516 28.7666 5.8761 28.7666 6.29724V6.63086C28.7666 7.05164 29.1079 7.39294 29.5287 7.39294Z" fill="#1341AE"/>
<path d="M27.016 4.88H27.3496C27.7704 4.88 28.1117 4.5387 28.1117 4.11792C28.1117 3.69678 27.7704 3.35547 27.3496 3.35547H27.016C26.5948 3.35547 26.2539 3.69678 26.2539 4.11792C26.2539 4.5387 26.5948 4.88 27.016 4.88Z" fill="#1341AE"/>
<path d="M31.7074 4.88H32.041C32.4618 4.88 32.8031 4.5387 32.8031 4.11792C32.8031 3.69678 32.4618 3.35547 32.041 3.35547H31.7074C31.2863 3.35547 30.9453 3.69678 30.9453 4.11792C30.9453 4.5387 31.2863 4.88 31.7074 4.88Z" fill="#1341AE"/>
<path d="M21.0311 16.1173C21.4523 16.1173 21.7936 15.776 21.7936 15.3552C21.7936 13.6381 23.1903 12.241 24.9075 12.241C26.6243 12.241 28.0214 13.6381 28.0214 15.3552C28.0214 17.072 26.6243 18.4691 24.9075 18.4691H7.91052C7.48938 18.4691 7.14844 18.8101 7.14844 19.2312C7.14844 19.652 7.48938 19.9933 7.91052 19.9933H24.9075C27.4647 19.9933 29.5455 17.9125 29.5455 15.3552C29.5455 12.7976 27.4647 10.7168 24.9075 10.7168C22.3499 10.7168 20.269 12.7976 20.269 15.3552C20.269 15.776 20.6104 16.1173 21.0311 16.1173Z" fill="#1341AE"/>
<path d="M24.9075 32.2002H7.91052C7.48938 32.2002 7.14844 32.5415 7.14844 32.9626C7.14844 33.3834 7.48938 33.7247 7.91052 33.7247H24.9075C26.6243 33.7247 28.0214 35.1215 28.0214 36.8386C28.0214 38.5558 26.6243 39.9525 24.9075 39.9525C23.1903 39.9525 21.7936 38.5558 21.7936 36.8386C21.7936 36.4178 21.4523 36.0765 21.0311 36.0765C20.6104 36.0765 20.269 36.4178 20.269 36.8386C20.269 39.3962 22.3499 41.4771 24.9075 41.4771C27.4647 41.4771 29.5455 39.3962 29.5455 36.8386C29.5455 34.281 27.4647 32.2002 24.9075 32.2002Z" fill="#1341AE"/>
<path d="M43.3616 17.582C40.8043 17.582 38.7235 19.6628 38.7235 22.2205C38.7235 22.6412 39.0645 22.9825 39.4856 22.9825C39.9067 22.9825 40.2477 22.6412 40.2477 22.2205C40.2477 20.5033 41.6448 19.1066 43.3616 19.1066C45.0787 19.1066 46.4758 20.5033 46.4758 22.2205C46.4758 23.9376 45.0787 25.3344 43.3616 25.3344H0.762085C0.341309 25.3344 0 25.6757 0 26.0964C0 26.5172 0.341309 26.8585 0.762085 26.8585H43.3616C45.9192 26.8585 48 24.7777 48 22.2205C48 19.6628 45.9192 17.582 43.3616 17.582Z" fill="#1341AE"/>
</g>
<defs>
<clipPath id="clip0_4523_13010">
<rect width="48" height="48" fill="white"/>
</clipPath>
</defs>
</svg>
