<svg width="41" height="40" viewBox="0 0 41 40" fill="none" xmlns="http://www.w3.org/2000/svg">
<path d="M8.87883 15.0989H4.08594C3.42423 15.0989 2.8877 15.6354 2.8877 16.2971V35.4684C2.8877 36.1301 3.42415 36.6666 4.08594 36.6666H8.87875C9.54045 36.6666 10.077 36.1302 10.077 35.4684V16.2971C10.077 15.6354 9.54061 15.0989 8.87883 15.0989Z" fill="#1341AE"/>
<path d="M38.8094 18.2746C38.598 16.4158 36.8617 15.0984 34.991 15.0984H25.6494C26.4433 13.6769 26.8694 9.65617 26.8505 8.01371C26.8192 5.29498 24.5677 3.1163 21.8489 3.1163H20.8602C20.1979 3.1163 19.662 3.6522 19.662 4.31455C19.662 7.08533 18.5831 12.0865 16.5483 14.1214C15.1787 15.491 14.0079 15.9872 12.4727 16.7545V34.7336C14.8231 35.517 17.8075 36.6662 22.3563 36.6662H30.1944C32.777 36.6662 34.7884 34.2743 33.7877 31.747C35.3124 31.3317 36.4368 29.9333 36.4368 28.2788C36.4368 27.8118 36.3467 27.3649 36.1841 26.9542C38.7535 26.2541 39.6992 23.0815 37.9159 21.0895C38.5711 20.3575 38.9324 19.3564 38.8094 18.2746Z" fill="#1341AE"/>
</svg>
