<svg width="85" height="85" viewBox="0 0 85 85" fill="none" xmlns="http://www.w3.org/2000/svg">
<path d="M0 42.5C0 19.0279 19.0279 0 42.5 0C65.9721 0 85 19.0279 85 42.5C85 65.9721 65.9721 85 42.5 85C19.0279 85 0 65.9721 0 42.5Z" fill="#1341AE"/>
<g clip-path="url(#clip0_4505_10195)">
<path d="M49.0485 25.6271L43.7429 16.44C43.586 16.1676 43.2952 16 42.9807 16C42.6662 16 42.3762 16.1676 42.2185 16.44L36.9129 25.6271C36.3015 26.6854 35.9785 27.8946 35.9785 29.1244C35.9785 32.9851 39.1199 36.1266 42.9807 36.1266C46.8415 36.1266 49.9829 32.9851 49.9829 29.1244C49.9829 27.8946 49.66 26.6847 49.0485 25.6271ZM42.9807 34.3664C40.0903 34.3664 37.7386 32.0148 37.7386 29.1244C37.7386 28.203 37.9805 27.2984 38.4373 26.5071L42.9807 18.6394L47.5249 26.5071C47.9818 27.2977 48.2228 28.203 48.2228 29.1236C48.2228 32.014 45.8711 34.3657 42.9807 34.3657V34.3664Z" fill="white"/>
<path d="M67.6185 40.6282L59.6605 26.8473C59.5036 26.5748 59.2128 26.4072 58.8982 26.4072C58.5837 26.4072 58.2937 26.5748 58.136 26.8473L50.1788 40.6282C49.2995 42.1488 48.835 43.8867 48.835 45.6537C48.835 51.2027 53.3493 55.717 58.8982 55.717C64.4472 55.717 68.9615 51.2027 68.9615 45.6537C68.9615 43.8867 68.497 42.1488 67.6185 40.6282ZM58.8982 53.9569C54.3196 53.9569 50.5951 50.2323 50.5951 45.6537C50.5951 44.1951 50.9777 42.7618 51.7024 41.5083L58.8982 29.0474L66.0941 41.509C66.8188 42.7625 67.2014 44.1959 67.2014 45.6545C67.2014 50.2331 63.4768 53.9577 58.8982 53.9577V53.9569Z" fill="white"/>
<path d="M61.1148 43.3715C60.6939 43.6149 60.5508 44.1536 60.7942 44.5737C60.9809 44.8967 61.0796 45.2648 61.0796 45.639V45.6543C61.0796 46.8565 60.1009 47.8353 58.8986 47.8353C58.4127 47.8353 58.0186 48.2294 58.0186 48.7154C58.0186 49.2013 58.4127 49.5954 58.8986 49.5954C61.072 49.5954 62.8397 47.8277 62.8397 45.6543V45.639C62.8397 44.9556 62.6591 44.2822 62.3171 43.6921C62.0737 43.2712 61.535 43.1281 61.1148 43.3715Z" fill="white"/>
<path d="M30.1242 60.0797C29.6383 60.0797 29.2441 60.4738 29.2441 60.9597C29.2441 61.4457 29.6383 61.8398 30.1242 61.8398C33.985 61.8398 37.1264 58.6984 37.1264 54.8376V54.8215C37.1264 53.604 36.8042 52.4017 36.1958 51.3449C35.9532 50.924 35.4153 50.7794 34.9936 51.0219C34.5727 51.2645 34.4281 51.8025 34.6707 52.2242C35.126 53.0139 35.3663 53.9124 35.3663 54.8223V54.8383C35.3663 57.7288 33.0146 60.0804 30.1242 60.0804V60.0797Z" fill="white"/>
<path d="M30.1244 67.9997C30.6316 67.9997 31.0427 67.5886 31.0427 67.0814C31.0427 66.5742 30.6316 66.1631 30.1244 66.1631C29.6172 66.1631 29.2061 66.5742 29.2061 67.0814C29.2061 67.5886 29.6172 67.9997 30.1244 67.9997Z" fill="white"/>
<path d="M30.8866 29.9088C30.7297 29.6363 30.4389 29.4688 30.1244 29.4688C29.8098 29.4688 29.5198 29.6363 29.3621 29.9088L18.7517 48.2836C17.6053 50.268 17 52.5339 17 54.8374C17 57.5189 17.8035 60.0979 19.3241 62.2957C20.8087 64.4423 22.8711 66.083 25.2886 67.0419C25.7401 67.221 26.2521 66.9998 26.4312 66.5483C26.6102 66.0968 26.3891 65.5848 25.9376 65.4058C23.8446 64.5754 22.0584 63.1543 20.772 61.2947C19.4557 59.3923 18.7601 57.16 18.7601 54.8374C18.7601 52.8423 19.2843 50.881 20.2761 49.1637L30.1244 32.1089L39.9726 49.1637C40.9644 50.881 41.4886 52.8431 41.4886 54.8374C41.4886 57.1592 40.793 59.3923 39.4767 61.2947C38.1903 63.1543 36.4042 64.5762 34.3111 65.4058C33.8596 65.5848 33.6385 66.0968 33.8175 66.5483C33.9545 66.8934 34.2859 67.1039 34.6356 67.1039C34.7435 67.1039 34.8537 67.084 34.9601 67.0419C37.3776 66.083 39.44 64.4423 40.9246 62.2957C42.4452 60.0979 43.2487 57.5189 43.2487 54.8374C43.2487 52.5339 42.6434 50.268 41.497 48.2836L30.8866 29.9088Z" fill="white"/>
</g>
<defs>
<clipPath id="clip0_4505_10195">
<rect width="51.9617" height="52" fill="white" transform="translate(17 16)"/>
</clipPath>
</defs>
</svg>
