<svg width="37" height="36" viewBox="0 0 37 36" fill="none" xmlns="http://www.w3.org/2000/svg">
<path fill-rule="evenodd" clip-rule="evenodd" d="M10.416 12.7495V20.2496C10.416 21.4435 10.89 22.5879 11.7345 23.4311C12.5775 24.2754 13.722 24.7496 14.916 24.7496H22.4161C23.61 24.7496 24.7545 24.2754 25.5976 23.4311C26.442 22.5879 26.9161 21.4435 26.9161 20.2496V12.7495C27.7441 12.7495 28.416 12.0775 28.416 11.2495V7.49951C28.416 6.67151 27.7441 5.99951 26.9161 5.99951H10.416C9.58803 5.99951 8.91602 6.67151 8.91602 7.49951V11.2495C8.91602 12.0775 9.58803 12.7495 10.416 12.7495Z" fill="#1341AE"/>
<path fill-rule="evenodd" clip-rule="evenodd" d="M15.666 7.49951V2.99951C15.666 2.17151 14.994 1.49951 14.166 1.49951C13.338 1.49951 12.666 2.17151 12.666 2.99951V7.49951C12.666 8.32751 13.338 8.9995 14.166 8.9995C14.994 8.9995 15.666 8.32751 15.666 7.49951Z" fill="#1341AE"/>
<path fill-rule="evenodd" clip-rule="evenodd" d="M24.6661 7.49951V2.99951C24.6661 2.17151 23.994 1.49951 23.166 1.49951C22.338 1.49951 21.666 2.17151 21.666 2.99951V7.49951C21.666 8.32751 22.338 8.9995 23.166 8.9995C23.994 8.9995 24.6661 8.32751 24.6661 7.49951Z" fill="#1341AE"/>
<path fill-rule="evenodd" clip-rule="evenodd" d="M17.166 23.2495V28.4995C17.166 30.0911 17.7975 31.6166 18.9241 32.7416C20.0491 33.868 21.5746 34.4995 23.166 34.4995H26.166C26.994 34.4995 27.666 33.8275 27.666 32.9995C27.666 32.1715 26.994 31.4996 26.166 31.4996H23.166C22.3711 31.4996 21.6075 31.183 21.045 30.6205C20.4825 30.058 20.1661 29.2946 20.1661 28.4995C20.1661 25.9435 20.1661 23.2495 20.1661 23.2495C20.1661 22.4215 19.494 21.7495 18.666 21.7495C17.838 21.7495 17.166 22.4215 17.166 23.2495Z" fill="#1341AE"/>
</svg>
