<svg width="37" height="36" viewBox="0 0 37 36" fill="none" xmlns="http://www.w3.org/2000/svg">
<mask id="mask0_4505_10347" style="mask-type:luminance" maskUnits="userSpaceOnUse" x="2" y="1" width="33" height="34">
<path d="M35 1.99902H2V34.999H35V1.99902Z" fill="white"/>
</mask>
<g mask="url(#mask0_4505_10347)">
<path d="M34.0336 24.7941C32.0719 24.7941 30.2294 24.0374 28.8451 22.6629C27.4615 21.2893 26.6996 19.4597 26.6996 17.5112C26.6996 16.9772 26.2666 16.5444 25.7328 16.5444C25.1988 16.5444 24.766 16.9772 24.766 17.5112C24.766 19.4597 24.0039 21.2893 22.6202 22.6629C21.2359 24.0374 19.3935 24.7941 17.4316 24.7941C16.8977 24.7941 16.4648 25.2269 16.4648 25.7609C16.4648 26.295 16.8977 26.7277 17.4316 26.7277C21.4756 26.7277 24.766 30.0045 24.766 34.0322C24.766 34.5661 25.1988 34.999 25.7328 34.999C26.2666 34.999 26.6996 34.5661 26.6996 34.0322C26.6996 30.0045 29.9897 26.7277 34.0336 26.7277C34.5676 26.7277 35.0004 26.295 35.0004 25.7609C35.0004 25.2269 34.5676 24.7941 34.0336 24.7941Z" fill="#1341AE"/>
<path d="M15.2279 17.2354C12.3808 17.2354 10.0642 14.936 10.0642 12.1094C10.0642 11.5756 9.6314 11.1426 9.09739 11.1426C8.56339 11.1426 8.1306 11.5756 8.1306 12.1094C8.1306 14.936 5.81407 17.2354 2.9668 17.2354C2.43279 17.2354 2 17.6684 2 18.2022C2 18.7362 2.43279 19.169 2.9668 19.169C5.81407 19.169 8.1306 21.4757 8.1306 24.3109C8.1306 24.8447 8.56339 25.2777 9.09739 25.2777C9.6314 25.2777 10.0642 24.8447 10.0642 24.3109C10.0642 21.4757 12.3808 19.169 15.2279 19.169C15.762 19.169 16.1947 18.7362 16.1947 18.2022C16.1947 17.6684 15.762 17.2354 15.2279 17.2354Z" fill="#1341AE"/>
<path d="M16.8008 8.68C18.8947 8.68 20.5985 10.3706 20.5985 12.4485C20.5985 12.9822 21.0313 13.4153 21.5653 13.4153C22.0992 13.4153 22.5321 12.9822 22.5321 12.4485C22.5321 10.3638 24.2358 8.66791 26.3297 8.66791C26.8638 8.66791 27.2965 8.23487 27.2965 7.70111C27.2965 7.1671 26.8638 6.73432 26.3297 6.73432C24.2358 6.73432 22.5321 5.04368 22.5321 2.96582C22.5321 2.43182 22.0992 1.99902 21.5653 1.99902C21.0313 1.99902 20.5985 2.43182 20.5985 2.96582C20.5985 5.05047 18.8947 6.7464 16.8008 6.7464C16.2668 6.7464 15.834 7.17919 15.834 7.7132C15.834 8.2472 16.2668 8.68 16.8008 8.68Z" fill="#1341AE"/>
</g>
</svg>
