<svg width="48" height="48" viewBox="0 0 48 48" fill="none" xmlns="http://www.w3.org/2000/svg">
<g clip-path="url(#clip0_4523_13106)">
<path d="M45.8994 33.2626C45.7171 32.6358 45.3058 32.1164 44.7408 31.8001C44.1276 31.4564 43.37 31.3712 42.5512 31.5534C42.5473 31.5541 42.5434 31.5554 42.5395 31.556L34.0825 33.5979C34.0148 32.9398 33.7011 32.3468 33.1966 31.9257C32.6994 31.5098 32.0745 31.3139 31.4392 31.3725C30.9634 31.4161 29.3492 31.5951 27.64 31.7845C26.0173 31.9641 24.3387 32.1503 23.8766 32.1932C22.8872 32.2844 21.6147 32.093 20.1411 31.8717C17.7524 31.5124 15.0453 31.1056 12.3468 31.7135C9.16262 32.4308 6.72699 34.4089 4.8993 37.7596L2.31398 42.3256C1.90066 43.0689 1.89936 43.9639 2.30942 44.6616C2.68498 45.3002 3.34824 45.6816 4.08374 45.6816H13.15C13.15 45.6816 13.1506 45.6816 13.1513 45.6816C14.5793 45.6816 15.0688 45.4264 15.7665 44.3173L16.5879 43.011L21.8907 43.2642C25.7173 43.4471 26.8453 43.2674 30.5111 41.8928C33.3424 40.8312 36.882 39.3823 39.7263 38.2185C41.8495 37.3496 43.5269 36.6629 44.1927 36.4299L44.1992 36.4273C45.7562 35.8642 46.2339 34.4095 45.9007 33.2626H45.8994ZM43.7586 35.2023C43.0582 35.4477 41.3698 36.1389 39.2323 37.0137C36.3964 38.1742 32.8666 39.6192 30.0535 40.6743C26.5693 41.9806 25.5852 42.1369 21.9526 41.9644L16.2703 41.6936C16.0347 41.6825 15.8134 41.7984 15.6884 41.9969L14.6646 43.6248C14.2343 44.3089 14.1888 44.3805 13.1526 44.3805H4.08374C3.70948 44.3805 3.51486 44.1435 3.43155 44.0023C3.25125 43.6957 3.25907 43.3058 3.44912 42.9628L6.03445 38.3962C6.03445 38.3962 6.0377 38.3903 6.03966 38.3871C7.67794 35.3813 9.83433 33.6141 12.6331 32.9834C13.5275 32.7816 14.4368 32.7048 15.3421 32.7048C16.9277 32.7048 18.4989 32.9411 19.9472 33.1592C21.5047 33.3935 22.8495 33.5953 23.9957 33.4898C24.4702 33.4462 26.0792 33.2679 27.7826 33.0791C29.4111 32.8988 31.0949 32.712 31.5584 32.669C31.846 32.6424 32.1318 32.7335 32.3615 32.9248C32.6089 33.1318 32.7605 33.4254 32.7892 33.7528C32.8081 33.9689 32.8575 34.5416 31.559 35.104C29.1514 36.1461 26.5927 37.0209 24.5385 37.5032C24.1884 37.5852 23.9716 37.936 24.0536 38.2855C24.1356 38.6357 24.4865 38.8525 24.836 38.7705C26.9618 38.2712 29.6011 37.3704 32.0765 36.2984C32.8725 35.9534 33.4355 35.5238 33.761 35.0142L42.8389 32.822C43.9317 32.5805 44.4902 33.0784 44.649 33.6252C44.8078 34.1713 44.5963 34.897 43.7579 35.2016L43.7586 35.2023Z" fill="#1341AE"/>
<path d="M5.57651 13.6003C6.17858 14.3846 6.83142 15.1195 7.53047 15.8023C7.56692 17.6202 7.95615 19.2806 8.6897 20.7412C9.39852 22.1523 10.4315 23.3844 11.7593 24.4031C13.9092 26.0524 16.8264 27.1349 20.1961 27.5319C21.1457 27.6439 22.1091 27.6992 23.0665 27.6992C25.081 27.6992 27.0701 27.4538 28.8588 26.9747C32.8695 25.9001 36.6414 23.7815 39.7663 20.8486C42.6966 18.0979 44.7691 14.8741 45.6009 11.77C46.4998 8.41599 45.8606 5.43557 43.8025 3.37746C43.7218 3.29675 43.6209 3.23883 43.5109 3.20888C40.0937 2.29309 37.3574 4.51912 34.6237 7.08362C34.3614 7.32965 34.3483 7.74167 34.5944 8.00332C34.8404 8.26563 35.2524 8.27865 35.5141 8.03261C38.0115 5.69007 40.3033 3.80054 43.0045 4.42344C44.1761 5.66273 45.3008 7.85883 44.3427 11.4322C43.5727 14.3052 41.6311 17.3117 38.8753 19.8989C36.2209 22.3899 33.0778 24.2612 29.7231 25.3586L25.9896 21.2495C26.4095 21.1643 26.828 21.066 27.2452 20.9547C30.8212 19.9966 34.0008 18.1389 36.5366 15.5751C36.5783 15.5862 36.6212 15.5933 36.6662 15.5959L38.3539 15.7001C38.3676 15.7007 38.3812 15.7014 38.3943 15.7014C38.7353 15.7014 39.0224 15.4358 39.0432 15.0902C39.0653 14.7315 38.7926 14.4224 38.4333 14.4002L37.6523 14.3521C38.4301 13.4272 39.133 12.4274 39.7501 11.3586C39.9297 11.0475 39.823 10.6492 39.5118 10.4695C39.2007 10.2899 38.8024 10.3966 38.6227 10.7078C36.9525 13.601 34.6152 15.9591 31.8229 17.6247L31.9986 16.5872C32.0585 16.2325 31.8196 15.8966 31.4656 15.8368C31.1115 15.7769 30.775 16.0151 30.7151 16.3698L30.3831 18.3303C30.3786 18.3557 30.3766 18.3804 30.3753 18.4058C29.2747 18.9395 28.1161 19.3737 26.9087 19.6972C26.4524 19.8195 25.9935 19.9243 25.5347 20.0128L26.6138 14.6261C27.5713 14.2792 28.5196 13.8001 29.4901 13.1753C29.7921 12.9807 29.8793 12.5778 29.6847 12.2757C29.4901 11.9737 29.0872 11.8859 28.7852 12.0811C27.5999 12.8446 26.4589 13.3666 25.2958 13.6784C21.7517 14.6281 19.0278 13.9707 16.6247 13.3907C15.0918 13.0204 13.6436 12.6708 12.1954 12.7932C10.7315 12.9162 9.44408 13.5001 8.18657 14.6189C7.62681 14.0514 7.10024 13.4473 6.61012 12.8075C5.05971 10.7872 3.93953 8.51557 3.28083 6.05652C3.18775 5.70959 2.83107 5.50326 2.48349 5.59634C2.13657 5.68942 1.93024 6.0461 2.02331 6.39368C2.72692 9.01936 3.9226 11.4439 5.57716 13.6003H5.57651ZM28.3341 25.7667C23.584 26.9813 16.6989 26.553 12.5514 23.3701C10.4725 21.7748 9.25663 19.651 8.92337 17.0428C9.76692 17.7282 10.6651 18.3485 11.618 18.8979C14.7918 20.7301 18.3131 21.6661 21.8819 21.6661C22.7398 21.6661 23.6009 21.6114 24.4607 21.5027L28.3348 25.7667H28.3341ZM16.3188 14.6567C18.6554 15.221 21.5428 15.9168 25.2021 15.0446L24.1633 20.227C22.2815 20.4515 20.3927 20.3969 18.548 20.0688L19.4111 18.922C19.6272 18.6349 19.5699 18.2268 19.2829 18.0107C18.9959 17.7946 18.5878 17.8519 18.3717 18.1389L17.1473 19.7649C15.4589 19.332 13.8193 18.6655 12.2683 17.7705C11.1429 17.121 10.0969 16.3672 9.13556 15.5172C11.4833 13.489 13.5408 13.985 16.3188 14.656V14.6567Z" fill="#1341AE"/>
<path d="M9.4698 27.8351C9.58891 27.9281 9.73015 27.973 9.87075 27.973C10.0641 27.973 10.2554 27.8871 10.3836 27.7231C10.6049 27.44 10.5555 27.0312 10.2723 26.8093C8.85211 25.6982 6.92092 23.2326 6.14572 21.0307C6.02661 20.6916 5.65495 20.5132 5.31584 20.633C4.97672 20.7521 4.79838 21.1238 4.91814 21.4629C5.804 23.9805 7.92459 26.6251 9.47045 27.8344L9.4698 27.8351Z" fill="#1341AE"/>
<path d="M4.22482 24.8533C4.10571 24.5142 3.73405 24.3358 3.39494 24.4549C3.05583 24.574 2.87748 24.9457 2.99725 25.2848C3.56677 26.9042 4.93103 28.605 5.92559 29.3834C6.0447 29.4765 6.18594 29.5214 6.32654 29.5214C6.51985 29.5214 6.71121 29.4355 6.83943 29.2715C7.06074 28.9884 7.01127 28.5796 6.72813 28.3576C5.86701 27.6833 4.69541 26.1882 4.22547 24.8526L4.22482 24.8533Z" fill="#1341AE"/>
<path d="M32.2183 10.8789C32.5776 10.8789 32.8692 10.5873 32.8692 10.228C32.8692 9.86875 32.5776 9.57715 32.2183 9.57715H32.2176C31.8583 9.57715 31.5674 9.86875 31.5674 10.228C31.5674 10.5873 31.859 10.8789 32.2189 10.8789H32.2183Z" fill="#1341AE"/>
</g>
<defs>
<clipPath id="clip0_4523_13106">
<rect width="44" height="42.6813" fill="white" transform="translate(2 3)"/>
</clipPath>
</defs>
</svg>
