<svg width="85" height="85" viewBox="0 0 85 85" fill="none" xmlns="http://www.w3.org/2000/svg">
<path d="M0 42.5C0 19.0279 19.0279 0 42.5 0C65.9721 0 85 19.0279 85 42.5C85 65.9721 65.9721 85 42.5 85C19.0279 85 0 65.9721 0 42.5Z" fill="#1341AE"/>
<g clip-path="url(#clip0_4505_10231)">
<path d="M66.7905 43.7314C66.2665 43.7314 65.9409 44.0571 65.9409 44.581V61.4133C65.9409 62.3432 65.2917 62.9935 64.3607 62.9935H20.6378C19.7078 62.9935 19.0576 62.3443 19.0576 61.4133V44.581C19.0576 44.0571 18.7319 43.7314 18.208 43.7314C17.684 43.7314 17.3584 44.0571 17.3584 44.581V61.4133C17.3584 63.2826 18.7674 64.6916 20.6368 64.6916H64.3596C66.2289 64.6916 67.638 63.2826 67.638 61.4133V44.581C67.638 44.0571 67.3123 43.7314 66.7884 43.7314H66.7905Z" fill="white"/>
<path d="M65.5755 27.7725H19.4239C17.5545 27.7725 16.1455 29.1815 16.1455 31.0508V38.8235C16.1455 40.3223 17.2007 41.6541 18.6567 41.9901L38.0075 46.3039V50.483C38.0075 51.0069 38.3331 51.3326 38.8571 51.3326H46.1444C46.6683 51.3326 46.994 51.0069 46.994 50.483V46.3039L66.3489 41.9891C67.8018 41.6541 68.8559 40.3223 68.8559 38.8235V31.0508C68.8559 29.1815 67.4469 27.7725 65.5776 27.7725H65.5755ZM45.2937 44.0442V49.6323H39.7056V44.0442H45.2937ZM46.1433 42.3461H38.856C38.3321 42.3461 38.0064 42.6717 38.0064 43.1956V44.6235L19.1034 40.3953C18.3499 40.2419 17.8437 39.6104 17.8437 38.8235V31.0508C17.8437 30.1209 18.4929 29.4706 19.4239 29.4706H65.5755C66.5054 29.4706 67.1557 30.1198 67.1557 31.0508V38.8235C67.1557 39.6104 66.6495 40.2419 65.8938 40.3953L46.9929 44.6235V43.1956C46.9929 42.6717 46.6673 42.3461 46.1433 42.3461Z" fill="white"/>
<path d="M33.9969 26.2817C34.5209 26.2817 34.8465 25.9561 34.8465 25.4321V22.8604C34.8465 21.9304 35.4957 21.2802 36.4267 21.2802H48.5716C49.5015 21.2802 50.1518 21.9294 50.1518 22.8604V25.4321C50.1518 25.9561 50.4774 26.2817 51.0014 26.2817C51.5253 26.2817 51.851 25.9561 51.851 25.4321V22.8604C51.851 21.9596 51.517 21.1288 50.9106 20.5224C50.3042 19.916 49.4744 19.582 48.5726 19.582H36.4278C34.5584 19.582 33.1494 20.9911 33.1494 22.8604V25.4321C33.1494 25.9561 33.4751 26.2817 33.999 26.2817H33.9969Z" fill="white"/>
</g>
<defs>
<clipPath id="clip0_4505_10231">
<rect width="52.7083" height="45.1079" fill="white" transform="translate(16.1455 19.583)"/>
</clipPath>
</defs>
</svg>
