<svg width="48" height="48" viewBox="0 0 48 48" fill="none" xmlns="http://www.w3.org/2000/svg">
<g clip-path="url(#clip0_4525_7521)">
<path d="M43.7601 7.78964H35.6355L35.5791 7.5195C34.8814 4.18356 32.1567 3 30.0344 3H30.0315C28.7673 3 27.5381 3.40132 26.5722 4.13012C25.5052 4.93374 24.7852 6.10564 24.4907 7.51853L24.4344 7.78964H3.82597C3.37023 7.78964 3 8.15987 3 8.61561C3 9.07135 3.37023 9.44158 3.82597 9.44158H24.4344L24.4907 9.71172C25.1845 13.0409 27.9054 14.2234 30.0257 14.2254H30.0296C31.2938 14.2254 32.523 13.825 33.4918 13.0982C34.5607 12.2955 35.2827 11.1246 35.5791 9.71172L35.6355 9.44158H43.7601C44.2148 9.44158 44.586 9.07135 44.586 8.61561C44.586 8.15987 44.2148 7.78964 43.7601 7.78964ZM34.0059 8.60881C33.9311 11.3277 31.8924 12.5725 30.0286 12.5783H30.016C28.1483 12.5783 26.1018 11.3384 26.0105 8.61173V8.59812C26.0154 7.50007 26.4662 6.50308 27.1912 5.78206C27.9151 5.06103 28.9131 4.61404 30.0121 4.61404C32.2053 4.6189 33.9962 6.4059 34.0059 8.59812V8.60881Z" fill="#1341AE"/>
<path d="M43.7601 23.1744H23.1507L23.0943 22.9033C22.4005 19.5722 19.6778 18.3887 17.5565 18.3877H17.5536C16.2893 18.3877 15.0601 18.788 14.0932 19.5149C13.0243 20.3185 12.3023 21.4904 12.006 22.9043L11.9496 23.1744H3.82597C3.37023 23.1744 3 23.5447 3 24.0004C3 24.4561 3.37023 24.8264 3.82597 24.8264H11.9496L12.006 25.0965C12.3023 26.5104 13.0243 27.6823 14.0932 28.4859C15.0601 29.2127 16.2893 29.6131 17.5536 29.6131H17.5565C19.6778 29.6121 22.4005 28.4286 23.0943 25.0965L23.1507 24.8264H43.7601C44.2148 24.8264 44.586 24.4561 44.586 24.0004C44.586 23.5447 44.2148 23.1744 43.7601 23.1744ZM21.5522 24.0014V24.0121C21.4599 26.7241 19.4144 27.9582 17.5506 27.9582H17.5438C15.682 27.9553 13.6394 26.7183 13.5568 24.0111V23.9897C13.6394 21.2689 15.6869 20.0309 17.5555 20.0309H17.5584C19.4261 20.0319 21.4735 21.2718 21.5522 23.9907V24.0014Z" fill="#1341AE"/>
<path d="M43.7601 38.5582H35.6355L35.5791 38.2881C34.8814 34.956 32.1567 33.7744 30.0344 33.7744H30.0315C28.7673 33.7744 27.5381 34.1757 26.5722 34.9036C25.5052 35.7062 24.7852 36.8762 24.4907 38.2871L24.4344 38.5582H3.82597C3.37023 38.5582 3 38.9285 3 39.3842C3 39.8399 3.37023 40.2102 3.82597 40.2102H24.4344L24.4907 40.4813C25.1845 43.8153 27.9093 44.9998 30.0315 44.9998H30.0325C31.2986 44.9998 32.5279 44.5985 33.4957 43.8707C34.5646 43.0661 35.2847 41.8942 35.5791 40.4803L35.6355 40.2102H43.7601C44.2148 40.2102 44.586 39.839 44.586 39.3842C44.586 38.9294 44.2148 38.5582 43.7601 38.5582ZM32.8398 42.2071C32.4628 42.586 32.0226 42.8805 31.5445 43.0797C31.0645 43.2789 30.5465 43.3838 30.0121 43.3858C27.8053 43.3858 26.0105 41.591 26.0105 39.3842V39.3648C26.1018 36.643 28.1541 35.4069 30.0247 35.4157C31.8895 35.4215 33.9311 36.6604 34.0059 39.3667C34.0078 40.4443 33.5939 41.4501 32.8398 42.2071Z" fill="#1341AE"/>
</g>
<defs>
<clipPath id="clip0_4525_7521">
<rect width="41.586" height="42" fill="white" transform="translate(3 3)"/>
</clipPath>
</defs>
</svg>
