<svg width="48" height="48" viewBox="0 0 48 48" fill="none" xmlns="http://www.w3.org/2000/svg">
<path d="M29.9061 12.6663C29.7541 12.4503 29.5141 12.3223 29.2501 12.3223H21.2502C20.9222 12.3223 20.6262 12.5223 20.5062 12.8263L15.7062 24.826C15.6102 25.074 15.6422 25.354 15.7862 25.57C15.9382 25.786 16.1862 25.922 16.4502 25.922H20.3302L18.8582 36.2097C18.8102 36.5697 19.0022 36.9137 19.3382 37.0577C19.4422 37.0977 19.5462 37.1217 19.6502 37.1217C19.8902 37.1217 20.1302 37.0097 20.2822 36.8097L31.4821 22.41C31.6661 22.17 31.7061 21.8421 31.5701 21.5701C31.4341 21.2981 31.1541 21.1221 30.8501 21.1221H27.1941L30.0021 13.3942C30.0901 13.1462 30.0581 12.8743 29.9061 12.6583V12.6663ZM25.2981 21.6501C25.2101 21.8981 25.2421 22.17 25.3941 22.386C25.5461 22.602 25.7861 22.73 26.0501 22.73H29.2181L20.8742 33.4578L22.0502 25.242C22.0822 25.01 22.0182 24.778 21.8662 24.602C21.7142 24.426 21.4902 24.33 21.2582 24.33H17.6422L21.8022 13.9302H28.1221L25.3141 21.6581L25.2981 21.6501Z" fill="#1341AE"/>
<path d="M47.9201 23.4555C47.7841 23.1755 47.5041 22.9995 47.2001 22.9995H44.7681C44.7361 22.1516 44.6641 21.3036 44.5361 20.4716C42.9121 10.3438 34.2802 3 24.0003 3C15.4084 3 7.82447 8.15988 4.66451 16.1357C4.50451 16.5437 4.70451 17.0077 5.1125 17.1757C5.5205 17.3357 5.98449 17.1357 6.15249 16.7277C9.06446 9.35986 16.0724 4.59996 24.0003 4.59996C33.4802 4.59996 41.4561 11.3838 42.9521 20.7276C43.0721 21.4796 43.1361 22.2396 43.1681 22.9995H40.8001C40.4961 22.9995 40.2161 23.1755 40.0801 23.4555C39.9441 23.7355 39.9841 24.0635 40.1761 24.3035L43.3761 28.3034C43.5281 28.4954 43.7601 28.6074 44.0001 28.6074C44.2401 28.6074 44.4721 28.4954 44.6241 28.3034L47.8241 24.3035C48.0161 24.0635 48.0561 23.7355 47.9201 23.4555ZM44.0001 26.5195L42.4641 24.5995H45.5361L44.0001 26.5195Z" fill="#1341AE"/>
<path d="M42.5918 30.3672C42.2478 30.3672 41.9518 30.5912 41.8398 30.9032C38.9199 38.2551 31.9199 43.0069 24 43.0069C14.5201 43.0069 6.54419 36.2231 5.04821 26.8793C4.92821 26.1273 4.86421 25.3673 4.83221 24.6074H7.20019C7.50418 24.6074 7.78418 24.4314 7.92018 24.1514C8.05618 23.8714 8.01618 23.5434 7.82418 23.3034L4.62421 19.3035C4.32022 18.9275 3.68022 18.9275 3.37622 19.3035L0.176258 23.3034C-0.0157396 23.5434 -0.0557393 23.8714 0.0802593 24.1514C0.216258 24.4314 0.496255 24.6074 0.800252 24.6074H3.23223C3.26423 25.4553 3.33623 26.3033 3.46422 27.1353C5.08821 37.2631 13.7201 44.6069 24 44.6069C32.5919 44.6069 40.1758 39.447 43.3358 31.4712C43.3758 31.3752 43.3918 31.2792 43.3918 31.1752C43.3918 30.7272 43.0318 30.3752 42.5918 30.3752V30.3672ZM4.00022 21.0794L5.5362 22.9994H2.46423L4.00022 21.0794Z" fill="#1341AE"/>
</svg>
