<svg width="48" height="48" viewBox="0 0 48 48" fill="none" xmlns="http://www.w3.org/2000/svg">
<g clip-path="url(#clip0_4525_7543)">
<path d="M43.108 42.2161H12.8537C8.95518 42.2161 5.78394 39.0448 5.78394 35.1463C5.78394 31.2478 8.95518 28.0766 12.8537 28.0766H35.1463C40.0284 28.0766 44 24.105 44 19.2229C44 14.3409 40.0284 10.3692 35.1463 10.3692H24.8376C24.3957 6.78472 21.3327 4 17.6305 4H11.2612C10.7688 4 10.3692 4.3996 10.3692 4.89197V7.18492H4.89197C4.3996 7.18492 4 7.58452 4 8.07689C4 8.56925 4.3996 8.96886 4.89197 8.96886H10.3692V13.5542H4.89197C4.3996 13.5542 4 13.9538 4 14.4461C4 14.9385 4.3996 15.3381 4.89197 15.3381H10.3692V17.6311C10.3692 18.1234 10.7688 18.523 11.2612 18.523H17.6305C21.3321 18.523 24.3957 15.7383 24.837 12.1538H35.1457C39.0442 12.1538 42.2155 15.325 42.2155 19.2235C42.2155 23.122 39.0442 26.2932 35.1457 26.2932H12.8537C7.97164 26.2927 4 30.2643 4 35.1463C4 40.0284 7.97164 44 12.8537 44H43.108C43.6004 44 44 43.6004 44 43.108C44 42.6157 43.6004 42.2161 43.108 42.2161ZM17.6305 16.7385H12.1532V5.78394H17.6305C20.6507 5.78394 23.1077 8.24101 23.1077 11.2612C23.1077 14.2814 20.6507 16.7385 17.6305 16.7385Z" fill="#1341AE"/>
</g>
<defs>
<clipPath id="clip0_4525_7543">
<rect width="40" height="40" fill="white" transform="translate(4 4)"/>
</clipPath>
</defs>
</svg>
