<svg width="48" height="48" viewBox="0 0 48 48" fill="none" xmlns="http://www.w3.org/2000/svg">
<g clip-path="url(#clip0_4525_7533)">
<g clip-path="url(#clip1_4525_7533)">
<path d="M39.6093 24.8906C39.224 24.8906 38.9109 25.2038 38.9109 25.5891C38.9109 26.0784 38.5134 26.4759 38.024 26.4759C37.5346 26.4759 37.1371 26.0784 37.1371 25.5891C37.1371 25.2028 36.824 24.8906 36.4387 24.8906C36.0534 24.8906 35.7402 25.2038 35.7402 25.5891C35.7402 26.8481 36.7649 27.8728 38.024 27.8728C39.283 27.8728 40.3077 26.8481 40.3077 25.5891C40.3077 25.2028 39.9946 24.8906 39.6093 24.8906Z" fill="#1341AE"/>
<path d="M46.1663 25.0041L44.2004 24.3741C43.9482 24.2934 43.7504 24.0919 43.6698 23.8359C43.2554 22.5187 42.6301 21.2812 41.8107 20.16C41.4376 19.6481 41.0223 19.1606 40.5695 18.6956C40.8591 17.4234 41.0176 15.9834 40.997 14.7384C40.9679 12.9581 40.6116 11.9147 39.9095 11.5472C39.5307 11.3484 38.3795 10.7466 32.1488 13.5984C32.0016 13.6659 31.8638 13.7494 31.7363 13.8441C31.3163 13.7316 30.887 13.6266 30.4548 13.5328C30.4032 13.5216 30.3488 13.5112 30.2963 13.5C30.8016 12.3966 31.096 11.1994 31.1513 9.96188C31.1682 9.57656 30.8701 9.25031 30.4848 9.2325C30.1004 9.21375 29.7732 9.51375 29.7554 9.89906C29.6645 11.9325 28.8207 13.8459 27.3807 15.2869C26.5201 16.1475 25.5123 16.7728 24.4379 17.1666C22.5751 16.905 20.6776 16.905 18.8148 17.1666C17.7404 16.7728 16.7326 16.1475 15.872 15.2869C14.3354 13.7503 13.4888 11.7066 13.4888 9.5325C13.4888 7.35844 14.3354 5.31562 15.872 3.77812C17.4085 2.24062 19.4523 1.395 21.6263 1.395C23.8004 1.395 25.8432 2.24156 27.3807 3.77812C27.9985 4.39594 28.5085 5.10094 28.8976 5.8725C29.071 6.2175 29.491 6.35625 29.836 6.18188C30.181 6.00844 30.3188 5.58844 30.1454 5.24344C29.6898 4.33781 29.0916 3.51188 28.3688 2.78906C26.5679 0.991875 24.1735 0 21.6263 0C19.0791 0 16.6848 0.991875 14.8848 2.79281C13.0838 4.59375 12.092 6.98812 12.092 9.53437C12.092 12.0806 13.0838 14.4759 14.8848 16.2759C15.4041 16.7953 15.9695 17.2425 16.5676 17.6166C16.1335 17.7291 15.7023 17.8566 15.2757 17.9991C14.9101 18.1209 14.7123 18.5175 14.8351 18.8831C14.957 19.2487 15.3535 19.4466 15.7191 19.3247C19.5291 18.0506 23.7254 18.0506 27.5345 19.3247C27.6076 19.3491 27.6826 19.3613 27.7557 19.3613C28.0482 19.3613 28.3201 19.1766 28.4185 18.8841C28.5404 18.5184 28.3435 18.1228 27.9779 18C27.5513 17.8575 27.121 17.7309 26.686 17.6175C27.2841 17.2434 27.8485 16.7962 28.3688 16.2769C28.8282 15.8175 29.2341 15.315 29.5866 14.7825C29.7788 14.82 29.9701 14.8594 30.1585 14.8997C30.4098 14.9541 30.6591 15.0131 30.9066 15.0741C30.8991 15.1041 30.8907 15.135 30.8841 15.1659C30.5438 16.7822 30.5654 18.2128 30.9498 19.4156C31.2948 20.4975 31.9182 21.3731 32.8023 22.02C33.8438 22.7822 35.101 23.1113 36.241 23.1113C37.0979 23.1113 37.8891 22.9247 38.4695 22.5956C39.1257 22.2234 39.676 21.4397 40.112 20.2631C40.3135 20.4984 40.5038 20.7384 40.6838 20.985C41.4132 21.9834 41.9691 23.085 42.3385 24.2569C42.5551 24.945 43.0923 25.4869 43.7757 25.7063L45.7416 26.3363C46.2573 26.5013 46.6041 26.9766 46.6041 27.5184V30.7781C46.6041 31.32 46.2573 31.7944 45.7416 31.9603L42.5738 32.9747C42.0666 33.1369 41.6382 33.4856 41.3663 33.9553C40.1223 36.1059 38.1648 37.8862 35.5501 39.2456C35.2482 39.4031 35.0391 39.6844 34.9754 40.0172L33.961 45.3891C33.9329 45.5372 33.8035 45.6441 33.6526 45.6441H30.3535C30.2026 45.6441 30.0732 45.5362 30.0451 45.3891L29.4835 42.42C29.3729 41.8359 28.8254 41.4478 28.2357 41.5369C26.8145 41.7516 25.351 41.8603 23.8838 41.8603C22.7926 41.8603 21.7154 41.7994 20.6823 41.6794C20.1104 41.6137 19.5788 42.0028 19.472 42.5672L18.9376 45.3881C18.9095 45.5363 18.7801 45.6431 18.6291 45.6431H15.3301C15.1791 45.6431 15.0498 45.5353 15.0216 45.3853L14.0448 40.3116C13.982 39.9844 13.7766 39.7069 13.4813 39.5484C9.02445 37.1691 6.66852 33.1931 6.66852 28.0519C6.66852 25.4541 7.23664 23.1572 8.35789 21.225C9.40414 19.4212 10.9313 17.9297 12.8982 16.7925C13.232 16.5994 13.3463 16.1719 13.1532 15.8381C12.9601 15.5044 12.5326 15.39 12.1988 15.5831C8.38508 17.7891 6.08539 21.1931 5.45164 25.5159C5.38414 25.5094 5.31664 25.5038 5.25008 25.4972C5.26227 25.0303 5.17789 24.5606 4.99414 24.1031C4.58914 23.0953 3.75664 22.3687 2.87352 22.2506C2.17789 22.1578 1.51508 22.4531 1.0557 23.0606C0.389141 23.9409 0.497891 24.6384 0.706016 25.0678C1.05758 25.7925 1.96227 26.3053 3.4632 26.6278C3.42195 26.6897 3.37695 26.7516 3.32727 26.8144C2.44039 27.9262 1.39602 28.1728 0.717266 28.1953C0.319766 28.2084 0.00195312 28.5272 0.00195312 28.9247V28.9284C0.00195312 29.3203 0.311328 29.64 0.703203 29.6578C0.752891 29.6597 0.805391 29.6616 0.860703 29.6616C1.71945 29.6616 3.09664 29.3447 4.42039 27.6853C4.62945 27.4237 4.79914 27.1472 4.93039 26.8612C5.06258 26.8762 5.18914 26.8894 5.31008 26.9006C5.28664 27.2794 5.27258 27.6637 5.27258 28.0537C5.27258 30.9628 5.96633 33.5559 7.3332 35.7628C8.59414 37.7972 10.3998 39.4631 12.7013 40.7156L13.651 45.6488C13.8038 46.4559 14.5107 47.0419 15.332 47.0419H18.631C19.4523 47.0419 20.1591 46.4559 20.312 45.6488L20.7948 43.0978C21.7979 43.2037 22.8357 43.2581 23.8848 43.2581C25.3248 43.2581 26.7629 43.1578 28.1645 42.96L28.6735 45.6488C28.8263 46.4559 29.5332 47.0419 30.3545 47.0419H33.6535C34.4748 47.0419 35.1816 46.4559 35.3345 45.6488L36.3226 40.4184C39.1135 38.9428 41.2173 37.0041 42.5757 34.6547C42.6741 34.485 42.8241 34.3613 43.0004 34.305L46.1682 33.2906C47.2651 32.9391 48.002 31.9294 48.002 30.7781V27.5184C48.002 26.3672 47.2651 25.3575 46.1682 25.0059L46.1663 25.0041ZM39.4951 16.7025C39.226 19.0022 38.5051 20.9691 37.7804 21.3787C36.9563 21.8456 35.0551 21.9356 33.6273 20.8912C32.1976 19.8459 31.7223 17.9653 32.251 15.4528C32.3045 15.2006 32.4835 14.9822 32.7301 14.8688C36.227 13.2675 38.2435 12.7444 38.9926 12.7444C39.106 12.7444 39.1895 12.7566 39.2457 12.7781C39.4707 13.0181 39.766 14.3812 39.4941 16.7016L39.4951 16.7025ZM1.96133 24.4584C1.88914 24.3094 2.05977 24.0469 2.16758 23.9044C2.33914 23.6775 2.49664 23.6316 2.61664 23.6316C2.64195 23.6316 2.66539 23.6334 2.68695 23.6362C3.00852 23.6794 3.45852 24.0328 3.69664 24.6253C3.75289 24.765 3.82602 24.9956 3.84289 25.2844C2.87633 25.0838 2.12445 24.795 1.96133 24.4584Z" fill="#1341AE"/>
<path d="M22.3054 8.7341V6.23473C23.1679 6.2966 23.4876 6.69035 23.7829 6.69035C24.1523 6.69035 24.3248 6.22254 24.3248 5.98816C24.3248 5.38441 23.1426 5.1266 22.3054 5.10129V4.76848C22.3054 4.62035 22.1207 4.48535 21.936 4.48535C21.727 4.48535 21.5788 4.62035 21.5788 4.76848V5.12566C20.4088 5.24848 19.2388 5.86441 19.2388 7.41598C19.2388 8.96754 20.4707 9.43535 21.5788 9.83004V12.7241C20.3226 12.6257 19.9898 11.7632 19.5838 11.7632C19.2763 11.7632 19.0176 12.17 19.0176 12.4654C19.0176 13.0691 20.0516 13.8941 21.5788 13.9185V14.3C21.5788 14.4482 21.727 14.5832 21.936 14.5832C22.1207 14.5832 22.3054 14.4472 22.3054 14.3V13.881C23.6357 13.6963 24.547 12.8591 24.547 11.3441C24.547 9.66973 23.377 9.12691 22.3054 8.73316V8.7341ZM21.6529 8.50066C21.0004 8.2541 20.4707 7.99535 20.4707 7.2941C20.4707 6.65379 20.9629 6.34629 21.6529 6.26004V8.5016V8.50066ZM22.2313 12.6997V10.101C22.8351 10.3597 23.3151 10.7047 23.3151 11.48C23.3151 12.1822 22.896 12.576 22.2313 12.6997Z" fill="#1341AE"/>
</g>
</g>
<defs>
<clipPath id="clip0_4525_7533">
<rect width="48" height="48" fill="white"/>
</clipPath>
<clipPath id="clip1_4525_7533">
<rect width="48" height="47.0409" fill="white"/>
</clipPath>
</defs>
</svg>
