<svg width="137" height="40" viewBox="0 0 137 40" fill="none" xmlns="http://www.w3.org/2000/svg">
<g id="gizmodo-logo-w">
<g id="Mask group">
<mask id="mask0_5262_5593" style="mask-type:luminance" maskUnits="userSpaceOnUse" x="6" y="10" width="125" height="19">
<g id="Group">
<path id="Vector" d="M130.245 10.459H6.70312V28.1078H130.245V10.459Z" fill="white"/>
</g>
</mask>
<g mask="url(#mask0_5262_5593)">
<g id="Group_2">
<path id="Vector_2" d="M26.9492 26.0004V12.5545C26.9492 11.8562 27.1092 11.332 27.4291 10.983C27.7487 10.6339 28.1627 10.459 28.6696 10.459C29.1925 10.459 29.6155 10.6321 29.9396 10.9773C30.2631 11.3227 30.4255 11.8481 30.4255 12.5545V26.0004C30.4255 26.7065 30.2631 27.2343 29.9396 27.5835C29.6155 27.933 29.1925 28.1077 28.6696 28.1077C28.1701 28.1077 27.7586 27.931 27.4347 27.5778C27.111 27.2246 26.9492 26.6985 26.9492 26.0004Z" fill="white"/>
<path id="Vector_3" d="M121.387 14.0397C118.479 14.0397 116.114 16.3946 116.114 19.2889C116.114 22.1828 118.479 24.5376 121.387 24.5376C124.293 24.5376 126.658 22.1828 126.658 19.2889C126.658 16.3946 124.293 14.0397 121.387 14.0397ZM121.387 28.1076C116.502 28.1076 112.528 24.1513 112.528 19.2889C112.528 14.4258 116.502 10.4697 121.387 10.4697C126.271 10.4697 130.244 14.4258 130.244 19.2889C130.244 24.1513 126.271 28.1076 121.387 28.1076Z" fill="white"/>
<path id="Vector_4" d="M81.6223 14.0397C78.7156 14.0397 76.3505 16.3946 76.3505 19.2889C76.3505 22.1828 78.7156 24.5376 81.6223 24.5376C84.5303 24.5376 86.8945 22.1828 86.8945 19.2889C86.8945 16.3946 84.5303 14.0397 81.6223 14.0397ZM81.6223 28.1076C76.7381 28.1076 72.7646 24.1513 72.7646 19.2889C72.7646 14.4258 76.7381 10.4697 81.6223 10.4697C86.507 10.4697 90.4811 14.4258 90.4811 19.2889C90.4811 24.1513 86.507 28.1076 81.6223 28.1076Z" fill="white"/>
<path id="Vector_5" d="M101.46 24.4946C101.032 24.5224 100.57 24.5272 100.075 24.5272H97.7496V14.0396H100.075C100.57 14.0396 101.032 14.045 101.46 14.0722C102.998 14.2552 104.334 15.0977 105.173 16.3094C105.758 17.153 106.102 18.1728 106.105 19.2728C106.105 19.2757 106.105 19.2785 106.105 19.2815V19.2854C106.105 19.2882 106.105 19.2911 106.105 19.2939C106.102 20.3938 105.758 21.4137 105.173 22.2576C104.334 23.4692 102.998 24.3114 101.46 24.4946ZM109.69 19.2833V19.281C109.69 17.3347 109.052 15.5348 107.976 14.0744C106.412 11.9505 103.918 10.5486 101.095 10.4659C101.008 10.4632 100.921 10.459 100.832 10.459C100.828 10.459 96.3846 10.4647 96.3846 10.4647C95.6246 10.4647 95.0746 10.6369 94.7354 10.9812C94.3946 11.3255 94.2246 11.8819 94.2246 12.651V25.9157C94.2246 26.6847 94.3946 27.241 94.7354 27.5857C95.0746 27.9302 95.6246 28.1022 96.3846 28.1022C96.3846 28.1022 100.828 28.1077 100.832 28.1077C100.921 28.1077 101.008 28.1035 101.095 28.1011C103.918 28.0182 106.412 26.6163 107.976 24.4923C109.052 23.0319 109.69 21.232 109.69 19.2858V19.2833Z" fill="white"/>
<path id="Vector_6" d="M67.7479 10.538C67.1006 10.3378 66.4014 10.5911 66.0243 11.1629L60.6834 19.2627L55.3428 11.1629C54.9662 10.5911 54.2665 10.3378 53.6192 10.538C52.9721 10.7384 52.5303 11.3458 52.5303 12.0342V26.4299C52.5303 27.2937 53.2184 27.9939 54.0666 27.9939C54.9154 27.9939 55.6034 27.2937 55.6034 26.4299V17.1718L59.3954 22.9221C59.3979 22.9261 59.4004 22.9298 59.4029 22.9338L59.4077 22.9407C59.4122 22.9478 59.4176 22.9541 59.4223 22.9612C59.4459 22.9956 59.4703 23.0299 59.4972 23.0627C59.5089 23.0773 59.5212 23.0903 59.5334 23.104C59.5546 23.1282 59.5752 23.1524 59.5978 23.1754C59.618 23.196 59.6397 23.2153 59.6612 23.2351C59.6767 23.2492 59.6922 23.2641 59.7084 23.2778C59.7388 23.3032 59.7695 23.3259 59.8013 23.3483C59.8103 23.3545 59.8183 23.362 59.8274 23.3681C59.8274 23.3681 59.8298 23.3695 59.8314 23.3705C59.8652 23.3933 59.9002 23.4141 59.9359 23.4344C59.9457 23.44 59.9554 23.4467 59.9654 23.4518C59.9919 23.4663 60.0194 23.4783 60.0472 23.4913C60.2026 23.5636 60.3655 23.6088 60.5294 23.6257L60.5327 23.6263C60.5654 23.629 60.5979 23.6297 60.63 23.6311C60.6479 23.6317 60.6659 23.6334 60.6834 23.6334C60.7017 23.6334 60.7192 23.6317 60.7371 23.6311C60.7698 23.6297 60.8021 23.629 60.8346 23.6263L60.8377 23.6257C61.0019 23.6088 61.1647 23.5636 61.3203 23.4913C61.3478 23.4783 61.3755 23.4663 61.4019 23.4518C61.4122 23.4467 61.4214 23.44 61.4317 23.4344C61.4673 23.4141 61.5021 23.3933 61.5359 23.3705C61.5375 23.3695 61.5402 23.3681 61.5402 23.3681C61.5493 23.362 61.5572 23.3545 61.566 23.3483C61.5978 23.3259 61.629 23.3032 61.659 23.2778C61.6754 23.2641 61.6906 23.2492 61.7069 23.2345C61.7278 23.2153 61.7493 23.196 61.7695 23.1758C61.7924 23.1524 61.813 23.1279 61.8342 23.1038C61.8464 23.0903 61.8589 23.0769 61.8703 23.0627C61.897 23.0299 61.9214 22.9956 61.9452 22.9612C61.9499 22.9541 61.9553 22.9478 61.96 22.9407L61.9644 22.9338C61.967 22.9298 61.9694 22.9261 61.9723 22.9221L65.7638 17.1718V26.4299C65.7638 27.2937 66.4514 27.9939 67.301 27.9939C68.1489 27.9939 68.8375 27.2937 68.8375 26.4299V12.0342C68.8375 11.3458 68.3952 10.7384 67.7479 10.538Z" fill="white"/>
<path id="Vector_7" d="M47.3003 27.5714H35.8139C35.2098 27.5714 34.5384 27.1951 34.2898 26.6095C34.041 26.0245 33.9901 25.2278 34.5251 24.593L43.921 13.7391H36.1586C35.31 13.7391 34.6217 13.0074 34.6217 12.1046C34.6217 11.2017 35.31 10.6504 36.1586 10.6504H46.6262C47.2301 10.6504 47.8558 10.7461 48.4023 11.3422C48.9017 11.887 48.8797 13.0627 48.3202 13.7638L39.2418 24.3027H47.3003C48.1491 24.3027 48.767 25.0345 48.767 25.9369C48.767 26.8395 48.1491 27.5714 47.3003 27.5714Z" fill="white"/>
<path id="Vector_8" d="M15.497 28.1081C12.9482 28.1081 10.6366 27.1019 8.98808 25.2749C7.53573 23.6652 6.70312 21.5444 6.70312 19.4559C6.70312 12.902 12.1753 10.4595 15.625 10.4595C19.0165 10.4595 21.5063 12.1153 21.6105 12.1855C22.3743 12.7016 22.5787 13.7444 22.067 14.5146C21.5565 15.2822 20.5273 15.4897 19.7642 14.9795C19.7198 14.9511 17.9536 13.8169 15.625 13.8169C13.4627 13.8169 10.481 15.2376 10.481 19.4559C10.481 21.8556 12.274 24.686 15.5612 24.686C17.4108 24.686 18.7113 24.1954 19.4672 23.7165V21.2206H16.9058C15.9863 21.2206 15.2408 20.4691 15.2408 19.5419C15.2408 18.6148 15.9863 17.8631 16.9058 17.8631H21.1322C22.0515 17.8631 22.7969 18.6148 22.7969 19.5419V24.535C22.7969 24.9891 22.6145 25.4234 22.2917 25.7397C21.1754 26.8321 18.7263 28.1081 15.497 28.1081Z" fill="white"/>
</g>
</g>
</g>
</g>
</svg>
