<svg width="100" height="40" viewBox="0 0 100 40" fill="none" xmlns="http://www.w3.org/2000/svg">
<g id="logo-Wired-w">
<path id="Vector" d="M79.4665 13.9177V26.1257H85.2567C86.8742 26.1257 87.8108 25.8603 88.4917 25.241C89.3433 24.4449 89.7692 23.0295 89.7692 20.0217C89.7692 17.014 89.3433 15.5985 88.4917 14.8024C87.8108 14.1831 86.8742 13.9177 85.2567 13.9177H79.4665ZM87.385 20.0217C87.385 22.6756 87.215 23.2949 86.7042 23.6487C86.3633 23.914 85.9375 24.0025 85.0858 24.0025H81.8506V15.9524H85.0858C85.9375 15.9524 86.3633 15.9524 86.7042 16.3062C87.215 16.7485 87.385 17.3678 87.385 20.0217ZM92.7492 28.8241H75.7623V11.1753H92.7492V28.8241ZM61.8842 15.9524V13.9177H71.9314V17.8101H69.8021V15.9524H65.7151V18.8716H68.9506V20.8179H65.7151V24.091H69.8879V21.9679H72.0158V26.1257H61.8848V24.091H63.5019V15.9524H61.8842ZM52.7735 22.941C52.7735 24.268 52.858 25.241 53.0283 26.0372H55.3279C55.2421 25.418 55.1576 24.268 55.1576 22.764C55.0718 20.9948 54.5609 20.7294 53.3688 20.464C54.7312 20.1986 55.3279 19.5794 55.3279 17.3678C55.3279 15.5985 55.0718 14.8908 54.5609 14.4485C54.2203 14.0946 53.625 13.9177 52.6877 13.9177H45.5354V26.1257H47.9195V21.3486H51.2409C51.9221 21.3486 52.1768 21.4371 52.4329 21.614C52.6891 21.791 52.7735 22.0564 52.7735 22.941ZM47.9195 19.4025V16.0408H51.7518C52.2627 16.0408 52.4329 16.1293 52.5174 16.2178C52.6877 16.3947 52.858 16.66 52.858 17.7216C52.858 18.7832 52.6877 19.137 52.5174 19.314C52.4329 19.4025 52.2627 19.4909 51.7518 19.4909L47.9195 19.4025ZM58.7338 28.8241H41.7045V11.1753H58.6908V28.8241H58.7338ZM37.2769 24.091V26.1257H29.1873V24.091H32.0823V15.9524H29.1873V13.9177H37.2763V15.9524H34.3813V24.091H37.2769ZM23.6106 13.9177H21.3968L19.7791 23.5602L17.9058 14.6254C17.8207 14.0061 17.5653 13.9177 17.0543 13.9177H15.8623C15.3514 13.9177 15.096 14.0946 15.0108 14.6254L13.1377 23.5602L11.5198 13.9177H9.13578L11.4348 25.5065C11.5198 26.0372 11.6902 26.1257 12.2862 26.1257H13.904C14.4148 26.1257 14.5852 26.0372 14.7554 25.5065L16.5435 17.1024L18.3316 25.5065C18.4167 26.0372 18.587 26.1257 19.183 26.1257H20.7157C21.2265 26.1257 21.482 26.0372 21.5671 25.5065L23.6106 13.9177ZM24.8027 28.8241H7.77344V11.1753H24.7604V28.8241H24.8027Z" fill="white"/>
</g>
</svg>
