<svg width="120" height="40" viewBox="0 0 120 40" fill="none" xmlns="http://www.w3.org/2000/svg">
<g id="logo-The-Verge-w 1">
<g id="Mask group">
<mask id="mask0_5262_5607" style="mask-type:luminance" maskUnits="userSpaceOnUse" x="7" y="10" width="107" height="20">
<g id="Group">
<path id="Vector" d="M113.154 10.834H7.32129V29.1673H113.154V10.834Z" fill="white"/>
</g>
</mask>
<g mask="url(#mask0_5262_5607)">
<g id="Group_2">
<path id="Vector_2" d="M7.32129 10.8928V15.7969H10.6037V28.7281H16.1517V10.8928M25.5197 17.6707H22.9234V15.7884H24.2298V10.8928H17.3837V28.7281H22.9234V21.9839H25.5197V28.7281H31.0759V10.8928H25.5197M32.2913 28.7281H42.5687V23.8155H37.5912V21.7391H40.758V17.6707H37.5912V15.7969H42.5687V10.8928H32.2913M86.2662 16.9279C86.2662 13.0789 83.4803 10.8928 79.5277 10.8928H73.3513V28.7196H78.8993V24.1532L82.0743 28.7196H88.3337L83.8353 21.8826C85.4561 20.9794 86.2662 19.3335 86.2662 16.9279ZM78.8828 18.903V15.5859C79.6517 15.5859 80.5943 15.8222 80.8755 16.6831C80.9002 16.7591 80.9168 16.8435 80.9416 16.9279C80.9416 16.9364 80.9416 16.9532 80.9499 16.9617C80.9582 17.0461 80.9746 17.1474 80.9746 17.2486C80.9746 18.5739 79.7923 18.903 78.8828 18.903ZM53.5572 21.756H53.5076L53.1107 20.2874L51.8705 15.8053H54.0533L55.492 10.8928H44.4126L50.7626 28.7196H56.4511L57.1374 26.812C57.1374 26.812 60.1801 18.3882 61.842 13.7964V28.7196H72.1194V23.8071H67.1419V21.7307H70.3004V17.6707H67.1419V15.7969H72.1194V10.8843H56.7653L53.5572 21.756ZM113.154 15.8053V10.9012H102.877V28.7281H113.154V23.8155H108.169V21.7391H111.335V17.6876H108.169V15.8053" fill="white"/>
<path id="Vector_3" d="M101.812 24.9888V17.7213H93.9727V21.7729H96.8911V23.2162C96.6686 23.4188 96.1886 23.5285 95.6927 23.5285C93.6586 23.5285 92.1536 21.891 92.1536 19.8905C92.1536 17.8901 93.6169 16.1175 95.6511 16.1175C96.8827 16.1175 99.8019 16.1259 99.8019 16.1259V10.842H98.4702C95.9902 10.842 93.5177 10.6394 91.2444 11.8381C89.4502 12.7834 88.0277 14.3872 87.2752 16.2948C86.8369 17.4174 86.6152 18.6329 86.6152 19.8399C86.6152 24.8959 90.5002 29.1585 95.5352 29.1585C98.0327 29.1585 100.472 28.2047 101.803 27.0145C101.811 25.7822 101.812 25.5965 101.812 24.9888Z" fill="white"/>
</g>
</g>
</g>
</g>
</svg>
