<svg width="128" height="128" viewBox="0 0 128 128" fill="none" xmlns="http://www.w3.org/2000/svg">
<g clip-path="url(#clip0_5754_10629)">
<path d="M127.608 65.3857L125.23 62.8261C124.733 62.2914 124.703 61.4729 125.16 60.9035L127.347 58.1738C127.855 57.5397 127.753 56.6133 127.119 56.105L124.394 53.9191C123.825 53.4623 123.676 52.6574 124.045 52.0273L125.812 49.0079C126.222 48.3065 125.987 47.405 125.286 46.9943L122.272 45.2286C121.642 44.8596 121.378 44.0847 121.651 43.4077L122.959 40.1631C123.263 39.4094 122.899 38.5518 122.146 38.2475L118.907 36.9397C118.23 36.6665 117.856 35.9384 118.028 35.2285L118.85 31.8281C119.041 31.0382 118.556 30.2427 117.767 30.0515L114.372 29.2294C113.663 29.0575 113.187 28.3915 113.253 27.6648L113.572 24.1807C113.646 23.3713 113.051 22.6549 112.242 22.5807L108.764 22.2618C108.037 22.1952 107.469 21.6057 107.429 20.8768L107.238 17.3835C107.193 16.572 106.5 15.9499 105.688 15.9945L102.201 16.1858C101.473 16.2256 100.825 15.7253 100.68 15.01L99.9818 11.5818C99.8198 10.7853 99.043 10.2711 98.2469 10.4335L94.8245 11.1309C94.1096 11.2764 93.3961 10.876 93.1477 10.1892L91.9584 6.8992C91.6823 6.13486 90.839 5.73916 90.075 6.01564L86.7909 7.20421C86.1048 7.45253 85.3405 7.15995 84.9952 6.51703L83.34 3.43515C82.9553 2.71909 82.0637 2.45065 81.348 2.83538L78.2716 4.48987C77.629 4.83547 76.8303 4.65737 76.3947 4.0715L74.3087 1.26391C73.8241 0.611474 72.9029 0.475794 72.2508 0.960732L69.448 3.04567C68.8625 3.48123 68.0462 3.42162 67.5305 2.90523L65.0583 0.431177C64.4838 -0.143726 63.5527 -0.143726 62.9781 0.431177L60.5085 2.90231C59.9924 3.4187 59.1765 3.47831 58.591 3.04274L55.7853 0.955246C55.1332 0.470309 54.212 0.605989 53.7274 1.25842L51.6435 4.06309C51.2083 4.64896 50.4096 4.82706 49.7667 4.48146L46.687 2.82514C45.9713 2.44041 45.0797 2.70885 44.695 3.42491L43.0416 6.50313C42.6964 7.14606 41.932 7.43863 41.2459 7.19031L37.9582 6.00028C37.1942 5.7238 36.3512 6.1195 36.0747 6.88384L34.8869 10.1701C34.6386 10.8566 33.9251 11.2574 33.2101 11.1119L29.7841 10.4137C28.9883 10.2513 28.2115 10.7655 28.0491 11.5621L27.3521 14.9866C27.2065 15.7019 26.5588 16.2026 25.8303 16.1624L22.3392 15.9707C21.5281 15.9261 20.8347 16.5482 20.7901 17.3597L20.5988 20.8494C20.5589 21.5782 19.991 22.1678 19.2643 22.2343L15.7823 22.5532C14.9734 22.6275 14.3776 23.3435 14.4519 24.1532L14.7704 27.6334C14.837 28.3604 14.3608 29.0264 13.6517 29.1979L10.2535 30.0208C9.46389 30.212 8.97895 31.0075 9.16986 31.7974L9.99125 35.1942C10.1628 35.9036 9.78865 36.6318 9.11207 36.9053L5.86965 38.2146C5.11628 38.5189 4.75203 39.3765 5.0563 40.1302L6.36337 43.3708C6.63656 44.0477 6.37214 44.8227 5.74275 45.1917L2.72561 46.9595C2.02453 47.3702 1.78901 48.2717 2.19934 48.9732L3.96391 51.9889C4.33255 52.619 4.18408 53.4239 3.61466 53.8807L0.886795 56.0691C0.253012 56.5775 0.151344 57.5038 0.659321 58.138L2.8441 60.8647C3.30051 61.4342 3.27052 62.2526 2.77388 62.7873L0.393446 65.3499C-0.159514 65.9452 -0.125502 66.8764 0.469515 67.43L3.02769 69.8094C3.56199 70.3064 3.65159 71.1205 3.23797 71.7217L1.2558 74.6039C0.795366 75.2735 0.964326 76.19 1.63358 76.6508L4.51066 78.6319C5.11153 79.0459 5.31852 79.838 4.99706 80.4934L3.45557 83.6334C3.09754 84.363 3.39815 85.2447 4.12702 85.6031L7.26156 87.1439C7.91656 87.4657 8.23655 88.2194 8.01347 88.9147L6.94522 92.246C6.6969 93.0198 7.12296 93.8485 7.89644 94.0972L11.2219 95.1651C11.9167 95.3882 12.3428 96.0871 12.2236 96.8075L11.6512 100.259C11.5185 101.061 12.0601 101.819 12.8614 101.952L16.3068 102.524C17.0265 102.644 17.5498 103.273 17.5367 104.003L17.4727 107.501C17.4577 108.314 18.1043 108.985 18.9165 108.999L22.4083 109.063C23.1379 109.076 23.7472 109.623 23.8401 110.347L24.2859 113.817C24.3894 114.623 25.1267 115.193 25.9324 115.089L29.3964 114.644C30.1202 114.551 30.8026 115.003 31.0001 115.705L31.9462 119.074C32.166 119.856 32.9782 120.312 33.7601 120.092L37.1221 119.146C37.8247 118.949 38.5656 119.296 38.8629 119.963L40.2889 123.158C40.6202 123.9 41.4899 124.233 42.2315 123.901L45.4202 122.476C46.0865 122.178 46.8699 122.414 47.2612 123.03L49.1369 125.983C49.5729 126.669 50.4817 126.872 51.1674 126.435L54.1147 124.561C54.7305 124.169 55.5399 124.288 56.0168 124.841L58.3021 127.489C58.8331 128.104 59.7617 128.172 60.3768 127.641L63.0202 125.356C63.5724 124.879 64.3905 124.879 64.9427 125.356L67.5891 127.643C68.2038 128.174 69.1327 128.106 69.6638 127.491L71.9465 124.846C72.4234 124.294 73.2331 124.175 73.8486 124.566L76.7992 126.443C77.4849 126.879 78.3937 126.676 78.8297 125.991L80.7032 123.041C81.0945 122.425 81.8782 122.189 82.5442 122.487L85.7365 123.914C86.4782 124.245 87.3479 123.912 87.6792 123.17L89.1037 119.98C89.4014 119.313 90.1423 118.965 90.8445 119.163L94.2105 120.109C94.9924 120.329 95.8046 119.873 96.0244 119.091L96.9694 115.727C97.1669 115.024 97.8494 114.572 98.5731 114.665L102.041 115.111C102.846 115.215 103.584 114.645 103.687 113.839L104.133 110.373C104.226 109.649 104.835 109.102 105.565 109.089L109.061 109.025C109.873 109.01 110.519 108.339 110.505 107.527L110.441 104.033C110.428 103.303 110.951 102.673 111.671 102.554L115.12 101.981C115.921 101.848 116.463 101.09 116.33 100.288L115.758 96.8408C115.639 96.1207 116.065 95.4215 116.76 95.1987L120.089 94.1297C120.863 93.8814 121.288 93.0527 121.04 92.2785L119.973 88.9509C119.75 88.2556 120.071 87.5023 120.725 87.1801L123.863 85.6375C124.593 85.2791 124.893 84.397 124.535 83.6678L122.995 80.531C122.673 79.8757 122.88 79.0835 123.481 78.6695L126.362 76.6863C127.031 76.2255 127.2 75.309 126.739 74.6394L124.759 71.7605C124.346 71.1592 124.435 70.3452 124.97 69.8481L127.531 67.4662C128.126 66.9129 128.16 65.9814 127.607 65.3861L127.608 65.3857Z" fill="#1341AE"/>
<path d="M99.4081 86L100.869 90.495H105.595L101.771 93.273L103.232 97.7676L99.4081 94.9896L95.5846 97.7676L97.0452 93.273L93.2217 90.495H97.9478L99.4081 86Z" fill="white"/>
<path d="M29.596 86L31.0566 90.495H35.7828L31.9592 93.273L33.4195 97.7676L29.596 94.9896L25.7724 97.7676L27.2327 93.273L23.4092 90.495H28.1357L29.596 86Z" fill="white"/>
<path d="M64.0029 98.6705C83.0922 98.6705 98.5672 83.1855 98.5672 64.0838C98.5672 44.9821 83.0922 29.4971 64.0029 29.4971C44.9135 29.4971 29.4385 44.9821 29.4385 64.0838C29.4385 83.1855 44.9135 98.6705 64.0029 98.6705Z" fill="white"/>
<path d="M64.0019 9.79898C67.6839 9.79898 71.363 10.1702 74.9368 10.902C78.4187 11.6148 81.8437 12.679 85.1168 14.0639C88.3307 15.424 91.4309 17.1078 94.3306 19.0684C97.2037 21.0107 99.9052 23.2412 102.361 25.698C104.816 28.1549 107.045 30.8586 108.986 33.7335C110.945 36.6355 112.628 39.7375 113.988 42.9539C115.372 46.2289 116.435 49.6564 117.148 53.1409C117.879 56.7172 118.25 60.3988 118.25 64.0838C118.25 67.7687 117.879 71.45 117.148 75.0267C116.435 78.5112 115.372 81.9387 113.988 85.2137C112.628 88.4297 110.946 91.5321 108.986 94.434C107.045 97.3089 104.816 100.012 102.361 102.47C99.9052 104.926 97.2033 107.157 94.3306 109.099C91.4305 111.06 88.3307 112.744 85.1168 114.104C81.844 115.489 78.4191 116.553 74.9368 117.266C71.363 117.997 67.6839 118.369 64.0019 118.369C60.3199 118.369 56.6408 117.997 53.0671 117.266C49.5851 116.552 46.1602 115.489 42.887 114.104C39.6731 112.744 36.573 111.06 33.6732 109.099C30.8002 107.157 28.0987 104.926 25.6432 102.47C23.1878 100.013 20.9588 97.3089 19.0176 94.434C17.0585 91.5321 15.3755 88.4301 14.0161 85.2137C12.6319 81.9383 11.5684 78.5112 10.856 75.0267C10.1245 71.4504 9.75369 67.7687 9.75369 64.0838C9.75369 60.3988 10.1245 56.7176 10.856 53.1409C11.5684 49.6564 12.6319 46.2289 14.0161 42.9539C15.3755 39.7378 17.0581 36.6355 19.0176 33.7335C20.9584 30.8586 23.1878 28.1553 25.6432 25.698C28.0987 23.2412 30.8002 21.0103 33.6732 19.0684C36.5733 17.1078 39.6731 15.424 42.887 14.0639C46.1598 12.6786 49.5847 11.6148 53.0671 10.902C56.6408 10.1702 60.3199 9.79898 64.0019 9.79898ZM64.0019 7.66577C32.8632 7.66577 7.62012 32.9249 7.62012 64.0838C7.62012 95.2426 32.8632 120.502 64.0019 120.502C95.1407 120.502 120.384 95.2426 120.384 64.0838C120.384 32.9249 95.1407 7.66577 64.0019 7.66577Z" fill="white"/>
<path d="M43.0335 74.6588H39.3636V57.2566H35.6436V54.2644L43.0335 53.5092V74.6591V74.6588Z" fill="#1341AE"/>
<path d="M58.4898 66.4224C58.4898 69.2212 57.9346 71.3445 56.8247 72.792C55.7144 74.2399 54.2124 74.9636 52.3191 74.9636C50.4258 74.9636 48.8964 74.2399 47.782 72.792C46.6677 71.3445 46.1104 69.2212 46.1104 66.4224V61.7595C46.1104 58.9706 46.6655 56.8476 47.7758 55.3899C48.8858 53.9325 50.3918 53.2036 52.2938 53.2036C54.1959 53.2036 55.6935 53.9325 56.8122 55.3899C57.931 56.8476 58.4901 58.9706 58.4901 61.7595V66.4224H58.4898ZM54.8326 61.3192C54.8326 59.6457 54.6147 58.4191 54.1791 57.6401C53.7432 56.8615 53.1149 56.472 52.2938 56.472C51.4728 56.472 50.8361 56.8589 50.4086 57.6328C49.9814 58.4066 49.7675 59.6354 49.7675 61.3188V66.8188C49.7675 68.5219 49.9833 69.7602 50.4148 70.5341C50.8463 71.3079 51.4809 71.6952 52.3187 71.6952C53.1566 71.6952 53.764 71.3083 54.1915 70.5341C54.6187 69.7602 54.8326 68.5219 54.8326 66.8188V61.3188V61.3192Z" fill="#1341AE"/>
<path d="M73.2574 66.4224C73.2574 69.2212 72.7022 71.3445 71.5923 72.792C70.482 74.2399 68.98 74.9636 67.0867 74.9636C65.1934 74.9636 63.6639 74.2399 62.5496 72.792C61.4353 71.3445 60.8779 69.2212 60.8779 66.4224V61.7595C60.8779 58.9706 61.4331 56.8476 62.5434 55.3899C63.6533 53.9325 65.1593 53.2036 67.0614 53.2036C68.9635 53.2036 70.4611 53.9325 71.5798 55.3899C72.6985 56.8476 73.2577 58.9706 73.2577 61.7595V66.4224H73.2574ZM69.5998 61.3192C69.5998 59.6457 69.3819 58.4191 68.9463 57.6401C68.5108 56.8615 67.8821 56.472 67.0611 56.472C66.24 56.472 65.6033 56.8589 65.1758 57.6328C64.7487 58.4066 64.5347 59.6354 64.5347 61.3188V66.8188C64.5347 68.5219 64.7505 69.7602 65.182 70.5341C65.6136 71.3079 66.2481 71.6952 67.0859 71.6952C67.9238 71.6952 68.5312 71.3083 68.9588 70.5341C69.3859 69.7602 69.5995 68.5219 69.5995 66.8188V61.3188L69.5998 61.3192Z" fill="#1341AE"/>
<path d="M75.6455 57.5761C75.6455 56.3268 75.9951 55.286 76.6951 54.4529C77.3947 53.6202 78.3686 53.2036 79.6172 53.2036C80.8657 53.2036 81.8627 53.6176 82.5582 54.4456C83.2535 55.2736 83.6013 56.3173 83.6013 57.5761V58.6944C83.6013 59.9437 83.2535 60.9802 82.5582 61.803C81.8627 62.6262 80.8909 63.0377 79.6424 63.0377C78.3939 63.0377 77.4053 62.6262 76.7013 61.803C75.9973 60.9802 75.6455 59.9437 75.6455 58.6944V57.5761ZM78.0837 58.6944C78.0837 59.2562 78.2176 59.7283 78.486 60.1109C78.7541 60.4934 79.1395 60.6847 79.6424 60.6847C80.1453 60.6847 80.5033 60.4934 80.7673 60.1109C81.0314 59.7283 81.1634 59.2562 81.1634 58.6944V57.5761C81.1634 57.0147 81.0292 56.5375 80.7611 56.1454C80.4927 55.7534 80.1116 55.557 79.6175 55.557C79.1235 55.557 78.7442 55.753 78.4802 56.1454C78.2161 56.5375 78.0841 57.0147 78.0841 57.5761V58.6944H78.0837ZM80.2455 73.0751L78.4608 71.9856L87.3966 55.4549L89.1813 56.5444L80.2455 73.0751ZM84.393 69.4724C84.393 68.233 84.7448 67.1969 85.4488 66.3638C86.1525 65.5311 87.1286 65.1146 88.3771 65.1146C89.6257 65.1146 90.612 65.5286 91.3116 66.3565C92.0112 67.1845 92.3612 68.2231 92.3612 69.4724V70.5908C92.3612 71.8499 92.0134 72.8907 91.3182 73.714C90.6226 74.5372 89.6509 74.9486 88.4024 74.9486C87.1538 74.9486 86.1631 74.5346 85.4551 73.7067C84.747 72.8787 84.393 71.84 84.393 70.5908V69.4724ZM86.8312 70.5908C86.8312 71.1426 86.9757 71.6148 87.265 72.0072C87.5539 72.3996 87.9331 72.5956 88.4024 72.5956C88.9469 72.5956 89.3364 72.4142 89.5712 72.0511C89.8056 71.6879 89.923 71.2011 89.923 70.5911V69.4728C89.923 68.9209 89.7888 68.4488 89.5207 68.0564C89.2523 67.6643 88.8712 67.4679 88.3771 67.4679C87.883 67.4679 87.491 67.664 87.227 68.0564C86.9629 68.4488 86.8312 68.9205 86.8312 69.4728V70.5911V70.5908Z" fill="#1341AE"/>
<path d="M20.8435 77.9135C20.6545 78.0512 20.4991 78.2045 20.3773 78.3734C20.2525 78.5434 20.1628 78.7284 20.108 78.9286C20.0492 79.1269 20.0264 79.3383 20.0395 79.5629C20.0515 79.7845 20.1018 80.0168 20.1904 80.2597C20.3559 80.7136 20.6141 81.0715 20.9651 81.3334C21.315 81.5923 21.7402 81.7387 22.2406 81.7725C22.7381 81.8073 23.2963 81.7119 23.915 81.4863C24.5338 81.2607 25.0258 80.9748 25.391 80.6287C25.7562 80.2826 25.9903 79.8959 26.0932 79.4686C26.1933 79.0422 26.158 78.5949 25.9872 78.1265C25.8322 77.7014 25.6247 77.3659 25.3647 77.1201C25.1008 76.8723 24.801 76.7196 24.4655 76.6617C24.1289 76.601 23.7712 76.6397 23.3924 76.7778L23.3096 76.3756L24.1446 78.6656L22.7306 79.1811L21.3754 75.4642L22.4944 75.0562C23.2751 74.7715 24.006 74.6918 24.6871 74.8169C25.3654 74.943 25.9617 75.2399 26.4762 75.7075C26.9877 76.1762 27.3795 76.7835 27.6515 77.5295C27.9551 78.3622 28.0382 79.1607 27.9008 79.9249C27.7605 80.6902 27.415 81.3731 26.8641 81.9736C26.3093 82.5723 25.5634 83.0424 24.6266 83.384C23.9066 83.6465 23.2268 83.7764 22.587 83.7738C21.9434 83.7694 21.3558 83.6494 20.8245 83.414C20.2932 83.1786 19.8331 82.8468 19.4444 82.4185C19.0557 81.9903 18.7543 81.4826 18.5403 80.8957C18.3568 80.3926 18.2598 79.8973 18.2491 79.4098C18.2356 78.9234 18.3006 78.4639 18.4444 78.0315C18.587 77.5962 18.803 77.2047 19.0922 76.8568C19.3785 76.51 19.7303 76.2261 20.1477 76.0052L20.8435 77.9135ZM25.9295 72.6679L16.5582 73.9197L15.7147 67.6051L17.3483 67.3869L17.9271 71.7202L20.1601 71.4219L19.6247 67.4135L21.2582 67.1952L21.7937 71.2037L24.0313 70.9048L23.45 66.5532L25.0835 66.3349L25.9295 72.6679ZM25.0788 65.1712L15.6361 64.6985L15.736 62.7021L23.5327 63.0924L23.7354 59.0442L25.3814 59.1266L25.0788 65.1712ZM26.4325 54.9843L25.5925 58.2289L16.4397 55.8593L17.2866 52.5879C17.525 51.6673 17.9134 50.9222 18.4519 50.3526C18.9874 49.7823 19.6426 49.4067 20.4174 49.2258C21.193 49.042 22.0561 49.0731 23.0065 49.3191C23.9599 49.566 24.7326 49.9583 25.3245 50.4963C25.9172 51.0312 26.31 51.6813 26.5029 52.4466C26.6966 53.2088 26.6731 54.0547 26.4325 54.9843ZM24.4354 55.8645L24.7536 54.6355C24.9017 54.0635 24.925 53.5561 24.8234 53.1133C24.7197 52.6668 24.4787 52.2897 24.1006 51.982C23.7203 51.6705 23.189 51.4264 22.5067 51.2498C21.8303 51.0747 21.2518 51.0314 20.7711 51.12C20.2911 51.2055 19.8994 51.4173 19.5957 51.7551C19.2921 52.093 19.0662 52.5479 18.9181 53.12L18.5987 54.3534L24.4354 55.8645ZM24.8965 43.2101L26.3073 43.8766L24.4655 47.7753L23.0547 47.1088L24.8965 43.2101ZM30.5052 44.5283L29.5386 43.8404L26.8807 36.1579L24.1397 40.0094L22.7969 39.0538L26.9942 33.1562L27.9608 33.8442L30.616 41.5304L33.3597 37.6752L34.7024 38.6308L30.5052 44.5283ZM33.503 26.8982L34.9883 25.5605L39.0972 30.123C39.5585 30.6353 39.8398 31.1937 39.9411 31.7983C40.0447 32.4008 39.9749 33.0062 39.7317 33.6146C39.4864 34.2206 39.0733 34.7852 38.4924 35.3084C37.9093 35.8336 37.3035 36.1865 36.6752 36.3672C36.0447 36.5456 35.4353 36.5518 34.8469 36.3859C34.2585 36.22 33.7336 35.8809 33.2723 35.3687L29.1635 30.8062L30.6488 29.4685L34.6433 33.9041C34.8843 34.1716 35.1568 34.357 35.4609 34.46C35.7672 34.5611 36.0814 34.5742 36.4035 34.4995C36.7256 34.4249 37.0295 34.2588 37.3154 34.0014C37.6036 33.7419 37.8004 33.4569 37.906 33.1464C38.0139 32.8339 38.0324 32.5211 37.9617 32.2079C37.8932 31.8927 37.7384 31.6013 37.4975 31.3337L33.503 26.8982ZM42.3357 31.9053L37.6706 23.6818L40.915 21.8413C41.5361 21.489 42.1291 21.2994 42.6942 21.2725C43.2604 21.2414 43.7733 21.3627 44.2328 21.6363C44.6935 21.9057 45.0779 22.3122 45.3862 22.8556C45.696 23.4017 45.8447 23.9383 45.8324 24.4654C45.8185 24.9899 45.6473 25.4833 45.3187 25.9457C44.9928 26.4066 44.514 26.8162 43.8822 27.1746L41.7099 28.407L40.9172 27.0096L42.8085 25.9367C43.1404 25.7484 43.3903 25.5465 43.5582 25.331C43.726 25.1154 43.8119 24.8863 43.8157 24.6435C43.8222 24.3992 43.7487 24.1419 43.5954 23.8715C43.4405 23.5985 43.255 23.3994 43.0389 23.2743C42.8256 23.1476 42.5804 23.0991 42.3036 23.1288C42.0279 23.1543 41.7227 23.2619 41.3881 23.4518L40.2156 24.1169L44.0744 30.9189L42.3357 31.9053ZM44.6537 25.6436L48.8205 28.2265L46.9012 29.3153L42.7786 26.7074L44.6537 25.6436ZM52.3023 17.3147L54.2142 16.7316L56.0054 22.6044C56.2065 23.2638 56.225 23.8888 56.0608 24.4795C55.8996 25.0692 55.5801 25.5881 55.1022 26.0363C54.6235 26.4816 54.0102 26.8182 53.2625 27.0463C52.5118 27.2752 51.8136 27.3386 51.1679 27.2363C50.5212 27.131 49.9664 26.8787 49.5036 26.4794C49.0407 26.08 48.7087 25.5506 48.5076 24.8912L46.7164 19.0183L48.6284 18.4352L50.3697 24.1446C50.4748 24.4891 50.6432 24.7723 50.8751 24.9944C51.1098 25.2156 51.3889 25.3606 51.7123 25.4292C52.0357 25.4979 52.3814 25.4762 52.7494 25.3639C53.1203 25.2508 53.4193 25.0759 53.6464 24.8394C53.8764 24.6019 54.0257 24.3263 54.0941 24.0127C54.1655 23.6981 54.1486 23.3686 54.0436 23.0242L52.3023 17.3147ZM48.8357 17.3584C48.5826 17.4356 48.3378 17.4137 48.1014 17.2928C47.8641 17.1689 47.7082 16.9848 47.6337 16.7404C47.5574 16.4902 47.584 16.2504 47.7136 16.0211C47.8431 15.7917 48.0345 15.6384 48.2876 15.5612C48.5437 15.4831 48.7866 15.504 49.0162 15.6238C49.2487 15.7427 49.4032 15.9273 49.4795 16.1775C49.554 16.4218 49.5288 16.6612 49.404 16.8955C49.2813 17.126 49.0918 17.2803 48.8357 17.3584ZM51.5381 16.5342C51.285 16.6114 51.0402 16.5895 50.8038 16.4686C50.5665 16.3447 50.4106 16.1606 50.3361 15.9162C50.2598 15.666 50.2864 15.4262 50.4159 15.1969C50.5455 14.9675 50.7368 14.8142 50.99 14.737C51.2461 14.6589 51.489 14.6798 51.7186 14.7996C51.9511 14.9185 52.1055 15.1031 52.1819 15.3533C52.2564 15.5976 52.2312 15.837 52.1064 16.0713C51.9837 16.3018 51.7942 16.4561 51.5381 16.5342ZM66.1236 18.9451L64.1056 19.0725C64.0523 18.8138 63.9624 18.5866 63.8359 18.3911C63.7093 18.1925 63.5523 18.0266 63.365 17.8935C63.1778 17.7604 62.965 17.6628 62.7267 17.6008C62.4915 17.5385 62.2387 17.5159 61.9685 17.533C61.4801 17.5639 61.0623 17.712 60.7152 17.9776C60.3679 18.2401 60.109 18.608 59.9384 19.0813C59.7677 19.5516 59.703 20.1138 59.7443 20.7681C59.7868 21.4407 59.9223 21.9996 60.1508 22.4446C60.3825 22.8895 60.6869 23.2172 61.064 23.4277C61.4412 23.6383 61.8679 23.7285 62.344 23.6985C62.6112 23.6816 62.8562 23.6306 63.079 23.5456C63.3049 23.4604 63.5027 23.3446 63.6723 23.1982C63.8417 23.0488 63.9786 22.8721 64.0829 22.6681C64.1903 22.464 64.259 22.2345 64.2892 21.9797L66.3078 21.8615C66.2829 22.2979 66.1788 22.7239 65.9953 23.1394C65.8147 23.5517 65.5594 23.9271 65.2292 24.2656C64.9019 24.6008 64.5029 24.8758 64.0324 25.0905C63.5646 25.302 63.0282 25.4269 62.4231 25.4651C61.5815 25.5182 60.817 25.3753 60.1295 25.0364C59.4451 24.6972 58.8881 24.1788 58.4585 23.4813C58.0321 22.7835 57.7865 21.9217 57.7217 20.8958C57.6567 19.8668 57.7949 18.9792 58.1363 18.233C58.4778 17.4867 58.9683 16.9037 59.6079 16.484C60.2473 16.0613 60.9816 15.8237 61.8109 15.7713C62.3577 15.7368 62.8693 15.7816 63.3459 15.9057C63.8255 16.0296 64.2559 16.2275 64.637 16.4995C65.0178 16.7684 65.3353 17.1076 65.5894 17.5171C65.8465 17.9264 66.0246 18.4024 66.1236 18.9451ZM67.5213 25.1928L68.9932 15.8535L70.9678 16.1647L70.3188 20.2826L70.4419 20.302L74.4518 16.7138L76.8185 17.0868L72.6937 20.7223L75.3877 26.4325L73.0255 26.0603L71.0724 21.8174L69.9142 22.8499L69.4959 25.504L67.5213 25.1928ZM81.3076 22.7857L80.8016 24.2617L76.7228 22.8635L77.2288 21.3875L81.3076 22.7857ZM89.3246 26.1313C89.3803 25.9042 89.4002 25.6869 89.3844 25.4792C89.3702 25.2688 89.3195 25.0695 89.2323 24.8812C89.1494 24.6917 89.0305 24.5154 88.8757 24.3522C88.7236 24.1905 88.5354 24.0454 88.3111 23.9168C87.8919 23.6766 87.4638 23.5695 87.0266 23.5956C86.5922 23.6233 86.1728 23.7856 85.7686 24.0824C85.3658 24.3766 85.0007 24.8094 84.6732 25.3808C84.3457 25.9522 84.1539 26.4879 84.0979 26.9879C84.0419 27.4879 84.1123 27.9345 84.3092 28.3275C84.5075 28.7179 84.823 29.0371 85.2556 29.285C85.6481 29.51 86.023 29.6326 86.3803 29.6529C86.7417 29.6721 87.0694 29.5956 87.3631 29.4235C87.6596 29.2528 87.9081 28.9926 88.1085 28.6428L88.4312 28.8969L86.3164 27.6848L87.0648 26.3791L90.4973 28.3465L89.905 29.3799C89.4918 30.1008 88.9845 30.633 88.3832 30.9766C87.7834 31.3174 87.1362 31.475 86.4415 31.4493C85.7483 31.4209 85.0572 31.2093 84.3683 30.8144C83.5993 30.3736 83.021 29.8169 82.6332 29.1441C82.247 28.4687 82.0709 27.7239 82.1048 26.9097C82.1429 26.0944 82.4099 25.2542 82.9057 24.389C83.2868 23.7242 83.7227 23.1865 84.2134 22.776C84.7083 22.3644 85.2347 22.0772 85.7926 21.9146C86.3505 21.7519 86.9161 21.709 87.4894 21.7857C88.0627 21.8624 88.6203 22.0561 89.1623 22.3668C89.627 22.6331 90.0205 22.9491 90.343 23.3148C90.667 23.6779 90.9134 24.071 91.0824 24.4942C91.254 24.9189 91.3414 25.3575 91.3446 25.8098C91.3494 26.2595 91.2635 26.7034 91.0869 27.1414L89.3246 26.1313ZM89.7472 34.404L88.1866 32.9367L97.0409 28.2844L98.9176 30.049L94.8157 39.1696L93.2551 37.7023L96.5262 30.766L96.4724 30.7154L89.7472 34.404ZM92.1953 31.6048L95.8815 35.0707L94.8126 36.2075L91.1265 32.7416L92.1953 31.6048ZM95.2077 39.7838L103.029 34.4718L105.125 37.5576C105.526 38.1482 105.762 38.7241 105.835 39.2851C105.911 39.847 105.832 40.368 105.596 40.848C105.365 41.3289 104.99 41.7449 104.474 42.0959C103.954 42.4486 103.431 42.6401 102.905 42.6702C102.381 42.6986 101.875 42.5677 101.388 42.2774C100.902 41.9896 100.456 41.5453 100.047 40.9445L98.6442 38.8784L99.9732 37.9758L101.195 39.7745C101.409 40.0902 101.631 40.3231 101.859 40.473C102.087 40.623 102.323 40.6901 102.565 40.6744C102.809 40.6612 103.06 40.5673 103.317 40.3926C103.576 40.2162 103.76 40.0153 103.867 39.7899C103.976 39.567 104.005 39.3188 103.953 39.0453C103.905 38.7725 103.774 38.477 103.557 38.1588L102.8 37.0436L96.3308 41.4374L95.2077 39.7838ZM101.636 41.5902L99.3965 45.9514L98.1567 44.126L100.424 39.8068L101.636 41.5902ZM100.208 48.1081L99.4249 46.1145L109.418 45.6938L110.36 48.0912L102.753 54.583L101.97 52.5894L107.892 47.7171L107.865 47.6484L100.208 48.1081ZM103.618 46.6241L105.469 51.3331L104.017 51.9039L102.166 47.1949L103.618 46.6241ZM113.283 61.8409L103.919 63.1409L103.681 61.4307L109.01 56.5383L109 56.4697L103.106 57.2879L102.831 55.3079L112.196 54.008L112.437 55.7456L107.109 60.6053L107.12 60.6876L113.01 59.8701L113.283 61.8409ZM111.721 64.6394L113.363 64.7712L112.743 72.5112L111.1 72.3795L111.331 69.4942L103.55 68.8702L103.708 66.9007L111.489 67.5247L111.721 64.6394ZM111.896 76.6749L102.682 74.5546L103.13 72.6066L112.344 74.7269L111.896 76.6749ZM102.288 75.7411L111.105 79.1552L108.805 85.0961L107.268 84.501L108.846 80.4241L106.745 79.6106L105.285 83.3818L103.748 82.7867L105.209 79.0155L103.103 78.2003L101.518 82.2944L99.9813 81.6993L102.288 75.7411Z" fill="white"/>
</g>
<defs>
<clipPath id="clip0_5754_10629">
<rect width="128" height="128" fill="white"/>
</clipPath>
</defs>
</svg>
