<svg width="16" height="16" viewBox="0 0 16 16" fill="none" xmlns="http://www.w3.org/2000/svg">
<path d="M12.9844 4.00023H5C4.46875 4.00023 4.4125 3.35648 4.8625 3.25023H12.9844C13.1 3.25023 13.2188 3.25648 13.3344 3.27211C13.175 2.14398 12.1281 1.35961 11.0031 1.52211C10.9719 1.52523 10.9438 1.53148 10.9125 1.53773L3.00938 2.88461C2.90313 2.90023 2.79375 2.91898 2.6875 2.94086H2.68125C2.64063 2.94711 2.60312 2.95648 2.5625 2.96586C1.35312 3.25648 1 4.34398 1 5.00023V5.75648C0.990625 5.83773 0.984375 5.91898 0.984375 6.00023V12.0002C0.984375 13.1034 1.88125 14.0002 2.98438 14.0002H12.9844C14.0875 14.0002 14.9844 13.1034 14.9844 12.0002V6.00023C14.9844 4.89711 14.0875 4.00023 12.9844 4.00023ZM11.5 10.0002C10.9469 10.0002 10.5 9.55336 10.5 9.00023C10.5 8.44711 10.9469 8.00023 11.5 8.00023C12.0531 8.00023 12.5 8.44711 12.5 9.00023C12.5 9.55336 12.0531 10.0002 11.5 10.0002Z" fill="black"/>
</svg>
