<svg width="85" height="85" viewBox="0 0 85 85" fill="none" xmlns="http://www.w3.org/2000/svg">
<path d="M0 42.5C0 19.0279 19.0279 0 42.5 0C65.9721 0 85 19.0279 85 42.5C85 65.9721 65.9721 85 42.5 85C19.0279 85 0 65.9721 0 42.5Z" fill="#F0F4FA"/>
<g clip-path="url(#clip0_2_1771)">
<path d="M51.8311 62.7654V21.5889C51.8311 19.6099 50.2211 18 48.2422 18H36.7578C34.7789 18 33.1689 19.6099 33.1689 21.5889V62.7654C31.5328 63.0989 30.2979 64.5491 30.2979 66.2822C30.2979 66.6787 30.6191 67 31.0156 67H53.9844C54.3809 67 54.7021 66.6787 54.7021 66.2822C54.7021 64.5491 53.4672 63.0989 51.8311 62.7654ZM36.7578 19.4355H48.2422C49.4295 19.4355 50.3955 20.4016 50.3955 21.5889V59.8223H34.6045V21.5889C34.6045 20.4016 35.5705 19.4355 36.7578 19.4355ZM31.8564 65.5645C32.1527 64.729 32.9509 64.1289 33.8867 64.1289C34.2832 64.1289 34.6045 63.8076 34.6045 63.4111V61.2578H50.3955V62.6934H36.7578C36.3613 62.6934 36.04 63.0146 36.04 63.4111C36.04 63.8076 36.3613 64.1289 36.7578 64.1289H51.1133C52.0491 64.1289 52.8473 64.729 53.1436 65.5645H31.8564Z" fill="#1C2B54"/>
<path d="M36.7578 55.5156H48.2422C48.6387 55.5156 48.96 55.1944 48.96 54.7979V21.5889C48.96 21.1924 48.6387 20.8711 48.2422 20.8711H36.7578C36.3613 20.8711 36.04 21.1924 36.04 21.5889V54.7979C36.04 55.1944 36.3613 55.5156 36.7578 55.5156ZM37.4756 54.0801V30.9199H47.5244V54.0801H37.4756ZM47.5244 22.3066V29.4844H37.4756V22.3066H47.5244Z" fill="#1C2B54"/>
<path d="M42.5 28.0488C43.6873 28.0488 44.6533 27.0828 44.6533 25.8955C44.6533 24.7082 43.6873 23.7422 42.5 23.7422C41.3127 23.7422 40.3467 24.7082 40.3467 25.8955C40.3467 27.0828 41.3127 28.0488 42.5 28.0488ZM42.5 25.1777C42.8958 25.1777 43.2178 25.4997 43.2178 25.8955C43.2178 26.2913 42.8958 26.6133 42.5 26.6133C42.1042 26.6133 41.7822 26.2913 41.7822 25.8955C41.7822 25.4997 42.1042 25.1777 42.5 25.1777Z" fill="#1C2B54"/>
<path d="M42.5 32.3555C42.1035 32.3555 41.7822 32.6767 41.7822 33.0732V51.9268C41.7822 52.3233 42.1035 52.6445 42.5 52.6445C42.8965 52.6445 43.2178 52.3233 43.2178 51.9268V33.0732C43.2178 32.6767 42.8965 32.3555 42.5 32.3555Z" fill="#1C2B54"/>
<path d="M45.3711 32.3555C44.9746 32.3555 44.6533 32.6767 44.6533 33.0732V51.9268C44.6533 52.3233 44.9746 52.6445 45.3711 52.6445C45.7676 52.6445 46.0889 52.3233 46.0889 51.9268V33.0732C46.0889 32.6767 45.7676 32.3555 45.3711 32.3555Z" fill="#1C2B54"/>
<path d="M39.6289 32.3555C39.2324 32.3555 38.9111 32.6767 38.9111 33.0732V51.9268C38.9111 52.3233 39.2324 52.6445 39.6289 52.6445C40.0254 52.6445 40.3467 52.3233 40.3467 51.9268V33.0732C40.3467 32.6767 40.0254 32.3555 39.6289 32.3555Z" fill="#1C2B54"/>
</g>
<defs>
<clipPath id="clip0_2_1771">
<rect width="49" height="49" fill="white" transform="translate(18 17.6816)"/>
</clipPath>
</defs>
</svg>
