<svg width="48" height="48" viewBox="0 0 48 48" fill="none" xmlns="http://www.w3.org/2000/svg">
<g clip-path="url(#clip0_92_8393)">
<path d="M43.7094 15.9789L44.4322 15.2559L44.4539 15.2776C44.5791 15.403 44.7279 15.5025 44.8916 15.5704C45.0553 15.6383 45.2308 15.6732 45.408 15.6732C45.5853 15.6732 45.7608 15.6383 45.9245 15.5704C46.0882 15.5025 46.237 15.403 46.3622 15.2776L47.4794 14.1604C47.6048 14.0351 47.7043 13.8864 47.7722 13.7226C47.8401 13.5588 47.875 13.3833 47.875 13.206C47.875 13.0288 47.8401 12.8532 47.7722 12.6895C47.7043 12.5257 47.6048 12.3769 47.4794 12.2516L44.5502 9.32206C44.2931 9.07675 43.9514 8.93988 43.5961 8.93988C43.2407 8.93988 42.899 9.07675 42.6419 9.32206L41.5247 10.4393C41.3993 10.5645 41.2998 10.7133 41.2319 10.8771C41.164 11.0408 41.1291 11.2164 41.1291 11.3936C41.1291 11.5709 41.164 11.7464 41.2319 11.9102C41.2998 12.074 41.3993 12.2227 41.5247 12.348L41.5459 12.3692L40.7824 13.1326C38.173 11.0836 35.0648 9.76669 31.7775 9.31736V7.09607H33.2233C33.6548 7.09563 34.0685 6.92401 34.3737 6.61887C34.6788 6.31373 34.8504 5.9 34.8509 5.46847V3.62759C34.8504 3.19606 34.6788 2.78233 34.3737 2.4772C34.0685 2.17206 33.6548 2.00044 33.2233 2H25.2353C24.8038 2.00045 24.3901 2.17206 24.0849 2.4772C23.7798 2.78233 23.6082 3.19605 23.6077 3.62758V5.46845C23.6082 5.89999 23.7798 6.31372 24.0849 6.61886C24.3901 6.924 24.8038 7.09562 25.2353 7.09606H26.6819V9.31857C25.6886 9.4509 24.7077 9.66299 23.7485 9.95279C23.5308 10.0193 23.3484 10.1695 23.2414 10.3704C23.1344 10.5714 23.1117 10.8066 23.1782 11.0243C23.2446 11.242 23.3949 11.4244 23.5958 11.5314C23.7968 11.6384 24.032 11.6611 24.2497 11.5946C27.1371 10.7131 30.2068 10.6136 33.1452 11.3065C36.0836 11.9994 38.7854 13.4598 40.9748 15.5386C43.1641 17.6173 44.7625 20.2399 45.6067 23.1384C46.4509 26.037 46.5106 29.1077 45.7798 32.0369C45.049 34.9661 43.5538 37.6489 41.4469 39.8112C39.3401 41.9734 36.697 43.5378 33.7878 44.3444C30.8786 45.1511 27.8073 45.1711 24.8878 44.4025C21.9683 43.6339 19.3051 42.1041 17.1702 39.9695C17.0907 39.8891 16.9961 39.8253 16.8918 39.7816C16.7875 39.738 16.6756 39.7153 16.5626 39.7151C16.4495 39.7148 16.3375 39.7368 16.233 39.7799C16.1285 39.8231 16.0336 39.8864 15.9536 39.9664C15.8737 40.0463 15.8103 40.1413 15.7672 40.2458C15.7241 40.3503 15.702 40.4623 15.7023 40.5753C15.7026 40.6884 15.7252 40.8003 15.7688 40.9045C15.8125 41.0088 15.8763 41.1035 15.9567 41.183C19.3649 44.5952 23.956 46.5644 28.7773 46.6817C33.5987 46.7991 38.2801 45.0558 41.8504 41.8134C45.4206 38.5711 47.6054 34.0786 47.9516 29.2683C48.2977 24.4579 46.7786 19.699 43.7094 15.9789ZM43.5956 10.795L46.0069 13.2058L45.4085 13.8047L42.9972 11.3939L43.5956 10.795ZM42.7592 13.583L43.2185 14.0423L42.5551 14.7058C42.4027 14.552 42.2453 14.4031 42.0877 14.2545L42.7592 13.583ZM25.3242 5.37964V3.71641H33.1345V5.37964H25.3242ZM28.3983 9.17027V7.09607H30.0611V9.16089C29.7852 9.14879 29.5085 9.13979 29.2297 9.13979C28.9515 9.13979 28.6753 9.15817 28.3983 9.17027Z" fill="#1C2B54"/>
<path d="M40.3785 38.9916C43.3116 36.0493 44.9586 32.0641 44.9584 27.9095C44.9582 23.7549 43.3109 19.7698 40.3775 16.8277C40.3667 16.8156 40.3629 16.8 40.3513 16.7883C40.3397 16.7767 40.324 16.773 40.3118 16.7621C37.3709 13.8268 33.3848 12.1792 29.2297 12.1813C28.2854 12.1811 27.3429 12.2654 26.4136 12.4331C26.3028 12.4532 26.1969 12.4948 26.1021 12.5558C26.0073 12.6167 25.9255 12.6957 25.8612 12.7883C25.797 12.8809 25.7516 12.9852 25.7277 13.0953C25.7038 13.2054 25.7018 13.3192 25.7218 13.4301C25.7418 13.5409 25.7835 13.6468 25.8444 13.7416C25.9054 13.8364 25.9844 13.9182 26.077 13.9825C26.1695 14.0467 26.2739 14.0921 26.384 14.116C26.4941 14.1399 26.6078 14.1419 26.7187 14.1219C27.2655 14.0274 27.8174 13.9653 28.3715 13.936V15.2785C28.3715 15.5061 28.4619 15.7244 28.6228 15.8853C28.7838 16.0463 29.0021 16.1367 29.2297 16.1367C29.4573 16.1367 29.6756 16.0463 29.8365 15.8853C29.9975 15.7244 30.0879 15.5061 30.0879 15.2785V13.9412C33.2025 14.1293 36.1638 15.3574 38.4974 17.4286L37.5546 18.3715C37.4743 18.451 37.4104 18.5457 37.3668 18.65C37.3231 18.7542 37.3005 18.8661 37.3002 18.9792C37.2999 19.0922 37.322 19.2042 37.3651 19.3087C37.4082 19.4132 37.4716 19.5082 37.5515 19.5881C37.6315 19.6681 37.7264 19.7314 37.8309 19.7746C37.9354 19.8177 38.0474 19.8398 38.1605 19.8395C38.2735 19.8392 38.3854 19.8166 38.4897 19.7729C38.594 19.7293 38.6886 19.6654 38.7681 19.5851L39.711 18.6422C41.7823 20.976 43.0104 23.9375 43.1985 27.0522H41.8616C41.634 27.0522 41.4157 27.1426 41.2547 27.3036C41.0938 27.4645 41.0034 27.6828 41.0034 27.9104C41.0034 28.138 41.0938 28.3563 41.2547 28.5173C41.4157 28.6782 41.634 28.7686 41.8616 28.7686H43.1985C43.0104 31.8833 41.7823 34.8447 39.711 37.1784L38.7681 36.2353C38.6069 36.0759 38.3891 35.9867 38.1624 35.9874C37.9356 35.988 37.7184 36.0784 37.558 36.2387C37.3977 36.3991 37.3074 36.6164 37.3067 36.8431C37.3061 37.0698 37.3952 37.2876 37.5546 37.4488L38.4974 38.3919C36.1638 40.4631 33.2025 41.6911 30.088 41.8792V40.5419C30.088 40.3143 29.9975 40.096 29.8366 39.935C29.6756 39.7741 29.4573 39.6836 29.2297 39.6836C29.0021 39.6836 28.7838 39.7741 28.6229 39.935C28.4619 40.096 28.3715 40.3143 28.3715 40.5419V41.8874C25.5153 41.726 22.7793 40.6838 20.5394 38.9042C20.451 38.8343 20.3498 38.7825 20.2414 38.7518C20.133 38.721 20.0196 38.7119 19.9077 38.725C19.7958 38.7381 19.6875 38.7731 19.5891 38.828C19.4907 38.8829 19.4041 38.9566 19.3342 39.045C19.2643 39.1334 19.2125 39.2347 19.1818 39.3431C19.151 39.4515 19.142 39.5649 19.155 39.6768C19.1681 39.7887 19.2031 39.8969 19.258 39.9953C19.3129 40.0937 19.3867 40.1803 19.475 40.2502C22.4918 42.6363 26.2789 43.8329 30.1189 43.6135C33.959 43.3941 37.5851 41.7738 40.3104 39.0596C40.323 39.0484 40.3393 39.0445 40.3514 39.0324C40.3634 39.0203 40.3673 39.0042 40.3785 38.9916Z" fill="#1C2B54"/>
<path d="M36.5539 20.5862C36.4742 20.5064 36.3796 20.4432 36.2755 20.4001C36.1714 20.3569 36.0598 20.3347 35.9471 20.3347C35.8344 20.3347 35.7228 20.3569 35.6187 20.4001C35.5146 20.4432 35.42 20.5064 35.3403 20.5862L30.5298 25.3967C30.1294 25.1833 29.6833 25.0702 29.2297 25.0671C28.6674 25.067 28.1177 25.2337 27.6502 25.5461C27.1826 25.8585 26.8182 26.3025 26.6029 26.8219C26.3877 27.3414 26.3314 27.9131 26.441 28.4646C26.5507 29.0161 26.8214 29.5227 27.219 29.9203C27.6166 30.318 28.1231 30.5888 28.6746 30.6985C29.2261 30.8083 29.7978 30.752 30.3173 30.5369C30.8368 30.3217 31.2809 29.9573 31.5933 29.4898C31.9057 29.0223 32.0725 28.4727 32.0726 27.9103C32.0694 27.4568 31.9564 27.0108 31.7432 26.6104L36.5539 21.7997C36.6336 21.7201 36.6969 21.6255 36.74 21.5214C36.7831 21.4172 36.8053 21.3056 36.8053 21.1929C36.8053 21.0802 36.7831 20.9686 36.74 20.8645C36.6969 20.7604 36.6336 20.6658 36.5539 20.5862ZM29.2297 29.0368C29.0444 29.0369 28.8619 28.9913 28.6984 28.9041C28.5349 28.8168 28.3954 28.6906 28.2924 28.5366C28.1893 28.3825 28.1258 28.2054 28.1076 28.021C28.0894 27.8366 28.1169 27.6505 28.1878 27.4792C28.2587 27.308 28.3707 27.1569 28.514 27.0393C28.6572 26.9217 28.8273 26.8413 29.0091 26.8051C29.1908 26.769 29.3787 26.7782 29.556 26.8321C29.7334 26.8859 29.8947 26.9827 30.0257 27.1138C30.1833 27.2712 30.291 27.4724 30.3345 27.6909C30.378 27.9094 30.3557 28.1358 30.2704 28.3417C30.1852 28.5475 30.0408 28.7234 29.8555 28.8471C29.6703 28.9708 29.4525 29.0368 29.2297 29.0368Z" fill="#1C2B54"/>
<path d="M19.3862 13.8977H13.9678C13.7402 13.8977 13.5219 13.8073 13.361 13.6463C13.2 13.4854 13.1096 13.2671 13.1096 13.0395C13.1096 12.8119 13.2 12.5936 13.361 12.4326C13.5219 12.2717 13.7402 12.1813 13.9678 12.1813H19.3862C19.6138 12.1813 19.8321 12.2717 19.993 12.4326C20.154 12.5936 20.2444 12.8119 20.2444 13.0395C20.2444 13.2671 20.154 13.4854 19.993 13.6463C19.8321 13.8073 19.6138 13.8977 19.3862 13.8977Z" fill="#1C2B54"/>
<path d="M11.197 13.8977H9.46051C9.2329 13.8977 9.01461 13.8073 8.85366 13.6463C8.69271 13.4854 8.60229 13.2671 8.60229 13.0395C8.60229 12.8119 8.69271 12.5936 8.85366 12.4326C9.01461 12.2717 9.2329 12.1813 9.46051 12.1813H11.197C11.4247 12.1813 11.6429 12.2717 11.8039 12.4326C11.9648 12.5936 12.0553 12.8119 12.0553 13.0395C12.0553 13.2671 11.9648 13.4854 11.8039 13.6463C11.6429 13.8073 11.4247 13.8977 11.197 13.8977Z" fill="#1C2B54"/>
<path d="M22.0329 19.5482H7.68207C7.45446 19.5482 7.23617 19.4578 7.07522 19.2969C6.91427 19.1359 6.82385 18.9176 6.82385 18.69C6.82385 18.4624 6.91427 18.2441 7.07522 18.0832C7.23617 17.9222 7.45446 17.8318 7.68207 17.8318H22.0329C22.2605 17.8318 22.4788 17.9222 22.6398 18.0832C22.8007 18.2441 22.8911 18.4624 22.8911 18.69C22.8911 18.9176 22.8007 19.1359 22.6398 19.2969C22.4788 19.4578 22.2605 19.5482 22.0329 19.5482Z" fill="#1C2B54"/>
<path d="M15.8536 25.1987H0.858218C0.630605 25.1987 0.412313 25.1083 0.251366 24.9474C0.0904189 24.7864 0 24.5681 0 24.3405C0 24.1129 0.0904189 23.8946 0.251366 23.7337C0.412313 23.5727 0.630605 23.4823 0.858218 23.4823H15.8536C16.0812 23.4823 16.2995 23.5727 16.4604 23.7337C16.6214 23.8946 16.7118 24.1129 16.7118 24.3405C16.7118 24.5681 16.6214 24.7864 16.4604 24.9474C16.2995 25.1083 16.0812 25.1987 15.8536 25.1987Z" fill="#1C2B54"/>
<path d="M20.2955 25.1987H18.683C18.4554 25.1987 18.2371 25.1083 18.0762 24.9474C17.9152 24.7864 17.8248 24.5681 17.8248 24.3405C17.8248 24.1129 17.9152 23.8946 18.0762 23.7337C18.2371 23.5727 18.4554 23.4823 18.683 23.4823H20.2955C20.5231 23.4823 20.7414 23.5727 20.9024 23.7337C21.0633 23.8946 21.1537 24.1129 21.1537 24.3405C21.1537 24.5681 21.0633 24.7864 20.9024 24.9474C20.7414 25.1083 20.5231 25.1987 20.2955 25.1987Z" fill="#1C2B54"/>
<path d="M23.6044 30.8492H10.887C10.6594 30.8492 10.4411 30.7588 10.2801 30.5979C10.1192 30.4369 10.0287 30.2186 10.0287 29.991C10.0287 29.7634 10.1192 29.5451 10.2801 29.3842C10.4411 29.2232 10.6594 29.1328 10.887 29.1328H23.6044C23.832 29.1328 24.0503 29.2232 24.2112 29.3842C24.3721 29.5451 24.4626 29.7634 24.4626 29.991C24.4626 30.2186 24.3721 30.4369 24.2112 30.5979C24.0503 30.7588 23.832 30.8492 23.6044 30.8492Z" fill="#1C2B54"/>
<path d="M7.26803 36.4996H5.73764C5.51003 36.4996 5.29174 36.4092 5.13079 36.2483C4.96984 36.0873 4.87943 35.869 4.87943 35.6414C4.87943 35.4138 4.96984 35.1955 5.13079 35.0346C5.29174 34.8736 5.51003 34.7832 5.73764 34.7832H7.26803C7.49564 34.7832 7.71393 34.8736 7.87488 35.0346C8.03582 35.1955 8.12624 35.4138 8.12624 35.6414C8.12624 35.869 8.03582 36.0873 7.87488 36.2483C7.71393 36.4092 7.49564 36.4996 7.26803 36.4996Z" fill="#1C2B54"/>
<path d="M20.2955 36.4996H9.9986C9.77099 36.4996 9.55269 36.4092 9.39175 36.2483C9.2308 36.0873 9.14038 35.869 9.14038 35.6414C9.14038 35.4138 9.2308 35.1955 9.39175 35.0346C9.55269 34.8736 9.77099 34.7832 9.9986 34.7832H20.2955C20.5231 34.7832 20.7414 34.8736 20.9024 35.0346C21.0633 35.1955 21.1537 35.4138 21.1537 35.6414C21.1537 35.869 21.0633 36.0873 20.9024 36.2483C20.7414 36.4092 20.5231 36.4996 20.2955 36.4996Z" fill="#1C2B54"/>
</g>
<defs>
<clipPath id="clip0_92_8393">
<rect width="48" height="48" fill="white"/>
</clipPath>
</defs>
</svg>
