<svg width="32" height="32" viewBox="0 0 32 32" fill="none" xmlns="http://www.w3.org/2000/svg">
<g clip-path="url(#clip0_92_9030)">
<path d="M31.8436 1.60884L30.3881 0.153417C30.1881 -0.0465816 29.834 -0.0465816 29.634 0.153417L25.2671 4.52032C25.0586 4.72882 25.0586 5.06594 25.2671 5.27444L26.7225 6.72986C26.8223 6.83011 26.9583 6.88611 27.0996 6.88611C27.2409 6.88611 27.3764 6.83011 27.4767 6.72986L31.8436 2.36296C32.0521 2.15446 32.0521 1.8174 31.8436 1.60884ZM27.0997 5.59869L26.3984 4.89738L30.0111 1.2846L30.7125 1.9859L27.0997 5.59869Z" fill="#1C2B54"/>
<path d="M27.8143 6.31401L25.6832 4.18284C25.0592 3.55884 24.0448 3.55884 23.4208 4.18284L22.7189 4.88415C22.6187 4.9839 22.5627 5.11933 22.5627 5.26121C22.5627 5.40252 22.6187 5.53802 22.7189 5.63827L26.3584 9.27768C26.4582 9.37792 26.5942 9.43392 26.7355 9.43392C26.8773 9.43392 27.0128 9.37736 27.1131 9.27768L27.8144 8.57637C28.4383 7.95237 28.4383 6.93801 27.8143 6.31401ZM27.0596 7.82175L26.7354 8.146L23.8506 5.26071L24.1749 4.93646C24.3829 4.72952 24.721 4.72846 24.929 4.93646L27.0596 7.06763C27.2676 7.27563 27.2676 7.61375 27.0596 7.82175Z" fill="#1C2B54"/>
<path d="M27.3845 8.79484L23.2011 4.61143C22.3952 3.80556 21.3243 3.36182 20.1845 3.36182C19.0453 3.36182 17.9744 3.80556 17.1685 4.61143L13.9851 7.79484C13.8849 7.89459 13.8289 8.03003 13.8289 8.1719C13.8289 8.31378 13.8849 8.44871 13.9851 8.54896L23.4469 18.0113C23.5509 18.1153 23.6875 18.1675 23.824 18.1675C23.9606 18.1675 24.0971 18.1153 24.2011 18.0113L27.3845 14.8279C29.0474 13.1644 29.0474 10.4578 27.3845 8.79484ZM26.6303 14.0737L23.824 16.8801L15.1163 8.1719L17.9226 5.36605C18.5269 4.76181 19.33 4.429 20.1845 4.429C21.0394 4.429 21.8426 4.76181 22.4468 5.36605L26.6302 9.54946C27.8772 10.7964 27.8772 12.8263 26.6303 14.0737Z" fill="#1C2B54"/>
<path d="M23.1098 7.43193L21.6538 5.97538C20.8437 5.16576 19.5269 5.16576 18.7174 5.97538L17.2614 7.43193C17.0528 7.64049 17.0528 7.97755 17.2614 8.18605C17.4699 8.39455 17.8075 8.39455 18.0155 8.18605L19.4715 6.7295C19.8656 6.33587 20.5062 6.33587 20.8997 6.7295L22.3557 8.18605C22.4597 8.29005 22.5963 8.3423 22.7328 8.3423C22.8688 8.3423 23.0053 8.29005 23.1098 8.18605C23.3183 7.97755 23.3183 7.64043 23.1098 7.43193Z" fill="#1C2B54"/>
<path d="M6.73288 26.7191L5.27746 25.2637C5.17771 25.1634 5.04171 25.1074 4.9004 25.1074C4.75909 25.1074 4.62359 25.1634 4.52334 25.2637L0.156374 29.6306C-0.0521246 29.8391 -0.0521246 30.1762 0.156374 30.3847L1.6118 31.8401C1.71155 31.9404 1.84755 31.9964 1.98886 31.9964C2.13073 31.9964 2.26617 31.9404 2.36592 31.8401L6.73282 27.4732C6.94138 27.2647 6.94138 26.9277 6.73288 26.7191ZM1.98892 30.7089L1.28761 30.0076L4.9004 26.3948L5.60171 27.0962L1.98892 30.7089Z" fill="#1C2B54"/>
<path d="M9.28006 26.3562L5.64065 22.7168C5.5409 22.6165 5.4049 22.5605 5.26359 22.5605C5.12228 22.5605 4.98678 22.6165 4.88653 22.7168L4.18522 23.4181C3.56123 24.0421 3.56123 25.0565 4.18522 25.6805L6.31639 27.8116C6.62839 28.1236 7.03801 28.2794 7.44757 28.2794C7.85713 28.2794 8.26675 28.1236 8.57825 27.8116L9.28012 27.1103C9.38037 27.0106 9.43637 26.8751 9.43637 26.7333C9.4363 26.592 9.3803 26.4565 9.28006 26.3562ZM7.82569 27.057C7.61769 27.2639 7.27957 27.265 7.07157 27.057L4.9404 24.9258C4.7324 24.7178 4.7324 24.3797 4.9404 24.1717L5.26465 23.8475L8.14994 26.7328L7.82569 27.057Z" fill="#1C2B54"/>
<path d="M18.7424 22.7153L9.28061 13.2535C9.08061 13.0535 8.72649 13.0535 8.52649 13.2535L4.61508 17.1649C2.95216 18.8283 2.95216 21.535 4.61508 23.1979L8.79849 27.3813C9.60436 28.1872 10.6753 28.631 11.815 28.631C12.9548 28.631 14.0257 28.1872 14.8316 27.3808L18.7425 23.4694C18.9509 23.2609 18.9509 22.9238 18.7424 22.7153ZM14.0768 26.6273C13.4726 27.2315 12.6694 27.5643 11.815 27.5643C10.96 27.5643 10.1569 27.2315 9.55261 26.6273L5.3692 22.4439C4.12227 21.197 4.12227 19.1671 5.3692 17.9197L8.90355 14.3853L17.6107 23.093L14.0768 26.6273Z" fill="#1C2B54"/>
<path d="M15.4683 11.4352C14.8773 10.8448 13.848 10.8442 13.2581 11.4352L9.98242 14.7103C9.88217 14.8101 9.82617 14.9455 9.82617 15.0874C9.82617 15.2293 9.88217 15.3642 9.98242 15.4645L11.4378 16.9199C11.5418 17.0239 11.6784 17.0761 11.8149 17.0761C11.9514 17.0761 12.088 17.0239 12.193 16.9199L15.4682 13.6447C15.7631 13.3498 15.9258 12.9572 15.9258 12.5397C15.9258 12.1221 15.7632 11.7301 15.4683 11.4352ZM14.7126 12.8901L11.8145 15.7882L11.1132 15.0869L14.0113 12.1888C14.1985 12.001 14.5249 12.001 14.7126 12.1894C14.8059 12.2827 14.8576 12.407 14.8576 12.5392C14.8576 12.672 14.8064 12.7962 14.7126 12.8901Z" fill="#1C2B54"/>
<path d="M20.5627 16.5297C19.953 15.92 18.9621 15.9195 18.3526 16.5297L15.0774 19.8048C14.9771 19.9046 14.9211 20.04 14.9211 20.1819C14.9211 20.3238 14.9771 20.4587 15.0774 20.5589L16.5328 22.0144C16.6368 22.1184 16.7734 22.1706 16.9099 22.1706C17.0464 22.1706 17.1829 22.1189 17.2869 22.0149L20.5627 18.7397C21.1717 18.1302 21.1717 17.1392 20.5627 16.5297ZM19.808 17.9851L16.9099 20.8832L16.2086 20.1819L19.1067 17.2838C19.2944 17.096 19.6208 17.096 19.808 17.2838C20.001 17.4768 20.001 17.792 19.808 17.9851Z" fill="#1C2B54"/>
<path d="M15.8309 22.716L9.2806 16.1657C9.0721 15.9571 8.73498 15.9571 8.52648 16.1657L5.61507 19.0771C5.40651 19.2857 5.40651 19.6227 5.61507 19.8312L12.166 26.3816C12.27 26.4856 12.4065 26.5378 12.543 26.5378C12.679 26.5378 12.8156 26.4856 12.9196 26.3816L15.831 23.4701C16.0395 23.2616 16.0395 22.9246 15.8309 22.716ZM12.5425 25.2504L6.74625 19.4542L8.90354 17.2969L14.6997 23.0931L12.5425 25.2504Z" fill="#1C2B54"/>
<path d="M12.192 21.9888L10.0086 19.8048C9.80005 19.5963 9.46299 19.5963 9.25449 19.8048C9.04599 20.0134 9.04599 20.3505 9.25449 20.559L11.4379 22.7429C11.5419 22.8469 11.6785 22.8992 11.815 22.8992C11.9515 22.8992 12.088 22.8469 12.192 22.7429C12.4006 22.5344 12.4006 22.1973 12.192 21.9888Z" fill="#1C2B54"/>
</g>
<defs>
<clipPath id="clip0_92_9030">
<rect width="32" height="32" fill="white"/>
</clipPath>
</defs>
</svg>
