<svg width="24" height="24" viewBox="0 0 24 24" fill="none" xmlns="http://www.w3.org/2000/svg">
<g clip-path="url(#clip0_2_1396)">
<g clip-path="url(#clip1_2_1396)">
<path d="M18.7143 17.1428C18.0362 17.1428 17.3733 17.3439 16.8095 17.7206C16.2456 18.0974 15.8062 18.6328 15.5467 19.2593C15.2872 19.8858 15.2193 20.5752 15.3516 21.2403C15.4839 21.9054 15.8104 22.5163 16.2899 22.9958C16.7694 23.4753 17.3803 23.8018 18.0454 23.9341C18.7105 24.0664 19.3998 23.9985 20.0263 23.739C20.6528 23.4795 21.1883 23.04 21.565 22.4762C21.9418 21.9124 22.1428 21.2495 22.1428 20.5714C22.1416 19.6625 21.78 18.7911 21.1373 18.1484C20.4946 17.5057 19.6232 17.1441 18.7143 17.1428ZM21.0131 19.7357L18.5887 22.1601C18.5083 22.2405 18.3993 22.2856 18.2857 22.2856C18.1721 22.2856 18.0631 22.2405 17.9827 22.1601L16.7703 20.9477C16.6922 20.8668 16.649 20.7586 16.65 20.6462C16.651 20.5339 16.696 20.4264 16.7755 20.3469C16.855 20.2674 16.9625 20.2224 17.0748 20.2214C17.1872 20.2204 17.2954 20.2636 17.3763 20.3417L18.2857 21.2511L20.4071 19.1297C20.488 19.0516 20.5962 19.0084 20.7086 19.0094C20.821 19.0104 20.9285 19.0554 21.0079 19.1349C21.0874 19.2144 21.1324 19.3219 21.1334 19.4342C21.1344 19.5466 21.0912 19.6548 21.0131 19.7357Z" fill="#1C2B54"/>
<path d="M20.4286 0C20.0879 0.00101747 19.7615 0.136803 19.5206 0.377701C19.2797 0.618599 19.1439 0.945035 19.1429 1.28571V7.71428H21.7143V1.28571C21.7133 0.945035 21.5775 0.618599 21.3366 0.377701C21.0957 0.136803 20.7692 0.00101747 20.4286 0Z" fill="#1C2B54"/>
<path d="M2 23.3957L2.98143 22.41C3.06235 22.3297 3.17172 22.2846 3.28571 22.2846C3.39971 22.2846 3.50908 22.3297 3.59 22.41L5 23.8243L6.41 22.41C6.49092 22.3297 6.60029 22.2846 6.71428 22.2846C6.82828 22.2846 6.93765 22.3297 7.01857 22.41L8.42857 23.8243L9.83857 22.41C9.91949 22.3297 10.0289 22.2846 10.1429 22.2846C10.2569 22.2846 10.3662 22.3297 10.4471 22.41L11.8571 23.8243L13.2671 22.41C13.3481 22.3297 13.4574 22.2846 13.5714 22.2846C13.6854 22.2846 13.7948 22.3297 13.8757 22.41L15.2857 23.8243L15.6029 23.5071C15.0518 22.9264 14.6747 22.2026 14.5147 21.4182C14.3546 20.6338 14.418 19.8202 14.6975 19.07C14.9771 18.3198 15.4616 17.6631 16.0959 17.1746C16.7303 16.6862 17.489 16.3856 18.2857 16.3071V1.28571C18.287 0.820185 18.4422 0.36815 18.7271 0H3.28571C2.94503 0.00101747 2.6186 0.136803 2.3777 0.377701C2.1368 0.618599 2.00102 0.945035 2 1.28571V23.3957ZM13.5714 1.71429H14C14.1137 1.71429 14.2227 1.75944 14.303 1.83981C14.3834 1.92018 14.4286 2.02919 14.4286 2.14286C14.4286 2.25652 14.3834 2.36553 14.303 2.4459C14.2227 2.52628 14.1137 2.57143 14 2.57143H13.5714C13.4578 2.57143 13.3488 2.52628 13.2684 2.4459C13.188 2.36553 13.1429 2.25652 13.1429 2.14286C13.1429 2.02919 13.188 1.92018 13.2684 1.83981C13.3488 1.75944 13.4578 1.71429 13.5714 1.71429ZM13.5714 10.2857H14C14.1137 10.2857 14.2227 10.3309 14.303 10.4112C14.3834 10.4916 14.4286 10.6006 14.4286 10.7143C14.4286 10.8279 14.3834 10.937 14.303 11.0173C14.2227 11.0977 14.1137 11.1429 14 11.1429H13.5714C13.4578 11.1429 13.3488 11.0977 13.2684 11.0173C13.188 10.937 13.1429 10.8279 13.1429 10.7143C13.1429 10.6006 13.188 10.4916 13.2684 10.4112C13.3488 10.3309 13.4578 10.2857 13.5714 10.2857ZM8.42857 1.71429H11.8571C11.9708 1.71429 12.0798 1.75944 12.1602 1.83981C12.2406 1.92018 12.2857 2.02919 12.2857 2.14286C12.2857 2.25652 12.2406 2.36553 12.1602 2.4459C12.0798 2.52628 11.9708 2.57143 11.8571 2.57143H8.42857C8.31491 2.57143 8.2059 2.52628 8.12552 2.4459C8.04515 2.36553 8 2.25652 8 2.14286C8 2.02919 8.04515 1.92018 8.12552 1.83981C8.2059 1.75944 8.31491 1.71429 8.42857 1.71429ZM10.1429 6C11.1041 6 11.8571 6.56486 11.8571 7.28571C11.8571 7.89471 11.3176 8.38757 10.5714 8.52857V9C10.5714 9.11366 10.5263 9.22267 10.4459 9.30305C10.3655 9.38342 10.2565 9.42857 10.1429 9.42857C10.0292 9.42857 9.92018 9.38342 9.83981 9.30305C9.75944 9.22267 9.71428 9.11366 9.71428 9V8.52857C8.96814 8.38843 8.42857 7.89557 8.42857 7.28571C8.42857 7.17205 8.47372 7.06304 8.5541 6.98267C8.63447 6.9023 8.74348 6.85714 8.85714 6.85714C8.97081 6.85714 9.07982 6.9023 9.16019 6.98267C9.24056 7.06304 9.28571 7.17205 9.28571 7.28571C9.28571 7.46057 9.61957 7.71429 10.1429 7.71429C10.6661 7.71429 11 7.46057 11 7.28571C11 7.11086 10.6661 6.85714 10.1429 6.85714C9.18157 6.85714 8.42857 6.29229 8.42857 5.57143C8.42857 4.96243 8.96814 4.46957 9.71428 4.32857V3.85714C9.71428 3.74348 9.75944 3.63447 9.83981 3.5541C9.92018 3.47372 10.0292 3.42857 10.1429 3.42857C10.2565 3.42857 10.3655 3.47372 10.4459 3.5541C10.5263 3.63447 10.5714 3.74348 10.5714 3.85714V4.32857C11.3176 4.46871 11.8571 4.96157 11.8571 5.57143C11.8571 5.68509 11.812 5.7941 11.7316 5.87447C11.6512 5.95485 11.5422 6 11.4286 6C11.3149 6 11.2059 5.95485 11.1255 5.87447C11.0452 5.7941 11 5.68509 11 5.57143C11 5.39657 10.6661 5.14286 10.1429 5.14286C9.61957 5.14286 9.28571 5.39657 9.28571 5.57143C9.28571 5.74629 9.61957 6 10.1429 6ZM8.42857 10.2857H11.8571C11.9708 10.2857 12.0798 10.3309 12.1602 10.4112C12.2406 10.4916 12.2857 10.6006 12.2857 10.7143C12.2857 10.8279 12.2406 10.937 12.1602 11.0173C12.0798 11.0977 11.9708 11.1429 11.8571 11.1429H8.42857C8.31491 11.1429 8.2059 11.0977 8.12552 11.0173C8.04515 10.937 8 10.8279 8 10.7143C8 10.6006 8.04515 10.4916 8.12552 10.4112C8.2059 10.3309 8.31491 10.2857 8.42857 10.2857ZM6.28571 1.71429H6.71428C6.82795 1.71429 6.93696 1.75944 7.01733 1.83981C7.0977 1.92018 7.14286 2.02919 7.14286 2.14286C7.14286 2.25652 7.0977 2.36553 7.01733 2.4459C6.93696 2.52628 6.82795 2.57143 6.71428 2.57143H6.28571C6.17205 2.57143 6.06304 2.52628 5.98267 2.4459C5.90229 2.36553 5.85714 2.25652 5.85714 2.14286C5.85714 2.02919 5.90229 1.92018 5.98267 1.83981C6.06304 1.75944 6.17205 1.71429 6.28571 1.71429ZM6.28571 10.2857H6.71428C6.82795 10.2857 6.93696 10.3309 7.01733 10.4112C7.0977 10.4916 7.14286 10.6006 7.14286 10.7143C7.14286 10.8279 7.0977 10.937 7.01733 11.0173C6.93696 11.0977 6.82795 11.1429 6.71428 11.1429H6.28571C6.17205 11.1429 6.06304 11.0977 5.98267 11.0173C5.90229 10.937 5.85714 10.8279 5.85714 10.7143C5.85714 10.6006 5.90229 10.4916 5.98267 10.4112C6.06304 10.3309 6.17205 10.2857 6.28571 10.2857ZM5 13.7143H15.2857C15.3994 13.7143 15.5084 13.7594 15.5888 13.8398C15.6691 13.9202 15.7143 14.0292 15.7143 14.1429C15.7143 14.2565 15.6691 14.3655 15.5888 14.4459C15.5084 14.5263 15.3994 14.5714 15.2857 14.5714H5C4.88634 14.5714 4.77733 14.5263 4.69695 14.4459C4.61658 14.3655 4.57143 14.2565 4.57143 14.1429C4.57143 14.0292 4.61658 13.9202 4.69695 13.8398C4.77733 13.7594 4.88634 13.7143 5 13.7143ZM5 15.4286H15.2857C15.3994 15.4286 15.5084 15.4737 15.5888 15.5541C15.6691 15.6345 15.7143 15.7435 15.7143 15.8571C15.7143 15.9708 15.6691 16.0798 15.5888 16.1602C15.5084 16.2406 15.3994 16.2857 15.2857 16.2857H5C4.88634 16.2857 4.77733 16.2406 4.69695 16.1602C4.61658 16.0798 4.57143 15.9708 4.57143 15.8571C4.57143 15.7435 4.61658 15.6345 4.69695 15.5541C4.77733 15.4737 4.88634 15.4286 5 15.4286ZM5 17.1429H13.5714C13.6851 17.1429 13.7941 17.188 13.8745 17.2684C13.9548 17.3488 14 17.4578 14 17.5714C14 17.6851 13.9548 17.7941 13.8745 17.8745C13.7941 17.9548 13.6851 18 13.5714 18H5C4.88634 18 4.77733 17.9548 4.69695 17.8745C4.61658 17.7941 4.57143 17.6851 4.57143 17.5714C4.57143 17.4578 4.61658 17.3488 4.69695 17.2684C4.77733 17.188 4.88634 17.1429 5 17.1429ZM5 18.8571H13.5714C13.6851 18.8571 13.7941 18.9023 13.8745 18.9827C13.9548 19.063 14 19.172 14 19.2857C14 19.3994 13.9548 19.5084 13.8745 19.5888C13.7941 19.6691 13.6851 19.7143 13.5714 19.7143H5C4.88634 19.7143 4.77733 19.6691 4.69695 19.5888C4.61658 19.5084 4.57143 19.3994 4.57143 19.2857C4.57143 19.172 4.61658 19.063 4.69695 18.9827C4.77733 18.9023 4.88634 18.8571 5 18.8571Z" fill="#1C2B54"/>
</g>
</g>
<defs>
<clipPath id="clip0_2_1396">
<rect width="24" height="24" fill="white"/>
</clipPath>
<clipPath id="clip1_2_1396">
<rect width="24" height="24" fill="white"/>
</clipPath>
</defs>
</svg>
