<svg width="52" height="52" viewBox="0 0 52 52" fill="none" xmlns="http://www.w3.org/2000/svg">
<rect width="52" height="52" rx="26" fill="#F6F6F9"/>
<g clip-path="url(#clip0_2_1716)">
<path d="M22.51 26.04C21.4 26.12 20.28 25.99 19.22 25.65C18.67 25.46 18.13 25.22 17.61 24.95C16.83 24.56 16.31 24.3 15.71 24.5C14.86 24.78 14.27 25.88 14.14 26.81C13.83 28.91 15.79 31.04 17.78 31.98C18.18 32.16 21.79 33.69 23.97 31.6C24.6 30.97 25.03 30.16 25.2 29.28C23.68 28.93 22.58 27.61 22.52 26.05L22.51 26.04ZM19.01 31.08C18.95 31.08 18.89 31.07 18.82 31.06C18.33 31 17.85 30.84 17.42 30.6C16.57 30.11 15.93 29.34 15.6 28.41C15.53 28.21 15.63 27.99 15.83 27.92C16.03 27.85 16.25 27.95 16.32 28.15C16.58 28.9 17.1 29.53 17.79 29.93C18.18 30.15 18.62 30.28 19.06 30.31C19.27 30.33 19.43 30.51 19.41 30.72C19.39 30.93 19.21 31.09 19 31.07L19.01 31.08Z" fill="#1C2B54"/>
<path d="M26 12C18.27 12 12 18.27 12 26C12 33.73 18.27 40 26 40C33.73 40 40 33.73 40 26C40 18.27 33.73 12 26 12ZM13 26C13 22.6 14.33 19.5 16.48 17.18L34.82 35.52C32.5 37.67 29.41 39 26 39C18.83 39 13 33.17 13 26ZM35.52 34.82L17.18 16.48C19.5 14.33 22.59 13 26 13C33.17 13 39 18.83 39 26C39 29.4 37.67 32.5 35.52 34.82Z" fill="#1C2B54"/>
<path d="M31.91 25.06C31.06 24.79 30.14 24.78 29.29 25.04C29.47 25.73 29.42 26.43 29.19 27.07L33.35 31.23V31.21C33.35 30.76 33.27 30.32 33.09 29.91C33 29.72 33.08 29.49 33.27 29.4C33.46 29.31 33.69 29.39 33.78 29.58C33.78 29.58 33.78 29.6 33.79 29.61C34.01 30.12 34.13 30.67 34.12 31.23C34.12 31.46 34.08 31.7 34.04 31.92L34.82 32.7C35.03 31.94 35.14 31.14 35.11 30.4C35.09 29.96 34.79 26.05 31.92 25.08L31.91 25.06Z" fill="#1C2B54"/>
<path d="M28.82 32.01C28.9 32.59 28.94 33.1801 28.94 33.7701C28.95 34.6501 28.96 35.22 29.41 35.66C30.05 36.29 31.29 36.3 32.19 35.99C32.58 35.85 32.92 35.62 33.24 35.35L28.44 30.55C28.61 31.02 28.74 31.51 28.82 32.01Z" fill="#1C2B54"/>
<path d="M28.62 26.25C28.81 24.78 27.77 23.43 26.3 23.25C26 23.21 25.7 23.24 25.42 23.29L28.58 26.45C28.59 26.38 28.62 26.32 28.63 26.25H28.62Z" fill="#1C2B54"/>
<path d="M23.29 25.5699C23.1 27.0399 24.14 28.3899 25.61 28.5699C25.89 28.6099 26.16 28.5799 26.42 28.5399L23.32 25.4399C23.32 25.4399 23.3 25.5299 23.29 25.5699Z" fill="#1C2B54"/>
<path d="M25.72 15.7401C25.37 15.9501 22.54 17.7001 22.43 20.3101L24.8 22.6801C25.79 22.3301 26.92 22.4301 27.84 23.0401C28.41 22.0801 29.16 21.2501 30.05 20.5701C30.53 20.2301 31.03 19.9201 31.55 19.6501C32.32 19.2401 32.83 18.9601 33.01 18.3601C33.27 17.5001 32.71 16.3901 32.03 15.7401C31.86 15.5801 31.67 15.4501 31.47 15.3301C31.35 15.2701 31.22 15.2101 31.09 15.1501C29.5 14.4501 27.28 14.8401 25.7 15.7301L25.72 15.7401ZM29.88 16.3801C29.83 16.5801 29.63 16.7101 29.42 16.6601C28.65 16.4601 27.84 16.5501 27.12 16.9001C26.72 17.1101 26.37 17.4001 26.09 17.7501C25.96 17.9201 25.72 17.9501 25.56 17.8301C25.39 17.7001 25.36 17.4701 25.48 17.3001C25.48 17.3001 25.48 17.2901 25.49 17.2801C25.83 16.8401 26.27 16.4801 26.76 16.2301C27.64 15.7901 28.64 15.6901 29.59 15.9301C29.79 15.9801 29.92 16.1801 29.87 16.3901L29.88 16.3801Z" fill="#1C2B54"/>
</g>
<defs>
<clipPath id="clip0_2_1716">
<rect width="28" height="28" fill="white" transform="translate(12 12)"/>
</clipPath>
</defs>
</svg>
