<?xml version="1.0" encoding="UTF-8"?>
<svg id="Layer_1" xmlns="http://www.w3.org/2000/svg" xmlns:xlink="http://www.w3.org/1999/xlink" version="1.1" viewBox="0 0 24 24">
  <!-- Generator: Adobe Illustrator 30.5.1, SVG Export Plug-In . SVG Version: 2.1.4 Build 3)  -->
  <defs>
    <style>
      .st0 {
        fill: none;
      }

      .st1 {
        fill: #1c2b54;
      }

      .st2 {
        clip-path: url(#clippath);
      }
    </style>
    <clipPath id="clippath">
      <rect class="st0" width="24" height="24"/>
    </clipPath>
  </defs>
  <g class="st2">
    <g>
      <path class="st1" d="M6.7,1.7c-1.2,0-2.4.8-2.8,2h0c0,.1-2.3.1-2.3.1-.5,0-.9.4-.9.9s.4.9.9.9h2.3c.4,1.3,1.5,2.1,2.8,2.1s3-1.3,3-3-1.3-3-3-3Z"/>
      <path class="st1" d="M22.3,3.8h-10.3c-.5,0-.9.4-.9.9s.4.9.9.9h10.3c.5,0,.9-.4.9-.9s-.4-.9-.9-.9Z"/>
      <path class="st1" d="M14.1,9c-1.2,0-2.4.8-2.8,2h0c0,.1-9.6.1-9.6.1-.5,0-.9.4-.9.9s.4.9.9.9h9.7c.4,1.3,1.5,2.1,2.8,2.1s3-1.3,3-3-1.3-3-3-3Z"/>
      <path class="st1" d="M22.3,11.1h-3c-.5,0-.9.4-.9.9s.4.9.9.9h3c.5,0,.9-.4.9-.9s-.4-.9-.9-.9Z"/>
      <path class="st1" d="M6.7,16.4c-1.2,0-2.4.8-2.8,2h0c0,.1-2.3.1-2.3.1-.5,0-.9.4-.9.9s.4.9.9.9h2.3c.4,1.3,1.5,2.1,2.8,2.1s3-1.3,3-3-1.3-3-3-3Z"/>
      <path class="st1" d="M22.3,18.5h-10.3c-.5,0-.9.4-.9.9s.4.9.9.9h10.3c.5,0,.9-.4.9-.9s-.4-.9-.9-.9Z"/>
    </g>
  </g>
</svg>