<svg width="85" height="85" viewBox="0 0 85 85" fill="none" xmlns="http://www.w3.org/2000/svg">
<path d="M0 42.5C0 19.0279 19.0279 0 42.5 0C65.9721 0 85 19.0279 85 42.5C85 65.9721 65.9721 85 42.5 85C19.0279 85 0 65.9721 0 42.5Z" fill="#F0F4FA"/>
<g clip-path="url(#clip0_2_1788)">
<path d="M44.5289 39.1895H48.0483C48.8436 39.1885 49.6062 38.8722 50.1686 38.3098C50.731 37.7474 51.0473 36.9848 51.0483 36.1895V31.4587C51.0473 30.6634 50.731 29.9008 50.1686 29.3384C49.6062 28.776 48.8436 28.4596 48.0483 28.4587H44.5289C44.33 28.4588 44.1393 28.5378 43.9986 28.6784C43.858 28.8191 43.7789 29.0098 43.7789 29.2087V38.4395C43.7789 38.6384 43.858 38.8291 43.9986 38.9698C44.1393 39.1104 44.33 39.1894 44.5289 39.1895ZM45.2789 29.9587H48.0483C48.446 29.9591 48.8273 30.1173 49.1085 30.3985C49.3897 30.6797 49.5479 31.061 49.5483 31.4587V36.1895C49.5479 36.5872 49.3897 36.9685 49.1085 37.2497C48.8273 37.5309 48.446 37.6891 48.0483 37.6895H45.2789V29.9587Z" fill="#1C2B54"/>
<path d="M54.5096 29.9587H59.125C59.3239 29.9587 59.5147 29.8797 59.6553 29.7391C59.796 29.5984 59.875 29.4077 59.875 29.2087C59.875 29.0098 59.796 28.8191 59.6553 28.6784C59.5147 28.5378 59.3239 28.4587 59.125 28.4587H54.5096C54.0049 28.4593 53.5209 28.66 53.164 29.017C52.807 29.3739 52.6063 29.8579 52.6057 30.3627V37.2855C52.6063 37.7903 52.807 38.2743 53.164 38.6312C53.5209 38.9882 54.0049 39.1889 54.5096 39.1895H59.125C59.3239 39.1895 59.5147 39.1105 59.6553 38.9698C59.796 38.8292 59.875 38.6384 59.875 38.4395C59.875 38.2406 59.796 38.0498 59.6553 37.9092C59.5147 37.7685 59.3239 37.6895 59.125 37.6895H54.5096C54.4026 37.6893 54.2999 37.6467 54.2242 37.571C54.1485 37.4953 54.1059 37.3926 54.1057 37.2855V34.5741H59.125C59.3239 34.5741 59.5147 34.4951 59.6553 34.3544C59.796 34.2138 59.875 34.023 59.875 33.8241C59.875 33.6252 59.796 33.4344 59.6553 33.2938C59.5147 33.1531 59.3239 33.0741 59.125 33.0741H54.1057V30.3627C54.1059 30.2556 54.1485 30.1529 54.2242 30.0772C54.2999 30.0015 54.4026 29.9589 54.5096 29.9587Z" fill="#1C2B54"/>
<path d="M32.6443 39.1895C32.8432 39.1895 33.034 39.1105 33.1746 38.9698C33.3153 38.8292 33.3943 38.6384 33.3943 38.4395V29.2088C33.3943 29.0459 33.3413 28.8874 33.2433 28.7573C33.1453 28.6272 33.0076 28.5325 32.851 28.4877C32.6944 28.4428 32.5275 28.4501 32.3754 28.5085C32.2233 28.5669 32.0944 28.6733 32.0082 28.8114L29.7597 32.4091L27.5112 28.8114C27.4249 28.6732 27.296 28.5668 27.144 28.5084C26.9919 28.45 26.8249 28.4426 26.6683 28.4875C26.5117 28.5324 26.374 28.6271 26.2759 28.7572C26.1779 28.8874 26.1249 29.0459 26.125 29.2088V38.4395C26.125 38.6384 26.204 38.8292 26.3447 38.9698C26.4853 39.1105 26.6761 39.1895 26.875 39.1895C27.0739 39.1895 27.2647 39.1105 27.4053 38.9698C27.546 38.8292 27.625 38.6384 27.625 38.4395V31.8239L29.1235 34.2215C29.1955 34.3232 29.2908 34.4061 29.4015 34.4634C29.5122 34.5206 29.635 34.5505 29.7596 34.5505C29.8842 34.5505 30.007 34.5206 30.1177 34.4634C30.2284 34.4061 30.3237 34.3232 30.3957 34.2215L31.8942 31.8239V38.4395C31.8942 38.6384 31.9733 38.8292 32.1139 38.9698C32.2546 39.1105 32.4454 39.1895 32.6443 39.1895Z" fill="#1C2B54"/>
<path d="M42.221 36.9395V30.7087C42.2204 30.1122 41.9831 29.5403 41.5613 29.1185C41.1395 28.6967 40.5676 28.4594 39.971 28.4587H37.2017C36.6052 28.4594 36.0333 28.6967 35.6115 29.1185C35.1896 29.5403 34.9524 30.1122 34.9517 30.7087V36.9395C34.9524 37.536 35.1896 38.1079 35.6115 38.5297C36.0333 38.9515 36.6052 39.1888 37.2017 39.1895H39.971C40.5676 39.1888 41.1395 38.9516 41.5613 38.5297C41.9831 38.1079 42.2204 37.536 42.221 36.9395ZM36.4518 36.9395V30.7087C36.452 30.5099 36.5311 30.3193 36.6717 30.1787C36.8123 30.0381 37.0029 29.959 37.2018 29.9587H39.971C40.1699 29.959 40.3605 30.0381 40.5011 30.1787C40.6417 30.3193 40.7208 30.5099 40.721 30.7087V36.9395C40.7208 37.1383 40.6417 37.3289 40.5011 37.4695C40.3605 37.6101 40.1699 37.6892 39.971 37.6895H37.2017C37.0029 37.6892 36.8123 37.6101 36.6717 37.4695C36.5311 37.3289 36.452 37.1383 36.4518 36.9395Z" fill="#1C2B54"/>
<path d="M61.75 24.8242H24.25C23.6535 24.8249 23.0815 25.0621 22.6597 25.4839C22.2379 25.9058 22.0007 26.4777 22 27.0742V40.5742C22.0007 41.1708 22.2379 41.7427 22.6597 42.1645C23.0815 42.5863 23.6535 42.8236 24.25 42.8242H35.2675C35.4664 42.8242 35.6571 42.7452 35.7978 42.6045C35.9384 42.4639 36.0175 42.2731 36.0175 42.0742C36.0175 41.8753 35.9384 41.6845 35.7978 41.5439C35.6571 41.4032 35.4664 41.3242 35.2675 41.3242H24.25C24.0512 41.324 23.8606 41.2449 23.72 41.1043C23.5794 40.9637 23.5003 40.7731 23.5 40.5742V27.0742C23.5003 26.8754 23.5794 26.6848 23.72 26.5442C23.8606 26.4036 24.0512 26.3245 24.25 26.3242H61.75C61.9488 26.3245 62.1394 26.4036 62.28 26.5442C62.4206 26.6848 62.4997 26.8754 62.5 27.0742V40.5742C62.4997 40.7731 62.4206 40.9637 62.28 41.1043C62.1394 41.2449 61.9488 41.324 61.75 41.3242H44.3125C44.1136 41.3242 43.9228 41.4032 43.7822 41.5439C43.6415 41.6845 43.5625 41.8753 43.5625 42.0742C43.5625 42.2731 43.6415 42.4639 43.7822 42.6045C43.9228 42.7452 44.1136 42.8242 44.3125 42.8242H61.75C62.3465 42.8236 62.9185 42.5863 63.3403 42.1645C63.7621 41.7427 63.9993 41.1708 64 40.5742V27.0742C63.9993 26.4777 63.7621 25.9058 63.3403 25.4839C62.9185 25.0621 62.3465 24.8249 61.75 24.8242Z" fill="#1C2B54"/>
<path d="M48.3552 49.8381C48.2215 49.5342 48.0244 49.2624 47.7771 49.041C47.5298 48.8195 47.238 48.6534 46.9212 48.5539C46.6045 48.4545 46.2702 48.4238 45.9406 48.4641C45.6111 48.5044 45.294 48.6147 45.0106 48.7876C44.7265 48.3109 44.2821 47.9508 43.7569 47.7718C43.2316 47.5928 42.6599 47.6066 42.1438 47.8106V42.9304C42.1438 42.3055 41.8956 41.7062 41.4537 41.2643C41.0118 40.8224 40.4125 40.5742 39.7876 40.5742C39.1627 40.5742 38.5634 40.8225 38.1215 41.2644C37.6797 41.7062 37.4315 42.3055 37.4315 42.9304L37.4314 52.2068H36.5752C35.9505 52.2075 35.3516 52.4559 34.9099 52.8977C34.4681 53.3394 34.2197 53.9383 34.219 54.563V58.5785C34.2163 59.601 34.4771 60.6069 34.9765 61.4992C35.4758 62.3915 36.1967 63.14 37.0696 63.6725C37.1692 63.7399 37.2502 63.8315 37.3049 63.9386C37.3597 64.0457 37.3864 64.1649 37.3827 64.2852V66.0741C37.3866 66.2704 37.4674 66.4574 37.6076 66.5948C37.7478 66.7323 37.9364 66.8093 38.1327 66.8092C38.3291 66.8092 38.5176 66.7323 38.6578 66.5948C38.7981 66.4573 38.8788 66.2704 38.8827 66.0741V64.2852C38.8857 63.909 38.7931 63.5382 38.6135 63.2076C38.434 62.8771 38.1734 62.5975 37.8562 62.3952C37.202 61.9963 36.6616 61.4356 36.2872 60.767C35.9129 60.0985 35.7172 59.3447 35.719 58.5785V54.563C35.7193 54.336 35.8096 54.1184 35.9701 53.9579C36.1306 53.7974 36.3482 53.7071 36.5752 53.7068H37.4314V56.9723C37.4353 57.1687 37.516 57.3557 37.6562 57.4932C37.7964 57.6308 37.985 57.7078 38.1814 57.7078C38.3779 57.7078 38.5664 57.6307 38.7067 57.4932C38.8469 57.3557 38.9276 57.1686 38.9314 56.9722V42.9303C38.9348 42.7055 39.0265 42.491 39.1867 42.3332C39.3469 42.1754 39.5628 42.0869 39.7876 42.087C40.0125 42.087 40.2284 42.1754 40.3885 42.3332C40.5487 42.491 40.6404 42.7055 40.6438 42.9304C40.6434 44.643 40.6441 50.7336 40.6438 52.324C40.6477 52.5204 40.7284 52.7074 40.8686 52.8449C41.0088 52.9825 41.1974 53.0595 41.3938 53.0595C41.5903 53.0595 41.7788 52.9824 41.9191 52.8449C42.0593 52.7074 42.14 52.5203 42.1438 52.3239V50C42.1471 49.7751 42.2387 49.5605 42.399 49.4026C42.5592 49.2447 42.7751 49.1561 43 49.1562C43.225 49.1562 43.4409 49.2447 43.6011 49.4026C43.7613 49.5605 43.853 49.7751 43.8562 50.0001C43.8576 50.4971 43.8552 51.8096 43.8562 52.324C43.8601 52.5204 43.9408 52.7074 44.081 52.8449C44.2212 52.9825 44.4098 53.0595 44.6062 53.0595C44.8027 53.0595 44.9912 52.9824 45.1315 52.8449C45.2717 52.7074 45.3524 52.5203 45.3562 52.3239V50.8031C45.3562 50.576 45.4464 50.3583 45.607 50.1977C45.7676 50.0371 45.9853 49.9469 46.2124 49.9469C46.4395 49.9469 46.6573 50.0371 46.8178 50.1977C46.9784 50.3583 47.0686 50.576 47.0686 50.8031V52.324C47.0716 52.521 47.1519 52.7089 47.2922 52.8472C47.4325 52.9854 47.6216 53.0629 47.8186 53.0629C48.0157 53.0629 48.2048 52.9854 48.3451 52.8471C48.4854 52.7089 48.5657 52.5209 48.5686 52.3239C48.5072 51.8045 48.7199 51.1871 49.2451 51.0862C49.3695 51.0604 49.4982 51.0625 49.6218 51.0923C49.7454 51.1221 49.8608 51.1789 49.9599 51.2586C50.0589 51.3383 50.1391 51.439 50.1946 51.5533C50.2501 51.6677 50.2796 51.7929 50.281 51.9201V58.5785C50.2829 59.3447 50.0872 60.0985 49.7128 60.767C49.3384 61.4356 48.7981 61.9963 48.1438 62.3951C46.8516 63.1203 47.1379 64.8336 47.1174 66.0741C47.1204 66.271 47.2008 66.4588 47.3411 66.597C47.4814 66.7351 47.6705 66.8125 47.8674 66.8125C48.0643 66.8125 48.2533 66.7351 48.3936 66.5969C48.5339 66.4588 48.6143 66.271 48.6173 66.0741V64.2852C48.6136 64.1649 48.6404 64.0457 48.6951 63.9386C48.7499 63.8315 48.8308 63.7399 48.9304 63.6725C49.8033 63.14 50.5243 62.3915 51.0236 61.4992C51.5229 60.6069 51.7838 59.601 51.781 58.5785V51.9201C51.7813 51.5172 51.6777 51.121 51.4803 50.7698C51.2829 50.4186 50.9983 50.1241 50.654 49.9149C50.3097 49.7057 49.9173 49.5887 49.5147 49.5752C49.112 49.5618 48.7127 49.6523 48.3552 49.8381Z" fill="#1C2B54"/>
</g>
<defs>
<clipPath id="clip0_2_1788">
<rect width="48" height="48" fill="white" transform="translate(21 24)"/>
</clipPath>
</defs>
</svg>
