<svg width="32" height="32" viewBox="0 0 32 32" fill="none" xmlns="http://www.w3.org/2000/svg">
<g clip-path="url(#clip0_92_9201)">
<path d="M6.93475 25.5996H5.33484C4.45126 25.5996 3.73492 26.3159 3.73492 27.1995V28.2662C3.73492 29.1497 4.45126 29.8661 5.33484 29.8661H6.93475C7.81833 29.8661 8.53466 29.1497 8.53466 28.2662V27.1995C8.53466 26.3159 7.81833 25.5996 6.93475 25.5996ZM7.46803 28.2661C7.46803 28.5606 7.22923 28.7994 6.93475 28.7994H5.33484C5.04029 28.7994 4.80155 28.5606 4.80155 28.2661V27.1995C4.80155 26.9049 5.04035 26.6662 5.33484 26.6662H6.93475C7.2293 26.6662 7.46803 26.9049 7.46803 27.1995V28.2661Z" fill="#1C2B54"/>
<path d="M12.8011 22.3994H11.2012C10.3175 22.3994 9.60126 23.1158 9.60126 23.9993V28.2658C9.60126 29.1494 10.3176 29.8657 11.2012 29.8657H12.8011C13.6847 29.8657 14.401 29.1494 14.401 28.2658V23.9993C14.401 23.1157 13.6847 22.3994 12.8011 22.3994ZM13.3344 28.2657C13.3344 28.5603 13.0956 28.799 12.8011 28.799H11.2012C10.9067 28.799 10.6679 28.5602 10.6679 28.2657V23.9993C10.6679 23.7047 10.9067 23.466 11.2012 23.466H12.8011C13.0957 23.466 13.3344 23.7047 13.3344 23.9993V28.2657Z" fill="#1C2B54"/>
<path d="M17.0675 29.8657H18.6674C19.551 29.8657 20.2673 29.1494 20.2673 28.2658V20.7996C20.2673 19.916 19.551 19.1997 18.6674 19.1997H17.0675C16.1839 19.1997 15.4676 19.916 15.4676 20.7996V28.2659C15.4676 29.1495 16.1839 29.8657 17.0675 29.8657ZM16.5342 20.7996C16.5342 20.5051 16.773 20.2663 17.0675 20.2663H18.6674C18.962 20.2663 19.2007 20.5051 19.2007 20.7996V28.2659C19.2007 28.5604 18.962 28.7992 18.6674 28.7992H17.0675C16.773 28.7992 16.5342 28.5604 16.5342 28.2659V20.7996Z" fill="#1C2B54"/>
<path d="M22.9339 16C22.0503 16 21.334 16.7163 21.334 17.5999V28.266C21.334 29.1496 22.0503 29.8659 22.9339 29.8659H24.5338C25.4174 29.8659 26.1337 29.1496 26.1337 28.266V17.5999C26.1337 16.7163 25.4174 16 24.5338 16H22.9339ZM25.0671 17.5999V28.266C25.0671 28.5606 24.8284 28.7993 24.5338 28.7993H22.9339C22.6394 28.7993 22.4006 28.5605 22.4006 28.266V17.5999C22.4006 17.3054 22.6394 17.0666 22.9339 17.0666H24.5338C24.8284 17.0666 25.0671 17.3054 25.0671 17.5999Z" fill="#1C2B54"/>
<path d="M32.0001 28.2661V14.4002C32.0001 13.5166 31.2838 12.8003 30.4001 12.8003H28.8002C27.9167 12.8003 27.2003 13.5166 27.2003 14.4002V28.2661C27.2003 29.1497 27.9167 29.866 28.8002 29.866H30.4001C31.2838 29.866 32.0001 29.1497 32.0001 28.2661ZM28.2669 28.2661V14.4002C28.2669 14.1057 28.5057 13.8669 28.8002 13.8669H30.4001C30.6947 13.8669 30.9334 14.1057 30.9334 14.4002V28.2661C30.9334 28.5607 30.6947 28.7994 30.4001 28.7994H28.8002C28.5057 28.7994 28.2669 28.5606 28.2669 28.2661Z" fill="#1C2B54"/>
<path d="M14.3621 15.6881C14.6505 15.9166 14.9782 16.0906 15.3289 16.2017C15.855 16.3822 16.4073 16.4746 16.9635 16.4753C17.4261 16.4538 17.8494 16.7342 18.0099 17.1686C18.0804 17.3165 18.123 17.4761 18.1357 17.6395C18.1564 17.9179 18.3883 18.1333 18.6675 18.1333H18.7064C18.8479 18.1234 18.9796 18.0575 19.0723 17.9502C19.1651 17.8429 19.2113 17.7031 19.2007 17.5616C19.1792 17.2655 19.1024 16.9761 18.9741 16.7084C18.6518 15.9104 17.8714 15.3933 17.011 15.4076C16.5578 15.4118 16.107 15.3397 15.6777 15.1943C15.3557 15.1143 15.071 14.926 14.8714 14.661C16.1377 14.5815 17.3476 14.1093 18.3331 13.3102C19.0888 12.717 19.5345 11.8129 19.5448 10.8522C19.5478 10.1988 19.4133 9.55212 19.1501 8.95416C18.7214 7.82666 17.8079 6.95214 16.6628 6.57297C15.9867 6.30805 15.2319 6.32861 14.5712 6.63003C13.779 6.95639 13.2672 7.73429 13.2811 8.59099C13.2839 9.04628 13.2094 9.49869 13.0609 9.92904C12.9817 10.2483 12.7953 10.5307 12.5329 10.729C12.4542 9.46219 11.9806 8.25182 11.1789 7.26787C10.5861 6.51423 9.68438 6.06894 8.72568 6.05619C8.07178 6.05356 7.42469 6.18875 6.8266 6.45298C5.69641 6.88008 4.81927 7.79441 4.43954 8.94141C4.17937 9.61662 4.20168 10.368 4.50141 11.0266C4.82646 11.8212 5.60504 12.3357 6.46343 12.3231C6.91941 12.3158 7.37301 12.3906 7.80255 12.5439C8.12165 12.6219 8.40414 12.8074 8.6025 13.0692C7.33707 13.1494 6.1282 13.6225 5.14457 14.4227C4.38955 15.0159 3.94307 15.9185 3.9297 16.8786C3.92613 17.5331 4.05963 18.1811 4.32167 18.7809C4.75021 19.9094 5.66479 20.7846 6.81116 21.1631C7.13652 21.2792 7.479 21.3404 7.82442 21.3439C8.19584 21.345 8.56282 21.2624 8.89799 21.1023C9.68982 20.7758 10.2015 19.9983 10.188 19.1418C10.1854 18.6858 10.261 18.2327 10.4115 17.8022C10.4906 17.4832 10.6766 17.2009 10.9384 17.0022C11.0171 18.2689 11.4895 19.4794 12.2897 20.4644C12.6526 20.9258 13.1371 21.2768 13.6886 21.4777C13.9663 21.5757 14.271 21.4301 14.3691 21.1524C14.4672 20.8746 14.3216 20.57 14.0438 20.4718C13.6785 20.3367 13.3587 20.1012 13.1212 19.7924C12.4856 19.0106 12.0997 18.0557 12.0135 17.0518C12.9601 16.9689 13.8208 16.4691 14.3621 15.6881ZM14.0661 10.2783C14.2552 9.73461 14.3504 9.16277 14.3477 8.58718C14.3383 8.14189 14.6144 7.74041 15.0335 7.58992C15.4424 7.41193 15.9063 7.40868 16.3177 7.58086C17.1725 7.86115 17.8526 8.51624 18.1645 9.35995C18.3708 9.82148 18.4768 10.3215 18.4755 10.8271C18.4756 11.4753 18.1735 12.0867 17.6584 12.4803C16.8765 13.1141 15.9227 13.4993 14.9199 13.5863C14.8357 12.6404 14.3358 11.7807 13.5552 11.2398C13.7823 10.9529 13.9554 10.6271 14.0661 10.2783ZM8.1464 11.5368C7.60475 11.3438 7.0329 11.2495 6.45793 11.2585C6.01227 11.2684 5.6106 10.9909 5.46224 10.5705C5.28412 10.1624 5.27868 9.69955 5.4473 9.28739C5.72797 8.432 6.38456 7.75203 7.22958 7.44161C7.69155 7.23275 8.1924 7.12376 8.69937 7.12163C9.34653 7.12438 9.95562 7.42768 10.3478 7.9424C10.9844 8.72392 11.3711 9.67887 11.4577 10.6831C10.5113 10.7662 9.65082 11.2652 9.10848 12.0451C8.82193 11.8174 8.49551 11.6451 8.14584 11.5369L8.1464 11.5368ZM9.40502 17.4565C9.21547 17.9997 9.11954 18.5712 9.12129 19.1465C9.13054 19.5916 8.85443 19.9929 8.43545 20.1433C8.02816 20.3209 7.56612 20.3253 7.15552 20.1555C6.3 19.8752 5.61954 19.2191 5.30818 18.3743C5.10101 17.9127 4.99326 17.4126 4.99195 16.9067C4.9942 16.2576 5.29837 15.6465 5.81484 15.2534C6.59568 14.6187 7.54881 14.2325 8.55126 14.1447C8.61488 14.8936 8.94173 15.5957 9.47389 16.1265C9.60982 16.2616 9.75744 16.3846 9.91493 16.4939C9.68651 16.7803 9.51345 17.1067 9.40458 17.4565H9.40502ZM11.7345 16.0001C10.9724 15.9995 10.2685 15.5924 9.88787 14.9321C9.50733 14.2718 9.50789 13.4586 9.8895 12.7989C10.271 12.1392 10.9756 11.7331 11.7377 11.7337C12.9158 11.7346 13.8702 12.6904 13.8693 13.8685C13.8685 15.0466 12.9126 16.001 11.7345 16.0001Z" fill="#1C2B54"/>
<path d="M7.82379 24.929C8.10152 25.0271 8.40619 24.8815 8.50431 24.6037C8.60237 24.326 8.45675 24.0213 8.17902 23.9232C3.06505 22.1151 0.122583 16.7569 1.34095 11.4714C2.55932 6.18586 7.55049 2.65649 12.9399 3.26946C18.3293 3.88243 22.4003 8.44261 22.4006 13.8667C22.4006 14.0374 22.3952 14.2134 22.3899 14.384C22.3856 14.5255 22.4377 14.663 22.5349 14.766C22.632 14.8691 22.7662 14.9293 22.9077 14.9333C23.2 14.9364 23.4424 14.7079 23.4565 14.416C23.4618 14.2347 23.4672 14.048 23.4672 13.8667C23.4669 7.90008 18.9886 2.88392 13.0603 2.2097C7.13189 1.53549 1.64163 5.41803 0.301573 11.2321C-1.03848 17.0463 2.19841 22.9403 7.82379 24.929Z" fill="#1C2B54"/>
<path d="M11.7345 14.4001C12.0291 14.4001 12.2679 14.1613 12.2679 13.8668C12.2679 13.5723 12.0291 13.3335 11.7345 13.3335C11.44 13.3335 11.2012 13.5723 11.2012 13.8668C11.2012 14.1613 11.44 14.4001 11.7345 14.4001Z" fill="#1C2B54"/>
</g>
<defs>
<clipPath id="clip0_92_9201">
<rect width="32" height="32" fill="white"/>
</clipPath>
</defs>
</svg>
