<svg width="52" height="52" viewBox="0 0 52 52" fill="none" xmlns="http://www.w3.org/2000/svg">
<rect width="52" height="52" rx="26" fill="#F6F6F9"/>
<g clip-path="url(#clip0_2_1726)">
<path d="M26 12C18.27 12 12 18.27 12 26C12 33.73 18.27 40 26 40C33.73 40 40 33.73 40 26C40 18.27 33.73 12 26 12ZM13 26C13 22.6 14.33 19.5 16.48 17.18L34.82 35.52C32.5 37.67 29.41 39 26 39C18.83 39 13 33.17 13 26ZM35.52 34.82L17.18 16.48C19.5 14.33 22.59 13 26 13C33.17 13 39 18.83 39 26C39 29.4 37.67 32.5 35.52 34.82Z" fill="#1C2B54"/>
<path d="M27.64 16.6499C27.41 16.5399 27.13 16.5699 26.93 16.7299L22.45 20.3199L28.02 25.8899V17.2599C28.02 16.9999 27.87 16.7699 27.64 16.6499Z" fill="#1C2B54"/>
<path d="M17.26 21.97C16.52 21.97 15.92 22.57 15.92 23.31V28.69C15.92 29.43 16.52 30.03 17.26 30.03H20.38L26.92 35.26C27.04 35.36 27.19 35.41 27.34 35.41C27.44 35.41 27.54 35.39 27.63 35.34C27.86 35.23 28.01 34.99 28.01 34.73V30.13L19.85 21.97H17.26Z" fill="#1C2B54"/>
<path d="M34 31.88C35.35 30.22 36.08 28.17 36.08 26C36.08 23.48 35.1 21.12 33.31 19.35C33.05 19.09 32.62 19.09 32.36 19.35C32.1 19.61 32.1 20.04 32.36 20.3C33.89 21.82 34.73 23.84 34.73 25.99C34.73 27.8 34.13 29.51 33.03 30.91L33.99 31.87L34 31.88Z" fill="#1C2B54"/>
<path d="M32.09 29.9699C32.93 28.8299 33.39 27.4599 33.39 25.9999C33.39 24.1899 32.69 22.4999 31.41 21.2499C31.15 20.9899 30.72 20.9899 30.46 21.2499C30.2 21.5099 30.2 21.9399 30.46 22.1999C31.48 23.1999 32.04 24.5499 32.04 25.9999C32.04 27.0899 31.72 28.1299 31.12 29.0099L32.08 29.9699H32.09Z" fill="#1C2B54"/>
</g>
<defs>
<clipPath id="clip0_2_1726">
<rect width="28" height="28" fill="white" transform="translate(12 12)"/>
</clipPath>
</defs>
</svg>
