<svg width="48" height="48" viewBox="0 0 48 48" fill="none" xmlns="http://www.w3.org/2000/svg">
<path d="M8.92377 8.68313C9.31293 8.68313 9.6283 8.36766 9.6283 7.97859V2.1135C9.6283 1.725 9.94433 1.40897 10.3328 1.40897H29.7721C30.1606 1.40897 30.4766 1.725 30.4766 2.1135V22.591C30.4766 22.9801 30.792 23.2956 31.1811 23.2956C31.5703 23.2956 31.8857 22.9801 31.8857 22.591V2.1135C31.8855 0.948094 30.9374 0 29.7721 0H10.3327C9.16743 0 8.21924 0.948094 8.21924 2.1135V7.97859C8.21924 8.36766 8.53461 8.68313 8.92377 8.68313Z" fill="#1C2B54"/>
<path d="M39.0762 4.57805H38.8976V2.34979C38.8976 1.96073 38.5822 1.64526 38.1931 1.64526H35.3247C34.9356 1.64526 34.6202 1.96073 34.6202 2.34979V4.57805H34.4416C34.0524 4.57805 33.7371 4.89342 33.7371 5.28258V12.8311C33.7371 13.2202 34.0524 13.5357 34.4416 13.5357H34.8498V16.1654C34.8498 16.5544 35.1651 16.8699 35.5543 16.8699H36.0545V41.7571C36.0545 44.4226 33.8859 46.5912 31.2203 46.5912C28.5547 46.5912 26.3862 44.4226 26.3862 41.7571V41.3564H28.0296C28.4188 41.3564 28.7342 41.0409 28.7342 40.6518V36.6605H29.772C30.9373 36.6605 31.8855 35.7124 31.8855 34.547V25.4092C31.8855 25.0201 31.5701 24.7047 31.181 24.7047C30.7918 24.7047 30.4764 25.0201 30.4764 25.4092V34.547C30.4764 34.9355 30.1604 35.2515 29.7719 35.2515H10.3327C9.94424 35.2515 9.62821 34.9355 9.62821 34.547V10.7967C9.62821 10.4076 9.31283 10.0921 8.92368 10.0921C8.53452 10.0921 8.21915 10.4076 8.21915 10.7967V34.5469C8.21915 35.7123 9.16724 36.6604 10.3326 36.6604H22.6293V40.6517C22.6293 41.0408 22.9446 41.3563 23.3338 41.3563H24.9771V41.757C24.9771 45.1995 27.7778 48 31.2202 48C34.6626 48 37.4633 45.1995 37.4633 41.757V16.8698H37.9634C38.3526 16.8698 38.6679 16.5544 38.6679 16.1653V13.5356H39.0761C39.4653 13.5356 39.7806 13.2201 39.7806 12.831V5.28248C39.7807 4.89342 39.4654 4.57805 39.0762 4.57805ZM24.0384 36.6604H27.3253V39.9473H24.0384V36.6604ZM38.3717 5.98701V12.1266H35.1461V5.98701H38.3717ZM36.0292 3.05423H37.4886V4.57795H36.0292V3.05423ZM37.2591 15.4607H36.2589V13.5356H37.2591V15.4607Z" fill="#1C2B54"/>
<path d="M21.2864 15.0308H20.1005L21.4116 12.9666C21.8844 12.1618 20.749 11.4415 20.2222 12.2111L18.2237 15.3576C17.9222 15.8087 18.276 16.4524 18.8183 16.4397H20.0043L18.6932 18.5039C18.2208 19.3062 19.3533 20.0303 19.8826 19.2593L21.8811 16.1129C22.1827 15.6618 21.8288 15.0181 21.2864 15.0308Z" fill="#1C2B54"/>
<path d="M20.0524 8.448C16.0342 8.448 12.7652 11.7171 12.7652 15.7353C12.7652 19.7534 16.0342 23.0225 20.0524 23.0225C24.0705 23.0225 27.3395 19.7534 27.3395 15.7353C27.3395 11.7171 24.0705 8.448 20.0524 8.448ZM20.0524 21.6135C16.8111 21.6135 14.1741 18.9765 14.1741 15.7353C14.1741 12.4941 16.811 9.85706 20.0524 9.85706C23.2937 9.85706 25.9306 12.4941 25.9306 15.7353C25.9306 18.9765 23.2937 21.6135 20.0524 21.6135Z" fill="#1C2B54"/>
<path d="M14.1326 30.2556C13.7434 30.2556 13.4281 30.571 13.4281 30.9601C13.4281 31.3493 13.7434 31.6647 14.1326 31.6647H15.7302C16.1194 31.6647 16.4347 31.3492 16.4347 30.9601C16.4347 30.5711 16.1194 30.2556 15.7302 30.2556H14.1326Z" fill="#1C2B54"/>
<path d="M19.2536 30.2556C18.8644 30.2556 18.5491 30.571 18.5491 30.9601C18.5491 31.3493 18.8644 31.6647 19.2536 31.6647H20.8512C21.2404 31.6647 21.5557 31.3492 21.5557 30.9601C21.5557 30.5711 21.2404 30.2556 20.8512 30.2556H19.2536Z" fill="#1C2B54"/>
<path d="M24.3746 30.2556C23.9854 30.2556 23.6701 30.571 23.6701 30.9601C23.6701 31.3493 23.9854 31.6647 24.3746 31.6647H25.9722C26.3614 31.6647 26.6767 31.3492 26.6767 30.9601C26.6767 30.5711 26.3614 30.2556 25.9722 30.2556H24.3746Z" fill="#1C2B54"/>
</svg>
