<svg width="48" height="48" viewBox="0 0 48 48" fill="none" xmlns="http://www.w3.org/2000/svg">
<path d="M27.1591 35.738L24.6802 33.6358V28.1505C25.3336 28.0439 25.9364 27.786 26.4523 27.4142L30.3326 31.2945L30.0661 34.5338C30.0354 34.9082 30.3139 35.2365 30.6883 35.2674C30.7072 35.269 30.7261 35.2696 30.7447 35.2696C31.095 35.2696 31.3926 35.0006 31.4219 34.6452L31.5938 32.5556L33.424 34.3858C33.5567 34.5185 33.7309 34.585 33.9049 34.585C34.0789 34.585 34.253 34.5185 34.3858 34.3857C34.6514 34.1202 34.6514 33.6895 34.3858 33.424L32.5555 31.5937L34.6452 31.4219C35.0197 31.391 35.2982 31.0626 35.2673 30.6882C35.2366 30.3138 34.9056 30.0359 34.5337 30.0661L31.2942 30.3325L27.414 26.4524C27.7856 25.9363 28.0435 25.3336 28.1503 24.6802H33.6356L35.7377 27.1591C35.8723 27.3177 36.0639 27.3994 36.2569 27.3994C36.4124 27.3994 36.5686 27.3463 36.6964 27.238C36.9828 26.9949 37.0182 26.5658 36.7753 26.2793L35.4193 24.6803H38.0076C38.3833 24.6803 38.6878 24.3757 38.6878 24.0001C38.6878 23.6244 38.3833 23.3199 38.0076 23.3199H35.4191L36.7754 21.7208C37.0183 21.4343 36.983 21.0051 36.6965 20.7621C36.41 20.5193 35.9808 20.5544 35.7378 20.841L33.6356 23.3199H28.1505C28.0438 22.6666 27.7859 22.0637 27.4142 21.5477L31.2943 17.6677L34.5337 17.934C34.5526 17.9355 34.5715 17.9362 34.5902 17.9362C34.9405 17.9362 35.2381 17.6672 35.2673 17.3117C35.2981 16.9373 35.0196 16.609 34.6452 16.5781L32.5556 16.4063L34.3859 14.5761C34.6515 14.3106 34.6515 13.8799 34.3859 13.6144C34.1205 13.3488 33.6897 13.3487 33.4241 13.6144L31.5938 15.4446L31.422 13.3549C31.3912 12.9804 31.0609 12.7024 30.6884 12.7328C30.3139 12.7636 30.0354 13.092 30.0662 13.4664L30.3326 16.7059L26.4523 20.586C25.9364 20.2144 25.3336 19.9564 24.6802 19.8497V14.3646L27.1591 12.2624C27.4456 12.0194 27.4809 11.5902 27.238 11.3037C26.9951 11.0173 26.5658 10.982 26.2794 11.2248L24.6802 12.5808V9.99248C24.6802 9.61683 24.3757 9.31231 24 9.31231C23.6244 9.31231 23.3199 9.61683 23.3199 9.99248V12.5808L21.7208 11.2247C21.4344 10.9819 21.0052 11.017 20.7622 11.3036C20.5193 11.5901 20.5545 12.0193 20.8411 12.2623L23.3199 14.3644V19.8496C22.6665 19.9563 22.0637 20.2142 21.5477 20.5859L17.6674 16.7058L17.9339 13.4664C17.9646 13.092 17.6861 12.7637 17.3117 12.7328C16.9378 12.7028 16.609 12.9805 16.5781 13.3549L16.4062 15.4446L14.576 13.6144C14.3105 13.3487 13.8797 13.3487 13.6142 13.6144C13.3486 13.8799 13.3486 14.3106 13.6142 14.5761L15.4445 16.4063L13.3548 16.5781C12.9803 16.6089 12.7018 16.9373 12.7326 17.3117C12.7619 17.6672 13.0593 17.9362 13.4098 17.9362C13.4284 17.9362 13.4474 17.9354 13.4662 17.934L16.7058 17.6676L20.5859 21.5476C20.2142 22.0637 19.9563 22.6665 19.8496 23.3199H14.3645L12.2623 20.841C12.0193 20.5546 11.5902 20.5193 11.3036 20.7621C11.0172 21.0051 10.9818 21.4343 11.2247 21.7208L12.5809 23.3199H9.99246C9.61681 23.3199 9.31229 23.6244 9.31229 24.0001C9.31229 24.3757 9.61681 24.6803 9.99246 24.6803H12.5809L11.2247 26.2793C10.9818 26.5658 11.0171 26.9949 11.3036 27.238C11.4314 27.3463 11.5877 27.3994 11.7431 27.3994C11.936 27.3994 12.1277 27.3177 12.2623 27.1591L14.3644 24.6803H19.8495C19.9563 25.3336 20.2142 25.9364 20.5859 26.4525L16.7058 30.3325L13.4663 30.0661C13.094 30.0356 12.7636 30.314 12.7327 30.6882C12.702 31.0626 12.9805 31.391 13.3549 31.4219L15.4445 31.5937L13.6142 33.424C13.3486 33.6895 13.3486 34.1202 13.6142 34.3857C13.747 34.5185 13.921 34.585 14.0951 34.585C14.2691 34.585 14.4433 34.5185 14.576 34.3858L16.4063 32.5555L16.5781 34.6452C16.6073 35.0006 16.9048 35.2696 17.2552 35.2696C17.2739 35.2696 17.2928 35.2689 17.3117 35.2674C17.6862 35.2366 17.9647 34.9082 17.9339 34.5338L17.6675 31.2944L21.5477 27.4142C22.0637 27.7859 22.6665 28.0438 23.3199 28.1505V33.6358L20.841 35.738C20.5545 35.981 20.5192 36.4102 20.7621 36.6966C21.0051 36.9832 21.4344 37.0184 21.7207 36.7755L23.3199 35.4194V38.0078C23.3199 38.3834 23.6244 38.688 24 38.688C24.3757 38.688 24.6802 38.3834 24.6802 38.0078V35.4194L26.2793 36.7755C26.407 36.8839 26.5634 36.9369 26.7188 36.9369C26.9116 36.9369 27.1033 36.8553 27.2379 36.6966C27.4808 36.4102 27.4456 35.981 27.1591 35.738ZM21.154 24.0001C21.154 22.4308 22.4308 21.1542 24 21.1542C25.5693 21.1542 26.8459 22.4308 26.8459 24.0001C26.8459 25.5693 25.5693 26.8461 24 26.8461C22.4308 26.8461 21.154 25.5693 21.154 24.0001ZM47.7079 12.2409C47.4915 12.0906 47.2079 12.0788 46.9799 12.2106L45.4287 13.1061C42.9907 8.16166 39.1609 4.45797 34.833 2.88689C31.2196 1.57534 27.3723 1.80708 23.7069 3.55714C23.4203 3.69405 23.2665 4.0113 23.3366 4.32107C23.4068 4.63093 23.6822 4.85101 23.9999 4.85101C31.2984 4.85101 37.9781 9.03218 41.1881 15.5542L39.2487 16.6739C39.0206 16.8056 38.889 17.0572 38.911 17.3197C38.933 17.5822 39.1045 17.8083 39.3513 17.9004L45.9171 20.3456C45.9939 20.3742 46.0743 20.3883 46.1544 20.3883C46.2724 20.3883 46.3899 20.3576 46.4945 20.2972C46.6702 20.1957 46.7914 20.0212 46.8251 19.8212L47.9904 12.9124C48.0345 12.6529 47.9243 12.3912 47.7079 12.2409ZM45.6208 18.7837L41.1799 17.1298L42.4106 16.4193C42.7135 16.2445 42.8344 15.8683 42.6902 15.5498C39.8203 9.21145 33.9408 4.8136 27.2025 3.74341C29.6094 3.16916 32.0097 3.30917 34.3689 4.1656C38.5508 5.68373 42.2479 9.39441 44.5121 14.3464C44.5918 14.5206 44.7413 14.6532 44.9237 14.7115C45.1059 14.7699 45.3047 14.7484 45.4708 14.6526L46.409 14.111L45.6208 18.7837ZM4.17084 24.6803C4.22068 24.6803 4.27101 24.6747 4.32125 24.6633C4.63111 24.5931 4.85119 24.3177 4.85119 24C4.85119 16.7015 9.03226 10.0217 15.5543 6.81183L16.674 8.75117C16.8056 8.97942 17.0579 9.11118 17.3198 9.08893C17.5823 9.06687 17.8084 8.89537 17.9004 8.64857L20.3456 2.08284C20.4165 1.89278 20.3987 1.68096 20.2973 1.50538C20.1959 1.3297 20.0214 1.20853 19.8214 1.17482L12.9127 0.00940214C12.6534 -0.0341284 12.3913 0.0757668 12.241 0.291962C12.0907 0.508352 12.0788 0.791981 12.2106 1.02013L13.1061 2.5712C8.16155 5.0093 4.45796 8.83911 2.88688 13.167C1.57523 16.7804 1.80707 20.6277 3.55723 24.2931C3.67198 24.5334 3.91325 24.6803 4.17084 24.6803ZM4.16549 13.6313C5.68362 9.44931 9.3944 5.75223 14.3463 3.48796C14.5205 3.40828 14.653 3.25884 14.7113 3.07636C14.7696 2.89388 14.7483 2.69528 14.6525 2.52932L14.1108 1.59108L18.7837 2.37929L17.1298 6.82019L16.4192 5.58948C16.2443 5.28661 15.8683 5.16573 15.5498 5.30993C9.21143 8.17964 4.81359 14.0593 3.7434 20.7977C3.16905 18.3907 3.30916 15.9905 4.16549 13.6313ZM24 43.149C16.7016 43.149 10.0217 38.9679 6.81181 32.4459L8.75125 31.3262C8.9794 31.1946 9.11087 30.9429 9.089 30.6805C9.06695 30.4179 8.89545 30.1918 8.64865 30.0998L2.08283 27.6545C1.89287 27.5837 1.68114 27.6015 1.50537 27.7028C1.32969 27.8042 1.20843 27.9788 1.17481 28.1787L0.00949465 35.0875C-0.0343273 35.3472 0.0758593 35.6088 0.292151 35.7592C0.508444 35.9094 0.792169 35.921 1.02022 35.7896L2.57128 34.894C5.00928 39.8384 8.83909 43.5421 13.167 45.1132C14.7076 45.6725 16.2909 45.9511 17.8845 45.9511C20.0282 45.9511 22.1906 45.4469 24.2932 44.4428C24.5798 44.3059 24.7336 43.9887 24.6635 43.6789C24.5931 43.3689 24.3179 43.149 24 43.149ZM13.6311 43.8345C9.4492 42.3164 5.75212 38.6058 3.48795 33.6538C3.40827 33.4795 3.25883 33.347 3.07635 33.2887C3.00882 33.267 2.93896 33.2565 2.86939 33.2565C2.75124 33.2565 2.63376 33.2873 2.52931 33.3476L1.59107 33.8893L2.37919 29.2165L6.82007 30.8703L5.58937 31.5808C5.2865 31.7557 5.16562 32.1318 5.30982 32.4504C8.17972 38.789 14.0587 43.1869 20.7977 44.2567C18.3903 44.831 15.9901 44.691 13.6311 43.8345ZM43.6788 23.3366C43.369 23.4069 43.1489 23.6823 43.1489 24C43.1489 31.2985 38.9677 37.9783 32.4457 41.1882L31.326 39.2489C31.1943 39.0208 30.9432 38.89 30.6802 38.9112C30.4177 38.9332 30.1916 39.1047 30.0996 39.3515L27.6544 45.9172C27.5835 46.1073 27.6013 46.3191 27.7027 46.4947C27.8041 46.6704 27.9786 46.7916 28.1786 46.8253L35.0874 47.9905C35.1253 47.9968 35.163 48 35.2006 48C35.421 48 35.6307 47.8927 35.7591 47.7078C35.9094 47.4914 35.9213 47.2078 35.7894 46.9798L34.8939 45.4287C39.8383 42.9907 43.5419 39.1609 45.113 34.833C46.4248 31.2196 46.1929 27.3722 44.4428 23.7067C44.306 23.4203 43.9889 23.2667 43.6788 23.3366ZM43.8345 34.369C42.3164 38.5509 38.6057 42.2479 33.6537 44.5122C33.4795 44.5919 33.347 44.7413 33.2887 44.9238C33.2304 45.1063 33.2517 45.305 33.3475 45.4709L33.8891 46.409L29.2163 45.6209L30.8702 41.1801L31.5808 42.4107C31.7557 42.7135 32.1315 42.8345 32.4502 42.6902C38.7885 39.8205 43.1864 33.9409 44.2566 27.2025C44.831 29.6096 44.6909 32.0097 43.8345 34.369Z" fill="#1C2B54"/>
</svg>
