<svg width="85" height="85" viewBox="0 0 85 85" fill="none" xmlns="http://www.w3.org/2000/svg">
<path d="M0 42.5C0 19.0279 19.0279 0 42.5 0C65.9721 0 85 19.0279 85 42.5C85 65.9721 65.9721 85 42.5 85C19.0279 85 0 65.9721 0 42.5Z" fill="#F0F4FA"/>
<g clip-path="url(#clip0_2_1806)">
<path d="M61.2081 27.959C61.0321 28.0865 60.914 28.2786 60.8799 28.4932C60.8459 28.7074 60.8986 28.9268 61.0268 29.1021C66.0609 36.062 66.7696 45.2557 62.8619 52.9045C58.9541 60.5537 51.0892 65.3672 42.5 65.3672C36.9288 65.3873 31.546 63.352 27.3818 59.6509H30.2511C30.7023 59.6509 31.0679 59.2853 31.0679 58.8342C31.0679 58.3834 30.7023 58.0178 30.2511 58.0178H25.3517C25.3147 58.0226 25.2777 58.0297 25.2414 58.0398C25.176 58.0447 25.1117 58.0578 25.0496 58.078C24.9857 58.1082 24.9255 58.1464 24.8717 58.1916C24.8433 58.2069 24.816 58.2241 24.7898 58.2432L24.785 58.2503C24.7282 58.3097 24.6811 58.377 24.6444 58.4506C24.6332 58.4716 24.6127 58.4895 24.6029 58.5127C24.5936 58.5437 24.5865 58.5751 24.5816 58.6073C24.5562 58.6775 24.5405 58.7508 24.5353 58.8252V63.734C24.5353 64.1848 24.9009 64.5504 25.3517 64.5504C25.8029 64.5504 26.1684 64.1848 26.1684 63.734V60.754C30.6459 64.7949 36.4686 67.022 42.5 67.0003C51.7042 67.0011 60.132 61.8429 64.3186 53.6461C68.5056 45.4493 67.7445 35.5977 62.349 28.1411C62.2219 27.9657 62.0301 27.848 61.8163 27.8136C61.6021 27.7796 61.3835 27.8319 61.2081 27.959Z" fill="#1C2B54"/>
<path d="M22.6512 56.8639C22.9159 57.2291 23.4265 57.3106 23.7921 57.046C24.1573 56.7813 24.2388 56.2707 23.9741 55.9051C18.9386 48.9456 18.2291 39.7511 22.1365 32.1016C26.0443 24.4517 33.9099 19.6375 42.4999 19.6382C48.0711 19.6176 53.4543 21.653 57.6184 25.354H54.7487C54.2979 25.354 53.9323 25.72 53.9323 26.1708C53.9323 26.6216 54.2979 26.9876 54.7487 26.9876H59.6482C59.6897 26.9827 59.7301 26.9745 59.7701 26.9629C59.831 26.958 59.8915 26.9457 59.9499 26.927C60.0153 26.8971 60.0762 26.8586 60.1311 26.8119C60.1592 26.7969 60.1865 26.7805 60.2126 26.7622L60.2175 26.7547C60.2743 26.6956 60.3218 26.6283 60.358 26.5547C60.3704 26.5327 60.3898 26.5155 60.3995 26.4927C60.4089 26.4609 60.416 26.4287 60.4208 26.3962C60.4455 26.3263 60.4605 26.2538 60.465 26.1798V21.2714C60.465 20.8202 60.0994 20.4546 59.6482 20.4546C59.1974 20.4546 58.8318 20.8202 58.8318 21.2714V24.2509C54.3544 20.2101 48.5312 17.983 42.4999 18.005C33.2961 18.0039 24.8683 23.1624 20.6813 31.3588C16.4947 39.5556 17.2554 49.4073 22.6512 56.8639Z" fill="#1C2B54"/>
<path d="M43.3166 22.9044V22.0876C43.3166 21.6368 42.951 21.2712 42.4999 21.2712C42.0491 21.2712 41.6835 21.6368 41.6835 22.0876V22.9044C41.6835 23.3552 42.0491 23.7208 42.4999 23.7208C42.951 23.7208 43.3166 23.3552 43.3166 22.9044Z" fill="#1C2B54"/>
<path d="M42.4999 63.7341C42.951 63.7341 43.3166 63.3681 43.3166 62.9173V62.1006C43.3166 61.6498 42.951 61.2842 42.4999 61.2842C42.0491 61.2842 41.6835 61.6498 41.6835 62.1006V62.9173C41.6835 63.3681 42.0491 63.7341 42.4999 63.7341Z" fill="#1C2B54"/>
<path d="M39.0957 24.0184C39.1431 24.018 39.1906 24.0143 39.2377 24.0068C39.4511 23.9694 39.641 23.8487 39.7655 23.6711C39.89 23.4936 39.9386 23.2738 39.9008 23.0603L39.7603 22.257C39.6822 21.8126 39.2586 21.5154 38.8142 21.5935C38.3697 21.6713 38.0729 22.0948 38.1507 22.5392L38.292 23.3429C38.3608 23.7332 38.6994 24.018 39.0957 24.0184Z" fill="#1C2B54"/>
<path d="M45.7622 60.9981C45.5487 61.0358 45.3588 61.1566 45.2347 61.3341C45.1102 61.5113 45.0617 61.7311 45.0994 61.9446L45.2396 62.7482C45.3084 63.1389 45.6474 63.4233 46.044 63.4233C46.0919 63.4233 46.1393 63.4192 46.1861 63.4114C46.3995 63.3736 46.589 63.2533 46.7135 63.0757C46.838 62.8985 46.8866 62.6791 46.8492 62.4656L46.7079 61.662C46.6705 61.4485 46.5501 61.2586 46.3726 61.1342C46.1954 61.0097 45.9756 60.9607 45.7622 60.9981Z" fill="#1C2B54"/>
<path d="M35.7976 24.9024C36.0648 24.9028 36.3153 24.7723 36.4682 24.5529C36.6211 24.3335 36.6569 24.0535 36.5642 23.8027L36.285 23.036C36.1848 22.7617 35.9463 22.562 35.6589 22.5116C35.3714 22.4611 35.0787 22.568 34.8915 22.7916C34.7042 23.0155 34.6504 23.322 34.7505 23.596L35.0305 24.3627C35.1471 24.6864 35.4537 24.9021 35.7976 24.9024Z" fill="#1C2B54"/>
<path d="M48.7152 61.9658C48.815 62.2398 49.0539 62.4398 49.3413 62.4903C49.6288 62.5407 49.9211 62.4338 50.1084 62.2099C50.2956 61.9864 50.3495 61.6798 50.2493 61.4055L49.9693 60.6388C49.8747 60.3577 49.6347 60.1502 49.3432 60.0964C49.0512 60.043 48.7537 60.1517 48.5649 60.3809C48.3765 60.6096 48.3272 60.9229 48.436 61.1991L48.7152 61.9658Z" fill="#1C2B54"/>
<path d="M31.9938 25.939C32.1384 26.1936 32.4087 26.3513 32.7018 26.3517C32.9948 26.3524 33.2658 26.1962 33.4116 25.942C33.5578 25.6878 33.5563 25.3749 33.4083 25.1222L32.9997 24.415C32.855 24.1604 32.5848 24.0027 32.2917 24.002C31.9986 24.0016 31.7276 24.1578 31.5818 24.412C31.4361 24.6662 31.4372 24.9791 31.5856 25.2318L31.9938 25.939Z" fill="#1C2B54"/>
<path d="M51.8906 58.7672C51.5003 58.9926 51.3665 59.492 51.5919 59.8826L52.0001 60.5899C52.1451 60.8448 52.415 61.0022 52.7081 61.0029C53.0012 61.0037 53.2722 60.847 53.4179 60.5928C53.5641 60.339 53.5626 60.0262 53.4146 59.7735L53.006 59.0662C52.7806 58.6756 52.2812 58.5418 51.8906 58.7672Z" fill="#1C2B54"/>
<path d="M28.853 26.2377C28.6871 26.3767 28.5831 26.5764 28.5641 26.792C28.545 27.0077 28.6127 27.2223 28.7517 27.3883L29.2769 28.0148C29.4646 28.2383 29.7569 28.3448 30.0443 28.2944C30.3318 28.2439 30.5703 28.0439 30.6701 27.7695C30.7703 27.4955 30.7161 27.189 30.5288 26.9655L30.0036 26.339C29.8645 26.173 29.6653 26.0691 29.4492 26.05C29.2336 26.031 29.019 26.0986 28.853 26.2377Z" fill="#1C2B54"/>
<path d="M54.5723 56.8893C54.4063 57.0284 54.3024 57.2276 54.2833 57.4437C54.2646 57.6594 54.3319 57.8739 54.4714 58.0399L54.9962 58.666C55.1838 58.8899 55.4761 58.9964 55.7636 58.946C56.0511 58.8951 56.2895 58.6952 56.3894 58.4212C56.4895 58.1472 56.4353 57.8403 56.2481 57.6167L55.7229 56.9906C55.5838 56.8243 55.3846 56.7204 55.1689 56.7017C54.9528 56.6826 54.7383 56.7499 54.5723 56.8893Z" fill="#1C2B54"/>
<path d="M28.012 29.2798L27.3858 28.7546C27.0393 28.4649 26.5238 28.5105 26.2338 28.857C25.9441 29.2035 25.9901 29.719 26.3366 30.0087L26.9627 30.5339C27.1862 30.7211 27.4931 30.7753 27.7671 30.6752C28.0411 30.5754 28.2411 30.3369 28.2919 30.0494C28.3424 29.762 28.2355 29.4696 28.012 29.282V29.2798Z" fill="#1C2B54"/>
<path d="M56.9878 55.7256L57.6143 56.2504C57.8382 56.438 58.1455 56.4915 58.4195 56.3913C58.6938 56.2911 58.8938 56.0519 58.9443 55.7641C58.9947 55.4766 58.8875 55.1836 58.6636 54.9963L58.0371 54.4711C57.6917 54.1814 57.1766 54.2266 56.8865 54.5724C56.5968 54.9182 56.642 55.4333 56.9878 55.723V55.7256Z" fill="#1C2B54"/>
<path d="M25.1198 33.4106C25.5101 33.6326 26.0061 33.4977 26.2304 33.1089C26.455 32.7201 26.3235 32.2234 25.9362 31.9961L25.229 31.5879C24.9763 31.4399 24.6634 31.4384 24.4092 31.5841C24.1554 31.7303 23.9988 32.0013 23.9995 32.2944C24.0003 32.5871 24.1576 32.8573 24.4126 33.0024L25.1198 33.4106Z" fill="#1C2B54"/>
<path d="M59.7708 53.4169C60.0235 53.5653 60.3364 53.5664 60.5906 53.4206C60.8447 53.2744 61.001 53.0038 61.0002 52.7107C60.9999 52.4177 60.8421 52.1474 60.5876 52.0028L59.8803 51.5942C59.6276 51.4462 59.3148 51.4447 59.0606 51.5908C58.8064 51.7366 58.6501 52.0076 58.6509 52.3007C58.6513 52.5937 58.809 52.8636 59.0636 53.0087L59.7708 53.4169Z" fill="#1C2B54"/>
<path d="M22.5493 35.2396C22.4749 35.4437 22.4846 35.6687 22.5765 35.8653C22.6685 36.0619 22.8348 36.2137 23.0389 36.2873L23.806 36.5666C24.0819 36.6753 24.3951 36.626 24.6243 36.4376C24.853 36.2488 24.9618 35.9509 24.9083 35.6593C24.8549 35.3678 24.6471 35.1278 24.366 35.0332L23.5993 34.7529C23.3956 34.6777 23.1702 34.6867 22.9732 34.7783C22.7762 34.8695 22.6236 35.0355 22.5493 35.2396Z" fill="#1C2B54"/>
<path d="M61.6831 50.3017C62.0801 50.3024 62.4199 50.018 62.4887 49.6273C62.5578 49.2367 62.3362 48.8528 61.9635 48.7175L61.1964 48.4383C60.9206 48.3295 60.6073 48.3788 60.3782 48.5676C60.1494 48.756 60.0406 49.0539 60.0941 49.3455C60.1475 49.6374 60.3554 49.877 60.6365 49.972L61.4032 50.252C61.4929 50.2845 61.5878 50.3013 61.6831 50.3017Z" fill="#1C2B54"/>
<path d="M21.5912 38.8165C21.5534 39.03 21.6024 39.2494 21.7265 39.427C21.851 39.6045 22.0409 39.7253 22.2543 39.763L23.058 39.9032C23.1047 39.9114 23.1522 39.9155 23.2 39.9155C23.6236 39.9151 23.9764 39.5914 24.0131 39.1694C24.0497 38.7474 23.7574 38.3676 23.3406 38.2947L22.5369 38.1534C22.3235 38.116 22.104 38.1646 21.9269 38.2891C21.7493 38.4132 21.6286 38.6031 21.5912 38.8165Z" fill="#1C2B54"/>
<path d="M63.4086 46.1886C63.4464 45.9752 63.3978 45.7554 63.2733 45.5778C63.1488 45.4003 62.9593 45.2795 62.7455 45.2421L61.9422 45.1016C61.4977 45.0235 61.0746 45.3203 60.9965 45.7647C60.9184 46.2088 61.2155 46.6323 61.6596 46.7104L62.4633 46.8514C62.51 46.8596 62.5575 46.8637 62.6053 46.8637C63.0016 46.8633 63.3402 46.5789 63.4086 46.1886Z" fill="#1C2B54"/>
<path d="M21.2686 42.5026C21.2686 42.9534 21.6341 43.3189 22.0853 43.3189H22.9017C23.3529 43.3189 23.7185 42.9534 23.7185 42.5026C23.7185 42.0514 23.3529 41.6858 22.9017 41.6858H22.0853C21.6341 41.6858 21.2686 42.0514 21.2686 42.5026Z" fill="#1C2B54"/>
<path d="M63.7313 42.5026C63.7313 42.0514 63.3657 41.6858 62.9149 41.6858H62.0981C61.6473 41.6858 61.2817 42.0514 61.2817 42.5026C61.2817 42.9534 61.6473 43.3189 62.0981 43.3189H62.9149C63.3657 43.3189 63.7313 42.9534 63.7313 42.5026Z" fill="#1C2B54"/>
<path d="M22.3948 46.8637C22.4423 46.8637 22.4898 46.8596 22.5369 46.8514L23.3405 46.7104C23.7846 46.6323 24.0814 46.2088 24.0033 45.7647C23.9255 45.3203 23.502 45.0235 23.0579 45.1016L22.2543 45.2421C21.8349 45.3128 21.5403 45.6941 21.5769 46.1176C21.6136 46.5415 21.9694 46.8659 22.3948 46.8637Z" fill="#1C2B54"/>
<path d="M62.4634 38.1534L61.6597 38.2947C61.2425 38.3676 60.9506 38.7474 60.9872 39.1694C61.0235 39.5915 61.3767 39.9152 61.8003 39.9156C61.8477 39.9156 61.8952 39.9115 61.9423 39.9032L62.7456 39.7631C63.0334 39.7126 63.2719 39.5122 63.3721 39.2382C63.4719 38.9639 63.4181 38.6573 63.2308 38.4334C63.0432 38.2095 62.7508 38.103 62.4634 38.1534Z" fill="#1C2B54"/>
<path d="M23.3166 50.3017C23.4123 50.3013 23.5069 50.2845 23.5966 50.252L24.3636 49.972C24.6376 49.8711 24.8369 49.6322 24.8866 49.3444C24.9367 49.0569 24.829 48.7646 24.6051 48.5777C24.3808 48.3908 24.0739 48.3377 23.7999 48.4383L23.0333 48.7175C22.6606 48.8528 22.4389 49.2367 22.5077 49.6273C22.5769 50.018 22.9166 50.3024 23.3132 50.3017H23.3166Z" fill="#1C2B54"/>
<path d="M61.4032 34.753L60.6365 35.0333C60.3554 35.1279 60.1475 35.3679 60.0941 35.6594C60.0406 35.951 60.1494 36.2489 60.3782 36.4377C60.6073 36.6261 60.9206 36.6754 61.1964 36.5667L61.9635 36.2874C62.2375 36.1872 62.4375 35.9488 62.4876 35.6613C62.538 35.3738 62.4315 35.0815 62.2076 34.8943C61.9841 34.707 61.6772 34.6532 61.4032 34.753Z" fill="#1C2B54"/>
<path d="M24.8215 53.5264C24.965 53.5264 25.1056 53.4886 25.2301 53.4169L25.9369 53.0087C26.1919 52.8636 26.3492 52.5937 26.35 52.3007C26.3507 52.0076 26.1941 51.7366 25.9403 51.5908C25.6861 51.4447 25.3732 51.4462 25.1206 51.5942L24.4133 52.0028C24.0933 52.1874 23.9371 52.5642 24.0328 52.9212C24.1285 53.2782 24.4522 53.5264 24.8215 53.5264Z" fill="#1C2B54"/>
<path d="M59.7708 31.5879L59.0636 31.9961C58.809 32.1411 58.6513 32.4114 58.6509 32.7044C58.6501 32.9975 58.8064 33.2681 59.0606 33.4143C59.3148 33.5601 59.6276 33.559 59.8803 33.4106L60.5876 33.0024C60.8421 32.8573 60.9999 32.5871 61.0002 32.2944C61.001 32.0013 60.8447 31.7303 60.5906 31.5841C60.3364 31.4384 60.0235 31.4399 59.7708 31.5879Z" fill="#1C2B54"/>
<path d="M26.8621 56.4407C27.0539 56.4411 27.2393 56.3738 27.3858 56.2505L28.0119 55.7256C28.3577 55.4359 28.4029 54.9208 28.1132 54.5751C27.8235 54.2293 27.3084 54.1841 26.9627 54.4738L26.3365 54.999C26.0734 55.2195 25.9766 55.5814 26.0943 55.9039C26.2117 56.2269 26.519 56.4415 26.8621 56.4407Z" fill="#1C2B54"/>
<path d="M57.5137 30.7213C57.7051 30.7217 57.8905 30.6544 58.037 30.5311L58.6635 30.0062C58.8871 29.8186 58.9936 29.5263 58.9432 29.2388C58.8927 28.9514 58.6927 28.7129 58.4187 28.6131C58.1443 28.5129 57.8378 28.5667 57.6143 28.7544L56.9878 29.2796C56.7246 29.5001 56.6278 29.8619 56.7456 30.1845C56.8633 30.5071 57.1702 30.7217 57.5137 30.7213Z" fill="#1C2B54"/>
<path d="M31.8842 60.8896C32.0719 60.9976 32.295 61.0268 32.504 60.9707C32.7133 60.9146 32.8916 60.7775 32.9997 60.5898L33.4082 59.8826C33.6299 59.4923 33.4953 58.9963 33.1066 58.772C32.7178 58.5473 32.2206 58.6789 31.9937 59.0662L31.5856 59.7734C31.4768 59.9607 31.4476 60.1839 31.5033 60.3932C31.5594 60.6029 31.6966 60.7812 31.8842 60.8896Z" fill="#1C2B54"/>
<path d="M52.2992 26.3472C52.5911 26.3476 52.861 26.1917 53.0071 25.939L53.4153 25.2318C53.5634 24.9791 53.5649 24.6662 53.4191 24.412C53.2729 24.1578 53.0019 24.0016 52.7092 24.002C52.4162 24.0027 52.1459 24.1604 52.0009 24.415L51.5927 25.1222C51.4469 25.3749 51.4469 25.6859 51.5923 25.9386C51.7381 26.191 52.0076 26.3468 52.2992 26.3472Z" fill="#1C2B54"/>
<path d="M36.0776 60.1513C35.8739 60.0773 35.6488 60.0874 35.4526 60.1794C35.256 60.271 35.1042 60.4373 35.0305 60.6414L34.7506 61.4081C34.5958 61.8316 34.8141 62.3007 35.2376 62.4555C35.6615 62.6099 36.1303 62.3919 36.285 61.9684L36.5643 61.2014C36.6394 60.9976 36.6304 60.7722 36.5392 60.5752C36.4476 60.3782 36.2817 60.2257 36.0776 60.1513Z" fill="#1C2B54"/>
<path d="M49.2025 24.9024C49.5453 24.9024 49.8518 24.6883 49.9692 24.366L50.2492 23.5994C50.404 23.1755 50.186 22.7067 49.7621 22.552C49.3386 22.3972 48.8699 22.6155 48.7151 23.039L48.4359 23.8061C48.3443 24.0561 48.3809 24.3354 48.5334 24.5541C48.6863 24.7724 48.936 24.9024 49.2025 24.9024Z" fill="#1C2B54"/>
<path d="M38.292 61.6619L38.1507 62.4656C38.1133 62.679 38.1623 62.8985 38.2864 63.0756C38.4108 63.2532 38.6007 63.3736 38.8138 63.4113C38.8609 63.4192 38.9084 63.4233 38.9559 63.4233C39.3525 63.4233 39.6919 63.1388 39.7603 62.7482L39.9008 61.9445C39.9513 61.6571 39.8448 61.3647 39.6209 61.1775C39.3973 60.9898 39.0908 60.936 38.8168 61.0362C38.5424 61.136 38.3424 61.3748 38.292 61.6619Z" fill="#1C2B54"/>
<path d="M45.9046 24.0183C46.3004 24.0179 46.6395 23.7331 46.7079 23.3428L46.8492 22.5391C46.8996 22.2517 46.7931 21.959 46.5692 21.7717C46.3453 21.5841 46.0388 21.5302 45.7644 21.6304C45.49 21.7306 45.29 21.9691 45.2396 22.2569L45.0994 23.0602C45.0617 23.2736 45.1102 23.4934 45.2347 23.671C45.3588 23.8486 45.5487 23.9693 45.7622 24.0067C45.8093 24.0142 45.8567 24.0179 45.9046 24.0183Z" fill="#1C2B54"/>
<path d="M49.8493 44.1358C49.8493 43.6846 49.4837 43.319 49.0329 43.319H44.6231L46.7235 41.4212C46.8966 41.2639 47.0779 41.1076 47.2633 40.9495C48.4146 39.9582 49.8493 38.7242 49.8493 36.7864C49.8493 34.5316 48.0213 32.7034 45.7662 32.7034C43.5114 32.7034 41.6835 34.5316 41.6835 36.7864C41.6835 37.2372 42.0491 37.6028 42.4999 37.6028C42.9511 37.6028 43.3166 37.2372 43.3166 36.7864C43.3144 36.136 43.5734 35.5121 44.0351 35.0546C45.0033 34.1268 46.5302 34.1268 47.4984 35.0546C47.96 35.5121 48.2183 36.1364 48.2161 36.7864C48.2161 37.9744 47.2364 38.8181 46.1968 39.7107C46.0017 39.8782 45.8095 40.0438 45.6249 40.2086L41.9504 43.5306C41.6999 43.7575 41.6155 44.1149 41.7369 44.43C41.8588 44.7451 42.1623 44.9529 42.4999 44.9522H49.0329C49.4837 44.9522 49.8493 44.5866 49.8493 44.1358Z" fill="#1C2B54"/>
<path d="M39.2336 44.9522C39.6848 44.9522 40.0504 44.5866 40.0504 44.1358C40.0504 43.6846 39.6848 43.319 39.2336 43.319V33.5201C39.2336 33.1897 39.0347 32.8921 38.7293 32.7658C38.4243 32.6394 38.0733 32.7093 37.8397 32.9426L36.2065 34.5757C35.897 34.8965 35.9015 35.4056 36.2166 35.7207C36.5314 36.0354 37.0409 36.0399 37.3612 35.7304L37.6004 35.4912V43.319H36.784C36.3329 43.319 35.9673 43.6846 35.9673 44.1358C35.9673 44.5866 36.3329 44.9522 36.784 44.9522H39.2336Z" fill="#1C2B54"/>
<path d="M36.7841 47.402C36.7841 46.9508 36.4182 46.5852 35.9673 46.5852C35.5162 46.5852 35.1506 46.9508 35.1506 47.402V49.0351H33.5174V47.402C33.5174 46.9508 33.1518 46.5852 32.701 46.5852C32.2499 46.5852 31.8843 46.9508 31.8843 47.402V52.3014C31.8843 52.7526 32.2499 53.1182 32.701 53.1182C33.1518 53.1182 33.5174 52.7526 33.5174 52.3014V50.6683H35.1506V52.3014C35.1506 52.7526 35.5162 53.1182 35.9673 53.1182C36.4182 53.1182 36.7841 52.7526 36.7841 52.3014V47.402Z" fill="#1C2B54"/>
<path d="M42.4999 51.485V48.2184C42.4999 47.3164 41.7688 46.5852 40.8668 46.5852H39.2336C38.3316 46.5852 37.6005 47.3164 37.6005 48.2184V51.485C37.6005 52.3867 38.3316 53.1182 39.2336 53.1182H40.8668C41.7688 53.1182 42.4999 52.3867 42.4999 51.485ZM39.2336 48.2184H40.8668V51.485H39.2336V48.2184Z" fill="#1C2B54"/>
<path d="M48.2161 51.485V47.402C48.2161 46.9508 47.8505 46.5852 47.3993 46.5852C46.9485 46.5852 46.583 46.9508 46.583 47.402V51.485H44.9498V47.402C44.9498 46.9508 44.5842 46.5852 44.133 46.5852C43.6822 46.5852 43.3167 46.9508 43.3167 47.402V51.485C43.3167 52.3867 44.0478 53.1182 44.9498 53.1182H46.583C47.4849 53.1182 48.2161 52.3867 48.2161 51.485Z" fill="#1C2B54"/>
<path d="M53.9323 49.0351C53.9323 47.6819 52.8356 46.5852 51.4824 46.5852H49.8492C49.3984 46.5852 49.0328 46.9508 49.0328 47.402V52.3014C49.0328 52.7526 49.3984 53.1182 49.8492 53.1182C50.3004 53.1182 50.666 52.7526 50.666 52.3014V51.485H51.1445L52.5384 52.879C52.8587 53.1881 53.3679 53.184 53.683 52.8689C53.9981 52.5537 54.0026 52.0446 53.6931 51.7243L52.9514 50.9826C53.5667 50.524 53.9301 49.8025 53.9323 49.0351ZM50.666 48.2184H51.4824C51.9336 48.2184 52.2991 48.5839 52.2991 49.0351C52.2991 49.4859 51.9336 49.8515 51.4824 49.8515H50.666V48.2184Z" fill="#1C2B54"/>
</g>
<defs>
<clipPath id="clip0_2_1806">
<rect width="49" height="49" fill="white" transform="translate(18 18)"/>
</clipPath>
</defs>
</svg>
