<svg width="32" height="32" viewBox="0 0 32 32" fill="none" xmlns="http://www.w3.org/2000/svg">
<g clip-path="url(#clip0_92_9262)">
<path d="M20.3741 5.63426C20.5226 5.84607 20.7588 5.95921 20.9992 5.95921C21.1501 5.95921 21.3024 5.91464 21.4358 5.82131L22.5459 5.04417V6.39921C22.5459 6.81978 22.8872 7.16111 23.3078 7.16111C23.7283 7.16111 24.0697 6.81978 24.0697 6.39921V5.04455L25.1794 5.82169C25.3127 5.91502 25.4647 5.95959 25.6159 5.95959C25.8563 5.95959 26.0925 5.84645 26.2411 5.63464C26.4822 5.28988 26.3984 4.81484 26.054 4.5737L24.6365 3.58094L26.054 2.58818C26.3984 2.34704 26.4822 1.87199 26.2411 1.52723C25.9996 1.18285 25.5257 1.09828 25.1798 1.34018L24.07 2.11732V0.761902C24.07 0.341332 23.7287 0 23.3081 0C22.8876 0 22.5462 0.341332 22.5462 0.761902V2.11694L21.4361 1.3398C21.0914 1.09828 20.6167 1.18209 20.3748 1.52685C20.1337 1.87161 20.2175 2.34666 20.5619 2.5878L21.9794 3.58056L20.5619 4.57331C20.2167 4.81446 20.1333 5.2895 20.3741 5.63426Z" fill="#1C2B54"/>
<path d="M5.59549 8.95627C5.74406 9.16808 5.98025 9.28122 6.22063 9.28122C6.37149 9.28122 6.52387 9.23665 6.6572 9.14331L6.80044 9.04312V9.21798C6.80044 9.63855 7.14177 9.97988 7.56234 9.97988C7.98291 9.97988 8.32424 9.63855 8.32424 9.21798V9.0435L8.4671 9.14369C8.60043 9.23703 8.75281 9.2816 8.90367 9.2816C9.14405 9.2816 9.38024 9.16846 9.52881 8.95665C9.76995 8.61189 9.68614 8.13684 9.34176 7.8957L8.8911 7.58027L9.34176 7.26485C9.68614 7.0237 9.76995 6.54866 9.52881 6.2039C9.28729 5.8599 8.81338 5.77495 8.46748 6.01685L8.32462 6.11704V5.94257C8.32462 5.522 7.98329 5.18066 7.56272 5.18066C7.14215 5.18066 6.80082 5.522 6.80082 5.94257V6.11742L6.65758 6.01723C6.31244 5.77533 5.83816 5.86028 5.59626 6.20428C5.35511 6.54904 5.43892 7.02408 5.7833 7.26523L6.23397 7.58065L5.7833 7.89608C5.43816 8.13646 5.35473 8.61151 5.59549 8.95627Z" fill="#1C2B54"/>
<path d="M29.3351 25.7251V24.3708C29.3351 23.9502 28.9938 23.6089 28.5732 23.6089C28.1526 23.6089 27.8113 23.9502 27.8113 24.3708V25.7254L26.7012 24.9479C26.3565 24.7068 25.8814 24.7906 25.6399 25.135C25.3988 25.4797 25.4826 25.9548 25.8269 26.1963L27.2445 27.1887L25.8269 28.1811C25.4826 28.4226 25.3988 28.8976 25.6399 29.2424C25.7885 29.4542 26.0247 29.5673 26.265 29.5673C26.4159 29.5673 26.5683 29.5228 26.7016 29.4298L27.8117 28.6523V30.0073C27.8117 30.4279 28.153 30.7692 28.5736 30.7692C28.9942 30.7692 29.3355 30.4279 29.3355 30.0073V28.6527L30.4452 29.4298C30.5785 29.5228 30.7305 29.5673 30.8818 29.5673C31.1222 29.5673 31.3583 29.4542 31.5069 29.2424C31.7481 28.8976 31.6642 28.4226 31.3199 28.1811L29.9024 27.1887L31.3199 26.1963C31.6642 25.9548 31.7481 25.4797 31.5069 25.135C31.2654 24.791 30.7911 24.7064 30.4456 24.9479L29.3351 25.7251Z" fill="#1C2B54"/>
<path d="M1.63811 19.7784C1.67392 19.7453 5.25524 16.4699 10.6045 16.4699C13.5493 16.4699 15.728 17.5285 17.8346 18.5525C19.7618 19.4893 22.0346 20.5076 24.4395 20.5076C28.3382 20.5076 30.2132 18.2539 30.6349 16.2371C30.9587 14.687 30.5679 13.0428 29.59 11.8398C28.8719 10.9568 27.5165 9.90381 25.134 9.90381C23.5839 9.90381 22.2464 10.444 21.3683 11.4249C20.6266 12.2539 20.2872 13.3373 20.414 14.4748C20.5843 16.0116 21.6795 17.2146 23.2034 17.5392C24.6479 17.8489 26.0372 17.271 26.7416 16.0706C26.955 15.7076 26.8331 15.2409 26.4704 15.028C26.1066 14.8146 25.6403 14.9365 25.4277 15.2996C24.9832 16.0569 24.1534 16.1842 23.5211 16.0493C22.8285 15.9015 22.046 15.3663 21.9279 14.3065C21.8491 13.5952 22.0479 12.9503 22.5035 12.4413C23.0887 11.7876 24.0224 11.4276 25.1336 11.4276C26.5451 11.4276 27.6769 11.9027 28.4071 12.8006C29.0986 13.6516 29.374 14.8196 29.1431 15.9255C29.0273 16.4798 28.2281 19.2322 23.8853 18.9666C21.9291 18.8478 20.2636 18.0386 18.5005 17.1819C16.344 16.1339 13.8998 14.9461 10.6042 14.9461C4.63276 14.9461 0.758491 18.5137 0.596206 18.6657C0.289541 18.9529 0.274303 19.4341 0.561159 19.7411C0.849158 20.0485 1.33068 20.0641 1.63811 19.7784Z" fill="#1C2B54"/>
<path d="M1.66098 25.4717C1.69717 25.4351 5.34325 21.7917 10.2648 21.4107C14.8701 21.0549 17.6099 22.941 18.8308 24.0976C20.1992 25.3932 20.9965 27.0164 20.9641 28.4397C20.9302 29.9166 20.232 30.4599 19.5904 30.4759C18.9184 30.4945 18.2282 29.9665 18.1535 28.9303C18.123 28.5105 17.7702 28.2004 17.3383 28.2252C16.9184 28.2557 16.603 28.6202 16.6331 29.0404C16.7729 30.976 18.235 32 19.5641 32C19.5855 32 19.6064 31.9997 19.6278 31.9993C21.0118 31.965 22.4327 30.8621 22.4872 28.4747C22.5302 26.6004 21.5794 24.602 19.8784 22.9909C18.4739 21.661 15.3425 19.4915 10.147 19.8911C4.64307 20.317 0.737558 24.2366 0.573749 24.4035C0.279655 24.7037 0.283846 25.1852 0.583654 25.4801C0.883462 25.7753 1.36613 25.7707 1.66098 25.4717Z" fill="#1C2B54"/>
<path d="M1.11892 15.0447C1.31663 15.0447 1.51397 14.9685 1.6633 14.8176C1.68806 14.7928 4.19739 12.327 9.67432 12.5525C14.7592 12.7578 17.9166 11.1795 19.0644 7.84964C19.2015 7.45192 18.9905 7.01802 18.5928 6.88126C18.192 6.74259 17.7604 6.95555 17.624 7.35326C16.709 10.0077 14.1326 11.2108 9.73679 11.0298C3.52653 10.778 0.687685 13.6344 0.56959 13.7559C0.278544 14.0576 0.287687 14.5357 0.587114 14.8287C0.734923 14.9727 0.926922 15.0447 1.11892 15.0447Z" fill="#1C2B54"/>
</g>
<defs>
<clipPath id="clip0_92_9262">
<rect width="32" height="32" fill="white"/>
</clipPath>
</defs>
</svg>
