<svg width="52" height="52" viewBox="0 0 52 52" fill="none" xmlns="http://www.w3.org/2000/svg">
<rect width="52" height="52" rx="26" fill="#F6F6F9"/>
<g clip-path="url(#clip0_2_1744)">
<path d="M26 12C18.27 12 12 18.27 12 26C12 33.73 18.27 40 26 40C33.73 40 40 33.73 40 26C40 18.27 33.73 12 26 12ZM13 26C13 22.6 14.33 19.5 16.48 17.18L34.82 35.52C32.5 37.67 29.41 39 26 39C18.83 39 13 33.17 13 26ZM35.52 34.82L17.18 16.48C19.5 14.33 22.6 13 26 13C33.17 13 39 18.83 39 26C39 29.4 37.67 32.5 35.52 34.82Z" fill="#1C2B54"/>
<path d="M18.03 34.18C18.03 34.88 18.6 35.45 19.3 35.45H26.09C26.79 35.45 27.36 34.88 27.36 34.18V31.21H18.03V34.18Z" fill="#1C2B54"/>
<path d="M24.73 27.3799C24.73 27.3799 24.79 27.3899 24.82 27.3899C24.94 27.3899 25.04 27.3299 25.12 27.2399L20.6 22.7199H19.3C19.07 22.7199 18.88 22.5299 18.88 22.2999C18.88 22.0699 19.07 21.8799 19.3 21.8799H19.75L17.25 19.3799C17.21 19.4999 17.17 19.6199 17.17 19.7499V23.1499C17.17 23.8499 17.74 24.4199 18.44 24.4199H20.49L19.74 29.2799L18.29 30.3599H27.01L24.42 29.2499L24.71 27.3799H24.73Z" fill="#1C2B54"/>
<path d="M37.13 21.03H34L33.5 20.04C33.28 19.61 32.85 19.34 32.36 19.34H30.41L28.97 18.86C28.23 18.61 27.47 18.49 26.69 18.49H20.6L26.54 24.43H26.69C27.47 24.43 28.23 24.31 28.97 24.06L30.41 23.58H32.36C32.85 23.58 33.28 23.31 33.5 22.88L34 21.89H37.13C37.36 21.89 37.55 21.7 37.55 21.47C37.55 21.24 37.36 21.05 37.13 21.05V21.03ZM30.76 22.3C30.76 22.53 30.57 22.72 30.34 22.72C30.11 22.72 29.92 22.53 29.92 22.3V20.6C29.92 20.37 30.11 20.18 30.34 20.18C30.57 20.18 30.76 20.37 30.76 20.6V22.3Z" fill="#1C2B54"/>
</g>
<defs>
<clipPath id="clip0_2_1744">
<rect width="28" height="28" fill="white" transform="translate(12 12)"/>
</clipPath>
</defs>
</svg>
