<?xml version="1.0" encoding="UTF-8"?>
<svg id="Layer_1" xmlns="http://www.w3.org/2000/svg" xmlns:xlink="http://www.w3.org/1999/xlink" version="1.1" viewBox="0 0 24 24">
  <!-- Generator: Adobe Illustrator 30.5.1, SVG Export Plug-In . SVG Version: 2.1.4 Build 3)  -->
  <defs>
    <style>
      .st0 {
        fill: none;
      }

      .st1 {
        clip-path: url(#clippath-1);
      }

      .st2 {
        clip-path: url(#clippath-2);
      }

      .st3 {
        fill: #1c2b54;
      }

      .st4 {
        clip-path: url(#clippath);
      }
    </style>
    <clipPath id="clippath">
      <rect class="st0" width="24" height="24"/>
    </clipPath>
    <clipPath id="clippath-1">
      <rect class="st0" width="24" height="24"/>
    </clipPath>
    <clipPath id="clippath-2">
      <rect class="st0" width="24" height="24"/>
    </clipPath>
  </defs>
  <g class="st4">
    <g class="st1">
      <g class="st2">
        <g>
          <path class="st3" d="M20.9,8h-1.4v-.5c0-.2,0-.3-.2-.4l-1.6-.9v4.8l1.6-1c.1,0,.2-.2.2-.4v-.4h1.4c.3,0,.5-.2.5-.5s-.3-.5-.6-.5h0Z"/>
          <path class="st3" d="M15.8,5.9h1.2v5.2h-1.2v-5.2Z"/>
          <path class="st3" d="M9.9,15.8l.7-3.1h-4.2l-.5,3.1h-.3c-.3,0-.5.2-.5.5v2.3c0,.3.2.5.5.5h5.2c.3,0,.5-.2.5-.5v-2.3c0-.3-.2-.5-.5-.5h-.9Z"/>
          <path class="st3" d="M12,0C5.4,0,0,5.4,0,12s5.4,12,12,12,12-5.4,12-12S18.6,0,12,0ZM22.6,12c0,2.7-1,5.1-2.6,7L5,4c1.9-1.6,4.3-2.6,7-2.6,5.8,0,10.6,4.8,10.6,10.6ZM1.4,12c0-2.7,1-5.1,2.6-7l15,15c-1.9,1.6-4.3,2.6-7,2.6-5.8,0-10.6-4.8-10.6-10.6Z"/>
          <path class="st3" d="M14,12h.1c.5,0,1-.4,1-.9v-5.2c0-.5-.5-.9-1-.9h-7.2l7.1,7.1Z"/>
          <path class="st3" d="M4.6,6.5v4.5c0,.6.4,1,1,1h4.5l-5.5-5.5Z"/>
        </g>
      </g>
    </g>
  </g>
</svg>