<svg width="85" height="85" viewBox="0 0 85 85" fill="none" xmlns="http://www.w3.org/2000/svg">
<path d="M0 42.5C0 19.0279 19.0279 0 42.5 0C65.9721 0 85 19.0279 85 42.5C85 65.9721 65.9721 85 42.5 85C19.0279 85 0 65.9721 0 42.5Z" fill="#F0F4FA"/>
<g clip-path="url(#clip0_2_1819)">
<path d="M45.7249 54.4825L43.1944 52.3365V46.737C43.8613 46.6281 44.4767 46.3649 45.0034 45.9854L48.9645 49.9464L48.6925 53.2533C48.6612 53.6354 48.9454 53.9706 49.3276 54.0021C49.347 54.0037 49.3662 54.0044 49.3853 54.0044C49.7428 54.0044 50.0467 53.7298 50.0765 53.3669L50.252 51.2338L52.1203 53.1022C52.2558 53.2377 52.4336 53.3055 52.6112 53.3055C52.7889 53.3055 52.9666 53.2377 53.1021 53.1021C53.3733 52.831 53.3733 52.3914 53.1021 52.1203L51.2338 50.2519L53.367 50.0765C53.7492 50.045 54.0335 49.7098 54.0021 49.3276C53.9707 48.9453 53.6328 48.6616 53.2532 48.6925L49.9462 48.9644L45.9851 45.0035C46.3645 44.4767 46.6278 43.8614 46.7368 43.1943H52.3364L54.4823 45.7249C54.6196 45.8869 54.8152 45.9702 55.0122 45.9702C55.1709 45.9702 55.3304 45.916 55.4609 45.8054C55.7533 45.5573 55.7894 45.1192 55.5414 44.8268L54.1572 43.1944H56.7995C57.1829 43.1944 57.4938 42.8836 57.4938 42.5001C57.4938 42.1166 57.1829 41.8058 56.7995 41.8058H54.157L55.5415 40.1733C55.7895 39.8809 55.7535 39.4427 55.461 39.1947C55.1686 38.9468 54.7304 38.9826 54.4824 39.2752L52.3364 41.8058H46.737C46.6281 41.1388 46.3648 40.5233 45.9853 39.9966L49.9463 36.0357L53.2532 36.3076C53.2724 36.3092 53.2918 36.3099 53.3108 36.3099C53.6684 36.3099 53.9722 36.0352 54.0021 35.6724C54.0334 35.2902 53.7491 34.955 53.367 34.9235L51.2339 34.7481L53.1022 32.8798C53.3734 32.6087 53.3734 32.1691 53.1022 31.898C52.8313 31.6269 52.3915 31.6268 52.1204 31.898L50.252 33.7663L50.0766 31.6331C50.0452 31.2509 49.708 30.9671 49.3277 30.998C48.9454 31.0295 48.6612 31.3647 48.6926 31.7469L48.9645 35.0539L45.0034 39.0149C44.4767 38.6355 43.8613 38.3722 43.1944 38.2633V32.6638L45.7249 30.5178C46.0173 30.2698 46.0534 29.8316 45.8055 29.5392C45.5575 29.2468 45.1193 29.2108 44.8269 29.4587L43.1944 30.8429V28.2007C43.1944 27.8172 42.8835 27.5063 42.5 27.5063C42.1166 27.5063 41.8057 27.8172 41.8057 28.2007V30.8429L40.1733 29.4586C39.8809 29.2107 39.4428 29.2465 39.1947 29.5391C38.9467 29.8315 38.9827 30.2697 39.2753 30.5177L41.8057 32.6636V38.2632C41.1388 38.3721 40.5234 38.6353 39.9966 39.0148L36.0355 35.0538L36.3075 31.7469C36.3388 31.3647 36.0545 31.0296 35.6724 30.998C35.2907 30.9675 34.955 31.251 34.9235 31.6331L34.748 33.7663L32.8796 31.898C32.6087 31.6268 32.1688 31.6268 31.8979 31.898C31.6267 32.1691 31.6267 32.6087 31.8979 32.8798L33.7662 34.7481L31.633 34.9235C31.2507 34.9549 30.9665 35.2902 30.9979 35.6724C31.0278 36.0352 31.3314 36.3099 31.6892 36.3099C31.7082 36.3099 31.7275 36.3091 31.7468 36.3076L35.0538 36.0356L39.0148 39.9965C38.6353 40.5233 38.372 41.1387 38.2631 41.8058H32.6637L30.5177 39.2752C30.2697 38.9828 29.8316 38.9468 29.5391 39.1947C29.2467 39.4427 29.2106 39.8809 29.4586 40.1733L30.843 41.8058H28.2006C27.8172 41.8058 27.5063 42.1166 27.5063 42.5001C27.5063 42.8836 27.8172 43.1944 28.2006 43.1944H30.843L29.4586 44.8268C29.2106 45.1192 29.2466 45.5573 29.5391 45.8054C29.6695 45.916 29.8291 45.9702 29.9877 45.9702C30.1846 45.9702 30.3803 45.8869 30.5177 45.7249L32.6636 43.1944H38.263C38.372 43.8614 38.6353 44.4768 39.0148 45.0036L35.0538 48.9644L31.7469 48.6925C31.3668 48.6613 31.0295 48.9455 30.998 49.3276C30.9667 49.7098 31.2509 50.0449 31.6331 50.0765L33.7662 50.2519L31.8979 52.1203C31.6267 52.3914 31.6267 52.831 31.8979 53.1021C32.0334 53.2377 32.211 53.3055 32.3888 53.3055C32.5664 53.3055 32.7442 53.2377 32.8796 53.1022L34.7481 51.2337L34.9235 53.3669C34.9533 53.7298 35.2569 54.0044 35.6147 54.0044C35.6338 54.0044 35.6531 54.0036 35.6724 54.0021C36.0546 53.9707 36.3389 53.6354 36.3075 53.2533L36.0356 49.9463L39.9966 45.9854C40.5234 46.3648 41.1388 46.628 41.8057 46.737V52.3365L39.2752 54.4825C38.9827 54.7306 38.9466 55.1687 39.1946 55.4611C39.4427 55.7537 39.8809 55.7897 40.1732 55.5417L41.8057 54.1573V56.7996C41.8057 57.1831 42.1166 57.494 42.5 57.494C42.8835 57.494 43.1944 57.1831 43.1944 56.7996V54.1573L44.8268 55.5417C44.9572 55.6523 45.1168 55.7064 45.2754 55.7064C45.4723 55.7064 45.668 55.6231 45.8054 55.4611C46.0533 55.1687 46.0173 54.7306 45.7249 54.4825ZM39.5948 42.5001C39.5948 40.8982 40.8981 39.5949 42.5 39.5949C44.102 39.5949 45.4052 40.8982 45.4052 42.5001C45.4052 44.102 44.102 45.4054 42.5 45.4054C40.8981 45.4054 39.5948 44.102 39.5948 42.5001ZM66.7019 30.4959C66.481 30.3425 66.1914 30.3305 65.9586 30.465L64.3751 31.3791C61.8863 26.3317 57.9767 22.5508 53.5587 20.947C49.87 19.6082 45.9426 19.8447 42.2008 21.6313C41.9082 21.771 41.7513 22.0949 41.8228 22.4111C41.8945 22.7274 42.1756 22.9521 42.4999 22.9521C49.9504 22.9521 56.7693 27.2204 60.0462 33.8782L58.0664 35.0213C57.8335 35.1557 57.6992 35.4125 57.7216 35.6805C57.7441 35.9485 57.9192 36.1794 58.1712 36.2733L64.8737 38.7694C64.9521 38.7987 65.0342 38.8131 65.116 38.8131C65.2364 38.8131 65.3563 38.7817 65.4632 38.72C65.6425 38.6165 65.7662 38.4383 65.8006 38.2342L66.9902 31.1814C67.0352 30.9165 66.9227 30.6494 66.7019 30.4959ZM64.5712 37.175L60.0378 35.4867L61.2942 34.7613C61.6034 34.5829 61.7267 34.1989 61.5795 33.8738C58.6499 27.4034 52.6479 22.9139 45.7692 21.8214C48.2262 21.2352 50.6765 21.3781 53.0849 22.2524C57.3539 23.8021 61.128 27.5901 63.4395 32.6453C63.5208 32.8231 63.6734 32.9584 63.8596 33.0179C64.0456 33.0776 64.2486 33.0556 64.4181 32.9578L65.3759 32.405L64.5712 37.175ZM22.2577 43.1944C22.3086 43.1944 22.36 43.1888 22.4113 43.1772C22.7276 43.1054 22.9523 42.8243 22.9523 42.5C22.9523 35.0495 27.2204 28.2305 33.8783 24.9537L35.0214 26.9335C35.1557 27.1665 35.4133 27.301 35.6806 27.2783C35.9486 27.2558 36.1794 27.0807 36.2734 26.8287L38.7695 20.1262C38.8418 19.9322 38.8236 19.716 38.7202 19.5367C38.6166 19.3574 38.4385 19.2337 38.2344 19.1993L31.1817 18.0096C30.917 17.9652 30.6494 18.0773 30.496 18.298C30.3426 18.5189 30.3305 18.8085 30.465 19.0414L31.3792 20.6248C26.3316 23.1137 22.5508 27.0233 20.947 31.4413C19.608 35.13 19.8447 39.0575 21.6313 42.7992C21.7485 43.0445 21.9948 43.1944 22.2577 43.1944ZM22.2523 31.9152C23.802 27.6462 27.5901 23.8721 32.6452 21.5606C32.823 21.4793 32.9583 21.3267 33.0178 21.1405C33.0773 20.9542 33.0555 20.7514 32.9578 20.582L32.4048 19.6242L37.175 20.4289L35.4867 24.9623L34.7613 23.7059C34.5828 23.3967 34.1989 23.2734 33.8737 23.4206C27.4033 26.3501 22.9139 32.3522 21.8214 39.231C21.2351 36.7738 21.3781 34.3236 22.2523 31.9152ZM42.5 62.0479C35.0495 62.0479 28.2305 57.7797 24.9537 51.1218L26.9336 49.9789C27.1665 49.8445 27.3007 49.5876 27.2784 49.3197C27.2558 49.0516 27.0808 48.8208 26.8288 48.7269L20.1262 46.2306C19.9323 46.1583 19.7162 46.1765 19.5367 46.2799C19.3574 46.3835 19.2336 46.5617 19.1993 46.7658L18.0097 53.8184C17.965 54.0836 18.0774 54.3507 18.2982 54.5042C18.519 54.6575 18.8087 54.6693 19.0415 54.5352L20.6249 53.621C23.1136 58.6684 27.0232 62.4492 31.4413 64.053C33.0141 64.624 34.6303 64.9085 36.2571 64.9085C38.4454 64.9085 40.6529 64.3937 42.7993 63.3687C43.0919 63.229 43.2488 62.9051 43.1773 62.5889C43.1055 62.2725 42.8245 62.0479 42.5 62.0479ZM31.9151 62.7477C27.6461 61.198 23.872 57.41 21.5606 52.3549C21.4793 52.177 21.3267 52.0417 21.1404 51.9822C21.0715 51.9601 21.0002 51.9493 20.9292 51.9493C20.8086 51.9493 20.6886 51.9807 20.582 52.0423L19.6242 52.5953L20.4288 47.8251L24.9622 49.5135L23.7058 50.2388C23.3966 50.4173 23.2732 50.8013 23.4204 51.1264C26.3501 57.5971 32.3516 62.0866 39.231 63.1787C36.7735 63.765 34.3233 63.6221 31.9151 62.7477ZM62.5888 41.8228C62.2725 41.8945 62.0478 42.1756 62.0478 42.5C62.0478 49.9505 57.7796 56.7695 51.1217 60.0463L49.9786 58.0666C49.8442 57.8337 49.5878 57.7002 49.3194 57.7218C49.0514 57.7443 48.8206 57.9194 48.7266 58.1713L46.2305 64.8738C46.1582 65.0679 46.1763 65.2841 46.2798 65.4633C46.3834 65.6427 46.5615 65.7665 46.7656 65.8008L53.8184 66.9903C53.8571 66.9967 53.8956 67 53.9339 67C54.1589 67 54.3731 66.8905 54.5041 66.7017C54.6575 66.4808 54.6696 66.1913 54.535 65.9585L53.6209 64.3751C58.6683 61.8863 62.4491 57.9767 64.0529 53.5587C65.3919 49.87 65.1553 45.9425 63.3686 42.2006C63.229 41.9082 62.9053 41.7514 62.5888 41.8228ZM62.7477 53.085C61.198 57.354 57.41 61.1281 52.3548 63.4395C52.177 63.5209 52.0417 63.6734 51.9822 63.8597C51.9227 64.046 51.9445 64.2488 52.0423 64.4182L52.5952 65.3759L47.825 64.5713L49.5133 60.038L50.2387 61.2943C50.4172 61.6033 50.8009 61.7269 51.1263 61.5796C57.5965 58.6501 62.0861 52.648 63.1786 45.7692C63.765 48.2265 63.622 50.6766 62.7477 53.085Z" fill="#1C2B54"/>
</g>
<defs>
<clipPath id="clip0_2_1819">
<rect width="49" height="49" fill="white" transform="translate(18 18)"/>
</clipPath>
</defs>
</svg>
