<svg width="24" height="24" viewBox="0 0 24 24" fill="none" xmlns="http://www.w3.org/2000/svg">
<g clip-path="url(#clip0_2_1419)">
<g clip-path="url(#clip1_2_1419)">
<path d="M19.9886 5.16932C18.2573 3.3785 16.0167 2.23977 13.585 1.89336L14.2781 1.20027C14.5527 0.925676 14.5527 0.480504 14.2781 0.20591C14.0036 -0.0686367 13.5584 -0.0686367 13.2838 0.20591L11.5031 1.9865C11.2285 2.26105 11.2285 2.70627 11.5031 2.98086L13.2837 4.76146C13.421 4.89875 13.601 4.96743 13.7809 4.96743C13.9608 4.96743 14.1408 4.89875 14.278 4.76146C14.5526 4.48691 14.5526 4.04169 14.278 3.7671L13.8798 3.36889C15.8117 3.74694 17.5835 4.70479 18.9774 6.14666C20.7355 7.96522 21.7037 10.3602 21.7037 12.8902C21.7038 18.2407 17.3508 22.5937 12.0003 22.5937C6.64988 22.5937 2.29688 18.2407 2.29688 12.8903C2.29688 10.8486 2.92345 8.89565 4.10892 7.24246C5.26978 5.62354 6.87009 4.41552 8.73699 3.74905C9.1027 3.61846 9.2933 3.21618 9.16275 2.85041C9.0322 2.48469 8.62983 2.2941 8.26411 2.42464C6.12647 3.18782 4.29445 4.57044 2.96606 6.42299C1.60828 8.31655 0.890625 10.5529 0.890625 12.8903C0.890625 15.8578 2.04623 18.6477 4.14459 20.7461C6.24295 22.8443 9.03281 23.9999 12.0003 23.9999C14.9678 23.9999 17.7577 22.8443 19.8561 20.746C21.9544 18.6477 23.11 15.8578 23.11 12.8903C23.11 9.9935 22.0014 7.25146 19.9886 5.16932Z" fill="#1C2B54"/>
<path d="M4 13.0001C4 17.4112 7.58879 21 12 21C16.4112 21 20 17.4112 20 13.0001C20 8.58888 16.4112 5 12 5C7.58874 5 4 8.58883 4 13.0001ZM12.478 13.6931C11.3572 13.2969 10.7078 12.9846 10.2367 12.615C9.65685 12.1603 9.39144 11.3748 9.54395 10.5653C9.70943 9.68712 10.3219 8.98801 11.1423 8.74087C11.1536 8.73744 11.1648 8.73469 11.1761 8.73137V8.41784C11.1761 7.98783 11.5247 7.63921 11.9548 7.63921C12.3848 7.63921 12.7334 7.98783 12.7334 8.41784V8.6818C13.277 8.80913 13.6565 9.05762 13.8099 9.17229C14.1543 9.42981 14.2248 9.9177 13.9673 10.2622C13.7098 10.6066 13.222 10.677 12.8774 10.4196C12.7126 10.2964 12.2575 10.0312 11.5914 10.2319C11.1979 10.3505 11.0961 10.7378 11.0743 10.8537C11.0311 11.0826 11.0807 11.2981 11.1977 11.3897C11.605 11.7091 12.3358 11.9911 12.9969 12.2248C14.2064 12.6524 14.879 13.7728 14.6705 15.0129C14.5681 15.6217 14.2619 16.1866 13.808 16.6037C13.4958 16.8904 13.1321 17.0943 12.7334 17.2093V17.5822C12.7334 18.0122 12.3848 18.3608 11.9548 18.3608C11.5247 18.3608 11.1761 18.0122 11.1761 17.5822V17.2859C10.6581 17.225 10.2259 17.0655 9.64455 16.6852C9.28466 16.4498 9.1838 15.9672 9.41921 15.6073C9.65462 15.2474 10.1373 15.1466 10.4971 15.382C11.0361 15.7346 11.2399 15.767 11.9496 15.7621C12.6483 15.7574 13.0537 15.2366 13.1348 14.7547C13.1744 14.5193 13.1896 13.9446 12.478 13.6931Z" fill="#1C2B54"/>
</g>
</g>
<defs>
<clipPath id="clip0_2_1419">
<rect width="24" height="24" fill="white"/>
</clipPath>
<clipPath id="clip1_2_1419">
<rect width="24" height="24" fill="white"/>
</clipPath>
</defs>
</svg>
