<svg width="48" height="48" viewBox="0 0 48 48" fill="none" xmlns="http://www.w3.org/2000/svg">
<g clip-path="url(#clip0_92_8659)">
<path d="M6.83921 27.871H9.00756L15.9299 13.1613H11.8654L13.4138 7.74194H7.97404L4.31363 17.8065H8.3876L6.83921 27.871ZM6.52507 16.2581L9.05821 9.29033H11.3604L9.81199 14.7097H13.4894L8.94594 24.3671L10.193 16.2581H6.52507Z" fill="#1C2B54"/>
<path d="M25.5484 3.09677C22.6266 3.09677 19.7884 3.65512 17.106 4.74496C16.8319 4.68372 16.5499 4.64516 16.2581 4.64516H15.4839V2.32258C15.4839 1.04221 14.4417 0 13.1613 0H6.96774C5.68737 0 4.64516 1.04221 4.64516 2.32258V4.64516H3.87097C1.73664 4.64516 0 6.3818 0 8.51613V30.1936C0 32.3279 1.73664 34.0645 3.87097 34.0645H4.78994C8.22354 42.4181 16.4887 48 25.5484 48C37.9279 48 48 37.9287 48 25.5484C48 13.1681 37.9279 3.09677 25.5484 3.09677ZM6.19355 2.32258C6.19355 1.89617 6.54058 1.54839 6.96774 1.54839H13.1613C13.5885 1.54839 13.9355 1.89617 13.9355 2.32258V4.64516H6.19355V2.32258ZM3.87097 6.19355H16.2581C17.5384 6.19355 18.5806 7.23576 18.5806 8.51613V29.4194H1.54839V8.51613C1.54839 7.23576 2.5906 6.19355 3.87097 6.19355ZM24.7742 7.7752V10.8387H26.3226V7.76122C30.6494 7.9472 34.5801 9.68271 37.5733 12.4291L35.4023 14.5997L36.4971 15.6944L38.6677 13.5234C41.4133 16.5166 43.1488 20.4473 43.3356 24.7742H40.2581V26.3226H43.3356C43.1496 30.6494 41.4141 34.5801 38.6677 37.5733L36.4971 35.4023L35.4023 36.4971L37.5733 38.6677C34.5801 41.4133 30.6494 43.1488 26.3226 43.3356V40.2581H24.7742V43.3261C20.5426 43.1405 16.5764 41.4443 13.5314 38.6602L15.6952 36.4971L14.6004 35.4023L12.4351 37.5677C11.4674 36.5149 10.6149 35.3456 9.91595 34.0645H16.2581C18.3924 34.0645 20.129 32.3279 20.129 30.1936V8.60043C21.6355 8.11883 23.1918 7.84325 24.7742 7.7752ZM1.6909 30.9677H18.4374C18.1168 31.8667 17.2651 32.5161 16.2573 32.5161H3.87097C2.86316 32.5161 2.01147 31.8667 1.6909 30.9677ZM25.5484 46.4516C17.3271 46.4516 9.80973 41.5146 6.47215 34.0645H8.18158C11.4239 40.6614 18.1788 44.9032 25.5484 44.9032C36.2208 44.9032 44.9032 36.2208 44.9032 25.5484C44.9032 14.876 36.2208 6.19355 25.5484 6.19355C23.6035 6.19355 21.6907 6.49937 19.8425 7.06981C19.6342 6.5557 19.3193 6.0998 18.9243 5.72291C21.0518 5.01147 23.2723 4.64516 25.5484 4.64516C37.0747 4.64516 46.4516 14.0221 46.4516 25.5484C46.4516 37.0747 37.0747 46.4516 25.5484 46.4516Z" fill="#1C2B54"/>
<path d="M30.7409 29.6462L26.3226 25.2278V15.4839H24.7742V25.869L29.6462 30.7409L30.7409 29.6462Z" fill="#1C2B54"/>
</g>
<defs>
<clipPath id="clip0_92_8659">
<rect width="48" height="48" fill="white"/>
</clipPath>
</defs>
</svg>
