<svg width="48" height="48" viewBox="0 0 48 48" fill="none" xmlns="http://www.w3.org/2000/svg">
<g clip-path="url(#clip0_92_8498)">
<path d="M20.6898 0C21.1469 0 21.5174 0.370523 21.5174 0.827586V3.61618C21.5174 3.786 21.5696 3.95168 21.667 4.09076L26.2832 10.6853C27.0264 11.747 26.8279 13.2017 25.8275 14.0256L23.8804 15.6292L24.235 17.2843C24.4162 18.1299 23.916 18.9724 23.0868 19.218L18.2353 20.6556C17.797 20.7854 17.3365 20.5354 17.2067 20.0972C17.0768 19.6589 17.3268 19.1984 17.7651 19.0686L22.6166 17.6311L22.262 15.976C22.1323 15.3712 22.3508 14.7446 22.8282 14.3515L24.7753 12.7479C25.1088 12.4733 25.175 11.9884 24.9272 11.6345L20.311 5.03996C20.0189 4.62265 19.8622 4.12556 19.8622 3.61618V0.827586C19.8622 0.370523 20.2327 0 20.6898 0Z" fill="#1C2B54"/>
<path d="M21.9313 20.8966C22.3883 20.8966 22.7588 21.2671 22.7588 21.7242V23.0233C22.7588 23.5709 22.5778 24.103 22.244 24.5371L20.8615 26.3343C20.7502 26.479 20.6899 26.6564 20.6899 26.8389V27.5387C20.6899 28.0791 20.5132 28.7693 19.9116 29.2092C18.036 30.5809 13.6731 31.3012 6.47016 27.8498C6.05798 27.6523 5.88394 27.1581 6.08144 26.7459C6.27895 26.3337 6.77322 26.1597 7.1854 26.3572C14.1647 29.7014 17.7868 28.7126 18.9346 27.8732C18.9841 27.837 19.0347 27.6458 19.0347 27.5387V26.8389C19.0347 26.2913 19.2157 25.7591 19.5495 25.3251L20.932 23.5279C21.0433 23.3832 21.1037 23.2058 21.1037 23.0233V21.7242C21.1037 21.2671 21.4742 20.8966 21.9313 20.8966Z" fill="#1C2B54"/>
<path d="M29.0294 18.2069C29.5978 18.2069 30.0586 18.6677 30.0586 19.2361V30.8549C30.0586 31.3119 30.4291 31.6825 30.8862 31.6825C31.3432 31.6825 31.7137 31.3119 31.7137 30.8549V29.0193C31.7137 28.5486 32.0953 28.167 32.5661 28.167C33.0368 28.167 33.4184 28.5486 33.4184 29.0193V31.2064C33.4184 31.6635 33.789 32.034 34.246 32.034C34.7031 32.034 35.0736 31.6635 35.0736 31.2064V30.1624C35.0736 29.6428 35.4948 29.2216 36.0144 29.2216C36.5339 29.2216 36.9551 29.6428 36.9551 30.1624V31.9095C36.9551 32.3666 37.3256 32.7371 37.7827 32.7371C38.2398 32.7371 38.6103 32.3666 38.6103 31.9095C38.6103 31.1705 38.9523 30.8036 39.3742 30.8036C39.7961 30.8036 40.1382 31.1456 40.1382 31.5675V38.0829C40.1382 38.5876 39.9844 39.0803 39.6973 39.4953L38.9277 40.608C38.4493 41.2999 38.193 42.0919 38.193 43.0345H27.22L26.6762 41.5519C26.4749 41.0036 26.1627 40.5129 25.7786 40.0966C25.2863 39.5628 24.5116 38.6904 23.8669 37.8229C23.2426 36.7201 22.9086 35.4488 22.7339 34.4212C22.6463 33.9063 22.6006 33.4646 22.5769 33.1536C22.5651 32.9984 22.5552 32.7621 22.5519 32.6808C22.547 32.2238 22.1725 31.8572 21.7155 31.8621C21.2584 31.8671 20.8921 32.2564 20.897 32.7135C20.9011 32.8126 20.9131 33.1031 20.9265 33.2793C20.9533 33.6313 21.0045 34.1247 21.1021 34.6988C21.2956 35.8365 21.6798 37.3396 22.4552 38.6884C23.1584 39.6402 24.0478 40.6614 24.5619 41.2188C24.8107 41.4886 25.0021 41.7944 25.1223 42.1221L25.457 43.0345H25.4485C24.8278 43.0345 24.414 43.4049 24.414 43.8621V47.1724C24.414 47.6297 24.7845 48 25.2416 48C25.6986 48 26.0692 47.6297 26.0692 47.1724V44.6897H39.3106V47.1724C39.3106 47.6297 39.6811 48 40.1382 48C40.5952 48 40.9657 47.6297 40.9657 47.1724V43.8621C40.9657 43.4049 40.5952 43.0345 40.1382 43.0345H39.8481C39.8481 42.4138 40.0019 41.9644 40.289 41.5494L41.0586 40.4367C41.5372 39.7453 41.7933 38.9239 41.7933 38.0829V31.5675C41.7933 30.2315 40.7103 29.1484 39.3742 29.1484C39.0551 29.1484 38.7504 29.2102 38.4714 29.3225C38.1223 28.301 37.1541 27.5665 36.0144 27.5665C35.5737 27.5665 35.1587 27.6763 34.7953 27.87C34.3785 27.0633 33.5367 26.5118 32.5661 26.5118C32.2668 26.5118 31.9798 26.5642 31.7137 26.6604V19.2361C31.7137 17.7536 30.5119 16.5518 29.0294 16.5518C27.5468 16.5518 26.345 17.7536 26.345 19.2361V33.0573C26.345 33.4448 26.2544 33.8269 26.0802 34.173L25.9028 34.5258C25.6974 34.9341 25.8619 35.4316 26.2702 35.637C26.6785 35.8424 27.176 35.6779 27.3815 35.2696L27.5589 34.9168C27.8491 34.3399 28.0002 33.7031 28.0002 33.0573V19.2361C28.0002 18.6677 28.461 18.2069 29.0294 18.2069Z" fill="#1C2B54"/>
<path d="M27.2786 45.3641C26.8216 45.3641 26.451 45.7345 26.451 46.1917C26.451 46.6485 26.8216 47.0193 27.2786 47.0193H28.6792C29.1362 47.0193 29.5068 46.6485 29.5068 46.1917C29.5068 45.7345 29.1362 45.3641 28.6792 45.3641H27.2786Z" fill="#1C2B54"/>
</g>
<defs>
<clipPath id="clip0_92_8498">
<rect width="48" height="48" fill="white"/>
</clipPath>
</defs>
</svg>
