<svg width="48" height="48" viewBox="0 0 48 48" fill="none" xmlns="http://www.w3.org/2000/svg">
<g clip-path="url(#clip0_92_8564)">
<path d="M24 0C10.7664 0 0 10.7664 0 24C0 37.2336 10.7664 48 24 48C37.2336 48 48 37.2336 48 24C48 10.7664 37.2336 0 24 0ZM24 46.4C11.6488 46.4 1.6 36.3512 1.6 24C1.6 11.6488 11.6488 1.6 24 1.6C36.3512 1.6 46.4 11.6488 46.4 24C46.4 36.3512 36.3512 46.4 24 46.4Z" fill="#1C2B54" stroke="#FAFAFA" stroke-width="0.2"/>
<path d="M24 3.19995C19.0672 3.19995 14.28 4.96715 10.52 8.17515C10.3504 8.31995 10.2488 8.52875 10.24 8.75275C10.2312 8.97515 10.316 9.19195 10.4736 9.34955L38.6496 37.5263C38.8 37.6768 39.0032 37.7607 39.2152 37.7607H39.2464C39.4696 37.7519 39.6784 37.6503 39.824 37.4808C43.0328 33.7215 44.8 28.9343 44.8 24.0007C44.8 12.5311 35.4696 3.19995 24 3.19995ZM15.3872 12H26.4C26.8416 12 27.2 12.3584 27.2 12.8V19.2C27.2 19.6416 26.8416 20 26.4 20H23.3872L15.3872 12ZM39.1552 35.7687L24.9872 21.6H26.4C27.4416 21.6 28.3216 20.9288 28.6528 20H32C33.0416 20 33.9216 19.3288 34.2528 18.4H37.6C37.9432 18.4 38.2656 18.2671 38.512 18.0224L39.6248 16.9104C40.1248 16.408 40.1248 15.5912 39.6232 15.088L38.5096 13.9744C38.2656 13.732 37.9432 13.5992 37.6 13.5992H34.2528C33.9216 12.6704 33.0416 11.9992 32 11.9992H28.6528C28.3216 11.0704 27.4416 10.3992 26.4 10.3992H15.2C14.7872 10.3992 14.3768 10.4704 13.9864 10.5976L12.2312 8.84235C15.5904 6.22875 19.7368 4.79835 24 4.79835C34.5864 4.79835 43.2 13.412 43.2 23.9984C43.2 28.2623 41.7696 32.4079 39.1552 35.7671V35.7687ZM28.8 13.6H32C32.4416 13.6 32.8 13.9584 32.8 14.4V17.6C32.8 18.0416 32.4416 18.4 32 18.4H28.8V13.6ZM34.4 15.2H37.472L38.272 16L37.472 16.8H34.4V15.2Z" fill="#1C2B54" stroke="#FAFAFA" stroke-width="0.2"/>
<path d="M9.34962 10.4744C9.19202 10.3176 8.98002 10.216 8.75282 10.2408C8.52962 10.2496 8.32082 10.3512 8.17522 10.5208C4.96642 14.28 3.19922 19.0672 3.19922 24.0008C3.19922 35.4704 12.5296 44.8008 23.9992 44.8008C28.9328 44.8008 33.7192 43.0336 37.4792 39.8248C37.6488 39.6792 37.7504 39.4712 37.7592 39.2472C37.768 39.0248 37.6832 38.808 37.5256 38.6504L9.34962 10.4744ZM20.9472 30.4H17.452C17.5416 30.1488 17.5992 29.8816 17.5992 29.6V22.4C17.5992 22.1184 17.5416 21.8512 17.452 21.6H18.2128L21.0912 24.4784C20.908 24.8216 20.7992 25.2032 20.7992 25.6V29.6C20.7992 29.8816 20.8576 30.1488 20.9472 30.4ZM13.6 35.2H24.8V36C24.8 36.4416 24.4416 36.8 24 36.8H14.4C13.9584 36.8 13.6 36.4416 13.6 36V35.2ZM13.6 33.6C13.6 32.7176 14.3176 32 15.2 32H23.2C24.0824 32 24.8 32.7176 24.8 33.6H13.6ZM12.8 16.1864L16.6136 20H15.2C13.8768 20 12.8 18.9232 12.8 17.6V16.1864ZM24 43.2C13.4136 43.2 4.80002 34.5864 4.80002 24C4.80002 19.736 6.23042 15.5904 8.84482 12.2312L11.2 14.5864V17.6C11.2 19.8056 12.9944 21.6 15.2 21.6C15.6416 21.6 16 21.9584 16 22.4V29.6C16 30.0416 15.6416 30.4 15.2 30.4C13.4352 30.4 12 31.8352 12 33.6V36C12 37.3232 13.0768 38.4 14.4 38.4H24C25.3232 38.4 26.4 37.3232 26.4 36V33.6C26.4 31.8352 24.9648 30.4 23.2 30.4C22.7584 30.4 22.4 30.0416 22.4 29.6V25.7864L35.7688 39.1552C32.4096 41.7696 28.264 43.2 24 43.2Z" fill="#1C2B54" stroke="#FAFAFA" stroke-width="0.2"/>
</g>
<defs>
<clipPath id="clip0_92_8564">
<rect width="48" height="48" fill="white"/>
</clipPath>
</defs>
</svg>
