<svg width="48" height="48" viewBox="0 0 48 48" fill="none" xmlns="http://www.w3.org/2000/svg">
<g clip-path="url(#clip0_369_6762)">
<path d="M24 8.80001C17.772 8.77397 11.7795 11.1789 7.29732 15.5033C2.81517 19.8277 0.197108 25.7302 4.50523e-05 31.9552C-0.00805926 32.1672 0.0269743 32.3786 0.103021 32.5766C0.179068 32.7746 0.294544 32.9552 0.442445 33.1072C0.594121 33.2631 0.77547 33.387 0.975797 33.4716C1.17612 33.5562 1.39137 33.5999 1.60885 33.6H3.20885C3.62154 33.5968 4.01733 33.4357 4.3149 33.1497C4.61247 32.8637 4.78923 32.4747 4.80885 32.0624C4.92345 29.675 5.59991 27.3483 6.78321 25.2715C7.96652 23.1948 9.62326 21.4267 11.6187 20.1109C13.6142 18.7952 15.892 17.969 18.2669 17.6995C20.6419 17.43 23.0469 17.7248 25.2864 18.56C20.7136 23.0912 15.8904 28.1072 14.444 30.464C14.0497 31.0953 13.7859 31.7993 13.6682 32.5343C13.5506 33.2693 13.5816 34.0204 13.7592 34.7432C13.9403 35.492 14.2695 36.1969 14.7275 36.8163C15.1854 37.4357 15.7628 37.9571 16.4256 38.3496C17.3468 38.9059 18.4024 39.2 19.4784 39.2C20.4648 39.2055 21.4362 38.9584 22.3 38.4823C23.1639 38.0062 23.8915 37.3169 24.4136 36.48C25.9128 34.0544 28.3592 27.0312 30.1736 21.4864C31.6688 22.8272 32.8824 24.452 33.744 26.2661C34.6055 28.0802 35.0977 30.0475 35.1921 32.0536C35.2045 32.4675 35.3775 32.8604 35.6745 33.149C35.9715 33.4376 36.3691 33.5994 36.7832 33.6H46.3912C46.6086 33.5998 46.8237 33.5561 47.0239 33.4714C47.224 33.3868 47.4053 33.263 47.5569 33.1072C47.7048 32.9553 47.8204 32.775 47.8966 32.5771C47.9728 32.3792 48.008 32.1679 48 31.956C47.8032 25.7308 45.1852 19.8281 40.703 15.5036C36.2209 11.1791 30.2283 8.77398 24 8.80001ZM3.20885 32L1.60005 32.0128C1.77096 26.616 3.89305 21.4643 7.57285 17.5128L9.63125 19.5704C7.7287 21.0574 6.16987 22.9379 5.0614 25.0832C3.95293 27.2285 3.321 29.5879 3.20885 32ZM10.96 18.6344L8.70645 16.384C12.6588 12.7107 17.8071 10.592 23.2 10.4192V16.3056C22.1454 16.1031 21.074 16.0008 20 16C16.7969 15.9961 13.6596 16.9103 10.96 18.6344ZM23.052 35.64C22.4535 36.5791 21.5099 37.2454 20.4247 37.4953C19.3394 37.7452 18.1995 37.5587 17.2504 36.976C16.7697 36.6921 16.3507 36.3148 16.0182 35.8663C15.6857 35.4178 15.4464 34.9073 15.3144 34.3648C15.1873 33.8475 15.1652 33.3099 15.2494 32.7839C15.3336 32.2579 15.5225 31.7542 15.8048 31.3024C17.0848 29.216 21.7712 24.1904 29 17.1528C29.0382 17.1124 29.0842 17.0801 29.1352 17.058C29.1863 17.0359 29.2412 17.0243 29.2968 17.024C29.3888 17.0271 29.4783 17.0547 29.556 17.104C29.6395 17.1485 29.7045 17.2211 29.7395 17.309C29.7745 17.3969 29.7773 17.4943 29.7472 17.584C27.9944 23.12 24.8 32.8208 23.052 35.64ZM30.7064 19.84C30.9056 19.2192 31.0976 18.6192 31.2712 18.0696C31.4119 17.6401 31.4022 17.1755 31.2439 16.7521C31.0856 16.3288 30.788 15.9719 30.4 15.74C30.0126 15.4933 29.5529 15.3855 29.0961 15.434C28.6394 15.4825 28.2126 15.6846 27.8856 16.0072C27.4472 16.4344 26.9968 16.8752 26.5424 17.3216C25.9737 17.0806 25.392 16.8715 24.8 16.6952V10.4192C30.1931 10.5916 35.3415 12.7104 39.2937 16.384L33.2393 22.4344C32.4912 21.4807 31.642 20.6108 30.7064 19.84ZM36.7912 31.988C36.6518 29.0644 35.7506 26.2279 34.1768 23.76L40.4272 17.5136C44.104 21.4608 46.2232 26.6083 46.3912 32L36.7912 31.988Z" fill="#1C2B54"/>
<path d="M19.6001 30.4C19.0463 30.4 18.5049 30.5642 18.0445 30.8719C17.584 31.1796 17.2251 31.6169 17.0132 32.1285C16.8013 32.6401 16.7458 33.2031 16.8539 33.7463C16.9619 34.2894 17.2286 34.7883 17.6202 35.1799C18.0117 35.5715 18.5107 35.8382 19.0538 35.9462C19.5969 36.0543 20.1599 35.9988 20.6716 35.7869C21.1832 35.575 21.6205 35.2161 21.9282 34.7556C22.2358 34.2952 22.4001 33.7538 22.4001 33.2C22.4001 32.4574 22.1051 31.7452 21.5799 31.2201C21.0548 30.695 20.3427 30.4 19.6001 30.4ZM19.6001 34.4C19.3627 34.4 19.1307 34.3296 18.9334 34.1978C18.736 34.0659 18.5822 33.8785 18.4914 33.6592C18.4006 33.44 18.3768 33.1987 18.4231 32.9659C18.4694 32.7331 18.5837 32.5193 18.7515 32.3515C18.9193 32.1837 19.1332 32.0694 19.3659 32.0231C19.5987 31.9768 19.84 32.0005 20.0593 32.0914C20.2785 32.1822 20.466 32.336 20.5978 32.5333C20.7297 32.7307 20.8001 32.9627 20.8001 33.2C20.8001 33.5183 20.6736 33.8235 20.4486 34.0486C20.2235 34.2736 19.9183 34.4 19.6001 34.4Z" fill="#1C2B54"/>
</g>
<defs>
<clipPath id="clip0_369_6762">
<rect width="48" height="48" fill="white"/>
</clipPath>
</defs>
</svg>
