<svg width="48" height="48" viewBox="0 0 48 48" fill="none" xmlns="http://www.w3.org/2000/svg">
<g clip-path="url(#clip0_369_6658)">
<path d="M10.5766 17.4775C9.47926 17.4775 8.58655 18.3703 8.58655 19.4676C8.58655 19.8553 8.90071 20.1695 9.28844 20.1695C9.67616 20.1695 9.99032 19.8553 9.99032 19.4676C9.99032 19.1444 10.2534 18.8813 10.5766 18.8813C10.9 18.8813 11.163 19.1444 11.163 19.4676C11.163 19.8553 11.4772 20.1695 11.8649 20.1695C12.2527 20.1695 12.5668 19.8553 12.5668 19.4676C12.5668 18.3703 11.674 17.4775 10.5766 17.4775Z" fill="#1C2B54"/>
<path d="M24.082 19.4676C24.082 18.3702 23.1892 17.4775 22.0918 17.4775C20.9944 17.4775 20.1017 18.3703 20.1017 19.4676C20.1017 19.8553 20.4158 20.1695 20.8036 20.1695C21.1913 20.1695 21.5055 19.8553 21.5055 19.4676C21.5055 19.1444 21.7685 18.8813 22.0918 18.8813C22.4151 18.8813 22.6782 19.1444 22.6782 19.4676C22.6782 19.8553 22.9923 20.1695 23.3801 20.1695C23.7678 20.1695 24.082 19.8553 24.082 19.4676Z" fill="#1C2B54"/>
<path d="M18.1619 20.4442C17.8695 20.1896 17.4264 20.22 17.1716 20.5123C16.7276 21.0219 15.9411 21.0219 15.497 20.5123C15.2423 20.22 14.7988 20.1897 14.5067 20.4442C13.3578 21.4457 16.4796 23.4425 18.2299 21.4345C18.4846 21.1423 18.4541 20.6989 18.1619 20.4442Z" fill="#1C2B54"/>
<path d="M47.9867 22.7937C47.9643 21.8371 47.1569 21.0883 46.1651 21.154C43.9166 21.3049 40.0791 21.7519 38.5112 23.3605C36.532 22.6072 34.8066 22.607 32.8271 23.3599C32.5456 23.0703 32.2382 22.8517 31.8927 22.6552C32.8551 20.8962 32.6696 18.671 31.3064 17.0837C32.1137 15.198 32.628 12.9404 31.8314 10.9609C30.7023 8.15507 27.544 7.51111 27.3914 7.39048C27.7963 6.9044 28.446 6.17921 29.2617 5.45757C30.2343 4.59753 29.6417 3.07134 28.3108 2.97673C23.6237 2.64328 22.0627 4.19399 21.8572 3.8626C21.6975 3.23699 21.4823 2.28859 21.364 1.32326C21.2248 0.188357 19.7985 -0.347979 18.8552 0.37038C18.2909 0.800123 17.6221 1.4248 16.9209 2.17676C16.5289 2.59705 15.7436 2.59771 15.343 2.17667C14.4884 1.27844 13.8551 0.670788 13.4606 0.37038C12.5181 -0.347792 11.0912 0.187702 10.9519 1.32336C10.8335 2.28869 10.6184 3.23708 10.4601 3.85895C10.4439 3.88628 10.3346 3.94112 10.2242 3.89143C8.0764 2.92245 5.65704 2.85918 4.00508 2.97673C2.67224 3.07153 2.08284 4.59856 3.05406 5.45748C3.86723 6.17678 4.5153 6.89953 4.92408 7.39076C4.75582 7.52216 -2.57003 9.06397 1.10281 17.297C-1.01689 20.0584 0.324748 24.19 3.79629 25.069C4.59831 26.8787 5.7686 28.4679 7.22141 29.7469C4.04083 32.1619 1.59816 35.8002 0.295175 40.0957C-0.852272 43.8797 1.48314 47.9555 4.92184 47.9555H15.5023C16.4309 47.9555 16.4309 46.5517 15.5023 46.5517H8.5375V42.0761C8.5375 40.2088 7.64292 38.8006 6.45673 38.8006H2.23323C3.57767 35.4069 5.70795 32.5657 8.36362 30.6476C8.62042 30.8282 8.88433 30.9988 9.15376 31.1612C8.73459 35.1213 11.9494 38.611 16.1577 38.611C20.3614 38.611 23.5821 35.1266 23.1627 31.162C23.5968 30.8976 24.0183 30.6072 24.4254 30.2915C24.6779 30.7565 24.9021 31.0027 25.1782 31.2555C23.7815 35.4386 26.1031 39.0083 29.7417 41.1277C29.2959 42.8592 28.5117 44.5244 27.5051 45.9714C27.3955 46.1368 27.4544 46.0417 27.1509 46.5517H18.3826C17.4539 46.5517 17.4539 47.9555 18.3826 47.9555H42.8941C43.8964 47.9555 44.4888 46.8318 43.9338 46.0146C42.8315 44.3608 42.1034 42.7825 41.6635 41.0891C42.6236 40.5213 43.5064 39.8324 44.2508 39.0486C44.8903 38.3754 43.8724 37.4085 43.2331 38.0818C41.3195 40.0963 38.3533 41.4263 35.6686 41.4263C31.4032 41.4263 26.1526 37.9544 26.1526 33.7135C26.1526 29.4284 31.4223 24.1975 35.6686 24.1975C40.1697 24.1975 47.0746 30.7751 44.6585 36.0234C44.2701 36.8669 45.5452 37.4539 45.9336 36.6105C46.7563 34.8238 46.7698 33.0849 46.1587 31.2553C47.9762 29.5921 48.0469 25.2564 47.9867 22.7937ZM6.45673 40.2043C6.6307 40.2043 7.13372 40.8479 7.13372 42.076V46.5517H4.92184C2.79727 46.5517 0.573029 43.8419 1.73227 40.2043H6.45673ZM40.388 41.7507C40.8502 43.3978 41.5666 44.9472 42.607 46.5517H28.8077C29.8147 45.0446 30.5559 43.4442 31.0198 41.7812C34.1097 43.1532 37.1686 43.2048 40.388 41.7507ZM29.577 25.2449C28.8567 24.2819 28.0496 23.4616 27.1938 22.7733C28.4489 22.948 30.3758 23.3111 31.4213 24.0133C30.7941 24.3582 30.1747 24.771 29.577 25.2449ZM30.5993 22.0928C30.2863 21.9883 29.9652 21.8925 29.5004 21.7758C29.5927 21.2214 29.6959 20.3702 29.6744 19.3244C30.1503 19.1773 30.4039 18.8932 30.6113 18.5113C31.2603 19.6081 31.268 20.9767 30.5993 22.0928ZM5.28607 8.75776C6.29024 8.4464 6.66991 7.29474 6.01613 6.50779C5.58217 5.98558 4.87944 5.19909 3.99272 4.41363C4.01116 4.39885 4.04607 4.38106 4.10465 4.37695C5.59471 4.27082 7.76617 4.32248 9.64695 5.17102C10.5448 5.57605 11.5931 5.0939 11.819 4.2098C12.6018 1.14124 11.7293 0.415394 14.3261 3.14443C15.2884 4.15552 17.0088 4.14083 17.9476 3.13423C20.5068 0.389565 19.7477 1.27376 20.497 4.2099C20.723 5.09549 21.7729 5.57559 22.6689 5.17111C24.5497 4.32267 26.7213 4.2712 28.2112 4.37704C28.2698 4.38125 28.3047 4.39894 28.3232 4.41382C27.4365 5.19919 26.7337 5.98568 26.2998 6.50797C25.6463 7.29446 26.0251 8.4464 27.0298 8.75785C28.8508 9.32245 30.0281 10.2401 30.5293 11.4852C31.3261 13.4651 30.3556 16.0739 29.3232 17.9418C29.2776 18.0243 29.0511 17.9938 29.0373 17.9433C28.4741 15.8335 27.4988 12.9978 26.0496 11.4699C25.2703 10.6482 23.7992 10.9229 23.4312 11.9939C20.649 20.0891 22.9585 7.09129 16.1771 10.6044C9.3851 7.08717 11.667 20.0907 8.88451 11.9938C8.51635 10.9229 7.04528 10.648 6.26609 11.4699C4.81712 12.9977 3.84158 15.8335 3.27839 17.9433C3.26472 17.9946 3.03797 18.0242 2.99249 17.9417C0.684864 13.7655 0.675786 10.1872 5.28607 8.75776ZM1.84644 18.7508C2.03941 19.0267 2.31998 19.2257 2.64341 19.3251C2.61599 20.6693 2.78819 22.0046 3.15242 23.2886C1.60939 22.3313 1.06154 20.3612 1.84644 18.7508ZM10.5178 31.8798C14.0171 33.4745 18.1433 33.574 21.7984 31.8887C21.775 38.8621 10.5294 38.9252 10.5178 31.8798ZM4.05234 19.1174C4.33581 18.9233 4.54534 18.6405 4.63481 18.3052C5.37151 15.5452 6.31261 13.4607 7.28477 12.4357C7.35674 12.3599 7.54016 12.402 7.55701 12.4499C7.85461 13.3161 8.38421 14.5542 9.21665 15.5338C10.0526 16.5174 11.7604 16.1012 11.9536 14.8458C12.2229 13.0987 12.7894 11.9383 13.5489 11.5782C14.1141 11.3103 14.8785 11.4559 15.8208 12.0112C16.0407 12.1407 16.3136 12.1407 16.5334 12.0111C17.4722 11.458 18.2304 11.3113 18.7871 11.5751C19.5321 11.9283 20.0914 13.0899 20.362 14.8458C20.5554 16.1019 22.2632 16.517 23.099 15.5338C23.9315 14.5543 24.4611 13.3161 24.7586 12.45C24.7752 12.4022 24.9586 12.3595 25.0308 12.4357C26.0031 13.4608 26.9441 15.5453 27.6808 18.3051C27.7703 18.6403 27.9796 18.923 28.2629 19.1171C28.3031 20.1272 28.2106 20.9544 28.1234 21.4943C26.7429 21.259 25.4895 21.1659 25.1142 21.1531L25.1143 21.1514C24.229 21.0926 23.3737 21.806 23.3496 22.7927C23.301 24.7615 23.3862 27.1205 23.89 28.9201C15.904 35.5536 3.63102 29.6577 4.05234 19.1174ZM25.7788 29.8257C24.8239 28.3883 24.6423 24.3561 24.7551 22.8138C26.0819 23.553 27.4386 24.7043 28.5169 26.1727C27.3476 27.2999 26.4206 28.5575 25.7788 29.8257ZM39.915 24.013C40.9757 23.3111 42.8848 22.9439 44.1509 22.7678C43.3848 23.3819 42.5447 24.1951 41.7601 25.245C41.1623 24.7709 40.5427 24.3579 39.915 24.013ZM42.8197 26.1724C44.1563 24.3492 45.6764 23.3151 46.5813 22.8133C46.6816 24.1609 46.5741 28.3193 45.5588 29.8269C44.9131 28.5506 43.9826 27.293 42.8197 26.1724Z" fill="#1C2B54"/>
<path d="M33.1559 36.6841C33.1559 35.7554 31.7521 35.7554 31.7521 36.6841C31.7521 38.5507 34.2067 39.4853 35.6619 38.2036C37.088 39.484 39.4976 38.5536 39.4976 36.684C39.4976 35.7553 38.0938 35.7553 38.0938 36.684C38.0938 37.6198 36.3705 37.6198 36.3705 36.684L36.3706 36.307C37.7101 35.7499 38.0761 33.8857 37.1026 32.7714C35.8738 31.365 33.6807 32.3168 33.6825 34.2765C33.6833 35.1561 34.17 35.9785 34.9668 36.3074L34.9667 36.684C34.9667 37.6178 33.1559 37.6178 33.1559 36.6841ZM35.6668 33.5049C36.0108 33.5045 36.2486 33.8977 36.2489 34.2741C36.2495 34.8991 35.681 35.302 35.2898 34.8543C34.8741 34.3786 35.1454 33.5055 35.6668 33.5049Z" fill="#1C2B54"/>
<path d="M30.0326 32.007C29.7837 32.2933 29.3431 32.2936 29.0936 32.0078C28.8385 31.7158 28.3952 31.6859 28.1033 31.9408C27.8113 32.1958 27.7813 32.6392 28.0362 32.9311C28.8451 33.8575 30.2849 33.8561 31.0918 32.9282C31.3462 32.6358 31.3154 32.1925 31.0229 31.938C30.7306 31.6837 30.2873 31.7144 30.0326 32.007Z" fill="#1C2B54"/>
<path d="M42.237 31.9955C41.9881 32.2818 41.5475 32.2822 41.2981 31.9963C41.043 31.7044 40.5997 31.6744 40.3078 31.9293C40.0158 32.1844 39.9857 32.6277 40.2407 32.9197C41.0495 33.8461 42.4892 33.8447 43.2962 32.9168C43.5506 32.6244 43.5198 32.1811 43.2272 31.9266C42.935 31.6723 42.4917 31.703 42.237 31.9955Z" fill="#1C2B54"/>
</g>
<defs>
<clipPath id="clip0_369_6658">
<rect width="48" height="48" fill="white"/>
</clipPath>
</defs>
</svg>
