<svg width="20" height="22" viewBox="0 0 20 22" fill="none" xmlns="http://www.w3.org/2000/svg">
<path fill-rule="evenodd" clip-rule="evenodd" d="M10 22C11.3132 22 12.6136 21.7413 13.8268 21.2388C15.0401 20.7362 16.1425 19.9997 17.0711 19.0711C17.9997 18.1425 18.7362 17.0401 19.2388 15.8268C19.7413 14.6136 20 13.3132 20 12C20 10.6868 19.7413 9.38642 19.2388 8.17317C18.7362 6.95991 17.9997 5.85752 17.0711 4.92893C16.1425 4.00035 15.0401 3.26375 13.8268 2.7612C12.6136 2.25866 11.3132 2 10 2C7.34784 2 4.8043 3.05357 2.92893 4.92893C1.05357 6.8043 0 9.34784 0 12C0 14.6522 1.05357 17.1957 2.92893 19.0711C4.8043 20.9464 7.34784 22 10 22ZM9.74222 16.0444L15.2978 9.37778L13.5911 7.95556L8.81333 13.6878L6.34111 11.2144L4.77 12.7856L8.10333 16.1189L8.96333 16.9789L9.74222 16.0444Z" fill="#1C2B54"/>
</svg>
