<?xml version="1.0" encoding="UTF-8"?>
<svg id="Layer_1" data-name="Layer 1" xmlns="http://www.w3.org/2000/svg" viewBox="0 0 398.78 93.97">
  <defs>
    <style>
      .cls-1 {
        fill: #fff;
      }
    </style>
  </defs>
  <g>
    <path class="cls-1" d="M117.16,67.9c-3.69,3.27-8.55,5.2-13.92,5.2-12.07,0-21.21-9.81-21.21-22.22s9.14-22.22,21.21-22.22c5.37,0,10.23,1.93,13.92,5.28v-.59c0-2.6,2.01-4.61,4.61-4.61s4.61,2.01,4.61,4.61v34.96c0,2.6-2.01,4.7-4.61,4.7s-4.61-2.1-4.61-4.7v-.42ZM117.16,50.88v-.59c-.34-7.46-5.87-13.08-12.91-13.08s-12.91,5.87-12.91,13.67,5.7,13.67,12.91,13.67,12.91-5.87,12.91-13.67Z"/>
    <path class="cls-1" d="M136.28,18.44c0-3.02,2.43-5.45,5.45-5.45s5.45,2.43,5.45,5.45-2.43,5.45-5.45,5.45-5.45-2.52-5.45-5.45ZM137.12,33.36c0-2.6,2.01-4.61,4.61-4.61s4.61,2.01,4.61,4.61v34.96c0,2.6-2.01,4.7-4.61,4.7s-4.61-2.1-4.61-4.7v-34.96Z"/>
    <path class="cls-1" d="M157.07,48.28c0-11.91,7.96-19.62,18.86-19.62,2.35,0,4.28,1.84,4.28,4.28s-1.93,4.28-4.28,4.28c-5.53,0-9.64,3.69-9.64,11.07v20.04c0,2.6-2.01,4.7-4.61,4.7s-4.61-2.1-4.61-4.7v-20.04Z"/>
    <path class="cls-1" d="M207.21,38.06h-18.53c-2.35,0-4.28-1.93-4.28-4.28s1.93-4.28,4.28-4.28h27.75c2.35,0,4.28,1.84,4.28,4.28,0,1.01-.42,2.01-1.34,3.02l-22.55,26.91h19.62c2.35,0,4.28,1.84,4.28,4.28s-1.93,4.28-4.28,4.28h-28.76c-2.35,0-4.28-1.93-4.28-4.36,0-1.34.59-2.18,1.26-3.02l22.55-26.83Z"/>
    <path class="cls-1" d="M227.84,33.36c0-2.6,2.01-4.61,4.61-4.61s4.61,2.01,4.61,4.61v20.46c0,7.04,4.28,10.73,9.64,10.73s9.64-3.69,9.64-10.73v-20.46c0-2.6,2.01-4.61,4.61-4.61s4.61,2.01,4.61,4.61v20.12c0,11.99-8.3,19.62-18.86,19.62s-18.86-7.63-18.86-19.62v-20.12Z"/>
    <path class="cls-1" d="M276.22,45.52c0-10.48,7.04-16.85,15.93-16.85,5.11,0,9.39,1.76,12.16,6.2,2.6-4.44,7.13-6.2,12.07-6.2,8.89,0,15.93,6.37,15.93,16.85v22.81c0,2.6-2.01,4.7-4.61,4.7s-4.61-2.1-4.61-4.7v-22.89c0-5.53-3.1-8.22-7.13-8.22s-7.04,2.68-7.04,8.22v22.89c0,2.6-2.1,4.7-4.61,4.7s-4.61-2.1-4.61-4.7v-22.89c0-5.53-3.19-8.22-7.13-8.22s-7.13,2.68-7.13,8.22v22.89c0,2.6-2.01,4.7-4.61,4.7s-4.61-2.1-4.61-4.7v-22.81Z"/>
    <path class="cls-1" d="M376.41,67.9c-3.69,3.27-8.55,5.2-13.92,5.2-12.07,0-21.21-9.81-21.21-22.22s9.14-22.22,21.21-22.22c5.37,0,10.23,1.93,13.92,5.28v-.59c0-2.6,2.01-4.61,4.61-4.61s4.61,2.01,4.61,4.61v34.96c0,2.6-2.01,4.7-4.61,4.7s-4.61-2.1-4.61-4.7v-.42ZM376.41,50.88v-.59c-.34-7.46-5.87-13.08-12.91-13.08s-12.91,5.87-12.91,13.67,5.7,13.67,12.91,13.67,12.91-5.87,12.91-13.67Z"/>
  </g>
  <g>
    <path class="cls-1" d="M63.9,35.64l-12.65,7.33c-1.58.92-3.35,1.52-4.85.52s-1.95-2.54-1.95-4.49l.04-14.5c0-2.33,1.45-3.95,3.62-4.11,1.91-.14,3.99,1.33,4.01,3.57l.07,9.48,8.21-4.7c1.85-1.06,4.18-.14,5.14,1.6.99,1.8.38,4.13-1.63,5.29Z"/>
    <path class="cls-1" d="M32.56,77.88l-.23-10-7.78,4.46c-2.08,1.2-4.35.61-5.55-1.5-.92-1.62-.36-4.06,1.66-5.21l14.46-8.21c2.04-1.16,4.97,1.13,4.97,3.15l.03,16.72c0,1.84-1.77,3.36-3.34,3.63s-4.17-.82-4.22-3.04Z"/>
    <path class="cls-1" d="M52.21,67.83l-.02,8.9c0,2.35-1.42,4.05-3.7,4.24-1.8.15-4.01-1.47-4.01-3.7l-.03-16.81c0-1.11,1.72-2.8,2.76-3.06,1.37-.34,3.06.39,4.29,1.11l12.7,7.39c1.77,1.03,2.11,3.6,1.36,4.98-1,1.85-3.33,2.68-5.17,1.63l-8.18-4.67Z"/>
    <path class="cls-1" d="M20.47,35.45c-1.95-1.14-2.23-3.57-1.45-5.04.93-1.75,3.33-2.66,5.08-1.66l8.25,4.71.02-8.99c0-2.32,1.49-3.92,3.71-4.13s4.07,1.71,4.07,4.15v15.67c0,1.21-1.04,2.98-1.94,3.43-1.39.68-3.25.31-4.53-.44l-13.21-7.71Z"/>
    <path class="cls-1" d="M65.15,61.82l-8.89-5.25-4-2.21c-1.15-.63-2.3-2.2-2.3-3.47,0-1.29,1.04-2.91,2.24-3.59l14.19-8.08c1.74-.99,4.23.59,4.84,2.05.86,2.05-.06,4.03-2.08,5.18l-7.53,4.29,8.32,4.97c1.89,1.13,2.05,3.89.9,5.41-1.24,1.64-3.54,1.97-5.69.7Z"/>
    <path class="cls-1" d="M19.35,61.82c-2.17,1.27-4.35.91-5.58-.81-1.09-1.54-1.01-4.16.82-5.24l8.39-4.98-7.64-4.34c-1.99-1.13-2.88-3.2-2.05-5.15.79-1.84,3.29-3.08,5.26-1.94l13.42,7.71c.98.56,2.05,1.66,2.41,2.46.42.92.06,3.47-.83,3.99l-14.21,8.31Z"/>
  </g>
</svg>