<svg width="218" height="68" viewBox="0 0 218 68" fill="none" xmlns="http://www.w3.org/2000/svg">
<path d="M207.343 29.4042L206.747 28.234C202.467 27.5467 198.281 27.2867 193.963 27.8439L185.553 28.4383L179.207 28.8655L171.02 29.5156L164.433 30.0171L147.965 31.373L139.61 32.1346L140.726 28.5497C140.838 28.1968 140.67 27.361 140.335 27.2681C140 27.1752 139.089 27.6582 138.958 28.0297L137.507 32.4132L132.278 32.506C136.353 29.1813 136.111 26.4509 135.479 27.231L134.865 27.9925C133.748 29.367 132.65 31.3173 130.361 31.4473C129.915 31.4659 128.966 30.8344 128.966 30.37C128.966 29.9985 129.468 29.4599 129.803 29.237L132.613 27.361C131.273 25.6522 129.505 26.358 128.649 27.6396L126.603 30.7229C126.398 31.0387 125.728 31.4845 125.468 31.3544C124.165 30.7415 125.002 21.9559 126.454 17.9439L130.287 7.20803C130.399 6.89227 129.878 5.79639 129.58 5.90784C127.868 6.52078 126.621 10.8486 125.989 13.8019C124.705 19.7084 122.304 24.8349 119.662 30.1843C119.234 31.0572 118.694 31.7631 117.689 32.3203C116.74 29.5527 117.28 27.1195 118.08 24.5377L120.797 10.1056C120.797 9.73411 120.183 8.71253 119.885 8.93542L118.824 9.69697C117.168 16.1422 116.052 22.346 115.996 29.0327L114.191 31.8002C113.316 33.1561 110.916 33.9362 109.855 32.4132C110.469 30.2028 113.391 30.2771 113.298 28.9584C113.279 28.624 112.498 28.0297 112.088 28.0297C108.776 28.0668 109.111 34.3077 104.44 34.8278L105.055 29.8499L105.017 28.6798C104.98 27.3053 103.678 31.0387 102.133 32.2088C103.119 27.9368 104.478 24.1477 104.273 20.0242C103.919 13.3189 100.57 7.91385 94.783 4.45905C87.1723 -0.110192 77.0123 -0.463101 68.0805 0.335588C61.8468 0.892813 52.915 3.25173 48.6538 7.44949C45.937 10.1242 46.1789 13.7647 48.6352 16.5137C52.6731 21.0458 56.5436 21.0458 54.385 19.1141L50.7193 15.8264C49.1748 14.4519 48.263 11.9816 49.3795 10.1427C53.9198 2.56449 72.3045 0.539904 81.8318 1.7658C87.4142 2.49019 92.7733 4.06899 97.0531 7.83955C101.873 12.093 103.938 18.6126 102.431 24.7792L101.184 29.8871C100.477 29.4413 99.8815 28.9955 99.5094 29.1441C98.4115 29.5899 97.8161 31.1873 97.3136 30.8529L96.253 30.1285L92.9594 34.2149C92.7175 34.512 91.3405 34.8464 91.3219 34.4935L91.2288 33.3047L91.3777 29.9242C89.6844 28.8284 88.3446 30.0914 87.1723 31.1687C85.3859 32.8032 84.195 34.9021 85.4976 37.4653L81.348 37.7439L74.6305 38.4498L69.7738 38.7655L75.1143 20.9158C75.3748 20.0799 74.9096 18.3525 74.4258 17.7024C72.8814 17.5724 71.616 18.8169 70.7042 19.9313C67.4106 23.9062 64.6939 27.9925 62.0515 32.5803C59.4092 29.8499 56.2086 28.4011 52.6545 27.5839C38.7915 24.3891 20.6674 31.4102 8.81409 39.4713L5.42744 42.4061C4.96224 42.8147 4.8692 44.4678 5.18554 44.9879C5.46466 45.4336 6.41366 46.0652 7.00912 46.0652L14.7314 45.9166L21.4675 45.2479L26.287 44.6907L31.1809 44.1335L35.9631 43.632L41.6386 43.019L46.4022 42.4804L51.9846 41.8488L57.6228 41.2545C54.385 48.3684 49.3609 61.166 54.6269 66.2181C60.7676 72.1061 75.7842 61.9832 82.4645 56.5224C89.2564 50.9687 95.1923 44.8021 99.4908 37.1867L117.968 35.5522L125.356 34.8092L130.157 34.382L136.502 33.8619C136.614 33.8248 136.725 33.7877 136.856 33.7877C137.619 33.7877 138.381 33.6019 139.144 33.5462V33.4905L177.533 30.3886L183.022 30.0914L189.721 29.7199C194.987 29.4227 200.272 28.8469 205.37 30.1657L206.896 30.5743C207.212 30.6672 207.529 29.7199 207.38 29.4227L207.343 29.4042ZM90.1682 30.37C90.3356 32.5246 88.2329 35.9794 86.093 35.8494C86.2047 33.3233 87.5817 31.4102 90.1682 30.37ZM73.1047 19.8199L71.7091 26.488L68.3782 38.0411C68.2294 38.5798 67.6897 39.267 67.299 39.4528C65.1404 40.5115 65.3265 36.5923 62.9447 33.379C65.7731 28.5683 68.6573 23.6462 73.1047 19.8385V19.8199ZM67.5781 40.4186L66.2197 44.2078L65.8848 40.3815L67.5781 40.4372V40.4186ZM63.8565 39.5456L59.4092 39.9543L61.9213 35.1807L63.8751 39.5456H63.8565ZM52.7289 40.7158L22.3235 43.7805L12.1635 44.635C10.2469 44.8021 8.6094 44.6721 6.52531 44.0963C6.91608 43.1676 7.47432 42.1832 8.34889 41.5516C19.6439 33.379 35.4235 26.9709 49.3981 28.6055C53.8826 29.1255 57.995 30.9087 61.1025 34.2334L58.2369 39.9171C56.711 40.4558 54.5711 40.5301 52.7475 40.6972L52.7289 40.7158ZM92.7547 44.5607C86.2977 52.1946 78.7801 58.6399 69.9785 63.3763C66.9454 65.0108 63.8937 66.2181 60.5629 66.6268C57.4367 66.9983 54.5711 65.4937 53.9384 62.3361C52.6173 55.7795 56.1342 47.644 58.8323 41.1802L63.9309 40.4743L64.1542 46.0837L61.5863 56.8939L61.9399 58.2684C62.0143 58.5656 63.2424 58.3241 63.3355 58.0455L67.4664 46.0652L69.3644 39.9914L76.1936 39.3599L84.5672 38.5612L97.6486 37.5211L92.7919 44.5421L92.7547 44.5607ZM98.3929 35.7937C97.1648 36.6852 94.5224 36.4252 92.978 36.5924L87.8608 37.1496L89.796 34.4377C90.6334 35.1436 91.1358 35.6079 91.6196 35.7937C92.0848 35.9608 93.2013 35.3665 93.5548 35.0135L95.0248 33.4347L95.6389 35.5522L96.7368 34.0848L99.193 30.9458C100.012 32.5989 99.8257 34.7721 98.3743 35.7937H98.3929ZM100.161 35.7565L103.25 33.1004L103.696 35.4593L100.161 35.7565ZM107.288 35.0693L108.925 33.249L110.804 34.6792L107.288 35.0693ZM125.021 33.4162L118.155 34.122L112.647 34.6792L115.959 31.5588C116.387 32.116 116.964 32.8775 117.392 33.1747C117.875 33.509 119.252 32.8589 119.513 32.3389L121.206 29.1255L123.756 24.1105L123.886 31.0572C123.886 31.6145 124.965 32.7475 125.449 32.6175C126.007 32.4503 126.528 32.0417 127.496 31.1873L129.524 32.8961L125.002 33.4162H125.021Z" fill="black"/>
<path d="M177.681 14.3769L173.271 14.6184L175.002 7.30015C175.076 6.96582 174.295 6.09283 173.941 6.27857L172.657 10.0306L171.429 14.9527L164.916 16.0486C164.563 16.1043 163.986 16.3272 163.725 16.4758C163.521 16.5872 163.986 17.4788 164.228 17.4231L171.113 16.0857C171.169 16.6058 170.964 17.4602 170.741 17.8503C170.722 17.8503 170.703 17.8503 170.685 17.8503C170.685 17.9617 170.685 18.0917 170.685 18.2032L170.815 18.1103L170.052 22.3452C169.401 24.1841 168.136 25.8743 166.424 27.0259C166.07 24.407 168.359 22.4009 166.777 21.3608L165.456 22.1781L165.735 19.9492C165.772 19.6705 164.675 19.3362 164.488 19.5591L163.763 20.4692C163.093 21.3051 163.353 22.4752 163.93 23.2739C163.26 24.4812 162.311 25.4471 160.878 26.2644C160.06 24.6484 161.362 22.5495 160.171 21.9552C158.999 21.3608 156.822 22.531 155.966 24.3884C155.11 26.2086 154.887 27.8432 156.04 28.2147C156.357 28.3261 157.231 28.2147 157.455 27.9732L159.483 25.7814C159.669 26.4501 160.562 27.4903 161.139 27.2117C163.819 25.9115 163.949 22.9767 166.051 23.1068L165.177 26.7287C165.084 27.1002 165.568 27.936 165.865 28.0846C166.163 28.2518 167.038 28.1218 167.28 27.8432L169.475 25.2614L168.619 32.0409C167.708 39.2849 169.922 38.5233 169.699 37.9104L169.494 37.3903C169.029 36.1644 169.326 34.5856 169.55 33.2111L170.592 26.6544L172.936 15.7142L182.873 14.8041C181.068 14.0983 179.431 14.3026 177.681 14.3955V14.3769ZM156.673 27.2302C156.208 26.413 156.487 25.5957 156.971 24.8713C157.641 23.924 157.994 22.8839 159.669 22.9024C159.241 24.7227 158.18 26.0972 156.673 27.2302Z" fill="black"/>
<path d="M169.643 16.1229C169.457 15.8629 169.42 15.51 169.513 15.2128C168.824 15.1942 168.173 15.2314 167.429 15.3614L154.589 16.643L158.441 3.17676C157.976 3.23248 157.529 3.30678 157.064 3.30678C156.989 3.30678 156.915 3.30678 156.859 3.2882L153.156 16.7916L143.647 17.8875L146.457 6.07433C146.439 5.77714 146.197 5.03417 145.992 5.16419L145.229 5.55425L142.084 18.1104C135.758 18.9834 129.896 20.0607 123.867 21.7138C123.849 22.1224 123.904 22.7353 124.128 22.7353H125.058C130.864 22.7353 138.958 23.5712 138.549 29.6078C138.326 32.8583 135.832 36.7403 137.563 36.8703C139.293 36.9817 140.168 30.4065 141.042 27.2489L143.35 18.9834L152.84 17.8689L150.198 30.6294L149.044 40.1022L149.956 39.7864C151.053 32.2453 152.3 25.0385 154.403 17.6832L158.236 17.2188L169.643 16.1415V16.1229ZM139.572 27.0631L136.818 23.9798C134.046 22.6796 131.515 22.3453 128.184 21.7509L141.749 19.262L139.572 27.0631Z" fill="black"/>
<path d="M178.203 24.4447C177.942 24.7976 177.588 25.2062 177.347 25.3177C177.105 25.4291 176.546 24.7419 176.528 24.4261L176.342 21.3056L173.904 25.8749C173.792 26.0978 173.402 26.4878 173.234 26.5993C172.341 27.2494 172.248 23.7017 173.699 20.5255C174.09 20.3955 174.369 20.2655 174.444 20.4141C174.518 20.5627 174.63 20.9899 174.611 21.1385L174.462 22.4015L176.081 20.3026C176.211 20.1355 176.695 19.8568 176.881 19.8197C177.067 19.7826 177.477 20.4141 177.514 20.6741L177.849 23.0145L179.877 21.0827C179.97 20.9899 180.529 20.8599 180.603 20.9527C180.715 21.0827 180.901 21.4171 180.938 21.6028L181.478 24.2032C184.343 22.5315 184.883 18.9467 188.269 19.151C189.386 20.637 188.269 22.4015 188.995 23.6088C190.93 22.5315 192.065 20.8784 192.698 18.9653L193.461 18.9096L193.387 20.9527L195.378 18.9281C195.508 18.7981 196.401 18.9096 196.42 19.0767L196.569 20.1169C196.68 21.0084 196.792 21.6585 197.127 22.4944C198.522 21.9557 199.49 20.9527 200.197 19.764L201.463 17.6094L201.425 20.4326L202.914 18.3895C203.156 18.018 204.589 17.8137 204.644 18.2595L205.072 21.8257C206.375 21.2685 207.417 20.2841 208.664 19.0396C208.552 20.6555 207.064 22.1415 205.463 22.513C204.347 22.773 203.677 21.4171 203.844 20.5627C204.012 19.7083 203.733 19.5039 203.547 19.1325C201.369 21.1385 201.239 24.2775 199.806 23.8874L199.918 21.4728C198.969 22.2715 197.89 23.8689 196.587 23.2559C195.489 22.7544 195.806 21.2128 195.675 19.8011C194.075 21.3242 193.387 23.033 192.196 25.0948C191.6 24.3704 191.582 23.516 191.619 22.5501L189.46 24.4632C189.088 24.7976 188.102 23.8874 187.693 23.2002L185.646 25.1319C185.367 25.3919 184.38 25.652 184.138 25.3734C183.897 25.0948 183.617 24.4261 183.357 23.776C182.799 24.2032 181.552 25.0762 180.77 24.5375C179.989 23.9989 180.101 22.9959 179.989 21.9557L178.203 24.3704V24.4447ZM187.879 20.2469C185.981 19.8011 184.008 22.8659 184.659 24.7047C186.427 23.6831 187.32 22.1043 187.879 20.2469Z" fill="black"/>
<path d="M211.902 21.1385C212.199 21.0456 212.962 21.4914 212.999 21.8071C213.037 22.1229 212.646 22.7358 212.348 22.8658C212.05 22.9959 211.529 22.6615 211.343 22.4201C211.157 22.1786 211.492 21.287 211.902 21.157V21.1385Z" fill="black"/>
<path d="M104.924 25.838L106.059 25.6894C106.357 25.6522 106.376 26.7667 106.078 26.8596L104.962 27.2125C104.664 27.3053 104.608 25.8751 104.906 25.838H104.924Z" fill="black"/>
</svg>
