<svg width="14" height="8" viewBox="0 0 14 8" fill="none" xmlns="http://www.w3.org/2000/svg">
<path d="M12.5422 0.515267C12.6058 0.455122 12.6807 0.408102 12.7625 0.376892C12.8443 0.345682 12.9315 0.330892 13.019 0.333368C13.1066 0.335845 13.1927 0.355538 13.2727 0.391324C13.3526 0.427109 13.4247 0.478287 13.4848 0.541934C13.545 0.605581 13.592 0.680452 13.6232 0.762272C13.6544 0.844091 13.6692 0.931256 13.6667 1.01879C13.6642 1.10633 13.6446 1.19252 13.6088 1.27244C13.573 1.35236 13.5218 1.42446 13.4582 1.4846L7.45816 7.15127C7.33438 7.26829 7.1705 7.3335 7.00016 7.3335C6.82982 7.3335 6.66594 7.26829 6.54216 7.15127L0.541492 1.4846C0.476451 1.42485 0.42393 1.35278 0.38698 1.27256C0.350031 1.19234 0.329388 1.10558 0.326253 1.01732C0.323117 0.929055 0.33755 0.841048 0.368714 0.758411C0.399877 0.675773 0.44715 0.600151 0.507786 0.535937C0.568423 0.471723 0.641214 0.420198 0.721932 0.384353C0.80265 0.348509 0.889685 0.329061 0.977983 0.327138C1.06628 0.325215 1.15408 0.340856 1.23628 0.373151C1.31848 0.405448 1.39345 0.453755 1.45682 0.515268L7.00016 5.74993L12.5422 0.515267Z" fill="white"/>
</svg>
