<svg width="139" height="24" viewBox="0 0 139 24" fill="none" xmlns="http://www.w3.org/2000/svg">
<path d="M0 0.0835168V6.50478H4.29794V23.4366H11.5623V0.0835168M23.8284 8.95832H20.4289V6.49365H22.1395V0.0835168H13.1755V23.4366H20.4289V14.606H23.8284V23.4366H31.1036V0.0835168H23.8284M32.695 23.4366H46.152V17.0042H39.6346V14.2854H43.781V8.95832H39.6346V6.50478H46.152V0.0835168H32.695M103.368 7.98567C103.368 2.94602 99.7204 0.0835168 94.545 0.0835168H86.4577V23.4254H93.7221V17.4463L97.8794 23.4254H106.075L100.185 14.4733C102.307 13.2907 103.368 11.1356 103.368 7.98567ZM93.7005 10.5719V6.2285C94.7073 6.2285 95.9415 6.53795 96.3097 7.66521C96.3421 7.76472 96.3638 7.87525 96.3962 7.98567C96.3962 7.9968 96.3962 8.01884 96.4071 8.02997C96.4179 8.14051 96.4395 8.27308 96.4395 8.40566C96.4395 10.1409 94.8914 10.5719 93.7005 10.5719ZM60.54 14.3075H60.4749L59.9553 12.3845L58.3314 6.5158H61.1895L63.0733 0.0835168H48.5662L56.8807 23.4254H64.3291L65.2277 20.9277C65.2277 20.9277 69.2117 9.89779 71.3878 3.88538V23.4254H84.8447V16.9932H78.3273V14.2744H82.463V8.95832H78.3273V6.50478H84.8447V0.0723877H64.7405L60.54 14.3075ZM138.575 6.5158V0.0945378H125.118V23.4366H138.575V17.0042H132.047V14.2854H136.193V8.98047H132.047V6.5158" fill="white"/>
<path d="M123.723 18.5403V9.02441H113.459V14.3294H117.28V16.2193C116.989 16.4845 116.36 16.6283 115.711 16.6283C113.048 16.6283 111.077 14.4842 111.077 11.8648C111.077 9.24548 112.993 6.92451 115.656 6.92451C117.269 6.92451 121.091 6.93553 121.091 6.93553V0.0169284H119.348C116.101 0.0169284 112.863 -0.248328 109.886 1.32117C107.537 2.55896 105.675 4.65886 104.689 7.15659C104.115 8.62658 103.825 10.218 103.825 11.7985C103.825 18.4187 108.912 24 115.505 24C118.775 24 121.969 22.7511 123.711 21.1927C123.722 19.5791 123.723 19.336 123.723 18.5403Z" fill="white"/>
</svg>
