<svg width="168" height="24" viewBox="0 0 168 24" fill="none" xmlns="http://www.w3.org/2000/svg">
<path d="M31.3564 7.99996H47.0488V0H31.3564V7.99996Z" fill="white"/>
<path d="M0 0V7.99996H7.83221V24H15.6644V7.99996H23.5245V0H0Z" fill="white"/>
<path d="M23.5239 23.9993H47.0485V15.9992H31.3561V7.99927H23.5239V23.9993Z" fill="white"/>
<path d="M67.0491 6.04224H55.5246V9.37092H59.3848V19.8045H63.1889V9.37092H67.0491V6.04224Z" fill="white"/>
<path d="M71.3851 9.25903C68.6717 9.25903 66.6578 11.0772 66.6578 14.6577C66.6578 17.8184 68.364 20.0282 71.469 20.0282C73.0913 20.0282 74.4061 19.6087 75.6648 18.8535L74.3221 16.5876C73.2872 17.1191 72.5598 17.315 71.6368 17.315C70.6858 17.315 70.0144 16.8115 69.8746 15.6646H75.9445C75.9725 15.4968 75.9725 15.273 75.9725 14.9653C76.0004 11.1331 74.2382 9.25903 71.3851 9.25903ZM69.9303 13.4548C70.0422 12.4198 70.4899 11.8884 71.3011 11.8884C72.3361 11.8884 72.6997 12.4198 72.8676 13.4548H69.9303Z" fill="white"/>
<path d="M82.7133 17.1471C81.7622 17.1471 81.2587 16.3079 81.2587 14.6577C81.2587 13.0352 81.7063 12.1121 82.6293 12.1121C83.3846 12.1121 83.7203 12.5317 84.2238 13.4548L86.6573 11.6087C85.7623 10.1541 84.6434 9.25903 82.6853 9.25903C79.3846 9.25903 77.7622 11.4408 77.7622 14.6017C77.7622 18.0702 79.5804 20.0003 82.6014 20.0003C84.4196 20.0003 85.5384 19.301 86.7413 17.5387L84.5035 15.7765C83.8322 16.7835 83.3846 17.1471 82.7133 17.1471Z" fill="white"/>
<path d="M94.9091 9.25827C93.6783 9.25827 92.951 9.67785 92.3076 10.1533V5.48206L88.7551 6.9086V19.8317H92.3076V13.9297C92.3076 12.6429 92.7552 12.2793 93.5105 12.2793C94.2377 12.2793 94.6853 12.6429 94.6853 13.9576V19.8317H98.2378V13.5101C98.2378 10.7967 97.1468 9.25827 94.9091 9.25827Z" fill="white"/>
<path d="M106.769 16.6991C105.119 16.6991 104.447 15.0208 104.447 12.9229C104.447 10.741 105.148 9.14657 106.742 9.14657C108 9.14657 108.475 9.95778 108.951 11.2446L112.42 9.87393C111.468 7.27249 110.126 5.81799 106.742 5.81799C103.049 5.81799 100.447 8.50328 100.447 12.9229C100.447 17.0068 102.629 20.0278 106.714 20.0278C109.986 20.0278 111.525 18.2655 112.447 16.4753L109.231 14.769C108.475 16.0557 107.972 16.6991 106.769 16.6991Z" fill="white"/>
<path d="M118.155 10.2381V9.48274H114.602V19.8045H118.155V14.1821C118.155 12.9233 118.685 12.5038 119.553 12.5038C120.253 12.5038 120.756 12.8674 121.203 13.3709L122.043 9.70656C121.623 9.45479 121.119 9.25903 120.364 9.25903C119.441 9.25903 118.742 9.65066 118.155 10.2381Z" fill="white"/>
<path d="M129.622 15.3844C129.622 16.671 129.175 17.0347 128.447 17.0347C127.72 17.0347 127.273 16.671 127.273 15.3564V9.48218H123.72V15.8039C123.72 18.5172 124.812 20.0277 127.077 20.0277C128.28 20.0277 129.035 19.6081 129.65 19.1326V19.8319H133.203V9.51024H129.65V15.3844" fill="white"/>
<path d="M141.903 9.25903C140.672 9.25903 139.944 9.67861 139.301 10.1541V9.45479H135.748V19.7765H139.301V13.8744C139.301 12.5877 139.748 12.224 140.504 12.224C141.231 12.224 141.679 12.5877 141.679 13.9024V19.7765H145.231V13.4548C145.231 10.7975 144.168 9.25903 141.903 9.25903Z" fill="white"/>
<path d="M152.28 17.1471C151.33 17.1471 150.826 16.3079 150.826 14.6577C150.826 13.0352 151.273 12.1121 152.168 12.1121C152.924 12.1121 153.259 12.5317 153.762 13.4548L156.196 11.6087C155.301 10.1541 154.182 9.25903 152.225 9.25903C148.924 9.25903 147.301 11.4408 147.301 14.6017C147.301 18.0702 149.12 20.0003 152.141 20.0003C153.958 20.0003 155.077 19.301 156.28 17.5387L154.043 15.7765C153.427 16.7835 152.951 17.1471 152.28 17.1471Z" fill="white"/>
<path d="M164.476 9.25827C163.245 9.25827 162.518 9.67785 161.875 10.1533V5.48206L158.323 6.9086V19.8317H161.875V13.9297C161.875 12.6429 162.323 12.2793 163.077 12.2793C163.805 12.2793 164.252 12.6429 164.252 13.9576V19.8317H167.805V13.5101C167.832 10.7967 166.741 9.25827 164.476 9.25827Z" fill="white"/>
</svg>
