<svg width="58" height="24" viewBox="0 0 58 24" fill="none" xmlns="http://www.w3.org/2000/svg">
<path d="M0 0V24H7.30531V16.2542H13.9473V9.68731H7.30531V6.54617H15.4498L15.0075 0H0Z" fill="white"/>
<path d="M27.1699 0C20.4841 0 15.1016 5.35212 15.1016 12.0001C15.1016 18.6481 20.4841 24 27.1699 24C33.8557 24 39.2381 18.6481 39.2381 12.0001C39.2381 5.35212 33.8557 0 27.1699 0ZM27.1699 4.94263C28.2988 4.94263 29.2075 5.84617 29.2075 6.96869V17.0313C29.2075 18.1538 28.2988 19.0575 27.1699 19.0575C26.041 19.0575 25.1322 18.1538 25.1322 17.0313V6.96869C25.1322 5.84617 26.041 4.94263 27.1699 4.94263Z" fill="white"/>
<path d="M35.6184 0L42.4662 12L35.6184 24H43.4474L46.3807 18.8597L49.3141 24H57.1431L50.2953 12L57.1431 0H49.3141L46.3807 5.14034L43.4475 0H35.6184Z" fill="white"/>
</svg>
