<svg width="1100" height="24" viewBox="0 0 1100 24" fill="none" xmlns="http://www.w3.org/2000/svg">
<path d="M55.3564 7.99996H71.0488V0H55.3564V7.99996Z" fill="white"/>
<path d="M24 0V7.99996H31.8322V24H39.6644V7.99996H47.5245V0H24Z" fill="white"/>
<path d="M47.5239 23.9993H71.0485V15.9992H55.3561V7.99927H47.5239V23.9993Z" fill="white"/>
<path d="M91.0491 6.04224H79.5246V9.37092H83.3848V19.8045H87.1889V9.37092H91.0491V6.04224Z" fill="white"/>
<path d="M95.3851 9.25903C92.6717 9.25903 90.6578 11.0772 90.6578 14.6577C90.6578 17.8184 92.364 20.0282 95.469 20.0282C97.0913 20.0282 98.4061 19.6087 99.6648 18.8535L98.3221 16.5876C97.2872 17.1191 96.5598 17.315 95.6368 17.315C94.6858 17.315 94.0144 16.8115 93.8746 15.6646H99.9445C99.9725 15.4968 99.9725 15.273 99.9725 14.9653C100 11.1331 98.2382 9.25903 95.3851 9.25903ZM93.9303 13.4548C94.0422 12.4198 94.4899 11.8884 95.3011 11.8884C96.3361 11.8884 96.6997 12.4198 96.8676 13.4548H93.9303Z" fill="white"/>
<path d="M106.713 17.1471C105.762 17.1471 105.259 16.3079 105.259 14.6577C105.259 13.0352 105.706 12.1121 106.629 12.1121C107.385 12.1121 107.72 12.5317 108.224 13.4548L110.657 11.6087C109.762 10.1541 108.643 9.25903 106.685 9.25903C103.385 9.25903 101.762 11.4408 101.762 14.6017C101.762 18.0702 103.58 20.0003 106.601 20.0003C108.42 20.0003 109.538 19.301 110.741 17.5387L108.504 15.7765C107.832 16.7835 107.385 17.1471 106.713 17.1471Z" fill="white"/>
<path d="M118.909 9.25827C117.678 9.25827 116.951 9.67785 116.308 10.1533V5.48206L112.755 6.9086V19.8317H116.308V13.9297C116.308 12.6429 116.755 12.2793 117.51 12.2793C118.238 12.2793 118.685 12.6429 118.685 13.9576V19.8317H122.238V13.5101C122.238 10.7967 121.147 9.25827 118.909 9.25827Z" fill="white"/>
<path d="M130.769 16.6991C129.119 16.6991 128.447 15.0208 128.447 12.9229C128.447 10.741 129.148 9.14657 130.742 9.14657C132 9.14657 132.475 9.95778 132.951 11.2446L136.42 9.87393C135.468 7.27249 134.126 5.81799 130.742 5.81799C127.049 5.81799 124.447 8.50328 124.447 12.9229C124.447 17.0068 126.629 20.0278 130.714 20.0278C133.986 20.0278 135.525 18.2655 136.447 16.4753L133.231 14.769C132.475 16.0557 131.972 16.6991 130.769 16.6991Z" fill="white"/>
<path d="M142.155 10.2381V9.48274H138.602V19.8045H142.155V14.1821C142.155 12.9233 142.685 12.5038 143.553 12.5038C144.253 12.5038 144.756 12.8674 145.203 13.3709L146.043 9.70656C145.623 9.45479 145.119 9.25903 144.364 9.25903C143.441 9.25903 142.742 9.65066 142.155 10.2381Z" fill="white"/>
<path d="M153.622 15.3844C153.622 16.671 153.175 17.0347 152.447 17.0347C151.72 17.0347 151.273 16.671 151.273 15.3564V9.48218H147.72V15.8039C147.72 18.5172 148.812 20.0277 151.077 20.0277C152.28 20.0277 153.035 19.6081 153.65 19.1326V19.8319H157.203V9.51024H153.65V15.3844" fill="white"/>
<path d="M165.903 9.25903C164.672 9.25903 163.944 9.67861 163.301 10.1541V9.45479H159.748V19.7765H163.301V13.8744C163.301 12.5877 163.748 12.224 164.504 12.224C165.231 12.224 165.679 12.5877 165.679 13.9024V19.7765H169.231V13.4548C169.231 10.7975 168.168 9.25903 165.903 9.25903Z" fill="white"/>
<path d="M176.28 17.1471C175.33 17.1471 174.826 16.3079 174.826 14.6577C174.826 13.0352 175.273 12.1121 176.168 12.1121C176.924 12.1121 177.259 12.5317 177.762 13.4548L180.196 11.6087C179.301 10.1541 178.182 9.25903 176.225 9.25903C172.924 9.25903 171.301 11.4408 171.301 14.6017C171.301 18.0702 173.12 20.0003 176.141 20.0003C177.958 20.0003 179.077 19.301 180.28 17.5387L178.043 15.7765C177.427 16.7835 176.951 17.1471 176.28 17.1471Z" fill="white"/>
<path d="M188.476 9.25827C187.245 9.25827 186.518 9.67785 185.875 10.1533V5.48206L182.323 6.9086V19.8317H185.875V13.9297C185.875 12.6429 186.323 12.2793 187.077 12.2793C187.805 12.2793 188.252 12.6429 188.252 13.9576V19.8317H191.805V13.5101C191.832 10.7967 190.741 9.25827 188.476 9.25827Z" fill="white"/>
<path d="M243.012 0V24H250.317V16.2542H256.959V9.68731H250.317V6.54617H258.462L258.019 0H243.012Z" fill="white"/>
<path d="M270.182 0C263.496 0 258.113 5.35212 258.113 12.0001C258.113 18.6481 263.496 24 270.182 24C276.868 24 282.25 18.6481 282.25 12.0001C282.25 5.35212 276.868 0 270.182 0ZM270.182 4.94263C271.311 4.94263 272.219 5.84617 272.219 6.96869V17.0313C272.219 18.1538 271.311 19.0575 270.182 19.0575C269.053 19.0575 268.144 18.1538 268.144 17.0313V6.96869C268.144 5.84617 269.053 4.94263 270.182 4.94263Z" fill="white"/>
<path d="M278.63 0L285.478 12L278.63 24H286.459L289.392 18.8597L292.326 24H300.155L293.307 12L300.155 0H292.326L289.392 5.14034L286.459 0H278.63Z" fill="white"/>
<mask id="mask0_2_1457" style="mask-type:luminance" maskUnits="userSpaceOnUse" x="351" y="0" width="169" height="24">
<path d="M519.361 0H351.361V24H519.361V0Z" fill="white"/>
</mask>
<g mask="url(#mask0_2_1457)">
<path d="M378.894 21.1346V2.84996C378.894 1.90044 379.111 1.18753 379.546 0.712935C379.981 0.238229 380.544 0.000366211 381.233 0.000366211C381.944 0.000366211 382.519 0.235737 382.96 0.705229C383.4 1.17484 383.621 1.88933 383.621 2.84996V21.1346C383.621 22.0947 383.4 22.8125 382.96 23.2873C382.519 23.7626 381.944 24.0003 381.233 24.0003C380.554 24.0003 379.994 23.7599 379.554 23.2796C379.114 22.7993 378.894 22.0839 378.894 21.1346Z" fill="white"/>
<path d="M507.315 4.86985C503.361 4.86985 500.145 8.07221 500.145 12.008C500.145 15.9433 503.361 19.1455 507.315 19.1455C511.268 19.1455 514.484 15.9433 514.484 12.008C514.484 8.07221 511.268 4.86985 507.315 4.86985ZM507.315 24.0002C500.673 24.0002 495.269 18.6202 495.269 12.008C495.269 5.39487 500.673 0.0151367 507.315 0.0151367C513.957 0.0151367 519.36 5.39487 519.36 12.008C519.36 18.6202 513.957 24.0002 507.315 24.0002Z" fill="white"/>
<path d="M453.241 4.86985C449.288 4.86985 446.072 8.07221 446.072 12.008C446.072 15.9433 449.288 19.1455 453.241 19.1455C457.195 19.1455 460.41 15.9433 460.41 12.008C460.41 8.07221 457.195 4.86985 453.241 4.86985ZM453.241 24.0002C446.599 24.0002 441.195 18.6202 441.195 12.008C441.195 5.39487 446.599 0.0151367 453.241 0.0151367C459.883 0.0151367 465.287 5.39487 465.287 12.008C465.287 18.6202 459.883 24.0002 453.241 24.0002Z" fill="white"/>
<path d="M480.217 19.0868C479.635 19.1247 479.007 19.1313 478.333 19.1313H475.171V4.86947H478.333C479.007 4.86947 479.635 4.87684 480.217 4.91378C482.308 5.16263 484.125 6.30843 485.266 7.95613C486.062 9.10329 486.53 10.4901 486.533 11.986C486.533 11.9898 486.533 11.9937 486.533 11.9978V12.0031C486.533 12.0068 486.533 12.0108 486.533 12.0146C486.53 13.5104 486.062 14.8973 485.266 16.0448C484.125 17.6924 482.308 18.8378 480.217 19.0868ZM491.409 12.0003V11.9971C491.408 9.35044 490.541 6.9028 489.078 4.91684C486.951 2.0286 483.559 0.122188 479.721 0.00977282C479.602 0.00614651 479.484 0.000366211 479.363 0.000366211C479.357 0.000366211 473.315 0.00807284 473.315 0.00807284C472.282 0.00807284 471.534 0.242309 471.072 0.710442C470.609 1.17869 470.378 1.93534 470.378 2.98119V21.0194C470.378 22.0652 470.609 22.8216 471.072 23.2904C471.534 23.7589 472.282 23.9928 473.315 23.9928C473.315 23.9928 479.357 24.0003 479.363 24.0003C479.484 24.0003 479.602 23.9945 479.721 23.9912C483.559 23.8784 486.951 21.9721 489.078 19.0838C490.541 17.0978 491.408 14.6502 491.409 12.0037V12.0003Z" fill="white"/>
<path d="M434.373 0.107581C433.493 -0.164618 432.542 0.179768 432.029 0.957383L424.766 11.9719L417.504 0.957383C416.992 0.179768 416.04 -0.164618 415.16 0.107581C414.28 0.38012 413.679 1.20601 413.679 2.14216V21.7183C413.679 22.893 414.615 23.8451 415.768 23.8451C416.923 23.8451 417.858 22.893 417.858 21.7183V9.12857L423.015 16.9482C423.018 16.9537 423.022 16.9587 423.025 16.9641L423.032 16.9735C423.038 16.9831 423.045 16.9918 423.051 17.0014C423.084 17.0482 423.117 17.0948 423.153 17.1394C423.169 17.1592 423.186 17.1769 423.202 17.1956C423.231 17.2285 423.259 17.2615 423.29 17.2926C423.318 17.3207 423.347 17.3469 423.376 17.3739C423.397 17.393 423.418 17.4133 423.441 17.432C423.482 17.4665 423.524 17.4974 423.567 17.5278C423.579 17.5363 423.59 17.5465 423.602 17.5547C423.602 17.5547 423.606 17.5567 423.608 17.558C423.654 17.5891 423.701 17.6173 423.75 17.6448C423.763 17.6525 423.776 17.6616 423.79 17.6685C423.826 17.6883 423.863 17.7047 423.901 17.7222C424.113 17.8206 424.334 17.882 424.557 17.905L424.561 17.9058C424.606 17.9095 424.65 17.9105 424.694 17.9124C424.718 17.9132 424.743 17.9154 424.766 17.9154C424.791 17.9154 424.815 17.9132 424.839 17.9124C424.884 17.9105 424.928 17.9095 424.972 17.9058L424.976 17.905C425.2 17.882 425.421 17.8206 425.632 17.7222C425.67 17.7047 425.708 17.6883 425.744 17.6685C425.757 17.6616 425.77 17.6525 425.784 17.6448C425.832 17.6173 425.88 17.5891 425.926 17.558C425.928 17.5567 425.932 17.5547 425.932 17.5547C425.944 17.5465 425.955 17.5363 425.967 17.5278C426.01 17.4974 426.052 17.4665 426.093 17.432C426.115 17.4133 426.136 17.393 426.158 17.3731C426.187 17.3469 426.216 17.3207 426.243 17.2932C426.275 17.2615 426.303 17.2281 426.331 17.1953C426.348 17.1769 426.365 17.1588 426.38 17.1394C426.417 17.0948 426.45 17.0482 426.482 17.0014C426.489 16.9918 426.496 16.9831 426.502 16.9735L426.508 16.9641C426.512 16.9587 426.515 16.9537 426.519 16.9482L431.675 9.12857V21.7183C431.675 22.893 432.61 23.8451 433.765 23.8451C434.919 23.8451 435.855 22.893 435.855 21.7183V2.14216C435.855 1.20601 435.253 0.38012 434.373 0.107581Z" fill="white"/>
<path d="M406.568 23.2709H390.948C390.126 23.2709 389.214 22.7592 388.875 21.9628C388.537 21.1673 388.468 20.0839 389.195 19.2206L401.973 4.4609H391.417C390.263 4.4609 389.327 3.46582 389.327 2.23809C389.327 1.01036 390.263 0.26062 391.417 0.26062H405.651C406.472 0.26062 407.323 0.390714 408.066 1.20142C408.746 1.9422 408.716 3.54106 407.955 4.49444L395.609 18.8259H406.568C407.722 18.8259 408.562 19.821 408.562 21.0482C408.562 22.2756 407.722 23.2709 406.568 23.2709Z" fill="white"/>
<path d="M363.32 24.0001C359.853 24.0001 356.71 22.6319 354.468 20.1474C352.493 17.9585 351.361 15.0745 351.361 12.2344C351.361 3.32195 358.803 0.000488281 363.494 0.000488281C368.106 0.000488281 371.491 2.2522 371.633 2.34761C372.672 3.04942 372.95 4.46752 372.254 5.51496C371.56 6.55877 370.16 6.84094 369.122 6.14707C369.062 6.10843 366.66 4.56612 363.494 4.56612C360.553 4.56612 356.498 6.49814 356.498 12.2344C356.498 15.4977 358.937 19.3466 363.407 19.3466C365.922 19.3466 367.69 18.6795 368.718 18.0282V14.6341H365.235C363.985 14.6341 362.971 13.6123 362.971 12.3513C362.971 11.0906 363.985 10.0685 365.235 10.0685H370.983C372.233 10.0685 373.246 11.0906 373.246 12.3513V19.1412C373.246 19.7588 372.998 20.3494 372.559 20.7795C371.041 22.2651 367.711 24.0001 363.32 24.0001Z" fill="white"/>
</g>
<path d="M668.435 3.72931V20.3305H676.339C678.547 20.3305 679.826 19.9696 680.755 19.1275C681.918 18.0448 682.499 16.12 682.499 12.0299C682.499 7.93979 681.918 6.01501 680.755 4.93234C679.826 4.09024 678.547 3.72931 676.339 3.72931H668.435ZM679.245 12.0299C679.245 15.6389 679.013 16.481 678.315 16.9621C677.85 17.323 677.269 17.4433 676.106 17.4433H671.69V6.49618H676.106C677.269 6.49618 677.85 6.49618 678.315 6.97735C679.013 7.57886 679.245 8.42095 679.245 12.0299ZM686.567 24H663.379V0H686.567V24ZM644.434 6.49618V3.72931H658.149V9.02247H655.242V6.49618H649.663V10.466H654.08V13.1126H649.663V17.5637H655.36V14.6764H658.264V20.3305H644.435V17.5637H646.642V6.49618H644.434ZM631.997 15.9997C631.997 17.8042 632.112 19.1275 632.345 20.2102H635.484C635.367 19.3681 635.251 17.8042 635.251 15.7591C635.134 13.3532 634.437 12.9922 632.809 12.6314C634.669 12.2705 635.484 11.4284 635.484 8.42095C635.484 6.01502 635.134 5.05257 634.437 4.45106C633.972 3.96989 633.159 3.72931 631.88 3.72931H622.116V20.3305H625.371V13.8343H629.905C630.835 13.8343 631.182 13.9547 631.532 14.1953C631.882 14.4359 631.997 14.7968 631.997 15.9997ZM625.371 11.1878V6.61642H630.602C631.299 6.61642 631.532 6.73676 631.647 6.85711C631.88 7.09769 632.112 7.45851 632.112 8.90212C632.112 10.3457 631.88 10.8269 631.647 11.0675C631.532 11.1878 631.299 11.3081 630.602 11.3081L625.371 11.1878ZM640.133 24H616.887V0H640.074V24H640.133ZM610.842 17.5637V20.3305H599.799V17.5637H603.751V6.49618H599.799V3.72931H610.842V6.49618H606.89V17.5637H610.842ZM592.187 3.72931H589.165L586.956 16.8418L584.399 4.69164C584.283 3.84955 583.934 3.72931 583.237 3.72931H581.61C580.912 3.72931 580.563 3.9699 580.447 4.69164L577.89 16.8418L575.682 3.72931H572.427L575.565 19.4884C575.682 20.2102 575.914 20.3305 576.728 20.3305H578.936C579.634 20.3305 579.866 20.2102 580.098 19.4884L582.539 8.06002L584.98 19.4884C585.096 20.2102 585.329 20.3305 586.143 20.3305H588.235C588.932 20.3305 589.281 20.2102 589.397 19.4884L592.187 3.72931ZM593.814 24H570.567V0H593.756V24H593.814Z" fill="white"/>
<path d="M737.774 0.0835168V6.50478H742.072V23.4366H749.336V0.0835168M761.602 8.95832H758.203V6.49365H759.913V0.0835168H750.949V23.4366H758.203V14.606H761.602V23.4366H768.877V0.0835168H761.602M770.469 23.4366H783.926V17.0042H777.408V14.2854H781.555V8.95832H777.408V6.50478H783.926V0.0835168H770.469M841.142 7.98567C841.142 2.94602 837.494 0.0835168 832.319 0.0835168H824.231V23.4254H831.496V17.4463L835.653 23.4254H843.849L837.959 14.4733C840.081 13.2907 841.142 11.1356 841.142 7.98567ZM831.474 10.5719V6.2285C832.481 6.2285 833.715 6.53795 834.083 7.66521C834.116 7.76472 834.137 7.87525 834.17 7.98567C834.17 7.9968 834.17 8.01884 834.181 8.02997C834.192 8.14051 834.213 8.27308 834.213 8.40566C834.213 10.1409 832.665 10.5719 831.474 10.5719ZM798.314 14.3075H798.249L797.729 12.3845L796.105 6.5158H798.963L800.847 0.0835168H786.34L794.654 23.4254H802.103L803.001 20.9277C803.001 20.9277 806.985 9.89779 809.161 3.88538V23.4254H822.618V16.9932H816.101V14.2744H820.237V8.95832H816.101V6.50478H822.618V0.0723877H802.514L798.314 14.3075ZM876.349 6.5158V0.0945378H862.891V23.4366H876.349V17.0042H869.82V14.2854H873.967V8.98047H869.82V6.5158" fill="white"/>
<path d="M861.497 18.5403V9.02441H851.233V14.3294H855.054V16.2193C854.762 16.4845 854.134 16.6283 853.485 16.6283C850.821 16.6283 848.851 14.4842 848.851 11.8648C848.851 9.24548 850.767 6.92451 853.43 6.92451C855.043 6.92451 858.865 6.93553 858.865 6.93553V0.0169284H857.121C853.874 0.0169284 850.637 -0.248328 847.66 1.32117C845.311 2.55896 843.448 4.65886 842.463 7.15659C841.889 8.62658 841.599 10.218 841.599 11.7985C841.599 18.4187 846.686 24 853.278 24C856.549 24 859.742 22.7511 861.485 21.1927C861.496 19.5791 861.497 19.336 861.497 18.5403Z" fill="white"/>
<mask id="mask1_2_1457" style="mask-type:luminance" maskUnits="userSpaceOnUse" x="927" y="0" width="149" height="24">
<path d="M1076 0H927.555V24H1076V0Z" fill="white"/>
</mask>
<g mask="url(#mask1_2_1457)">
<path d="M940.008 9.29999H936.422V17.5C936.422 18.8999 937.219 19.2 938.514 19.2C939.012 19.2 939.51 19.1 940.008 19.1V23.4C938.912 23.4 937.816 23.6 936.82 23.6C931.839 23.6 930.544 22.0999 930.544 17.2V9.29999H927.555V5.40002H930.544V0H936.422V5.40002H940.008V9.29999ZM945.189 15.9C945.288 18.4 946.683 20 949.174 20C950.569 20 951.964 19.3 952.561 17.9999H958.041C957.044 22.2 953.159 24 949.174 24C943.296 24 939.311 20.4999 939.311 14.3999C939.311 8.89997 943.694 4.89993 948.975 4.89993C955.45 4.89993 958.639 9.79997 958.34 15.9H945.189ZM952.462 12.5999C952.362 10.6 950.967 8.89997 948.975 8.89997C946.882 8.89997 945.488 10.4 945.189 12.5999H952.462ZM971.291 12C971.291 10.5 969.896 9.39994 968.402 9.39994C965.114 9.39994 964.616 12.2 964.616 14.7C964.616 17 965.612 19.3999 968.103 19.3999C970.195 19.3999 971.192 18.2 971.49 16.3H977.169C976.671 21.1999 972.985 24 968.203 24C962.823 24 958.738 20.2999 958.738 14.8C958.738 9.09998 962.325 4.99999 968.203 4.99999C972.686 4.99999 976.671 7.40004 977.07 12.1H971.291V12ZM977.368 0H983.246V7.90001H983.346C984.243 6.10001 986.634 4.89993 988.826 4.89993C994.803 4.89993 995.301 9.29999 995.301 11.8999V23.5H989.423V14.8C989.423 12.3 989.722 9.79997 986.434 9.79997C984.243 9.79997 983.246 11.6999 983.246 13.6999V23.5H977.368V0ZM995.799 5.40002H1001.48V8.6H1001.58C1002.47 6.30002 1004.47 5.09994 1006.96 5.09994C1007.46 5.09994 1007.85 5.09994 1008.35 5.2V10.6C1007.56 10.4 1006.86 10.2999 1006.06 10.2999C1003.17 10.2999 1001.68 12.3 1001.68 14.5999V23.5H995.799V5.40002ZM1008.35 10.9999C1008.45 8.6 1009.55 7.09996 1011.14 6.19996C1012.74 5.29995 1014.83 4.89993 1016.82 4.89993C1021.1 4.89993 1025.19 5.79993 1025.19 10.9V18.8C1025.19 20.2999 1025.19 22 1025.89 23.4H1020.01C1019.81 22.7999 1019.71 22.2999 1019.71 21.7C1018.12 23.4 1015.92 24 1013.73 24C1010.34 24 1007.56 22.2999 1007.56 18.5C1007.56 12.5999 1013.93 13.1 1018.02 12.2C1019.01 12 1019.61 11.6 1019.61 10.5C1019.61 9.09998 1018.02 8.6 1016.72 8.6C1015.13 8.6 1014.03 9.29999 1013.73 10.9H1008.35V10.9999ZM1015.92 20.4C1018.71 20.4 1019.71 18.8 1019.51 15.1C1018.71 15.6 1017.12 15.7 1015.92 16.1C1014.63 16.4 1013.53 17 1013.53 18.4C1013.53 19.8 1014.63 20.4 1015.92 20.4ZM1044.22 23.5H1038.64V21.3999H1038.54C1038.01 22.2147 1037.29 22.8813 1036.43 23.3363C1035.58 23.7913 1034.63 24.0197 1033.66 24C1027.98 24 1025.59 19.1 1025.59 14.1C1025.59 9.39994 1028.08 4.99999 1033.16 4.99999C1035.35 4.99999 1037.04 5.79993 1038.24 7.49999H1038.34V0H1044.22V23.5ZM1031.47 14.3C1031.47 16.8 1032.36 19.5 1035.05 19.5C1037.94 19.5 1038.54 16.8 1038.54 14.5C1038.54 11.8999 1037.64 9.5 1035.05 9.5C1032.36 9.39994 1031.47 12 1031.47 14.3ZM1045.12 10.9999C1045.22 8.6 1046.31 7.09996 1047.9 6.19996C1049.5 5.29995 1051.59 4.89993 1053.58 4.89993C1057.87 4.89993 1061.95 5.79993 1061.95 10.9V18.8C1061.95 20.2999 1061.95 22 1062.65 23.4H1056.77C1056.57 22.7999 1056.47 22.2999 1056.47 21.7C1054.88 23.4 1052.59 24 1050.49 24C1047.11 24 1044.32 22.2999 1044.32 18.5C1044.32 12.5999 1050.69 13.1 1054.78 12.2C1055.78 12 1056.37 11.6 1056.37 10.5C1056.37 9.09998 1054.78 8.6 1053.48 8.6C1051.89 8.6 1050.79 9.29999 1050.49 10.9H1045.12V10.9999ZM1052.69 20.4C1055.48 20.4 1056.47 18.8 1056.27 15.1C1055.48 15.6 1053.88 15.7 1052.69 16.1C1051.39 16.4 1050.3 17 1050.3 18.4C1050.2 19.8 1051.39 20.4 1052.69 20.4ZM1062.85 5.40002H1068.53V8.6H1068.63C1069.52 6.30002 1071.52 5.09994 1074.01 5.09994C1074.51 5.09994 1075.5 5.09994 1076 5.2V10.6C1075.2 10.4 1074.01 10.2999 1073.21 10.2999C1070.32 10.2999 1068.83 12.3 1068.83 14.5999V23.5H1062.95V5.40002H1062.85Z" fill="white"/>
<path d="M1070.12 17.6002H1076V23.5002H1070.12V17.6002Z" fill="white"/>
</g>
</svg>
