<svg width="168" height="24" viewBox="0 0 168 24" fill="none" xmlns="http://www.w3.org/2000/svg">
<mask id="mask0_92_9666" style="mask-type:luminance" maskUnits="userSpaceOnUse" x="0" y="0" width="168" height="24">
<path d="M168 0H0V24H168V0Z" fill="white"/>
</mask>
<g mask="url(#mask0_92_9666)">
<path d="M27.5325 21.1346V2.84996C27.5325 1.90044 27.7501 1.18753 28.1852 0.712935C28.6197 0.238229 29.1827 0.000366211 29.8719 0.000366211C30.583 0.000366211 31.1583 0.235737 31.599 0.705229C32.039 1.17484 32.2598 1.88933 32.2598 2.84996V21.1346C32.2598 22.0947 32.039 22.8125 31.599 23.2873C31.1583 23.7626 30.583 24.0003 29.8719 24.0003C29.1928 24.0003 28.6332 23.7599 28.1927 23.2796C27.7525 22.7993 27.5325 22.0839 27.5325 21.1346Z" fill="white"/>
<path d="M155.954 4.86985C152 4.86985 148.784 8.07221 148.784 12.008C148.784 15.9433 152 19.1455 155.954 19.1455C159.907 19.1455 163.123 15.9433 163.123 12.008C163.123 8.07221 159.907 4.86985 155.954 4.86985ZM155.954 24.0002C149.312 24.0002 143.908 18.6202 143.908 12.008C143.908 5.39487 149.312 0.0151367 155.954 0.0151367C162.596 0.0151367 167.999 5.39487 167.999 12.008C167.999 18.6202 162.596 24.0002 155.954 24.0002Z" fill="white"/>
<path d="M101.879 4.86985C97.9267 4.86985 94.7105 8.07221 94.7105 12.008C94.7105 15.9433 97.9267 19.1455 101.879 19.1455C105.834 19.1455 109.049 15.9433 109.049 12.008C109.049 8.07221 105.834 4.86985 101.879 4.86985ZM101.879 24.0002C95.2376 24.0002 89.8342 18.6202 89.8342 12.008C89.8342 5.39487 95.2376 0.0151367 101.879 0.0151367C108.522 0.0151367 113.926 5.39487 113.926 12.008C113.926 18.6202 108.522 24.0002 101.879 24.0002Z" fill="white"/>
<path d="M128.856 19.0868C128.274 19.1247 127.646 19.1313 126.972 19.1313H123.81V4.86947H126.972C127.646 4.86947 128.274 4.87684 128.856 4.91378C130.947 5.16263 132.764 6.30843 133.905 7.95613C134.7 9.10329 135.168 10.4901 135.172 11.986C135.172 11.9898 135.172 11.9937 135.172 11.9978V12.0031C135.172 12.0068 135.172 12.0108 135.172 12.0146C135.168 13.5104 134.7 14.8973 133.905 16.0448C132.764 17.6924 130.947 18.8378 128.856 19.0868ZM140.048 12.0003V11.9971C140.047 9.35044 139.18 6.9028 137.717 4.91684C135.59 2.0286 132.198 0.122188 128.36 0.00977282C128.241 0.00614651 128.123 0.000366211 128.002 0.000366211C127.996 0.000366211 121.954 0.00807284 121.954 0.00807284C120.92 0.00807284 120.173 0.242309 119.711 0.710442C119.248 1.17869 119.017 1.93534 119.017 2.98119V21.0194C119.017 22.0652 119.248 22.8216 119.711 23.2904C120.173 23.7589 120.92 23.9928 121.954 23.9928C121.954 23.9928 127.996 24.0003 128.002 24.0003C128.123 24.0003 128.241 23.9945 128.36 23.9912C132.198 23.8784 135.59 21.9721 137.717 19.0838C139.18 17.0978 140.047 14.6502 140.048 12.0037V12.0003Z" fill="white"/>
<path d="M83.0121 0.107581C82.1318 -0.164618 81.181 0.179768 80.6682 0.957383L73.4054 11.9719L66.1428 0.957383C65.6307 0.179768 64.6792 -0.164618 63.799 0.107581C62.919 0.38012 62.3182 1.20601 62.3182 2.14216V21.7183C62.3182 22.893 63.2539 23.8451 64.4074 23.8451C65.5617 23.8451 66.4971 22.893 66.4971 21.7183V9.12857L71.6537 16.9482C71.6573 16.9537 71.6607 16.9587 71.6641 16.9641L71.6705 16.9735C71.6766 16.9831 71.684 16.9918 71.6904 17.0014C71.7225 17.0482 71.7556 17.0948 71.7922 17.1394C71.8082 17.1592 71.8249 17.1769 71.8414 17.1956C71.8703 17.2285 71.8983 17.2615 71.929 17.2926C71.9565 17.3207 71.986 17.3469 72.0152 17.3739C72.0363 17.393 72.0574 17.4133 72.0795 17.432C72.1208 17.4665 72.1626 17.4974 72.2057 17.5278C72.218 17.5363 72.2289 17.5465 72.2413 17.5547C72.2413 17.5547 72.2445 17.5567 72.2468 17.558C72.2927 17.5891 72.3403 17.6173 72.3889 17.6448C72.4021 17.6525 72.4154 17.6616 72.4289 17.6685C72.465 17.6883 72.5023 17.7047 72.5402 17.7222C72.7515 17.8206 72.973 17.882 73.1959 17.905L73.2004 17.9058C73.2448 17.9095 73.289 17.9105 73.3327 17.9124C73.3571 17.9132 73.3816 17.9154 73.4054 17.9154C73.4302 17.9154 73.454 17.9132 73.4783 17.9124C73.5228 17.9105 73.5667 17.9095 73.6109 17.9058L73.6151 17.905C73.8385 17.882 74.0598 17.8206 74.2714 17.7222C74.3088 17.7047 74.3465 17.6883 74.3824 17.6685C74.3964 17.6616 74.4089 17.6525 74.4229 17.6448C74.4713 17.6173 74.5186 17.5891 74.5645 17.558C74.5668 17.5567 74.5704 17.5547 74.5704 17.5547C74.5828 17.5465 74.5936 17.5363 74.6056 17.5278C74.6487 17.4974 74.6912 17.4665 74.732 17.432C74.7544 17.4133 74.775 17.393 74.7971 17.3731C74.8255 17.3469 74.8548 17.3207 74.8823 17.2932C74.9135 17.2615 74.9415 17.2281 74.9702 17.1953C74.9869 17.1769 75.0038 17.1588 75.0193 17.1394C75.0557 17.0948 75.0888 17.0482 75.1212 17.0014C75.1275 16.9918 75.1349 16.9831 75.1414 16.9735L75.1472 16.9641C75.1509 16.9587 75.154 16.9537 75.158 16.9482L80.3139 9.12857V21.7183C80.3139 22.893 81.2489 23.8451 82.4044 23.8451C83.5574 23.8451 84.4938 22.893 84.4938 21.7183V2.14216C84.4938 1.20601 83.8923 0.38012 83.0121 0.107581Z" fill="white"/>
<path d="M55.2069 23.2709H39.5869C38.7653 23.2709 37.8524 22.7592 37.5144 21.9628C37.176 21.1673 37.1068 20.0839 37.8343 19.2206L50.6115 4.4609H40.0556C38.9017 4.4609 37.9656 3.46582 37.9656 2.23809C37.9656 1.01036 38.9017 0.26062 40.0556 0.26062H54.2901C55.1113 0.26062 55.9622 0.390714 56.7053 1.20142C57.3845 1.9422 57.3546 3.54106 56.5938 4.49444L44.2483 18.8259H55.2069C56.3611 18.8259 57.2013 19.821 57.2013 21.0482C57.2013 22.2756 56.3611 23.2709 55.2069 23.2709Z" fill="white"/>
<path d="M11.9585 24.0001C8.4924 24.0001 5.34897 22.6319 3.10723 20.1474C1.13222 17.9585 0 15.0745 0 12.2344C0 3.32195 7.44145 0.000488281 12.1325 0.000488281C16.7445 0.000488281 20.1302 2.2522 20.272 2.34761C21.3107 3.04942 21.5886 4.46752 20.8928 5.51496C20.1986 6.55877 18.799 6.84094 17.7613 6.14707C17.7008 6.10843 15.2991 4.56612 12.1325 4.56612C9.19216 4.56612 5.13739 6.49814 5.13739 12.2344C5.13739 15.4977 7.57563 19.3466 12.0458 19.3466C14.561 19.3466 16.3294 18.6795 17.3574 18.0282V14.6341H13.8742C12.6239 14.6341 11.6101 13.6123 11.6101 12.3513C11.6101 11.0906 12.6239 10.0685 13.8742 10.0685H19.6215C20.8717 10.0685 21.8854 11.0906 21.8854 12.3513V19.1412C21.8854 19.7588 21.6373 20.3494 21.1983 20.7795C19.6803 22.2651 16.3498 24.0001 11.9585 24.0001Z" fill="white"/>
</g>
</svg>
