<svg width="149" height="24" viewBox="0 0 149 24" fill="none" xmlns="http://www.w3.org/2000/svg">
<mask id="mask0_92_9641" style="mask-type:luminance" maskUnits="userSpaceOnUse" x="0" y="0" width="149" height="24">
<path d="M148.445 0H0V24H148.445V0Z" fill="white"/>
</mask>
<g mask="url(#mask0_92_9641)">
<path d="M12.4533 9.29999H8.86682V17.5C8.86682 18.8999 9.66381 19.2 10.959 19.2C11.4571 19.2 11.9553 19.1 12.4533 19.1V23.4C11.3575 23.4 10.2616 23.6 9.26537 23.6C4.28397 23.6 2.98881 22.0999 2.98881 17.2V9.29999H0V5.40002H2.98881V0H8.86682V5.40002H12.4533V9.29999ZM17.634 15.9C17.7336 18.4 19.1285 20 21.6191 20C23.0138 20 24.4087 19.3 25.0064 17.9999H30.4859C29.4896 22.2 25.6041 24 21.6191 24C15.741 24 11.756 20.4999 11.756 14.3999C11.756 8.89997 16.1396 4.89993 21.4198 4.89993C27.8956 4.89993 31.0837 9.79997 30.7848 15.9H17.634ZM24.9067 12.5999C24.8071 10.6 23.4124 8.89997 21.4198 8.89997C19.3277 8.89997 17.9329 10.4 17.634 12.5999H24.9067ZM43.7363 12C43.7363 10.5 42.3416 9.39994 40.8472 9.39994C37.5595 9.39994 37.0613 12.2 37.0613 14.7C37.0613 17 38.0575 19.3999 40.5482 19.3999C42.6404 19.3999 43.6367 18.2 43.9355 16.3H49.6143C49.1162 21.1999 45.4299 24 40.6478 24C35.268 24 31.1833 20.2999 31.1833 14.8C31.1833 9.09998 34.7698 4.99999 40.6478 4.99999C45.1311 4.99999 49.1162 7.40004 49.5147 12.1H43.7363V12ZM49.8136 0H55.6916V7.90001H55.7912C56.6879 6.10001 59.0789 4.89993 61.2707 4.89993C67.2484 4.89993 67.7464 9.29999 67.7464 11.8999V23.5H61.8684V14.8C61.8684 12.3 62.1673 9.79997 58.8797 9.79997C56.6879 9.79997 55.6916 11.6999 55.6916 13.6999V23.5H49.8136V0ZM68.2446 5.40002H73.9234V8.6H74.023C74.9196 6.30002 76.9121 5.09994 79.4028 5.09994C79.901 5.09994 80.2994 5.09994 80.7976 5.2V10.6C80.0006 10.4 79.3032 10.2999 78.5062 10.2999C75.617 10.2999 74.1226 12.3 74.1226 14.5999V23.5H68.2446V5.40002ZM80.7976 10.9999C80.8972 8.6 81.9931 7.09996 83.5871 6.19996C85.1812 5.29995 87.2734 4.89993 89.2659 4.89993C93.5499 4.89993 97.6346 5.79993 97.6346 10.9V18.8C97.6346 20.2999 97.6346 22 98.332 23.4H92.454C92.2548 22.7999 92.1551 22.2999 92.1551 21.7C90.5611 23.4 88.3693 24 86.1774 24C82.7901 24 80.0006 22.2999 80.0006 18.5C80.0006 12.5999 86.3768 13.1 90.4615 12.2C91.4577 12 92.0554 11.6 92.0554 10.5C92.0554 9.09998 90.4615 8.6 89.1663 8.6C87.5722 8.6 86.4764 9.29999 86.1774 10.9H80.7976V10.9999ZM88.3693 20.4C91.1588 20.4 92.1551 18.8 91.9558 15.1C91.1588 15.6 89.5647 15.7 88.3693 16.1C87.0742 16.4 85.9782 17 85.9782 18.4C85.9782 19.8 87.0742 20.4 88.3693 20.4ZM116.663 23.5H111.084V21.3999H110.984C110.459 22.2147 109.734 22.8813 108.88 23.3363C108.026 23.7913 107.07 24.0197 106.102 24C100.424 24 98.0331 19.1 98.0331 14.1C98.0331 9.39994 100.524 4.99999 105.605 4.99999C107.797 4.99999 109.49 5.79993 110.685 7.49999H110.785V0H116.663V23.5ZM103.911 14.3C103.911 16.8 104.807 19.5 107.497 19.5C110.387 19.5 110.984 16.8 110.984 14.5C110.984 11.8999 110.088 9.5 107.497 9.5C104.807 9.39994 103.911 12 103.911 14.3ZM117.56 10.9999C117.66 8.6 118.756 7.09996 120.349 6.19996C121.944 5.29995 124.036 4.89993 126.028 4.89993C130.313 4.89993 134.397 5.79993 134.397 10.9V18.8C134.397 20.2999 134.397 22 135.095 23.4H129.217C129.017 22.7999 128.918 22.2999 128.918 21.7C127.323 23.4 125.032 24 122.94 24C119.553 24 116.763 22.2999 116.763 18.5C116.763 12.5999 123.139 13.1 127.223 12.2C128.221 12 128.818 11.6 128.818 10.5C128.818 9.09998 127.223 8.6 125.928 8.6C124.335 8.6 123.239 9.29999 122.94 10.9H117.56V10.9999ZM125.132 20.4C127.921 20.4 128.918 18.8 128.718 15.1C127.922 15.6 126.327 15.7 125.132 16.1C123.836 16.4 122.74 17 122.74 18.4C122.641 19.8 123.836 20.4 125.132 20.4ZM135.293 5.40002H140.973V8.6H141.073C141.969 6.30002 143.961 5.09994 146.452 5.09994C146.951 5.09994 147.947 5.09994 148.444 5.2V10.6C147.647 10.4 146.452 10.2999 145.655 10.2999C142.766 10.2999 141.271 12.3 141.271 14.5999V23.5H135.393V5.40002H135.293Z" fill="white"/>
<path d="M142.566 17.6002H148.444V23.5002H142.566V17.6002Z" fill="white"/>
</g>
</svg>
