<svg width="84" height="16" viewBox="0 0 84 16" fill="none" xmlns="http://www.w3.org/2000/svg">
<path d="M15.5754 5.71885L10.6567 4.96639L8.45208 0.263392C8.28741 -0.0877974 7.71208 -0.0877974 7.54741 0.263392L5.34342 4.96639L0.424765 5.71885C0.0207661 5.78094 -0.140567 6.27301 0.142766 6.56344L3.71609 10.2316L2.87143 15.4173C2.80409 15.8292 3.24342 16.1384 3.60676 15.9361L8.00008 13.5044L12.3934 15.9367C12.7534 16.137 13.1967 15.8339 13.1287 15.418L12.2841 10.2322L15.8574 6.56411C16.1407 6.27301 15.9787 5.78094 15.5754 5.71885Z" fill="#FFCB13"/>
<path d="M32.5754 5.71885L27.6567 4.96639L25.4521 0.263392C25.2874 -0.0877974 24.7121 -0.0877974 24.5474 0.263392L22.3434 4.96639L17.4248 5.71885C17.0208 5.78094 16.8594 6.27301 17.1428 6.56344L20.7161 10.2316L19.8714 15.4173C19.8041 15.8292 20.2434 16.1384 20.6068 15.9361L25.0001 13.5044L29.3934 15.9367C29.7534 16.137 30.1967 15.8339 30.1287 15.418L29.2841 10.2322L32.8574 6.56411C33.1407 6.27301 32.9787 5.78094 32.5754 5.71885Z" fill="#FFCB13"/>
<path d="M49.5754 5.71885L44.6567 4.96639L42.4521 0.263392C42.2874 -0.0877974 41.7121 -0.0877974 41.5474 0.263392L39.3434 4.96639L34.4248 5.71885C34.0208 5.78094 33.8594 6.27301 34.1428 6.56344L37.7161 10.2316L36.8714 15.4173C36.8041 15.8292 37.2434 16.1384 37.6068 15.9361L42.0001 13.5044L46.3934 15.9367C46.7534 16.137 47.1967 15.8339 47.1287 15.418L46.2841 10.2322L49.8574 6.56411C50.1407 6.27301 49.9787 5.78094 49.5754 5.71885Z" fill="#FFCB13"/>
<path d="M66.5754 5.71885L61.6567 4.96639L59.4521 0.263392C59.2874 -0.0877974 58.7121 -0.0877974 58.5474 0.263392L56.3434 4.96639L51.4248 5.71885C51.0208 5.78094 50.8594 6.27301 51.1428 6.56344L54.7161 10.2316L53.8714 15.4173C53.8041 15.8292 54.2434 16.1384 54.6068 15.9361L59.0001 13.5044L63.3934 15.9367C63.7534 16.137 64.1967 15.8339 64.1287 15.418L63.2841 10.2322L66.8574 6.56411C67.1407 6.27301 66.9787 5.78094 66.5754 5.71885Z" fill="#FFCB13"/>
<path fill-rule="evenodd" clip-rule="evenodd" d="M75.9994 7.74847e-09C75.8143 -3.01139e-05 75.6293 0.0877619 75.547 0.263376L73.3431 4.96609L68.4247 5.7185C68.0208 5.78059 67.8594 6.27262 68.1428 6.56304L71.7159 10.2309L70.8713 15.4163C70.8039 15.8283 71.2432 16.1374 71.6065 15.9351L75.9994 13.5038V7.74847e-09Z" fill="#EEEEEE"/>
<path fill-rule="evenodd" clip-rule="evenodd" d="M75.9995 13.5037V0C76.1844 5.36061e-05 76.3693 0.0878456 76.4516 0.263376L78.6562 4.96609L83.5745 5.7185C83.9778 5.78059 84.1398 6.27262 83.8565 6.56371L80.2834 10.2316L81.128 15.417C81.196 15.8329 80.7527 16.136 80.3927 15.9358L75.9997 13.5036L75.9995 13.5037Z" fill="#EEEEEE"/>
</svg>
