<svg width="73" height="73" viewBox="0 0 73 73" fill="none" xmlns="http://www.w3.org/2000/svg">
<g clip-path="url(#clip0_2_2111)">
<g clip-path="url(#clip1_2_2111)">
<path d="M67.8692 14.002H17.3571C16.7653 14.002 16.2855 14.4816 16.2855 15.0736C16.2855 15.6655 16.7653 16.1452 17.3571 16.1452H67.8692C69.5167 16.1452 70.8569 17.4854 70.8569 19.1329V41.9499C70.8569 43.5974 69.5167 44.9376 67.8692 44.9376H65.3032V37.9554C65.3032 37.3634 64.8234 36.8837 64.2316 36.8837H8.76842C8.1766 36.8837 7.6968 37.3634 7.6968 37.9554V44.9376H5.13091C3.48348 44.9376 2.14324 43.5974 2.14324 41.9499V19.1329C2.14324 17.4854 3.48348 16.1452 5.13091 16.1452H13.0706C13.6624 16.1452 14.1422 15.6655 14.1422 15.0736C14.1422 14.4816 13.6624 14.002 13.0706 14.002H5.13091C2.3017 14.002 0 16.3036 0 19.1329V41.9499C0 44.7792 2.3017 47.0808 5.13091 47.0808H16.2859C16.8777 47.0808 17.3575 46.6012 17.3575 46.0092C17.3575 45.4174 16.8777 44.9376 16.2859 44.9376H9.84004V43.0538H52.4278C53.0196 43.0538 53.4994 42.5742 53.4994 41.9822C53.4994 41.3903 53.0196 40.9106 52.4278 40.9106H9.84004V39.0268H63.16V40.9106H56.7142C56.1224 40.9106 55.6426 41.3903 55.6426 41.9822C55.6426 42.5742 56.1224 43.0538 56.7142 43.0538H63.16V44.9376H20.5722C19.9804 44.9376 19.5006 45.4174 19.5006 46.0092C19.5006 46.6012 19.9804 47.0808 20.5722 47.0808H67.8692C70.6984 47.0808 73.0001 44.7792 73.0001 41.9499V19.1329C73 16.3038 70.6983 14.002 67.8692 14.002Z" fill="#1C2B54"/>
<path d="M64.2316 22.715C64.8234 22.715 65.3032 22.2354 65.3032 21.6434C65.3032 21.0514 64.8234 20.5718 64.2316 20.5718H61.0623C60.4705 20.5718 59.9907 21.0514 59.9907 21.6434C59.9907 22.2354 60.4705 22.715 61.0623 22.715H64.2316Z" fill="#1C2B54"/>
<path d="M56.1728 22.715C56.7646 22.715 57.2444 22.2354 57.2444 21.6434C57.2444 21.0514 56.7646 20.5718 56.1728 20.5718H35.8897C35.2979 20.5718 34.8181 21.0514 34.8181 21.6434C34.8181 22.2354 35.2979 22.715 35.8897 22.715H56.1728Z" fill="#1C2B54"/>
<path d="M20.1582 49.9482C19.5663 49.9482 19.0865 50.4279 19.0865 51.0199C19.0865 51.0517 19.0521 54.2286 16.0793 56.3415C15.5969 56.6843 15.4838 57.3534 15.8267 57.8358C16.0357 58.13 16.3658 58.2867 16.7011 58.2867C16.9159 58.2867 17.1328 58.2223 17.3211 58.0884C21.1855 55.3416 21.2299 51.1949 21.2299 51.0197C21.2298 50.4279 20.75 49.9482 20.1582 49.9482Z" fill="#1C2B54"/>
<path d="M27.8311 49.9482C27.2393 49.9482 26.7595 50.4279 26.7595 51.0199V57.215C26.7595 57.8069 27.2393 58.2866 27.8311 58.2866C28.423 58.2866 28.9028 57.8069 28.9028 57.215V51.0199C28.9028 50.4279 28.423 49.9482 27.8311 49.9482Z" fill="#1C2B54"/>
<path d="M36.8014 49.9482C36.2095 49.9482 35.7297 50.4279 35.7297 51.0199V57.215C35.7297 57.8069 36.2095 58.2866 36.8014 58.2866C37.3932 58.2866 37.873 57.8069 37.873 57.215V51.0199C37.873 50.4279 37.3932 49.9482 36.8014 49.9482Z" fill="#1C2B54"/>
<path d="M56.9209 56.3415C53.9881 54.257 53.9152 51.1576 53.9136 51.015C53.9111 50.4253 53.4323 49.9482 52.842 49.9482C52.2502 49.9482 51.7704 50.4279 51.7704 51.0199C51.7704 51.195 51.8148 55.3418 55.6792 58.0886C55.8675 58.2224 56.0844 58.2869 56.2992 58.2869C56.6344 58.2867 56.9646 58.1298 57.1736 57.8359C57.5164 57.3534 57.4032 56.6843 56.9209 56.3415Z" fill="#1C2B54"/>
<path d="M45.1689 49.9482C44.5771 49.9482 44.0973 50.4279 44.0973 51.0199V57.215C44.0973 57.8069 44.5771 58.2866 45.1689 58.2866C45.7607 58.2866 46.2405 57.8069 46.2405 57.215V51.0199C46.2405 50.4279 45.7607 49.9482 45.1689 49.9482Z" fill="#1C2B54"/>
</g>
</g>
<defs>
<clipPath id="clip0_2_2111">
<rect width="73" height="73" fill="white"/>
</clipPath>
<clipPath id="clip1_2_2111">
<rect width="73" height="72.2847" fill="white" transform="translate(0 0.00195312)"/>
</clipPath>
</defs>
</svg>
