<svg width="116" height="24" viewBox="0 0 116 24" fill="none" xmlns="http://www.w3.org/2000/svg">
<path d="M97.8679 3.72931V20.3305H105.772C107.98 20.3305 109.259 19.9696 110.188 19.1275C111.351 18.0448 111.932 16.12 111.932 12.0299C111.932 7.93979 111.351 6.01501 110.188 4.93234C109.259 4.09024 107.98 3.72931 105.772 3.72931H97.8679ZM108.677 12.0299C108.677 15.6389 108.445 16.481 107.748 16.9621C107.283 17.323 106.701 17.4433 105.539 17.4433H101.122V6.49618H105.539C106.701 6.49618 107.283 6.49618 107.748 6.97735C108.445 7.57886 108.677 8.42095 108.677 12.0299ZM116 24H92.8113V0H116V24ZM73.8663 6.49618V3.72931H87.5818V9.02247H84.675V6.49618H79.0959V10.466H83.5126V13.1126H79.0959V17.5637H84.7922V14.6764H87.697V20.3305H73.8672V17.5637H76.0747V6.49618H73.8663ZM61.4294 15.9997C61.4294 17.8042 61.5447 19.1275 61.7771 20.2102H64.9164C64.7992 19.3681 64.6839 17.8042 64.6839 15.7591C64.5667 13.3532 63.8694 12.9922 62.2421 12.6314C64.1018 12.2705 64.9164 11.4284 64.9164 8.42095C64.9164 6.01502 64.5667 5.05257 63.8694 4.45106C63.4044 3.96989 62.5918 3.72931 61.3122 3.72931H51.5487V20.3305H54.8032V13.8343H59.3373C60.2671 13.8343 60.6149 13.9547 60.9645 14.1953C61.3141 14.4359 61.4294 14.7968 61.4294 15.9997ZM54.8032 11.1878V6.61642H60.0346C60.7321 6.61642 60.9645 6.73676 61.0798 6.85711C61.3122 7.09769 61.5447 7.45851 61.5447 8.90212C61.5447 10.3457 61.3122 10.8269 61.0798 11.0675C60.9645 11.1878 60.7321 11.3081 60.0346 11.3081L54.8032 11.1878ZM69.5657 24H46.3191V0H69.5071V24H69.5657ZM40.2751 17.5637V20.3305H29.232V17.5637H33.184V6.49618H29.232V3.72931H40.2742V6.49618H36.3222V17.5637H40.2751ZM21.6192 3.72931H18.5972L16.3889 16.8418L13.8317 4.69164C13.7154 3.84955 13.3668 3.72931 12.6693 3.72931H11.0421C10.3447 3.72931 9.996 3.9699 9.87974 4.69164L7.32269 16.8418L5.11419 3.72931H1.85973L4.99805 19.4884C5.11419 20.2102 5.34671 20.3305 6.16031 20.3305H8.36881C9.06614 20.3305 9.29867 20.2102 9.53107 19.4884L11.972 8.06002L14.4129 19.4884C14.529 20.2102 14.7616 20.3305 15.5751 20.3305H17.6674C18.3647 20.3305 18.7135 20.2102 18.8296 19.4884L21.6192 3.72931ZM23.2465 24H0V0H23.1889V24H23.2465Z" fill="white"/>
</svg>
