<svg width="109" height="133" viewBox="0 0 109 133" fill="none" xmlns="http://www.w3.org/2000/svg">
<g clip-path="url(#clip0_348_370)">
<path d="M45.3501 129.497L42.6249 128.273L40.6165 127.255L37.5153 125.64L32.9293 122.895L30.1658 121.026L26.2886 118.047L24.2531 116.333L21.5845 113.813C19.8028 112.131 18.1887 110.358 16.6968 108.419L15.1298 106.382L12.3136 102.354L11.0651 100.247L9.50374 97.5137L8.24489 94.9451L7.24308 92.8261L6.42009 90.6848L4.8124 86.3926L3.73476 82.8403L2.60044 78.4795L1.64812 73.9386L0.762858 67.8743C0.00371823 61.6457 -0.135178 55.4258 0.110684 49.1542C0.23601 45.9606 0.386082 42.8546 0.805165 39.7144L1.28252 36.1294L1.98339 31.4809L2.92134 26.6617C3.16001 25.4364 3.46814 24.29 3.79064 23.0966C5.75354 21.4775 7.7404 20.0608 9.85417 18.6785C12.2274 17.1271 14.6046 15.7057 17.1143 14.3696C24.4327 10.4736 32.1718 7.21221 39.9923 4.45626L44.0099 3.04122L47.3314 1.96737L53.7055 0.132199C54.2283 -0.0184736 54.6227 -0.0535508 55.1511 0.0963246L61.166 1.80554L65.9818 3.37764L69.2419 4.52562C74.3379 6.32093 79.3119 8.33469 84.2363 10.578L92.3434 14.6031L99.1477 18.653C101.276 20.0473 103.276 21.4775 105.227 23.107L105.989 26.1738L107.047 31.7312L107.645 35.6144L108.395 41.5018C109.145 49.3702 109.201 57.198 108.552 65.08L107.676 71.7933L106.393 78.4763L104.932 84.0568C104.063 86.9411 103.08 89.7186 101.859 92.4721L100.703 95.0766L99.3488 97.7074L98.0644 100.087L95.3185 104.425L93.1711 107.322L90.2535 110.86C87.8891 113.468 85.4081 115.897 82.6534 118.082L77.5892 121.876L76.2889 122.735L71.6654 125.534C68.4261 127.348 65.1197 128.883 61.7072 130.324L59.1671 131.319L56.1401 132.441L54.4135 132.998L51.0664 131.801L48.4075 130.789L45.3493 129.495L45.3501 129.497ZM65.3736 30.4899L66.7378 30.5059L66.7458 29.5907L65.3656 29.5452C65.3576 29.2112 65.3823 28.8014 65.5963 28.6133C65.9459 28.3064 66.3602 28.4554 66.7665 28.6221L67.1441 27.7619C66.444 27.4215 65.6482 27.3529 64.972 27.7332C64.3326 28.0927 64.149 28.8134 64.169 29.5397L63.334 29.5604L63.338 30.4947L64.1913 30.5003L64.2065 34.6059L65.3688 34.5971L65.3728 30.4899H65.3736ZM58.7776 33.9937L58.8287 34.6131H59.9271L59.9295 27.545L58.7433 27.5267L58.756 30.1798C58.3824 29.7023 57.8157 29.4878 57.2146 29.4551C55.5933 29.3667 54.4814 30.592 54.5301 32.1712C54.574 33.6054 55.5766 34.688 57.0557 34.6848C57.7119 34.6832 58.3258 34.5007 58.7776 33.9937ZM38.2616 34.6011L36.8168 32.357C37.6526 32.0405 38.0764 31.3366 38.1555 30.525C38.2473 29.5755 37.8282 28.7321 36.9852 28.2705C36.5805 28.0816 36.1183 27.9436 35.6522 27.9412L32.5893 27.9285L32.5924 34.6171L33.8537 34.6131L33.8561 32.5866L35.6434 32.6057L36.9286 34.6274L38.2624 34.6019L38.2616 34.6011ZM47.9085 33.5209C47.5014 33.6612 47.2963 33.7122 46.9922 33.6708C46.7064 33.6317 46.4861 33.3336 46.4853 33.0514L46.4797 30.4788L47.8718 30.4812L47.8694 29.5532L46.4829 29.5381L46.4749 28.3462L45.315 28.3303L45.2951 29.5357L44.5248 29.5532L44.5471 30.4748L45.3182 30.4851V33.1271C45.3182 33.7473 45.6208 34.303 46.2147 34.531C46.8756 34.7853 47.6188 34.7454 48.2302 34.3476L47.9085 33.5209ZM42.51 34.0909L42.5259 34.6171L43.6738 34.6083L43.6483 31.2879C43.6427 30.5816 43.2683 29.9454 42.5946 29.6847C41.5018 29.2622 40.2565 29.389 39.2467 30.061L39.6722 30.9667C40.2461 30.529 40.9294 30.3512 41.6566 30.4676C42.2058 30.5553 42.5634 31.0775 42.4573 31.6004L40.4169 31.661C39.6905 31.7694 39.1469 32.298 39.0695 32.9318C38.9817 33.6493 39.3736 34.2854 40.0721 34.531C40.8983 34.8212 41.8913 34.7255 42.5092 34.0909H42.51ZM50.7352 33.5656C50.2147 33.3631 49.9058 32.923 49.8427 32.4279L53.7957 32.4359C53.9226 30.7729 53.0198 29.5301 51.381 29.4536C49.913 29.385 48.7675 30.3879 48.6445 31.8444C48.516 33.3734 49.5841 34.582 51.1215 34.6697C52.0124 34.7207 52.8841 34.574 53.5035 33.8462L52.8745 33.088C52.2989 33.6652 51.5151 33.8685 50.736 33.5656H50.7352ZM69.6338 34.6864C70.6468 34.7303 71.5089 34.3261 72.0398 33.5927C72.6121 32.8034 72.7151 31.771 72.2785 30.9061C71.7708 29.8984 70.7522 29.4201 69.6562 29.4559C68.1666 29.5054 67.0754 30.6071 67.0762 32.0875C67.077 33.5679 68.1371 34.6227 69.633 34.6864H69.6338ZM74.7922 34.6019L74.8281 31.9209C74.8337 31.5207 75.1043 31.0751 75.3533 30.8734C75.7109 30.584 76.1252 30.5768 76.5731 30.5744L76.5794 29.5006C75.8498 29.4448 75.2535 29.6744 74.7842 30.2005L74.7818 29.5293L73.6235 29.5373L73.6427 34.6091L74.7922 34.6019ZM100.751 41.894L100.736 40.652H8.18742L8.20977 41.8948H100.751L100.751 41.894ZM84.847 70.7578C85.8679 71.1699 86.8625 71.1763 87.9146 71.1245C90.0436 71.02 91.7766 69.5372 92.0999 67.4063C92.3019 66.0758 92.3019 64.7093 91.8157 63.421C91.4836 62.5401 90.9959 61.6209 90.3014 60.976L86.9959 57.9075C85.8607 56.8536 85.3794 55.4338 85.674 53.9103C85.8336 53.0844 86.4586 52.6619 87.2992 52.6547C87.9793 52.6492 88.5181 52.913 88.7784 53.5907C89.029 54.2436 89.0522 54.9276 88.9891 55.7057L92.2164 55.7033L92.1262 53.8011C92.0696 52.6061 91.126 50.7685 89.8887 50.2153C88.2212 49.4699 86.2742 49.4236 84.5939 50.2025C81.8822 51.4605 81.5893 55.8173 83.1523 58.5429C83.5514 59.2389 84.091 59.8448 84.6713 60.3693L85.8911 61.4719L87.3048 62.7785C88.4886 63.8723 89.1033 65.5018 88.649 67.0723C88.4423 67.7874 87.8332 68.1126 87.1403 68.1437C86.2766 68.1836 85.5622 67.7021 85.4073 66.798L85.3139 64.5164L82.1081 64.4877L82.1481 66.8411C82.1576 67.4039 82.4035 67.9867 82.5967 68.5096C82.9878 69.5683 83.7869 70.3297 84.8486 70.7578H84.847ZM16.9395 66.9304C17.0592 68.0879 17.539 69.149 18.35 69.9263C19.2959 70.8319 20.5452 71.1596 21.8376 71.1596C23.8923 71.1596 25.3164 70.7123 26.3716 68.8939C26.833 68.0983 27.0366 67.1528 27.0366 66.2049L27.039 60.9497C27.039 60.127 26.8809 59.3497 26.5792 58.6091C25.7482 56.5706 23.537 55.9297 21.5207 56.7189C20.9858 56.9421 20.6019 57.308 20.2634 57.776L20.5715 52.8939L26.4946 52.9027L26.4874 49.8956L17.4935 49.898L17.3538 52.984L16.8533 62.002L20.0431 62.0076C20.0982 61.271 20.1828 60.6938 20.4047 60.0839C20.997 59.1512 22.7564 59.2588 23.2585 60.0154C23.5155 60.4028 23.6536 60.9449 23.6528 61.4312L23.6488 66.1236C23.6488 66.7733 23.4612 67.5147 22.8833 67.8846C22.3748 68.2099 21.6484 68.2027 21.0984 67.9819C20.5484 67.7611 20.1916 67.1831 20.1764 66.6011L20.1141 64.1545L16.8485 64.1529L16.9395 66.9304ZM44.5447 51.3497L44.9814 49.8948H41.7157L41.1904 51.8017L40.2022 55.3597L39.1222 59.2317L36.5318 49.8892L33.061 49.9044L34.8164 55.6491L37.3125 63.6833V70.9236L40.7394 70.8901L40.7179 63.8212L41.9288 59.8304L43.2451 55.551L44.5439 51.3497H44.5447ZM54.4399 61.7198L54.4263 58.6553L49.7174 58.6609V52.8979L55.6141 52.8971L55.5678 49.894L46.2881 49.9163V70.914L55.6317 70.91L55.5526 67.879L49.7238 67.8974L49.7206 61.6919L54.4399 61.7206V61.7198ZM64.6695 67.0053L65.332 70.9084L68.7262 70.9244L68.1978 67.9771L67.01 61.047L66.1359 55.9217L65.1109 49.8908H60.2312L59.0961 56.6958L58.3162 61.4208L56.8817 69.9422L56.7061 70.918L59.876 70.9052L60.4826 67.0053H64.6703H64.6695ZM80.7264 70.9252C80.4885 70.0746 80.3999 69.4352 80.4047 68.677L80.4262 64.8496C80.2993 63.0687 79.8084 61.4488 78.2207 60.5734C80.0614 59.5378 80.3775 57.8438 80.4318 55.9233C80.4637 54.8048 80.4438 53.7453 80.0766 52.6858C79.537 51.0619 78.1113 49.9458 76.3519 49.9315L70.2373 49.8812L70.2357 70.9324L73.562 70.9196L73.5533 70.1862L73.5549 62.2444L74.6046 62.2531C75.1921 62.2579 75.873 62.4006 76.308 62.8311C76.7351 63.2528 76.9291 63.9193 76.9323 64.5332L76.9514 68.5989C76.9554 69.3977 77.0329 70.1662 77.3146 70.9092L80.7264 70.9252ZM100.772 80.125L100.753 78.8781H8.22015L8.20578 80.1258H100.773L100.772 80.125ZM25.6732 89.2084C25.6875 88.0995 26.4818 87.3198 27.5331 87.2879C28.1733 87.268 28.7305 87.488 29.1751 88.0134L30.0197 87.1707C29.231 86.2531 28.0639 85.99 26.9153 86.1846C25.5598 86.4142 24.5883 87.4131 24.396 88.7667C24.1158 90.7438 25.5886 92.4068 27.589 92.4243C28.5605 92.4331 29.4832 92.1134 30.0149 91.2859L29.1943 90.5405C28.582 91.262 27.7303 91.4573 26.8857 91.1328C26.1665 90.8562 25.662 90.11 25.674 89.2092L25.6732 89.2084ZM33.6198 92.4147C35.0926 92.4801 36.3953 91.6518 36.8424 90.2878C37.1968 89.2052 36.9685 88.0851 36.2684 87.2496C35.5683 86.4141 34.5426 86.0275 33.4146 86.124C31.7247 86.2683 30.5258 87.5581 30.5417 89.2474C30.5577 90.9367 31.8141 92.335 33.6198 92.4147ZM72.2066 90.641C72.7143 89.5352 72.581 88.3131 71.9049 87.3796C71.2455 86.4692 70.1886 86.0482 69.0128 86.1192C67.3357 86.2204 66.0864 87.484 66.0545 89.1661C66.0185 91.0579 67.5233 92.5024 69.4175 92.4195C70.6197 92.3669 71.6806 91.7842 72.2058 90.641H72.2066ZM83.4388 92.2178C84.5093 91.8479 84.9771 90.6593 84.4183 89.7266C84.1453 89.2714 83.6352 88.9931 83.1315 88.8704L81.717 88.526C81.3754 88.443 81.1542 88.1704 81.1902 87.8515C81.2907 86.9547 82.9415 87.0495 83.9793 87.6626L84.4885 86.7155C83.5394 86.0993 82.2319 85.9382 81.1024 86.3312C80.1165 86.674 79.6384 87.8483 80.1253 88.7548C80.3504 89.1749 80.8142 89.473 81.2644 89.599L82.9519 90.0702C83.2233 90.1459 83.4181 90.4935 83.4077 90.7183C83.3686 91.5745 81.3402 91.5283 80.2043 90.6641L79.798 91.6917C80.8868 92.3853 82.1904 92.6491 83.4388 92.217V92.2178ZM43.4822 92.2784V86.2292H42.2034L42.1954 90.0813L39.1509 86.2348H38.019L38.0182 92.3183L39.301 92.3103L39.3177 88.4765L42.3719 92.292L43.4814 92.2784H43.4822ZM47.4488 92.288L47.4607 87.3254L49.3678 87.3325L49.3574 86.2396L44.2781 86.2212L44.2829 87.3365L46.1723 87.3333L46.1803 92.3087L47.448 92.2888L47.4488 92.288ZM51.4624 92.3071V86.2348H50.1908L50.1932 92.339L51.4632 92.3063L51.4624 92.3071ZM58.3489 92.3L58.3577 86.242L57.0957 86.2332L57.0861 90.0877L54.0375 86.2133L52.9128 86.2188L52.924 92.3239L54.1461 92.3127L54.218 88.4454L57.2753 92.3342L58.3497 92.2992L58.3489 92.3ZM63.7906 86.2579L63.7826 90.0327C63.6653 90.8251 63.1752 91.3002 62.3761 91.2907C61.6896 91.2827 61.0247 90.8148 61.0183 90.0271L60.9887 86.234L59.7131 86.2428L59.7483 90.0415C59.7586 91.1448 60.4946 92.0544 61.5443 92.3135C62.2125 92.4785 62.9022 92.4682 63.5511 92.2306C64.4596 91.8974 65.0542 91.0212 65.0519 90.0438L65.0423 86.2284L63.7906 86.2579ZM77.5821 86.2348V89.8876C77.5813 90.358 77.3314 90.8642 76.9331 91.0914C76.5036 91.3369 75.8882 91.3576 75.4675 91.0898C74.975 90.7773 74.7602 90.1443 74.7634 89.5719L74.7818 86.238H73.5118L73.5269 90.0056C73.5309 91.0842 74.2054 91.9835 75.2344 92.2768C75.9057 92.4682 76.6178 92.4721 77.2883 92.237C78.2358 91.9045 78.8297 90.983 78.8313 89.9633L78.8385 86.2332L77.5828 86.2348H77.5821ZM58.0576 99.9731C56.9743 99.2803 56.8354 97.6771 57.7271 96.7962C58.5764 95.9567 59.9191 96.1321 60.6878 96.9772L61.4749 96.1728C60.9416 95.4473 60.1426 95.1827 59.2901 95.1125C57.3838 94.9562 55.8304 96.345 55.852 98.2551C55.8735 100.144 57.3894 101.52 59.2837 101.389C60.153 101.328 60.9361 101.065 61.4988 100.313L60.7429 99.5211C60.0388 100.239 58.9907 100.569 58.0584 99.9723L58.0576 99.9731ZM72.1483 101.21C73.3601 101.591 74.6437 101.397 75.5657 100.569C76.4126 99.8073 76.7231 98.6122 76.4605 97.5049C76.0837 95.9209 74.591 94.9905 73.0041 95.1109C71.2391 95.2448 70.0026 96.6471 70.1104 98.4241C70.1862 99.6757 70.8927 100.817 72.1491 101.21H72.1483ZM28.7417 99.5665C29.4505 99.5625 30.1634 99.246 30.5729 98.692C31.1181 97.9538 31.1261 96.974 30.6998 96.1855C30.2743 95.59 29.6197 95.2074 28.8598 95.2034L25.8927 95.189L25.9023 101.293L27.1468 101.298L27.1507 99.5753L28.7409 99.5657L28.7417 99.5665ZM35.8445 101.288L37.1864 101.282L35.8589 99.2978C36.5167 98.955 36.9517 98.4257 37.0643 97.8461C37.2111 97.092 37.0251 96.3928 36.5071 95.8826C36.0329 95.4162 35.3648 95.2042 34.6911 95.201L31.9491 95.1874L31.9738 101.294L33.263 101.304L33.2614 99.5266L34.6551 99.5322L35.8445 101.288ZM42.6417 101.047C43.772 100.488 44.3348 99.3234 44.3148 98.1451C44.2965 97.0099 43.6044 95.8922 42.5044 95.3979C41.493 94.9435 40.2884 95.0073 39.3361 95.5597C38.3231 96.1473 37.7987 97.2283 37.8394 98.3619C37.8801 99.4956 38.4748 100.508 39.5061 101.021C40.4672 101.5 41.6359 101.544 42.6417 101.047ZM54.6442 98.7271L54.6354 97.701L51.7705 97.6994L51.7921 96.2708L55.0449 96.2764L55.0282 95.209L50.5268 95.189V101.309L55.1216 101.308V100.228L51.7689 100.229L51.7881 98.7231L54.6442 98.7279V98.7271ZM69.0351 101.285L69.0391 95.201L67.7555 95.1914L67.7316 101.294L69.0351 101.284V101.285ZM78.8337 101.296L78.8633 97.4699L81.9317 101.299L83.0581 101.291L83.0509 95.2082L81.8104 95.1843L81.7697 99.1025L78.6709 95.209L77.5765 95.1938L77.5805 101.304L78.8329 101.296L78.8337 101.296ZM47.7673 101.287L47.7816 96.274L49.703 96.2788L49.6695 95.2034L44.583 95.1986V96.2892L46.51 96.278L46.5148 101.298L47.7673 101.287ZM65.0096 101.288L65.0159 96.2764L66.9557 96.2884L66.9485 95.2002L61.8341 95.2034L61.8293 96.274L63.7108 96.2828L63.7084 101.296L65.0088 101.287L65.0096 101.288ZM47.0935 112.3L45.3685 111.64L46.5715 113.029L52.0754 118.912L56.6319 114.27L61.0742 109.702L63.4705 107.194L62.5621 107.677L60.4499 109.006L55.1894 112.343L52.0212 114.362L49.5067 113.283L47.0935 112.299V112.3Z" fill="black"/>
<path d="M76.9796 54.6141L76.9589 57.3772C76.9541 58.0333 76.6029 58.8457 75.9643 59.092C75.19 59.3902 74.3693 59.3081 73.5583 59.3041L73.5599 52.8857L75.4877 52.8897C75.8613 52.8897 76.2149 53.0795 76.4967 53.317C76.7426 53.6869 76.9828 54.1222 76.9796 54.6141Z" fill="black"/>
<path d="M64.1964 64.1434L60.9515 64.1689L61.6524 59.4096L62.5081 53.7119L63.1188 57.4381L64.1964 64.1434Z" fill="black"/>
<path d="M36.9248 30.2935C36.936 31.0118 36.4515 31.5634 35.7578 31.5714L33.8372 31.5921L33.8468 28.9805L35.6428 28.99C36.3732 28.994 36.9129 29.5369 36.9248 30.2943V30.2935Z" fill="black"/>
<path d="M70.2855 91.0305C69.615 91.4355 68.8414 91.3637 68.2396 90.9603C67.6624 90.5737 67.3391 89.9224 67.3591 89.1762C67.3886 88.0744 68.2404 87.2701 69.3084 87.2589C70.3765 87.2477 71.2139 88.151 71.2027 89.2463C71.1955 89.955 70.9209 90.647 70.2855 91.0305Z" fill="black"/>
<path d="M42.9956 98.213C43.0051 99.0843 42.5717 99.7859 41.8924 100.094C41.1269 100.44 40.2512 100.271 39.6828 99.6463C39.1176 99.0253 38.9772 98.1452 39.31 97.3608C39.6716 96.5085 40.5801 96.0964 41.4805 96.2789C42.337 96.4519 42.9836 97.2196 42.9948 98.2122L42.9956 98.213Z" fill="black"/>
<path d="M35.6772 89.2886C35.674 90.1122 35.2533 90.8113 34.5995 91.1182C33.8811 91.4554 33.0461 91.3088 32.465 90.7507C31.6476 89.9647 31.5917 88.6421 32.3979 87.8465C32.9831 87.2693 33.8212 87.0883 34.5445 87.42C35.2677 87.7516 35.6804 88.4189 35.6772 89.2886Z" fill="black"/>
<path d="M75.2362 98.0579C75.344 99.2553 74.5577 100.191 73.441 100.275C72.3242 100.359 71.4166 99.4714 71.3727 98.3409C71.3296 97.2392 72.0767 96.3622 73.1249 96.2514C74.2017 96.1374 75.1325 96.9059 75.2362 98.0579Z" fill="black"/>
<path d="M35.8193 97.4926C35.749 98.0818 35.3387 98.4437 34.7887 98.4557L33.2609 98.4891L33.2545 96.2705L34.8598 96.3175C35.484 96.3359 35.8951 96.8581 35.8193 97.4926Z" fill="black"/>
<path d="M56.2019 33.2786C55.5952 32.6488 55.6008 31.6491 56.0965 30.989C56.4789 30.4804 57.1167 30.3417 57.6914 30.5059C58.2662 30.6701 58.6653 31.2003 58.7459 31.8468C58.8289 32.5085 58.5511 33.1686 57.9916 33.4771C57.4551 33.7721 56.6928 33.788 56.2019 33.2786Z" fill="black"/>
<path d="M29.7429 97.2587C29.7988 97.9187 29.3191 98.4672 28.7012 98.4712L27.1662 98.4808L27.1614 96.251L28.7755 96.2821C29.2967 96.2924 29.723 96.703 29.7429 97.2594V97.2587Z" fill="black"/>
<path d="M52.6672 31.6289L49.8318 31.6393C49.9324 30.8923 50.5023 30.414 51.1729 30.3924C51.8434 30.3709 52.5163 30.7679 52.6672 31.6289Z" fill="black"/>
<path d="M42.4583 33.0431C42.1518 33.8132 41.2035 34.026 40.5449 33.6641C40.2799 33.5182 40.1793 33.2105 40.2256 32.9546C40.2663 32.7338 40.5226 32.4452 40.798 32.442L42.4751 32.4229C42.4839 32.5974 42.5142 32.9012 42.4583 33.0431Z" fill="black"/>
<path d="M71.3437 32.2117C71.2743 33.1093 70.5758 33.7009 69.7736 33.6913C68.9713 33.6817 68.3335 33.0368 68.28 32.1702C68.2217 31.2247 68.8667 30.469 69.7736 30.4562C70.6804 30.4435 71.4227 31.1896 71.3437 32.2117Z" fill="black"/>
</g>
<defs>
<clipPath id="clip0_348_370">
<rect width="109" height="133" fill="white"/>
</clipPath>
</defs>
</svg>
