<svg width="225" height="26" viewBox="0 0 225 26" fill="none" xmlns="http://www.w3.org/2000/svg">
<path d="M204.33 24.7094L204.224 23.0809L206.419 22.4791C206.442 22.2195 206.466 21.7711 206.489 21.1339C206.537 20.4731 206.572 19.7179 206.596 18.8683C206.619 18.0187 206.631 17.1927 206.631 16.3903V11.9299C206.631 11.1275 206.619 10.3251 206.596 9.52266C206.596 8.69665 206.584 7.91785 206.56 7.18624C206.56 6.43104 206.548 5.74664 206.525 5.13303C206.501 4.51943 206.466 4.02382 206.419 3.64622L203.799 3.29222L203.728 1.77001L210.419 0.0354004L211.41 0.637204C211.363 1.36881 211.316 2.07681 211.269 2.76122C211.245 3.44562 211.221 4.20083 211.198 5.02683C211.174 5.82924 211.151 6.76144 211.127 7.82345C211.103 8.86185 211.08 10.1245 211.056 11.6113L211.162 11.6467C211.894 10.7263 212.696 10.0419 213.57 9.59346C214.443 9.12146 215.375 8.88546 216.366 8.88546C217.381 8.88546 218.278 9.13326 219.057 9.62886C219.859 10.1245 220.496 10.8561 220.968 11.8237C221.44 12.7677 221.676 13.9123 221.676 15.2575V18.9037C221.676 19.7061 221.688 20.4613 221.712 21.1693C221.759 21.8537 221.806 22.2903 221.853 22.4791L224.048 23.0809L223.942 24.7094H215.092L214.986 23.0809L216.968 22.4791C217.015 22.2667 217.051 21.9717 217.074 21.5941C217.098 21.1929 217.11 20.7563 217.11 20.2843C217.133 19.8123 217.145 19.3639 217.145 18.9391V15.9655C217.145 15.0687 217.003 14.3489 216.72 13.8061C216.461 13.2397 216.107 12.8267 215.658 12.5671C215.233 12.3075 214.738 12.1777 214.171 12.1777C213.605 12.1777 213.062 12.3075 212.543 12.5671C212.024 12.8267 211.564 13.2043 211.162 13.6999V18.9037C211.162 19.7769 211.174 20.5439 211.198 21.2047C211.245 21.8655 211.292 22.2903 211.339 22.4791L213.463 23.0809L213.357 24.7094H204.33Z" fill="white"/>
<path d="M203.799 21.7357C203.445 22.7505 202.796 23.5647 201.852 24.1783C200.932 24.7683 199.893 25.0634 198.737 25.0634C197.108 25.0634 195.763 24.5913 194.701 23.6473C193.663 22.6797 193.144 21.2401 193.144 19.3285L193.25 11.4343H190.772V10.3369L196.825 5.52243H197.923L197.852 10.5139L197.781 18.9037C197.781 19.8949 198.017 20.6147 198.489 21.0631C198.961 21.4879 199.622 21.7003 200.471 21.7003C200.92 21.7003 201.356 21.6177 201.781 21.4525C202.206 21.2637 202.572 21.0277 202.879 20.7445L203.799 21.7357ZM196.046 11.4343V9.20405H202.808V11.4343H196.046Z" fill="white"/>
<path d="M180.612 24.7094L180.506 23.0455L182.807 22.4791C182.83 22.2195 182.854 21.7711 182.878 21.1339C182.925 20.4731 182.96 19.7179 182.984 18.8683C183.007 18.0187 183.019 17.1927 183.019 16.3903V11.9299C183.019 11.1039 183.007 10.2897 182.984 9.48726C182.984 8.66125 182.972 7.88245 182.948 7.15084C182.948 6.39564 182.937 5.72304 182.913 5.13303C182.889 4.51943 182.854 4.02382 182.807 3.64622L180.187 3.29222L180.116 1.77001L186.878 0.0354004L187.869 0.637204C187.822 1.62841 187.775 2.59602 187.727 3.54002C187.704 4.46043 187.692 5.51063 187.692 6.69064C187.692 7.87065 187.68 9.31026 187.657 11.0095L187.621 16.2133C187.621 17.8653 187.633 19.2695 187.657 20.4259C187.704 21.5587 187.751 22.2431 187.798 22.4791L190.099 23.0455L190.028 24.7094H180.612Z" fill="white"/>
<path d="M169.036 24.9926C167.95 24.9926 167.006 24.7565 166.204 24.2845C165.425 23.8125 164.823 23.2461 164.399 22.5853C163.997 21.9245 163.797 21.2991 163.797 20.7091C163.797 19.8595 164.056 19.1515 164.576 18.5851C165.118 17.9951 165.944 17.5349 167.054 17.2045L172.611 15.5761V14.3017C172.611 13.8061 172.446 13.3459 172.116 12.9211C171.809 12.4727 171.396 12.1069 170.877 11.8237C170.358 11.5405 169.803 11.3989 169.213 11.3989C168.835 11.3989 168.564 11.4933 168.399 11.6821C168.257 11.8473 168.163 12.1895 168.116 12.7087L167.939 14.8681C166.759 15.1041 165.791 15.0687 165.036 14.7619C164.304 14.4315 163.938 13.9005 163.938 13.1689C163.938 12.7205 164.174 12.2603 164.646 11.7883C165.118 11.3163 165.697 10.8797 166.381 10.4785C167.089 10.0537 167.809 9.69966 168.54 9.41646C169.272 9.10965 169.909 8.93265 170.452 8.88545C172.552 8.88545 174.216 9.36926 175.443 10.3369C176.671 11.2809 177.296 12.5553 177.32 14.1601L177.213 19.0807C177.213 19.7415 177.225 20.2607 177.249 20.6383C177.296 21.0159 177.367 21.3227 177.461 21.5587L179.798 21.9835V23.4703L177.497 24.4615C177.072 24.6267 176.682 24.7565 176.328 24.851C175.974 24.9454 175.632 24.9926 175.302 24.9926C174.381 24.9926 173.732 24.5205 173.355 23.5765L172.753 21.9481L173.496 22.1251C172.765 23.0219 172.01 23.7299 171.231 24.2491C170.476 24.7448 169.744 24.9926 169.036 24.9926ZM170.841 21.8065C171.172 21.8065 171.49 21.7475 171.797 21.6295C172.104 21.4879 172.387 21.2873 172.647 21.0277V17.5585L170.24 18.0187C169.65 18.0895 169.225 18.2665 168.965 18.5497C168.729 18.8329 168.611 19.2105 168.611 19.6825C168.611 20.2253 168.824 20.7209 169.248 21.1693C169.697 21.5941 170.228 21.8065 170.841 21.8065Z" fill="white"/>
<path d="M154.664 24.9925C153.13 24.9925 151.761 24.6503 150.557 23.9659C149.377 23.2815 148.445 22.3493 147.76 21.1693C147.1 19.9893 146.769 18.6559 146.769 17.1691C146.769 15.5171 147.147 14.0775 147.902 12.8503C148.657 11.5994 149.637 10.62 150.84 9.91203C152.068 9.20403 153.377 8.86183 154.77 8.88543C156.847 8.88543 158.451 9.53443 159.584 10.8324C160.717 12.1068 161.283 13.7707 161.283 15.8239V16.6735H150.876V14.8327H157.814L157.283 15.6823V14.4787C157.283 13.3695 157.035 12.4844 156.54 11.8236C156.044 11.1628 155.36 10.8324 154.487 10.8324C153.897 10.8324 153.366 10.9976 152.894 11.328C152.422 11.6584 152.044 12.1658 151.761 12.8503C151.501 13.5111 151.371 14.3489 151.371 15.3637V16.1071C151.371 17.7591 151.808 19.0925 152.681 20.1073C153.578 21.1221 154.77 21.6295 156.257 21.6295C157.059 21.6295 157.791 21.4879 158.451 21.2047C159.112 20.8979 159.749 20.3905 160.363 19.6825L161.46 20.6737C160.8 22.0897 159.867 23.1635 158.664 23.8951C157.46 24.6267 156.127 24.9925 154.664 24.9925Z" fill="white"/>
<path d="M134.698 24.7094L134.592 22.9393L136.786 22.3729C136.834 22.2549 136.869 21.9363 136.893 21.4171C136.94 20.8979 136.975 20.2489 136.999 19.4701C137.022 18.6913 137.034 17.8417 137.034 16.9213V11.7175C137.034 10.7735 137.022 9.91207 136.999 9.13326C136.975 8.33086 136.94 7.68185 136.893 7.18625C136.869 6.66705 136.834 6.34844 136.786 6.23044L134.592 5.69944L134.698 3.92943H144.185L144.291 5.69944L142.061 6.23044C142.037 6.34844 142.002 6.67885 141.955 7.22165C141.908 7.76445 141.872 8.43706 141.849 9.23946C141.825 10.0419 141.813 10.8679 141.813 11.7175V16.9213C141.813 17.7473 141.825 18.5615 141.849 19.3639C141.872 20.1427 141.908 20.8153 141.955 21.3817C142.002 21.9245 142.037 22.2549 142.061 22.3729L144.291 22.9393L144.185 24.7094H134.698ZM122.025 24.7094L121.918 22.9393L124.149 22.3729C124.196 22.2549 124.231 21.9481 124.255 21.4525C124.302 20.9569 124.337 20.3197 124.361 19.5409C124.385 18.7385 124.396 17.8653 124.396 16.9213V11.7175C124.396 10.7499 124.385 9.86486 124.361 9.06246C124.337 8.26006 124.302 7.61105 124.255 7.11545C124.231 6.59624 124.196 6.30124 124.149 6.23044L121.918 5.69944L122.025 3.92943H131.476L131.583 5.69944L129.388 6.23044C129.341 6.34844 129.293 6.66705 129.246 7.18625C129.223 7.68185 129.199 8.33086 129.175 9.13326C129.175 9.91207 129.175 10.7735 129.175 11.7175V16.9213C129.175 17.8417 129.175 18.6913 129.175 19.4701C129.199 20.2489 129.223 20.8979 129.246 21.4171C129.293 21.9363 129.341 22.2549 129.388 22.3729L131.583 22.9393L131.476 24.7094H122.025ZM128.361 15.4345V12.7441C128.928 12.8149 129.577 12.8621 130.308 12.8857C131.063 12.9093 131.996 12.9211 133.105 12.9211C134.214 12.9211 135.134 12.9093 135.866 12.8857C136.598 12.8621 137.247 12.8149 137.813 12.7441V15.4345C137.317 15.4109 136.704 15.3873 135.972 15.3637C135.241 15.3165 134.285 15.2929 133.105 15.2929C131.925 15.2929 130.957 15.3165 130.202 15.3637C129.47 15.3873 128.857 15.4109 128.361 15.4345Z" fill="white"/>
<path d="M106.767 24.9926C106.012 24.9926 105.316 24.8746 104.678 24.6386C104.065 24.4025 103.569 24.0839 103.192 23.6827C102.814 23.2579 102.625 22.8095 102.625 22.3375C102.625 22.0071 102.684 21.7121 102.802 21.4525C102.92 21.1929 103.085 20.9451 103.298 20.7091C103.935 21.5115 104.631 22.1369 105.386 22.5853C106.142 23.0337 106.85 23.2579 107.51 23.2579C108.171 23.2579 108.69 23.0927 109.068 22.7623C109.446 22.4319 109.634 21.9363 109.634 21.2755C109.634 20.8743 109.493 20.4495 109.21 20.0011C108.926 19.5527 108.395 18.9981 107.617 18.3373C106.838 17.6057 106.236 16.9921 105.811 16.4965C105.386 16.0009 105.091 15.5525 104.926 15.1513C104.761 14.7265 104.678 14.3017 104.678 13.8769C104.678 13.0037 104.914 12.2131 105.386 11.5051C105.882 10.7971 106.543 10.2425 107.369 9.84126C108.218 9.41646 109.151 9.20406 110.165 9.20406C110.755 9.20406 111.322 9.28666 111.865 9.45186C112.431 9.61706 112.891 9.85306 113.245 10.1599C113.599 10.4667 113.776 10.8443 113.776 11.2927C113.776 11.5759 113.717 11.8355 113.599 12.0715C113.481 12.2839 113.316 12.5081 113.104 12.7441C112.514 12.1305 111.888 11.6585 111.227 11.3281C110.567 10.9977 109.929 10.8325 109.316 10.8325C108.655 10.8325 108.124 11.0213 107.723 11.3989C107.345 11.7765 107.156 12.2721 107.156 12.8857C107.156 13.1689 107.215 13.4639 107.333 13.7707C107.475 14.0539 107.699 14.3725 108.006 14.7265C108.313 15.0805 108.749 15.5171 109.316 16.0363C110.095 16.7443 110.685 17.3461 111.086 17.8417C111.487 18.3137 111.758 18.7503 111.9 19.1515C112.065 19.5291 112.148 19.9303 112.148 20.3551C112.148 21.1811 111.888 21.9481 111.369 22.6561C110.873 23.3641 110.213 23.9305 109.387 24.3553C108.584 24.7802 107.711 24.9926 106.767 24.9926Z" fill="white"/>
<path d="M98.8728 10.0537L98.2356 9.13326C99.2032 8.47245 99.9348 7.81165 100.43 7.15084C100.926 6.46644 101.174 5.80564 101.174 5.16843C101.174 4.83803 101.115 4.55483 100.997 4.31883C100.902 4.05923 100.773 3.82322 100.607 3.61082C100.466 3.39842 100.336 3.17422 100.218 2.93822C100.124 2.67862 100.076 2.39541 100.076 2.08861C100.076 1.52221 100.301 1.03841 100.749 0.637204C101.197 0.212401 101.728 0 102.342 0C102.932 0 103.404 0.200601 103.758 0.601804C104.136 1.00301 104.324 1.53401 104.324 2.19481C104.324 3.06802 104.077 4.01202 103.581 5.02683C103.085 6.01804 102.425 6.96204 101.599 7.85885C100.796 8.75565 99.8876 9.48726 98.8728 10.0537Z" fill="white"/>
<path d="M87.4739 24.9926C86.0579 24.9926 84.8661 24.5087 83.8985 23.5411C82.9545 22.5735 82.4825 21.2519 82.4825 19.5763C82.4825 18.3019 82.6949 17.0511 83.1197 15.8239C83.5681 14.5967 84.1817 13.4875 84.9605 12.4963C85.7393 11.4815 86.6479 10.6791 87.6863 10.0891C88.7484 9.49906 89.893 9.20406 91.1202 9.20406C92.2766 9.20406 93.138 9.47546 93.7044 10.0183C94.2944 10.5611 94.5894 11.1865 94.5894 11.8945C94.5894 12.5317 94.3888 13.1571 93.9876 13.7707C93.61 14.3607 93.02 14.9625 92.2176 15.5761C91.4388 16.1661 90.4476 16.7561 89.244 17.3461C88.0403 17.9125 86.6243 18.5025 84.9959 19.1161V17.5939C86.4827 17.0275 87.7217 16.4729 88.713 15.9301C89.7278 15.3637 90.4948 14.7737 91.014 14.1601C91.5332 13.5465 91.7928 12.9093 91.7928 12.2485C91.7928 11.7529 91.6394 11.3871 91.3326 11.1511C91.0258 10.8915 90.6246 10.7617 90.129 10.7617C89.303 10.7617 88.5242 11.1157 87.7925 11.8237C87.0845 12.5081 86.5063 13.4639 86.0579 14.6911C85.6331 15.8947 85.4207 17.2871 85.4207 18.8683C85.4207 20.0955 85.7039 21.0513 86.2703 21.7357C86.8367 22.4201 87.5801 22.7623 88.5006 22.7623C89.067 22.7623 89.7396 22.5735 90.5184 22.1959C91.2972 21.7947 92.0406 21.1221 92.7486 20.1781L93.5982 21.3463C92.7722 22.5027 91.8164 23.3995 90.7308 24.0367C89.6452 24.674 88.5596 24.9926 87.4739 24.9926Z" fill="white"/>
<path d="M80.3939 11.9299C79.8747 11.9299 79.3791 12.1895 78.9071 12.7087C78.4351 13.2043 77.9749 13.8769 77.5265 14.7265C77.0781 15.5525 76.6297 16.4493 76.1813 17.4169C75.5677 18.7621 75.0367 20.1073 74.5883 21.4525C74.1399 22.7977 73.8213 23.8833 73.6325 24.7094H70.8004C71.2016 23.4349 71.5792 22.1251 71.9332 20.7799C72.3109 19.4111 72.6413 18.1013 72.9245 16.8505C73.2077 15.5997 73.4319 14.4787 73.5971 13.4875C73.7623 12.4963 73.8449 11.7411 73.8449 11.2219C73.3257 11.5051 72.8301 11.8709 72.3581 12.3193C71.886 12.7441 71.414 13.2987 70.942 13.9831L70.1278 12.8503C70.7178 12.1187 71.3196 11.4815 71.9332 10.9387C72.5469 10.3959 73.1369 9.97106 73.7033 9.66426C74.2697 9.35746 74.7771 9.20406 75.2255 9.20406C75.6267 9.20406 75.9217 9.33386 76.1105 9.59346C76.2993 9.82946 76.3937 10.2071 76.3937 10.7263C76.3937 11.1275 76.3347 11.7293 76.2167 12.5317C76.0987 13.3341 75.8509 14.4551 75.4733 15.8947C75.1193 17.3107 74.5529 19.1397 73.7741 21.3817H73.5971C74.4231 19.1633 75.1547 17.2871 75.7919 15.7531C76.4527 14.1955 77.0663 12.9447 77.6327 12.0007C78.1991 11.0331 78.7655 10.3251 79.3319 9.87666C79.9219 9.42826 80.5473 9.20406 81.2081 9.20406C81.7037 9.20406 82.0931 9.34566 82.3763 9.62886C82.6595 9.88846 82.8011 10.2543 82.8011 10.7263C82.8011 11.0331 82.7421 11.3517 82.6241 11.6821C82.5061 11.9889 82.3055 12.3075 82.0223 12.6379C81.7863 12.4019 81.5149 12.2249 81.2081 12.1069C80.9249 11.9889 80.6535 11.9299 80.3939 11.9299Z" fill="white"/>
<path d="M57.5608 9.20406C58.0092 9.20406 58.3514 9.34566 58.5874 9.62886C58.8234 9.88846 58.9414 10.2543 58.9414 10.7263C58.9414 11.0567 58.847 11.5995 58.6582 12.3547C58.4694 13.1099 58.2334 13.9713 57.9502 14.9389C57.6906 15.8829 57.4191 16.8387 57.1359 17.8063C56.8527 18.7503 56.6167 19.5999 56.4279 20.3551C56.2391 21.1103 56.1447 21.6531 56.1447 21.9835C56.1447 22.1959 56.2037 22.3729 56.3217 22.5145C56.4397 22.6561 56.6285 22.7269 56.8881 22.7269C57.3601 22.7269 57.903 22.4555 58.5166 21.9127C59.1302 21.3699 59.7556 20.6383 60.3928 19.7179C61.0536 18.7975 61.6908 17.7591 62.3044 16.6027C62.918 15.4463 63.4608 14.2545 63.9328 13.0273C64.4284 11.8001 64.806 10.6201 65.0656 9.48726H67.756C67.3548 10.7617 66.9654 12.0833 66.5878 13.4521C66.2102 14.7973 65.8798 16.0953 65.5966 17.3461C65.3134 18.5969 65.0892 19.7179 64.924 20.7091C64.7588 21.6767 64.6762 22.4319 64.6762 22.9747C65.1954 22.6915 65.6792 22.3375 66.1276 21.9127C66.5996 21.4643 67.0716 20.9451 67.5436 20.3551L68.3932 21.3817C67.8032 22.1133 67.2014 22.7505 66.5878 23.2933C65.9742 23.8361 65.3842 24.2609 64.8178 24.5678C64.2514 24.851 63.7204 24.9926 63.2248 24.9926C62.8236 24.9926 62.505 24.8628 62.269 24.6032C62.033 24.3199 61.915 23.9541 61.915 23.5057C61.915 23.0809 61.974 22.5145 62.092 21.8065C62.21 21.0985 62.4106 20.1663 62.6938 19.0099C63.0006 17.8299 63.4018 16.3667 63.8974 14.6203H64.2514C63.803 15.8947 63.2602 17.1455 62.623 18.3727C62.0094 19.5999 61.3132 20.7209 60.5344 21.7357C59.7792 22.7269 58.9768 23.5175 58.1272 24.1075C57.2775 24.6976 56.4161 24.9926 55.5429 24.9926C54.8585 24.9926 54.3157 24.8038 53.9145 24.4261C53.5133 24.0249 53.3127 23.4703 53.3127 22.7623C53.3127 22.3847 53.4071 21.8183 53.5959 21.0631C53.7847 20.2843 54.0207 19.4111 54.3039 18.4435C54.5871 17.4759 54.8703 16.5201 55.1535 15.5761C55.4367 14.6085 55.6727 13.7353 55.8615 12.9565C56.0503 12.1777 56.1447 11.5995 56.1447 11.2219C55.6255 11.5051 55.1181 11.8709 54.6225 12.3193C54.1505 12.7441 53.6785 13.2987 53.2065 13.9831L52.3923 12.8503C52.9823 12.1187 53.5841 11.4815 54.1977 10.9387C54.8113 10.3959 55.4013 9.97106 55.9677 9.66426C56.5577 9.35746 57.0887 9.20406 57.5608 9.20406Z" fill="white"/>
<path d="M50.4453 20.7799C49.3125 22.4319 48.2269 23.5529 47.1885 24.143C46.1737 24.7094 45.2769 24.9926 44.4981 24.9926C43.7665 24.9926 43.1765 24.7802 42.7281 24.3554C42.3033 23.9305 42.0909 23.3523 42.0909 22.6207C42.0909 22.3611 42.1145 22.0779 42.1617 21.7711C42.2325 21.4407 42.3151 21.0277 42.4095 20.5321L44.6043 11.3281H42.1263L42.3033 10.5847L47.7903 6.40744H48.4629L47.4363 10.4785L45.2061 20.1427C45.1117 20.5675 45.0409 20.9097 44.9937 21.1693C44.9465 21.4053 44.9229 21.6177 44.9229 21.8065C44.9229 22.4673 45.2179 22.7977 45.8079 22.7977C46.1855 22.7977 46.6929 22.5735 47.3301 22.1251C47.9673 21.6531 48.7343 20.8153 49.6311 19.6117L50.4453 20.7799ZM45.9849 11.3281L46.3743 9.55806H51.5427L51.1887 11.3281H45.9849Z" fill="white"/>
<path d="M26.975 24.9926C26.1726 24.9926 25.5472 24.6622 25.0988 24.0013C24.6503 23.3169 24.4261 22.4437 24.4261 21.3817C24.4261 19.7061 24.6975 18.1367 25.2404 16.6735C25.8068 15.2103 26.5502 13.9241 27.4706 12.8149C28.391 11.6821 29.394 10.7971 30.4796 10.1599C31.5888 9.52266 32.6744 9.20406 33.7364 9.20406C34.3736 9.20406 34.9282 9.36926 35.4002 9.69966C35.8722 10.0065 36.3442 10.4431 36.8162 11.0095L36.1082 12.1423C35.7306 11.7175 35.2704 11.4107 34.7276 11.2219C34.1848 11.0331 33.642 10.9387 33.0992 10.9387C32.344 10.9387 31.6242 11.2101 30.9398 11.7529C30.2554 12.2721 29.6536 12.9919 29.1344 13.9123C28.6152 14.8091 28.2022 15.8475 27.8954 17.0275C27.5886 18.2075 27.4352 19.4465 27.4352 20.7445C27.4352 21.3581 27.4942 21.8419 27.6122 22.1959C27.7538 22.5263 27.978 22.6915 28.2848 22.6915C28.6624 22.6915 29.158 22.3965 29.7716 21.8065C30.4088 21.1929 31.0932 20.3669 31.8248 19.3285C32.5564 18.2665 33.2644 17.0629 33.9488 15.7177C34.6332 14.3725 35.2232 12.9447 35.7188 11.4343L36.0728 10.7263L37.418 9.48726H38.9402C38.539 10.7617 38.1496 12.0833 37.772 13.4521C37.3944 14.7973 37.064 16.0953 36.7808 17.3461C36.4976 18.5969 36.2734 19.7179 36.1082 20.7091C35.943 21.6767 35.8604 22.4319 35.8604 22.9747C36.3796 22.6915 36.8752 22.3375 37.3472 21.9127C37.8192 21.4643 38.2912 20.9451 38.7632 20.3551L39.6128 21.3817C39.0228 22.1133 38.421 22.7505 37.8074 23.2933C37.1938 23.8361 36.6038 24.2609 36.0374 24.5678C35.471 24.851 34.94 24.9926 34.4444 24.9926C33.996 24.9926 33.6656 24.8628 33.4532 24.6032C33.2408 24.3199 33.1346 23.9541 33.1346 23.5057C33.1346 23.0809 33.1936 22.5145 33.3116 21.8065C33.4296 21.0985 33.6302 20.1663 33.9134 19.0099C34.1966 17.8299 34.586 16.3667 35.0816 14.6203H35.471C34.7394 16.6735 33.878 18.4789 32.8868 20.0365C31.8956 21.5941 30.8808 22.8095 29.8424 23.6827C28.804 24.556 27.8482 24.9926 26.975 24.9926Z" fill="white"/>
<path d="M17.0983 19.8595L18.8329 11.6821C19.1161 10.4077 19.3285 9.38106 19.4701 8.60226C19.6353 7.82345 19.7533 7.20985 19.8241 6.76145C19.8949 6.31304 19.9421 5.97084 19.9657 5.73484L17.6647 5.23924L18.0187 3.92943H24.6386L24.4262 5.23924L22.1605 5.73484C22.0897 5.99444 21.9953 6.34844 21.8773 6.79685C21.7829 7.24525 21.6413 7.85885 21.4525 8.63766C21.2873 9.39286 21.0631 10.4077 20.7799 11.6821L18.9745 20.1073C18.8093 20.8389 18.6441 21.6059 18.4789 22.4083C18.3373 23.2107 18.1839 24.025 18.0187 24.851H16.5319L7.22164 7.18625H7.89425L5.91184 16.6027C5.74664 17.3579 5.58143 18.1603 5.41623 19.0099C5.25103 19.8595 5.09763 20.6383 4.95603 21.3463C4.83803 22.0543 4.75543 22.5735 4.70823 22.9039L7.00924 23.3995L6.65524 24.7094H0L0.212401 23.3995L2.47802 22.9039C2.57242 22.5735 2.73762 21.8655 2.97362 20.7799C3.23322 19.6943 3.55182 18.2665 3.92942 16.4965L5.16843 10.7617C5.47523 9.29846 5.68763 8.15385 5.80564 7.32785C5.94724 6.47824 6.02984 5.94724 6.05344 5.73484L4.00022 5.23924L4.38963 3.92943H9.06246L17.5231 19.7887L17.0983 19.8595Z" fill="white"/>
</svg>
