<svg xmlns="http://www.w3.org/2000/svg" viewBox="0 0 256.9 59.4"><path fill="#fffaf1" d="M56 19.7h11.5c7.8 0 12.9 6.3 12.9 15s-1.6 9-4.7 11.5C73.5 48 70.7 49 67 49H56V19.6Zm10.6 24.2c5.6 0 7.8-3.4 7.8-9.2s-2.5-9.9-7.6-9.9H62v19.1zm16.1-24.2h5.6v5h-5.6zm0 8.3h5.6v21.1h-5.6zm13.7 3.4h.1c1.3-2.4 2.7-3.6 5.2-3.6s1 0 1.3.2v4.9h-.1c-3.7-.4-6.3 1.6-6.3 6v10.3H91V28.1h5.4v3.4Zm6.9 7.1c0-6.2 4.2-11.1 10.4-11.1s10.4 5.2 10.4 12.7h-15.3c.4 3.2 2.2 5.3 5.4 5.3s3.4-1 4.1-2.6h5.5c-.8 3.7-4.1 6.9-9.5 6.9s-10.9-4.9-10.9-11.2Zm5.6-2.2h9.4c-.2-2.7-1.9-4.5-4.5-4.5s-4.4 1.8-4.9 4.5m16.7 2.3c0-6.3 4.1-11.1 10.5-11.1s8.8 3.2 9.6 7.7h-5.5c-.4-1.8-1.8-3.2-3.9-3.2-3.4 0-5.1 2.6-5.1 6.7s1.6 6.7 5 6.7 3.9-1.2 4.2-3.6h5.4c-.4 4.5-3.9 8-9.5 8s-10.8-4.8-10.8-11.1ZM146.2 28h2.9v-6.6h5.5V28h5v3.7h-5v10.8c0 1.6.9 2.1 2.1 2.1h3v4.5h-4.9c-2.3 0-5.7-1.1-5.7-5.1V31.6h-2.9v-3.7Zm16.2-8.3h8.4l4.1 14.7c1 3.7 1.8 7.9 1.8 7.9s.8-4.2 1.8-7.9l4.1-14.7h8.5v29.4h-5.5V32.3c0-2.4.2-5 .2-5h-.4s-.3 2.4-.9 4.6l-5.1 17.3h-5.7l-4.9-17.3c-.6-2.1-.9-4.6-.9-4.6h-.4s.2 2.7.2 5v16.8h-5.5V19.7ZM193 38.5c0-6.2 4.2-11.1 10.4-11.1s10.4 5.2 10.4 12.7h-15.3c.4 3.2 2.2 5.3 5.4 5.3s3.4-1 4.1-2.6h5.5c-.8 3.7-4.1 6.9-9.5 6.9s-10.9-4.9-10.9-11.2Zm5.6-2.2h9.4c-.2-2.7-1.9-4.5-4.5-4.5s-4.4 1.8-4.9 4.5m16.5 2.3c0-6.6 3.7-11.1 9-11.1s4.8 1.4 6 3.1h.1V19.8h5.6v29.4h-5.4v-2.8c-1.2 2-3.3 3.4-6.3 3.4-5.3 0-8.9-4.3-8.9-11.1Zm15.2.1c0-4-1.3-6.7-4.9-6.7s-4.6 2.7-4.6 6.6 1.6 6.4 4.5 6.4 5.1-2.5 5.1-6.3Zm6.9 3.5h5.2c.4 2.4 2.1 3.5 4.6 3.5s3.9-.9 3.9-2.4-2.7-2.2-5.5-2.8c-3.8-.7-7.5-1.8-7.5-6.4s3.8-6.7 8.6-6.7 8.6 2.8 9 7h-5.1c-.2-2.3-1.7-3.1-4.1-3.1s-3.6.8-3.6 2.3 2.8 2 5.8 2.6c3.5.7 7.4 1.7 7.4 6.7s-3.6 6.8-8.9 6.8-9.5-3-9.9-7.4Z"/><path fill="#2666ff" d="m18.3 19.6 7.4-14.2 4.5 2.4L24 19.6h-5.8Zm16.1 7.6v-7.7H24.1l-7.8 14.9-4.5-2.4 6.5-12.5H.5v7.7c0 8.4 6.2 15.4 14.2 16.7H.8V49h33.3v-5.1H20.2c8.1-1.3 14.2-8.3 14.2-16.7"/></svg>